<svg xmlns="http://www.w3.org/2000/svg" viewBox="0 0 34.65 35.21"><defs><style>.cls-1{fill:#fff}</style></defs><g id="Слой_2" data-name="Слой 2"><g id="Layer_1" data-name="Layer 1"><path class="cls-1" d="M26.79 9.11l-9-8.94a.6.6 0 00-.84 0l-9 8.94a12.54 12.54 0 000 17.77l.55.55a12.66 12.66 0 0017.85 0l.54-.55a12.52 12.52 0 000-17.77zM26 26l-.55.54a11.45 11.45 0 01-16.16 0l-.6-.54a11.35 11.35 0 010-16l8.63-8.53L26 10a11.33 11.33 0 010 16zm5.9-17.49L31.56 8a.61.61 0 00-.84-.15.59.59 0 00-.15.83l.33.48a.6.6 0 101-.65zM34 19.39a.6.6 0 00-.67.52c-.05.4-.11.78-.19 1.17a.6.6 0 001.18.23c.08-.41.15-.83.2-1.25a.6.6 0 00-.52-.67zm-.9 4.19a.61.61 0 00-.78.33c-.14.37-.31.73-.48 1.09a.6.6 0 00.28.8.61.61 0 00.8-.28c.18-.38.35-.77.51-1.16a.6.6 0 00-.33-.78zM15.81 34c-.4 0-.79-.09-1.18-.15a.59.59 0 00-.68.49.6.6 0 00.48.69c.42.07.84.12 1.27.16a.6.6 0 00.65-.53.61.61 0 00-.54-.66zm-4.06-.92c-.38-.13-.74-.28-1.1-.44a.6.6 0 00-.79.29.61.61 0 00.29.8c.39.17.78.33 1.18.48a.6.6 0 00.42-1.13zm-3.67-1.91c-.33-.23-.64-.46-1-.71a.58.58 0 00-.84.09.59.59 0 00.09.84c.33.27.67.52 1 .76a.61.61 0 00.9-.15.61.61 0 00-.15-.84zM5 28.4c-.26-.3-.5-.61-.74-.93a.59.59 0 00-.83-.13.58.58 0 00-.13.83 10.84 10.84 0 00.79 1A.6.6 0 005 28.4zm15.55 5.97a.61.61 0 00-.69-.5c-.38.06-.78.11-1.17.15a.6.6 0 00-.55.64.6.6 0 00.65.55l1.26-.15a.59.59 0 00.5-.69zm7.72-3.76a.6.6 0 00-.84-.1c-.31.25-.63.48-.95.71a.6.6 0 10.68 1c.35-.24.69-.5 1-.76a.61.61 0 00.09-.84zm-25.52-5.7c-.17-.36-.33-.71-.47-1.09a.59.59 0 00-.78-.33.59.59 0 00-.34.77c.16.4.32.79.51 1.17a.6.6 0 001.08-.52zM24.67 33a.61.61 0 00-.79-.3c-.36.16-.73.31-1.1.45a.59.59 0 00-.36.76.6.6 0 00.77.36c.4-.15.79-.3 1.17-.48a.59.59 0 00.31-.79zm9.13-20.49c-.13-.4-.27-.8-.44-1.19a.59.59 0 00-.78-.32.6.6 0 00-.32.78 8.68 8.68 0 01.41 1.11.61.61 0 00.76.38.6.6 0 00.37-.76zm-2.68 14.92a.58.58 0 00-.83.12c-.24.32-.48.63-.75.93a.6.6 0 00.91.78c.27-.33.54-.65.79-1a.59.59 0 00-.12-.83zm3.41-11.81a.6.6 0 00-1.19.16c0 .39.09.78.11 1.17a.6.6 0 00.63.57.61.61 0 00.57-.63c0-.43-.07-.85-.12-1.27zm-32.46-4.7a.59.59 0 00-.78.33c-.16.39-.31.78-.45 1.19a.6.6 0 001.16.37c.13-.37.26-.74.41-1.11a.59.59 0 00-.32-.78zM.8 15a.6.6 0 00-.67.51C.07 16 0 16.38 0 16.8a.59.59 0 00.56.64.58.58 0 00.63-.55c0-.4.07-.79.12-1.18A.61.61 0 00.8 15zm.64 5.94q-.1-.59-.18-1.17a.59.59 0 00-.66-.53.6.6 0 00-.52.67c.05.42.11.84.19 1.25a.6.6 0 101.17-.22zM3.9 7.84a.59.59 0 00-.83.16l-.34.51a.6.6 0 00.18.83.58.58 0 00.82-.17l.33-.49a.6.6 0 00-.16-.83z"/><path class="cls-1" d="M20.91 15.51h-1.48l2-4.54a.59.59 0 00-.54-.84h-3.57a.6.6 0 00-.54.33l-3.59 7.18a.6.6 0 00.53.87h1.57l-2.13 6.39a.6.6 0 001 .56l7.18-9a.6.6 0 00-.46-1z"/></g></g></svg>