<svg xmlns="http://www.w3.org/2000/svg" viewBox="0 0 30.64 38.7"><defs><style>.cls-1{fill:#fff}</style></defs><g id="Слой_2" data-name="Слой 2"><g id="Layer_1" data-name="Layer 1"><path class="cls-1" d="M4.84 4.84h8.06v1.61H4.84zm0 3.22h1.61v1.61H4.84zm3.22 0h1.61v1.61H8.06z"/><path class="cls-1" d="M30.4 6.69L24 .24a.82.82 0 00-.62-.24h-21A2.42 2.42 0 000 2.42v25.8h1.61V2.42a.81.81 0 01.81-.81h20.63l6 6v4.5h1.62V7.26a.8.8 0 00-.24-.57zM29 22.57v13.71a.81.81 0 01-.8.81H2.42a.81.81 0 01-.81-.81v-1.61H0v1.61a2.42 2.42 0 002.42 2.42h25.8a2.43 2.43 0 002.42-2.42V22.57z"/><path class="cls-1" d="M25 6.45a.8.8 0 01-.8-.81V.81h-1.63v4.83A2.42 2.42 0 0025 8.06h1.6V6.45zm3.45 8.3l-8.63 8.63h-7.73a.78.78 0 00-.57.24l-7 7H.81v1.61h4a.82.82 0 00.6-.23l7-7h7.72a.79.79 0 00.57-.23l8.87-8.87z"/><path class="cls-1" d="M29 14.51h-4.81v1.61h4v4h1.61v-4.8a.81.81 0 00-.81-.81z"/></g></g></svg>