<svg xmlns="http://www.w3.org/2000/svg" viewBox="0 0 28.89 33.49"><defs><style>.cls-1{fill:#fff}</style></defs><g id="Слой_2" data-name="Слой 2"><g id="Layer_1" data-name="Layer 1"><path class="cls-1" d="M27.91 7.84a.49.49 0 101 0A7.85 7.85 0 0015 2.89a2.75 2.75 0 00-4.67 2.45 2.44 2.44 0 00.27.74A9.08 9.08 0 004 14.79a.49.49 0 001 0 8.09 8.09 0 016.51-7.92A7.47 7.47 0 0113 6.71h.23a6.86 6.86 0 00-.09 1.12A7.86 7.86 0 0021 15.68h.09v2.37A6.44 6.44 0 0023.45 23l.59.49a2.59 2.59 0 01.93 2 2.56 2.56 0 01-2.56 2.56H3.55A2.57 2.57 0 011 25.51a2.55 2.55 0 011-2l.6-.49A6.37 6.37 0 005 18v-1.08a.49.49 0 10-1 0V18a5.43 5.43 0 01-2 4.25l-.61.49A3.58 3.58 0 000 25.51a3.55 3.55 0 003.55 3.54h5.13v.15a4.3 4.3 0 008.6 0v-.15h5.14A3.56 3.56 0 0026 25.51a3.59 3.59 0 00-1.29-2.75l-.59-.49a5.43 5.43 0 01-2-4.19v-2.47a7.82 7.82 0 003.68-1.52 7.94 7.94 0 002.79-4 .5.5 0 00-.34-.61.5.5 0 00-.61.33 6.85 6.85 0 11.28-1.93zM16.29 29.2a3.32 3.32 0 01-6.63 0v-.15h6.63v.15zM13 5.73a9.23 9.23 0 00-1.48.12 1.73 1.73 0 01-.32-.7 1.78 1.78 0 011.39-2.08 1.78 1.78 0 011.74.64 7.71 7.71 0 00-.9 2z"/><path class="cls-1" d="M21 11.25a.49.49 0 00.49-.49V4.65a.51.51 0 00-.29-.45.49.49 0 00-.53.09l-1.05 1a.49.49 0 10.66.73l.23-.21v5a.49.49 0 00.49.49z"/></g></g></svg>