<svg xmlns="http://www.w3.org/2000/svg" viewBox="0 0 34.98 39.75"><defs><style>.cls-1{fill:#d7e5ea}.cls-2{fill:#357c96}</style></defs><g id="Слой_2" data-name="Слой 2"><g id="Layer_1" data-name="Layer 1"><path class="cls-1" d="M8.94 10.68c-.91-.23-1.75-.48-2.49-.74A.66.66 0 106 11.18c.78.28 1.66.54 2.61.78h.11a.67.67 0 00.7-.56.66.66 0 00-.49-.74zm2.54.55a.63.63 0 00-.5.1.65.65 0 00-.18.93.68.68 0 00.44.26 57.23 57.23 0 006.65.82 57.27 57.27 0 006.68.09.63.63 0 00.47-.2.67.67 0 00.18-.48.69.69 0 00-.22-.47.72.72 0 00-.49-.16A56.89 56.89 0 0118 12a56.83 56.83 0 01-6.5-.8zm-.72 10.51a.64.64 0 00-.78.52.69.69 0 00.11.5.68.68 0 00.44.27 58.91 58.91 0 006.65.82 57.24 57.24 0 006.68.09.66.66 0 00.47-.21.7.7 0 00.18-.48.63.63 0 00-.23-.46.66.66 0 00-.48-.17 57.09 57.09 0 01-6.54-.08 59.15 59.15 0 01-6.5-.8zm12.32 11.39a59.25 59.25 0 01-6.53-.13 56.83 56.83 0 01-6.5-.8.67.67 0 00-.5.09.71.71 0 00-.29.43.63.63 0 00.12.5.61.61 0 00.43.27 57.23 57.23 0 006.65.82 57.27 57.27 0 006.68.09.67.67 0 00.65-.69.69.69 0 00-.22-.46.62.62 0 00-.49-.16zM8.22 21.18a24.79 24.79 0 01-2.49-.74.67.67 0 00-.5 0 .69.69 0 00-.35.38.62.62 0 000 .5.67.67 0 00.38.34c.79.28 1.67.54 2.61.78h.12a.66.66 0 00.69-.55.66.66 0 00-.49-.75zm-.71 10.51C6.6 31.46 5.76 31.21 5 31a.61.61 0 00-.51 0 .65.65 0 00-.31.88.6.6 0 00.38.33c.78.28 1.66.55 2.61.79h.13a.65.65 0 00.7-.55.66.66 0 00-.49-.74z"/><path class="cls-1" d="M30 1.76A71.67 71.67 0 0018.78.22a71.05 71.05 0 00-11.3 0C2.85.68 2.2 1.62 2.15 2.38L0 33.89c-.2 3 8 5.16 16.1 5.71s16.52-.45 16.73-3.47L35 4.61c.05-.76-.47-1.78-5-2.85zm2.25 23.77c-.09 1.34-6.11 2.88-15.32 2.26s-15-3-14.88-4.31l.55-8c2.84 2 10.16 2.79 15 3.12s12.16.51 15.24-1.07zm.67-9.84c-.09 1.09-4.92 2.31-15.3 1.59s-15-2.56-14.92-3.65L3.29 5c2.85 2 10.17 2.8 15 3.12S30.4 8.61 33.49 7zM3.46 2.52c.53-.66 5.6-1.65 15.23-1s14.53 2.32 15 3.05v.6c-.08 1.09-4.87 2.31-15.28 1.6S3.34 4.22 3.42 3.13zm12.73 35.77c-9.21-.63-15-3-14.87-4.31l.58-8.58c2.53 1.94 8.72 3.28 14.92 3.7s12.51-.1 15.28-1.65L31.52 36c-.1 1.34-6.11 2.88-15.33 2.25z"/><path class="cls-2" d="M10 12.81a19.77 19.77 0 01-2.09-.47.58.58 0 00-.41 0 .54.54 0 00-.26.33.53.53 0 00.38.67c.66.19 1.4.35 2.19.5h.09a.54.54 0 00.1-1.07zm2.06.31a.52.52 0 00-.4.11.53.53 0 00-.09.77.59.59 0 00.37.2 50.54 50.54 0 005.5.3 50.22 50.22 0 005.49-.3.62.62 0 00.38-.2.54.54 0 00-.09-.77.56.56 0 00-.41-.11 45.78 45.78 0 01-5.37.29 46.18 46.18 0 01-5.38-.29zm0 8.66a.52.52 0 00-.4.11.53.53 0 00-.09.77.59.59 0 00.37.2 50.54 50.54 0 005.5.3 50.22 50.22 0 005.49-.3.62.62 0 00.38-.2.54.54 0 00-.09-.77.56.56 0 00-.41-.11 45.78 45.78 0 01-5.37.29 46.18 46.18 0 01-5.38-.29zm10.75 8.66a45.78 45.78 0 01-5.37.29 46.18 46.18 0 01-5.38-.29.52.52 0 00-.4.11.53.53 0 00-.09.77.59.59 0 00.37.2 50.54 50.54 0 005.5.3 50.22 50.22 0 005.49-.3.62.62 0 00.38-.2.54.54 0 00-.09-.77.56.56 0 00-.41-.11zM10 21.47A19.77 19.77 0 017.86 21a.58.58 0 00-.41 0 .54.54 0 00-.26.33.53.53 0 00.38.67c.66.19 1.4.35 2.19.5h.09a.54.54 0 00.1-1.07zm0 8.66a19.77 19.77 0 01-2.09-.47.58.58 0 00-.41 0 .55.55 0 00-.21.75.56.56 0 00.33.25c.66.19 1.4.35 2.19.5h.09a.54.54 0 00.1-1.07z"/><path class="cls-2" d="M26.72 4.31a60 60 0 00-9.28-.64 59.93 59.93 0 00-9.27.64c-3.77.63-4.26 1.44-4.26 2.07v26c0 2.49 6.81 3.79 13.53 3.79S31 34.85 31 32.36v-26c0-.63-.48-1.44-4.25-2.07zm3.17 19.39c0 1.1-4.85 2.7-12.45 2.7S5 24.8 5 23.7v-6.6c2.45 1.47 8.5 1.73 12.45 1.73s10-.26 12.45-1.73zm0-8.12c0 .9-3.86 2.16-12.45 2.16S5 16.48 5 15.58V8.44c2.45 1.47 8.5 1.73 12.45 1.73s10-.26 12.45-1.73zM5 6.42c.4-.57 4.5-1.67 12.44-1.67s12 1.1 12.45 1.67v.5c0 .9-3.86 2.16-12.45 2.16S5 7.82 5 6.92zm12.44 28.64c-7.6 0-12.44-1.6-12.44-2.7v-7.08c2.19 1.45 7.34 2.21 12.45 2.21s10.27-.76 12.45-2.21v7.08c0 1.1-4.85 2.7-12.45 2.7z"/></g></g></svg>