<svg xmlns="http://www.w3.org/2000/svg" viewBox="0 0 37.67 26.46"><g data-name="Слой 2"><g data-name="Layer 1"><path d="M31 10.91l-.6-.06a6.55 6.55 0 00-5.51-5.17 6.32 6.32 0 00-1.79 0 8.45 8.45 0 00-6.8-5.6A9.31 9.31 0 0014.47 0a8.49 8.49 0 00-7.71 7.23 9.76 9.76 0 00-.07 1.62 7.19 7.19 0 00-.55 14.29l22.61 3.24A7.81 7.81 0 0031 10.91zm-2 13.45L6.41 21.12a5.15 5.15 0 011.33-10.21 1 1 0 00.86-.33 1 1 0 00.25-.89 6.4 6.4 0 015-7.47A6.31 6.31 0 0116 2.15a6.39 6.39 0 015.32 4.93 1 1 0 00.48.66.87.87 0 00.37.13.93.93 0 00.44 0 4.5 4.5 0 011.93-.15 4.57 4.57 0 013.89 4.24 1 1 0 00.87 1h.2a6.29 6.29 0 011.15 0A5.77 5.77 0 1129 24.36z" fill="#d7e5ea"/><path d="M29.33 9.7h-.53a5.85 5.85 0 00-5.5-3.86 6 6 0 00-1.57.22A7.5 7.5 0 0015.08 2a7.28 7.28 0 00-1.61.17 7.51 7.51 0 00-5.86 7.34 6.87 6.87 0 00.14 1.43 6.38 6.38 0 001.31 12.62h20.28a6.93 6.93 0 100-13.86zm0 12.05H9a4.57 4.57 0 01-.12-9.14.9.9 0 00.83-1.2 5.69 5.69 0 013.41-7.2 5.87 5.87 0 011.94-.34 5.71 5.71 0 015.3 3.67.91.91 0 00.5.52.84.84 0 00.35.07 1 1 0 00.38-.08 3.9 3.9 0 011.68-.38 4.06 4.06 0 013.94 3.23.92.92 0 00.89.73h.18a4.9 4.9 0 011-.1 5.12 5.12 0 110 10.24z" fill="#357c96"/></g></g></svg>