<svg xmlns="http://www.w3.org/2000/svg" viewBox="0 0 39.63 39.65"><defs><style>.cls-1{fill:#d7e5ea}.cls-2{fill:#357c96}</style></defs><g id="Слой_2" data-name="Слой 2"><g id="Layer_1" data-name="Layer 1"><path class="cls-1" d="M4.49 26.71a3.26 3.26 0 00-1.61 0 18.27 18.27 0 0122-24.41 18.53 18.53 0 013.4 1.35.78.78 0 00.71-1.38 20.69 20.69 0 00-3.74-1.5A19.81 19.81 0 001.49 27.36a3.25 3.25 0 003.68 5.32 3.25 3.25 0 001.27-4.42 3.28 3.28 0 00-1.95-1.55zm-.07 4.62a1.69 1.69 0 01-2.31-.67A1.62 1.62 0 012 29.37a1.65 1.65 0 01.81-1 1.7 1.7 0 012.46 2 1.68 1.68 0 01-.81 1zm33.72-19.04a3.26 3.26 0 00.73-4.06 3.22 3.22 0 00-1.95-1.55 3.28 3.28 0 00-2.47.32 3.17 3.17 0 00-1.54 2 3.24 3.24 0 003.84 4 18.28 18.28 0 01-25.32 23.06.77.77 0 10-.71 1.37 19.81 19.81 0 0027.42-25.14zm-3.6-1.65a1.73 1.73 0 01-.15-1.3 1.75 1.75 0 01.81-1 1.7 1.7 0 012.32.66 1.71 1.71 0 01-.66 2.32 1.73 1.73 0 01-1.3.15 1.75 1.75 0 01-1-.81z"/><path class="cls-1" d="M13.09 31.75a.76.76 0 00.53 1L18.27 34a.78.78 0 001-.53l.41-1.44a12.15 12.15 0 003.12-.36l.69 1.33a.77.77 0 001.05.3l4.23-2.3a.76.76 0 00.3-1.05l-.72-1.31a12.27 12.27 0 001.95-2.47l1.44.41a.78.78 0 001-.53L34 21.36a.78.78 0 00-.54-1l-1.4-.36a12.61 12.61 0 00-.36-3.12l1.3-.72a.79.79 0 00.37-.47.81.81 0 00-.07-.59L31 10.86a.78.78 0 00-1.06-.3l-1.3.72a11.94 11.94 0 00-2.46-1.95l.41-1.43a.78.78 0 00-.53-1l-4.71-1.29a.77.77 0 00-1 .54L20 7.58a12.15 12.15 0 00-3.12.35l-.73-1.29a.77.77 0 00-1.05-.31l-4.24 2.35a.79.79 0 00-.37.47.81.81 0 00.07.59l.72 1.3a11.87 11.87 0 00-1.95 2.46l-1.44-.41a.76.76 0 00-.95.53L5.6 18.27a.81.81 0 00.07.59.79.79 0 00.47.37l1.43.41a12.69 12.69 0 00.36 3.13l-1.31.72a.79.79 0 00-.3 1.06l2.35 4.23a.74.74 0 00.47.36.81.81 0 00.59-.07l1.3-.73a11.93 11.93 0 002.47 1.96zm-1.32-4.88a.75.75 0 00-.95-.17l-1.17.65-1.6-2.88 1.17-.65a.76.76 0 00.36-.9 10.65 10.65 0 01-.44-3.8.77.77 0 00-.56-.8L7.3 18l.91-3.17 1.28.37a.77.77 0 00.89-.38 10.66 10.66 0 012.38-3 .77.77 0 00.17-1l-.64-1.16 2.88-1.6.64 1.16a.76.76 0 00.9.36 10.68 10.68 0 013.81-.43.78.78 0 00.79-.56l.36-1.28 3.17.91-.36 1.27a.77.77 0 00.38.9 10.59 10.59 0 013 2.38.76.76 0 00.95.16l1.19-.64 1.6 2.88-1.16.64a.76.76 0 00-.36.9 10.91 10.91 0 01.44 3.81.77.77 0 00.56.79l1.27.37-.9 3.16-1.28-.36a.77.77 0 00-.89.38 10.52 10.52 0 01-2.39 3 .78.78 0 00-.16 1l.61 1.14-2.87 1.6-.65-1.16a.77.77 0 00-.9-.37 10.68 10.68 0 01-3.81.44.77.77 0 00-.79.56L18 32.33l-3.16-.9.36-1.29a.77.77 0 00-.38-.89 10.8 10.8 0 01-3-2.38z"/><path class="cls-1" d="M26 21.58A6.4 6.4 0 1018.06 26 6.41 6.41 0 0026 21.58zm-10.85-3.09a4.85 4.85 0 113.33 6 4.86 4.86 0 01-3.33-6zM31.3 5.54a.8.8 0 00.59-.06.79.79 0 00.37-.48.77.77 0 00-.07-.59.77.77 0 00-.46-.37.81.81 0 00-.59.07.79.79 0 00-.37.47.78.78 0 00.07.58.77.77 0 00.46.37zM8.35 34.13a.76.76 0 00-.59.07.75.75 0 00-.37.46.81.81 0 00.07.59.79.79 0 00.47.37.78.78 0 00.58-.07.76.76 0 00.37-.47.74.74 0 00-.07-.58.71.71 0 00-.46-.37z"/><path class="cls-2" d="M9.56 28.47a2.58 2.58 0 00-1.25.32 14.59 14.59 0 0111.5-23.55 14.88 14.88 0 012.91.29.62.62 0 00.28-1.21A15.82 15.82 0 007.4 29.63a2.57 2.57 0 00.33 3.27 2.59 2.59 0 101.83-4.43zm1 3.56A1.38 1.38 0 018.6 32a1.36 1.36 0 010-1.93 1.38 1.38 0 011.92 0 1.36 1.36 0 010 1.93zM32.23 10a2.6 2.6 0 10-2.16 1.16 2.54 2.54 0 001.24-.32 14.59 14.59 0 01-14.37 23.28.62.62 0 00-.73.49.61.61 0 00.48.72 15.5 15.5 0 003.12.31 15.81 15.81 0 0015.82-15.82 15.89 15.89 0 00-3.4-9.8zm-3.13-.46a1.34 1.34 0 01-.39-1 1.38 1.38 0 01.39-1 1.36 1.36 0 110 1.92z"/><path class="cls-2" d="M17.26 30.45a.62.62 0 00.62.62h3.86a.62.62 0 00.62-.62v-1.2a9.8 9.8 0 002.32-1l.85.85a.62.62 0 00.43.18.65.65 0 00.44-.18l2.73-2.74a.62.62 0 000-.87l-.84-.84a9.8 9.8 0 001-2.32h1.19a.62.62 0 00.62-.62v-3.82a.62.62 0 00-.62-.62h-1.23a9.8 9.8 0 00-1-2.32l.84-.84a.65.65 0 00.18-.44.62.62 0 00-.18-.43l-2.74-2.73a.6.6 0 00-.87 0l-.84.83a9.8 9.8 0 00-2.32-1V9.2a.62.62 0 00-.62-.62h-3.82a.62.62 0 00-.62.62v1.18a9.8 9.8 0 00-2.32 1l-.83-.83a.61.61 0 00-.88 0l-2.73 2.69a.58.58 0 00-.18.43.6.6 0 00.18.44l.84.84a9.8 9.8 0 00-1 2.32H9.19a.62.62 0 00-.62.62v3.86a.62.62 0 00.18.44.63.63 0 00.44.18h1.19a9.8 9.8 0 001 2.32l-.85.84a.62.62 0 000 .87l2.74 2.74a.62.62 0 00.43.18.65.65 0 00.44-.18l.84-.85a9.8 9.8 0 002.32 1zM15.19 27a.63.63 0 00-.78.08l-.75.76L11.81 26l.75-.75a.63.63 0 00.08-.78 8.23 8.23 0 01-1.17-2.82.62.62 0 00-.61-.49H9.8V18.5h1.06a.61.61 0 00.61-.48 8.36 8.36 0 011.17-2.83.62.62 0 00-.08-.77l-.75-.75 1.86-1.85.74.74a.62.62 0 00.78.08A8.43 8.43 0 0118 11.47a.61.61 0 00.49-.6V9.81h2.63v1.06a.61.61 0 00.48.6 8.57 8.57 0 012.83 1.17.61.61 0 00.77-.08l.75-.74 1.86 1.85-.75.75a.61.61 0 00-.08.77A8.57 8.57 0 0128.16 18a.61.61 0 00.6.48h1.06v2.63h-1.06a.62.62 0 00-.6.49A8.43 8.43 0 0127 24.44a.62.62 0 00.08.78l.75.75L26 27.83l-.75-.76a.62.62 0 00-.77-.08 8.36 8.36 0 01-2.83 1.17.62.62 0 00-.48.61v1.06H18.5v-1.06a.62.62 0 00-.49-.61A8.23 8.23 0 0115.19 27z"/><path class="cls-2" d="M24.92 19.82a5.11 5.11 0 10-5.11 5.11 5.11 5.11 0 005.11-5.11zm-9 0a3.87 3.87 0 113.87 3.87 3.88 3.88 0 01-3.87-3.87zM25.5 6.34a.61.61 0 00.62-.61.63.63 0 00-.18-.44.62.62 0 00-.44-.18.58.58 0 00-.43.18.59.59 0 000 .87.58.58 0 00.43.18zM14.15 33.31a.63.63 0 00-.44.19.62.62 0 00-.18.43.65.65 0 00.18.44.63.63 0 00.88 0 .65.65 0 00.18-.44.62.62 0 00-.18-.43.63.63 0 00-.44-.19z"/></g></g></svg>