<svg xmlns="http://www.w3.org/2000/svg" viewBox="0 0 36.31 36.31"><g data-name="Слой 2"><path d="M35.7.61H23.6a.61.61 0 00-.61.6V3h-3.13a1.82 1.82 0 00-1.1-1.1V.61a.61.61 0 10-1.21 0v1.32a1.8 1.8 0 000 3.4v6.28a1.82 1.82 0 00-1.1 1.1h-3.14V8.47a.6.6 0 00-.6-.6H.61a.6.6 0 00-.61.6v9.68a.61.61 0 00.61.61h12.1a.6.6 0 00.6-.61v-4.23h3.14a1.84 1.84 0 001.1 1.1v6.27a1.81 1.81 0 000 3.41V31a1.84 1.84 0 00-1.1 1.1h-3.14v-6.68a.6.6 0 00-.6-.61H.61a.61.61 0 00-.61.61v9.68a.6.6 0 00.61.6h12.1a.6.6 0 00.6-.6v-1.82h3.14a1.82 1.82 0 001.1 1.1v1.32a.61.61 0 101.21 0v-1.32a1.81 1.81 0 000-3.41V24.7a1.84 1.84 0 001.1-1.1H23v4.24a.61.61 0 00.61.6H35.7a.6.6 0 00.61-.6v-9.69a.6.6 0 00-.61-.6H23.6a.61.61 0 00-.61.6v4.24h-3.13a1.84 1.84 0 00-1.1-1.1V15a1.81 1.81 0 000-3.41V5.33a1.83 1.83 0 001.1-1.09H23v6.65a.61.61 0 00.61.61H35.7a.61.61 0 00.61-.61V1.21a.6.6 0 00-.61-.6zM12.1 17.55H1.21V9.08H12.1zm0 16.94H1.21V26H12.1zm12.11-15.73H35.1v8.47H24.21zm-6.06 14.52a.61.61 0 11.61-.6.6.6 0 01-.61.6zm0-9.68a.61.61 0 11.61-.61.6.6 0 01-.61.61zm0-9.68a.61.61 0 11.61-.61.6.6 0 01-.61.61zm0-9.68a.61.61 0 01-.6-.61.61.61 0 011.21 0 .61.61 0 01-.61.61zm17 6H24.21V1.82H35.1z" fill="#fff" data-name="Layer 1"/></g></svg>