<svg xmlns="http://www.w3.org/2000/svg" viewBox="0 0 36.19 36.19"><defs><clipPath id="a"><path fill="none" d="M0 0h36.19v36.19H0z"/></clipPath></defs><g data-name="Слой 2"><g clip-path="url(#a)" data-name="Layer 1"><path d="M35.89 4.29L27.11.05a.53.53 0 00-.46 0L18.1 4.18 9.54.05a.53.53 0 00-.46 0L.3 4.29a.55.55 0 00-.3.48v30.89a.52.52 0 00.25.45.52.52 0 00.51 0L9.31 32l8.56 4.13a.53.53 0 00.46 0L26.88 32l8.55 4.13a.48.48 0 00.23 0 .46.46 0 00.28-.08.52.52 0 00.25-.45V4.77a.53.53 0 00-.3-.48zM8.78 31.09l-7.72 3.73V25.7L8.78 22zm0-20.6L5.65 12a.55.55 0 10.46 1l2.67-1.29v9.12l-7.72 3.69V15.4l3.14-1.51a.53.53 0 00.24-.71.51.51 0 00-.7-.25l-2.68 1.29V5.1l7.72-3.72zm8.79 24.33l-7.73-3.73V22l2.68 1.29a.55.55 0 10.46-1l-3.14-1.5v-9.12l7.73 3.73v9.12l-2.68-1.29a.53.53 0 10-.46.95l3.14 1.52zm0-20.6l-7.73-3.73V1.38l7.73 3.72zm8.78 16.87l-7.72 3.73V25.7l7.72-3.7zm0-10.3l-7.72 3.73V15.4l7.72-3.73zm0-10.3l-7.72 3.73V5.1l7.72-3.73zm8.78 24.33l-7.72-3.73V22l7.72 3.73zm0-10.3l-7.72-3.73v-9.12l7.72 3.73zm0-10.3l-7.72-3.73V1.38l7.72 3.72z" fill="#fff"/></g></g></svg>