<svg xmlns="http://www.w3.org/2000/svg" viewBox="0 0 189.34 23.07"><defs><style>.cls-1{fill:#111}</style></defs><g id="Слой_2" data-name="Слой 2"><g id="Layer_1" data-name="Layer 1"><path class="cls-1" d="M.59 23.07a.6.6 0 01-.59-.59V.6A.6.6 0 01.59 0a.6.6 0 01.6.6v21.88a.6.6 0 01-.6.59zm21.88 0a.59.59 0 01-.59-.59V.6a.59.59 0 01.59-.6.6.6 0 01.6.6v21.88a.6.6 0 01-.6.59zm21.88 0a.6.6 0 01-.6-.59V.6A.6.6 0 0145 .6v21.88a.6.6 0 01-.65.59zm43.76 0a.6.6 0 01-.6-.59V.6a.6.6 0 111.19 0v21.88a.6.6 0 01-.59.59zm78.75 0a.59.59 0 01-.59-.59v-11a.59.59 0 01.59-.59.6.6 0 01.6.59v11a.6.6 0 01-.6.59zm21.88 0a.59.59 0 01-.59-.59v-11a.59.59 0 01.59-.59.6.6 0 01.6.59v11a.6.6 0 01-.6.59z"/><path class="cls-1" d="M22.47 23.07a.59.59 0 01-.42-.18L5.64 6.49a.6.6 0 11.85-.84l16.41 16.4a.6.6 0 01-.43 1zM66.23 1.19H44.35a.59.59 0 01-.6-.59.6.6 0 01.6-.6h21.88a.59.59 0 01.59.6.58.58 0 01-.59.59zm0 21.88H44.35a.6.6 0 110-1.19h21.88a.6.6 0 010 1.19zM55.29 12.13H44.35a.6.6 0 110-1.19h10.94a.6.6 0 110 1.19zm43.95-.2a.58.58 0 01-.42-.17.61.61 0 010-.85L109.56.17a.6.6 0 01.84.85L99.66 11.76a.55.55 0 01-.42.17z"/><path class="cls-1" d="M110.18 22.87a.63.63 0 01-.42-.17L98.82 11.76a.61.61 0 010-.85.6.6 0 01.84 0l10.94 10.94a.6.6 0 01-.42 1zm39.98-21.68h-21.88a.58.58 0 01-.59-.59.59.59 0 01.59-.6h21.88a.6.6 0 01.6.6.59.59 0 01-.6.59z"/><path class="cls-1" d="M139.22 23.07a.6.6 0 01-.6-.59V.6a.6.6 0 111.2 0v21.88a.6.6 0 01-.6.59zm49.52-10.94a.59.59 0 01-.59-.6 10.35 10.35 0 00-20.69 0 .6.6 0 01-.6.6.59.59 0 01-.59-.6 11.54 11.54 0 0123.07 0 .6.6 0 01-.6.6zm0 1.74H177.8a.6.6 0 010-1.19h10.94a.6.6 0 110 1.19z"/></g></g></svg>