<svg xmlns="http://www.w3.org/2000/svg" xmlns:xlink="http://www.w3.org/1999/xlink" width="538.256" height="684" viewBox="0 0 538.256 684">
    <defs>
        <clipPath id="clip-path">
            <rect id="Прямоугольник_27" data-name="Прямоугольник 27" width="538.256" height="684" transform="translate(0 1547)" fill="none"/>
        </clipPath>
    </defs>
    <g id="Сгруппировать_176" data-name="Сгруппировать 176" transform="translate(0 -1547)" clip-path="url(#clip-path)">
        <g id="Сгруппировать_175" data-name="Сгруппировать 175">
            <g id="Сгруппировать_174" data-name="Сгруппировать 174">
                <g id="Сгруппировать_154" data-name="Сгруппировать 154">
                    <path id="Контур_135" data-name="Контур 135" d="M194.926,2267.355c3.466-14.4,12.74-25.712,20.434-33.961,11.841-12.709,27.48-16.392,44.024-10.378,7.228,2.638,14.123,6.845,20.792,10.913,3.109,1.9,6.326,3.857,9.572,5.661,9.043,4.951,20,10.231,32.655,11.854a31.954,31.954,0,0,0,26.74-8.778c8.043-7.745,12.035-18.991,10.954-30.848-.955-10.711-6.244-19.693-10.745-26.316-13.015-19.317-31.746-33.882-57.268-44.532-16.5-6.857-30.3-15.032-42.17-24.991a63.544,63.544,0,0,1-17.146-22.429c-7.269-16.191-10.438-35.02-9.968-59.258.374-20.107,3.513-40.249,6.546-59.726,1.259-8.077,2.56-16.426,3.65-24.671,2.5-18.805,4.862-41.12,3.446-64.038-.953-15.036-4.344-30.634-10.37-47.691-11.632-32.886-30.669-62.515-58.2-90.58-17.514-17.851-36.092-35.224-54.059-52.023l-2.147-2.008c-13.707-12.808-25.607-22.308-37.452-29.9-25.633-16.4-55.173-26.058-92.968-30.4-14.429-1.651-29.135-2.913-43.354-4.135-12.907-1.107-26.252-2.252-39.327-3.685a200.511,200.511,0,0,1-77.47-25.071c-9.744-5.536-19.32-11.861-28.579-17.978-5.68-3.752-11.553-7.631-17.431-11.307-15.392-9.586-29.436-17.874-45.423-22.206-23.453-6.4-44.422-5.641-64.1,2.32-25.645,10.282-48.589,25.614-70.141,46.87-11.452,11.31-19.275,22.194-24.615,34.252-5.613,12.707-7.462,23.44-5.654,32.812,2.462,12.617,8.341,25.046,19.057,40.3,5.319,7.627,10.835,15.28,16.167,22.681,4.238,5.882,8.621,11.963,12.87,17.986,13.057,18.6,19.176,41.153,18.7,68.963-.32,17.987-5.747,36.51-17.077,58.29-14.092,27.121-34.232,52.56-59.863,75.607-7.453,6.711-15.189,13.341-22.67,19.752-9.324,7.989-18.967,16.253-28.16,24.759-17.471,16.176-25.231,37.935-23.062,64.67,1.853,23.242,9.493,44.638,17.473,64.3,7.022,17.321,16.133,37.474,30.458,55.632,17.035,21.591,38.283,35.833,63.152,42.325,24.293,6.412,44.566,7.141,63.794,2.3,3.729-.916,7.61-1.66,11.364-2.38a157.527,157.527,0,0,0,17.192-3.978,335.127,335.127,0,0,1,54.488-12.017,171.383,171.383,0,0,1,58.321,2.242c24.205,5.021,49.023,10.493,75.871,16.729,15.133,3.561,29.808,7.39,42.993,15.032,16.953,9.785,22.713,22.409,19.254,42.218a83.275,83.275,0,0,1-9.413,25.838c-4.577,8.219-10.222,16.1-15.678,23.721-1.875,2.617-3.75,5.232-5.584,7.864a121.974,121.974,0,0,1-9.561,11.958h4.634a124.158,124.158,0,0,0,7.772-9.97c1.828-2.623,3.694-5.227,5.559-7.831,5.514-7.7,11.216-15.663,15.889-24.054a86.829,86.829,0,0,0,9.8-26.932c3.7-21.2-2.758-35.326-20.936-45.816-13.59-7.879-28.537-11.784-43.941-15.408-26.877-6.241-51.721-11.721-75.955-16.747a174.892,174.892,0,0,0-59.5-2.282,338.7,338.7,0,0,0-55.048,12.144,154.876,154.876,0,0,1-16.807,3.88c-3.8.729-7.723,1.482-11.548,2.42-18.641,4.692-38.367,3.967-62.075-2.289-24.125-6.3-44.752-20.134-61.309-41.118-14.054-17.818-23.034-37.7-29.967-54.789-7.875-19.4-15.413-40.5-17.229-63.272-2.078-25.622,5.31-46.43,21.959-61.847,9.145-8.46,18.762-16.7,28.062-24.669,7.5-6.426,15.25-13.068,22.733-19.809,25.942-23.325,46.337-49.093,60.62-76.584,11.587-22.274,17.138-41.285,17.467-59.832.487-28.568-5.837-51.8-19.335-71.021-4.262-6.039-8.648-12.126-12.892-18.016-5.325-7.39-10.831-15.034-16.139-22.642-10.425-14.838-16.129-26.856-18.493-38.968-1.669-8.652.1-18.711,5.421-30.747,5.158-11.646,12.746-22.192,23.879-33.186,21.217-20.926,43.785-36.012,69-46.122,19.219-7.773,38.887-8.467,61.9-2.189,15.536,4.209,29.344,12.364,44.5,21.8,5.838,3.651,11.692,7.518,17.355,11.259,9.308,6.148,18.932,12.506,28.779,18.1a203.917,203.917,0,0,0,78.806,25.5c13.115,1.436,26.479,2.584,39.4,3.692,14.2,1.22,28.877,2.481,43.258,4.124,37.248,4.283,66.32,13.775,91.489,29.879,11.663,7.473,23.406,16.851,36.954,29.51l2.147,2.008c17.941,16.776,36.493,34.121,53.952,51.918,27.165,27.7,45.941,56.909,57.4,89.307,5.917,16.749,9.245,32.042,10.176,46.748,1.4,22.622-.946,44.726-3.424,63.369-1.083,8.206-2.381,16.535-3.635,24.591-3.052,19.592-6.21,39.853-6.589,60.194-.479,24.769,2.785,44.071,10.272,60.744a67.019,67.019,0,0,0,18.082,23.668c12.148,10.19,26.236,18.543,43.067,25.537,24.873,10.379,43.1,24.532,55.727,43.273,4.268,6.281,9.279,14.763,10.162,24.681.987,10.809-2.624,21.027-9.905,28.038a28.515,28.515,0,0,1-23.89,7.836c-12.087-1.551-22.672-6.661-31.422-11.451-3.174-1.764-6.359-3.707-9.439-5.585-6.814-4.155-13.86-8.455-21.411-11.212-17.945-6.522-34.9-2.517-47.752,11.275-7.981,8.557-17.614,20.328-21.271,35.516a78.29,78.29,0,0,0,.107,37.156c4.183,17.582,11.827,32.769,21.129,46.217h4.247c-9.72-13.633-17.73-29.074-22-47.02A74.88,74.88,0,0,1,194.926,2267.355Z" fill="#f2f6f7"/>
                </g>
                <g id="Сгруппировать_155" data-name="Сгруппировать 155">
                    <path id="Контур_136" data-name="Контур 136" d="M137.315,2251.929c1.235-13.931,6.326-27.149,11.251-39.934,1.388-3.605,2.826-7.336,4.157-11.03a259.128,259.128,0,0,0,13.644-55.447c.964-7.713,1.643-15.588,2.3-23.2,1.1-12.681,2.228-25.794,4.7-38.405a696.233,696.233,0,0,1,19.072-74.5c10.329-32.877,18.03-60.765,22.031-90,4.026-29.387,2.538-53.171-4.688-74.849-8.956-26.844-21.086-49.1-37.082-68.058-17.393-20.529-36.476-38.411-52.85-53.2-15.5-13.994-31.53-28.465-48.324-41.513C47.081,1662.76,17.4,1651.7-19.195,1647.974c-27.075-2.724-54.176-4.329-79.614-5.737a247.442,247.442,0,0,1-97.306-25.556c-16.865-8.45-33.766-17.544-50.112-26.339l-5.6-3.01c-13.305-7.095-27.924-9.6-40.589-11.4a71.662,71.662,0,0,0-27.175,1.31,131.3,131.3,0,0,0-58.8,33.513c-23.431,23.055-28.6,52.31-13.816,78.261,9.03,15.808,18.772,31.839,28.953,47.648a125.6,125.6,0,0,1,17.408,42.442c3.844,18.469,4.107,35.13.8,50.937a210.015,210.015,0,0,1-33.48,77.866c-14.419,20.695-31.855,40.726-56.532,64.95q-2.967,2.913-5.97,5.806c-8.886,8.6-18.075,17.49-25.763,27.373-16.387,21.225-23.177,47.757-20.177,78.858,1.279,13.355,5.056,27.52,11.549,43.3,15,36.482,33.995,57.805,61.6,69.143,21.915,8.991,45.438,10.923,69.911,5.742,11.482-2.394,22.918-5.889,33.98-9.268,4.136-1.264,8.417-2.571,12.631-3.8,16.352-4.825,30.194-7.525,43.56-8.5,16-1.207,33.16.074,52.466,3.91,5.954,1.185,12,2.447,17.852,3.667,22.033,4.593,44.818,9.344,67.733,11.023,6.4.461,12.805.875,19.212,1.29,7.972.516,16.215,1.049,24.314,1.667l2.843.215c13.025.977,26.5,1.986,38.542,7.751a51.207,51.207,0,0,1,16.272,12.606c7.582,8.783,9.1,20.075,4.775,35.534-3.851,13.8-11.913,25.628-20.542,37.53-9.813,13.609-19.944,26.4-31.22,40.521q-5.187,6.51-10.851,12.685h3.092c3.3-3.664,6.509-7.4,9.567-11.243,10.879-13.62,21.459-26.977,31.287-40.608,8.754-12.076,16.94-24.091,20.895-38.263,2.865-10.24,5.438-25.285-5.252-37.668a53.57,53.57,0,0,0-17.027-13.183c-12.434-5.949-26.126-6.976-39.364-7.97l-2.841-.215c-8.114-.618-16.363-1.151-24.34-1.667-6.4-.415-12.8-.829-19.194-1.288-22.763-1.668-45.47-6.4-67.429-10.983-5.854-1.221-11.908-2.483-17.873-3.668-19.514-3.879-36.878-5.171-53.087-3.951-13.533.984-27.529,3.714-44.041,8.587-4.225,1.233-8.512,2.541-12.657,3.809-11.011,3.363-22.4,6.842-33.779,9.217-24.012,5.082-47.08,3.191-68.558-5.619-26.984-11.084-45.593-32.02-60.337-67.882-6.4-15.571-10.129-29.522-11.386-42.646-2.94-30.5,3.691-56.48,19.7-77.219,7.586-9.752,16.714-18.586,25.542-27.129q3-2.9,5.984-5.817c24.783-24.328,42.3-44.463,56.807-65.28a212.3,212.3,0,0,0,33.849-78.715c3.366-16.124,3.1-33.094-.805-51.879a127.945,127.945,0,0,0-17.727-43.223c-10.161-15.777-19.881-31.772-28.89-47.542-14.229-24.982-9.208-53.2,13.427-75.467a129.02,129.02,0,0,1,57.773-32.926,69.265,69.265,0,0,1,26.265-1.254c12.461,1.766,26.845,4.229,39.813,11.146l5.592,3.007c16.358,8.8,33.276,17.906,50.172,26.371a249.7,249.7,0,0,0,98.213,25.8c25.411,1.409,52.484,3.01,79.511,5.73,36.151,3.678,65.439,14.584,89.54,33.34,16.727,13,32.723,27.44,48.194,41.405,16.316,14.734,35.329,32.548,52.634,52.971,15.8,18.724,27.791,40.736,36.654,67.3,7.107,21.328,8.566,44.781,4.588,73.8-3.979,29.077-11.65,56.857-21.946,89.623a698.841,698.841,0,0,0-19.135,74.751c-2.5,12.731-3.639,25.907-4.74,38.649-.655,7.594-1.333,15.449-2.293,23.115a256.9,256.9,0,0,1-13.524,54.955c-1.321,3.668-2.754,7.386-4.14,10.98-4.98,12.933-10.133,26.307-11.4,40.558-2.152,23.718,3.231,45.851,16.465,67.662q9.261,15.283,20.573,30.534h2.876q-11.88-15.9-21.471-31.735C140.486,2296.81,135.205,2275.14,137.315,2251.929Z" fill="#f2f6f7"/>
                </g>
                <g id="Сгруппировать_156" data-name="Сгруппировать 156">
                    <path id="Контур_137" data-name="Контур 137" d="M136.9,2336.2c-9.148-10.471-18.248-21.32-27.048-31.811-7.3-8.7-14.849-17.706-22.389-26.445-11.738-13.65-25.565-16.563-41.1-8.671-15.175,7.673-29.529,17.941-43.878,31.387-18.71,17.492-35.592,33.69-51.354,49.26h4.946c15.021-14.793,31.078-30.177,48.779-46.726,14.108-13.218,28.2-23.3,43.076-30.825,14.125-7.175,26.192-4.612,36.9,7.838,7.525,8.725,15.067,17.718,22.361,26.413,8.811,10.505,17.921,21.365,27.093,31.864l1.344,1.54q4.308,4.934,8.652,9.9h4.611q-5.351-6.105-10.648-12.178Z" fill="#f2f6f7"/>
                </g>
                <g id="Сгруппировать_157" data-name="Сгруппировать 157">
                    <path id="Контур_138" data-name="Контур 138" d="M58.619,2314.47c-1.216-.125-2.453-.3-3.695-.485-3.96-.573-8.058-1.162-11.941-.2-16.71,4.155-31.457,10.929-43.828,20.129-6.944,5.157-13.8,10.546-20.549,16h5.545c5.63-4.5,11.321-8.947,17.075-13.216,12-8.927,26.333-15.5,42.6-19.548,3.222-.8,6.975-.257,10.6.266,1.258.182,2.559.369,3.84.5,16.279,1.616,29.955,9.957,40.049,17.044,6.6,4.63,12.939,9.674,19.078,14.952h5.285a257.489,257.489,0,0,0-22.37-17.793C89.867,2324.8,75.692,2316.164,58.619,2314.47Z" fill="#f2f6f7"/>
                </g>
                <g id="Сгруппировать_158" data-name="Сгруппировать 158">
                    <path id="Контур_139" data-name="Контур 139" d="M286.992,2337.5c-.544-3.42,5.116-8.905,11.218-10.867,18.056-5.83,32.979-13.065,45.617-22.113,22.322-15.983,36.675-34.213,43.878-55.731,6.824-20.3,6.052-38.856-2.363-56.74-12.049-25.461-30.308-44.663-44.87-58.547-10.207-9.708-20.9-19.241-31.248-28.46-8.662-7.716-17.616-15.7-26.228-23.73-14.234-13.3-23.086-27.038-27.06-41.981-3.029-11.523-4.162-23.783-5.256-35.637q-.231-2.478-.464-4.949c-1.577-16.788-.648-33.867.251-50.383.419-7.69.852-15.641,1.028-23.473.519-22.878-.772-40.292-4.187-56.467-4.146-19.446-11.521-39.042-23.21-61.67-18.863-36.563-47.2-66.139-75.005-92.653q-3.067-2.914-6.133-5.843c-15.9-15.161-32.346-30.839-49.841-44.492-21.665-16.874-47.084-28.463-75.556-34.448-24.7-5.181-50.071-7.565-74.606-9.871q-8.426-.79-16.85-1.615c-30.685-3.08-57.064-10.116-80.645-21.5-10.979-5.332-21.112-12.515-28.716-18.179-4.128-3.049-8.225-6.134-12.321-9.218-14.554-10.958-29.6-22.289-45.7-31.7-16.915-9.857-35.361-15.432-56.393-17.044-13.727-1.066-26.355,3.284-37.954,8.143-38.74,16.2-68.815,43.621-95.546,70.838a117.066,117.066,0,0,0-24.189,35.271c-8.136,18.6-6.323,37.527,5.245,54.737,5.548,8.308,11.791,16.294,17.828,24.015,4.481,5.732,9.115,11.66,13.42,17.664l2.806,3.9c7.619,10.578,15.5,21.517,21.439,33.148,7.475,14.517,8.549,31.081,8.647,43.891.22,22.864-6.885,44.6-23.035,70.473-13.083,20.947-27.187,37.4-43.121,50.311-9,7.307-18.772,13.983-28.22,20.438-6.9,4.711-14.025,9.58-20.825,14.675-2.765,2.067-5.373,4-7.853,5.845-7.3,5.417-13.6,10.1-19.5,14.886-7.917,6.414-16.855,20.077-17.23,20.654l-.069.12c-4.7,9.558-3.727,19.047-2.7,29.095.132,1.282.265,2.581.389,3.888,1.053,11.952,5.193,23.114,9.2,33.912.862,2.326,1.725,4.652,2.582,7.045l12.281,29.4.629,1.3c6.634,13.688,13.491,27.842,20.722,41.534,11.539,21.925,25.909,39.99,42.712,53.693,28.118,22.835,62.541,32.524,105.232,29.6a123.06,123.06,0,0,0,17.209-2.976c1.806-.4,3.613-.805,5.421-1.179,8.034-1.671,16.444-3.566,25.709-5.8,3.472-.827,6.981-1.778,10.371-2.7a173.6,173.6,0,0,1,20.733-4.723c15.831-2.306,28.6-3.27,40.189-3.03,13,.283,26.114,2.569,37.23,4.766a373.057,373.057,0,0,1,40.974,10.283c18.451,5.859,33.642,11.223,47.2,22.305,12.2,10.057,17.04,25.4,12.956,41.05-5.016,19.163-15.569,36.7-32.076,53.256h3.23c15.883-16.372,26.127-33.73,31.083-52.671,4.32-16.542-.81-32.773-13.725-43.423-14.986-12.248-33.273-18.056-47.97-22.721a374.687,374.687,0,0,0-41.228-10.348c-11.21-2.217-24.448-4.523-37.628-4.81-11.719-.235-24.609.729-40.567,3.053a175.129,175.129,0,0,0-21.008,4.781c-3.376.914-6.864,1.864-10.305,2.684-9.244,2.221-17.63,4.11-25.64,5.778-1.82.375-3.635.781-5.453,1.184a121.315,121.315,0,0,1-16.873,2.928c-42.072,2.873-75.965-6.642-103.606-29.09-16.559-13.5-30.732-31.328-42.127-52.977-7.211-13.658-14.06-27.794-20.684-41.464l-.6-1.24-12.233-29.279c-.837-2.345-1.7-4.681-2.569-7.015-3.95-10.655-8.033-21.668-9.062-33.317-.124-1.322-.257-2.626-.388-3.916-1.038-10.1-1.936-18.834,2.439-27.773.646-.983,9.328-14.082,16.711-20.062,5.856-4.759,12.141-9.424,19.416-14.825,2.484-1.845,5.1-3.781,7.862-5.85,6.761-5.066,13.868-9.922,20.742-14.618,9.489-6.481,19.3-13.184,28.376-20.551,16.133-13.071,30.4-29.715,43.624-50.881,16.4-26.271,23.61-48.392,23.386-71.721-.1-13.064-1.2-29.977-8.9-44.927-6.02-11.784-13.951-22.794-21.62-33.443l-2.8-3.9c-4.332-6.043-8.981-11.988-13.477-17.738-6.011-7.69-12.226-15.641-17.73-23.88-11.1-16.522-12.85-34.684-5.049-52.518a114.767,114.767,0,0,1,23.723-34.581c26.56-27.044,56.426-54.282,94.787-70.325,11.332-4.747,23.645-9,36.884-7.97,20.677,1.584,38.8,7.058,55.4,16.735,15.974,9.339,30.97,20.629,45.471,31.547,4.1,3.088,8.205,6.177,12.334,9.229,7.682,5.722,17.932,12.984,29.086,18.4,23.831,11.51,50.465,18.617,81.423,21.724,5.621.561,11.242,1.088,16.864,1.616,24.471,2.3,49.775,4.679,74.347,9.833,28.125,5.911,53.227,17.353,74.609,34.008,17.4,13.583,33.806,29.22,49.665,44.342q3.074,2.926,6.137,5.843c31.967,30.48,56.878,57.8,74.543,92.041,11.594,22.438,18.9,41.849,23,61.088,3.377,15.992,4.652,33.242,4.136,55.932-.174,7.8-.6,15.73-1.024,23.4-.9,16.6-1.837,33.769-.242,50.73q.234,2.468.461,4.943c1.1,11.949,2.245,24.3,5.323,36.014,4.092,15.378,13.159,29.472,27.717,43.082,8.634,8.053,17.6,16.041,26.268,23.766,10.331,9.208,21.015,18.728,31.191,28.409,14.417,13.744,32.49,32.744,44.374,57.857,8.149,17.316,8.889,35.313,2.261,55.018-7.042,21.041-21.117,38.9-43.03,54.585-12.441,8.909-27.154,16.036-44.981,21.79-6.7,2.158-13.6,8.362-12.792,13.433l.161,1.033a86.358,86.358,0,0,0,2.2,11.025h2.43a78.578,78.578,0,0,1-2.343-11.378Z" fill="#f2f6f7"/>
                </g>
                <g id="Сгруппировать_159" data-name="Сгруппировать 159">
                    <path id="Контур_140" data-name="Контур 140" d="M40.674,2342a89.184,89.184,0,0,0-26.831,7.914h9.076a80.89,80.89,0,0,1,18.173-4.468,73.749,73.749,0,0,1,34.887,4.468h9.033c-1.375-.613-2.763-1.22-4.18-1.819C67.406,2342.448,53.894,2340.4,40.674,2342Z" fill="#f2f6f7"/>
                </g>
                <g id="Сгруппировать_161" data-name="Сгруппировать 161">
                    <g id="Сгруппировать_160" data-name="Сгруппировать 160">
                        <path id="Контур_141" data-name="Контур 141" d="M401.52,2320.691c2.237-5.636,4.591-11.268,6.868-16.716,4.708-11.266,9.577-22.917,13.466-34.678a148.134,148.134,0,0,0,7.6-48.329c-.157-13.242-4.671-24.954-10.107-37.8-9.276-21.912-24.055-40.728-37.178-56.645q-6.438-7.815-12.906-15.594c-14.014-16.892-28.507-34.364-42.19-52.1-14.217-18.439-23.236-34.506-28.385-50.56a295.036,295.036,0,0,1-8.638-34.174c-2.187-11.251-3.56-22.448-4.95-35.805-.613-5.739-.978-11.576-1.329-17.223-.491-7.838-1-15.943-2.171-23.786-4.347-28.731-13.768-56.43-28.8-84.68a403.906,403.906,0,0,0-59.913-84.458c-14.073-15.139-28.94-30.016-43.376-44.459-6.543-6.544-13.957-13.96-21.164-21.293-20.5-20.846-45.751-36.157-77.184-46.812-12.978-4.434-26.833-7.067-40.232-9.613l-.361-.069q-3.879-.738-7.746-1.487c-11.015-2.137-22.355-3.607-33.321-5.028-17.208-2.232-35-4.54-52.127-9.474-18.565-5.389-40.039-12.852-58.56-27.354-15.992-12.506-32.24-27.332-49.673-45.326-18.533-19.07-41.029-34.687-68.768-47.742-16.435-7.783-34.3-12.981-54.624-15.889-16.035-2.32-30.521,2.235-45.586,14.336-11.171,8.926-20.907,19.767-30.342,30.276-4.36,4.856-8.869,9.877-13.475,14.66-23.361,24.165-41.294,42.475-58.151,59.37-5.516,5.5-11.3,10.911-16.948,16.193-8.045,7.521-16.366,15.3-24.017,23.483-12,12.779-18.53,27.434-19.42,43.548-.232,3.948-.28,8.457,1.116,11.94l.6,1.53c3.6,9.115,7.314,18.541,14.173,25.791q10.334,10.968,20.734,21.889l.408.429c8.245,8.68,16.771,17.656,25.105,26.533,9.789,10.442,20.638,23.332,26.877,39.769,8.726,22.842,8.384,44.994-1.018,65.845-11.327,25.131-28.8,44.977-53.417,60.673-13.532,8.675-28.313,14.973-42.606,21.064-5.589,2.382-11.368,4.843-17.086,7.46l-1.579.785c-3.115,1.6-6.343,3.117-9.469,4.588-7.094,3.337-14.428,6.787-20.76,11.351-16.527,11.963-27.278,25.529-32.864,41.474-4.636,13.242-9.539,30.726-6.257,48.542,2.848,15.182,9.661,29.327,20.245,42.045,26.022,31.3,47.287,58.028,66.485,86.7a215.012,215.012,0,0,0,16.809,22.034l5.484,7.077c13.374,15.078,27.2,30.671,45.373,41.522,22.828,13.6,46.614,22.078,70.7,25.2,18.452,2.444,34.711,2.729,49.7.868,6.2-.782,12.472-1.942,18.536-3.062,3.825-.708,7.78-1.439,11.735-2.076q5.24-.861,10.487-1.74c12.435-2.073,25.3-4.216,38.04-5.841,7.733-.97,15.656-.84,23.32-.714l2.728.042c14.092.32,27.134,4.822,38.033,9.182a62.9,62.9,0,0,1,25.476,18.906c9.759,12.092,9.6,27.539-.44,43.494a122.93,122.93,0,0,1-16.992,21.162h3.244a123.925,123.925,0,0,0,15.706-19.929c10.612-16.857,10.712-33.258.283-46.179a65.231,65.231,0,0,0-26.416-19.6c-11.092-4.438-24.382-9.019-38.85-9.348l-2.733-.043c-7.747-.127-15.754-.259-23.649.733-12.791,1.631-25.672,3.778-38.13,5.854q-5.244.875-10.477,1.736c-3.979.642-7.949,1.377-11.786,2.088-6.029,1.114-12.266,2.267-18.4,3.041-14.791,1.837-30.858,1.554-49.115-.868-23.772-3.074-47.26-11.447-69.813-24.888-17.864-10.666-31.571-26.123-44.778-41.009l-5.372-6.946-.128-.153a213.2,213.2,0,0,1-16.648-21.821c-19.255-28.761-40.563-55.538-66.631-86.9a89.479,89.479,0,0,1-19.75-40.989c-3.181-17.275,1.623-34.382,6.167-47.354,5.425-15.483,15.9-28.687,32.035-40.363,6.156-4.435,13.392-7.84,20.394-11.135,3.14-1.476,6.387-3,9.524-4.615l1.53-.761c5.658-2.587,11.421-5.043,17-7.42,14.38-6.128,29.251-12.465,42.947-21.243,25.005-15.944,42.76-36.117,54.279-61.673,9.663-21.43,10.024-44.181,1.07-67.618-6.382-16.81-17.407-29.921-27.351-40.53-8.339-8.88-16.868-17.858-25.157-26.584l-.367-.387q-10.38-10.929-20.728-21.883c-6.554-6.928-10.189-16.141-13.7-25.054l-.606-1.534c-1.229-3.067-1.173-7.255-.956-10.953.86-15.561,7.184-29.724,18.8-42.1,7.6-8.127,15.892-15.878,23.963-23.424,5.608-5.244,11.4-10.666,16.95-16.2,16.866-16.906,34.809-35.224,58.179-59.4,4.636-4.814,9.159-9.851,13.553-14.745,9.352-10.415,19.022-21.184,30.047-29.992,14.53-11.673,28.454-16.073,43.81-13.853,20.088,2.876,37.74,8.008,53.966,15.692,27.486,12.936,49.76,28.4,68.095,47.261,17.507,18.07,33.831,32.965,49.906,45.536,18.832,14.745,40.565,22.3,59.345,27.755,17.294,4.984,35.178,7.3,52.471,9.546,10.931,1.417,22.234,2.883,33.177,5.005q3.87.756,7.755,1.489l.363.068c13.318,2.531,27.091,5.148,39.917,9.533,31.087,10.534,56.039,25.662,76.281,46.243,7.214,7.338,14.63,14.758,21.232,21.361,14.366,14.374,29.218,29.235,43.262,44.341a401.532,401.532,0,0,1,59.565,83.971c14.908,28.015,24.249,55.471,28.555,83.936,1.157,7.744,1.662,15.8,2.149,23.588.354,5.671.722,11.536,1.34,17.322,1.394,13.414,2.776,24.67,4.979,36a296.852,296.852,0,0,0,8.706,34.439c5.232,16.318,14.369,32.608,28.755,51.266,13.709,17.773,28.213,35.259,42.242,52.169q6.457,7.785,12.9,15.586c13.02,15.794,27.678,34.452,36.834,56.076,5.339,12.617,9.77,24.1,9.923,36.927a145.84,145.84,0,0,1-7.482,47.575c-3.863,11.677-8.714,23.287-13.4,34.512-2.282,5.457-4.64,11.1-6.887,16.754a233.558,233.558,0,0,0-10.081,30.081h2.391A233.256,233.256,0,0,1,401.52,2320.691Z" fill="#f2f6f7"/>
                    </g>
                </g>
                <g id="Сгруппировать_162" data-name="Сгруппировать 162">
                    <path id="Контур_142" data-name="Контур 142" d="M-53.653,2044.888a111.27,111.27,0,0,1-22.588-2.257c-12.025-2.472-20.59-8.678-26.183-18.975a146.273,146.273,0,0,1-13.866-37.042c-1.795-7.6-3.933-15.276-6-22.7q-1.008-3.621-2.006-7.241l-2.366-8.683q-2.82-10.334-5.607-20.709l-.859-3.153c-2.086-7.666-4.242-15.589-6.2-23.468-1.2-4.779-2.3-9.976-3.278-15.443-.557-3.217-1.154-6.42-1.75-9.622-1.544-8.284-3.141-16.851-3.994-25.411-1.9-19.257-3.028-41.914,2.979-63.961,2.9-10.721,7.613-19.09,14.423-25.581,16.309-15.633,36.331-22.861,53.767-27.869,20.869-5.917,42.694-4.655,66.72,3.861a133.326,133.326,0,0,1,44.389,26.792c6.461,5.817,13.111,11.656,19.542,17.3,11.49,10.089,23.37,20.522,34.63,31.239a123.632,123.632,0,0,1,31.978,48.729c5.1,14.488,4.295,28.843,3.144,41.161-2.471,25.937-12.606,51.509-30.984,78.182a131.064,131.064,0,0,1-57.692,47.08c-11.61,4.886-27.1,10.777-43.98,12.994-5.2.672-10.453,1.757-15.526,2.8-2.1.433-4.194.866-6.292,1.272l-.441-2.269c2.09-.408,4.176-.837,6.265-1.268,5.116-1.057,10.407-2.149,15.7-2.832,16.6-2.182,31.9-8,43.379-12.833a128.785,128.785,0,0,0,56.687-46.262c18.149-26.338,28.152-51.553,30.586-77.084,1.129-12.073,1.919-26.131-3.025-40.175A121.348,121.348,0,0,0,86.5,1813.645c-11.227-10.684-23.091-21.1-34.564-31.174-6.437-5.652-13.092-11.495-19.56-17.323a131.081,131.081,0,0,0-43.617-26.331c-23.557-8.349-44.92-9.6-65.312-3.816-17.16,4.928-36.856,12.03-52.8,27.315-6.586,6.28-10.967,14.07-13.79,24.517-5.907,21.686-4.786,44.08-2.911,63.126.846,8.46,2.432,16.977,3.968,25.215.6,3.211,1.2,6.424,1.757,9.645.964,5.409,2.056,10.553,3.242,15.283,1.956,7.855,4.109,15.769,6.191,23.42l.861,3.163q2.768,10.374,5.605,20.7l2.366,8.682q.99,3.613,2,7.231c2.073,7.441,4.218,15.139,6.023,22.782a143.964,143.964,0,0,0,13.645,36.468c5.251,9.666,13.3,15.493,24.619,17.817a115.755,115.755,0,0,0,36.662,1.379,25.38,25.38,0,0,1,5.049.076c.688.057,1.375.113,2.052.144l-.1,2.31c-.707-.031-1.424-.091-2.14-.148a23.649,23.649,0,0,0-4.6-.083A134.639,134.639,0,0,1-53.653,2044.888Z" fill="#f2f6f7"/>
                </g>
                <g id="Сгруппировать_163" data-name="Сгруппировать 163">
                    <path id="Контур_143" data-name="Контур 143" d="M-355.348,2114.04c-.774-.1-1.551-.217-2.332-.33-1.366-.2-2.739-.4-4.1-.557a27.229,27.229,0,0,1-19.045-10.8c-4.464-6.134-6.052-14.037-4.471-22.256,3.724-19.275,15.065-32.581,35.692-41.87,12.92-5.824,30.262-.6,36.56,7.779,6.861,9.136,7.668,19.276,2.536,31.917-5.8,14.156-16.476,24.137-34.615,32.375-1.979.9-4.024,1.7-6,2.467-.926.359-1.851.72-2.775,1.092l-1.062-2.637Zm17.921-74.808a26.187,26.187,0,0,0-10.753,2.163c-19.507,8.786-30.217,21.293-33.708,39.361-1.4,7.264-.026,14.21,3.868,19.557a23.8,23.8,0,0,0,16.655,9.4c1.383.165,2.786.366,4.179.566.716.1,1.431.208,2.142.3.884-.354,1.773-.7,2.659-1.044,1.934-.753,3.933-1.531,5.823-2.393,17.275-7.844,27.4-17.259,32.84-30.527,4.688-11.55,4.042-20.349-2.1-28.52C-319.637,2043.015-328.543,2039.232-337.427,2039.232Z" fill="#f2f6f7"/>
                </g>
                <g id="Сгруппировать_164" data-name="Сгруппировать 164">
                    <path id="Контур_144" data-name="Контур 144" d="M-100.964,2089.206q-2.651-.242-5.3-.468c-4.96-.431-10.089-.877-15.143-1.5-19.924-2.488-29.747-24.625-29.181-39.651l.189-4.438c.525-12.191,1.069-24.8.375-37.045-.949-16.726-2.093-33.038-5.6-48.705-3-13.357-7.3-26.688-11.455-39.583-1.936-6-3.936-12.209-5.789-18.357-1.869-6.213-3.707-12.543-5.484-18.665-2.028-6.987-4.127-14.209-6.283-21.3a208.527,208.527,0,0,1-8.319-45.517c-1.281-18.7-1.718-38.454,7.993-56.528,5.393-10.05,14.159-15.824,22.826-20.566a173.525,173.525,0,0,1,45.319-16.809c4.039-.912,8.14-1.95,12.106-2.955,7.355-1.864,14.962-3.791,22.6-5.016a149.191,149.191,0,0,1,29.433-1.623c18.974.82,33.34,3.368,46.586,8.265,17.512,6.5,34.463,16.859,51.823,31.669,7.486,6.4,14.851,13.155,21.974,19.69q5.1,4.679,10.22,9.328c15.613,14.035,31.913,29.287,44.509,47.763,10.548,15.333,16.661,31.322,18.162,47.515,1.269,13.349-.03,27.68-3.972,43.807A219.124,219.124,0,0,1,93.345,2005.7a148.084,148.084,0,0,1-64.05,45.96c-9.813,3.584-20,6.545-29.853,9.406-3.7,1.075-7.394,2.149-11.073,3.256l-.516.155c-18.849,5.66-38.337,11.514-57.587,16.958-6.981,2.038-14.151,3.771-21.084,5.445-3,.724-6,1.448-9,2.2l-.836-3.329Zm41.729-375.386a141.1,141.1,0,0,0-22.329,1.709c-7.481,1.2-15.012,3.109-22.294,4.954-3.987,1.009-8.11,2.055-12.195,2.976a170.125,170.125,0,0,0-44.417,16.467c-8.2,4.486-16.468,9.912-21.433,19.164-9.275,17.262-8.836,36.457-7.59,54.64a204.986,204.986,0,0,0,8.178,44.752c2.164,7.116,4.264,14.351,6.295,21.347,1.776,6.115,3.61,12.437,5.476,18.633,1.842,6.115,3.839,12.306,5.769,18.293,4.181,12.967,8.506,26.376,11.538,39.888,3.56,15.924,4.715,32.392,5.674,49.267.7,12.423.155,25.115-.374,37.391l-.189,4.426c-.514,13.686,8.283,33.841,26.141,36.069,4.991.613,10.088,1.055,15.017,1.485q2.66.23,5.319.47l-.008-.037c3-.754,6.015-1.479,9.025-2.207,6.894-1.665,14.023-3.386,20.939-5.4,19.237-5.443,38.713-11.291,57.546-16.949l.518-.156c3.689-1.108,7.394-2.185,11.1-3.262,9.8-2.847,19.927-5.791,29.626-9.332a144.628,144.628,0,0,0,62.557-44.9,215.677,215.677,0,0,0,42.594-85.812c3.848-15.743,5.119-29.7,3.888-42.657-1.447-15.6-7.358-31.033-17.571-45.88-12.382-18.162-28.511-33.247-43.969-47.145-3.433-3.1-6.836-6.224-10.242-9.348-7.1-6.515-14.443-13.253-21.883-19.609C26.43,1738.514,9.821,1728.355-7.3,1722c-12.893-4.766-26.933-7.249-45.525-8.051Q-56.057,1713.821-59.235,1713.82Z" fill="#f2f6f7"/>
                </g>
                <g id="Сгруппировать_165" data-name="Сгруппировать 165">
                    <path id="Контур_145" data-name="Контур 145" d="M-117.238,2121.261c-2.9-.392-5.865-.74-8.731-1.077-6.393-.749-13-1.523-19.421-2.857-25.945-5.393-43.559-20.838-52.35-45.909-2.932-8.361-1.376-17.264,0-25.118.966-5.512,2.126-11.077,3.246-16.457,1.866-8.958,3.8-18.221,4.868-27.4,1.351-11.8.338-24.565-3.189-40.152-3.48-15.434-10.039-29.835-16.38-43.762-1.808-3.97-3.677-8.075-5.448-12.144-8.543-19.678-14.629-36.559-16.548-54.987-.426-4.16-.888-8.319-1.349-12.478-.89-8.026-1.812-16.327-2.454-24.517-1.124-14.972-2.055-28.463-2.086-41.958a214.413,214.413,0,0,1,2.493-32.692c1.815-11.379,9.287-19.739,21.611-24.179a108.005,108.005,0,0,1,19.583-5.543c16.561-2.65,33.1-4.734,48.611-6.642q5.545-.681,11.089-1.383c14.557-1.83,29.607-3.723,44.469-4.808,20.936-1.575,45.666-2.482,70.322,2.772,25.636,5.4,48.943,17.553,69.268,36.118,6,5.482,12.2,10.97,18.2,16.276,10.453,9.254,21.262,18.822,31.444,28.724,14.079,13.708,25.434,25.564,35.087,38.873,12.438,17.162,19.417,36.834,20.185,56.891.546,15.1-1.585,30.85-6.9,51.061-7.329,27.756-20.779,52.53-34.223,75.165a169.445,169.445,0,0,1-51.268,53.915c-12,8.043-26.048,14.615-42.962,20.092l-5.143,1.66c-29.331,9.455-59.66,19.235-88.661,31.313-15.685,6.546-29.2,10.085-42.527,11.138l-.182-2.308c13.076-1.031,26.365-4.516,41.819-10.964,29.09-12.119,59.465-21.911,88.842-31.382l5.143-1.66c16.7-5.408,30.568-11.889,42.381-19.811a167.1,167.1,0,0,0,50.57-53.176c13.357-22.49,26.718-47.093,33.973-74.573,5.262-19.981,7.37-35.518,6.831-50.385-.749-19.594-7.579-38.827-19.746-55.619-9.555-13.174-20.834-24.948-34.827-38.574-10.144-9.863-20.931-19.413-31.365-28.648-6-5.312-12.2-10.8-18.223-16.3-20.016-18.281-42.958-30.247-68.188-35.562-24.374-5.2-48.9-4.294-69.672-2.728-14.8,1.079-29.823,2.969-44.35,4.8q-5.547.7-11.1,1.385c-15.493,1.9-32,3.984-48.529,6.631a105.882,105.882,0,0,0-19.159,5.432c-11.649,4.2-18.415,11.723-20.112,22.363a211.957,211.957,0,0,0-2.466,32.331c.032,13.416.961,26.86,2.079,41.783.64,8.149,1.558,16.431,2.448,24.439.461,4.166.924,8.33,1.351,12.5,1.888,18.132,7.909,34.822,16.367,54.3,1.763,4.053,3.629,8.149,5.434,12.11,6.388,14.032,13,28.544,16.531,44.211,3.585,15.848,4.61,28.853,3.229,40.926-1.084,9.287-3.024,18.6-4.9,27.608-1.118,5.363-2.272,10.908-3.233,16.383-1.323,7.575-2.824,16.162-.092,23.954,8.5,24.253,25.54,39.192,50.638,44.407,6.315,1.314,12.874,2.084,19.217,2.828,2.876.337,5.852.687,8.774,1.081Z" fill="#f2f6f7"/>
                </g>
                <g id="Сгруппировать_166" data-name="Сгруппировать 166">
                    <path id="Контур_146" data-name="Контур 146" d="M9.886,1947.783c-.583-.048-1.173-.09-1.766-.133-1.162-.081-2.365-.165-3.536-.313-17.5-2.485-29.415-12.006-36.444-29.11-6.914-16.768-5.933-33.533,3.091-52.758,4.334-9.2,19.478-15.574,29.146-14.714,23.464,2.038,39.964,15.26,49.038,39.3,3.394,8.992.751,18.317-2.247,27.1-5.165,15.133-16.975,25.124-36.1,30.543l-.9-3.189Zm-11.419-93.639c-9.058,0-20.984,6.2-24.1,12.8-8.578,18.278-9.539,34.154-3.021,49.959,6.522,15.87,17.544,24.7,33.694,26.994,1.049.131,2.2.213,3.32.29.611.043,1.218.085,1.817.137l0,.009c18.164-5.158,28.872-14.154,33.7-28.307,2.8-8.184,5.274-16.835,2.285-24.75-8.683-23-23.762-35.126-46.095-37.066C-.449,1854.166-.987,1854.144-1.533,1854.144Z" fill="#f2f6f7"/>
                </g>
                <g id="Сгруппировать_167" data-name="Сгруппировать 167">
                    <path id="Контур_147" data-name="Контур 147" d="M5.431,1981.8l-.71-.046c-2.671-.171-5.351-.345-8.012-.548-27.114-1.982-46.077-15.965-57.963-42.745-6.575-14.805-10.353-30.732-11.545-48.692-.524-8.071.426-16.274,1.425-23.231l.159-1.109c1.918-13.359,3.9-27.171,11.037-39.525,8.606-15.015,20.1-22.864,34.165-23.329,10.538-.381,20.8,2.873,27.571,5.664,17.539,7.307,30.989,15.154,42.33,24.695,15.769,13.266,26.435,27.53,32.609,43.609a51.544,51.544,0,0,1,3.209,23.522c-1.825,19.161-7.262,34.553-16.625,47.053-6.173,8.2-14.717,14.633-22.981,20.853l-.135.1c-9.174,6.9-20.194,11.371-33.693,13.675l-.389-2.278c13.127-2.243,23.819-6.576,32.69-13.246l.135-.1c8.136-6.122,16.55-12.454,22.524-20.392,9.1-12.15,14.388-27.158,16.172-45.884a49.263,49.263,0,0,0-3.067-22.474c-6.03-15.7-16.477-29.662-31.937-42.669-11.156-9.385-24.417-17.114-41.727-24.327-6.561-2.7-16.513-5.85-26.6-5.487-13.214.435-24.06,7.893-32.24,22.168-6.915,11.971-8.865,25.559-10.751,38.7l-.159,1.108c-.983,6.841-1.918,14.892-1.409,22.75,1.175,17.682,4.888,33.353,11.351,47.9,11.508,25.928,29.834,39.462,56.021,41.376,2.656.2,5.328.376,7.988.548l.712.046Z" fill="#f2f6f7"/>
                </g>
                <g id="Сгруппировать_168" data-name="Сгруппировать 168">
                    <path id="Контур_148" data-name="Контур 148" d="M-366.554,2154.27c-25.724,0-45.853-14.031-55.594-39.7-10.173-26.9-1.61-51.107,6.989-69.195,9.785-20.584,26.586-35.2,42.836-49.335l3.29-2.867c5.2-4.527,10.591-9.01,15.8-13.346,9.85-8.19,20.035-16.661,29.287-25.731a121.435,121.435,0,0,0,30.682-49.621,337.068,337.068,0,0,0,15.507-81.612c1.3-19.549-.381-40.078-5.134-62.759-2.434-11.595-5.97-23.183-9.389-34.387-1.521-4.986-3.094-10.141-4.553-15.234-.22-.759-.446-1.523-.671-2.284-2.027-6.859-4.124-13.951-3.21-21.691a30.433,30.433,0,0,1,11.362-20.338,25.244,25.244,0,0,1,18.824-5.41,445.054,445.054,0,0,1,47.8,8.242c19.929,4.658,43.576,9.479,67.864,9.918,11.019.176,22.226.12,33.066.067,6.427-.034,12.859-.067,19.29-.052,5.8.013,11.714-.041,17.429-.093,13.736-.122,27.941-.252,41.862.537,36.1,1.949,65.04,11.541,88.482,29.327,14.771,11.218,28.755,23.808,41.094,34.917,13.115,11.806,26.746,24.68,42.9,40.513,17.252,16.9,29.989,36.01,37.859,56.809a108.067,108.067,0,0,1,6.874,44.678,232.973,232.973,0,0,1-23.775,91.335c-11.286,23.133-22.239,43.778-33.488,63.117-11.066,18.911-26.4,35.383-45.573,48.958-10.339,7.331-23.126,13.141-40.236,18.284-25.635,7.731-52.338,16.109-81.63,25.613-3.659,1.192-7.368,2.467-10.955,3.7-12.555,4.314-25.538,8.774-39.092,10.619a7.78,7.78,0,0,0-2.045.848c-.472.244-.962.5-1.479.707l-.866-2.145c.433-.174.857-.4,1.279-.616a9.5,9.5,0,0,1,2.762-1.081c13.366-1.82,26.24-6.243,38.69-10.52,3.594-1.234,7.312-2.511,10.992-3.711,29.308-9.507,56.026-17.889,81.676-25.627,16.866-5.07,29.438-10.776,39.565-17.956,18.908-13.385,34.018-29.615,44.913-48.237,11.218-19.287,22.146-39.884,33.408-62.965a230.687,230.687,0,0,0,23.542-90.436,105.8,105.8,0,0,0-6.724-43.741c-7.751-20.486-20.306-39.32-37.315-55.98-16.128-15.809-29.734-28.661-42.825-40.445-12.306-11.079-26.253-23.634-40.946-34.794-23.063-17.5-51.589-26.936-87.21-28.859-13.85-.785-28.014-.655-41.715-.533-5.72.051-11.637.109-17.454.092-6.428-.015-12.852.019-19.274.052-10.851.052-22.072.109-33.116-.067-24.506-.442-48.3-5.293-68.353-9.979a443.08,443.08,0,0,0-47.561-8.2,22.982,22.982,0,0,0-17.114,4.938,28.107,28.107,0,0,0-10.488,18.785c-.859,7.27,1.081,13.826,3.132,20.764q.341,1.149.675,2.3c1.455,5.078,3.024,10.223,4.542,15.2,3.435,11.255,6.987,22.89,9.443,34.589,4.8,22.888,6.488,43.623,5.176,63.387a339.356,339.356,0,0,1-15.617,82.174,123.691,123.691,0,0,1-31.261,50.556c-9.319,9.139-19.54,17.639-29.427,25.859-5.2,4.327-10.585,8.8-15.761,13.31l-3.3,2.869c-16.07,13.979-32.686,28.435-42.264,48.584-8.4,17.673-16.777,41.3-6.914,67.383,11.593,30.554,38.529,43.969,72.045,35.877,14.7-3.588,29.044-10.768,41.7-17.1,14.079-6.975,32.948-15.148,54.1-16.451.8-.047,1.61-.1,2.423-.157,4.523-.31,9.2-.626,13.462.607a348.833,348.833,0,0,1,37.578,13.12c33.014,14.14,61.172,19.388,88.619,16.529a12.3,12.3,0,0,1,3.5.268c.472.084.942.167,1.407.219l-.263,2.3c-.509-.059-1.024-.148-1.54-.237a10.648,10.648,0,0,0-2.854-.248c-27.86,2.9-56.385-2.4-89.775-16.7a346.669,346.669,0,0,0-37.319-13.027c-3.863-1.118-8.33-.813-12.654-.519-.82.056-1.636.113-2.443.158-20.732,1.279-39.323,9.337-53.2,16.214-12.759,6.387-27.227,13.629-42.184,17.281A81.794,81.794,0,0,1-366.554,2154.27Z" fill="#f2f6f7"/>
                </g>
                <g id="Сгруппировать_169" data-name="Сгруппировать 169">
                    <path id="Контур_149" data-name="Контур 149" d="M-367.533,2174.758a82.512,82.512,0,0,1-47.04-14.788c-8.47-5.745-14.92-14.776-18.84-21.343-9.088-15.245-13.79-28.6-14.8-42.02a113.8,113.8,0,0,1,4.172-39.743c5.682-20.218,16.655-38.7,32.612-54.946q6.08-6.157,12.206-12.261c12.754-12.763,25.944-25.961,38.085-39.668,23.956-27.148,40-55.463,49.055-86.562,6.762-23.214,9.657-41.361,9.389-58.836a179.528,179.528,0,0,0-6.352-44.374c-5.007-18.294-13.409-35.521-21.536-52.18-2.058-4.22-4.186-8.584-6.231-12.9-7.768-16.272-8.741-30.363-3.06-44.342,5.009-12.343,15.449-17.8,25.713-22.341,8.778-3.849,18.623-4.812,30.991-3.022,19.811,2.8,38.6,9.942,56.765,16.845,5.5,2.092,11.195,4.255,16.814,6.258,24.725,8.769,44.243,13.429,63.284,15.11,9.675.864,19.607,1.1,29.212,1.323,4.973.118,10.116.239,15.167.446,7.272.276,14.68.485,21.845.687,17.143.484,34.868.984,52.234,2.439,32.368,2.721,60.577,13.244,83.847,31.278,13.092,10.125,25.387,20.9,39.821,33.948,15.56,14.05,29.527,26.8,42.89,40.643,13.479,13.966,27.173,29.54,36.008,48.764,8.834,19.282,13.348,35.835,14.207,52.092a156.418,156.418,0,0,1-1.6,30.987,284.869,284.869,0,0,1-16.313,61.794c-12.783,32.412-28.775,65.869-50.33,105.3-11.239,20.555-22.927,35.308-36.778,46.429-9.946,7.982-20.144,13.113-30.31,15.252-11.606,2.43-23.47,4.405-34.944,6.313-8.638,1.436-17.57,2.922-26.313,4.59-6.7,1.273-13.466,3.061-20.007,4.79-3.444.91-7.007,1.85-10.534,2.711q-4.069.985-8.131,2c-8.465,2.1-17.219,4.266-25.958,6.006-8.61,1.7-17.416,3.1-25.931,4.456-3.917.622-7.833,1.246-11.74,1.9l-.572-3.424c3.916-.653,7.842-1.277,11.767-1.9,8.484-1.35,17.257-2.743,25.8-4.433,8.658-1.725,17.373-3.883,25.8-5.971q4.07-1.006,8.145-2c3.492-.853,7.038-1.788,10.468-2.7,6.6-1.743,13.422-3.546,20.244-4.843,8.782-1.675,17.734-3.165,26.393-4.6,11.438-1.9,23.266-3.87,34.8-6.285,9.626-2.025,19.333-6.924,28.85-14.564,13.483-10.823,24.893-25.244,35.905-45.386,21.484-39.3,37.419-72.628,50.148-104.9a281.3,281.3,0,0,0,16.109-61.04,152.839,152.839,0,0,0,1.566-30.291c-.834-15.8-5.25-31.952-13.9-50.822-8.619-18.751-22.084-34.056-35.352-47.8-13.285-13.761-27.208-26.474-42.719-40.478-14.375-13-26.612-23.722-39.62-33.781-22.733-17.619-50.324-27.9-82.013-30.563-17.267-1.447-34.944-1.945-52.04-2.428-7.173-.2-14.591-.413-21.885-.691-5.027-.205-10.153-.325-15.111-.442-9.661-.228-19.65-.463-29.439-1.338-19.342-1.707-39.123-6.424-64.138-15.3-5.654-2.015-11.364-4.184-16.885-6.281-17.989-6.837-36.591-13.905-56.024-16.655-11.7-1.692-20.947-.813-29.1,2.763-10.008,4.423-19.37,9.319-23.893,20.471-5.289,13.011-4.342,26.213,2.978,41.546,2.038,4.3,4.16,8.66,6.215,12.869,8.2,16.8,16.672,34.178,21.763,52.787a183.015,183.015,0,0,1,6.476,45.237c.274,17.837-2.665,36.3-9.528,59.861-9.2,31.6-25.481,60.348-49.786,87.889-12.213,13.788-25.44,27.023-38.231,39.823q-6.108,6.111-12.187,12.243c-15.541,15.815-26.224,33.8-31.746,53.452a110.376,110.376,0,0,0-4.05,38.539c.97,12.87,5.521,25.74,14.321,40.505,3.739,6.263,9.865,14.86,17.812,20.25,21.588,14.7,45.647,18.074,71.518,10.012,10.2-3.183,20.439-6.92,30.341-10.534,10.185-3.717,20.714-7.559,31.239-10.816a118.209,118.209,0,0,1,31.385-4.814c17.229-.574,34.114,4.573,49.007,9.108,22.255,6.8,42.682,11.075,62.45,13.079,5.9.594,11.971.788,17.842.977,2.685.087,5.372.174,8.06.3l-.159,3.467c-2.671-.122-5.342-.208-8.012-.293-5.93-.19-12.062-.388-18.081-.993-19.995-2.029-40.641-6.35-63.113-13.215-14.632-4.455-31.215-9.5-47.89-8.958a114.84,114.84,0,0,0-30.467,4.662c-10.439,3.23-20.927,7.059-31.071,10.761-9.94,3.627-20.22,7.379-30.5,10.588A92.2,92.2,0,0,1-367.533,2174.758Z" fill="#f2f6f7"/>
                </g>
                <g id="Сгруппировать_170" data-name="Сгруппировать 170">
                    <path id="Контур_150" data-name="Контур 150" d="M72.953,2199.949c-9.219-.607-17.473-4.359-25.456-7.988-1.5-.685-3.011-1.368-4.525-2.032-14.219-6.221-28.924-12.652-45.033-13.174a197.986,197.986,0,0,0-24.532.433c-8.422.74-16.975,1.74-25.244,2.7-8.247.962-16.775,1.956-25.185,2.7-35.346,3.224-72.045-.05-112.2-10l-2.065-.515c-15.456-3.849-31.437-7.83-47.726-8.106-16.309-.283-30.822,1.506-44.337,5.474-10.1,2.993-20.334,6.165-30.228,9.23-7.829,2.427-15.922,4.934-23.9,7.338a103.148,103.148,0,0,1-63.354-.553c-14.8-4.823-26.166-11.921-34.75-21.7-11.937-13.617-20.536-29.576-27.062-50.225-7.051-22.1-6.525-45.386,1.609-71.177,5.241-16.492,14.939-31.718,30.523-47.918q5.574-5.79,11.191-11.556c11.168-11.489,22.713-23.37,33.523-35.536,28.426-32.011,46.982-64.994,56.73-100.834a151.978,151.978,0,0,0,5.352-43.088c-.535-27.891-8.46-54.022-24.228-79.884-7.268-11.966-16.513-27.962-23.538-45.616-5.654-14.19-1.814-27.464,2.163-37.441,7.766-19.354,24.606-28.833,38.411-34.932a79.563,79.563,0,0,1,18.993-6.073c14.332-2.278,29.582-.431,46.641,5.652,15.522,5.543,30.765,12.646,45.506,19.514l2.971,1.384c33.173,15.471,61.79,23.8,90.058,26.209,13.03,1.1,26.333,1.584,39.2,2.051q4.4.16,8.8.327l2.389.095c29.411,1.145,59.821,2.33,89.031,10.564C30.23,1670.213,46,1679.185,59.1,1687.308c12.935,8.107,24.107,18.656,34.911,28.859,2.862,2.7,5.823,5.5,8.769,8.2,13.148,12.113,29.511,27.188,44.807,42.02,21.458,20.884,37.149,44.738,46.636,70.9a136.624,136.624,0,0,1,7.921,43.828c.615,24.249-3.444,49.773-12.4,78.025-4.925,15.5-10.97,30.878-16.815,45.751-3.342,8.5-6.8,17.29-10,25.994-5.547,15.1-11.092,30.48-16.456,45.359-6.792,18.844-13.817,38.331-20.908,57.42-5.613,15.039-12.583,32.308-24.278,46.955-7.514,9.463-16.718,15.919-27.353,19.189l-.679-2.212c10.322-3.174,18.9-9.2,26.222-18.418,11.486-14.383,18.371-31.452,23.921-46.323,7.085-19.074,14.108-38.555,20.9-57.4,5.365-14.882,10.912-30.269,16.461-45.374,3.211-8.728,6.67-17.528,10.014-26.042,5.834-14.835,11.863-30.178,16.763-45.6,8.883-28,12.907-53.278,12.3-77.269a134.347,134.347,0,0,0-7.785-43.1c-9.366-25.833-24.866-49.4-46.071-70.031-15.274-14.81-31.624-29.873-44.762-41.977-2.956-2.716-5.923-5.518-8.791-8.227-10.722-10.126-21.808-20.595-34.545-28.576-12.966-8.036-28.557-16.909-45.825-21.767-28.946-8.162-59.219-9.341-88.493-10.481l-2.389-.094q-4.4-.17-8.8-.328c-12.894-.468-26.227-.953-39.312-2.056-28.548-2.434-57.413-10.829-90.839-26.418l-2.971-1.384c-14.693-6.846-29.886-13.927-45.306-19.432-16.685-5.95-31.565-7.765-45.49-5.548a77.3,77.3,0,0,0-18.43,5.9c-13.406,5.921-29.746,15.1-37.2,33.676-3.818,9.575-7.514,22.294-2.164,35.727,6.963,17.493,16.145,33.382,23.366,45.27,15.987,26.219,24.023,52.728,24.566,81.041a154.246,154.246,0,0,1-5.434,43.739c-9.843,36.192-28.563,69.48-57.231,101.763-10.846,12.2-22.41,24.106-33.594,35.614q-5.6,5.766-11.184,11.545c-15.328,15.935-24.856,30.874-29.984,47.013-7.986,25.319-8.512,48.144-1.609,69.78,6.426,20.334,14.877,36.03,26.594,49.4,8.3,9.455,19.335,16.331,33.73,21.022a100.908,100.908,0,0,0,61.966.539c7.971-2.4,16.061-4.91,23.884-7.335,9.9-3.066,20.144-6.239,30.262-9.239,13.744-4.034,28.474-5.852,45.029-5.569s32.664,4.294,48.246,8.175l2.063.513c39.9,9.89,76.348,13.148,111.433,9.944,8.379-.738,16.892-1.732,25.123-2.693,8.286-.966,16.853-1.965,25.3-2.711a199.953,199.953,0,0,1,24.819-.437c16.551.533,31.463,7.055,45.884,13.364,1.525.67,3.039,1.357,4.553,2.047,8.153,3.706,15.852,7.205,24.649,7.783Z" fill="#f2f6f7"/>
                </g>
                <g id="Сгруппировать_171" data-name="Сгруппировать 171">
                    <path id="Контур_151" data-name="Контур 151" d="M-.167,2008.922c-2.045-.082-4.146-.111-6.176-.141a111.655,111.655,0,0,1-14.238-.816c-9.012-1.37-17.075-2.739-24.636-5.665-21.776-8.445-32.312-27.373-39.747-44.776a253.206,253.206,0,0,1-15.145-49.821c-6.372-31.417-5.785-62.935,1.8-96.356,5.159-22.857,19.5-38.518,42.634-46.551,5.047-1.738,11.169-2.374,18.187-1.891,17.562,1.138,34.573,7.508,53.528,20.049a356.612,356.612,0,0,1,49.995,39.673c18.806,18.025,30.156,36.555,34.7,56.645,1.765,7.74.832,16.1-.069,24.191l-.237,2.149c-2.093,19.346-9.755,38.488-22.777,56.892a100.79,100.79,0,0,1-35.736,31.454c-15.156,7.885-28.236,12.6-41.163,14.838l-.593-3.419c12.565-2.178,25.324-6.784,40.151-14.495A97.4,97.4,0,0,0,74.82,1960.5c12.676-17.915,20.131-36.508,22.159-55.262l.239-2.16c.87-7.8,1.768-15.866.132-23.036-4.453-19.68-15.167-37.127-33.721-54.909a353.205,353.205,0,0,0-49.51-39.286c-18.428-12.191-34.9-18.382-51.842-19.478-6.561-.453-12.219.123-16.822,1.709-21.918,7.608-35.507,22.425-40.383,44.033-7.47,32.935-8.053,63.977-1.781,94.9a249.794,249.794,0,0,0,14.936,49.143c7.151,16.74,17.236,34.926,37.809,42.907,7.233,2.8,15.1,4.132,23.89,5.467a109.076,109.076,0,0,0,13.781.779c2.052.029,4.173.059,6.261.142Z" fill="#f2f6f7"/>
                </g>
                <g id="Сгруппировать_172" data-name="Сгруппировать 172">
                    <path id="Контур_152" data-name="Контур 152" d="M-211.486,2307.387c-2.36-7.712-8.884-14.2-19.392-19.279-12.162-5.872-26.207-7.647-44.206-5.587-5.774.662-11.632,1.391-17.3,2.1-12.859,1.6-26.155,3.254-39.283,4.237-38.325,2.846-71.737-1.212-102.14-12.411-17.736-6.53-32.575-14.394-45.368-24.046-6.868-5.176-13.436-11.06-19.79-16.749q-2.412-2.163-4.834-4.314l-4.681-4.986q-8.378-10.033-16.7-20.107c-15.081-18.215-30.678-37.052-46.609-55.079-11.129-12.609-23.379-24.55-35.224-36.1q-4.382-4.272-8.743-8.549a110.353,110.353,0,0,1-26.6-42.621c-4.575-13.026-2.869-27.04-1.364-39.4a136.823,136.823,0,0,1,20.749-57.6c7.986-12.524,18.668-22.2,35.718-32.36,14.86-8.853,75.047-33.039,75.652-33.281l.124-.056c25.333-12.544,43.276-29.321,54.858-51.29a70.32,70.32,0,0,0,8-38.8c-2-27.623-17.94-47.265-33.272-62.837-6.816-6.935-13.853-13.87-20.658-20.577-8.062-7.947-16.4-16.165-24.412-24.421-9.834-10.129-17.051-22.7-22.066-38.42-1-3.109-1.183-7.038-.568-12.006,2.341-18.535,9.35-33.717,20.832-45.124,13.651-13.549,27.941-26.479,41.762-38.986,24.295-22.105,44.241-44.845,60.974-69.519,9.826-14.491,20.031-32.1,21.223-52.865.492-8.315-.258-15.531-2.3-21.818h-3.716c2.208,6.14,3.046,13.275,2.554,21.616-1.146,19.921-11.073,37.02-20.632,51.12-16.578,24.444-36.346,46.982-60.434,68.9-13.847,12.531-28.166,25.488-41.875,39.094-12.045,11.966-19.391,27.829-21.832,47.155-.677,5.482-.446,9.9.707,13.494,5.108,16.02,12.808,29.4,22.883,39.78,8.038,8.284,16.389,16.514,24.465,24.475,6.8,6.7,13.822,13.623,20.622,20.539,14.889,15.123,30.369,34.155,32.283,60.65a66.937,66.937,0,0,1-7.605,36.94c-11.219,21.283-28.643,37.563-53.267,49.769-3.272,1.312-61.092,24.568-76.072,33.493-17.312,10.314-28.683,20.64-36.867,33.475a140.3,140.3,0,0,0-21.271,59.045c-1.549,12.74-3.308,27.18,1.536,40.972a113.814,113.814,0,0,0,27.441,43.945q4.362,4.286,8.754,8.558c11.8,11.5,24,23.4,35.045,35.908,15.9,17.988,31.474,36.8,46.539,55,5.558,6.711,11.116,13.425,16.772,20.193l4.8,5.12.116.111q2.447,2.165,4.879,4.355c6.407,5.737,13.033,11.671,20.016,16.934,13.066,9.859,28.2,17.882,46.258,24.53,30.878,11.373,64.764,15.5,103.6,12.617,13.214-.99,26.552-2.65,39.452-4.253,5.658-.705,11.508-1.433,17.266-2.093,17.316-1.983,30.758-.31,42.3,5.265,9.6,4.642,15.519,10.418,17.585,17.168,1.891,6.178.523,13.31-4.061,21.2a101.646,101.646,0,0,1-15.583,20.319h4.771a104.449,104.449,0,0,0,13.812-18.576C-210.775,2322.588-209.3,2314.528-211.486,2307.387Z" fill="#f2f6f7"/>
                </g>
                <g id="Сгруппировать_173" data-name="Сгруппировать 173">
                    <path id="Контур_153" data-name="Контур 153" d="M435.92,2321.009q1.643-5.025,3.324-10.05c6.6-19.831,13.425-40.335,16.36-61.793,2.292-17.029,3.132-31.32-.212-45.705-2.134-9.218-5.764-18.18-9.3-26.569-9.729-23.107-24.28-43.04-39.6-63.115-17.643-23.087-36.492-48.033-54.788-74.027a191,191,0,0,1-27.8-59.939c-5.495-20.172-8.036-41.152-10.492-61.442-.718-5.928-1.461-12.056-2.268-18.078-4.316-32.34-14.924-62.734-32.427-92.912-16.194-27.969-36.53-56.715-62.171-87.884-19.862-24.121-42.773-48.914-70.038-75.8-26.962-26.529-58.577-44.823-93.958-54.373-18.523-5.012-37.65-8.852-56.147-12.567-6.385-1.282-12.769-2.564-19.135-3.894a306.278,306.278,0,0,1-60.228-18.8c-5.08-2.248-9.863-5.547-14.489-8.737l-.943-.65c-19.658-13.675-36.537-31.29-52.861-48.324l-.3-.314a444.594,444.594,0,0,0-43.637-40.476c-9.261-7.432-19.252-14.185-28.913-20.716-4.953-3.348-10.011-6.782-15-10.31h-5.944c6.268,4.558,12.716,8.939,19,13.185,9.6,6.492,19.533,13.205,28.687,20.549a441.321,441.321,0,0,1,43.3,40.167l.3.316c16.442,17.157,33.443,34.9,53.393,48.777l.947.653c4.757,3.28,9.678,6.673,15.064,9.056a309.683,309.683,0,0,0,60.91,19.022c6.378,1.332,12.771,2.615,19.165,3.9,18.441,3.7,37.511,7.533,55.925,12.515,34.8,9.392,65.9,27.39,92.429,53.5,27.177,26.8,50.006,51.5,69.792,75.531,25.519,31.019,45.749,59.613,61.849,87.417,17.27,29.779,27.736,59.752,31.991,91.632.8,6,1.543,12.119,2.259,18.036,2.473,20.414,5.029,41.522,10.59,61.937a194.51,194.51,0,0,0,28.315,61.024c18.332,26.044,37.2,51.024,54.868,74.136,15.173,19.89,29.585,39.625,39.155,62.356,3.476,8.251,7.042,17.055,9.113,26,3.226,13.874,2.395,27.808.156,44.456-2.891,21.134-9.663,41.483-16.215,61.164q-1.674,5.032-3.331,10.07a231.131,231.131,0,0,0-7.742,29.984h3.528A228.159,228.159,0,0,1,435.92,2321.009Z" fill="#f2f6f7"/>
                </g>
            </g>
        </g>
    </g>
</svg>
