<svg xmlns="http://www.w3.org/2000/svg" xmlns:xlink="http://www.w3.org/1999/xlink" width="377" height="692" viewBox="0 0 377 692">
    <defs>
        <clipPath id="clip-path">
            <rect id="Прямоугольник_33" data-name="Прямоугольник 33" width="377" height="692" transform="translate(-0.431 73)" fill="none"/>
        </clipPath>
        <clipPath id="clip-path-2">
            <path id="Контур_175" data-name="Контур 175" d="M-825.387,210.689,143.563,8.657,395.1,1048.4l-968.949,202.031Z" fill="none"/>
        </clipPath>
    </defs>
    <g id="Сгруппировать_203" data-name="Сгруппировать 203" transform="translate(0.431 -73)" clip-path="url(#clip-path)">
        <g id="Сгруппировать_202" data-name="Сгруппировать 202" opacity="0.8">
            <g id="Сгруппировать_201" data-name="Сгруппировать 201" clip-path="url(#clip-path-2)">
                <g id="Сгруппировать_200" data-name="Сгруппировать 200">
                    <g id="Сгруппировать_199" data-name="Сгруппировать 199">
                        <g id="Сгруппировать_179" data-name="Сгруппировать 179">
                            <path id="Контур_156" data-name="Контур 156" d="M-347.885,934.815c-4.777-12-14.209-20.623-21.893-26.794-11.83-9.51-25.84-10.761-39.442-3.531-5.941,3.168-11.4,7.649-16.681,11.982-2.462,2.019-5.009,4.109-7.6,6.066-7.23,5.388-16.076,11.3-26.85,14.257a28.065,28.065,0,0,1-24.261-4.28,32.773,32.773,0,0,1-13.293-25.276c-.49-9.362,2.99-17.767,6.077-24.039,8.9-18.277,23.351-33.157,44.166-45.495,13.461-7.953,24.413-16.709,33.481-26.769a55.389,55.389,0,0,0,12.1-21.472c4.31-14.871,4.74-31.514,1.349-52.376-2.8-17.309-8-34.307-13.024-50.744-2.085-6.816-4.24-13.862-6.2-20.844-4.48-15.924-9.275-34.893-10.868-54.849-1.024-13.095,0-26.976,3.121-42.441,6.037-29.819,18.894-57.739,39.3-85.355,12.985-17.567,26.953-34.852,40.461-51.567l1.614-2c10.306-12.744,19.454-22.411,28.788-30.422,20.2-17.313,44.623-29.293,76.852-37.7,12.3-3.2,24.9-6.106,37.075-8.913,11.053-2.546,22.48-5.18,33.639-8.028A176.054,176.054,0,0,0-105.9,313.038c7.766-5.98,15.289-12.619,22.563-19.04,4.463-3.939,9.076-8.011,13.72-11.908C-57.45,271.918-46.3,263.034-32.97,257.324c19.544-8.415,37.815-10.344,55.855-5.9,23.5,5.714,45.273,16.118,66.572,31.809,11.32,8.35,19.441,16.78,25.554,26.529,6.43,10.276,9.353,19.312,8.939,27.624-.581,11.193-4.149,22.647-11.562,37.13-3.672,7.239-7.512,14.525-11.223,21.57-2.95,5.6-6,11.388-8.944,17.11-9.031,17.661-11.559,37.885-7.728,61.83,2.491,15.486,9.475,30.8,21.977,48.206,15.554,21.672,36.144,41.147,61.2,57.88,7.287,4.874,14.81,9.642,22.084,14.254,9.066,5.746,18.442,11.69,27.458,17.9,17.136,11.808,26.541,29.633,27.951,52.975,1.254,20.289-2.736,39.7-7.235,57.652-3.956,15.816-9.374,34.334-19.558,51.772-12.11,20.736-28.778,35.648-49.538,44.317-20.27,8.528-37.755,11.656-55.019,9.851-3.346-.331-6.8-.495-10.144-.654a138.5,138.5,0,0,1-15.393-1.314A294.585,294.585,0,0,0,39.56,824.21a150.68,150.68,0,0,0-50.282,9.123c-20.365,7.318-41.207,15.1-63.713,23.792-12.681,4.939-24.932,10.053-35.421,18.274-13.493,10.535-16.932,22.141-11.5,38.812a72.43,72.43,0,0,0,11.34,21.142A221.382,221.382,0,0,0-93.5,953.9c1.948,2.028,3.895,4.054,5.808,6.1a106.611,106.611,0,0,0,9.76,9.143l-4.017.571a108.072,108.072,0,0,1-7.964-7.648c-1.908-2.038-3.846-4.055-5.783-6.073a223.479,223.479,0,0,1-16.734-18.8,75.532,75.532,0,0,1-11.81-22.038c-5.817-17.838-1.957-30.831,12.511-42.126,10.812-8.475,23.289-13.688,36.2-18.715,22.532-8.7,43.4-16.492,63.785-23.818a153.8,153.8,0,0,1,51.3-9.3,297.723,297.723,0,0,1,49.215,3.7,136.244,136.244,0,0,0,15.047,1.276c3.382.161,6.877.328,10.309.666,16.737,1.752,33.748-1.306,53.531-9.628,20.138-8.411,36.317-22.895,48.088-43.048,9.991-17.11,15.33-35.374,19.236-50.983,4.44-17.716,8.379-36.853,7.15-56.735-1.351-22.371-10.317-39.421-26.648-50.675-8.968-6.175-18.318-12.1-27.361-17.833-7.291-4.623-14.829-9.4-22.145-14.3-25.36-16.934-46.212-36.662-61.976-58.63-12.786-17.8-19.937-33.521-22.5-49.488-3.938-24.6-1.314-45.429,8.021-63.684,2.952-5.738,6.006-11.533,8.96-17.139,3.706-7.035,7.539-14.311,11.2-21.532,7.212-14.092,10.678-25.169,11.236-35.914.383-7.674-2.392-16.137-8.483-25.87-5.9-9.417-13.781-17.584-24.784-25.7-20.968-15.446-42.389-25.685-65.49-31.3-17.617-4.34-34.753-2.516-53.926,5.739-12.95,5.548-23.917,14.289-35.893,24.3-4.611,3.87-9.21,7.93-13.659,11.856-7.312,6.455-14.872,13.128-22.721,19.171a179.033,179.033,0,0,1-65.178,31.726c-11.192,2.856-22.637,5.494-33.705,8.044-12.158,2.8-24.729,5.7-36.993,8.892-31.764,8.288-55.8,20.065-75.635,37.066-9.191,7.888-18.217,17.43-28.4,30.027l-1.614,2c-13.488,16.69-27.437,33.948-40.381,51.461-20.141,27.255-32.823,54.783-38.773,84.159-3.068,15.187-4.071,28.8-3.068,41.6,1.572,19.7,6.324,38.488,10.766,54.273,1.949,6.95,4.1,13.979,6.177,20.778,5.057,16.534,10.287,33.632,13.12,51.143,3.463,21.319,3.008,38.381-1.43,53.695a58.43,58.43,0,0,1-12.763,22.658c-9.277,10.292-20.462,19.238-34.192,27.35-20.284,12.024-34.345,26.487-42.984,44.219-2.927,5.948-6.228,13.887-5.772,22.556a29.763,29.763,0,0,0,12.037,22.979,25.044,25.044,0,0,0,21.674,3.819c10.287-2.829,18.834-8.544,25.831-13.757,2.534-1.914,5.056-3.984,7.495-5.985,5.4-4.426,10.975-9.005,17.182-12.316,14.753-7.842,29.946-6.475,42.783,3.845,7.971,6.4,17.771,15.375,22.81,28.033a67.96,67.96,0,0,1,4.479,32.084,118.4,118.4,0,0,1-12.628,42.495l-3.683.524c6.749-12.965,11.793-27.28,13.286-43.3A65.016,65.016,0,0,0-347.885,934.815Z" fill="#f2f6f7"/>
                        </g>
                        <g id="Сгруппировать_180" data-name="Сгруппировать 180">
                            <path id="Контур_157" data-name="Контур 157" d="M-299.841,914.4c-2.784-11.872-8.825-22.653-14.667-33.081-1.647-2.941-3.353-5.984-4.961-9.009a225.093,225.093,0,0,1-18.651-46.176c-1.785-6.537-3.343-13.251-4.851-19.743-2.511-10.811-5.106-21.989-8.8-32.569a605.073,605.073,0,0,0-25.7-61.954c-13-27.1-23.108-50.225-30.174-74.966-7.106-24.868-8.743-45.581-5.147-65.182,4.46-24.273,12.236-44.983,23.771-63.314,12.552-19.863,26.9-37.649,39.27-52.428,11.715-13.989,23.83-28.455,36.783-41.787,18.855-19.441,43.221-32.647,74.49-40.373,23.136-5.689,46.432-10.414,68.311-14.765A217.339,217.339,0,0,0-88.964,325c13.579-9.371,27.112-19.3,40.2-28.911l4.48-3.287c10.661-7.764,23.025-11.731,33.783-14.841a63.012,63.012,0,0,1,23.72-2.219,115.14,115.14,0,0,1,55.1,21.677c23.15,17.012,31.228,41.626,21.608,65.847-5.882,14.757-12.355,29.795-19.236,44.695a109.222,109.222,0,0,0-9.868,38.778c-1.06,16.415.763,30.828,5.57,44.064A182.771,182.771,0,0,0,105,553.883c15.047,16.085,32.627,31.225,57,49.093q2.931,2.146,5.89,4.275c8.761,6.326,17.822,12.868,25.7,20.45,16.818,16.3,25.97,38.364,27.2,65.577.535,11.685-1,24.377-4.683,38.8-8.511,33.337-22.356,54.083-44.891,67.272-17.892,10.461-38.046,15.029-59.9,13.574-10.248-.652-20.592-2.258-30.6-3.811-3.742-.582-7.614-1.182-11.418-1.724-14.769-2.15-27.1-2.774-38.808-1.967-14.019.931-28.737,4.152-45,9.843-5.016,1.756-10.1,3.591-15.025,5.365-18.535,6.681-37.7,13.59-57.36,17.864-5.492,1.186-10.994,2.334-16.5,3.481-6.847,1.429-13.927,2.9-20.872,4.437l-2.438.535c-11.172,2.45-22.726,4.981-32.458,11.441a44.785,44.785,0,0,0-12.555,12.886c-5.493,8.517-5.42,18.45.233,31.26,5.038,11.439,13.481,20.651,22.426,29.861,10.181,10.536,20.538,20.329,32.051,31.126q5.3,4.98,10.968,9.611l-2.681.381c-3.315-2.755-6.554-5.587-9.677-8.525-11.107-10.414-21.923-20.639-32.12-31.193-9.075-9.344-17.65-18.706-22.822-30.45-3.744-8.485-7.825-21.154-.082-33.16a46.862,46.862,0,0,1,13.138-13.477c10.047-6.667,21.79-9.242,33.144-11.731l2.436-.536c6.958-1.533,14.043-3.01,20.9-4.439,5.5-1.147,11-2.294,16.481-3.478,19.527-4.245,38.629-11.13,57.1-17.791,4.925-1.776,10.017-3.611,15.043-5.369,16.439-5.754,31.333-9.009,45.535-9.955,11.852-.818,24.321-.187,39.235,1.984,3.815.543,7.692,1.144,11.442,1.727,9.958,1.546,20.257,3.145,30.416,3.792,21.441,1.427,41.206-3.05,58.741-13.3,22.029-12.893,35.585-33.257,43.952-66.029,3.637-14.228,5.149-26.729,4.623-38.211-1.2-26.686-10.15-48.295-26.583-64.222-7.777-7.482-16.777-13.981-25.481-20.267q-2.96-2.136-5.9-4.283c-24.479-17.943-42.144-33.162-57.28-49.342a184.766,184.766,0,0,1-39.029-63.769c-4.9-13.5-6.765-28.181-5.687-44.877A111.258,111.258,0,0,1,68.846,407.12c6.867-14.871,13.325-29.874,19.195-44.6,9.26-23.316,1.436-47.049-20.927-63.482a113.137,113.137,0,0,0-54.136-21.3A60.888,60.888,0,0,0-9.944,279.9c-10.585,3.06-22.752,6.959-33.143,14.528l-4.477,3.285c-13.1,9.614-26.644,19.557-40.249,28.946a219.338,219.338,0,0,1-81.966,34.371c-21.855,4.348-45.127,9.067-68.222,14.747-30.887,7.63-54.934,20.654-73.519,39.814-12.9,13.28-24.991,27.717-36.684,41.678-12.331,14.729-26.622,32.448-39.11,52.209-11.394,18.109-19.079,38.585-23.494,62.6-3.536,19.285-1.914,39.707,5.105,64.266,7.028,24.607,17.1,47.639,30.054,74.651a607.785,607.785,0,0,1,25.787,62.161c3.734,10.68,6.342,21.912,8.865,32.775,1.5,6.474,3.056,13.17,4.832,19.668a223.236,223.236,0,0,0,18.487,45.766c1.6,3,3.3,6.036,4.94,8.967,5.909,10.549,12.021,21.457,14.871,33.6,4.785,20.205,2.841,39.973-5.947,60.43q-6.147,14.332-14.077,28.891l-2.493.354c5.561-10.125,10.449-20.11,14.707-30.038C-297.066,953.528-295.155,934.172-299.841,914.4Z" fill="#f2f6f7"/>
                        </g>
                        <g id="Сгруппировать_181" data-name="Сгруппировать 181">
                            <path id="Контур_158" data-name="Контур 158" d="M-289.111,987.083c6.642-10.166,13.2-20.652,19.534-30.792,5.256-8.412,10.693-17.113,16.154-25.585,8.5-13.228,20.124-17.447,34.561-12.55,14.1,4.752,27.806,11.846,41.9,21.682,18.372,12.791,35,24.691,50.58,36.188l-4.287.609c-14.842-10.917-30.655-22.215-48.037-34.318-13.857-9.669-27.31-16.636-41.136-21.3-13.128-4.452-23.273-.752-31.023,11.313-5.449,8.458-10.881,17.15-16.134,25.554-6.346,10.153-12.906,20.65-19.566,30.843l-.975,1.494q-3.127,4.789-6.283,9.608l-4,.569q3.887-5.93,7.732-11.824Z" fill="#f2f6f7"/>
                        </g>
                        <g id="Сгруппировать_182" data-name="Сгруппировать 182">
                            <path id="Контур_159" data-name="Контур 159" d="M-223.923,958.679c1.039-.258,2.088-.566,3.143-.874,3.363-.983,6.843-2,10.327-1.643a107.387,107.387,0,0,1,40.472,11.972c6.654,3.594,13.258,7.4,19.783,11.278l-4.807.684c-5.435-3.2-10.915-6.327-16.429-9.3a104.372,104.372,0,0,0-39.331-11.622c-2.892-.292-6.079.638-9.161,1.538-1.068.311-2.173.633-3.267.906-13.914,3.4-24.742,12.287-32.621,19.647-5.156,4.812-10.026,9.945-14.7,15.258l-4.583.651a225.347,225.347,0,0,1,17.2-18.115C-249.741,971.443-238.515,962.245-223.923,958.679Z" fill="#f2f6f7"/>
                        </g>
                        <g id="Сгруппировать_183" data-name="Сгруппировать 183">
                            <path id="Контур_160" data-name="Контур 160" d="M-419.065,1006.707c.051-3.019-5.53-7.057-11.062-8-16.37-2.806-30.2-7.211-42.267-13.463-21.317-11.044-36-25.01-44.895-42.694-8.414-16.678-10.029-32.792-4.934-49.265,7.312-23.462,20.778-42.286,31.693-56.065,7.654-9.637,15.754-19.184,23.587-28.416,6.559-7.727,13.339-15.719,19.816-23.715,10.7-13.238,16.686-26.183,18.292-39.57,1.208-10.319.682-21.041.171-31.407q-.105-2.168-.206-4.329c-.7-14.685-3.606-29.311-6.419-43.456-1.309-6.586-2.662-13.395-3.779-20.134-3.266-19.682-4.289-34.871-3.319-49.254,1.2-17.295,5.183-35.118,12.532-56.089,11.853-33.885,32.775-62.9,53.619-89.217q2.3-2.894,4.6-5.8c11.921-15.047,24.245-30.606,37.732-44.546,16.705-17.235,37.314-30.371,61.259-39.047,20.776-7.516,42.476-12.7,63.462-17.716q7.206-1.721,14.408-3.471c26.222-6.441,48.224-15.765,67.264-28.5,8.862-5.956,16.762-13.4,22.657-19.231q4.8-4.71,9.547-9.475C-84.041,272.6-72.388,260.962-59.6,250.858c13.45-10.593,28.755-17.679,46.79-21.662,11.768-2.613,23.251-.415,33.9,2.35,35.577,9.208,65.023,29.167,91.545,49.365a102.087,102.087,0,0,1,25.31,27.461c9.342,15.05,10.1,31.61,2.189,47.891-3.787,7.855-8.216,15.517-12.5,22.926-3.179,5.5-6.467,11.188-9.46,16.9l-1.952,3.713c-5.3,10.069-10.786,20.483-14.507,31.253-4.693,13.452-3.585,27.882-2.094,38.95,2.623,19.762,11.457,37.646,28.641,57.988,13.919,16.467,28.172,28.933,43.572,38.109,8.7,5.2,17.995,9.755,26.98,14.162,6.557,3.216,13.337,6.54,19.859,10.1,2.651,1.444,5.15,2.793,7.526,4.077,7,3.776,13.035,7.038,18.733,10.445,7.653,4.561,17.082,15.252,17.479,15.7l.074.1c5.253,7.67,5.575,15.98,5.918,24.78.044,1.123.088,2.261.142,3.4.558,10.446-1.658,20.59-3.8,30.4-.461,2.114-.923,4.229-1.371,6.4l-7.03,26.886-.385,1.2c-4.066,12.633-8.269,25.695-12.852,38.4-7.306,20.346-17.54,37.71-30.42,51.609-21.566,23.175-50.214,35.781-87.583,38.522a108.133,108.133,0,0,1-15.284-.447c-1.615-.126-3.231-.25-4.844-.349-7.171-.453-14.694-1.052-23-1.833-3.112-.286-6.271-.675-9.324-1.052a152.508,152.508,0,0,0-18.554-1.521c-14.008-.039-25.2.7-35.213,2.339-11.234,1.847-22.322,5.436-31.688,8.7a328.1,328.1,0,0,0-34.255,13.926c-15.273,7.332-27.782,13.834-38.174,25.071-9.335,10.184-11.646,24.026-6.179,37.028,6.706,15.922,18.013,29.76,34.36,42.013l-2.8.4c-15.784-12.173-26.8-25.893-33.428-41.63-5.78-13.745-3.33-28.387,6.555-39.171,11.484-12.419,26.622-19.686,38.789-25.525A329.4,329.4,0,0,1-13.46,846.225c9.446-3.3,20.638-6.918,32.028-8.79,10.13-1.648,21.424-2.4,35.543-2.365a153.746,153.746,0,0,1,18.8,1.537c3.039.373,6.18.762,9.264,1.046,8.287.777,15.789,1.374,22.939,1.826,1.623.1,3.247.226,4.872.351a106.86,106.86,0,0,0,14.988.447c36.825-2.707,65.036-15.1,86.235-37.88,12.694-13.7,22.787-30.828,30-50.918,4.57-12.678,8.768-25.723,12.829-38.339l.37-1.144,7-26.78c.437-2.127.9-4.25,1.364-6.371,2.113-9.683,4.3-19.693,3.755-29.874-.055-1.156-.1-2.3-.145-3.428-.343-8.848-.639-16.494-5.532-23.671-.681-.768-9.82-11.005-16.955-15.256-5.662-3.385-11.685-6.638-18.657-10.4-2.38-1.287-4.882-2.636-7.535-4.081-6.485-3.538-13.243-6.854-19.78-10.059-9.023-4.425-18.355-9-27.128-14.241-15.594-9.294-30.012-21.9-44.079-38.539-17.448-20.655-26.423-38.858-29.1-59.022C96.1,458.984,94.975,444.25,99.808,430.4c3.769-10.913,9.289-21.394,14.628-31.531l1.949-3.709c3.012-5.75,6.311-11.454,9.5-16.972,4.264-7.378,8.674-15.007,12.431-22.8,7.594-15.629,6.872-31.52-2.086-45.952a100.065,100.065,0,0,0-24.821-26.923c-26.353-20.068-55.6-39.9-90.824-49.016-10.408-2.7-21.605-4.849-32.955-2.332-17.73,3.916-32.769,10.875-45.969,21.274-12.7,10.03-24.31,21.623-35.537,32.834q-4.764,4.756-9.557,9.485c-5.955,5.886-13.947,13.418-22.95,19.469-19.242,12.872-41.457,22.289-67.912,28.788q-7.2,1.764-14.42,3.473c-20.931,5-42.574,10.174-63.241,17.652-23.654,8.568-44.007,21.538-60.493,38.549-13.416,13.869-25.71,29.388-37.6,44.4q-2.3,2.905-4.6,5.8c-23.961,30.249-42.2,56.9-53.295,88.631-7.289,20.8-11.238,38.452-12.424,55.563-.96,14.219.057,29.265,3.3,48.786,1.111,6.71,2.461,13.5,3.767,20.07,2.828,14.219,5.749,28.921,6.453,43.756q.1,2.159.209,4.324c.514,10.449,1.044,21.254-.183,31.741-1.655,13.777-7.78,27.059-18.726,40.6-6.494,8.015-13.281,16.015-19.847,23.751-7.823,9.221-15.913,18.755-23.543,28.366-10.807,13.639-24.136,32.266-31.348,55.407-4.933,15.95-3.36,31.575,4.81,47.766,8.694,17.293,23.093,30.969,44.02,41.809,11.881,6.157,25.513,10.495,41.675,13.264,6.077,1.036,12.818,5.541,12.743,10.017l-.013.912a74.905,74.905,0,0,1-.549,9.787l-2.106.3a68.344,68.344,0,0,0,.631-10.11Z" fill="#f2f6f7"/>
                        </g>
                        <g id="Сгруппировать_184" data-name="Сгруппировать 184">
                            <path id="Контур_161" data-name="Контур 161" d="M-204.978,980.232a78.347,78.347,0,0,1,24.233,3.524l-7.868,1.118a71.159,71.159,0,0,0-16.3-1.616,64.814,64.814,0,0,0-29.693,8.157l-7.831,1.113c1.116-.7,2.245-1.393,3.4-2.085A68.8,68.8,0,0,1-204.978,980.232Z" fill="#f2f6f7"/>
                        </g>
                        <g id="Сгруппировать_186" data-name="Сгруппировать 186">
                            <g id="Сгруппировать_185" data-name="Сгруппировать 185">
                                <path id="Контур_162" data-name="Контур 162" d="M-520.417,1006.316c-2.633-4.588-5.367-9.159-8.011-13.581-5.468-9.144-11.123-18.6-15.941-28.272a128.664,128.664,0,0,1-12.537-40.777c-1.493-11.449.979-22.114,4.111-33.872,5.345-20.056,15.84-38.119,25.259-53.474q4.619-7.539,9.268-15.051c10.07-16.307,20.484-33.174,30.163-50.172,10.056-17.668,15.9-32.647,18.385-47.138a256.136,256.136,0,0,0,3.282-30.561c.512-9.981.325-19.815-.114-31.515-.175-5.029-.577-10.112-.967-15.029-.54-6.826-1.1-13.884-1.045-20.8.233-25.335,4.991-50.4,14.545-76.64a351.993,351.993,0,0,1,41.545-80.283c10.337-14.8,21.395-29.474,32.132-43.72,4.866-6.456,10.381-13.77,15.726-20.988,15.209-20.519,35.212-36.847,61.151-49.918,10.7-5.427,22.391-9.408,33.693-13.257l.3-.1q3.271-1.114,6.531-2.239c9.287-3.2,18.936-5.868,28.268-8.447,14.643-4.047,29.785-8.232,44.022-14.6,15.431-6.939,33.129-16.028,47.4-30.829A426.5,426.5,0,0,0-105.763,239.8c13.72-18.745,31.3-35,53.74-49.685,13.29-8.743,28.141-15.432,45.4-20.447,13.615-3.979,26.734-1.833,41.283,6.755,10.782,6.327,20.556,14.484,30.028,22.392,4.378,3.653,8.9,7.432,13.486,10.992,23.225,17.977,41.025,31.571,57.717,44.075,5.458,4.069,11.139,8.025,16.684,11.888,7.9,5.5,16.071,11.188,23.711,17.308,11.971,9.552,19.439,21.395,22.194,35.194.686,3.379,1.283,7.265.5,10.443l-.335,1.395c-2,8.311-4.059,16.9-9.113,24.008q-7.608,10.742-15.28,21.449l-.3.421c-6.079,8.508-12.366,17.307-18.5,25.995-7.2,10.22-15.019,22.683-18.4,37.639-4.754,20.791-1.731,39.869,8.985,56.707,12.912,20.3,30.5,35.271,53.774,45.784,12.8,5.819,26.386,9.434,39.527,12.929,5.138,1.367,10.45,2.779,15.73,4.333l1.465.483c2.9,1,5.882,1.908,8.773,2.793,6.56,2.005,13.343,4.079,19.394,7.238,15.8,8.288,26.789,18.672,33.593,31.746,5.649,10.858,12.05,25.345,11.4,41.126a79.839,79.839,0,0,1-12.377,38.787c-18.706,30.225-33.852,55.913-46.966,83.029a187.308,187.308,0,0,1-11.86,21.089l-3.883,6.785c-9.738,14.663-19.806,29.826-34.224,41.432-18.115,14.553-37.692,24.8-58.185,30.46-15.7,4.385-29.755,6.635-42.982,6.876-5.474.091-11.051-.138-16.445-.357-3.4-.141-6.922-.284-10.429-.346q-4.647-.1-9.305-.209c-11.035-.256-22.448-.521-33.7-.353a146.225,146.225,0,0,0-20.3,2.258l-2.359.373C14.494,874.6,3.742,880.1-5.17,885.2a55.022,55.022,0,0,0-19.759,19.458c-6.972,11.64-4.936,24.953,5.735,37.487A107.318,107.318,0,0,0-1.86,958.32l-2.813.4A108.2,108.2,0,0,1-20.74,943.454c-11.274-13.241-13.379-27.385-5.928-39.823A57.056,57.056,0,0,1-6.18,883.457c9.069-5.2,20.026-10.79,32.528-12.858l2.364-.374A147.45,147.45,0,0,1,49.3,867.943c11.288-.169,22.719.1,33.774.353q4.654.108,9.3.206c3.529.064,7.061.209,10.474.349,5.365.219,10.914.445,16.327.357,13.049-.237,26.942-2.462,42.472-6.8,20.229-5.583,39.56-15.705,57.457-30.086,14.174-11.408,24.154-26.44,33.771-40.916l3.8-6.657.092-.149a185.644,185.644,0,0,0,11.746-20.885c13.154-27.2,28.33-52.937,47.069-83.217a77.826,77.826,0,0,0,12.077-37.813c.632-15.3-5.638-29.476-11.173-40.112-6.608-12.7-17.317-22.8-32.738-30.89-5.882-3.069-12.575-5.116-19.049-7.1-2.9-.888-5.907-1.806-8.825-2.81l-1.42-.468c-5.223-1.536-10.522-2.945-15.648-4.309-13.221-3.517-26.892-7.153-39.845-13.042-23.639-10.679-41.513-25.9-54.644-46.541-11.014-17.3-14.126-36.9-9.248-58.23,3.463-15.3,11.407-27.972,18.722-38.354,6.137-8.693,12.425-17.493,18.538-26.047l.27-.379q7.653-10.713,15.276-21.443c4.829-6.787,6.847-15.187,8.8-23.314l.336-1.4c.688-2.8.125-6.407-.518-9.572-2.661-13.325-9.886-24.769-21.477-34.019-7.589-6.078-15.731-11.746-23.657-17.265-5.506-3.835-11.2-7.8-16.686-11.89-16.7-12.513-34.51-26.112-57.745-44.1-4.611-3.583-9.152-7.373-13.563-11.056-9.389-7.837-19.1-15.94-29.739-22.183C19.593,169.881,6.981,167.8-6.058,171.608c-17.06,4.959-31.732,11.565-44.852,20.2-22.235,14.554-39.642,30.643-53.216,49.186a428.354,428.354,0,0,1-37.659,45.456c-14.511,15.048-32.421,24.251-48.031,31.271-14.378,6.433-29.6,10.639-44.312,14.707-9.3,2.57-18.919,5.229-28.145,8.409q-3.261,1.131-6.539,2.241l-.306.1c-11.234,3.826-22.852,7.783-33.431,13.148-25.653,12.925-45.422,29.058-60.437,49.317-5.351,7.223-10.867,14.541-15.778,21.055-10.684,14.176-21.731,28.835-32.046,43.6a349.893,349.893,0,0,0-41.3,79.82c-9.476,26.018-14.195,50.868-14.425,75.967-.05,6.827.5,13.841,1.04,20.624.391,4.939.794,10.046.97,15.116.442,11.75.629,21.636.114,31.689a257.824,257.824,0,0,1-3.309,30.8c-2.527,14.73-8.444,29.917-18.619,47.794-9.7,17.03-20.119,33.911-30.2,50.236q-4.641,7.515-9.265,15.042c-9.344,15.238-19.755,33.148-25.031,52.941-3.076,11.548-5.5,22.01-4.059,33.1a126.678,126.678,0,0,0,12.342,40.141c4.785,9.6,10.419,19.025,15.867,28.136,2.65,4.429,5.389,9.009,8.032,13.612a202.972,202.972,0,0,1,12.441,24.721l-2.073.295A202.737,202.737,0,0,0-520.417,1006.316Z" fill="#f2f6f7"/>
                            </g>
                        </g>
                        <g id="Сгруппировать_187" data-name="Сгруппировать 187">
                            <path id="Контур_163" data-name="Контур 163" d="M-159.77,712.156a97.882,97.882,0,0,0,19.3-4.731c10.12-3.617,16.782-10.029,20.363-19.607a127.11,127.11,0,0,0,7.462-33.68c.621-6.782,1.53-13.67,2.41-20.331q.428-3.249.848-6.5l.982-7.787c.782-6.178,1.565-12.366,2.313-18.565l.356-2.828c.865-6.874,1.759-13.978,2.491-21.02.45-4.273.766-8.894.941-13.733.087-2.846.211-5.684.333-8.522.319-7.34.649-14.931.336-22.425-.724-16.855-2.534-36.55-10.454-54.839-3.829-8.9-8.949-15.539-15.652-20.3-16.062-11.484-34.308-15.254-50.039-17.427-18.82-2.535-37.584,1.245-57.365,11.556a116.808,116.808,0,0,0-35.183,28.6c-4.885,5.817-9.931,11.676-14.812,17.343-8.719,10.124-17.734,20.593-26.176,31.232a107.691,107.691,0,0,0-21.725,46c-2.637,13.133-.174,25.424,2.34,35.914,5.333,22.083,17.266,42.9,36.48,63.662a114.718,114.718,0,0,0,55.807,33.524c10.666,2.787,24.818,5.962,39.725,5.795,4.594-.062,9.278.227,13.8.506,1.873.115,3.743.231,5.612.322l.1-2.013c-1.861-.094-3.722-.207-5.586-.322-4.565-.281-9.287-.572-13.956-.509-14.662.163-28.642-2.976-39.184-5.73A112.718,112.718,0,0,1-292.727,672.8c-18.975-20.5-30.749-41.026-36-62.763-2.464-10.281-4.88-22.318-2.322-35.049a105.693,105.693,0,0,1,21.326-45.147c8.417-10.606,17.42-21.058,26.126-31.168,4.884-5.672,9.935-11.535,14.825-17.363a114.819,114.819,0,0,1,34.571-28.1c19.394-10.11,37.76-13.82,56.149-11.345,15.483,2.139,33.431,5.841,49.136,17.068,6.483,4.608,11.239,10.792,14.971,19.462,7.79,17.989,9.574,37.456,10.292,54.126.308,7.407-.019,14.953-.337,22.253-.123,2.845-.246,5.692-.335,8.541-.171,4.788-.484,9.362-.931,13.591-.729,7.021-1.621,14.117-2.484,20.977l-.357,2.837c-.749,6.2-1.532,12.382-2.313,18.556l-.982,7.786q-.414,3.241-.848,6.488c-.881,6.679-1.793,13.587-2.417,20.407A125.092,125.092,0,0,1-122,687.112c-3.362,8.991-9.624,15.012-19.149,18.413a101.757,101.757,0,0,1-31.612,5.709,22.373,22.373,0,0,0-4.368.688c-.59.135-1.178.267-1.761.378l.372,1.981c.609-.114,1.223-.254,1.837-.392a20.766,20.766,0,0,1,3.975-.638A118.211,118.211,0,0,0-159.77,712.156Z" fill="#f2f6f7"/>
                        </g>
                        <g id="Сгруппировать_188" data-name="Сгруппировать 188">
                            <path id="Контур_164" data-name="Контур 164" d="M109.6,732.27l-.6,2.408c-.846-.208-1.693-.4-2.539-.6-1.812-.42-3.683-.855-5.509-1.389-16.738-4.874-27.221-12.174-33.991-23.677-6-10.278-6.553-19.13-1.73-27.861,4.429-8.01,18.819-14.655,30.737-11.221,19.024,5.475,30.493,15.561,36.093,31.74a24.558,24.558,0,0,1-1.137,19.76A23.855,23.855,0,0,1,115.746,733.1c-1.161.307-2.327.649-3.487.987-.663.193-1.323.387-1.981.571ZM67.9,682.608c-4.317,7.81-3.794,15.484,1.692,24.875,6.346,10.782,16.284,17.66,32.225,22.3,1.744.511,3.573.936,5.342,1.347.811.188,1.624.377,2.434.573.6-.17,1.211-.348,1.819-.525,1.184-.345,2.375-.692,3.553-1a20.845,20.845,0,0,0,13.282-10.164,21.566,21.566,0,0,0,.947-17.357c-5.25-15.164-16.074-24.639-34.065-29.817a23.009,23.009,0,0,0-9.588-.542C77.835,673.39,70.581,677.753,67.9,682.608Z" fill="#f2f6f7"/>
                        </g>
                        <g id="Сгруппировать_189" data-name="Сгруппировать 189">
                            <path id="Контур_165" data-name="Контур 165" d="M-114,741.633l-.316,2.977c-2.688-.279-5.378-.534-8.068-.789-6.216-.591-12.645-1.2-18.948-2.1-17.357-2.327-34.972-4.977-52.008-7.539l-.467-.07c-3.326-.5-6.662-.973-10-1.445-8.892-1.255-18.089-2.556-27.036-4.439a129.7,129.7,0,0,1-61.18-31.774,190.8,190.8,0,0,1-48.245-69.916c-5.4-13.434-8.292-25.643-8.834-37.322-.692-14.161,2.64-28.715,9.9-43.25,8.646-17.5,20.9-32.674,32.707-46.712q3.879-4.633,7.712-9.31c5.371-6.519,10.923-13.261,16.626-19.7,13.227-14.923,26.647-25.953,41.028-33.722,10.88-5.86,23.02-9.83,39.368-12.877a131.221,131.221,0,0,1,25.715-2.227c6.769.116,13.6.842,20.205,1.544,3.562.378,7.245.769,10.858,1.059a152.426,152.426,0,0,1,41.356,8.921c8.1,3.025,16.407,6.928,22.319,14.937,10.642,14.4,12.695,31.511,13.885,47.806a181.139,181.139,0,0,1-1.61,40.313c-1,6.389-1.927,12.881-2.826,19.161-.787,5.5-1.6,11.193-2.457,16.786-.849,5.535-1.82,11.14-2.759,16.559-2.019,11.642-4.1,23.678-5.059,35.576C-83.246,638.03-82.23,652.25-81,666.8c.905,10.657,2.928,21.47,4.884,31.928l.71,3.807c2.34,12.9-3.452,33.218-20.418,37.821-4.305,1.158-8.7,2.175-12.943,3.159q-2.27.525-4.54,1.058Zm-87.212-315.017c-16.02,2.984-27.885,6.858-38.475,12.561-14.06,7.6-27.208,18.411-40.194,33.062-5.668,6.4-11.2,13.124-16.558,19.622-2.568,3.116-5.134,6.232-7.728,9.331-11.69,13.9-23.816,28.91-32.315,46.112-7.026,14.073-10.252,28.123-9.586,41.766.527,11.337,3.347,23.225,8.62,36.339a187.815,187.815,0,0,0,47.484,68.817,126.707,126.707,0,0,0,59.756,31.043c8.843,1.86,17.988,3.153,26.831,4.4,3.347.473,6.692.946,10.026,1.448l.468.07c17.023,2.562,34.626,5.209,51.972,7.536,6.244.889,12.636,1.5,18.818,2.083,2.7.257,5.4.512,8.094.792v.033q2.272-.539,4.553-1.061c4.22-.978,8.584-1.989,12.836-3.133,15.206-4.124,20.352-22.605,18.222-34.354l-.709-3.8c-1.969-10.53-4.006-21.418-4.925-32.227-1.246-14.683-2.271-29.04-1.144-43.223.966-12.037,3.065-24.143,5.094-35.85.936-5.406,1.906-11,2.75-16.5.854-5.578,1.666-11.261,2.454-16.758.9-6.288,1.83-12.792,2.83-19.2a178.015,178.015,0,0,0,1.583-39.634c-1.158-15.848-3.14-32.469-13.3-46.226-5.443-7.373-13.281-11.037-20.939-13.9a149.459,149.459,0,0,0-40.531-8.738c-3.654-.292-7.358-.686-10.938-1.065-6.54-.7-13.3-1.414-19.936-1.528a123.982,123.982,0,0,0-19.568,1.278Q-198.425,426.107-201.212,426.616Z" fill="#f2f6f7"/>
                        </g>
                        <g id="Сгруппировать_190" data-name="Сгруппировать 190">
                            <path id="Контур_166" data-name="Контур 166" d="M-95.25,770.238c2.467-.7,4.993-1.361,7.437-2.006,5.45-1.435,11.085-2.917,16.484-4.86,21.828-7.853,35.2-23.355,39.733-46.078,1.512-7.578-.933-15.07-3.09-21.68-1.515-4.638-3.206-9.3-4.839-13.8-2.72-7.5-5.533-15.259-7.591-23.05-2.624-10.022-3.317-21.161-2.177-35.049,1.117-13.75,5.031-26.989,8.814-39.791,1.079-3.649,2.194-7.423,3.229-11.154,4.984-18.037,8.182-33.357,7.578-49.5-.143-3.643-.253-7.29-.366-10.936-.216-7.038-.438-14.316-.889-21.464-.869-13.062-1.722-24.82-3.355-36.473a186.167,186.167,0,0,0-6.185-27.91c-2.974-9.6-10.48-15.892-21.71-18.2a94.862,94.862,0,0,0-17.658-2.37c-14.683-.246-29.273-.007-42.958.259q-4.892.1-9.784.173c-12.844.215-26.124.436-39.141,1.332-18.343,1.221-39.893,3.486-60.62,11.061-21.56,7.821-40.269,21.183-55.6,39.712-4.531,5.472-9.228,10.973-13.772,16.291-7.923,9.276-16.116,18.867-23.725,28.669-10.517,13.567-18.9,25.2-25.632,37.877a90.162,90.162,0,0,0-10.5,51.592c1.385,13.1,5.169,26.433,12.269,43.221,9.769,23.053,24.477,42.779,38.917,60.659A148.087,148.087,0,0,0-259.3,736.968c11.39,5.464,24.379,9.4,39.716,12.046l4.663.8c26.59,4.546,54.086,9.248,80.713,16.1,14.4,3.717,26.554,5.1,38.237,4.372l-.127-2.015c-11.462.722-23.41-.648-37.6-4.308-26.709-6.874-54.246-11.582-80.879-16.135l-4.663-.8c-15.145-2.609-27.961-6.494-39.177-11.875A146.06,146.06,0,0,1-308.8,695.487c-14.347-17.766-28.957-37.354-38.628-60.178-7.02-16.6-10.759-29.749-12.122-42.647a88.177,88.177,0,0,1,10.273-50.441c6.663-12.548,14.991-24.1,25.445-37.587,7.58-9.763,15.756-19.335,23.665-28.593,4.548-5.324,9.25-10.83,13.791-16.315,15.1-18.246,33.518-31.4,54.736-39.1,20.491-7.488,41.862-9.733,60.063-10.942,12.964-.894,26.218-1.114,39.036-1.328q4.895-.081,9.791-.173c13.665-.266,28.234-.506,42.885-.259a93.142,93.142,0,0,1,17.278,2.327c10.615,2.187,17.406,7.848,20.187,16.823a184.165,184.165,0,0,1,6.116,27.6c1.623,11.584,2.472,23.3,3.34,36.32.447,7.112.671,14.374.885,21.4.113,3.653.224,7.3.366,10.951.6,15.883-2.571,31.031-7.506,48.886-1.03,3.716-2.143,7.481-3.22,11.122-3.812,12.9-7.755,26.24-8.89,40.2-1.158,14.12-.446,25.472,2.236,35.722,2.083,7.882,4.911,15.682,7.646,23.225,1.629,4.492,3.313,9.135,4.819,13.742,2.08,6.375,4.438,13.6,3.028,20.664-4.386,21.981-17.318,36.976-38.434,44.571-5.312,1.913-10.9,3.386-16.31,4.81-2.452.645-4.989,1.314-7.474,2.014Z" fill="#f2f6f7"/>
                        </g>
                        <g id="Сгруппировать_191" data-name="Сгруппировать 191">
                            <path id="Контур_167" data-name="Контур 167" d="M-227.447,633.377l-.391,2.864c-17.245-2.32-28.712-9.487-35.052-21.913-3.68-7.208-7.119-14.931-5.283-23.111,4.909-21.864,17.585-35.31,37.675-39.962,8.276-1.934,22.188,1.7,27.077,9.107,10.19,15.482,13.1,29.831,9.172,45.156-3.989,15.63-13.143,25.316-28.01,29.619-1,.272-2.03.492-3.028.7-.508.11-1.014.22-1.514.333Zm-2.362-79.175c-19.122,4.427-30.7,16.751-35.4,37.674-1.617,7.2,1.6,14.362,5.028,21.081,5.93,11.62,16.321,18.065,32.7,20.278l0-.008c.513-.118,1.034-.23,1.558-.342.958-.2,1.949-.417,2.843-.66,13.718-3.971,22.185-12.95,25.886-27.452,3.706-14.445.92-28.03-8.766-42.749-3.511-5.317-14.613-9.2-22.465-8.079C-228.9,554.012-229.362,554.1-229.809,554.2Z" fill="#f2f6f7"/>
                        </g>
                        <g id="Сгруппировать_192" data-name="Сгруппировать 192">
                            <path id="Контур_168" data-name="Контур 168" d="M-218.754,664.982l.611-.127c2.294-.476,4.6-.957,6.878-1.461,23.261-5.053,37.979-19.459,44.987-44.039a122.382,122.382,0,0,0,4.016-43.45,98.809,98.809,0,0,0-4.094-19.876l-.274-.937c-3.306-11.294-6.726-22.971-14.431-32.755-9.309-11.9-20.24-17.257-32.489-15.924-9.182.97-17.674,5.043-23.2,8.287-14.306,8.468-25,16.9-33.657,26.532-12.037,13.4-19.528,27.021-22.9,41.66a44.765,44.765,0,0,0,.112,20.7c3.94,16.313,10.548,28.929,20.2,38.564,6.36,6.319,14.559,10.815,22.489,15.166l.129.071c8.8,4.823,18.9,7.325,30.892,7.65l.056-2.014c-11.656-.318-21.458-2.74-29.969-7.4l-.129-.071c-7.807-4.281-15.88-8.709-22.036-14.824-9.382-9.366-15.814-21.667-19.666-37.61a42.771,42.771,0,0,1-.107-19.776c3.295-14.3,10.634-27.634,22.435-40.766,8.517-9.476,19.061-17.781,33.18-26.14,5.355-3.141,13.6-7.085,22.388-8.016,11.509-1.254,21.829,3.847,30.677,15.16,7.468,9.48,10.831,20.968,14.083,32.079l.274.937a97.056,97.056,0,0,1,4.021,19.462,120.477,120.477,0,0,1-3.945,42.748c-6.785,23.8-21.007,37.738-43.472,42.617-2.278.5-4.573.982-6.858,1.458l-.612.128Z" fill="#f2f6f7"/>
                        </g>
                        <g id="Сгруппировать_193" data-name="Сгруппировать 193">
                            <path id="Контур_169" data-name="Контур 169" d="M124.944,768c22.3-3.171,38.023-17.763,43.308-41.121,5.509-24.47-4.894-44.311-14.574-58.863-11.015-16.56-27.379-27.106-43.2-37.3l-3.206-2.069c-5.064-3.267-10.289-6.471-15.342-9.572-9.547-5.854-19.418-11.91-28.555-18.6a105.842,105.842,0,0,1-32.7-39.047A292.847,292.847,0,0,1,7.179,492.895c-3.531-16.714-4.6-34.64-3.273-54.8.684-10.308,2.323-20.746,3.908-30.838.7-4.491,1.435-9.134,2.072-13.71.1-.682.2-1.37.3-2.054.913-6.17,1.858-12.55.112-19.118A26.512,26.512,0,0,0-2.052,356.22a22.169,22.169,0,0,0-16.984-2.349,391.146,391.146,0,0,0-40.425,13.005c-16.7,6.478-36.61,13.554-57.61,16.926-9.531,1.511-19.253,2.844-28.657,4.134-5.576.763-11.156,1.527-16.729,2.333-5.025.726-10.159,1.409-15.12,2.068-11.923,1.588-24.253,3.227-36.225,5.624-31.051,6.131-54.962,17.979-73.1,36.22-11.424,11.5-22,24.094-31.328,35.2-9.916,11.806-20.148,24.6-32.2,40.255-12.877,16.71-21.566,34.778-25.829,53.7a93.821,93.821,0,0,0-.461,39.409,202.48,202.48,0,0,0,31.85,75.9c12.631,18.576,24.666,35.045,36.8,50.35a137.667,137.667,0,0,0,45.532,36.64c9.864,5.053,21.664,8.491,37.13,10.821,23.174,3.513,47.354,7.453,73.916,12.045,3.319.578,6.691,1.221,9.952,1.841,11.415,2.176,23.219,4.426,35.195,4.348a6.8,6.8,0,0,1,1.878.479c.439.153.895.311,1.369.428l.486-1.958c-.4-.1-.791-.236-1.184-.374a8.346,8.346,0,0,0-2.527-.593c-11.811.078-23.516-2.154-34.835-4.31-3.268-.623-6.648-1.267-9.985-1.848-26.578-4.594-50.771-8.535-73.959-12.052-15.244-2.3-26.845-5.672-36.509-10.622a135.634,135.634,0,0,1-44.87-36.1c-12.1-15.264-24.107-31.7-36.71-50.228a200.5,200.5,0,0,1-31.537-75.156,91.888,91.888,0,0,1,.446-38.583c4.2-18.637,12.765-36.44,25.46-52.917,12.035-15.634,22.249-28.4,32.147-40.188,9.3-11.079,19.851-23.636,31.215-35.079,17.839-17.944,41.407-29.609,72.05-35.659,11.91-2.385,24.2-4.019,36.1-5.6,4.965-.661,10.1-1.341,15.142-2.072,5.571-.805,11.144-1.568,16.715-2.331,9.413-1.293,19.148-2.627,28.7-4.14,21.19-3.4,41.224-10.523,58.026-17.038A389.318,389.318,0,0,1-18.5,355.816a20.187,20.187,0,0,1,15.444,2.153,24.49,24.49,0,0,1,11.4,14.921c1.639,6.169.764,12.066-.16,18.308q-.154,1.033-.3,2.068c-.636,4.563-1.364,9.2-2.067,13.678-1.593,10.138-3.24,20.619-3.93,31.019C.544,458.31,1.627,476.415,5.2,493.312a294.9,294.9,0,0,0,23.65,69A107.838,107.838,0,0,0,62.169,602.1c9.2,6.739,19.11,12.816,28.693,18.692,5.042,3.094,10.258,6.293,15.3,9.546l3.209,2.07c15.651,10.085,31.835,20.514,42.617,36.725,9.457,14.218,19.627,33.58,14.286,57.307-6.29,27.8-27.99,42.7-58.04,39.847-13.187-1.285-26.5-5.714-38.252-9.622-13.064-4.285-30.426-9.014-48.922-7.531-.7.059-1.408.11-2.12.163-3.959.29-8.052.594-11.6,2.183a306.662,306.662,0,0,0-30.961,15.956C-50.5,783.707-74.26,791.708-98.4,792.623a10.8,10.8,0,0,0-3,.663c-.4.13-.8.259-1.192.361l.51,1.952c.434-.114.869-.254,1.306-.394a9.3,9.3,0,0,1,2.444-.566c24.508-.928,48.585-9.022,75.77-25.483A304.422,304.422,0,0,1,8.183,753.311c3.211-1.441,7.122-1.728,10.906-2.007.718-.053,1.432-.1,2.137-.165,18.13-1.452,35.238,3.212,48.116,7.437,11.847,3.94,25.28,8.408,38.7,9.715A71.914,71.914,0,0,0,124.944,768Z" fill="#f2f6f7"/>
                        </g>
                        <g id="Сгруппировать_194" data-name="Сгруппировать 194">
                            <path id="Контур_170" data-name="Контур 170" d="M128.314,785.56A72.446,72.446,0,0,0,167.272,767c6.636-6,11.116-14.593,13.706-20.744,6-14.279,8.436-26.382,7.662-38.093a98.807,98.807,0,0,0-8.508-33.79c-7.413-16.75-19.2-31.354-35.033-43.4q-6.027-4.565-12.09-9.078c-12.626-9.444-25.685-19.209-37.9-29.544C71,571.864,53.609,549.4,41.935,523.677c-8.719-19.2-13.462-34.509-15.38-49.625a155.861,155.861,0,0,1,.046-39.084c2.089-16.407,7.253-32.312,12.248-47.693,1.265-3.895,2.573-7.924,3.814-11.9,4.732-15,3.841-27.286-2.8-38.651C34,326.685,24.275,323.258,14.819,320.608c-8.083-2.241-16.736-1.858-27.238,1.212-16.829,4.862-32.235,13.339-47.136,21.537-4.514,2.483-9.182,5.052-13.806,7.473-20.355,10.617-36.7,17.045-53,20.842-8.281,1.939-16.862,3.365-25.161,4.744-4.3.715-8.741,1.453-13.094,2.254-6.269,1.134-12.666,2.228-18.852,3.285-14.8,2.532-30.106,5.148-44.981,8.544-27.725,6.339-50.885,18.9-68.838,37.333-10.1,10.353-19.437,21.164-30.343,34.21-11.76,14.045-22.3,26.774-32.18,40.367-9.966,13.716-19.921,28.846-25.214,46.528-5.286,17.731-7.162,32.575-5.906,46.713a135.864,135.864,0,0,0,5.2,26.549,247.559,247.559,0,0,0,21.746,51.325c15.07,26.4,33.051,53.3,56.588,84.679,12.273,16.356,24.22,27.648,37.6,35.54,9.6,5.664,19.076,8.835,28.153,9.428,10.36.667,20.888.909,31.07,1.142,7.664.175,15.59.356,23.375.718,5.968.273,12.05.982,17.933,1.668,3.1.361,6.3.734,9.466,1.042,2.433.232,4.864.478,7.294.723,7.6.766,15.453,1.559,23.243,1.984,7.673.41,15.479.532,23.028.65,3.471.054,6.943.109,10.41.19l.074-3.026c-3.475-.081-6.955-.135-10.434-.19-7.521-.118-15.3-.24-22.911-.645-7.718-.422-15.539-1.21-23.1-1.973q-3.652-.369-7.307-.725c-3.133-.306-6.322-.675-9.407-1.035-5.934-.692-12.071-1.407-18.145-1.686-7.819-.363-15.763-.545-23.447-.721-10.15-.232-20.645-.472-30.941-1.135-8.594-.561-17.612-3.593-26.8-9.014-13.02-7.68-24.686-18.721-36.711-34.748-23.46-31.269-41.376-58.075-56.383-84.362a244.563,244.563,0,0,1-21.476-50.7,132.729,132.729,0,0,1-5.085-25.953c-1.221-13.742.62-28.225,5.792-45.579,5.164-17.246,14.953-32.116,24.764-45.614,9.823-13.515,20.328-26.2,32.052-40.2,10.861-12.994,20.15-23.755,30.188-34.04,17.539-18.01,40.193-30.285,67.336-36.49,14.791-3.377,30.054-5.986,44.814-8.51,6.194-1.06,12.6-2.155,18.888-3.294,4.332-.8,8.762-1.532,13.045-2.244,8.347-1.388,16.978-2.822,25.356-4.784,16.557-3.857,33.125-10.367,53.719-21.109,4.653-2.436,9.336-5.012,13.864-7.5,14.753-8.118,30.01-16.512,46.518-21.281,9.935-2.9,18.058-3.284,25.568-1.2,9.221,2.585,17.938,5.656,23.232,14.725,6.186,10.578,6.989,22.089,2.531,36.226-1.237,3.967-2.541,7.987-3.8,11.873C30.92,401.859,25.711,417.9,23.587,434.59a158.921,158.921,0,0,0-.047,39.843c1.958,15.43,6.778,31,15.626,50.493,11.861,26.14,29.516,48.947,53.975,69.723,12.284,10.4,25.38,20.188,38.043,29.66q6.046,4.521,12.072,9.064c15.418,11.735,26.892,25.941,34.1,42.223a95.869,95.869,0,0,1,8.253,32.764c.743,11.229-1.618,22.9-7.43,36.727-2.471,5.867-6.723,14.042-12.95,19.674-16.9,15.349-37.347,21.227-60.765,17.457-9.234-1.49-18.571-3.453-27.6-5.352-9.286-1.952-18.886-3.971-28.412-5.485a103.978,103.978,0,0,0-27.8-.286C5.644,772.723-8.36,779.247-20.712,785a285.474,285.474,0,0,1-52.529,18.987c-5.04,1.24-10.28,2.156-15.346,3.043-2.318.406-4.637.812-6.951,1.249l.564,2.972c2.3-.435,4.6-.837,6.91-1.24,5.117-.9,10.408-1.822,15.551-3.086a288.444,288.444,0,0,0,53.086-19.186C-7.29,782.087,6.465,775.692,20.987,774.1a100.9,100.9,0,0,1,26.986.269c9.446,1.5,19.01,3.513,28.259,5.457,9.064,1.906,18.436,3.877,27.742,5.38A81.089,81.089,0,0,0,128.314,785.56Z" fill="#f2f6f7"/>
                        </g>
                        <g id="Сгруппировать_195" data-name="Сгруппировать 195">
                            <path id="Контур_171" data-name="Контур 171" d="M-250.442,861.6c7.917-1.66,14.611-5.915,21.084-10.032,1.22-.777,2.442-1.552,3.673-2.312,11.561-7.122,23.517-14.485,37.418-16.921a174.207,174.207,0,0,1,21.319-2.651c7.393-.4,14.93-.59,22.218-.778,7.267-.185,14.783-.379,22.165-.775,31.038-1.574,62.449-8.924,96.03-22.462l1.728-.7c12.925-5.228,26.289-10.634,40.375-12.88a128.8,128.8,0,0,1,39.11-.74c9.125,1.338,18.386,2.815,27.34,4.241,7.086,1.129,14.41,2.3,21.623,3.387a90.677,90.677,0,0,0,54.853-8.287c12.235-5.987,21.216-13.514,27.454-23.01,8.673-13.224,14.164-28.059,17.28-46.686,3.393-19.946.072-39.978-10.153-61.236-6.574-13.589-16.855-25.535-32.357-37.6q-5.546-4.311-11.124-8.6c-11.1-8.54-22.566-17.371-33.434-26.54C87.578,562.9,67.433,536.72,54.573,506.987a131.948,131.948,0,0,1-9.943-36.531c-2.968-24.139.686-47.67,11.173-71.937C60.631,387.3,66.677,372.35,70.6,356.246c3.155-12.945-1.808-23.928-6.483-32.05-9.114-15.747-24.879-21.853-37.6-25.415A69.821,69.821,0,0,0,9.3,295.88c-12.705-.2-25.7,3.275-39.738,10.627-12.774,6.7-25.114,14.708-37.048,22.453l-2.4,1.561c-26.854,17.442-50.637,28.158-74.846,33.722-11.16,2.555-22.633,4.614-33.73,6.6q-3.8.682-7.588,1.368l-2.06.376c-25.355,4.614-51.571,9.385-75.881,20.092-14.6,6.424-27.166,16.112-37.531,24.739-10.215,8.591-18.6,19.073-26.713,29.212-2.147,2.685-4.37,5.464-6.592,8.162-9.907,12.076-22.236,27.1-33.672,41.792-16.032,20.67-26.7,43.194-31.7,66.948a118.671,118.671,0,0,0-1.473,38.806c2.451,21,9.111,42.535,20.356,65.815,6.177,12.77,13.309,25.3,20.206,37.417,3.944,6.925,8.019,14.085,11.866,21.2,6.666,12.347,13.366,24.941,19.847,37.122,8.207,15.428,16.7,31.382,25.191,46.984,6.717,12.288,14.884,26.335,26.825,37.536a48.623,48.623,0,0,0,26.073,13.19l.317-1.992c-9.339-1.468-17.516-5.61-25-12.666-11.727-11-19.8-24.882-26.438-37.034-8.489-15.59-16.975-31.539-25.18-46.963-6.483-12.184-13.185-24.782-19.853-37.134-3.858-7.138-7.94-14.308-11.887-21.244-6.882-12.086-14-24.585-20.143-37.294-11.147-23.076-17.745-44.4-20.17-65.178a116.681,116.681,0,0,1,1.445-38.157c4.941-23.452,15.479-45.7,31.321-66.125,11.419-14.666,23.739-29.683,33.639-41.749,2.228-2.708,4.455-5.492,6.608-8.185,8.049-10.061,16.371-20.464,26.43-28.922,10.252-8.535,22.676-18.115,37.047-24.436,24.089-10.613,50.188-15.362,75.424-19.955l2.06-.376q3.792-.688,7.584-1.367c11.12-1.993,22.619-4.055,33.826-6.62,24.449-5.62,48.439-16.424,75.5-34l2.4-1.561c11.895-7.72,24.195-15.7,36.885-22.357C-15.761,301.1-3.085,297.7,9.26,297.9a67.9,67.9,0,0,1,16.7,2.826c12.35,3.458,27.645,9.365,36.392,24.48,4.488,7.8,9.257,18.317,6.272,30.571-3.883,15.957-9.888,30.8-14.685,41.953C43.309,422.328,39.6,446.2,42.619,470.7a133.955,133.955,0,0,0,10.093,37.083c12.986,30.025,33.311,56.449,62.137,80.779,10.9,9.2,22.392,18.045,33.5,26.6q5.568,4.285,11.116,8.586c15.249,11.865,25.347,23.585,31.779,36.882,10.039,20.869,13.3,40.505,9.981,60.03-3.068,18.344-8.462,32.933-16.975,45.916-6.034,9.185-14.751,16.479-26.653,22.3a88.713,88.713,0,0,1-53.652,8.1c-7.2-1.091-14.527-2.258-21.607-3.386-8.963-1.427-18.231-2.9-27.371-4.245a130.91,130.91,0,0,0-39.721.744c-14.315,2.284-27.788,7.733-40.818,13l-1.726.7c-33.368,13.455-64.568,20.759-95.377,22.319-7.354.395-14.857.587-22.11.772-7.3.188-14.851.381-22.269.779a175.763,175.763,0,0,0-21.569,2.683c-14.283,2.5-26.407,9.967-38.132,17.191-1.24.766-2.468,1.545-3.695,2.328-6.612,4.2-12.855,8.172-20.41,9.755Z" fill="#f2f6f7"/>
                        </g>
                        <g id="Сгруппировать_196" data-name="Сгруппировать 196">
                            <path id="Контур_172" data-name="Контур 172" d="M-210.562,687.706c1.763-.323,3.58-.607,5.337-.883a98.075,98.075,0,0,0,12.242-2.459c7.643-2.293,14.465-4.469,20.659-7.927,17.839-9.973,24.643-27.609,28.947-43.546a220.042,220.042,0,0,0,7-44.869c1.658-27.9-2.73-55.034-13.414-82.946-7.286-19.092-21.647-30.842-42.688-34.924a40.829,40.829,0,0,0-16,.61c-15.085,3.147-29.047,10.742-43.936,23.9a311.864,311.864,0,0,0-38.458,40.4c-14.085,17.876-21.644,35.269-23.114,53.169-.578,6.9,1.259,14,3.036,20.872l.47,1.826c4.2,16.44,13.193,32.018,26.747,46.3a88.189,88.189,0,0,0,34.85,22.743c14.109,4.937,26.028,7.393,37.51,7.733l.093-3.024c-11.161-.331-22.788-2.734-36.59-7.562a85.214,85.214,0,0,1-33.655-21.97c-13.194-13.9-21.944-29.029-26.01-44.966l-.473-1.835c-1.714-6.626-3.485-13.477-2.949-19.867,1.439-17.535,8.58-33.914,22.476-51.55A308.929,308.929,0,0,1-250.4,496.925c14.475-12.793,27.994-20.168,42.545-23.2a37.767,37.767,0,0,1,14.792-.6c19.938,3.866,33.541,14.98,40.428,33.029,10.528,27.506,14.853,54.228,13.222,81.694a217.063,217.063,0,0,1-6.9,44.258c-4.14,15.331-10.644,32.27-27.5,41.694-5.926,3.307-12.58,5.429-20.037,7.664a95.579,95.579,0,0,1-11.851,2.371c-1.775.279-3.611.566-5.41.9Z" fill="#f2f6f7"/>
                        </g>
                        <g id="Сгруппировать_197" data-name="Сгруппировать 197">
                            <path id="Контур_173" data-name="Контур 173" d="M9.358,919.271c1.1-6.947,5.954-13.351,14.439-19.031,9.82-6.568,21.777-9.831,37.634-10.272,5.087-.14,10.255-.232,15.253-.322,11.344-.205,23.074-.416,34.575-1.186,33.575-2.267,62.04-9.889,87.017-23.3,14.572-7.822,26.469-16.439,36.371-26.347,5.316-5.314,10.287-11.2,15.1-16.9q1.824-2.164,3.659-4.32l3.444-4.88q6.029-9.693,12-19.413c10.833-17.581,22.036-35.762,33.628-53.285,8.1-12.255,17.246-24.072,26.094-35.5q3.271-4.227,6.527-8.456A96.1,96.1,0,0,0,352.908,656c2.364-11.807-.84-23.692-3.666-34.176a119,119,0,0,0-25.075-47.156c-8.464-9.826-18.916-16.862-34.946-23.529-13.971-5.809-69.123-19.265-69.678-19.4l-.114-.032C195.924,524,178.3,511.73,165.561,494.2a61.108,61.108,0,0,1-11.707-32.507c-1.669-24.087,9.736-43.007,21.111-58.337,5.055-6.826,10.3-13.679,15.376-20.307,6.011-7.853,12.226-15.973,18.157-24.087,7.279-9.956,11.989-21.692,14.4-35.882.482-2.806.159-6.221-.985-10.432-4.311-15.71-12.255-27.95-23.613-36.381-13.5-10.011-27.48-19.409-41-28.5-23.781-16.085-43.87-33.253-61.413-52.488-10.3-11.3-21.315-25.241-24.9-43.013a51.227,51.227,0,0,1-.691-19.116l3.222-.458c-1.158,5.572-1.007,11.835.446,18.973,3.445,17.053,14.155,30.588,24.177,41.579,17.379,19.055,37.289,36.072,60.867,52.017,13.547,9.109,27.555,18.527,41.113,28.581,11.914,8.844,20.234,21.63,24.728,38.01,1.262,4.648,1.6,8.488,1.048,11.734-2.457,14.457-7.484,26.957-14.942,37.156-5.948,8.141-12.174,16.274-18.2,24.14-5.067,6.619-10.3,13.463-15.349,20.271-11.046,14.888-22.124,33.222-20.522,56.327a58.152,58.152,0,0,0,11.138,30.946c12.346,16.988,29.453,28.891,52.3,36.391,3,.729,55.983,13.676,70.068,19.532,16.277,6.769,27.4,14.279,36.079,24.349a122.01,122.01,0,0,1,25.706,48.341c2.911,10.806,6.212,23.052,3.71,35.553A99.122,99.122,0,0,1,337.507,697.9q-3.253,4.237-6.535,8.465c-8.815,11.383-17.929,23.154-25.961,35.314-11.567,17.485-22.756,35.643-33.577,53.2-3.993,6.478-7.984,12.958-12.055,19.5l-3.532,5.01-.087.11q-1.854,2.171-3.693,4.36c-4.849,5.742-9.862,11.68-15.268,17.084-10.114,10.12-22.244,18.91-37.082,26.875-25.369,13.622-54.237,21.36-88.255,23.659-11.578.775-23.345.986-34.725,1.193-4.992.088-10.153.182-15.225.321-15.255.424-26.7,3.525-36.021,9.759-7.753,5.19-12.172,10.9-13.131,16.985-.88,5.566,1.184,11.554,6.128,17.795A88.768,88.768,0,0,0,34.5,953.15l-4.136.588A91.184,91.184,0,0,1,16.1,939.407C10.612,932.478,8.342,925.7,9.358,919.271Z" fill="#f2f6f7"/>
                        </g>
                        <g id="Сгруппировать_198" data-name="Сгруппировать 198">
                            <path id="Контур_174" data-name="Контур 174" d="M-550.2,1010.831q-2.043-4.134-4.118-8.264c-8.163-16.3-16.6-33.16-21.787-51.319-4.082-14.416-6.569-26.648-5.44-39.475.715-8.22,2.759-16.4,4.789-24.079,5.591-21.143,15.752-40.142,26.558-59.357,12.454-22.1,25.724-45.956,38.386-70.648a166.133,166.133,0,0,0,16.728-55.162c2.281-18.088,1.9-36.51,1.534-54.325-.107-5.205-.218-10.586-.259-15.883-.238-28.446,5.218-55.987,16.677-84.193,10.6-26.136,24.689-53.455,43.081-83.518a868.04,868.04,0,0,1,51.388-74.056c20.109-26.222,45.265-45.909,74.761-58.513,15.44-6.609,31.549-12.281,47.127-17.768,5.377-1.893,10.753-3.787,16.109-5.719a268.917,268.917,0,0,0,49.9-23.652,80.5,80.5,0,0,0,11.486-9.327l.737-.677c15.359-14.227,27.824-31.512,39.879-48.226l.223-.308A388.273,388.273,0,0,1-109.6,186.047c7.114-7.556,14.943-14.616,22.515-21.444,3.881-3.5,7.843-7.088,11.731-10.748l5.154-.733c-4.873,4.707-9.924,9.283-14.847,13.722-7.526,6.788-15.308,13.806-22.34,21.273a385.67,385.67,0,0,0-32.594,40.007l-.223.309c-12.142,16.836-24.7,34.244-40.283,48.683l-.741.68a82.6,82.6,0,0,1-11.944,9.673A271.932,271.932,0,0,1-243.629,311.4c-5.365,1.935-10.749,3.831-16.134,5.728-15.531,5.469-31.592,11.125-46.941,17.7-29.011,12.4-53.755,31.764-73.543,57.567a865.165,865.165,0,0,0-51.208,73.8c-18.305,29.919-32.324,57.093-42.859,83.076-11.307,27.832-16.691,54.992-16.457,83.033.042,5.278.154,10.65.261,15.845.368,17.925.75,36.459-1.559,54.766a169.153,169.153,0,0,1-17.036,56.161c-12.687,24.739-25.973,48.626-38.442,70.752-10.705,19.038-20.77,37.848-26.27,58.648-2,7.55-4.006,15.588-4.7,23.569-1.089,12.372,1.346,24.3,5.336,38.39,5.107,17.884,13.482,34.614,21.583,50.793q2.072,4.138,4.128,8.281a201.012,201.012,0,0,1,10.4,24.926l-3.058.435A198.446,198.446,0,0,0-550.2,1010.831Z" fill="#f2f6f7"/>
                        </g>
                    </g>
                </g>
            </g>
        </g>
    </g>
</svg>
