<svg width="796" height="1091" viewBox="0 0 796 1091" fill="none" xmlns="http://www.w3.org/2000/svg">
    <path d="M242.679 917.469C251.427 908.316 262.982 903.903 272.198 901.14C286.344 896.837 299.463 900.716 309.073 912.269C313.343 917.275 316.566 923.292 319.752 929.173C321.204 931.859 322.779 934.731 324.454 937.43C329.022 944.918 334.826 953.465 343.479 960.077C350.29 965.28 358.655 966.992 366.974 964.982C376.163 962.666 383.908 956.052 388.178 946.856C392.036 938.575 391.989 929.656 391.411 922.857C389.998 903.104 382.478 884.328 368.099 865.634C358.788 853.561 352.155 841.649 347.659 829.238C344.853 821.498 343.736 813.232 344.565 805.397C346.095 790.346 351.757 775.139 362.453 757.413C371.263 742.753 382.202 729.208 392.753 716.132C397.156 710.706 401.658 705.107 405.938 699.495C415.757 686.689 426.989 671.234 435.699 653.747C441.407 642.262 445.545 629.294 448.378 614.186C453.805 584.988 452.375 555.064 443.974 522.616C438.67 502.002 432.387 481.285 426.286 461.251L425.577 458.879C420.895 443.589 416.198 431.524 410.701 420.845C398.822 397.821 381.098 378.119 355.062 358.815C345.11 351.452 334.835 344.25 324.856 337.334C315.779 331.054 306.407 324.488 297.394 317.899C278.552 304.134 262.926 286.799 250.886 266.453C246.048 258.232 241.647 249.456 237.492 241.052C234.935 235.881 232.255 230.523 229.475 225.339C222.23 211.687 215.337 199.625 205.409 189.621C190.839 174.858 175.074 166.564 157.124 164.053C133.845 160.774 110.371 162.232 85.4727 168.757C72.1856 172.171 61.8198 176.925 52.6861 183.545C43.1292 190.498 37.1436 197.666 34.5792 205.307C31.0479 215.624 30.078 227.304 31.4588 243.112C32.1059 250.991 32.9262 258.97 33.76 266.726C34.3777 272.856 34.982 279.21 35.6362 285.476C37.3491 304.71 32.2525 323.937 20.056 344.262C12.1462 357.362 0.262519 368.746 -17.3013 379.967C-39.2436 393.972 -64.9027 404.215 -93.6686 410.239C-101.975 412.025 -110.54 413.662 -118.783 415.138C-129.025 417.077 -139.713 418.989 -150.118 421.411C-169.921 425.913 -184.887 438.634 -194.642 459.329C-203.156 477.277 -206.627 496.288 -209.138 514.238C-211.292 529.968 -213.223 548.714 -210.408 568.237C-207.05 591.422 -197.425 610.951 -181.816 626.314C-166.639 641.427 -152.043 650.547 -135.79 655.196C-132.619 656.103 -129.461 657.234 -126.39 658.314C-121.783 659.935 -116.953 661.569 -112.046 662.67C-97.4119 665.923 -82.5483 670.578 -66.7624 677.036C-51.7194 683.181 -37.5568 692.05 -24.6709 703.532C-8.98081 717.555 6.99231 732.089 24.1743 748.129C33.846 757.177 43.0213 766.285 49.4708 777.514C57.7916 791.902 56.6351 803.705 45.7236 816.805C40.9978 822.39 34.8595 827.622 27.7954 831.857C20.9179 835.969 13.411 839.372 6.09069 842.651C3.60504 843.756 1.0694 844.948 -1.41625 846.053C-5.24471 847.884 -9.28297 849.479 -13.531 850.837L-10.1535 852.787C-6.67507 851.562 -3.36983 850.237 -0.187771 848.725C2.29788 847.62 4.74688 846.378 7.23253 845.273C14.6029 841.907 22.1964 838.555 29.1739 834.27C36.4246 829.911 42.9361 824.433 47.8119 818.588C59.5832 804.599 60.87 791.37 51.8966 775.913C45.2008 764.31 35.8522 755.102 26.0573 745.868C8.87531 729.828 -7.0478 715.207 -22.8245 701.134C-35.9202 689.416 -50.3426 680.396 -65.782 674.138C-81.7911 667.667 -96.7413 662.961 -111.549 659.608C-116.232 658.521 -121.062 656.887 -125.583 655.316C-128.654 654.236 -131.949 653.142 -135.12 652.235C-150.89 647.749 -165.139 638.829 -179.983 624.139C-195.036 609.213 -204.428 590.28 -207.689 567.728C-210.481 548.565 -208.613 530.129 -206.423 514.535C-203.975 496.896 -200.518 478.107 -192.203 460.506C-182.862 440.727 -168.556 428.548 -149.659 424.217C-139.304 421.881 -128.702 419.919 -118.461 417.98C-110.168 416.417 -101.652 414.867 -93.2098 413.044C-64.1206 406.86 -38.1018 396.594 -15.9229 382.379C2.15079 370.875 14.3211 359.195 22.4309 345.749C34.9273 324.904 40.1508 305.057 38.3915 285.104C37.8238 278.887 37.1329 272.484 36.5152 266.354C35.7681 258.648 34.9478 250.669 34.3007 242.79C32.893 227.428 33.8861 216.108 37.3041 206.188C39.7916 199.079 45.3407 192.468 54.3878 185.798C63.1483 179.424 73.2775 174.88 86.1181 171.439C110.693 165.074 133.771 163.502 156.69 166.804C174.193 169.289 188.956 177.119 203.28 191.509C212.911 201.227 219.681 213.102 226.802 226.567C229.582 231.752 232.263 237.11 234.819 242.281C239.061 250.734 243.462 259.511 248.337 267.868C260.537 288.537 276.409 306.245 295.597 320.211C304.697 326.85 313.983 333.366 323.146 339.695C333.125 346.611 343.4 353.814 353.266 361.126C378.919 380.094 396.346 399.509 408.029 422.073C413.403 432.566 418.113 444.408 422.759 459.561L423.468 461.933C429.568 481.967 435.851 502.684 441.118 523.161C449.323 555.149 450.73 584.713 445.467 613.429C442.647 628.313 438.658 641.022 433.101 652.247C424.491 669.561 413.358 684.842 403.59 697.562C399.31 703.174 394.808 708.773 390.455 714.112C379.853 727.275 368.915 740.82 359.955 755.739C349.059 773.812 343.284 789.415 341.64 804.863C340.784 813.145 341.924 821.77 344.877 830.057C349.447 842.741 356.289 854.89 365.81 867.199C379.769 885.42 387.143 903.649 388.546 922.819C389.014 929.209 389.088 937.681 385.58 945.356C381.673 953.723 374.725 959.757 366.356 961.854C358.943 963.693 351.507 962.172 345.425 957.506C337.155 951.23 331.561 942.92 327.116 935.619C325.528 932.97 324.039 930.148 322.588 927.462C319.315 921.531 315.969 915.327 311.576 910.135C301.126 897.635 286.905 893.466 271.529 898.099C261.99 901.021 249.888 905.581 240.754 915.203C233.339 923.046 228.189 931.966 225.04 942.619C220.658 957.409 219.837 971.831 220.929 985.74L224.047 987.54C222.659 973.344 223.37 958.513 227.852 943.549C230.65 933.502 235.6 924.929 242.679 917.469Z" fill="#F2F6F7"/>
    <path d="M206.707 881.574C213.609 871.818 222.933 864.268 232.021 856.929C234.61 854.844 237.199 852.759 239.752 850.538C253.061 839.285 264.102 827.762 273.398 815.462C277.39 810.146 281.26 804.644 285.03 799.314C291.209 790.411 297.675 781.212 304.844 772.995C318.558 757.242 333.971 741.545 350.573 726.189C372.194 706.341 389.76 689.116 405.155 669.252C420.599 649.301 429.71 631.121 433.541 612.086C438.409 588.454 438.852 566.886 435.174 546.056C431.107 523.501 424.591 502.187 418.853 484.326C413.371 467.42 407.744 449.968 400.909 433.205C390.996 408.775 373.786 387.985 348.366 369.613C329.51 356.071 310.292 343.359 292.099 331.47C267.525 315.434 247.062 295.076 231.206 271.14C222.335 257.705 213.714 243.837 205.426 230.391L202.569 225.74C195.783 214.894 186.058 206.738 177.455 200.039C170.99 195.037 163.689 191.283 156.9 189.442C137.722 184.259 118.373 184.173 99.2618 189.074C72.1413 196.048 55.8808 215.412 55.7427 240.851C55.6611 256.392 56.0491 272.32 56.8335 288.362C57.4689 301.661 55.699 314.727 51.6007 327.025C46.6086 342.272 39.6818 354.669 30.5069 364.961C14.1268 383.332 -5.33704 397.844 -27.3248 408.128C-46.7769 417.22 -68.1441 424.629 -96.6306 431.969C-98.9529 432.592 -101.225 433.127 -103.497 433.663C-113.729 436.185 -124.284 438.867 -134.113 442.891C-155.288 451.566 -171.524 468.289 -182.559 492.402C-187.306 502.824 -190.535 514.817 -192.522 529.258C-196.987 562.591 -192.094 586.316 -176.506 606.517C-164.161 622.535 -147.64 633.921 -127.427 640.51C-117.94 643.678 -108.04 645.93 -98.4489 648.119C-94.8678 648.916 -91.1135 649.813 -87.4958 650.747C-73.4081 654.147 -62.039 658.055 -51.7663 663.062C-39.4883 668.996 -27.3944 677.249 -14.705 688.27C-10.7882 691.686 -6.92148 695.189 -3.09135 698.555C11.2399 711.332 25.9908 724.583 42.1783 735.545C46.6548 738.592 51.268 741.601 55.8311 744.698C61.5201 748.444 67.3323 752.377 73.0578 756.26L75.0363 757.634C84.2492 763.876 93.7585 770.406 100.142 779.749C103.272 784.328 105.616 790.069 106.83 795.966C108.709 805.711 105.035 814.675 95.2304 824.256C86.4725 832.825 75.5836 838.086 64.075 843.219C51.0004 849.065 38.1025 854.205 23.7887 859.797C19.4272 861.551 14.9425 863.119 10.4212 864.55L12.6729 865.85C16.6478 864.565 20.5861 863.144 24.4877 861.586C38.3417 856.19 51.836 850.818 64.824 844.922C76.4692 839.752 87.5448 834.368 96.5392 825.589C102.968 819.255 111.273 809.27 108.692 795.54C107.491 789.42 105.075 783.406 101.735 778.591C95.1049 768.874 85.459 762.381 76.1229 755.952L74.1444 754.578C68.4189 750.695 62.6067 746.762 56.9177 743.016C52.3546 739.919 47.828 736.96 43.3515 733.913C27.2506 723.001 12.5863 709.8 -1.65834 697.073C-5.48846 693.707 -9.35522 690.204 -13.272 686.788C-25.998 675.63 -38.2652 667.277 -50.7163 661.243C-61.0756 656.186 -72.5813 652.315 -86.8423 648.815C-90.46 647.881 -94.1776 647.121 -97.7953 646.187C-107.386 643.998 -117.236 641.66 -126.637 638.542C-146.454 632.066 -162.714 620.83 -174.813 605.185C-190.031 585.544 -194.765 562.142 -190.426 529.428C-188.54 515.16 -185.324 503.391 -180.677 493.142C-169.842 469.375 -153.942 453.036 -133.228 444.557C-123.448 440.619 -113.03 437.974 -102.798 435.452C-100.526 434.916 -98.2038 434.294 -95.8816 433.672C-67.2584 426.295 -45.7547 418.85 -26.1659 409.721C-3.99158 399.314 15.7089 384.592 32.2756 366.097C41.6371 355.683 48.6272 342.975 53.7694 327.469C57.9311 314.861 59.7144 301.572 59.0924 288.049C58.258 272.094 58.0066 256.13 58.0382 240.675C58.2093 216.179 73.9332 197.544 100.061 190.69C118.812 185.812 137.888 185.971 156.669 191.041C163.235 192.869 170.277 196.472 176.618 201.288C185.048 207.887 194.65 215.856 201.227 226.466L204.083 231.117C212.371 244.562 220.992 258.431 229.813 271.953C245.793 296.075 266.428 316.533 291.212 332.805C309.319 344.645 328.624 357.407 347.392 370.899C372.516 388.984 389.43 409.488 399.184 433.594C405.931 450.307 411.646 467.809 417.041 484.665C422.828 502.44 429.258 523.704 433.289 546.123C437.03 566.642 436.463 588.024 431.658 611.346C427.841 630.157 418.931 647.991 403.636 667.682C388.292 687.46 370.862 704.648 349.291 724.41C332.552 739.803 317.089 755.586 303.325 771.426C296.106 779.729 289.59 789.015 283.411 797.918C279.641 803.247 275.858 808.8 271.829 813.979C262.583 826.192 251.643 837.542 238.47 848.759C235.967 850.893 233.328 853.065 230.739 855.149C221.601 862.576 212.091 870.248 205.088 880.177C193.429 896.771 188.013 915.352 188.412 937.06C188.652 947.245 189.375 957.592 190.568 968.327L192.646 969.527C191.344 958.383 190.561 947.538 190.298 936.994C189.945 916.006 195.298 897.734 206.707 881.574Z" fill="#F2F6F7"/>
    <path d="M170.51 943.468C168.205 931.86 166.187 919.956 164.142 908.498C162.472 898.99 160.78 889.121 158.851 879.463C155.99 864.417 147.021 856.352 132.24 855.554C117.818 854.733 102.853 856.254 86.5004 859.977C65.2806 864.931 45.9098 869.682 27.7051 874.413L31.3424 876.513C48.7275 872.002 67.1421 867.507 87.1825 862.796C103.225 859.01 117.867 857.648 132.066 858.456C145.508 859.173 153.328 866.228 155.909 879.958C157.751 889.567 159.444 899.435 161.113 908.944C163.158 920.401 165.263 932.355 167.568 943.963L167.871 945.639C168.55 949.264 169.315 952.939 170.08 956.613L173.457 958.563C172.609 954.032 171.624 949.538 170.776 945.007L170.51 943.468Z" fill="#F2F6F7"/>
    <path d="M122.083 894.146C121.267 893.56 120.414 892.836 119.598 892.25C116.904 890.117 114.123 887.934 110.865 886.977C96.8174 882.908 83.0055 881.631 70.0122 883.136C62.7026 883.996 55.3797 885.08 48.0567 886.164L52.1271 888.514C58.184 887.623 64.2409 886.732 70.3345 885.977C82.9679 884.496 96.3334 885.746 110.071 889.751C112.759 890.495 115.281 892.528 117.765 894.425C118.618 895.148 119.521 895.784 120.423 896.421C131.761 904.583 138.257 916.532 142.705 926.028C145.605 932.206 148.131 938.63 150.384 945.127L154.282 947.377C151.699 939.65 148.793 932.084 145.427 924.713C140.719 915.067 133.89 902.695 122.083 894.146Z" fill="#F2F6F7"/>
    <path d="M280.638 1008.32C281.655 1005.56 288.249 1003.94 293.602 1005.07C309.439 1008.44 323.488 1009.5 336.604 1008.18C359.859 1005.91 378.174 998.584 392.743 985.749C406.416 973.666 413.797 959.683 415.161 942.92C417.091 918.977 411.818 897.111 407.029 880.605C403.645 869.067 399.814 857.502 396.093 846.347C392.984 836.931 389.802 827.242 386.88 817.704C382.052 801.867 381.32 787.935 384.812 775.286C387.46 765.499 391.931 755.956 396.065 746.796C396.678 745.533 397.205 744.221 397.818 742.959C403.843 729.924 411.699 717.717 419.442 705.906C423.038 700.477 426.698 694.738 430.221 689.036C440.317 672.348 446.765 658.981 451.153 645.58C456.422 629.454 459.266 611.928 460.256 590.213C461.863 555.23 453.592 521.356 444.367 489.934C443.745 487.612 442.986 485.326 442.364 483.004C437.122 465.082 431.698 446.477 424.594 428.981C415.859 407.311 401.967 387.974 383.559 371.457C367.572 357.146 349.866 344.614 332.766 332.432C328.809 329.686 324.902 326.853 321.082 324.07C299.779 308.768 283.293 292.322 270.736 273.872C264.932 265.325 260.498 255.605 257.268 248.198C255.537 244.197 253.806 240.195 252.075 236.193C245.986 221.939 239.751 207.139 231.887 193.361C223.616 178.886 212.369 166.966 197.568 156.803C187.885 150.174 176.769 148.028 166.145 146.629C130.666 142.08 96.8458 149.458 65.5004 158.15C53.1062 161.617 42.4038 166.755 32.6603 173.831C18.7847 184.064 11.9838 198.844 13.2574 216.438C13.7777 224.936 14.9677 233.475 16.171 241.791C17.0119 247.935 17.976 254.265 18.5437 260.482L18.9721 264.539C20.1013 275.584 21.2537 286.988 20.7204 298.111C20.063 312.05 13.7924 324.711 8.429 334.201C-1.1478 351.188 -15.6806 364.16 -38.5451 376.362C-57.058 386.227 -74.5869 392.388 -91.7282 395.078C-101.497 396.597 -111.535 397.384 -121.213 398.147C-128.322 398.661 -135.619 399.298 -142.791 400.122C-145.77 400.481 -148.475 400.767 -151.094 401.102C-158.763 401.986 -165.44 402.75 -171.82 403.801C-180.372 405.214 -192.841 411.41 -193.35 411.693L-193.487 411.73C-201.001 416.744 -204.358 424.159 -207.879 432.057C-208.342 433.06 -208.806 434.062 -209.269 435.065C-213.59 444.348 -215.309 454.326 -216.964 463.993C-217.358 466.075 -217.665 468.207 -218.059 470.289L-221.466 497.19L-221.583 498.392C-222.583 511.325 -223.473 524.667 -224.041 537.85C-224.903 558.944 -221.951 578.431 -215.367 595.627C-204.369 624.378 -183.058 646.266 -150.371 662.251C-145.841 664.405 -141.048 665.902 -136.391 667.436C-134.942 667.926 -133.356 668.38 -131.907 668.87C-125.318 671.057 -118.283 673.272 -110.491 675.576C-107.543 676.47 -104.632 677.227 -101.72 677.984C-95.8971 679.499 -89.9875 681.063 -84.3914 683.37C-71.7 688.388 -61.8604 693.145 -53.4733 698.219C-43.9605 703.942 -35.3475 711.224 -28.0703 717.619C-18.2352 726.184 -9.81249 734.396 -2.24602 742.69C8.85059 754.871 17.7223 765.304 23.0682 779.245C27.7749 791.893 24.8256 805.201 15.0945 815.056C3.2206 827.022 -12.0737 835.512 -31.198 840.637L-28.7731 842.037C-10.1318 836.749 4.80262 828.282 16.6265 816.402C26.8808 806.041 29.9703 791.89 24.994 778.509C19.1089 763.103 8.18549 751.023 -0.689813 741.395C-8.25628 733.1 -16.7656 724.839 -26.6873 716.224C-33.9645 709.828 -42.7506 702.446 -52.3501 696.673C-60.9104 691.5 -70.8366 686.693 -83.528 681.675C-89.2608 679.404 -95.2569 677.79 -101.08 676.276C-103.991 675.518 -106.903 674.761 -109.851 673.867C-117.642 671.563 -124.591 669.399 -131.18 667.211C-132.629 666.721 -134.215 666.267 -135.664 665.777C-140.234 664.293 -145.028 662.796 -149.385 660.742C-181.588 644.921 -202.567 623.456 -213.368 595.165C-219.829 578.155 -222.708 558.942 -221.908 538.157C-221.391 525.061 -220.451 511.632 -219.501 498.786L-219.68 497.297L-216.237 470.533C-215.843 468.451 -215.449 466.369 -215.142 464.237C-213.536 454.656 -211.781 444.815 -207.61 435.792C-207.147 434.789 -206.683 433.786 -206.22 432.784C-202.7 424.886 -199.606 418.127 -192.601 413.396C-191.682 413.003 -179.76 406.953 -171.754 405.687C-165.374 404.636 -158.834 403.908 -151.164 403.025C-148.546 402.689 -145.841 402.403 -142.862 402.045C-135.689 401.221 -128.443 400.67 -121.333 400.156C-111.569 399.443 -101.531 398.656 -91.6256 397.1C-74.2111 394.337 -56.5455 388.14 -37.8461 378.151C-14.5217 365.752 0.161068 352.521 9.93786 335.187C15.4013 325.524 21.8218 312.604 22.5061 298.219C23.0893 287.008 21.9004 275.468 20.8212 264.337L20.3927 260.279C19.7384 254.012 18.9109 247.645 17.9834 241.452C16.8167 233.273 15.6268 224.734 15.0564 216.322C13.8792 199.361 20.3668 185.324 33.6825 175.46C43.2395 168.507 53.8052 163.407 65.8763 160.099C96.9484 151.481 130.545 144.089 165.715 148.574C176.028 149.91 186.972 151.956 196.308 158.385C210.9 168.311 221.887 180.081 230.034 194.369C237.812 208.098 244.097 222.811 250.099 237.015C251.83 241.017 253.511 245.105 255.243 249.107C258.422 256.601 262.943 266.37 268.87 275.104C281.55 293.741 298.159 310.373 319.636 325.775C323.542 328.608 327.499 331.355 331.406 334.188C348.42 346.32 366.126 358.852 382.026 373.112C400.224 389.392 413.857 408.579 422.518 429.977C429.536 447.423 435.01 465.941 440.251 483.863C440.873 486.185 441.632 488.471 442.255 490.793C452.81 526.909 459.57 557.601 458.047 590.439C457.071 611.93 454.19 629.32 449.021 645.273C444.733 658.5 438.335 671.781 428.252 688.245C424.866 693.911 421.119 699.6 417.523 705.029C409.78 716.84 401.737 729.171 395.75 742.342C395.136 743.604 394.61 744.916 393.996 746.179C389.676 755.462 385.292 765.056 382.543 775.016C379.024 788.111 379.693 802.353 384.631 818.599C387.59 828.275 390.772 837.964 393.93 847.293C397.651 858.448 401.482 870.012 404.867 881.55C409.669 897.833 414.906 919.563 412.952 943.146C411.578 959.326 404.484 973.013 391.198 984.626C377.052 997.127 359.059 1004.29 336.251 1006.6C323.272 1007.88 309.396 1006.91 293.783 1003.55C287.946 1002.26 280.187 1003.9 278.643 1007.98L278.28 1008.81C277.163 1011.74 275.946 1014.85 275.225 1017.9L277.044 1018.95C277.728 1015.76 278.945 1012.65 280.162 1009.55L280.638 1008.32Z" fill="#F2F6F7"/>
    <path d="M97.0828 906.848C89.6546 903.714 82.0094 901.956 73.9874 901.25L80.6559 905.1C85.886 906.041 90.9527 907.465 95.9792 909.559C105.066 913.42 112.99 919.496 119.8 927.7L126.469 931.55C125.679 930.517 124.89 929.484 124.101 928.451C116.678 918.508 107.569 911.285 97.0828 906.848Z" fill="#F2F6F7"/>
    <path d="M372.313 1044.74C376.358 1041.53 380.49 1038.37 384.435 1035.34C392.7 1029.02 401.287 1022.55 409.145 1015.54C419.792 1006.1 428.561 995.112 435.374 983.111C440.937 973.274 442.51 962.751 444.026 950.924C446.534 930.78 443.623 910.623 440.673 893.332C439.669 887.672 438.801 881.974 437.797 876.314C434.691 857.893 431.402 838.789 428.907 819.912C426.278 800.266 426.459 784.551 429.499 770.487C431.537 761.156 434.272 751.419 437.64 741.585C440.795 732.322 444.592 723.544 449.253 713.072C451.27 708.578 453.51 704.098 455.65 699.791C458.654 693.789 461.757 687.613 464.241 681.311C473.287 658.243 478.159 633.805 479.074 606.62C480.099 576.844 477.304 547.286 470.856 518.853C466.914 501.681 462.352 484.383 457.85 467.581C455.8 459.931 453.494 451.325 451.312 442.906C445.056 418.74 432.937 396.732 414.364 375.501C406.651 366.66 397.618 358.905 388.759 351.25L388.549 351.013C386.844 349.567 385.139 348.12 383.484 346.587C376.243 340.328 368.579 334.403 361.038 328.663C349.258 319.668 337.181 310.386 326.637 299.449C315.254 287.565 302.555 272.959 295.072 254.32C288.594 238.34 282.906 220.392 277.739 199.742C272.156 177.812 262.265 156.744 247.34 135.194C238.516 122.479 227.602 110.982 213.82 100.253C202.955 91.671 190.353 88.8985 174.118 91.4186C162.091 93.2504 150.303 97.0678 138.875 100.862C133.621 102.563 128.093 104.337 122.666 105.937C95.1316 113.827 74.0814 119.687 54.4973 125.008C48.0769 126.729 41.5334 128.262 35.1265 129.759C25.9509 131.852 16.5887 134.068 7.37296 136.83C-6.91049 141.17 -18.0102 149.195 -25.4665 160.709C-27.3397 163.554 -29.2397 166.845 -29.7004 170.043L-29.9174 171.419C-31.1327 179.724 -32.4481 188.202 -30.4385 196.521C-28.429 204.841 -26.4194 213.16 -24.4099 221.479L-24.35 221.976C-21.9879 231.884 -19.4659 242.116 -17.1171 252.248C-14.3791 264.106 -11.8251 278.282 -14.2351 293.056C-17.5765 313.644 -27.2364 329.775 -43.0646 341.19C-62.0784 354.923 -83.4322 362.109 -108.319 363.214C-121.978 363.872 -135.54 362.162 -148.705 360.566C-153.862 359.898 -159.156 359.266 -164.463 358.858L-165.939 358.814C-168.977 358.677 -171.965 358.453 -174.903 358.142C-181.5 357.567 -188.456 357.015 -195.082 357.692C-212.393 359.476 -226.024 364.885 -236.981 374.263C-246.008 382.099 -257.096 392.903 -262.221 407.38C-266.592 419.752 -267.619 433.131 -265.225 446.984C-259.349 481.207 -255.024 509.915 -253.108 539.196C-252.598 547.112 -251.591 554.968 -250.124 562.628L-249.054 570.174C-245.581 586.959 -242.012 604.377 -233.325 620.131C-222.324 639.877 -208.344 656.262 -191.94 668.851C-179.394 678.519 -167.456 685.642 -155.657 690.607C-150.717 692.651 -145.628 694.435 -140.674 696.255C-137.516 697.386 -134.358 698.516 -131.114 699.696C-128.266 700.763 -125.418 701.83 -122.656 702.847C-112.576 706.588 -102.237 710.48 -92.0971 714.717C-85.9813 717.324 -80.229 720.761 -74.5632 724.148L-72.5713 725.298C-62.329 731.557 -54.6161 740.398 -48.4121 748.253C-42.8375 755.397 -39.1423 763.997 -37.6693 773.046C-35.6313 786.116 -42.3179 797.497 -56.5157 804.888C-63.1298 808.344 -70.2002 811.191 -78.0731 813.227L-75.6482 814.627C-68.4449 812.55 -61.8344 809.901 -55.5435 806.604C-40.5493 798.634 -33.5127 786.646 -35.7203 772.67C-37.2164 763.261 -40.9849 754.388 -46.8559 746.957C-53.0965 738.966 -61.0192 729.889 -71.5213 723.479L-73.5132 722.329C-79.179 718.942 -85.0179 715.456 -91.2203 712.798C-101.36 708.561 -111.786 704.62 -121.866 700.879C-124.714 699.812 -127.562 698.745 -130.324 697.728C-133.518 696.461 -136.813 695.367 -139.884 694.286C-144.751 692.516 -149.841 690.732 -154.781 688.688C-166.493 683.774 -178.207 676.664 -190.63 667.182C-206.824 654.83 -220.595 638.681 -231.472 619.122C-240.086 603.641 -243.668 586.446 -247.018 569.848L-248.052 562.438L-248.088 562.302C-249.605 554.729 -250.525 546.923 -251.086 539.094C-253.039 509.676 -257.314 480.881 -263.189 446.658C-265.734 433.065 -264.82 420.082 -260.512 408.02C-255.5 393.939 -244.649 383.346 -235.772 375.769C-225.188 366.638 -211.881 361.388 -194.929 359.628C-188.526 358.937 -181.707 359.526 -175.111 360.101C-172.122 360.325 -169.134 360.549 -166.146 360.773L-164.72 360.904C-159.463 361.398 -154.17 362.03 -149.013 362.698C-135.847 364.294 -122.149 365.968 -108.266 365.323C-83.0197 364.195 -61.3428 356.849 -42.0057 342.956C-25.8043 331.295 -15.8445 314.644 -12.4263 293.523C-9.95282 278.439 -12.4935 264.04 -15.3547 251.995C-17.7035 241.864 -20.2254 231.632 -22.5876 221.723L-22.6974 221.313C-24.707 212.994 -26.7165 204.675 -28.7261 196.355C-30.6258 188.446 -29.4105 180.141 -28.2086 172.059L-27.9916 170.683C-27.5576 167.931 -25.7576 164.814 -24.0344 162.229C-16.7782 151.061 -6.10165 143.369 7.722 139.225C16.8012 136.5 26.1633 134.284 35.3389 132.191C41.7458 130.694 48.2894 129.161 54.7097 127.44C74.3804 122.17 95.344 116.26 122.878 108.369C128.305 106.769 133.833 104.995 139.137 103.207C150.515 99.4999 162.167 95.719 174.057 93.9238C189.746 91.5502 201.865 94.1593 212.26 102.355C225.869 112.983 236.66 124.294 245.397 136.959C260.162 158.186 270.017 179.117 275.527 200.774C280.731 221.56 286.418 239.509 292.933 255.625C300.489 274.537 313.311 289.33 324.867 301.314C335.498 312.301 347.748 321.683 359.529 330.678C366.983 336.368 374.646 342.294 381.887 348.552C383.592 349.999 385.298 351.445 386.953 352.978L387.163 353.215C395.849 360.77 404.968 368.575 412.558 377.23C431.007 398.274 442.917 420.046 449.149 443.851C451.332 452.27 453.675 461.013 455.724 468.663C460.19 485.328 464.838 502.677 468.694 519.798C475.105 548.095 477.864 577.516 476.851 607.069C475.9 634.117 471.092 658.246 462.146 681.14C459.712 687.356 456.608 693.531 453.655 699.447C451.515 703.754 449.274 708.234 447.257 712.728C442.597 723.201 438.836 732.114 435.545 741.415C432.127 751.335 429.392 761.072 427.303 770.489C424.25 784.777 423.969 800.665 426.671 820.585C429.253 839.512 432.456 858.565 435.648 877.036C436.652 882.697 437.57 888.307 438.524 894.054C441.437 911.209 444.312 931.229 441.817 951.15C440.364 962.667 438.755 973.054 433.478 982.594C426.852 994.471 418.146 1005.15 407.686 1014.47C399.878 1021.39 391.377 1027.91 383.113 1034.23C379.168 1037.26 374.899 1040.46 370.854 1043.66C364.219 1048.95 357.148 1054.8 350.606 1061.53L352.338 1062.53C358.893 1055.58 365.778 1049.85 372.313 1044.74Z" fill="#F2F6F7"/>
    <path d="M154.041 647.593C148.239 644.243 143.083 640.574 138.363 636.348C130.58 629.429 126.908 621.189 127.151 611.168C127.384 600.564 129.207 589.608 132.682 577.988C134.633 571.609 136.324 565.08 137.915 558.724C138.446 556.606 139.013 554.623 139.543 552.505L141.511 545.096C143.075 539.187 144.59 533.364 146.154 527.454L146.898 524.766C148.589 518.237 150.43 511.448 152.308 504.795C153.492 500.745 154.826 496.434 156.483 491.964C157.4 489.376 158.367 486.701 159.284 484.112C161.708 477.314 164.096 470.378 167.139 463.706C173.954 448.703 182.738 431.489 196.554 417.758C203.27 411.127 210.334 406.892 218.107 405.029C236.794 400.46 254.617 403.591 269.621 407.404C287.536 411.974 303.144 422.14 317.161 438.662C326.539 449.619 333.687 462.637 338.497 477.307C340.76 484.387 343.246 491.481 345.523 498.338C349.71 510.685 354.006 523.443 357.77 536.124C362.732 552.73 363.613 569.404 360.576 585.664C358.15 598.466 351.481 608.818 345.414 617.325C332.546 635.414 314.198 649.993 289.251 661.802C269.376 671.227 248.337 674.669 226.68 671.98C216.006 670.667 202.074 668.397 188.654 662.843C184.543 661.162 180.196 659.692 176.022 658.321C174.263 657.767 172.554 657.127 170.796 656.574L171.399 654.728C173.108 655.368 174.867 655.922 176.539 656.426C180.8 657.846 185.147 659.317 189.344 661.047C202.505 666.452 216.3 668.758 226.75 670.057C248.047 672.769 268.727 669.351 288.279 660.086C312.903 648.437 331.014 634.068 343.596 616.275C349.612 607.855 356.131 597.762 358.444 585.357C361.418 569.407 360.473 553.042 355.671 536.76C351.907 524.079 347.611 511.321 343.46 499.11C341.097 492.203 338.747 485.073 336.398 477.943C331.661 463.546 324.636 450.714 315.468 439.994C301.611 423.795 286.399 413.742 268.917 409.422C254.173 405.76 236.624 402.556 218.296 407.101C210.796 408.891 204.242 412.843 197.713 419.351C184.133 432.872 175.413 449.777 168.648 464.693C165.654 471.278 163.217 478.3 160.843 485.012C159.926 487.601 158.959 490.276 158.042 492.864C156.435 497.248 155.101 501.558 153.967 505.522C152.089 512.175 150.298 518.877 148.607 525.406L147.863 528.094C146.298 534.004 144.734 539.913 143.22 545.736L141.252 553.145C140.721 555.264 140.154 557.246 139.624 559.364C138.033 565.72 136.292 572.336 134.341 578.715C130.916 590.248 129.106 600.981 128.837 611.449C128.634 620.8 132.023 628.53 139.423 635.112C146.91 641.744 155.544 647.191 165.843 651.751C167.156 652.278 168.405 653.115 169.517 653.988C170.037 654.288 170.506 654.675 170.939 654.925L169.853 656.607C169.333 656.307 168.863 655.92 168.344 655.62C167.181 654.834 166.106 654.097 165.016 653.584C161.379 651.484 157.592 649.643 154.041 647.593Z" fill="#F2F6F7"/>
    <path d="M100.29 660.092C99.0412 659.256 97.8422 658.333 96.5932 657.496C93.1559 655.05 89.4954 652.59 86.0715 649.92C72.399 639.602 74.661 619.084 81.494 608.249L83.5672 605.058C89.1136 596.251 94.8966 587.235 99.577 577.928C105.984 565.23 112.068 552.693 116.17 539.588C119.618 528.415 122.151 516.829 124.533 505.503C125.697 500.286 126.789 494.796 128.09 489.543C129.354 484.153 130.668 478.676 131.969 473.423C133.447 467.463 134.988 461.194 136.343 455.048C139.188 442.719 143.61 430.261 149.594 417.896C156.591 403.576 164.645 388.827 179.533 379.64C187.817 374.492 196.762 373.999 205.084 374.185C218.28 374.529 231.988 376.785 245.662 381.101C249.007 382.108 252.488 383.078 255.832 384.086C262.088 385.85 268.431 387.664 274.61 389.962C282.102 392.786 289.576 396.639 297.047 401.299C310.727 410.005 320.192 418.011 327.929 427.211C338.082 439.425 346.103 454.332 352.62 472.644C355.463 480.521 357.932 488.644 360.415 496.543C361.576 500.332 362.788 504.033 363.999 507.735C369.518 524.777 375.105 542.899 376.472 561.932C377.716 577.777 375.419 592.155 369.645 604.756C364.898 615.179 357.845 625.194 348.051 635.359C328.312 655.948 305.073 671.398 278.994 681.168C257.127 689.443 234.592 691.675 212.246 687.78C203.421 686.264 194.723 684.129 186.249 682.008C183.114 681.237 179.893 680.417 176.708 679.733L176.312 679.619C160.055 675.776 143.179 671.806 126.677 667.59C120.717 666.112 114.684 664.361 108.788 662.574C106.236 661.793 103.771 661.063 101.17 660.369L101.963 657.594L100.29 660.092ZM290.884 400.974C285.168 397.674 279.376 394.907 273.68 392.773C267.637 390.439 261.295 388.625 255.125 386.91C251.731 385.99 248.3 384.933 244.869 383.876C231.367 379.66 218.019 377.381 205.133 377.1C197.171 376.891 188.808 377.374 181.135 382.066C166.943 390.847 159.139 405.163 152.255 419.086C146.421 431.191 141.963 443.513 139.268 455.582C137.776 461.765 136.285 467.947 134.844 474.044C133.543 479.297 132.229 484.773 130.964 490.163C129.75 495.467 128.572 500.907 127.408 506.123C125.026 517.45 122.393 529.209 118.895 540.468C114.693 553.746 108.559 566.37 102.052 579.241C97.2715 588.721 91.4385 597.824 85.8921 606.631L83.8189 609.822C77.6225 619.754 75.5676 638.313 87.7812 647.559C91.2551 650.142 94.7791 652.638 98.2164 655.085C99.4654 655.921 100.664 656.844 101.914 657.681C104.465 658.461 106.98 659.105 109.532 659.886C115.341 661.623 121.288 663.324 127.247 664.802C143.75 669.018 160.626 672.988 176.882 676.831L177.279 676.944C180.413 677.715 183.685 678.449 186.906 679.27C195.294 681.341 204.078 683.526 212.68 685.028C234.63 688.81 256.582 686.588 277.939 678.596C303.608 668.936 326.473 653.732 345.926 633.439C355.484 623.485 362.386 613.729 366.934 603.653C372.544 591.534 374.678 577.64 373.493 562.291C372.15 543.618 366.599 525.632 361.154 508.863C359.942 505.162 358.781 501.373 357.619 497.585C355.173 489.822 352.617 481.649 349.861 473.823C343.504 455.834 335.506 441.286 325.649 429.359C318.173 420.309 308.917 412.54 295.497 403.984C293.952 402.861 292.443 401.874 290.884 400.974Z" fill="#F2F6F7"/>
    <path d="M74.6025 676.785C72.5874 675.275 70.5723 673.765 68.6439 672.306C64.2673 669.086 59.681 665.63 55.5545 661.977C38.7153 646.943 32.2749 628.098 36.4797 605.815C37.8646 598.417 42.7905 592.485 47.1797 587.283C50.2225 583.612 53.4385 580.042 56.6046 576.558C61.7902 570.776 67.1259 564.735 71.8053 558.43C77.8945 550.283 82.5151 540.48 86.567 527.462C90.5189 514.617 91.9058 501.215 93.1793 488.209C93.5802 484.514 93.9446 480.683 94.3455 476.989C96.4236 458.79 99.0702 443.806 105.535 429.409C106.938 426.178 108.392 422.86 109.882 419.679C112.589 413.39 115.533 406.891 118.513 400.529C123.997 389.031 129.141 378.721 134.804 368.712C139.504 360.571 144.761 352.867 150.523 345.686C156.672 338.036 165.765 335.087 176.758 337.046C182.298 338.051 188.098 339.205 193.571 341.326C206.932 346.384 219.993 351.962 232.274 357.09C235.159 358.293 238.13 359.547 241.015 360.75C252.553 365.565 264.439 370.579 275.887 376.15C291.952 383.924 310.625 393.781 326.562 408.178C343.141 423.062 355.225 441.932 362.257 464.352C364.324 470.972 366.614 477.606 368.731 484.14C372.489 495.431 376.406 507.046 379.69 518.757C384.233 534.89 387.583 548.487 389.035 562.373C390.914 580.317 387.624 597.816 379.73 612.888C373.713 624.31 365.454 635.015 352.871 647.61C335.701 664.949 315.192 677.472 295.669 688.486C277.08 698.884 256.649 704.871 234.874 706.387C222.641 707.176 209.448 706.025 194.627 702.896L190.117 701.908C164.416 696.423 137.923 690.711 111.382 687.281C96.9773 685.431 85.518 682.279 75.2819 677.408L76.1087 675.576C86.1715 680.347 97.4076 683.485 111.589 685.322C138.217 688.802 164.76 694.427 190.497 700.049L195.008 701.037C209.605 704.153 222.574 705.29 234.721 704.451C256.137 702.959 276.344 696.958 294.697 686.77C314.17 675.842 334.492 663.442 351.475 646.227C363.872 633.755 372.031 623.223 377.948 611.975C385.779 597.212 388.869 580.059 387.099 562.525C385.684 548.776 382.37 535.316 377.778 519.27C374.53 507.695 370.613 496.08 366.855 484.789C364.688 478.341 362.448 471.621 360.382 465.001C353.459 442.991 341.585 424.357 325.216 409.71C309.402 395.5 291.039 385.706 275.01 378.068C263.648 372.548 251.763 367.533 240.225 362.719C237.34 361.516 234.369 360.262 231.484 359.058C219.252 353.844 206.141 348.353 192.917 343.258C187.617 341.238 181.954 340.046 176.501 339.092C166.127 337.259 157.904 339.902 152.192 346.996C146.479 354.091 141.223 361.795 136.623 369.762C130.923 379.635 125.866 389.994 120.382 401.492C117.365 407.718 114.508 414.267 111.801 420.556C110.397 423.787 108.943 427.105 107.54 430.336C101.225 444.472 98.4922 459.407 96.4776 477.296C96.0266 481.077 95.7123 484.822 95.3113 488.516C94.0379 501.522 92.7742 515.111 88.7223 528.129C84.657 541.37 79.7998 551.383 73.7471 559.666C69.0177 566.058 63.5955 572.05 58.3598 577.918C55.1938 581.402 52.0644 585.022 48.935 588.642C44.7323 593.721 39.9565 599.393 38.6484 606.259C34.5337 627.786 40.7411 646.034 57.074 660.545C61.2006 664.198 65.7003 667.604 70.0769 670.823C72.0053 672.283 74.107 673.843 76.1221 675.353L74.6025 676.785Z" fill="#F2F6F7"/>
    <path d="M242.243 603.023C241.81 602.773 241.427 602.436 240.994 602.186C240.178 601.6 239.312 601.1 238.546 600.427C226.692 591.158 221.995 579.093 224.099 563.449C226.14 548.115 233.982 536.131 248.801 525.865C255.905 520.96 269.827 522.646 276.528 527.439C292.999 538.912 299.473 555.698 295.978 577.351C294.64 585.47 288.698 591.161 282.783 596.406C272.522 605.378 259.525 607.689 243.196 603.573L243.853 600.835L242.243 603.023ZM273.743 529.064C267.074 525.214 255.591 524.704 250.539 528.254C236.417 538.114 228.974 549.405 227.037 563.76C225.137 578.251 229.441 589.396 240.392 598.029C241.122 598.565 241.938 599.152 242.717 599.602C243.15 599.852 243.533 600.188 243.966 600.438C259.59 604.378 271.32 602.259 280.871 593.917C286.45 589.055 291.918 583.783 293.067 576.594C296.458 555.92 290.523 540.6 274.832 529.578C274.522 529.514 274.089 529.264 273.743 529.064Z" fill="#F2F6F7"/>
    <path d="M224.502 626.151L223.983 625.851C222.041 624.615 220.149 623.291 218.344 622.018C199.188 608.996 191.195 590.64 193.762 565.795C195.212 552.083 199.241 538.705 206.025 524.955C209.128 518.779 213.321 513.117 216.964 508.407L217.501 507.678C224.586 498.605 231.909 489.323 242.491 483.193C255.213 475.758 267.05 474.855 277.643 480.509C285.587 484.749 291.771 491.438 295.594 496.416C305.398 509.235 312.007 520.788 316.271 532.603C322.226 549.089 324.057 564.118 321.797 578.632C320.762 585.425 318.141 591.764 314.135 597.303C304.599 610.619 294.066 619.664 281.787 624.93C273.697 628.342 264.712 629.506 255.913 630.545L255.777 630.582C246.072 631.792 236.031 630.383 225.122 626.278L225.812 624.483C236.461 628.437 246.192 629.783 255.537 628.596L255.674 628.56C264.25 627.506 273.185 626.43 281.002 623.091C292.82 618.021 303.204 609.236 312.503 596.129C316.322 590.714 318.743 584.721 319.801 578.288C322.085 564.134 320.327 549.378 314.395 533.252C310.168 521.573 303.682 510.208 294.001 497.575C290.302 492.783 284.29 486.195 276.693 482.155C266.707 476.851 255.589 477.707 243.427 484.772C233.217 490.656 226.032 499.902 218.96 508.751L218.423 509.481C214.83 514.104 210.687 519.679 207.684 525.682C201 539.259 197.121 552.377 195.684 565.865C193.121 589.905 200.881 607.664 219.394 620.199C221.285 621.523 223.141 622.709 225.033 624.033L225.552 624.332L224.502 626.151Z" fill="#F2F6F7"/>
    <path d="M-123.305 594.97C-142.271 584.02 -151.13 565.165 -147.368 542.049C-143.452 517.867 -126.83 503.677 -112.722 494.04C-96.7836 483.034 -78.1494 479.359 -60.1117 475.917L-56.4868 475.238C-50.7263 474.061 -44.8425 473.07 -39.0954 472.116C-28.3208 470.253 -17.1864 468.368 -6.58138 465.6C9.84752 461.344 24.5685 453.446 37.1719 442.017C54.2706 426.601 69.8678 408.586 83.3534 388.428C92.606 374.602 100.144 358.746 106.243 339.982C109.374 330.358 111.676 320.371 113.965 310.608C114.939 306.32 116.013 301.86 117.087 297.399C117.214 296.78 117.391 296.073 117.518 295.454C118.945 289.581 120.436 283.398 124.429 278.082C128.522 272.593 134.703 268.887 141.48 267.95C147.4 267.096 153.136 268.56 157.636 271.966C169.727 281.025 180.181 289.717 189.383 298.379C202.106 310.343 217.463 323.943 235.24 334.553C243.33 339.34 251.558 344.09 259.612 348.74C264.375 351.49 269.101 354.103 273.814 356.94C278.058 359.39 282.475 361.94 286.682 364.253C296.864 370.017 307.393 375.98 317.262 382.486C342.999 399.308 360.34 418.673 369.974 441.787C376.086 456.401 381.041 471.617 385.435 485.008C390.084 499.355 394.68 514.594 399.795 533.136C405.325 552.956 406.528 572.473 403.481 591.151C401.414 603.93 396.81 615.706 389.59 627.01C375.114 649.483 356.175 668.686 333.196 684.287C315.033 696.548 298.179 707.14 281.665 716.543C265.474 725.786 247.129 731.36 227.213 733.256C216.492 734.225 204.552 733.105 189.708 729.616C167.529 724.432 144.234 719.18 118.62 713.745C115.435 713.061 112.114 712.414 109.015 711.78C97.899 709.634 86.4727 707.425 75.6768 702.924C75.1938 702.761 74.5242 702.721 73.8546 702.68C73.4082 702.654 72.9618 702.627 72.4288 702.55L72.7225 700.641C73.1189 700.755 73.4787 700.731 73.9252 700.758C74.7314 700.762 75.6242 700.815 76.4536 701.179C87.0763 705.58 98.416 707.739 109.446 709.834C112.681 710.432 115.865 711.116 119.187 711.763C144.887 717.248 168.096 722.45 190.275 727.634C204.896 731.11 216.613 732.216 227.11 731.234C246.753 729.411 264.825 723.91 280.742 714.74C297.256 705.337 314.11 694.745 332.138 682.521C354.88 667.13 373.719 648.1 387.958 625.837C395.164 614.756 399.619 603.24 401.622 590.771C404.606 572.402 403.39 553.109 397.932 533.561C392.818 515.02 388.222 499.78 383.522 485.52C379.129 472.13 374.173 456.913 368.098 442.436C358.574 419.732 341.529 400.654 316.052 383.982C306.183 377.475 295.654 371.512 285.558 365.799C281.315 363.349 276.935 360.935 272.605 358.435C267.841 355.685 263.165 352.985 258.402 350.235C250.434 345.635 242.07 340.922 234.03 336.049C216.13 325.252 200.686 311.602 187.877 299.587C178.675 290.926 168.394 282.334 156.303 273.275C152.236 270.119 146.983 268.818 141.559 269.613C135.366 270.54 129.608 273.913 125.852 279.019C122.145 284.038 120.731 289.688 119.34 295.698C119.163 296.404 119.036 297.023 118.859 297.73C117.749 302.054 116.761 306.564 115.787 310.851C113.498 320.615 111.146 330.689 107.965 340.399C101.766 359.337 94.1783 375.279 84.7757 389.364C71.19 409.696 55.5429 427.797 38.2575 443.336C25.4176 454.976 10.3733 463.033 -6.27877 467.275C-17.0204 470.08 -28.1548 471.966 -39.016 473.778C-44.6765 474.782 -50.5602 475.773 -56.2708 476.864L-59.8956 477.542C-77.7102 480.998 -96.0711 484.6 -111.773 495.396C-125.508 504.786 -141.757 518.73 -145.582 542.156C-150.008 569.622 -135.876 590.945 -107.795 599.306C-95.4194 602.872 -81.8039 603.689 -69.7508 604.412C-56.4085 605.303 -38.9655 607.29 -22.827 615.338C-22.2208 615.688 -21.5646 615.951 -20.9584 616.301C-17.4309 617.991 -13.9534 619.768 -11.2491 622.484C-4.38526 629.796 3.73741 638.527 10.8637 648.184C29.199 672.626 47.7336 688.523 69.1986 698.145C70.1147 698.558 70.8807 699.231 71.6967 699.818C71.9931 700.105 72.3395 700.305 72.6359 700.591L71.4627 702.223C71.1663 701.937 70.7333 701.687 70.4369 701.4C69.7575 700.777 69.1147 700.29 68.4584 700.027C46.6836 690.342 27.8892 674.295 9.3941 649.529C2.21782 639.959 -5.73166 631.328 -12.5955 624.016C-14.9534 621.5 -18.3943 619.86 -21.7486 618.27C-22.3548 617.92 -23.0111 617.657 -23.6173 617.307C-39.4959 609.409 -56.6291 607.485 -69.7482 606.608C-81.8879 605.834 -95.64 605.054 -108.189 601.388C-113.688 599.714 -118.801 597.57 -123.305 594.97Z" fill="#F2F6F7"/>
    <path d="M-132.698 609.639C-144.995 602.539 -154.673 592.102 -161.125 578.677C-164.911 570.834 -165.824 561.415 -165.882 554.916C-166.05 539.807 -163.814 527.935 -158.893 517.612C-154.123 507.549 -147.384 498.276 -138.876 490.14C-126.119 477.645 -110.078 468.661 -91.4003 463.51C-86.6192 462.229 -81.9247 460.898 -77.1936 459.704C-62.3039 455.714 -47.0044 451.614 -32.2344 446.632C-3.01745 436.827 20.8971 422.805 40.8155 403.706C55.7384 389.458 65.5169 377.322 72.7937 364.318C78.9705 353.219 83.7616 341.321 87.0171 328.882C91.0932 313.222 92.2445 297.028 93.3689 281.281C93.61 277.263 93.9012 273.159 94.2789 269.104C95.5132 253.767 100.82 242.974 110.927 235.069C119.901 228.125 129.959 228.505 139.393 229.564C147.538 230.456 155.213 233.963 163.556 240.512C176.992 251.041 187.799 264.324 198.235 277.047C201.406 280.955 204.663 284.914 207.97 288.787C222.493 305.832 234.919 317.509 248.198 326.908C254.95 331.614 262.211 336.038 269.212 340.311C272.8 342.497 276.56 344.784 280.184 347.107C285.453 350.38 290.809 353.704 295.992 356.927C308.436 364.573 321.313 372.47 333.48 380.996C356.233 396.787 372.517 416.582 382.014 439.732C387.327 452.73 391.821 465.947 396.923 481.71C402.354 498.702 407.26 514.005 411.233 529.924C415.242 545.98 418.638 563.298 417.07 581.214C415.365 599.167 411.692 613.328 405.349 625.716C401.345 633.45 396.549 640.958 390.936 647.879C379.211 662.587 366.291 675.566 352.598 686.482C329.359 704.934 303.331 722.816 270.596 742.715C253.532 753.07 238.658 759.032 223.739 761.273C212.978 762.911 203.244 762.372 194.896 759.631C185.272 756.5 175.675 752.922 166.388 749.407C159.38 746.747 152.148 744.072 145.039 741.585C139.553 739.688 133.78 738.087 128.267 736.636C125.355 735.878 122.271 735.021 119.323 734.127C117.031 733.497 114.789 732.78 112.497 732.15C105.362 730.108 97.9665 727.917 90.8079 725.516C83.7359 723.165 76.6907 720.368 69.7687 717.757C66.6608 716.54 63.4163 715.36 60.3085 714.143L61.3254 711.381C64.4833 712.512 67.6778 713.779 70.7857 714.996C77.5711 717.643 84.6663 720.354 91.7383 722.705C98.8969 725.106 106.205 727.247 113.341 729.288C115.633 729.919 117.875 730.636 120.166 731.266C123.114 732.16 126.113 732.967 129.024 733.724C134.624 735.225 140.397 736.826 145.97 738.773C153.165 741.311 160.397 743.985 167.405 746.646C176.606 750.11 186.203 753.688 195.74 756.769C203.691 759.397 212.979 759.91 223.244 758.331C237.803 756.113 252.354 750.311 269.044 740.202C301.642 720.34 327.57 702.632 350.673 684.216C364.179 673.423 376.913 660.568 388.538 646.033C393.964 639.235 398.747 631.95 402.564 624.339C408.708 612.298 412.267 598.533 413.995 580.94C415.673 563.434 412.213 546.426 408.277 530.643C404.341 514.861 399.436 499.558 394.004 482.565C388.989 466.852 384.445 453.722 379.219 440.774C369.918 418.083 353.966 398.712 331.77 383.357C319.64 374.968 306.813 366.985 294.456 359.388C289.273 356.165 283.917 352.842 278.647 349.569C275.024 347.246 271.35 345.009 267.676 342.772C260.674 338.499 253.413 334.076 246.488 329.27C232.949 319.721 220.4 307.857 205.703 290.711C202.397 286.839 199.103 282.744 195.883 278.921C185.533 266.249 174.763 253.102 161.673 242.774C153.713 236.561 146.608 233.268 138.996 232.452C129.735 231.493 120.756 231.044 112.716 237.371C103.268 244.734 98.3613 254.834 97.1806 269.278C96.8028 273.333 96.5117 277.437 96.2706 281.455C95.1827 297.339 94.0181 313.756 89.792 329.676C86.4365 342.288 81.582 354.496 75.3052 365.768C67.8784 379.031 57.8633 391.378 42.7904 405.885C22.5854 425.281 -1.70239 439.549 -31.3291 449.464C-46.1858 454.396 -61.6219 458.532 -76.5115 462.522C-81.2926 463.803 -85.9371 465.048 -90.7182 466.329C-108.9 471.42 -124.431 480.12 -136.851 492.233C-145.036 500.209 -151.575 509.136 -156.195 518.939C-161.003 528.865 -163.075 540.255 -162.88 554.916C-162.759 561.106 -161.955 570.115 -158.316 577.412C-148.631 597.437 -132.328 610.199 -109.825 615.223C-100.941 617.235 -91.8065 618.814 -82.9819 620.329C-73.8475 621.908 -64.5398 623.587 -55.3456 625.662C-47.1674 627.497 -38.7232 630.871 -30.1727 635.461C-17.1922 642.378 -7.008 653.338 2.04053 663.066C15.595 677.589 28.7773 689.357 42.5631 699.279C46.6432 702.212 51.0466 704.985 55.3267 707.572C57.2685 708.808 59.2604 709.958 61.1523 711.282L59.5656 713.83C57.6238 712.593 55.7685 711.406 53.7767 710.256C49.5465 707.583 45.0066 704.847 40.8399 701.864C26.9674 691.891 13.5754 679.887 -0.0156576 665.227C-8.94098 655.687 -19.002 644.913 -31.5495 638.246C-39.9268 633.755 -48.1112 630.531 -55.9796 628.76C-65.0872 626.735 -74.3948 625.056 -83.5293 623.477C-92.4405 621.912 -101.575 620.333 -110.546 618.271C-118.674 616.35 -126.116 613.439 -132.698 609.639Z" fill="#F2F6F7"/>
    <path d="M181.399 815.809C174.894 811.476 170.345 805.154 166.006 799.07C165.18 797.9 164.354 796.73 163.478 795.647C155.649 785.007 147.574 773.994 135.91 766.798C130.987 763.725 124.541 759.888 117.61 756.694C111.074 753.614 104.302 750.743 97.8401 747.936C91.378 745.129 84.606 742.258 78.1572 739.228C50.7398 726.516 25.0699 708.578 -0.298213 684.117L-1.65707 682.87C-11.4386 673.413 -21.5165 663.668 -33.3677 656.595C-45.3054 649.472 -56.7076 644.621 -68.4535 641.765C-77.1513 639.63 -86.0357 637.619 -94.6603 635.757C-101.513 634.225 -108.538 632.594 -115.427 630.926C-133.852 626.639 -149.427 617.416 -161.856 603.543C-170.718 593.692 -176.068 583.56 -178.24 572.722C-181.274 557.576 -180.796 542.148 -176.759 524.156C-172.555 504.874 -162.309 487.927 -145.247 472.375C-134.349 462.5 -120.748 455.342 -102.33 450.041C-97.9086 448.783 -93.5739 447.475 -89.2026 446.304C-76.0754 442.567 -62.5383 438.72 -49.3709 434.313C-14.7631 422.771 12.9201 406.422 35.4081 384.072C44.266 375.329 51.7151 365.427 57.7418 354.588C69.2088 333.727 74.5065 311.151 73.9017 285.399C73.6324 273.465 73.5908 257.737 75.9812 241.797C77.8743 228.918 86.3822 220.782 93.4901 215.071C107.456 204.081 123.977 204.266 136.659 205.7C143.205 206.361 148.595 207.626 153.289 209.296C164.804 213.751 175.313 221.55 185.27 233.303C194.351 243.974 202.56 255.756 210.572 267.079L212.137 269.369C229.959 294.9 247.54 313.249 267.411 327.031C276.574 333.36 286.16 339.357 295.486 345.203C297.601 346.54 299.716 347.876 301.831 349.213L303.513 350.3C324.664 363.666 346.594 377.482 364.658 395.994C375.462 407.081 383.353 420.413 389.466 432.025C395.542 443.501 399.27 456.045 402.887 468.179C403.816 471.371 404.867 474.75 405.882 477.992C410.432 492.512 416.02 510.633 421.064 528.095C428.013 552.66 429.381 576.891 425.246 600.253C423.033 612.486 418.838 624.151 412.398 635.906C402.531 653.996 388.687 671.175 370.018 688.11C359.781 697.442 348.814 706.236 338.134 714.735C332.109 719.57 325.761 724.566 319.723 729.624C309.202 738.446 298.582 747.441 288.298 756.053C275.276 767.009 261.779 778.385 248.433 789.501C237.876 798.187 225.417 807.967 210.506 813.792C200.914 817.607 191.409 818.47 182.178 816.259L182.608 814.313C191.579 816.375 200.451 815.608 209.771 811.867C224.358 806.201 236.681 796.457 247.138 787.945C260.434 776.916 273.93 765.54 287.003 754.497C297.337 745.798 307.957 736.803 318.427 728.068C324.466 723.009 330.814 718.014 336.889 713.092C347.519 704.68 358.485 695.885 368.673 686.64C387.155 669.829 400.899 652.823 410.666 634.906C417.006 623.324 421.101 611.832 423.3 599.823C427.372 576.77 425.991 552.763 419.152 528.608C414.194 511.196 408.556 493.161 404.006 478.641C402.991 475.399 402.026 472.07 401.011 468.828C397.43 456.831 393.653 444.373 387.7 433.084C381.574 421.695 373.856 408.463 363.175 397.563C345.371 379.2 323.527 365.434 302.327 352.155L300.645 351.068C298.53 349.732 296.415 348.395 294.3 347.058C284.973 341.212 275.387 335.216 266.188 328.75C246.193 314.781 228.439 296.332 210.407 270.564L208.842 268.275C200.917 257.002 192.795 245.269 183.664 234.685C173.916 223.169 163.668 215.52 152.499 211.265C148.028 209.608 142.725 208.394 136.402 207.745C124.029 206.375 108.041 206.267 94.5989 216.75C87.641 222.202 79.5564 230.005 77.8401 242.177C75.4996 258.031 75.5046 273.622 75.824 285.469C76.4519 311.582 71.1275 334.604 59.4239 355.675C53.2971 366.687 45.7481 376.762 36.8402 385.591C14.1656 408.065 -13.8042 424.71 -48.6852 436.326C-61.8527 440.732 -75.4763 444.529 -88.6036 448.266C-93.0248 449.524 -97.3961 450.695 -101.731 452.003C-119.876 457.231 -133.241 464.18 -143.814 473.894C-160.503 489.2 -170.55 505.801 -174.727 524.636C-178.614 542.368 -179.078 557.573 -176.205 572.396C-174.106 582.961 -168.865 592.684 -160.3 602.248C-148.168 615.834 -132.802 624.821 -114.824 629.081C-107.935 630.749 -100.859 632.293 -94.1433 633.861C-85.5687 635.81 -76.5977 637.871 -67.8499 639.92C-56.0174 642.825 -44.3921 647.69 -32.3311 654.999C-20.2201 662.223 -10.1056 672.104 -0.237452 681.612L1.1214 682.858C26.3663 707.133 51.813 725.057 79.0572 737.669C85.506 740.7 92.278 743.57 98.7401 746.377C105.289 749.235 112.061 752.105 118.51 755.135C125.528 758.379 132.06 762.266 136.983 765.339C148.944 772.822 157.192 783.935 165.144 794.762C165.97 795.931 166.796 797.101 167.672 798.184C172.047 804.405 176.313 810.217 182.558 814.4L181.399 815.809Z" fill="#F2F6F7"/>
    <path d="M208.795 643.756C207.373 642.82 205.814 641.92 204.255 641.02C200.841 638.933 197.29 636.883 194.126 634.364C188.058 629.474 182.719 625.122 178.34 619.707C165.918 604.221 166.174 585.778 168.118 569.811C169.755 555.976 173.068 541.838 178.146 526.642C186.87 500.732 200.703 477.773 220.495 456.291C234.056 441.603 251.272 436.185 271.732 440.146C276.206 440.997 280.959 443.164 285.956 446.511C298.446 454.877 308.217 466.753 316.896 484.12C325.489 501.436 331.977 517.999 336.889 534.691C343.095 555.942 343.596 574.475 338.423 591.234C336.422 597.699 332.18 603.448 328.037 609.024L326.964 610.483C317.155 623.872 303.376 634.738 285.963 642.698C273.248 648.521 259.864 651.302 246.236 650.708C231.714 650.06 220.101 647.974 209.538 644.07L210.555 641.308C220.771 645.013 232.161 647.085 246.323 647.756C259.506 648.323 272.429 645.739 284.734 640.026C301.737 632.176 315.093 621.643 324.652 608.686L325.725 607.227C329.632 601.862 333.774 596.286 335.612 590.303C340.721 573.854 340.24 556.487 334.157 535.423C329.368 518.918 322.867 502.578 314.361 485.312C305.964 468.455 296.49 456.865 284.469 448.885C279.819 445.739 275.412 443.772 271.335 443.035C251.89 439.314 235.631 444.476 222.794 458.31C203.251 479.359 189.568 502.059 181.095 527.535C176.066 542.645 172.816 556.473 171.193 570.085C169.326 585.519 169.074 603.156 180.829 617.795C184.998 622.974 190.251 627.276 196.059 632.015C199.05 634.435 202.514 636.435 205.842 638.472C207.314 639.322 208.91 640.358 210.382 641.208L208.795 643.756Z" fill="#F2F6F7"/>
    <path d="M-74.1028 773.95C-72.5348 767.234 -74.6346 759.671 -80.1922 751.497C-86.6989 741.967 -96.2546 734.718 -110.355 728.54C-114.898 726.61 -119.528 724.63 -123.985 722.749C-134.125 718.512 -144.698 714.024 -154.797 709.117C-184.23 694.895 -207.211 677.701 -224.841 656.437C-235.118 644.037 -242.68 631.935 -248.02 619.383C-250.843 612.673 -253.193 605.543 -255.506 598.549C-256.118 596.81 -256.594 595.034 -257.207 593.295L-258.571 587.658C-259.878 580.321 -261.098 573.035 -262.318 565.749C-265.653 545.925 -269.121 525.332 -273.249 505.282C-276.127 491.266 -280.033 477.232 -283.88 463.695C-284.845 460.367 -285.81 457.038 -286.639 453.673C-290.349 440.099 -290.917 425.684 -288.148 410.886C-285.975 399.323 -278.726 389.768 -272.387 381.188C-261.681 367.046 -248.322 355.706 -232.558 347.603C-221.319 341.736 -209.338 339.185 -192.431 338.9C-177.682 338.755 -123.042 346.515 -122.509 346.592L-122.422 346.642C-98.3661 348.175 -77.9659 343.441 -60.1289 332.146C-50.3023 325.926 -42.9971 317.673 -37.7399 306.968C-27.4621 285.766 -30.8901 264.503 -35.4984 246.485C-37.5714 238.476 -39.8175 230.366 -41.9905 222.53C-44.566 213.191 -47.2148 203.579 -49.6038 194.116C-52.5784 182.469 -52.5112 170.152 -49.5351 156.397C-48.9279 153.746 -47.4011 150.701 -44.8681 147.314C-35.236 134.631 -23.5899 126.459 -10.3394 122.909C5.45645 118.749 21.522 115.323 37.0911 111.957C64.4178 106.025 88.8402 97.7244 111.638 86.6379C125.062 80.1858 140.097 71.5454 149.813 56.7167C153.709 50.768 156.24 45.1852 157.381 39.6087L154.61 38.0087C153.655 43.462 151.211 49.0947 147.315 55.0435C137.949 69.266 123.424 77.6233 110.323 83.9156C87.7118 94.879 63.5626 103.107 36.3724 109.001C20.8033 112.368 4.73781 115.794 -11.1947 119.99C-25.2148 123.673 -37.3341 132.265 -47.4028 145.504C-50.2724 149.275 -51.9492 152.579 -52.6331 155.763C-55.7092 169.691 -55.6935 182.864 -52.6957 194.872C-50.3567 204.421 -47.6213 214.083 -45.0823 223.285C-42.9094 231.121 -40.6632 239.231 -38.5903 247.241C-34.0417 264.762 -30.7102 285.392 -40.5746 305.677C-45.5817 315.95 -52.5504 323.82 -61.9537 329.707C-79.3176 340.582 -99.0848 345.22 -122.471 343.727C-125.446 343.279 -177.955 335.827 -192.84 336.008C-209.97 336.279 -222.771 339.05 -234.283 344.99C-250.42 353.34 -264.153 364.926 -275.108 379.501C-281.634 388.204 -289.083 398.106 -291.432 410.376C-294.315 425.569 -293.774 440.431 -289.867 454.465C-288.902 457.793 -287.987 461.208 -287.022 464.537C-283.262 478.024 -279.305 491.971 -276.514 505.937C-272.113 525.914 -268.595 546.421 -265.26 566.244C-264.04 573.53 -262.733 580.867 -261.476 588.29L-260.125 594.15L-260.089 594.287C-259.476 596.026 -258.914 597.852 -258.301 599.591C-255.988 606.585 -253.638 613.715 -250.779 620.562C-245.366 633.387 -237.594 645.725 -227.107 658.362C-209.181 679.912 -185.989 697.343 -156.074 711.728C-145.888 716.685 -135.352 721.036 -125.176 725.411C-120.719 727.291 -116.088 729.271 -111.545 731.202C-97.9643 737.08 -88.7051 744.042 -82.618 753.099C-77.5166 760.663 -75.6364 767.406 -76.9276 773.243C-78.192 778.633 -82.2312 783.229 -88.9587 787.081C-95.2264 790.737 -101.887 793.474 -109.127 795.414L-105.576 797.464C-99.2291 795.47 -93.1649 792.967 -87.457 789.68C-80.0331 785.422 -75.5939 780.133 -74.1028 773.95Z" fill="#F2F6F7"/>
    <path d="M397.537 1059.65C399.767 1057.58 402.032 1055.66 404.262 1053.6C417.562 1041.76 431.285 1029.59 442.6 1015C451.582 1003.44 458.288 993.222 461.877 981.207C464.268 973.465 465.383 965.333 466.335 957.685C468.997 936.474 466.708 915.638 464 894.329C460.859 869.768 457.516 843.359 455.056 816.419C453.377 798.129 455.135 779.283 460.032 760.402C464.561 743.156 471.643 726.691 478.474 710.659C480.454 706.029 482.585 701.139 484.529 696.372C495.074 670.706 500.23 643.776 500.176 614.07C500.125 586.558 497.393 556.691 491.764 522.841C487.378 496.637 481.09 468.528 472.398 437.182C463.78 406.11 448.284 379.15 426.266 357.085C414.733 345.461 402.217 334.54 390.22 323.919C386.094 320.266 381.881 316.563 377.754 312.911C363.3 299.947 351.437 287.093 341.327 273.404C338.553 269.609 336.402 265.134 334.375 260.846L333.982 259.926C325.319 241.53 320.349 221.34 315.561 201.833L315.451 201.423C311.079 183.195 306.114 167.395 300.485 152.945C296.793 143.539 292.332 134.266 287.981 125.403C285.793 120.791 283.52 116.13 281.296 111.382L276.879 108.832C279.519 114.859 282.432 120.814 285.309 126.631C289.66 135.494 294.085 144.631 297.69 153.987C303.282 168.301 308.124 183.914 312.546 202.055L312.656 202.465C317.48 222.109 322.487 242.436 331.31 261.155L331.703 262.074C333.853 266.549 335.954 271.111 338.938 275.143C349.084 288.968 361.157 302.058 375.785 315.122C379.911 318.775 384.124 322.478 388.251 326.13C400.247 336.752 412.677 347.623 424.124 359.197C445.758 380.925 461.058 407.425 469.48 438.037C478.085 469.333 484.422 497.356 488.772 523.423C494.364 557.136 497.147 586.917 497.211 614.205C497.242 643.552 492.199 670.086 481.767 695.355C479.823 700.122 477.743 704.925 475.713 709.642C468.831 725.761 461.736 742.449 457.157 759.782C452.06 779.009 450.325 798.215 452.028 816.865C454.438 843.891 457.781 870.3 460.921 894.861C463.643 915.947 465.895 936.646 463.21 957.497C462.308 965.059 461.156 973.054 458.915 980.536C455.353 992.105 448.797 1002.06 440.052 1013.41C428.887 1027.75 415.3 1039.88 402.05 1051.63C399.734 1053.64 397.555 1055.61 395.326 1057.68C388.314 1064.02 382.209 1070.2 376.86 1076.46L379.458 1077.96C384.807 1071.7 390.676 1065.73 397.537 1059.65Z" fill="#F2F6F7"/>
</svg>
