<svg width="723" height="1118" viewBox="0 0 723 1118" fill="none" xmlns="http://www.w3.org/2000/svg">
    <g clip-path="url(#clip0)">
        <path d="M160.061 877.93C167.589 867.751 178.498 861.92 187.293 858.021C200.787 851.974 214.289 854.173 225.276 864.427C230.14 868.856 234.094 874.421 237.994 879.855C239.772 882.336 241.696 884.988 243.696 887.455C249.17 894.309 256.002 902.059 265.417 907.531C272.829 911.836 281.342 912.483 289.343 909.444C298.168 905.991 305.02 898.457 308.101 888.796C310.886 880.096 309.719 871.254 308.291 864.581C304.407 845.162 294.587 827.481 277.971 810.743C267.217 799.936 259.14 788.952 253.119 777.204C249.362 769.878 247.215 761.818 247.053 753.941C246.679 738.817 250.385 723.019 258.768 704.089C265.666 688.439 274.815 673.626 283.639 659.327C287.325 653.391 291.088 647.271 294.628 641.165C302.759 627.226 311.96 610.482 318.403 592.039C322.622 579.927 325.097 566.542 326.009 551.198C327.723 521.549 322.543 492.042 310.13 460.908C302.277 441.124 293.44 421.361 284.87 402.252L283.868 399.988C277.301 385.408 271.125 374.029 264.33 364.126C249.65 342.777 229.591 325.46 201.335 309.581C190.536 303.528 179.437 297.674 168.668 292.067C158.875 286.978 148.751 281.642 138.981 276.238C118.559 264.951 100.878 249.717 86.3761 231.046C80.5433 223.499 75.0736 215.345 69.8953 207.53C66.7087 202.722 63.3764 197.743 59.9667 192.949C51.0633 180.316 42.7096 169.216 31.6029 160.539C15.2923 147.724 -1.39034 141.478 -19.5128 141.243C-43.0197 140.916 -66.1243 145.313 -90.005 154.916C-102.758 159.973 -112.444 165.992 -120.673 173.708C-129.28 181.807 -134.317 189.67 -135.901 197.573C-138.107 208.252 -137.602 219.961 -134.245 235.47C-132.612 243.205 -130.796 251.018 -128.994 258.608C-127.61 264.612 -126.212 270.839 -124.776 276.974C-120.659 295.839 -123.298 315.555 -132.843 337.251C-139.044 351.242 -149.403 364.028 -165.417 377.369C-185.425 394.021 -209.593 407.407 -237.373 416.999C-245.389 419.815 -253.681 422.515 -261.673 425.016C-271.589 428.227 -281.952 431.468 -291.97 435.178C-311.051 442.133 -324.299 456.634 -331.375 478.392C-337.566 497.267 -338.62 516.564 -338.855 534.687C-339.015 550.563 -338.575 569.403 -333.328 588.418C-327.083 610.997 -315.079 629.161 -297.662 642.44C-280.706 655.526 -265.08 662.738 -248.372 665.308C-245.112 665.809 -241.837 666.534 -238.654 667.22C-233.88 668.248 -228.883 669.262 -223.877 669.738C-208.95 671.125 -193.619 673.876 -177.146 678.299C-161.45 682.504 -146.285 689.523 -132.058 699.293C-114.73 711.234 -97.0568 723.645 -77.995 737.398C-67.2628 745.158 -57.0154 753.041 -49.2057 763.37C-39.1424 776.598 -38.8062 788.453 -47.9847 802.82C-51.971 808.955 -57.403 814.917 -63.8787 820.007C-70.1848 824.951 -77.2045 829.27 -84.0546 833.443C-86.3817 834.852 -88.7474 836.353 -91.0744 837.762C-94.6423 840.06 -98.4482 842.149 -102.492 844.03L-98.896 845.54C-95.5991 843.888 -92.4866 842.158 -89.5198 840.258C-87.1928 838.85 -84.9193 837.31 -82.5923 835.901C-75.7034 831.635 -68.5915 827.355 -62.208 822.227C-55.5626 816.991 -49.7913 810.738 -45.6889 804.326C-35.7692 788.969 -36.1553 775.684 -47.0004 761.476C-55.1015 750.808 -65.5332 742.848 -76.4112 734.918C-95.473 721.165 -113.108 708.662 -130.528 696.682C-144.993 686.704 -160.434 679.568 -176.538 675.3C-193.234 670.892 -208.657 668.103 -223.768 666.638C-228.551 666.148 -233.548 665.134 -238.23 664.144C-241.413 663.458 -244.819 662.787 -248.079 662.286C-264.288 659.818 -279.545 652.76 -296.117 640.052C-312.928 627.136 -324.625 609.534 -330.694 587.571C-335.873 568.91 -336.337 550.386 -336.124 534.64C-335.913 516.833 -334.845 497.759 -328.808 479.253C-322.028 458.456 -309.366 444.576 -291.162 437.904C-281.183 434.285 -270.912 431.006 -260.996 427.795C-252.965 425.202 -244.712 422.594 -236.566 419.725C-208.484 409.933 -183.962 396.479 -163.746 379.589C-147.262 365.904 -136.656 352.787 -130.3 338.428C-120.523 316.178 -117.836 295.831 -122.089 276.258C-123.434 270.162 -124.924 263.896 -126.307 257.892C-128.017 250.341 -129.834 242.529 -131.466 234.793C-134.793 219.73 -135.231 208.375 -133.087 198.104C-131.513 190.739 -126.838 183.483 -118.701 175.729C-110.812 168.304 -101.334 162.523 -89.0276 157.496C-65.4475 148.092 -42.7503 143.632 -19.5975 144.027C-1.92125 144.292 13.7085 150.205 29.7277 162.68C40.5043 171.11 48.7123 182.041 57.47 194.503C60.8798 199.298 64.2121 204.276 67.3987 209.085C72.6692 216.938 78.1388 225.092 84.0252 232.77C98.7263 251.742 116.698 267.315 137.49 278.757C147.352 284.2 157.383 289.497 167.269 294.625C178.038 300.232 189.137 306.086 199.843 312.1C227.677 327.693 247.406 344.763 261.833 365.68C268.483 375.414 274.644 386.57 281.158 401.019L282.159 403.283C290.729 422.392 299.566 442.155 307.366 461.808C319.526 492.511 324.638 521.664 323.026 550.813C322.099 565.934 319.739 579.042 315.637 590.877C309.271 609.137 300.148 625.696 292.056 639.543C288.516 645.648 284.752 651.768 281.105 657.612C272.242 672.003 263.093 686.816 256.08 702.743C247.541 722.042 243.773 738.247 244.084 753.779C244.276 762.102 246.491 770.516 250.461 778.366C256.59 790.375 264.905 801.568 275.897 812.583C292.036 828.905 301.643 846.062 305.444 864.904C306.711 871.184 307.849 879.58 305.335 887.634C302.51 896.427 296.376 903.286 288.336 906.418C281.213 909.175 273.645 908.6 267.025 904.735C258.032 899.549 251.438 892.007 246.11 885.323C244.201 882.895 242.37 880.282 240.592 877.8C236.6 872.328 232.501 866.593 227.49 861.995C215.552 850.907 200.92 848.559 186.248 855.087C177.152 859.185 165.719 865.23 157.867 875.924C151.496 884.637 147.508 894.134 145.724 905.098C143.235 920.322 144.234 934.732 147.065 948.394L150.384 949.788C147.223 935.879 146.064 921.076 148.63 905.668C150.143 895.349 153.976 886.221 160.061 877.93Z" fill="#F2F6F7"/>
        <path d="M119.863 846.841C125.484 836.295 133.785 827.634 141.878 819.21C144.185 816.816 146.491 814.423 148.745 811.898C160.534 799.062 170.039 786.242 177.715 772.871C181.008 767.096 184.155 761.15 187.225 755.39C192.236 745.781 197.495 735.841 203.574 726.789C215.199 709.437 228.517 691.927 243.058 674.606C262.013 652.197 277.274 632.901 290.05 611.26C302.864 589.526 309.617 570.345 311.025 550.98C312.884 526.923 310.613 505.471 304.346 485.268C297.477 463.403 288.333 443.078 280.396 426.079C272.833 409.996 265.056 393.39 256.169 377.619C243.264 354.629 223.576 336.166 196.049 321.136C175.641 310.071 154.977 299.875 135.434 290.367C109.039 277.547 86.1804 259.922 67.4409 238.17C56.9517 225.956 46.6562 213.281 36.7442 200.984L33.3253 196.729C25.2297 186.821 14.5565 179.953 5.17963 174.389C-1.8627 170.238 -9.57797 167.432 -16.5445 166.459C-36.2216 163.727 -55.4282 166.074 -73.7716 173.338C-99.8004 183.666 -113.498 204.92 -110.438 230.175C-108.565 245.603 -106.178 261.356 -103.384 277.172C-101.082 290.286 -101.195 303.47 -103.715 316.186C-106.752 331.939 -112.065 345.109 -119.874 356.472C-133.815 376.756 -151.3 393.6 -171.821 406.566C-189.976 418.031 -210.242 428.067 -237.581 438.929C-239.806 439.839 -241.993 440.656 -244.18 441.473C-254.014 445.261 -264.148 449.248 -273.393 454.476C-293.309 465.744 -307.315 484.374 -315.232 509.683C-318.631 520.62 -320.327 532.923 -320.483 547.499C-320.723 581.129 -312.886 604.051 -294.883 622.132C-280.623 636.472 -262.802 645.691 -241.921 649.688C-232.111 651.638 -222.006 652.628 -212.216 653.593C-208.563 653.934 -204.726 654.353 -201.02 654.824C-186.616 656.426 -174.846 658.874 -164.026 662.55C-151.099 666.894 -138.064 673.561 -124.09 682.9C-119.775 685.797 -115.498 688.786 -111.276 691.644C-95.4519 702.518 -79.1525 713.81 -61.7155 722.651C-56.8916 725.11 -51.9367 727.516 -47.0206 730.015C-40.9058 733.016 -34.6454 736.188 -28.4771 739.32L-26.3418 740.434C-16.4173 745.469 -6.1627 750.752 1.34454 759.219C5.02531 763.367 8.0718 768.768 10.0175 774.466C13.1066 783.898 10.5884 793.252 2.06611 803.99C-5.54523 813.592 -15.6867 820.179 -26.4588 826.719C-38.6949 834.161 -50.8444 840.881 -64.3419 848.229C-68.4482 850.517 -72.7003 852.636 -77.0059 854.624L-74.6087 855.631C-70.8268 853.857 -67.0984 851.952 -63.4235 849.916C-50.3576 842.821 -37.6456 835.795 -25.5017 828.313C-14.5987 821.721 -4.28759 814.988 3.53212 805.148C9.11341 798.056 16.0978 787.106 11.8117 773.809C9.85122 767.889 6.69771 762.226 2.77906 757.869C-5.01956 749.063 -15.405 743.834 -25.4752 738.629L-27.6106 737.515C-33.7788 734.382 -40.0393 731.211 -46.154 728.209C-51.0701 725.711 -55.9328 723.344 -60.7567 720.884C-78.1015 712.082 -94.3087 700.829 -110.04 689.993C-114.263 687.135 -118.539 684.146 -122.854 681.25C-136.882 671.78 -150.102 665.035 -163.213 660.614C-174.125 656.899 -186.026 654.505 -200.614 652.826C-204.32 652.354 -208.104 652.066 -211.811 651.594C-221.6 650.629 -231.667 649.547 -241.384 647.635C-261.858 643.701 -279.402 634.599 -293.371 620.598C-310.937 603.026 -318.575 580.405 -318.383 547.405C-318.304 533.013 -316.594 520.933 -313.271 510.181C-305.51 485.241 -291.79 467.033 -272.305 456.018C-263.098 450.882 -253.095 446.948 -243.262 443.16C-241.075 442.343 -238.849 441.434 -236.623 440.524C-209.154 429.609 -188.757 419.519 -170.471 408.001C-149.781 394.889 -132.087 377.807 -117.976 357.377C-109.998 345.869 -104.66 332.384 -101.508 316.354C-98.9642 303.322 -98.8653 289.915 -101.182 276.578C-104.015 260.854 -106.271 245.048 -108.182 229.712C-111.092 205.388 -97.8347 184.925 -72.7758 174.841C-54.7864 167.645 -35.8417 165.405 -16.5721 168.074C-9.82868 169.062 -2.38996 171.752 4.50668 175.733C13.6991 181.22 24.2267 187.919 32.0843 197.617L35.5033 201.873C45.4152 214.17 55.7108 226.845 66.1612 239.151C85.0464 261.073 108.09 278.775 134.723 291.803C154.173 301.273 174.93 311.508 195.245 322.533C222.443 337.317 241.8 355.532 254.506 378.222C263.3 393.954 271.169 410.599 278.64 426.643C286.616 443.55 295.668 463.837 302.484 485.571C308.775 505.458 310.9 526.741 309.065 550.482C307.642 569.624 301.044 588.437 288.346 609.894C275.609 631.443 260.478 650.685 241.562 673.002C226.891 690.377 213.534 707.978 201.87 725.423C195.752 734.567 190.455 744.599 185.444 754.208C182.374 759.969 179.319 765.952 175.972 771.597C168.335 784.876 158.908 797.511 147.249 810.294C145.035 812.726 142.689 815.212 140.383 817.606C132.251 826.122 123.78 834.929 118.081 845.659C108.601 863.587 105.563 882.701 108.688 904.187C110.206 914.261 112.224 924.436 114.756 934.935L116.969 935.864C114.276 924.972 112.136 914.312 110.55 903.885C107.562 883.107 110.576 864.308 119.863 846.841Z" fill="#F2F6F7"/>
        <path d="M91.733 912.794C87.9873 901.568 84.4886 890.012 81.0195 878.902C78.1683 869.679 75.2488 860.102 72.1209 850.762C67.3922 836.195 57.4805 829.321 42.7159 830.388C28.3054 831.386 13.6497 834.776 -2.10477 840.525C-22.5336 848.106 -41.1536 855.255 -58.6193 862.237L-54.7469 863.863C-38.0667 857.202 -20.3632 850.428 -1.07384 843.235C14.3654 837.463 28.7204 834.272 42.9078 833.289C56.3337 832.31 64.9785 838.327 69.2646 851.623C72.3003 860.924 75.2198 870.502 78.0711 879.725C81.5402 890.835 85.131 902.429 88.8767 913.655L89.3876 915.28C90.5162 918.791 91.7372 922.34 92.9581 925.89L96.5538 927.4C95.143 923.011 93.6012 918.676 92.1903 914.287L91.733 912.794Z" fill="#F2F6F7"/>
        <path d="M37.4904 869.951C36.6072 869.471 35.6703 868.861 34.7871 868.381C31.8458 866.604 28.8124 864.788 25.4601 864.248C11.0125 861.977 -2.8504 862.446 -15.5515 865.572C-22.6949 867.345 -29.8235 869.34 -36.9522 871.336L-32.6188 873.155C-26.7219 871.51 -20.8249 869.865 -14.8746 868.351C-2.52753 865.293 10.8891 864.853 25.0214 867.1C27.7818 867.5 30.5386 869.2 33.242 870.77C34.1787 871.38 35.1542 871.898 36.1297 872.416C48.4035 879.089 56.3498 890.126 61.9559 898.988C65.6091 904.752 68.923 910.807 71.9751 916.97L76.1241 918.712C72.5907 911.371 68.7567 904.23 64.4913 897.341C58.6085 888.363 50.2787 876.948 37.4904 869.951Z" fill="#F2F6F7"/>
        <path d="M209.139 963.29C209.801 960.423 216.138 957.986 221.591 958.432C237.726 959.785 251.797 959.078 264.644 956.121C287.428 950.939 304.677 941.371 317.518 926.807C329.564 913.102 335.128 898.302 334.375 881.5C333.28 857.504 325.3 836.474 318.475 820.701C313.667 809.68 308.413 798.689 303.319 788.09C299.052 779.14 294.677 769.927 290.58 760.831C283.799 745.728 281.321 731.998 283.196 719.011C284.593 708.968 287.829 698.939 290.779 689.332C291.229 688.002 291.586 686.634 292.036 685.304C296.374 671.616 302.634 658.518 308.831 645.828C311.716 639.99 314.625 633.836 317.404 627.736C325.323 609.912 330.039 595.84 332.708 581.994C335.908 565.334 336.527 547.589 334.78 525.923C331.977 491.015 319.514 458.449 306.412 428.436C305.503 426.21 304.463 424.038 303.554 421.812C296.101 404.691 288.382 386.916 279.135 370.452C267.746 350.051 251.533 332.613 231.195 318.541C213.536 306.354 194.395 296.146 175.9 286.21C171.629 283.983 167.397 281.664 163.257 279.383C140.2 266.88 121.778 252.636 107.001 235.911C100.169 228.161 94.548 219.076 90.4134 212.134C88.1931 208.381 85.9728 204.629 83.7524 200.877C75.9204 187.501 67.8744 173.602 58.3405 160.921C48.3159 147.601 35.6602 137.189 19.6984 128.967C9.25948 123.607 -2.03855 122.876 -12.7538 122.823C-48.523 122.77 -81.1477 134.341 -111.152 146.903C-123.012 151.901 -132.984 158.343 -141.761 166.587C-154.24 178.483 -159.129 194.001 -155.654 211.295C-154.07 219.661 -151.816 227.983 -149.577 236.081C-147.971 242.07 -146.219 248.229 -144.874 254.325L-143.939 258.297C-141.431 269.112 -138.854 280.281 -137.985 291.383C-136.885 305.294 -141.515 318.643 -145.643 328.731C-153.008 346.788 -165.795 361.483 -186.945 376.462C-204.071 388.576 -220.687 396.892 -237.354 401.715C-246.854 404.45 -256.713 406.492 -266.219 408.465C-273.207 409.869 -280.366 411.418 -287.378 413.137C-290.288 413.867 -292.936 414.491 -295.491 415.153C-302.989 416.994 -309.516 418.591 -315.714 420.435C-324.021 422.912 -335.612 430.626 -336.082 430.971L-336.213 431.024C-343.037 436.944 -345.435 444.722 -347.935 452.999C-348.269 454.052 -348.603 455.105 -348.937 456.158C-352.056 465.911 -352.507 476.025 -352.934 485.824C-353.063 487.939 -353.1 490.093 -353.229 492.208L-353.228 519.323L-353.193 520.531C-352.559 533.487 -351.766 546.835 -350.672 559.985C-348.876 581.02 -343.498 599.982 -334.805 616.214C-320.28 643.354 -296.387 662.39 -261.95 674.14C-257.186 675.707 -252.242 676.59 -247.429 677.526C-245.93 677.83 -244.3 678.081 -242.801 678.385C-235.989 679.727 -228.731 681.04 -220.712 682.347C-217.675 682.863 -214.691 683.248 -211.707 683.633C-205.74 684.404 -199.681 685.213 -193.839 686.798C-180.618 690.181 -170.258 693.664 -161.3 697.643C-151.143 702.125 -141.683 708.267 -133.66 713.697C-122.826 720.958 -113.438 728.045 -104.889 735.323C-92.3498 746.012 -82.237 755.248 -75.1813 768.406C-68.9222 780.362 -70.1754 793.935 -78.5906 804.935C-88.8663 818.299 -102.972 828.644 -121.301 836.132L-118.719 837.216C-100.89 829.627 -87.1385 819.35 -76.9015 806.078C-68.0308 794.51 -66.7445 780.083 -73.3632 767.434C-81.1381 752.889 -93.4933 742.278 -103.508 733.842C-112.057 726.565 -121.538 719.438 -132.463 712.138C-140.487 706.708 -150.131 700.489 -160.38 695.968C-169.523 691.912 -179.974 688.391 -193.196 685.008C-199.169 683.476 -205.32 682.628 -211.287 681.857C-214.271 681.472 -217.254 681.087 -220.291 680.571C-228.311 679.264 -235.476 677.99 -242.288 676.648C-243.787 676.344 -245.417 676.093 -246.917 675.789C-251.637 674.891 -256.581 674.008 -261.161 672.519C-295.098 660.87 -318.608 642.212 -332.88 615.503C-341.428 599.441 -346.699 580.742 -348.518 560.021C-349.651 546.964 -350.406 533.524 -351.078 520.66L-351.443 519.205L-351.391 492.221C-351.262 490.106 -351.133 487.991 -351.096 485.837C-350.707 476.13 -350.203 466.147 -347.2 456.671C-346.866 455.618 -346.532 454.565 -346.198 453.512C-343.698 445.234 -341.479 438.14 -335.125 432.566C-334.262 432.06 -323.195 424.56 -315.411 422.297C-309.214 420.453 -302.817 418.909 -295.32 417.069C-292.764 416.407 -290.116 415.783 -287.207 415.053C-280.194 413.334 -273.075 411.877 -266.086 410.473C-256.488 408.538 -246.629 406.497 -236.998 403.708C-220.069 398.778 -203.322 390.409 -186.027 378.15C-164.446 362.917 -151.542 347.945 -144.022 329.52C-139.816 319.247 -135.071 305.622 -136.2 291.265C-137.03 280.07 -139.66 268.771 -142.13 257.864L-143.065 253.892C-144.502 247.757 -146.123 241.545 -147.822 235.517C-150.007 227.549 -152.261 219.228 -153.884 210.954C-157.184 194.275 -152.512 179.534 -140.542 168.075C-131.935 159.976 -122.094 153.588 -110.534 148.79C-80.7917 136.334 -48.3902 124.778 -12.9363 124.807C-2.5363 124.836 8.57729 125.49 18.6475 130.695C34.3714 138.708 46.7505 149.004 56.6293 162.155C66.0711 174.797 74.1558 188.604 81.8956 201.941C84.116 205.693 86.2976 209.538 88.5179 213.29C92.6137 220.324 98.3268 229.448 105.305 237.367C120.227 254.263 138.795 268.676 162.037 281.256C166.269 283.576 170.54 285.803 174.772 288.123C193.175 298.02 212.316 308.227 229.882 320.376C249.982 334.24 265.918 351.561 277.201 371.7C286.355 388.126 294.114 405.809 301.566 422.93C302.475 425.155 303.515 427.327 304.425 429.553C319.436 464.057 330 493.655 332.617 526.424C334.349 547.868 333.677 565.481 330.554 581.957C327.963 595.619 323.285 609.599 315.352 627.2C312.704 633.246 309.702 639.361 306.817 645.199C300.62 657.89 294.191 671.133 289.906 684.952C289.456 686.282 289.099 687.65 288.649 688.979C285.529 698.732 282.386 708.801 280.911 719.027C279.066 732.461 281.519 746.506 288.461 762.002C292.612 771.229 296.987 780.441 301.293 789.3C306.386 799.898 311.64 810.89 316.448 821.911C323.259 837.461 331.185 858.36 332.212 882.001C332.882 898.226 327.565 912.696 315.844 925.887C303.381 940.068 286.432 949.436 264.094 954.589C251.378 957.492 237.492 958.277 221.58 956.909C215.628 956.362 208.136 958.964 207.116 963.2L206.86 964.068C206.121 967.12 205.304 970.356 204.972 973.471L206.908 974.284C207.187 971.039 208.003 967.802 208.82 964.566L209.139 963.29Z" fill="#F2F6F7"/>
        <path d="M14.2849 885.694C6.52171 883.518 -1.28383 882.735 -9.33087 883.043L-2.23144 886.025C3.07551 886.301 8.28106 887.077 13.5309 888.522C23.0311 891.21 31.6557 896.242 39.4431 903.525L46.5425 906.507C45.6297 905.581 44.7169 904.655 43.8041 903.73C35.1904 894.798 25.2456 888.778 14.2849 885.694Z" fill="#F2F6F7"/>
        <path d="M304.663 987.894C308.274 984.204 311.976 980.553 315.509 977.048C322.914 969.745 330.619 962.243 337.534 954.301C346.91 943.596 354.228 931.594 359.479 918.831C363.762 908.374 363.999 897.736 364.017 885.813C363.973 865.513 358.551 845.882 353.451 829.099C351.744 823.609 350.167 818.067 348.459 812.577C343.063 794.693 337.399 776.154 332.55 757.74C327.472 738.58 325.677 722.967 326.925 708.632C327.775 699.119 329.264 689.116 331.369 678.937C333.334 669.35 335.998 660.165 339.306 649.189C340.742 644.478 342.401 639.752 343.983 635.21C346.209 628.878 348.511 622.361 350.183 615.797C356.258 591.775 358.019 566.918 355.51 539.834C352.785 510.165 346.296 481.193 336.326 453.796C330.257 437.256 323.557 420.668 316.979 404.565C313.984 397.233 310.614 388.986 307.391 380.907C298.148 357.72 283.358 337.41 262.264 318.682C253.501 310.88 243.565 304.322 233.814 297.841L233.576 297.632C231.702 296.412 229.829 295.191 227.994 293.878C220.024 288.579 211.676 283.664 203.474 278.918C190.656 271.474 177.508 263.784 165.673 254.259C152.887 243.9 138.453 231.006 128.687 213.456C120.252 198.417 112.353 181.325 104.631 161.488C96.336 140.434 83.8753 120.777 66.3602 101.274C56.0076 89.7682 43.7355 79.734 28.7141 70.823C16.857 63.6746 4.00635 62.508 -11.7833 67.0487C-23.4849 70.3777 -34.6996 75.6465 -45.5603 80.8471C-50.5591 83.1947 -55.8198 85.6493 -61.0031 87.9195C-87.3269 99.2079 -107.474 107.667 -126.234 115.407C-132.387 117.921 -138.686 120.265 -144.854 122.556C-153.693 125.785 -162.703 129.16 -171.498 133.058C-185.123 139.159 -195.126 148.516 -201.076 160.876C-202.577 163.934 -204.048 167.437 -204.103 170.668L-204.145 172.06C-204.307 180.452 -204.547 189.028 -201.507 197.029C-198.468 205.03 -195.429 213.031 -192.389 221.031L-192.268 221.516C-188.679 231.049 -184.891 240.883 -181.287 250.639C-177.08 262.059 -172.765 275.802 -173.299 290.762C-174.026 311.606 -181.582 328.823 -195.849 342.138C-212.986 358.151 -233.268 367.964 -257.818 372.188C-271.286 374.559 -284.955 374.567 -298.217 374.637C-303.417 374.623 -308.748 374.662 -314.064 374.924L-315.534 375.066C-318.565 375.312 -321.558 375.465 -324.512 375.526C-331.128 375.784 -338.098 376.111 -344.587 377.616C-361.537 381.561 -374.38 388.641 -384.071 399.322C-392.042 408.23 -401.683 420.342 -404.948 435.348C-407.73 448.172 -407.067 461.573 -402.951 475.016C-392.82 508.229 -384.921 536.166 -379.34 564.974C-377.838 572.763 -375.852 580.43 -373.434 587.844L-371.424 595.196C-365.869 611.412 -360.139 628.243 -349.541 642.78C-336.145 660.987 -320.216 675.485 -302.36 685.912C-288.698 693.927 -275.96 699.493 -263.631 702.935C-258.473 704.342 -253.199 705.472 -248.056 706.655C-244.781 707.38 -241.506 708.104 -238.139 708.867C-235.18 709.568 -232.22 710.269 -229.353 710.93C-218.883 713.375 -208.136 715.936 -197.544 718.865C-191.149 720.683 -185.01 723.369 -178.964 726.017L-176.843 726.907C-165.895 731.83 -157.132 739.631 -149.99 746.644C-143.562 753.031 -138.815 761.098 -136.216 769.89C-132.552 782.6 -137.755 794.732 -150.911 803.849C-157.038 808.109 -163.695 811.821 -171.249 814.831L-168.668 815.915C-161.783 812.95 -155.558 809.49 -149.731 805.429C-135.857 795.637 -130.383 782.86 -134.33 769.272C-136.997 760.126 -141.851 751.797 -148.609 745.163C-155.805 738.02 -164.806 730.01 -176.03 724.971L-178.151 724.081C-184.197 721.433 -190.428 718.708 -196.915 716.851C-207.507 713.922 -218.346 711.323 -228.816 708.878C-231.776 708.178 -234.736 707.477 -237.603 706.815C-240.931 705.96 -244.337 705.289 -247.52 704.603C-252.571 703.458 -257.844 702.328 -263.002 700.921C-275.239 697.518 -287.754 691.937 -301.271 684.092C-318.888 673.873 -334.58 659.584 -347.829 641.547C-358.32 627.271 -364.036 610.663 -369.445 594.617L-371.402 587.396L-371.455 587.265C-373.912 579.943 -375.806 572.315 -377.346 564.618C-382.981 535.679 -390.842 507.65 -400.972 474.437C-405.205 461.271 -405.93 448.276 -403.172 435.769C-399.97 421.17 -390.537 409.296 -382.682 400.664C-373.33 390.275 -360.788 383.394 -344.193 379.517C-337.927 378.027 -331.088 377.754 -324.471 377.495C-321.479 377.342 -318.486 377.189 -315.493 377.036L-314.062 376.986C-308.785 376.816 -303.454 376.777 -298.254 376.791C-284.992 376.72 -271.192 376.659 -257.501 374.274C-232.596 369.982 -212.015 359.97 -194.577 343.757C-179.97 330.151 -172.182 312.38 -171.446 290.998C-170.888 275.722 -175.218 261.756 -179.57 250.167C-183.174 240.411 -186.962 230.577 -190.551 221.044L-190.711 220.651C-193.751 212.651 -196.79 204.65 -199.829 196.649C-202.708 189.041 -202.546 180.649 -202.37 172.48L-202.327 171.088C-202.243 168.304 -200.849 164.985 -199.464 162.204C-193.669 150.212 -184.044 141.239 -170.851 135.391C-162.186 131.546 -153.177 128.171 -144.337 124.942C-138.169 122.651 -131.87 120.307 -125.717 117.793C-106.865 110.092 -86.8105 101.594 -60.4867 90.3056C-55.3034 88.0354 -50.0427 85.5808 -45.0051 83.1409C-34.1832 78.0326 -23.0994 72.8173 -11.5287 69.5417C3.73726 65.215 16.0882 66.2801 27.4308 73.104C42.2678 81.9376 54.3943 91.8022 64.6547 103.269C81.9705 122.471 94.3778 141.998 102.566 162.79C110.341 182.758 118.24 199.85 126.729 215.019C136.602 232.831 151.181 245.895 164.152 256.331C176.08 265.895 189.412 273.663 202.23 281.107C210.34 285.814 218.687 290.729 226.657 296.028C228.531 297.249 230.404 298.47 232.239 299.783L232.477 299.991C242.044 306.394 252.072 312.992 260.689 320.623C281.638 339.182 296.189 359.284 305.364 382.117C308.588 390.195 312.011 398.574 315.006 405.906C321.531 421.878 328.323 438.504 334.3 455.006C344.217 482.272 350.652 511.113 353.362 540.559C355.818 567.512 354.08 592.053 348.083 615.891C346.45 622.363 344.147 628.88 341.96 635.12C340.379 639.662 338.719 644.388 337.283 649.099C333.976 660.075 331.365 669.391 329.269 679.031C327.125 689.302 325.636 699.305 324.747 708.911C323.514 723.469 325.232 739.266 330.417 758.688C335.358 777.141 340.929 795.641 346.418 813.564C348.126 819.053 349.741 824.504 351.41 830.085C356.456 846.738 361.825 866.238 361.854 886.315C361.86 897.922 361.569 908.429 357.533 918.557C352.452 931.173 345.158 942.861 335.952 953.42C329.076 961.27 321.463 968.81 314.058 976.113C310.525 979.618 306.691 983.323 303.081 987.013C297.164 993.097 290.884 999.787 285.24 1007.29L287.084 1008.06C292.713 1000.34 298.824 993.794 304.663 987.894Z" fill="#F2F6F7"/>
        <path d="M38.2053 621.336C32.0279 618.742 26.4515 615.75 21.2385 612.15C12.6471 606.265 7.96855 598.552 6.95014 588.58C5.84873 578.031 6.27962 566.932 8.26677 554.968C9.40045 548.394 10.2575 541.704 11.0372 535.199C11.2971 533.03 11.6104 530.993 11.8703 528.824L12.8915 521.227C13.7006 515.168 14.4711 509.2 15.2802 503.141L15.6802 500.381C16.5373 493.691 17.5105 486.724 18.5373 479.889C19.2027 475.721 19.9843 471.277 21.0665 466.634C21.6509 463.951 22.274 461.176 22.8584 458.493C24.4088 451.443 25.9057 444.263 28.0867 437.261C32.9613 421.521 39.5119 403.339 51.4932 387.98C57.3215 380.558 63.7972 375.468 71.2744 372.643C89.2397 365.762 107.314 366.627 122.678 368.524C141.026 370.806 157.788 378.929 173.77 393.559C184.451 403.25 193.179 415.267 199.794 429.216C202.929 435.955 206.288 442.68 209.408 449.196C215.114 460.92 220.98 473.036 226.308 485.144C233.318 500.994 236.288 517.425 235.318 533.938C234.521 546.944 229.205 558.052 224.257 567.254C213.764 586.817 197.394 603.587 174.129 618.437C155.596 630.286 135.156 636.344 113.333 636.399C102.579 636.438 88.4726 635.938 74.4601 632.114C70.1709 630.964 65.6735 630.051 61.3604 629.216C59.5459 628.888 57.7701 628.468 55.9556 628.139L56.3225 626.233C58.0983 626.653 59.9127 626.981 61.635 627.271C66.0403 628.144 70.5377 629.057 74.9191 630.246C88.655 633.953 102.63 634.508 113.161 634.483C134.631 634.497 154.717 628.507 172.949 616.857C195.913 602.206 212.074 585.674 222.32 566.441C227.23 557.331 232.43 546.499 233.165 533.901C234.11 517.704 231.116 501.588 224.306 486.038C218.978 473.931 213.111 461.814 207.459 450.222C204.246 443.667 201.019 436.888 197.792 430.11C191.284 416.423 182.701 404.576 172.258 395.093C156.475 380.764 140.121 372.703 122.234 370.615C107.147 368.835 89.3339 367.862 71.7226 374.675C64.5073 377.393 58.5017 382.138 52.843 389.414C41.0701 404.536 34.5435 422.402 29.7076 438.05C27.5653 444.96 26.0296 452.232 24.518 459.19C23.9336 461.873 23.3105 464.648 22.7261 467.331C21.6826 471.882 20.9011 476.326 20.2743 480.401C19.2476 487.237 18.3131 494.111 17.456 500.801L17.056 503.561C16.2469 509.621 15.4377 515.68 14.6672 521.647L13.6461 529.244C13.3862 531.413 13.0728 533.45 12.8129 535.619C12.0333 542.125 11.1375 548.907 10.0038 555.48C8.05537 567.352 7.60973 578.228 8.65766 588.646C9.63178 597.949 13.9655 605.192 22.1346 610.791C30.3958 616.43 39.6454 620.748 50.4364 623.978C51.8047 624.335 53.149 625.008 54.3624 625.735C54.9156 625.967 55.43 626.292 55.891 626.485L55.0245 628.291C54.4713 628.058 53.9568 627.734 53.4036 627.501C52.1515 626.867 50.9916 626.272 49.8465 625.899C45.9741 624.273 41.9855 622.924 38.2053 621.336Z" fill="#F2F6F7"/>
        <path d="M-13.5482 640.492C-14.8925 639.819 -16.198 639.054 -17.5423 638.381C-21.2598 636.386 -25.2005 634.406 -28.9328 632.188C-43.7938 623.669 -44.1287 603.03 -38.7117 591.422L-37.056 587.996C-32.6605 578.562 -28.0567 568.89 -24.5832 559.069C-19.8228 545.667 -15.363 532.464 -12.9407 518.947C-10.9241 507.43 -9.86808 495.617 -8.92829 484.081C-8.42886 478.76 -8.03642 473.176 -7.40607 467.801C-6.82921 462.295 -6.21362 456.696 -5.58327 451.321C-4.8663 445.223 -4.12537 438.81 -3.55408 432.542C-2.28058 419.953 0.539977 407.038 4.92237 394.02C10.0644 378.934 16.2002 363.289 29.8155 352.304C37.3864 346.156 46.1987 344.542 54.478 343.68C67.6125 342.363 81.4957 342.879 95.604 345.441C99.0486 346.02 102.624 346.545 106.069 347.124C112.497 348.088 119.017 349.091 125.436 350.593C133.223 352.453 141.123 355.337 149.12 359.021C163.786 365.938 174.182 372.69 183.014 380.846C194.622 391.686 204.453 405.467 213.22 422.815C217.03 430.271 220.501 438.02 223.957 445.545C225.585 449.157 227.252 452.677 228.919 456.197C236.536 472.411 244.357 489.686 248.105 508.397C251.331 523.96 250.86 538.512 246.715 551.739C243.315 562.676 237.578 573.498 229.138 584.813C212.144 607.72 191.031 625.969 166.388 638.939C145.734 649.897 123.658 654.943 101 653.888C92.0545 653.494 83.1573 652.469 74.4833 651.429C71.2766 651.059 67.9777 650.65 64.7323 650.372L64.3248 650.309C47.7143 648.54 30.4731 646.722 13.5712 644.614C7.4732 643.897 1.2682 642.918 -4.80587 641.886C-7.43539 641.432 -9.9727 641.017 -12.6409 640.656L-12.2022 637.804L-13.5482 640.492ZM142.965 359.473C136.88 356.917 130.786 354.9 124.866 353.499C118.578 351.943 112.058 350.941 105.722 350.015C102.239 349.529 98.7021 348.911 95.1653 348.294C81.2414 345.809 67.7122 345.225 54.8931 346.566C46.9677 347.359 38.7327 348.89 31.7093 354.509C18.7339 365.004 12.7917 380.188 7.71234 394.866C3.4461 407.608 0.572047 420.392 -0.585297 432.704C-1.28751 439.025 -1.98972 445.347 -2.65321 451.576C-3.28356 456.951 -3.89912 462.549 -4.47599 468.055C-5.01413 473.469 -5.4988 479.014 -5.99823 484.336C-6.93802 495.872 -8.07142 507.868 -10.1268 519.478C-12.6265 533.179 -17.125 546.474 -21.9628 560.061C-25.5138 570.066 -30.1564 579.83 -34.5519 589.264L-36.2076 592.69C-41.1064 603.323 -40.8122 621.993 -27.5334 629.63C-23.7624 631.756 -19.9526 633.79 -16.2351 635.785C-14.8908 636.458 -13.5852 637.223 -12.2409 637.896C-9.61141 638.349 -7.03541 638.672 -4.40589 639.125C1.57599 640.119 7.6888 641.059 13.7868 641.776C30.6887 643.884 47.9299 645.702 64.5404 647.471L64.9479 647.534C68.1546 647.904 71.4922 648.221 74.791 648.63C83.3729 649.631 92.3623 650.695 101.084 651.104C123.335 652.096 144.834 647.133 165.017 636.52C189.269 623.71 210.042 605.753 226.789 583.176C235.02 572.099 240.642 561.553 243.887 550.985C247.93 538.258 248.3 524.205 245.195 509.127C241.516 490.771 233.748 473.626 226.238 457.674C224.571 454.154 222.943 450.542 221.314 446.93C217.912 439.535 214.349 431.749 210.631 424.331C202.063 407.284 192.3 393.856 181.022 383.263C172.468 375.224 162.309 368.68 147.92 361.879C146.246 360.959 144.625 360.17 142.965 359.473Z" fill="#F2F6F7"/>
        <path d="M-36.9341 660.281C-39.1229 659.036 -41.3118 657.792 -43.4085 656.586C-48.155 653.942 -53.1393 651.09 -57.6923 647.985C-76.2875 635.187 -85.0455 617.301 -83.6748 594.666C-83.2308 587.152 -79.0896 580.648 -75.3891 574.935C-72.8317 570.912 -70.09 566.965 -67.3869 563.111C-62.9691 556.724 -58.4352 550.059 -54.5853 543.216C-49.5684 534.368 -46.2166 524.062 -43.8331 510.638C-41.527 497.398 -41.8357 483.928 -42.207 470.866C-42.2736 467.15 -42.3937 463.303 -42.4603 459.588C-42.6862 441.272 -41.9439 426.074 -37.3404 410.979C-36.354 407.597 -35.329 404.123 -34.2504 400.78C-32.3552 394.2 -30.2516 387.383 -28.0945 380.697C-24.0993 368.6 -20.2921 357.726 -15.9317 347.084C-12.2922 338.418 -8.04602 330.114 -3.23185 322.266C1.90682 313.903 10.5567 309.835 21.709 310.397C27.3313 310.697 33.2301 311.113 38.9262 312.529C52.8169 315.868 66.4754 319.76 79.304 323.303C82.3171 324.135 85.4224 325.005 88.4355 325.836C100.488 329.162 112.909 332.643 124.967 336.73C141.882 342.424 161.646 349.855 179.266 362.135C197.584 374.817 211.944 392.019 221.739 413.377C224.621 419.685 227.727 425.978 230.648 432.194C235.795 442.924 241.141 453.954 245.871 465.159C252.405 480.593 257.438 493.661 260.624 507.255C264.744 524.82 263.679 542.594 257.742 558.539C253.209 570.626 246.361 582.284 235.46 596.362C220.606 615.721 201.834 630.722 183.85 644.103C166.715 656.755 147.199 665.263 125.787 669.503C113.75 671.823 100.517 672.34 85.4209 671.098L80.822 670.686C54.6358 668.474 27.6345 666.138 0.873022 666.071C-13.65 666.046 -25.4146 664.359 -36.1817 660.814L-35.5918 658.892C-25.0091 662.36 -13.4676 664.062 0.832327 664.101C27.686 664.207 54.726 666.451 80.9657 668.794L85.5646 669.207C100.438 670.463 113.447 669.961 125.392 667.602C146.45 663.43 165.743 654.937 182.67 642.523C200.615 629.234 219.218 614.378 233.902 595.165C244.633 581.233 251.404 569.76 255.86 557.857C261.773 542.227 262.682 524.822 258.723 507.649C255.591 494.187 250.611 481.25 244.039 465.908C239.362 454.834 234.016 443.803 228.868 433.074C225.909 426.95 222.842 420.564 219.959 414.256C210.325 393.291 196.203 376.298 178.122 363.824C160.648 351.714 141.2 344.306 124.338 338.744C112.372 334.695 99.9514 331.214 87.899 327.889C84.8859 327.057 81.7807 326.187 78.7676 325.356C65.9776 321.72 52.2805 317.92 38.5206 314.528C33.0089 313.19 27.241 312.72 21.7109 312.458C11.1892 311.944 3.36366 315.599 -1.41179 323.355C-6.18724 331.111 -10.4334 339.415 -13.9955 347.897C-18.4094 358.408 -22.1244 369.321 -26.1196 381.418C-28.3302 387.973 -30.3415 394.829 -32.2368 401.408C-33.2231 404.79 -34.2482 408.264 -35.2345 411.646C-39.7219 426.465 -40.5564 441.624 -40.3065 459.625C-40.2787 463.432 -40.1199 467.187 -40.0533 470.902C-39.6819 483.965 -39.2276 497.605 -41.6111 511.029C-43.9799 524.676 -47.54 535.22 -52.5035 544.199C-56.392 551.134 -61.0181 557.76 -65.4746 564.24C-68.1777 568.094 -70.8273 572.079 -73.4768 576.064C-77.0077 581.631 -81.0327 587.858 -81.4675 594.834C-82.8438 616.707 -74.392 634.031 -56.3647 646.373C-51.8118 649.478 -46.9196 652.292 -42.1731 654.936C-40.0764 656.141 -37.7954 657.425 -35.6065 658.669L-36.9341 660.281Z" fill="#F2F6F7"/>
        <path d="M120.106 566.033C119.645 565.839 119.222 565.554 118.761 565.36C117.878 564.881 116.956 564.493 116.112 563.922C103.187 556.217 97.0107 544.838 97.1316 529.054C97.2285 513.585 103.503 500.71 116.913 488.662C123.345 482.903 137.368 482.827 144.619 486.739C162.401 496.05 170.933 511.89 170.188 533.811C169.88 542.033 164.701 548.426 159.492 554.373C150.441 564.564 137.837 568.49 121.12 566.459L121.428 563.66L120.106 566.033ZM142.059 488.701C134.96 485.72 123.503 486.658 118.938 490.814C106.167 502.371 100.203 514.508 100.086 528.993C100.022 543.608 105.693 554.124 117.642 561.311C118.433 561.751 119.316 562.231 120.146 562.579C120.607 562.773 121.029 563.059 121.49 563.252C137.485 565.197 148.857 561.621 157.283 552.144C162.206 546.619 166.969 540.702 167.204 533.425C167.97 512.489 160.157 498.037 143.205 489.074C142.889 489.05 142.428 488.856 142.059 488.701Z" fill="#F2F6F7"/>
        <path d="M105.412 591.208L104.859 590.975C102.777 589.993 100.734 588.918 98.7833 587.882C78.1432 577.37 67.9064 560.165 67.3297 535.194C67.045 521.408 69.3603 507.63 74.3622 493.136C76.665 486.62 80.1129 480.475 83.1348 475.345L83.5755 474.554C89.4646 464.663 95.562 454.534 105.29 447.122C116.977 438.147 128.607 435.764 139.826 440.041C148.24 443.249 155.216 449.107 159.634 453.566C170.971 465.051 178.98 475.681 184.695 486.866C192.675 502.473 196.38 517.153 195.963 531.836C195.79 538.705 193.987 545.323 190.708 551.322C182.922 565.731 173.609 576.028 162.09 582.796C154.493 587.198 145.725 589.481 137.127 591.619L136.996 591.673C127.52 594.092 117.382 593.956 106.043 591.256L106.502 589.388C117.564 591.972 127.387 592.084 136.509 589.733L136.64 589.679C145.015 587.556 153.744 585.365 161.079 581.07C172.167 574.555 181.364 564.534 188.942 550.363C192.05 544.51 193.699 538.261 193.94 531.746C194.426 517.417 190.828 502.999 182.916 487.746C177.255 476.692 169.391 466.231 158.2 454.916C153.927 450.627 147.135 444.846 139.09 441.793C128.516 437.787 117.595 440.033 106.417 448.571C97.028 455.692 91.0615 465.767 85.1577 475.435L84.717 476.227C81.7337 481.264 78.3246 487.316 76.0992 493.649C71.1748 507.958 68.9757 521.46 69.2456 535.022C69.7245 559.193 79.6552 575.836 99.5964 585.945C101.64 587.02 103.629 587.964 105.672 589.039L106.226 589.271L105.412 591.208Z" fill="#F2F6F7"/>
        <path d="M-243.555 603.99C-263.747 595.511 -274.906 577.918 -274.079 554.513C-273.234 530.031 -258.528 513.864 -245.742 502.53C-231.314 489.609 -213.289 483.62 -195.827 477.938L-192.316 476.809C-186.75 474.917 -181.037 473.195 -175.456 471.526C-165 468.324 -154.191 465.054 -144.018 460.975C-128.255 454.688 -114.643 445.002 -103.576 432.079C-88.5508 414.636 -75.3417 394.804 -64.4967 373.111C-57.0552 358.232 -51.5703 341.554 -47.8779 322.172C-45.981 312.231 -44.9527 302.034 -43.9095 292.06C-43.482 287.684 -42.9769 283.124 -42.4719 278.564C-42.424 277.933 -42.3374 277.211 -42.2895 276.58C-41.6113 270.574 -40.9091 264.253 -37.616 258.478C-34.2456 252.518 -28.5793 248.064 -21.9743 246.283C-16.2084 244.691 -10.3334 245.423 -5.44126 248.236C7.69186 255.704 19.1562 263.012 29.374 270.449C43.4993 280.719 60.4441 292.281 79.4134 300.573C88.0415 304.304 96.8006 307.983 105.375 311.583C110.446 313.713 115.464 315.711 120.496 317.933C125.014 319.83 129.716 321.805 134.18 323.571C145.007 328.009 156.202 332.602 166.81 337.816C194.457 351.27 214.095 368.302 226.557 390.021C234.458 403.751 241.287 418.224 247.328 430.956C253.744 444.604 260.219 459.146 267.624 476.897C275.602 495.865 279.248 515.076 278.572 533.989C278.129 546.927 275.041 559.187 269.299 571.31C257.763 595.424 241.388 616.855 220.552 635.221C204.073 649.667 188.684 662.293 173.483 673.697C158.583 684.902 141.084 692.738 121.564 697.122C111.05 699.431 99.0641 699.821 83.8992 698.225C61.2442 695.87 37.4735 693.588 11.3794 691.416C8.13403 691.137 4.75769 690.913 1.6045 690.673C-9.69352 689.942 -21.3068 689.186 -32.5828 686.078C-33.0826 685.976 -33.7519 686.021 -34.4213 686.065C-34.8675 686.095 -35.3137 686.124 -35.8522 686.115L-35.8007 684.184C-35.3931 684.247 -35.0391 684.179 -34.5929 684.149C-33.7926 684.051 -32.9001 683.992 -32.0316 684.249C-20.94 687.279 -9.41887 687.996 1.78695 688.689C5.07107 688.875 8.31647 689.153 11.6928 689.378C37.8791 691.589 61.5575 693.832 84.2126 696.188C99.1543 697.798 110.917 697.423 121.208 695.129C140.466 690.852 157.703 683.123 172.342 672.025C187.543 660.621 202.932 647.995 219.28 633.602C239.907 615.474 256.205 594.227 267.533 570.351C273.289 558.452 276.261 546.467 276.68 533.846C277.332 515.247 273.7 496.26 265.829 477.554C258.425 459.802 251.95 445.261 245.495 431.705C239.454 418.972 232.625 404.499 224.778 390.901C212.476 369.574 193.169 352.789 165.798 339.452C155.189 334.237 143.994 329.645 133.26 325.246C128.743 323.348 124.094 321.505 119.484 319.569C114.413 317.439 109.434 315.349 104.363 313.219C95.8805 309.657 86.9906 306.032 78.4012 302.208C59.2862 293.747 42.2492 282.146 28.0317 271.837C17.8138 264.401 6.53393 257.17 -6.59919 249.702C-11.0304 247.082 -16.4056 246.452 -21.6866 247.922C-27.7144 249.62 -33.0027 253.69 -36.0873 259.228C-39.1333 264.673 -39.8263 270.456 -40.4511 276.593C-40.5377 277.316 -40.5856 277.946 -40.6722 278.669C-41.2307 283.098 -41.6435 287.697 -42.0711 292.073C-43.1142 302.047 -44.1813 312.336 -46.1169 322.37C-49.8868 341.936 -55.4104 358.705 -62.968 373.861C-73.8904 395.739 -87.1382 415.663 -102.333 433.252C-113.609 446.413 -127.521 456.297 -143.508 462.599C-153.811 466.732 -164.621 470.002 -175.168 473.165C-180.657 474.873 -186.37 476.595 -191.898 478.395L-195.409 479.524C-212.648 485.191 -230.41 491.073 -244.63 503.756C-257.076 514.799 -271.444 530.674 -272.294 554.395C-273.233 582.2 -256.533 601.577 -227.623 606.343C-214.898 608.324 -201.288 607.423 -189.239 606.626C-175.891 605.833 -158.336 605.612 -141.314 611.567C-140.669 611.838 -139.985 612.017 -139.339 612.288C-135.627 613.522 -131.954 614.847 -128.93 617.202C-121.202 623.593 -112.046 631.233 -103.762 639.918C-82.5002 661.862 -62.1145 675.303 -39.6104 682.151C-38.6497 682.446 -37.8051 683.017 -36.9218 683.497C-36.5917 683.744 -36.2229 683.898 -35.8929 684.146L-36.8516 685.912C-37.1817 685.665 -37.6427 685.471 -37.9728 685.224C-38.7252 684.692 -39.424 684.29 -40.1082 684.111C-62.9276 677.24 -83.5899 663.682 -105.051 641.438C-113.373 632.845 -122.345 625.282 -130.073 618.891C-132.729 616.691 -136.348 615.497 -139.876 614.341C-140.521 614.07 -141.205 613.891 -141.851 613.62C-158.596 607.781 -175.835 608.025 -188.961 608.804C-201.101 609.562 -214.843 610.517 -227.752 608.458C-233.419 607.488 -238.761 606.004 -243.555 603.99Z" fill="#F2F6F7"/>
        <path d="M-251.03 619.724C-264.122 614.226 -275.035 605.087 -283.124 592.58C-287.865 585.275 -289.955 576.046 -290.829 569.605C-292.895 554.638 -292.169 542.578 -288.585 531.719C-285.117 521.136 -279.597 511.09 -272.179 501.949C-261.094 487.949 -246.31 477.021 -228.427 469.563C-223.845 467.691 -219.355 465.78 -214.812 464.001C-200.542 458.171 -185.879 452.181 -171.852 445.382C-144.099 431.982 -122.137 415.066 -104.777 393.614C-91.7632 377.604 -83.5878 364.335 -78.0031 350.519C-73.2703 338.733 -70.0127 326.326 -68.3464 313.577C-66.271 297.529 -67.1644 281.319 -68.0282 265.555C-68.2939 261.538 -68.521 257.43 -68.6558 253.36C-69.3592 237.989 -65.4506 226.615 -56.4175 217.502C-48.3875 209.486 -38.3619 208.598 -28.8692 208.463C-20.6764 208.325 -12.6219 210.839 -3.52161 216.288C11.131 225.044 23.5212 236.863 35.4744 248.173C39.1109 251.653 42.8396 255.171 46.607 258.597C63.1574 273.681 76.9526 283.704 91.3083 291.36C98.5977 295.18 106.357 298.655 113.84 302.015C117.674 303.733 121.692 305.529 125.579 307.378C131.218 309.963 136.949 312.587 142.496 315.133C155.803 321.155 169.57 327.37 182.712 334.299C207.269 347.106 225.912 364.696 238.244 386.469C245.149 398.696 251.268 411.244 258.311 426.24C265.835 442.415 272.625 456.98 278.567 472.274C284.563 487.698 290.108 504.452 290.805 522.423C291.37 540.448 289.506 554.958 284.77 568.045C281.77 576.221 277.955 584.272 273.257 591.844C263.474 607.909 252.288 622.409 240.076 634.959C219.34 656.186 195.766 677.198 165.792 701.053C150.165 713.471 136.158 721.255 121.639 725.353C111.169 728.332 101.444 729.02 92.8182 727.35C82.8773 725.453 72.9068 723.11 63.2517 720.791C55.9643 719.032 48.4537 717.288 41.0888 715.714C35.4075 714.521 29.4791 713.658 23.8273 712.912C20.8438 712.527 17.6758 712.064 14.6388 711.548C12.2859 711.21 9.97163 710.781 7.61872 710.444C0.283361 709.316 -7.32858 708.071 -14.7322 706.589C-22.0436 705.146 -29.3845 703.256 -36.5797 701.536C-39.8159 700.719 -43.1831 699.956 -46.4192 699.139L-45.7574 696.272C-42.4825 696.997 -39.1541 697.852 -35.9179 698.669C-28.8536 700.442 -21.4739 702.24 -14.1625 703.683C-6.75895 705.165 0.760819 706.371 8.09618 707.499C10.4491 707.836 12.7633 708.266 15.1162 708.603C18.1532 709.119 21.229 709.543 24.2125 709.928C29.9565 710.714 35.885 711.576 41.6585 712.808C49.1155 714.421 56.6261 716.165 63.9135 717.923C73.4765 720.204 83.4469 722.547 93.2956 724.405C101.514 726.013 110.793 725.354 120.778 722.497C134.943 718.467 148.649 710.882 163.936 698.756C193.78 674.954 217.276 654.127 237.881 632.953C249.924 620.548 260.941 606.194 270.646 590.314C275.175 582.888 279.004 575.06 281.834 567.029C286.416 554.311 288.217 540.208 287.72 522.538C287.184 504.959 281.614 488.521 275.726 473.358C269.837 458.195 263.047 443.63 255.523 427.455C248.572 412.498 242.414 400.042 235.602 387.854C223.523 366.512 205.263 349.3 181.313 336.856C168.224 330.058 154.495 323.751 141.281 317.768C135.734 315.222 130.003 312.598 124.364 310.013C120.477 308.164 116.551 306.407 112.625 304.65C105.142 301.29 97.3827 297.815 89.9089 293.917C75.2766 286.146 61.3357 275.953 44.6009 260.791C40.8335 257.365 37.0513 253.716 33.3761 250.329C21.5151 239.057 9.17837 227.369 -5.10544 218.768C-13.7834 213.605 -21.2461 211.231 -28.9004 211.379C-38.2087 211.591 -47.1722 212.274 -54.354 219.562C-62.8007 228.054 -66.3996 238.69 -65.7553 253.168C-65.6204 257.238 -65.3934 261.346 -65.1276 265.363C-64.2103 281.258 -63.3022 297.691 -65.4938 314.016C-67.2375 326.949 -70.5191 339.671 -75.3293 351.642C-81.0301 365.734 -89.4139 379.242 -102.544 395.528C-120.151 417.31 -142.452 434.517 -170.598 448.077C-184.717 454.838 -199.511 460.882 -213.781 466.711C-218.363 468.583 -222.814 470.402 -227.396 472.273C-244.794 479.61 -259.108 490.193 -269.907 503.771C-277.024 512.712 -282.39 522.39 -285.742 532.696C-289.263 543.148 -289.888 554.707 -287.851 569.229C-286.953 575.354 -285.023 584.19 -280.496 590.972C-268.371 609.621 -250.593 620.232 -227.637 622.389C-218.57 623.268 -209.31 623.686 -200.365 624.08C-191.104 624.498 -181.66 624.994 -172.277 625.897C-163.933 626.689 -155.132 628.975 -146.073 632.454C-132.325 637.685 -120.844 647.278 -110.645 655.791C-95.3726 668.495 -80.8158 678.513 -65.8922 686.624C-61.4758 689.021 -56.7588 691.218 -52.1875 693.246C-50.1056 694.229 -47.985 695.12 -45.9418 696.195L-47.1956 698.922C-49.2774 697.939 -51.2672 696.995 -53.3878 696.105C-57.9203 693.984 -62.7682 691.84 -67.2769 689.404C-82.2927 681.255 -97.0873 671.029 -112.413 658.194C-122.467 649.851 -133.802 640.427 -147.088 635.39C-155.964 631.988 -164.488 629.818 -172.517 629.05C-181.807 628.185 -191.252 627.69 -200.512 627.272C-209.549 626.839 -218.81 626.421 -227.969 625.503C-236.274 624.618 -244.023 622.666 -251.03 619.724Z" fill="#F2F6F7"/>
        <path d="M86.4891 784.779C79.4911 781.298 74.1839 775.598 69.1146 770.107C68.1483 769.051 67.1819 767.994 66.1769 767.03C57.0728 757.458 47.6773 747.548 35.2007 741.874C29.9305 739.444 23.0542 736.448 15.7759 734.151C8.90517 731.917 1.8261 729.92 -4.93767 727.947C-11.7014 725.975 -18.7805 723.978 -25.559 721.782C-54.3567 712.617 -82.0778 698.048 -110.319 676.969L-111.824 675.903C-122.717 667.75 -133.94 659.35 -146.586 653.822C-159.324 648.256 -171.246 644.876 -183.257 643.52C-192.154 642.495 -201.221 641.616 -210.011 640.853C-217.002 640.195 -224.177 639.46 -231.221 638.671C-250.039 636.734 -266.649 629.542 -280.723 617.341C-290.753 608.682 -297.335 599.302 -300.852 588.823C-305.765 574.179 -307.23 558.813 -305.486 540.456C-303.739 520.8 -295.704 502.699 -280.732 485.125C-271.163 473.959 -258.569 465.148 -240.963 457.574C-236.735 455.77 -232.599 453.928 -228.41 452.217C-215.856 446.859 -202.91 441.341 -190.401 435.315C-157.518 419.514 -132.11 399.815 -112.609 374.815C-104.92 365.029 -98.7751 354.269 -94.1585 342.759C-85.4045 320.622 -82.9865 297.559 -86.8233 272.087C-88.5905 260.282 -90.6086 244.684 -90.2407 228.569C-89.9814 215.555 -82.5636 206.414 -76.2299 199.854C-63.7562 187.197 -47.3432 185.304 -34.5811 185.132C-28.0037 184.966 -22.4976 185.542 -17.6313 186.61C-5.64725 189.582 5.75804 195.998 17.1137 206.407C27.4644 215.851 37.0886 226.508 46.4602 236.735L48.3006 238.809C69.1903 261.898 88.9381 277.891 110.384 289.066C120.27 294.194 130.534 298.938 140.521 303.566C142.787 304.626 145.053 305.686 147.32 306.746L149.125 307.613C171.788 318.214 195.281 329.164 215.528 345.259C227.64 354.901 237.144 367.135 244.668 377.887C252.139 388.507 257.413 400.484 262.527 412.067C263.849 415.117 265.317 418.337 266.732 421.425C273.07 435.258 280.891 452.534 288.091 469.223C298.072 492.72 302.475 516.586 301.309 540.283C300.651 552.697 297.956 564.797 293.044 577.268C285.529 596.455 273.954 615.238 257.562 634.385C248.579 644.929 238.805 655.033 229.277 664.806C223.908 670.361 218.238 676.114 212.884 681.892C203.556 691.966 194.15 702.224 185.03 712.06C173.488 724.567 161.529 737.549 149.685 750.254C140.304 760.198 129.173 771.467 115.113 779.12C106.076 784.11 96.7546 786.161 87.319 785.127L87.5014 783.143C96.6604 784.061 105.366 782.185 114.141 777.302C127.9 769.848 138.901 758.632 148.205 748.873C160.009 736.26 171.968 723.278 183.55 710.679C192.708 700.751 202.114 690.492 211.403 680.511C216.757 674.733 222.427 668.98 227.835 663.333C237.324 653.652 247.098 643.548 256.043 633.096C272.265 614.095 283.763 595.496 291.2 576.494C296.035 564.207 298.652 552.291 299.325 540.101C300.467 516.719 296.079 493.076 286.258 469.972C279.151 453.321 271.291 436.138 264.952 422.305C263.538 419.216 262.162 416.035 260.748 412.947C255.687 401.494 250.374 389.61 243.049 379.159C235.54 368.63 226.22 356.474 214.254 347.002C194.283 331.023 170.883 320.112 148.181 309.602L146.376 308.736C144.109 307.676 141.843 306.616 139.577 305.555C129.59 300.928 119.326 296.184 109.387 290.925C87.795 279.58 67.8627 263.51 46.7352 240.212L44.8948 238.138C35.6154 227.95 26.0834 217.332 15.694 207.98C4.57614 197.779 -6.55253 191.479 -18.1678 188.662C-22.811 187.58 -28.2249 187.042 -34.5792 187.193C-47.0259 187.39 -62.9005 189.292 -74.9188 201.381C-81.1363 207.664 -88.1761 216.421 -88.3488 228.713C-88.678 244.735 -86.7133 260.202 -84.9074 271.915C-81.0024 297.742 -83.3909 321.25 -92.3532 343.626C-97.0473 355.32 -103.27 366.264 -110.998 376.143C-130.668 401.288 -156.323 421.317 -189.468 437.225C-201.977 443.252 -215.015 448.731 -227.569 454.088C-231.797 455.892 -235.986 457.603 -240.122 459.446C-257.466 466.913 -269.852 475.486 -279.121 486.453C-293.753 503.735 -301.633 521.467 -303.41 540.677C-305.037 558.758 -303.587 573.9 -298.873 588.244C-295.463 598.461 -289.042 607.448 -279.342 615.86C-265.598 627.814 -249.226 634.798 -230.854 636.764C-223.81 637.553 -216.596 638.196 -209.737 638.908C-200.985 639.763 -191.826 640.681 -182.89 641.613C-170.787 643.008 -158.642 646.373 -145.758 652.109C-132.835 657.753 -121.559 666.284 -110.574 674.476L-109.069 675.542C-80.9734 696.451 -53.4754 711.035 -24.8621 720.122C-18.0836 722.318 -11.0045 724.315 -4.24074 726.288C2.61523 728.299 9.6943 730.296 16.4728 732.491C23.8433 734.827 30.8119 737.862 36.082 740.292C48.8887 746.212 58.4686 756.201 67.7184 765.942C68.6847 766.998 69.651 768.055 70.656 769.019C75.7789 774.641 80.7413 779.87 87.4627 783.235L86.4891 784.779Z" fill="#F2F6F7"/>
        <path d="M92.0429 610.647C90.5143 609.897 88.8547 609.2 87.1951 608.503C83.5458 606.862 79.7656 605.275 76.3099 603.173C69.6751 599.085 63.8313 595.438 58.8063 590.616C44.5369 576.815 42.4725 558.486 42.3942 542.401C42.2791 528.47 43.7886 514.028 46.9169 498.314C52.3146 471.513 63.1521 446.997 80.0876 423.198C91.6945 406.923 108.092 399.384 128.889 400.741C133.434 401.023 138.422 402.576 143.799 405.268C157.242 411.997 168.428 422.552 179.222 438.689C189.923 454.788 198.441 470.404 205.412 486.347C214.241 506.649 217.066 524.972 214.041 542.248C212.869 548.914 209.382 555.151 205.973 561.203L205.092 562.785C197.044 577.301 184.74 589.813 168.465 599.898C156.583 607.273 143.656 611.714 130.06 612.838C115.572 614.021 103.789 613.411 92.8193 610.865L93.4811 607.998C104.082 610.389 115.642 611.013 129.776 609.899C142.925 608.804 155.422 604.616 166.911 597.402C182.792 587.477 194.718 575.348 202.573 561.293L203.454 559.711C206.655 553.897 210.064 547.845 211.135 541.679C214.136 524.718 211.476 507.549 202.794 487.417C195.969 471.644 187.465 456.251 176.856 440.19C166.407 424.523 155.551 414.216 142.623 407.81C137.615 405.273 132.995 403.876 128.858 403.657C109.099 402.409 93.6179 409.574 82.6213 424.913C65.8794 448.251 55.158 472.49 49.954 498.83C46.8643 514.452 45.3788 528.579 45.4791 542.287C45.5667 557.833 47.5333 575.362 61.0355 588.407C65.8227 593.021 71.5742 596.629 77.9324 600.6C81.2037 602.625 84.8917 604.174 88.4488 605.776C90.0162 606.434 91.7293 607.262 93.2967 607.92L92.0429 610.647Z" fill="#F2F6F7"/>
        <path d="M-172.247 775.366C-171.536 768.507 -174.57 761.268 -181.11 753.857C-188.763 745.22 -199.154 739.23 -213.919 734.873C-218.669 733.529 -223.512 732.147 -228.17 730.842C-238.762 727.912 -249.814 724.789 -260.451 721.19C-291.437 710.781 -316.398 696.611 -336.561 677.732C-348.315 666.722 -357.338 655.666 -364.213 643.886C-367.857 637.583 -371.084 630.805 -374.258 624.158C-375.084 622.509 -375.779 620.807 -376.606 619.159L-378.667 613.738C-380.886 606.624 -383.013 599.549 -385.139 592.473C-390.939 573.226 -396.968 553.233 -403.584 533.86C-408.2 520.317 -413.84 506.885 -419.357 493.939C-420.733 490.759 -422.109 487.578 -423.354 484.344C-428.741 471.344 -431.116 457.114 -430.229 442.086C-429.527 430.342 -423.536 419.95 -418.326 410.642C-409.483 395.266 -397.654 382.338 -383.034 372.317C-372.622 365.084 -361.057 361.047 -344.319 358.64C-329.706 356.642 -274.523 357.473 -273.985 357.482L-273.893 357.52C-249.834 356.018 -230.191 348.757 -213.915 335.31C-204.948 327.905 -198.738 318.799 -194.869 307.517C-187.337 285.192 -193.41 264.529 -200.247 247.233C-203.31 239.547 -206.558 231.784 -209.698 224.283C-213.427 215.342 -217.263 206.139 -220.823 197.052C-225.238 185.871 -226.719 173.643 -225.496 159.624C-225.226 156.917 -224.094 153.704 -222.007 150.026C-214.046 136.232 -203.519 126.662 -190.82 121.474C-175.672 115.362 -160.165 109.944 -145.142 104.647C-118.778 95.328 -95.5923 84.0233 -74.3691 70.1592C-61.8619 62.0709 -48.0327 51.6093 -40.2576 35.677C-37.1398 29.2857 -35.3312 23.4292 -34.9 17.7534L-37.8504 16.5144C-38.112 22.0445 -39.8284 27.9397 -42.9462 34.3311C-50.4503 49.618 -63.8093 59.7347 -76.0159 67.6238C-97.0695 81.3422 -119.993 92.54 -146.227 101.806C-161.249 107.102 -176.757 112.521 -192.035 118.686C-205.481 124.102 -216.425 134.149 -224.749 148.549C-227.122 152.65 -228.37 156.139 -228.649 159.384C-229.95 173.588 -228.278 186.654 -223.795 198.19C-220.275 207.369 -216.346 216.611 -212.671 225.421C-209.53 232.922 -206.283 240.685 -203.219 248.371C-196.505 265.182 -190.606 285.229 -197.843 306.593C-201.519 317.414 -207.443 326.098 -216.032 333.12C-231.891 346.091 -250.919 353.177 -274.308 354.635C-277.315 354.565 -330.344 353.771 -345.088 355.822C-362.049 358.244 -374.399 362.602 -385.074 369.942C-400.033 380.254 -412.201 393.474 -421.237 409.311C-426.617 418.765 -432.763 429.525 -433.551 441.992C-434.502 457.428 -432.097 472.104 -426.457 485.535C-425.081 488.716 -423.744 491.989 -422.368 495.169C-416.943 508.077 -411.265 521.416 -406.741 534.921C-399.863 554.186 -393.796 574.088 -387.995 593.335C-385.869 600.41 -383.65 607.524 -381.47 614.73L-379.394 620.374L-379.34 620.505C-378.514 622.153 -377.727 623.894 -376.9 625.543C-373.727 632.19 -370.499 638.968 -366.802 645.402C-359.82 657.444 -350.559 668.708 -338.567 679.926C-318.074 699.053 -292.875 713.431 -261.389 723.941C-250.661 727.579 -239.661 730.571 -229.016 733.631C-224.358 734.937 -219.516 736.319 -214.766 737.663C-200.554 741.788 -190.493 747.531 -183.316 755.751C-177.304 762.614 -174.591 769.068 -175.139 775.02C-175.715 780.526 -179.145 785.593 -185.335 790.261C-191.093 794.676 -197.357 798.228 -204.296 801.062L-200.516 802.65C-194.469 799.874 -188.768 796.628 -183.518 792.651C-176.689 787.493 -172.949 781.688 -172.247 775.366Z" fill="#F2F6F7"/>
        <path d="M331.562 999.515C333.514 997.19 335.52 994.996 337.473 992.67C349.18 979.257 361.264 965.46 370.655 949.555C378.113 936.96 383.482 925.983 385.532 913.611C386.931 905.631 387.015 897.423 386.998 889.715C386.973 868.338 382.084 847.955 376.718 827.156C370.516 803.185 363.88 777.405 358.053 750.988C354.088 733.054 353.464 714.137 355.948 694.79C358.274 677.112 363.23 659.887 367.992 643.123C369.375 638.281 370.874 633.162 372.203 628.189C379.439 601.401 381.169 574.036 377.382 544.572C373.873 517.285 367.408 487.998 357.569 455.124C349.924 429.68 340.154 402.583 327.591 372.579C315.135 342.836 296.373 318.038 271.757 298.916C258.854 288.833 245.065 279.572 231.828 270.543C227.275 267.438 222.63 264.294 218.077 261.189C202.108 250.145 188.724 238.884 176.974 226.575C173.745 223.158 171.049 218.989 168.498 214.989L167.993 214.126C157.087 196.965 149.618 177.56 142.416 158.809L142.255 158.416C135.627 140.882 128.715 125.832 121.315 112.204C116.47 103.337 110.879 94.6979 105.448 86.4519C102.698 82.152 99.8565 77.8133 97.0534 73.3824L92.3512 71.4077C95.7278 77.0556 99.3662 82.5965 102.951 88.0065C108.382 96.2525 113.92 104.76 118.672 113.589C126.019 127.086 132.786 141.967 139.453 159.408L139.613 159.801C146.868 178.683 154.391 198.219 165.496 215.681L166.001 216.544C168.698 220.713 171.355 224.974 174.822 228.599C186.626 241.04 200.248 252.509 216.401 263.631C220.954 266.736 225.599 269.879 230.152 272.984C243.389 282.013 257.086 291.236 269.897 301.28C294.091 320.116 312.6 344.483 324.803 373.794C337.273 403.76 347.083 430.764 354.674 456.078C364.46 488.82 370.963 518.016 374.457 545.079C378.176 574.19 376.509 601.147 369.336 627.527C368.006 632.5 366.546 637.527 365.125 642.461C360.324 659.317 355.383 676.765 353.018 694.536C350.379 714.251 351.071 733.523 355.105 751.811C360.893 778.319 367.529 804.099 373.731 828.071C379.082 848.647 383.918 868.899 383.875 889.922C383.93 897.538 383.792 905.614 382.51 913.318C380.43 925.243 375.177 935.944 367.928 948.301C358.653 963.929 346.699 977.673 335.032 990.994C332.987 993.281 331.073 995.514 329.12 997.839C322.962 1005.01 317.681 1011.91 313.162 1018.8L315.928 1019.96C320.447 1013.07 325.519 1006.41 331.562 999.515Z" fill="#F2F6F7"/>
    </g>
    <defs>
        <clipPath id="clip0">
            <rect width="1010.8" height="788" fill="white" transform="translate(-209.9) rotate(22.7793)"/>
        </clipPath>
    </defs>
</svg>
