<svg width="26" height="29" viewBox="0 0 26 29" fill="none" xmlns="http://www.w3.org/2000/svg">
    <path fill-rule="evenodd" clip-rule="evenodd" d="M11.1559 22.4955H19.5229V14.1285H11.1559V22.4955ZM13.9449 16.9175H16.7339V19.7065H13.9449V16.9175ZM22.3121 2.97252H20.9176V0.183517H18.1286V2.97252H6.97257V0.183517H4.18357V2.97252H2.78906C1.24814 2.97252 0.0140061 4.222 0.0140061 5.76153L6.10352e-05 25.2846C6.10352e-05 26.8255 1.24814 28.0736 2.78906 28.0736H22.3121C23.8516 28.0736 25.1011 26.8255 25.1011 25.2846V5.76153C25.1011 4.222 23.8516 2.97252 22.3121 2.97252ZM2.78916 9.94502H22.3122V25.2845H2.78916V9.94502Z" fill="#4397A5"/>
</svg>
