<svg width="611" height="1083" viewBox="0 0 611 1083" fill="none" xmlns="http://www.w3.org/2000/svg">
    <path d="M68.0715 912.371C76.6422 903.053 88.1104 898.418 97.2714 895.479C111.333 890.905 124.523 894.532 134.354 905.898C138.719 910.821 142.057 916.775 145.355 922.594C146.858 925.251 148.488 928.093 150.215 930.759C154.926 938.157 160.893 946.592 169.671 953.037C176.581 958.107 184.977 959.658 193.257 957.489C202.399 954.998 210.016 948.236 214.109 938.959C217.806 930.606 217.588 921.69 216.88 914.903C215.088 895.18 207.209 876.553 192.473 858.138C182.932 846.246 176.072 834.464 171.338 822.141C168.384 814.457 167.109 806.214 167.787 798.364C169.028 783.286 174.397 767.974 184.751 750.045C193.278 735.219 203.954 721.466 214.253 708.19C218.55 702.681 222.945 696.997 227.116 691.304C236.686 678.311 247.62 662.644 255.993 644.992C261.479 633.4 265.368 620.354 267.91 605.195C272.775 575.898 270.771 546.007 261.748 513.726C256.049 493.218 249.37 472.626 242.886 452.712L242.132 450.354C237.156 435.157 232.229 423.185 226.528 412.613C214.209 389.821 196.11 370.463 169.708 351.663C159.616 344.493 149.205 337.489 139.095 330.765C129.9 324.661 120.403 318.277 111.265 311.862C92.1622 298.461 76.2065 281.429 63.7779 261.318C58.783 253.192 54.2138 244.501 49.8983 236.179C47.2425 231.058 44.46 225.753 41.5809 220.622C34.0752 207.113 26.9525 195.185 16.8343 185.373C1.98304 170.892 -13.9385 162.903 -31.9327 160.737C-55.2707 157.906 -78.7125 159.814 -103.481 166.816C-116.7 170.485 -126.972 175.437 -135.977 182.231C-145.399 189.366 -151.246 196.647 -153.663 204.337C-156.996 214.719 -157.741 226.415 -156.057 242.194C-155.259 250.06 -154.285 258.022 -153.303 265.76C-152.568 271.877 -151.842 278.218 -151.067 284.471C-148.985 303.668 -153.712 322.99 -165.516 343.545C-173.173 356.794 -184.835 368.404 -202.181 379.96C-223.85 394.384 -249.308 405.118 -277.953 411.693C-286.223 413.639 -294.756 415.439 -302.968 417.074C-313.171 419.209 -323.82 421.326 -334.177 423.947C-353.89 428.828 -368.609 441.834 -377.964 462.713C-386.133 480.821 -389.238 499.895 -391.404 517.89C-393.255 533.659 -394.827 552.438 -391.637 571.903C-387.835 595.02 -377.837 614.36 -361.935 629.421C-346.471 644.24 -331.703 653.077 -315.363 657.414C-312.175 658.26 -308.996 659.329 -305.905 660.351C-301.268 661.882 -296.407 663.423 -291.48 664.43C-276.786 667.401 -261.836 671.771 -245.929 677.924C-230.771 683.779 -216.44 692.375 -203.336 703.607C-187.38 717.327 -171.131 731.551 -153.644 747.258C-143.8 756.119 -134.452 765.049 -127.788 776.152C-119.192 790.378 -120.122 802.201 -130.78 815.507C-135.398 821.182 -141.434 826.531 -148.416 830.901C-155.213 835.145 -162.653 838.691 -169.909 842.11C-172.373 843.263 -174.886 844.503 -177.35 845.656C-181.142 847.56 -185.149 849.232 -189.37 850.671L-185.956 852.556C-182.502 851.264 -179.223 849.876 -176.07 848.304C-173.606 847.151 -171.181 845.862 -168.717 844.71C-161.413 841.203 -153.885 837.705 -146.991 833.287C-139.826 828.79 -133.421 823.188 -128.658 817.25C-117.157 803.038 -116.125 789.787 -125.393 774.504C-132.311 763.033 -141.834 754.006 -151.805 744.961C-169.291 729.254 -185.492 714.942 -201.536 701.174C-214.855 689.71 -229.448 680.969 -245.004 675.008C-261.135 668.845 -276.172 664.427 -291.041 661.359C-295.745 660.362 -300.606 658.821 -305.155 657.338C-308.247 656.316 -311.562 655.286 -314.75 654.44C-330.603 650.258 -345.021 641.613 -360.144 627.211C-375.481 612.576 -385.235 593.828 -388.928 571.343C-392.088 552.236 -390.574 533.768 -388.684 518.135C-386.575 500.452 -383.479 481.6 -375.504 463.843C-366.544 443.888 -352.475 431.437 -333.664 426.743C-323.356 424.209 -312.794 422.044 -302.591 419.909C-294.33 418.187 -285.846 416.474 -277.44 414.489C-248.475 407.748 -222.658 396.984 -200.756 382.346C-182.907 370.497 -170.963 358.585 -163.113 344.986C-151.019 323.905 -146.177 303.961 -148.319 284.046C-149.006 277.841 -149.82 271.452 -150.555 265.335C-151.45 257.645 -152.424 249.683 -153.222 241.818C-154.924 226.486 -154.149 215.148 -150.922 205.165C-148.571 198.01 -143.15 191.293 -134.233 184.451C-125.596 177.91 -115.556 173.172 -102.784 169.485C-78.3357 162.649 -55.2924 160.635 -32.3137 163.496C-14.7664 165.644 0.143801 173.19 14.7416 187.302C24.5579 196.833 31.5538 208.576 38.9327 221.902C41.8119 227.032 44.5944 232.338 47.2501 237.459C51.6532 245.829 56.2223 254.52 61.2565 262.781C73.851 283.213 90.0603 300.613 109.513 314.207C118.738 320.67 128.148 327.007 137.431 333.159C147.54 339.882 157.952 346.886 167.956 354.008C193.969 372.48 211.766 391.556 223.88 413.893C229.454 424.28 234.391 436.029 239.327 451.09L240.081 453.448C246.565 473.362 253.244 493.954 258.904 514.326C267.722 546.151 269.695 575.683 264.985 604.494C262.451 619.43 258.707 632.212 253.367 643.542C245.09 661.019 234.253 676.511 224.731 689.416C220.56 695.109 216.166 700.793 211.916 706.215C201.569 719.579 190.893 733.332 182.221 748.42C171.674 766.699 166.2 782.41 164.852 797.886C164.156 806.183 165.461 814.785 168.572 823.013C173.385 835.607 180.459 847.623 190.215 859.747C204.522 877.697 212.244 895.781 214.015 914.92C214.605 921.3 214.842 929.769 211.482 937.509C207.736 945.95 200.906 952.117 192.578 954.373C185.202 956.355 177.738 954.977 171.568 950.428C163.179 944.313 157.426 936.111 152.842 928.897C151.203 926.279 149.661 923.486 148.158 920.829C144.772 914.961 141.307 908.822 136.815 903.716C126.127 891.419 111.829 887.524 96.5445 892.451C87.0634 895.555 75.0517 900.347 66.1035 910.143C58.8404 918.127 53.8626 927.144 50.9194 937.856C46.8218 952.727 46.278 967.162 47.6365 981.048L50.7882 982.788C49.1279 968.621 49.554 953.779 53.7482 938.732C56.3531 928.633 61.1376 919.966 68.0715 912.371Z" fill="#F2F6F7"/>
    <path d="M31.4171 877.174C38.1311 867.287 47.3084 859.56 56.2531 852.047C58.8018 849.913 61.3505 847.779 63.86 845.509C76.9511 834.003 87.7687 822.27 96.8263 809.793C100.716 804.402 104.48 798.826 108.146 793.426C114.153 784.406 120.442 775.084 127.451 766.731C140.86 750.717 155.969 734.728 172.274 719.056C193.51 698.795 210.741 681.237 225.752 661.081C240.81 640.837 249.57 622.485 253.035 603.38C257.448 579.659 257.478 558.087 253.4 537.332C248.901 514.858 241.977 493.674 235.897 475.925C230.092 459.128 224.13 441.787 216.975 425.159C206.595 400.924 188.988 380.468 163.22 362.588C144.108 349.41 124.649 337.069 106.232 325.532C81.3537 309.971 60.5045 290.009 44.191 266.382C35.0639 253.12 26.1785 239.42 17.6341 226.136L14.6884 221.54C7.69528 210.826 -2.18482 202.859 -10.9149 196.327C-17.4746 191.449 -24.8467 187.836 -31.6698 186.126C-50.9435 181.312 -70.2908 181.597 -89.3041 186.864C-116.286 194.358 -132.171 214.03 -131.821 239.468C-131.604 255.008 -130.91 270.925 -129.818 286.948C-128.928 300.233 -130.446 313.33 -134.308 325.705C-139.006 341.045 -145.694 353.573 -154.669 364.039C-170.694 382.721 -189.875 397.605 -211.662 408.309C-230.935 417.773 -252.156 425.591 -280.497 433.476C-282.807 434.143 -285.068 434.722 -287.33 435.301C-297.511 438.019 -308.013 440.903 -317.763 445.116C-338.767 454.196 -354.679 471.227 -365.249 495.547C-369.795 506.059 -372.793 518.111 -374.502 532.588C-378.327 566.001 -372.979 589.628 -357.006 609.525C-344.356 625.304 -327.62 636.37 -307.284 642.57C-297.737 645.555 -287.796 647.617 -278.165 649.621C-274.569 650.349 -270.798 651.174 -267.163 652.039C-253.013 655.167 -241.571 658.856 -231.204 663.665C-218.814 669.362 -206.564 677.381 -193.665 688.157C-189.684 691.497 -185.75 694.925 -181.856 698.216C-167.282 710.716 -152.28 723.681 -135.885 734.331C-131.351 737.291 -126.681 740.212 -122.059 743.22C-116.299 746.856 -110.412 750.677 -104.613 754.449L-102.609 755.784C-93.2777 761.849 -83.6448 768.195 -77.0831 777.414C-73.8657 781.932 -71.4124 787.626 -70.0853 793.499C-68.0194 803.206 -71.5207 812.239 -81.1392 822.007C-89.731 830.743 -100.517 836.211 -111.925 841.565C-124.885 847.661 -137.682 853.047 -151.885 858.913C-156.212 860.751 -160.666 862.404 -165.159 863.922L-162.883 865.178C-158.933 863.818 -155.023 862.321 -151.152 860.689C-137.404 855.028 -124.016 849.397 -111.143 843.253C-99.5995 837.86 -88.6293 832.265 -79.805 823.315C-73.4994 816.858 -65.3873 806.715 -68.2313 793.038C-69.5493 786.941 -72.0811 780.975 -75.5129 776.225C-82.3281 766.637 -92.0969 760.331 -101.555 754.082L-103.559 752.747C-109.358 748.975 -115.245 745.154 -121.005 741.517C-125.626 738.509 -130.209 735.637 -134.743 732.677C-151.051 722.076 -165.966 709.159 -180.452 696.707C-184.346 693.415 -188.279 689.988 -192.261 686.647C-205.199 675.736 -217.624 667.62 -230.189 661.827C-240.643 656.969 -252.221 653.319 -266.547 650.094C-270.182 649.23 -273.913 648.541 -277.548 647.676C-287.179 645.673 -297.073 643.524 -306.531 640.587C-326.469 634.492 -342.942 623.571 -355.339 608.161C-370.932 588.816 -376.113 565.509 -372.404 532.718C-370.792 518.417 -367.803 506.588 -363.353 496.251C-352.976 472.281 -337.393 455.639 -316.845 446.765C-307.144 442.639 -296.778 439.795 -286.597 437.077C-284.335 436.498 -282.025 435.831 -279.715 435.164C-251.239 427.239 -229.882 419.382 -210.472 409.879C-188.502 399.048 -169.088 383.95 -152.879 365.141C-143.719 354.549 -136.974 341.71 -132.131 326.107C-128.212 313.421 -126.684 300.101 -127.566 286.593C-128.706 270.657 -129.264 254.7 -129.529 239.248C-129.829 214.753 -114.465 195.819 -88.4742 188.465C-69.8202 183.228 -50.7446 183.021 -31.8695 187.729C-25.2698 189.43 -18.1603 192.898 -11.7274 197.591C-3.17236 204.027 6.58097 211.81 13.3597 222.292L16.3054 226.887C24.8498 240.171 33.7353 253.871 42.814 267.222C59.2543 291.032 80.2786 311.091 105.371 326.884C123.701 338.373 143.248 350.763 162.272 363.892C187.738 381.491 205.043 401.666 215.257 425.581C222.324 442.161 228.374 459.55 234.091 476.299C240.219 493.96 247.056 515.097 251.516 537.434C255.651 557.878 255.495 579.266 251.139 602.676C247.684 621.558 239.117 639.56 224.203 659.54C209.241 679.609 192.145 697.129 170.958 717.301C154.517 733.012 139.36 749.089 125.903 765.191C118.845 773.631 112.508 783.041 106.501 792.061C102.834 797.461 99.1587 803.085 95.2294 808.341C86.2202 820.73 75.4992 832.288 62.5441 843.755C60.0829 845.937 57.4858 848.159 54.9371 850.293C45.944 857.893 36.5826 865.747 29.7719 875.808C18.4338 892.623 13.3753 911.305 14.1915 933.001C14.6269 943.179 15.5484 953.511 16.9469 964.221L19.048 965.381C17.5319 954.263 16.5411 943.436 16.0756 932.899C15.3196 911.921 20.3207 893.55 31.4171 877.174Z" fill="#F2F6F7"/>
    <path d="M-3.58417 939.751C-6.11162 928.19 -8.35821 916.327 -10.623 904.911C-12.4746 895.436 -14.3563 885.602 -16.4706 875.982C-19.6192 860.994 -28.7415 853.102 -43.5356 852.589C-57.9704 852.045 -72.904 853.853 -89.1816 857.889C-110.302 863.249 -129.578 868.371 -147.689 873.452L-144.012 875.481C-126.717 870.637 -108.392 865.789 -88.4456 860.694C-72.4789 856.601 -57.8655 854.959 -43.6541 855.493C-30.2005 855.952 -22.2464 862.856 -19.4024 876.534C-17.3757 886.105 -15.494 895.939 -13.6424 905.414C-11.3776 916.83 -9.04342 928.742 -6.51598 940.303L-6.18125 941.973C-5.43332 945.584 -4.59782 949.243 -3.76234 952.903L-0.348056 954.788C-1.28297 950.274 -2.35373 945.799 -3.28865 941.285L-3.58417 939.751Z" fill="#F2F6F7"/>
    <path d="M107.769 1002.48C108.732 999.697 115.294 997.95 120.668 998.975C136.566 1002.04 150.633 1002.84 163.721 1001.27C186.928 998.544 205.099 990.87 219.42 977.758C232.858 965.415 239.969 951.293 241.011 934.506C242.481 910.531 236.789 888.77 231.684 872.359C228.079 860.888 224.027 849.399 220.092 838.317C216.803 828.963 213.436 819.337 210.331 809.856C205.199 794.115 204.2 780.2 207.449 767.486C209.909 757.65 214.195 748.023 218.153 738.785C218.742 737.511 219.243 736.189 219.832 734.915C225.605 721.767 233.225 709.411 240.74 697.454C244.231 691.957 247.78 686.148 251.194 680.379C260.968 663.501 267.157 650.013 271.288 636.53C276.246 620.305 278.753 602.728 279.326 580.999C280.261 545.991 271.341 512.282 261.514 481.043C260.847 478.733 260.045 476.462 259.378 474.153C253.794 456.335 248.013 437.838 240.575 420.481C231.425 398.982 217.164 379.916 198.442 363.755C182.184 349.754 164.24 337.565 146.91 325.713C142.901 323.043 138.94 320.286 135.067 317.577C113.474 302.687 96.6758 286.56 83.7667 268.354C77.7997 259.92 73.1794 250.288 69.8086 242.944C68.001 238.976 66.1934 235.009 64.3858 231.041C58.0246 216.907 51.5064 202.229 43.3788 188.604C34.8316 174.291 23.3582 162.588 8.36398 152.712C-1.44401 146.27 -12.5997 144.338 -23.2482 143.143C-58.8079 139.276 -92.4802 147.302 -123.653 156.594C-135.978 160.299 -146.58 165.641 -156.186 172.903C-169.862 183.401 -176.378 198.308 -174.767 215.874C-174.084 224.362 -172.73 232.876 -171.367 241.167C-170.409 247.294 -169.323 253.604 -168.636 259.809L-168.13 263.858C-166.789 274.878 -165.418 286.258 -165.737 297.39C-166.127 311.338 -172.153 324.118 -177.334 333.708C-186.583 350.877 -200.864 364.125 -223.49 376.764C-241.81 386.983 -259.217 393.479 -276.304 396.498C-286.041 398.204 -296.062 399.183 -305.724 400.132C-312.822 400.783 -320.105 401.56 -327.261 402.521C-330.232 402.937 -332.931 403.275 -335.543 403.661C-343.194 404.691 -349.854 405.584 -356.213 406.757C-364.737 408.334 -377.084 414.768 -377.588 415.061L-377.724 415.1C-385.14 420.258 -388.355 427.736 -391.723 435.7C-392.167 436.711 -392.611 437.723 -393.055 438.734C-397.197 448.099 -398.724 458.107 -400.193 467.804C-400.547 469.894 -400.813 472.031 -401.167 474.12L-404.056 501.081L-404.15 502.286C-404.902 515.236 -405.536 528.592 -405.85 541.783C-406.308 562.891 -402.982 582.317 -396.069 599.384C-384.521 627.918 -362.794 649.393 -329.806 664.747C-325.235 666.813 -320.414 668.218 -315.729 669.663C-314.27 670.125 -312.676 670.548 -311.218 671.01C-304.588 673.071 -297.512 675.15 -289.677 677.304C-286.713 678.141 -283.787 678.843 -280.862 679.544C-275.011 680.946 -269.072 682.397 -263.433 684.596C-250.647 689.369 -240.718 693.937 -232.235 698.848C-222.614 704.387 -213.863 711.503 -206.465 717.757C-196.467 726.132 -187.888 734.18 -180.164 742.328C-168.835 754.293 -159.765 764.554 -154.152 778.39C-149.204 790.945 -151.897 804.307 -161.437 814.347C-173.079 826.539 -188.207 835.321 -207.23 840.812L-204.778 842.165C-186.242 836.52 -171.473 827.768 -159.879 815.664C-149.826 805.108 -147.009 790.9 -152.241 777.617C-158.421 762.326 -169.574 750.458 -178.633 741.003C-186.357 732.855 -195.023 724.758 -205.109 716.336C-212.507 710.081 -221.433 702.869 -231.142 697.281C-239.8 692.273 -249.817 687.658 -262.602 682.884C-268.377 680.724 -274.403 679.225 -280.254 677.823C-283.18 677.122 -286.105 676.421 -289.07 675.584C-296.905 673.429 -303.894 671.399 -310.523 669.338C-311.981 668.876 -313.576 668.453 -315.034 667.99C-319.632 666.594 -324.453 665.189 -328.849 663.22C-361.35 648.019 -382.737 626.961 -394.079 598.883C-400.866 582.001 -404.113 562.846 -403.713 542.05C-403.447 528.946 -402.765 515.502 -402.061 502.64L-402.269 501.154L-399.34 474.329C-398.987 472.24 -398.633 470.151 -398.367 468.013C-396.945 458.403 -395.379 448.531 -391.383 439.429C-390.938 438.417 -390.494 437.406 -390.05 436.395C-386.682 428.431 -383.719 421.614 -376.806 416.749C-375.895 416.338 -364.091 410.061 -356.111 408.641C-349.752 407.468 -343.227 406.615 -335.576 405.584C-332.965 405.198 -330.265 404.861 -327.294 404.445C-320.138 403.483 -312.904 402.793 -305.806 402.143C-296.056 401.242 -286.035 400.263 -276.162 398.518C-258.804 395.421 -241.261 388.885 -222.756 378.54C-199.674 365.695 -185.248 352.184 -175.806 334.666C-170.529 324.9 -164.358 311.858 -163.95 297.463C-163.582 286.243 -164.992 274.728 -166.285 263.619L-166.791 259.571C-167.566 253.318 -168.516 246.968 -169.562 240.793C-170.885 232.638 -172.239 224.124 -172.971 215.724C-174.473 198.789 -168.257 184.63 -155.133 174.512C-145.711 167.377 -135.245 162.075 -123.24 158.536C-92.3388 149.322 -58.8898 141.287 -23.6412 145.096C-13.3036 146.234 -2.32305 148.069 7.13477 154.318C21.9147 163.962 33.1255 175.519 41.5459 189.648C49.586 203.224 56.1525 217.815 62.4262 231.901C64.2338 235.869 65.993 239.924 67.8006 243.892C71.1231 251.323 75.8309 261.004 81.9247 269.622C94.9605 288.012 111.886 304.323 133.654 319.309C137.614 322.067 141.623 324.737 145.584 327.494C162.827 339.297 180.771 351.487 196.941 365.44C215.449 381.367 229.447 400.289 238.518 421.516C245.869 438.824 251.698 457.234 257.283 475.052C257.949 477.362 258.752 479.632 259.419 481.942C270.666 517.85 278.014 548.406 277.121 581.267C276.558 602.773 274.012 620.214 269.15 636.264C265.116 649.571 258.975 662.972 249.21 679.627C245.933 685.357 242.296 691.117 238.805 696.614C231.29 708.571 223.486 721.054 217.752 734.337C217.163 735.611 216.662 736.934 216.072 738.208C211.931 747.573 207.732 757.248 205.175 767.259C201.909 780.419 202.85 794.646 208.1 810.794C211.244 820.411 214.611 830.037 217.948 839.304C221.883 850.386 225.935 861.875 229.54 873.346C234.654 889.533 240.307 911.158 238.807 934.774C237.744 950.978 230.914 964.799 217.853 976.664C203.949 989.435 186.098 996.943 163.338 999.685C150.386 1001.22 136.494 1000.52 120.819 997.459C114.959 996.281 107.232 998.069 105.767 1002.17L105.42 1003.01C104.359 1005.96 103.202 1009.09 102.54 1012.16L104.379 1013.17C105.001 1009.97 106.158 1006.84 107.316 1003.71L107.769 1002.48Z" fill="#F2F6F7"/>
    <path d="M200.125 1037.13C204.108 1033.84 208.179 1030.61 212.065 1027.5C220.207 1021.03 228.668 1014.39 236.39 1007.23C246.854 997.585 255.41 986.431 261.992 974.301C267.365 964.36 268.735 953.808 270.024 941.955C272.145 921.766 268.847 901.669 265.566 884.438C264.453 878.797 263.476 873.118 262.364 867.478C258.905 849.12 255.25 830.083 252.392 811.257C249.386 791.665 249.266 775.95 252.035 761.83C253.894 752.461 256.442 742.674 259.62 732.777C262.596 723.454 266.224 714.606 270.683 704.046C272.614 699.514 274.767 694.992 276.824 690.645C279.712 684.586 282.697 678.352 285.059 672.003C293.66 648.766 298.062 624.239 298.455 597.041C298.908 567.251 295.546 537.752 288.554 509.448C284.283 492.355 279.389 475.148 274.565 458.435C272.369 450.826 269.898 442.266 267.554 433.89C260.836 409.849 248.296 388.078 229.319 367.207C221.438 358.516 212.258 350.936 203.254 343.452L203.039 343.22C201.307 341.806 199.574 340.393 197.889 338.892C190.53 332.773 182.754 326.995 175.104 321.402C163.153 312.634 150.9 303.586 140.148 292.853C128.539 281.19 115.563 266.831 107.723 248.339C100.939 232.487 94.908 214.651 89.3453 194.103C83.3421 172.285 73.0483 151.411 57.7125 130.152C48.6456 117.608 37.5133 106.322 23.5276 95.8604C12.5003 87.4886 -0.152709 84.9586 -16.3365 87.7899C-28.3263 89.8522 -40.0389 93.8953 -51.3921 97.9083C-56.6128 99.7095 -62.1052 101.589 -67.501 103.294C-94.8783 111.711 -115.812 117.974 -135.29 123.67C-141.677 125.513 -148.189 127.172 -154.566 128.792C-163.7 131.061 -173.018 133.456 -182.179 136.394C-196.377 141.007 -207.32 149.244 -214.554 160.9C-216.372 163.78 -218.209 167.107 -218.608 170.313L-218.799 171.693C-219.854 180.02 -221.006 188.521 -218.838 196.801C-216.669 205.08 -214.5 213.359 -212.331 221.638L-212.261 222.134C-209.709 231.995 -206.992 242.176 -204.449 252.261C-201.483 264.064 -198.658 278.189 -200.784 293.007C-203.729 313.655 -213.078 329.968 -228.684 341.685C-247.43 355.781 -268.642 363.375 -293.503 364.958C-307.147 365.879 -320.739 364.429 -333.933 363.086C-339.102 362.517 -344.406 361.987 -349.72 361.681L-351.197 361.666C-354.237 361.586 -357.229 361.42 -360.173 361.165C-366.779 360.717 -373.744 360.299 -380.356 361.103C-397.63 363.219 -411.154 368.889 -421.929 378.475C-430.805 386.483 -441.682 397.498 -446.529 412.071C-450.662 424.524 -451.432 437.92 -448.772 451.725C-442.24 485.829 -437.365 514.449 -434.887 543.688C-434.224 551.592 -433.067 559.427 -431.453 567.057L-430.238 574.582C-426.444 591.297 -422.541 608.643 -413.553 624.228C-402.175 643.759 -387.883 659.873 -371.241 672.144C-358.511 681.57 -346.439 688.462 -334.547 693.199C-329.569 695.148 -324.445 696.834 -319.458 698.559C-316.279 699.629 -313.1 700.698 -309.833 701.816C-306.965 702.828 -304.097 703.84 -301.317 704.804C-291.167 708.351 -280.755 712.043 -270.535 716.085C-264.371 718.574 -258.553 721.9 -252.824 725.177L-250.81 726.288C-240.449 732.35 -232.568 741.042 -226.215 748.775C-220.504 755.811 -216.644 764.339 -214.998 773.357C-212.709 786.386 -219.176 797.894 -233.229 805.556C-239.776 809.139 -246.79 812.12 -254.623 814.307L-252.171 815.66C-245.009 813.446 -238.451 810.67 -232.224 807.253C-217.386 798.996 -210.581 786.876 -213.056 772.944C-214.733 763.566 -218.671 754.767 -224.683 747.45C-231.076 739.581 -239.172 730.657 -249.795 724.45L-251.809 723.338C-257.538 720.061 -263.443 716.687 -269.696 714.15C-279.915 710.108 -290.415 706.367 -300.565 702.82C-303.433 701.808 -306.301 700.796 -309.081 699.832C-312.299 698.627 -315.614 697.597 -318.706 696.576C-323.606 694.899 -328.729 693.213 -333.707 691.264C-345.511 686.576 -357.36 679.692 -369.963 670.45C-386.391 658.412 -400.469 642.53 -411.72 623.184C-420.63 607.871 -424.542 590.748 -428.209 574.217L-429.385 566.828L-429.424 566.693C-431.086 559.15 -432.156 551.363 -432.867 543.546C-435.384 514.172 -440.211 485.464 -446.743 451.36C-449.548 437.818 -448.883 424.82 -444.808 412.678C-440.067 398.504 -429.422 387.703 -420.692 379.958C-410.285 370.625 -397.081 365.121 -380.167 363.036C-373.778 362.222 -366.948 362.679 -360.342 363.128C-357.35 363.294 -354.358 363.461 -351.366 363.628L-349.938 363.731C-344.673 364.125 -339.368 364.654 -334.199 365.223C-321.005 366.567 -307.277 367.977 -293.41 367.065C-268.19 365.453 -246.658 357.692 -227.591 343.431C-211.617 331.46 -201.978 314.621 -198.966 293.439C-196.783 278.31 -199.599 263.962 -202.691 251.975C-205.234 241.89 -207.952 231.709 -210.504 221.847L-210.622 221.44C-212.791 213.16 -214.96 204.881 -217.129 196.602C-219.18 188.73 -218.124 180.403 -217.078 172.3L-216.887 170.92C-216.506 168.161 -214.766 165.009 -213.093 162.392C-206.053 151.086 -195.526 143.191 -181.784 138.783C-172.759 135.883 -163.441 133.488 -154.307 131.22C-147.93 129.6 -141.418 127.941 -135.031 126.098C-115.465 120.45 -94.6192 114.139 -67.2419 105.721C-61.8461 104.017 -56.3537 102.137 -51.0847 100.248C-39.7798 96.3228 -28.2031 92.319 -16.3491 90.2958C-0.708876 87.6214 11.4581 89.9973 22.0085 97.9917C35.8191 108.357 46.8246 119.458 55.8039 131.954C70.9738 152.893 81.2283 173.631 87.1531 195.178C92.755 215.861 98.7863 233.697 105.609 249.685C113.527 268.449 126.63 282.992 138.415 294.752C149.254 305.533 161.682 314.678 173.633 323.446C181.195 328.991 188.972 334.768 196.331 340.887C198.064 342.301 199.797 343.714 201.481 345.215L201.695 345.447C210.525 352.834 219.792 360.463 227.546 368.97C246.397 389.656 258.722 411.195 265.411 434.877C267.755 443.253 270.265 451.949 272.461 459.558C277.245 476.134 282.226 493.39 286.41 510.435C293.363 538.603 296.686 567.966 296.241 597.533C295.81 624.594 291.465 648.811 282.961 671.873C280.647 678.134 277.662 684.368 274.823 690.339C272.766 694.687 270.612 699.209 268.681 703.74C264.223 714.301 260.634 723.285 257.522 732.647C254.295 742.631 251.747 752.418 249.84 761.874C247.062 776.218 247.086 792.108 250.17 811.973C253.115 830.846 256.682 849.835 260.229 868.241C261.342 873.882 262.367 879.473 263.431 885.201C266.673 902.297 269.932 922.258 267.82 942.223C266.589 953.766 265.179 964.182 260.087 973.821C253.689 985.824 245.19 996.667 234.911 1006.18C227.237 1013.26 218.863 1019.94 210.722 1026.41C206.836 1029.52 202.629 1032.8 198.646 1036.08C192.114 1041.5 185.156 1047.48 178.745 1054.34L180.496 1055.3C186.916 1048.22 193.69 1042.37 200.125 1037.13Z" fill="#F2F6F7"/>
    <path d="M-25.7313 644.248C-31.5969 641.01 -36.8224 637.44 -41.622 633.305C-49.5369 626.537 -53.3664 618.369 -53.3158 608.345C-53.2861 597.739 -51.6743 586.749 -48.4229 575.066C-46.5948 568.65 -45.0293 562.09 -43.5605 555.704C-43.0709 553.576 -42.5421 551.583 -42.0525 549.455L-40.2271 542.01C-38.7765 536.071 -37.3742 530.22 -35.9236 524.282L-35.2316 521.58C-33.6661 515.019 -31.9556 508.196 -30.206 501.509C-29.1 497.437 -27.849 493.101 -26.278 488.6C-25.4108 485.994 -24.4954 483.302 -23.6283 480.696C-21.3351 473.852 -19.0811 466.872 -16.166 460.143C-9.64094 445.012 -1.1891 427.632 12.3614 413.638C18.948 406.88 25.9294 402.509 33.6652 400.497C52.2618 395.571 70.141 398.359 85.2152 401.883C103.215 406.108 119.015 415.973 133.347 432.222C142.933 442.997 150.331 455.876 155.421 470.451C157.819 477.486 160.441 484.531 162.849 491.343C167.273 503.608 171.814 516.281 175.82 528.887C181.1 545.394 182.301 562.049 179.577 578.364C177.397 591.21 170.927 601.689 165.026 610.31C152.507 628.643 134.442 643.572 109.727 655.858C90.0363 665.663 69.0668 669.507 47.3621 667.235C36.6652 666.127 22.6926 664.125 9.16769 658.829C5.02567 657.228 0.651129 655.841 -3.54833 654.551C-5.31748 654.032 -7.03834 653.424 -8.80749 652.905L-8.2394 651.048C-6.51858 651.655 -4.74944 652.175 -3.06784 652.646C1.21916 653.985 5.59368 655.372 9.82325 657.021C23.0855 662.172 36.9222 664.213 47.3957 665.312C68.7412 667.614 89.3513 663.8 108.722 654.161C133.117 642.041 150.949 627.326 163.187 609.295C169.04 600.761 175.365 590.546 177.439 578.098C180.106 562.094 178.848 545.75 173.734 529.563C169.727 516.957 165.186 504.284 160.802 492.155C158.307 485.294 155.82 478.211 153.334 471.127C148.323 456.824 141.052 444.129 131.68 433.587C117.514 417.657 102.113 407.898 84.5505 403.915C69.739 400.536 52.1315 397.67 33.8942 402.566C26.4302 404.499 19.953 408.577 13.5507 415.208C0.232638 428.988 -8.16177 446.057 -14.6385 461.1C-17.5053 467.742 -19.8076 474.81 -22.0524 481.566C-22.9196 484.171 -23.835 486.864 -24.7021 489.47C-26.2248 493.884 -27.4758 498.219 -28.5334 502.204C-30.2831 508.891 -31.9453 515.627 -33.5108 522.187L-34.2028 524.889C-35.6534 530.828 -37.104 536.766 -38.5063 542.617L-40.3316 550.062C-40.8212 552.191 -41.3501 554.183 -41.8397 556.312C-43.3085 562.697 -44.9223 569.345 -46.7504 575.76C-49.9535 587.357 -51.5562 598.123 -51.6251 608.593C-51.6484 617.947 -48.1116 625.611 -40.5861 632.049C-32.9731 638.536 -24.2367 643.816 -13.8515 648.178C-12.5292 648.68 -11.2643 649.492 -10.1353 650.344C-9.61003 650.634 -9.13314 651.011 -8.69541 651.253L-9.74949 652.956C-10.2748 652.666 -10.7517 652.288 -11.277 651.998C-12.4543 651.234 -13.5441 650.518 -14.643 650.026C-18.3199 647.996 -22.1419 646.229 -25.7313 644.248Z" fill="#F2F6F7"/>
    <path d="M-79.2323 657.776C-80.4972 656.964 -81.7137 656.064 -82.9786 655.251C-86.4622 652.871 -90.1693 650.482 -93.6438 647.879C-107.512 637.825 -105.644 617.267 -99.0205 606.303L-97.009 603.073C-91.6327 594.161 -86.0238 585.035 -81.523 575.641C-75.3608 562.822 -69.5187 550.17 -65.6691 536.989C-62.4359 525.752 -60.1265 514.12 -57.9621 502.75C-56.8981 497.512 -55.9126 492.002 -54.7128 486.724C-53.5521 481.311 -52.3431 475.81 -51.1433 470.533C-49.7802 464.546 -48.3597 458.248 -47.1234 452.077C-44.5149 439.696 -40.3334 427.155 -34.588 414.678C-27.8668 400.227 -20.0979 385.325 -5.38903 375.854C2.79432 370.549 11.7284 369.883 20.0524 369.909C33.2525 370 47.0016 371.993 60.7563 376.045C64.1195 376.988 67.6186 377.891 70.9818 378.834C77.2705 380.478 83.6467 382.17 89.8688 384.348C97.4133 387.028 104.961 390.738 112.52 395.253C126.364 403.695 135.981 411.517 143.893 420.568C154.279 432.584 162.585 447.334 169.452 465.518C172.445 473.338 175.07 481.412 177.704 489.263C178.938 493.028 180.221 496.706 181.503 500.384C187.347 517.317 193.282 535.328 195.014 554.332C196.562 570.15 194.542 584.569 189.01 597.279C184.464 607.791 177.605 617.94 168.008 628.29C148.667 649.255 125.73 665.149 99.8434 675.417C78.1391 684.11 55.6513 686.774 33.2343 683.309C24.3822 681.963 15.645 679.996 7.13123 678.037C3.98233 677.327 0.745882 676.569 -2.45135 675.946L-2.8499 675.84C-19.1771 672.31 -36.1262 668.665 -52.7069 664.766C-58.6937 663.403 -64.759 661.768 -70.6884 660.094C-73.2546 659.363 -75.7332 658.68 -78.3477 658.036L-77.6074 655.247L-79.2323 657.776ZM106.351 395.046C100.573 391.857 94.7287 389.202 88.9926 387.177C82.9063 384.96 76.5301 383.268 70.329 381.672C66.9174 380.817 63.4667 379.826 60.0159 378.834C46.4363 374.879 33.0465 372.856 20.1574 372.823C12.1927 372.767 3.84134 373.411 -3.74107 378.249C-17.7615 387.301 -25.2887 401.764 -31.9041 415.817C-37.5046 428.031 -41.7254 440.436 -44.1888 452.555C-45.561 458.765 -46.9332 464.976 -48.257 471.098C-49.4569 476.376 -50.6658 481.876 -51.8265 487.29C-52.9388 492.615 -54.0119 498.077 -55.0759 503.315C-57.2403 514.685 -59.6463 526.493 -62.9278 537.817C-66.8741 551.173 -72.7645 563.913 -79.0234 576.906C-83.6208 586.476 -89.278 595.69 -94.6543 604.601L-96.6659 607.831C-102.67 617.881 -104.369 636.476 -91.9797 645.485C-88.4568 648.001 -84.8856 650.429 -81.402 652.809C-80.1371 653.622 -78.9205 654.522 -77.6557 655.334C-75.0895 656.065 -72.5626 656.661 -69.9964 657.392C-64.1545 659.018 -58.1768 660.604 -52.19 661.967C-35.6092 665.866 -18.6601 669.511 -2.33293 673.041L-1.93443 673.147C1.21447 673.857 4.49924 674.528 7.73568 675.287C16.1619 677.197 24.9867 679.213 33.6153 680.549C55.6338 683.909 77.539 681.266 98.7389 672.865C124.218 662.715 146.787 647.074 165.846 626.412C175.211 616.276 181.925 606.389 186.278 596.227C191.655 584.004 193.521 570.07 192.043 554.748C190.341 536.103 184.446 518.228 178.68 501.567C177.397 497.889 176.163 494.124 174.929 490.358C172.335 482.644 169.622 474.521 166.716 466.749C160.015 448.886 151.739 434.494 141.655 422.759C134.006 413.854 124.603 406.264 111.021 397.967C109.455 396.874 107.927 395.916 106.351 395.046Z" fill="#F2F6F7"/>
    <path d="M-104.595 674.959C-106.638 673.488 -108.682 672.017 -110.638 670.595C-115.076 667.46 -119.728 664.092 -123.924 660.52C-141.048 645.812 -147.849 627.094 -144.073 604.735C-142.831 597.311 -138.019 591.285 -133.731 586C-130.759 582.272 -127.612 578.64 -124.514 575.096C-119.44 569.216 -114.221 563.073 -109.664 556.679C-103.732 548.417 -99.3007 538.527 -95.4995 525.434C-91.7949 512.515 -90.6656 499.089 -89.6421 486.061C-89.3122 482.36 -89.0214 478.522 -88.6915 474.821C-86.9633 456.585 -84.6048 441.553 -78.418 427.035C-77.0767 423.777 -75.6871 420.432 -74.2583 417.223C-71.6723 410.883 -68.8539 404.329 -65.9962 397.911C-60.734 386.309 -55.7891 375.903 -50.3189 365.787C-45.7761 357.558 -40.6688 349.754 -35.0453 342.464C-29.0443 334.697 -20.01 331.574 -8.98111 333.322C-3.42291 334.22 2.39792 335.263 7.91057 337.278C21.3662 342.078 34.5318 347.404 46.9095 352.295C49.8168 353.443 52.8116 354.64 55.7189 355.788C67.3479 360.38 79.3271 365.165 90.8805 370.515C107.092 377.979 125.951 387.476 142.161 401.564C159.023 416.127 171.467 434.761 178.928 457.042C181.122 463.621 183.539 470.21 185.781 476.702C189.754 487.919 193.894 499.457 197.403 511.103C202.254 527.145 205.865 540.675 207.583 554.531C209.807 572.435 206.853 589.994 199.25 605.216C193.453 616.751 185.401 627.612 173.062 640.447C156.229 658.112 135.964 671.026 116.656 682.413C98.2694 693.167 77.9575 699.545 56.2155 701.478C43.9995 702.502 30.7875 701.605 15.9093 698.76L11.3807 697.86C-14.4205 692.869 -41.0187 687.667 -67.6205 684.747C-82.0581 683.174 -93.5758 680.242 -103.904 675.569L-103.112 673.722C-92.9595 678.298 -81.6652 681.22 -67.451 682.784C-40.7617 685.753 -14.1151 690.867 11.7253 695.994L16.254 696.895C30.9087 699.73 43.8972 700.618 56.0257 699.546C77.4084 697.642 97.4969 691.255 115.651 680.716C134.91 669.417 154.991 656.629 171.64 639.091C183.795 626.383 191.751 615.697 197.451 604.337C204.996 589.426 207.757 572.217 205.65 554.72C203.972 541.001 200.4 527.607 195.501 511.652C192.031 500.142 187.891 488.604 183.918 477.387C181.627 470.982 179.259 464.306 177.065 457.727C169.722 435.854 157.492 417.452 140.844 403.122C124.761 389.218 106.213 379.778 90.0407 372.45C78.5749 367.148 66.5957 362.363 54.9666 357.771C52.0594 356.623 49.0646 355.427 46.1573 354.279C33.8279 349.3 20.6139 344.062 7.29419 339.222C1.95663 337.304 -3.72832 336.221 -9.19898 335.372C-19.6059 333.739 -27.7766 336.539 -33.3518 343.741C-38.9269 350.944 -44.0343 358.748 -48.4805 366.802C-53.9899 376.782 -58.8472 387.237 -64.1094 398.838C-67.0063 405.121 -69.7372 411.723 -72.3231 418.063C-73.6644 421.32 -75.054 424.665 -76.3953 427.923C-82.4371 442.178 -84.8832 457.162 -86.5539 475.087C-86.9322 478.876 -87.1746 482.626 -87.5046 486.327C-88.5281 499.355 -89.5306 512.966 -93.3318 526.059C-97.1421 539.376 -101.806 549.48 -107.699 557.878C-112.304 564.36 -117.611 570.454 -122.733 576.422C-125.831 579.966 -128.891 583.646 -131.95 587.325C-136.054 592.484 -140.72 598.247 -141.896 605.137C-145.597 626.738 -139.04 644.864 -122.432 659.059C-118.236 662.631 -113.672 665.951 -109.234 669.086C-107.278 670.508 -105.147 672.027 -103.103 673.498L-104.595 674.959Z" fill="#F2F6F7"/>
    <path d="M61.5986 597.992C61.1608 597.75 60.7714 597.421 60.3337 597.179C59.5066 596.609 58.6311 596.125 57.8523 595.467C45.8227 586.428 40.8951 574.455 42.6982 558.774C44.4439 543.403 52.0551 531.271 66.6737 520.722C73.6825 515.681 87.634 517.101 94.4262 521.764C111.114 532.918 117.909 549.576 114.831 571.293C113.648 579.436 107.817 585.24 102.004 590.598C91.9173 599.765 78.9672 602.326 62.5616 598.524L63.1661 595.773L61.5986 597.992ZM91.6723 523.442C84.9312 519.721 73.4401 519.431 68.4575 523.077C54.5274 533.207 47.3027 544.639 45.6418 559.028C44.0202 573.553 48.5374 584.614 59.6523 593.034C60.3919 593.556 61.219 594.127 62.0069 594.562C62.4447 594.804 62.8341 595.133 63.2718 595.375C78.968 599.013 90.656 596.67 100.045 588.146C105.529 583.178 110.895 577.802 111.905 570.592C114.899 549.857 108.671 534.653 92.7712 523.934C92.4602 523.877 92.0225 523.635 91.6723 523.442Z" fill="#F2F6F7"/>
    <path d="M44.3051 621.456L43.7798 621.167C41.8146 619.967 39.8977 618.681 38.0683 617.442C18.6666 604.79 10.3226 586.592 12.4116 561.701C13.5984 547.964 17.3695 534.511 23.8882 520.634C26.8727 514.399 30.956 508.658 34.5077 503.879L35.0302 503.14C41.9403 493.933 49.083 484.511 59.5461 478.179C72.123 470.501 83.9406 469.372 94.6395 474.821C102.664 478.908 108.975 485.476 112.893 490.38C122.941 503.009 129.771 514.432 134.261 526.163C140.531 542.532 142.65 557.523 140.669 572.078C139.765 578.889 137.267 585.277 133.367 590.892C124.089 604.389 113.731 613.635 101.556 619.136C93.5334 622.703 84.572 624.038 75.7948 625.247L75.6589 625.286C65.979 626.682 55.9131 625.466 44.927 621.571L45.5826 619.763C56.3061 623.512 66.0609 624.671 75.3816 623.305L75.5175 623.266C84.0713 622.048 92.9843 620.801 100.736 617.312C112.454 612.016 122.668 603.033 131.713 589.751C135.428 584.263 137.733 578.225 138.668 571.773C140.679 557.577 138.638 542.857 132.398 526.848C127.947 515.253 121.244 504.014 111.323 491.569C107.532 486.85 101.395 480.378 93.7212 476.484C83.6351 471.373 72.5362 472.443 60.5119 479.74C50.4172 485.819 43.4104 495.201 36.5094 504.185L35.9869 504.924C32.4835 509.615 28.4485 515.269 25.5607 521.328C19.1386 535.031 15.5125 548.221 14.3349 561.735C12.234 585.819 20.3335 603.426 39.0832 615.604C41.0001 616.891 42.8778 618.041 44.7947 619.328L45.3199 619.618L44.3051 621.456Z" fill="#F2F6F7"/>
    <path d="M-304.036 596.959C-323.209 586.375 -332.428 567.693 -329.111 544.509C-325.66 520.257 -309.314 505.75 -295.393 495.844C-279.669 484.535 -261.109 480.502 -243.141 476.714L-239.53 475.966C-233.793 474.678 -227.929 473.575 -222.201 472.51C-211.465 470.442 -200.368 468.343 -189.818 465.371C-173.474 460.801 -158.908 452.622 -146.526 440.953C-129.726 425.211 -114.478 406.9 -101.382 386.487C-92.3965 372.486 -85.1647 356.489 -79.4268 337.611C-76.4808 327.929 -74.3711 317.899 -72.2704 308.093C-71.3788 303.788 -70.3904 299.308 -69.4021 294.828C-69.2872 294.206 -69.124 293.496 -69.0092 292.874C-67.6944 286.975 -66.3223 280.765 -62.4322 275.373C-58.4456 269.807 -52.3368 265.983 -45.5795 264.915C-39.6766 263.948 -33.9132 265.302 -29.3489 268.621C-17.0868 277.446 -6.46716 285.935 2.89957 294.419C15.8494 306.136 31.4648 319.44 49.442 329.706C57.623 334.336 65.9399 338.928 74.0817 343.422C78.8968 346.08 83.6727 348.602 88.4394 351.348C92.7292 353.716 97.1941 356.181 101.445 358.413C111.736 363.98 122.377 369.74 132.37 376.055C158.425 392.38 176.134 411.409 186.21 434.333C192.602 448.827 197.849 463.945 202.498 477.249C207.422 491.504 212.31 506.653 217.779 525.093C223.69 544.803 225.267 564.293 222.579 583.027C220.758 595.843 216.38 607.704 209.379 619.146C195.338 641.892 176.771 661.456 154.096 677.495C136.171 690.102 119.523 701.016 103.193 710.734C87.1825 720.286 68.948 726.211 49.0718 728.489C38.3714 729.664 26.4124 728.774 11.5042 725.57C-10.7706 720.813 -34.1625 716.01 -59.8762 711.067C-63.0734 710.445 -66.4065 709.861 -69.5162 709.287C-80.6718 707.355 -92.1384 705.366 -103.019 701.073C-103.505 700.919 -104.175 700.891 -104.845 700.864C-105.292 700.846 -105.739 700.828 -106.273 700.761L-106.016 698.847C-105.618 698.953 -105.259 698.923 -104.812 698.941C-104.006 698.929 -103.112 698.965 -102.276 699.313C-91.5704 703.509 -80.1913 705.45 -69.1233 707.333C-65.8777 707.869 -62.6805 708.491 -59.3473 709.075C-33.5461 714.066 -10.2418 718.82 12.033 723.578C26.7178 726.772 38.4534 727.654 48.9304 726.47C68.5348 724.27 86.4976 718.423 102.236 708.949C118.566 699.231 135.214 688.317 153.003 675.749C175.446 659.925 193.916 640.536 207.725 618.004C214.717 606.786 218.95 595.187 220.713 582.682C223.344 564.259 221.757 544.993 215.925 525.554C210.456 507.114 205.568 491.966 200.596 477.798C195.946 464.494 190.699 449.376 184.347 435.018C174.389 412.501 156.981 393.754 131.189 377.574C121.196 371.258 110.555 365.498 100.351 359.98C96.0615 357.612 91.6358 355.283 87.2585 352.866C82.4435 350.208 77.7159 347.599 72.9009 344.941C64.8466 340.494 56.3938 335.942 48.2611 331.224C30.1571 320.774 14.4542 307.422 1.41685 295.656C-7.94987 287.173 -18.3945 278.78 -30.6566 269.955C-34.7831 266.877 -40.0605 265.678 -45.4681 266.576C-51.6427 267.622 -57.3348 271.105 -60.9923 276.282C-64.6014 281.372 -65.9071 287.048 -67.1826 293.083C-67.3458 293.792 -67.4606 294.414 -67.6239 295.124C-68.6514 299.468 -69.5522 303.997 -70.4439 308.302C-72.5445 318.108 -74.7026 328.225 -77.6969 337.995C-83.5314 357.048 -90.8115 373.132 -99.9419 387.396C-113.135 407.984 -128.431 426.383 -145.415 442.251C-158.029 454.135 -172.916 462.48 -189.484 467.041C-200.169 470.052 -211.266 472.151 -222.09 474.171C-227.73 475.284 -233.594 476.387 -239.282 477.588L-242.894 478.336C-260.638 482.133 -278.927 486.087 -294.418 497.182C-307.971 506.834 -323.949 521.087 -327.324 544.582C-331.222 572.129 -316.683 593.176 -288.446 600.997C-276.004 604.324 -262.376 604.879 -250.311 605.371C-236.954 606.005 -219.476 607.658 -203.186 615.394C-202.573 615.732 -201.912 615.983 -201.299 616.321C-197.74 617.943 -194.229 619.653 -191.473 622.317C-184.47 629.495 -176.181 638.069 -168.871 647.587C-150.07 671.673 -131.233 687.211 -109.587 696.419C-108.664 696.814 -107.885 697.473 -107.058 698.044C-106.756 698.324 -106.406 698.518 -106.104 698.799L-107.246 700.453C-107.547 700.172 -107.985 699.93 -108.287 699.65C-108.978 699.039 -109.63 698.565 -110.291 698.315C-132.248 689.049 -151.347 673.366 -170.314 648.96C-177.673 639.53 -185.787 631.053 -192.79 623.874C-195.196 621.404 -198.667 619.83 -202.052 618.305C-202.664 617.966 -203.326 617.716 -203.938 617.377C-219.966 609.786 -237.133 608.191 -250.266 607.566C-262.419 607.026 -276.183 606.51 -288.8 603.086C-294.331 601.518 -299.484 599.472 -304.036 596.959Z" fill="#F2F6F7"/>
    <path d="M-313.146 611.806C-325.577 604.943 -335.454 594.694 -342.163 581.395C-346.098 573.626 -347.192 564.227 -347.374 557.729C-347.833 542.627 -345.825 530.714 -341.104 520.298C-336.527 510.146 -329.967 500.745 -321.617 492.447C-309.103 479.709 -293.237 470.42 -274.662 464.911C-269.906 463.538 -265.238 462.117 -260.531 460.832C-245.721 456.557 -230.503 452.165 -215.831 446.9C-186.808 436.535 -163.167 422.058 -143.619 402.579C-128.972 388.048 -119.428 375.725 -112.403 362.584C-106.44 351.369 -101.878 339.381 -98.8622 326.882C-95.0876 311.147 -94.2475 294.934 -93.4256 279.167C-93.2617 275.146 -93.0494 271.037 -92.7495 266.976C-91.81 251.617 -86.711 240.725 -76.7577 232.627C-67.9188 225.512 -57.8557 225.699 -48.4027 226.577C-40.2419 227.312 -32.5014 230.671 -24.0339 237.059C-10.3984 247.328 0.66106 260.4 11.3402 272.921C14.585 276.768 17.9173 280.663 21.298 284.471C36.1457 301.235 48.7937 312.671 62.2513 321.814C69.0918 326.39 76.4366 330.672 83.5188 334.81C87.1474 336.928 90.9511 339.142 94.619 341.395C99.9502 344.566 105.369 347.786 110.613 350.909C123.201 358.315 136.227 365.963 148.556 374.254C171.607 389.606 188.269 409.084 198.209 432.047C203.77 444.941 208.517 458.069 213.921 473.731C219.677 490.616 224.876 505.822 229.154 521.662C233.47 537.638 237.198 554.888 235.974 572.831C234.614 590.813 231.214 605.042 225.11 617.549C221.255 625.359 216.604 632.957 211.125 639.985C199.685 654.915 187.016 668.14 173.536 679.317C150.655 698.212 124.975 716.59 92.6282 737.113C75.7664 747.795 61.0099 754.041 46.1366 756.568C35.4088 758.413 25.6659 758.06 17.267 755.48C7.58496 752.534 -2.07881 749.141 -11.4316 745.806C-18.49 743.28 -25.7718 740.745 -32.9269 738.395C-38.4487 736.603 -44.2512 735.113 -49.7912 733.768C-52.7167 733.067 -55.8173 732.269 -58.782 731.432C-61.0855 730.846 -63.3407 730.172 -65.6443 729.586C-72.8175 727.682 -80.2534 725.633 -87.4568 723.37C-94.5726 721.156 -101.67 718.494 -108.641 716.017C-111.772 714.86 -115.038 713.742 -118.169 712.585L-117.205 709.804C-114.026 710.874 -110.808 712.079 -107.677 713.236C-100.842 715.753 -93.6964 718.327 -86.5806 720.542C-79.3772 722.805 -72.0288 724.805 -64.8556 726.709C-62.552 727.295 -60.2968 727.969 -57.9933 728.555C-55.0286 729.392 -52.0156 730.142 -49.0901 730.843C-43.4626 732.236 -37.6599 733.726 -32.0506 735.566C-24.808 737.965 -17.5262 740.5 -10.4679 743.025C-1.20257 746.312 8.4612 749.705 18.0556 752.603C26.0561 755.077 35.3522 755.412 45.5848 753.636C60.0988 751.139 74.5352 745.059 91.0287 734.631C123.24 714.147 148.823 695.944 171.568 677.088C184.864 666.038 197.349 652.94 208.692 638.185C213.987 631.284 218.629 623.909 222.299 616.226C228.211 604.069 231.505 590.239 232.895 572.616C234.236 555.08 230.451 538.142 226.213 522.438C221.974 506.734 216.776 491.527 211.019 474.643C205.703 459.029 200.908 445.988 195.434 433.143C185.699 410.635 169.379 391.574 146.892 376.648C134.602 368.493 121.625 360.758 109.124 353.4C103.88 350.277 98.4612 347.057 93.1299 343.885C89.4621 341.632 85.7459 339.467 82.0297 337.301C74.9475 333.163 67.6028 328.88 60.5872 324.208C46.8669 314.92 34.0922 303.299 19.0694 286.439C15.6887 282.631 12.3171 278.6 9.02403 274.84C-1.56758 262.368 -12.5878 249.431 -25.8731 239.356C-33.9512 233.298 -41.1181 230.141 -48.7445 229.472C-58.0225 228.691 -67.0077 228.414 -74.9256 234.894C-84.2296 242.437 -88.942 252.629 -89.845 267.094C-90.1449 271.155 -90.3572 275.264 -90.5211 279.286C-91.3038 295.188 -92.153 311.624 -96.0726 327.622C-99.1854 340.296 -103.805 352.596 -109.864 363.986C-117.035 377.39 -126.811 389.926 -141.602 404.72C-161.431 424.5 -185.441 439.232 -214.872 449.714C-229.631 454.931 -244.985 459.362 -259.795 463.637C-264.55 465.01 -269.17 466.343 -273.926 467.716C-292.006 473.155 -307.367 482.152 -319.553 494.501C-327.583 502.633 -333.949 511.683 -338.381 521.573C-342.997 531.59 -344.85 543.017 -344.373 557.673C-344.133 563.859 -343.157 572.851 -339.379 580.077C-329.311 599.912 -312.766 612.358 -290.171 616.95C-281.249 618.791 -272.086 620.194 -263.234 621.539C-254.071 622.942 -244.733 624.442 -235.501 626.34C-227.289 628.018 -218.781 631.229 -210.144 635.654C-197.033 642.321 -186.64 653.084 -177.407 662.636C-163.576 676.896 -150.17 688.408 -136.196 698.064C-132.061 700.918 -127.605 703.606 -123.276 706.11C-121.311 707.309 -119.297 708.421 -117.38 709.708L-118.918 712.286C-120.883 711.086 -122.761 709.936 -124.774 708.824C-129.055 706.233 -133.646 703.584 -137.87 700.681C-151.931 690.977 -165.551 679.232 -179.421 664.836C-188.528 655.469 -198.794 644.89 -211.467 638.465C-219.929 634.136 -228.174 631.07 -236.075 629.45C-245.22 627.6 -254.558 626.1 -263.721 624.697C-272.661 623.303 -281.824 621.9 -290.833 620.011C-298.996 618.246 -306.492 615.479 -313.146 611.806Z" fill="#F2F6F7"/>
    <path d="M4.85088 811.907C-1.7361 807.699 -6.4054 801.467 -10.8604 795.466C-11.7085 794.313 -12.5567 793.159 -13.4531 792.093C-21.4849 781.606 -29.7701 770.749 -41.5707 763.778C-46.5518 760.8 -53.0695 757.088 -60.0613 754.028C-66.6546 751.074 -73.4805 748.334 -79.9954 745.651C-86.5102 742.968 -93.3361 740.228 -99.8419 737.322C-127.498 725.139 -153.508 707.697 -179.341 683.728L-180.723 682.508C-190.685 673.239 -200.948 663.69 -212.933 656.846C-225.005 649.953 -236.498 645.322 -248.297 642.692C-257.034 640.725 -265.955 638.884 -274.614 637.188C-281.495 635.789 -288.55 634.293 -295.47 632.757C-313.974 628.825 -329.723 619.902 -342.416 606.271C-351.465 596.592 -357.009 586.564 -359.389 575.77C-362.713 560.685 -362.531 545.25 -358.84 527.184C-355.008 507.826 -345.088 490.685 -328.328 474.808C-317.623 464.726 -304.161 457.308 -285.848 451.654C-281.452 450.311 -277.143 448.92 -272.795 447.665C-259.742 443.677 -246.281 439.571 -233.201 434.912C-198.821 422.707 -171.457 405.83 -149.402 383.052C-140.714 374.141 -133.456 364.098 -127.639 353.146C-116.574 332.068 -111.711 309.395 -112.81 283.658C-113.309 271.732 -113.652 256.008 -111.568 240.025C-109.923 227.112 -101.573 218.814 -94.5757 212.967C-80.8235 201.712 -64.3022 201.58 -51.5945 202.769C-45.0369 203.305 -39.6237 204.466 -34.8989 206.046C-23.3 210.279 -12.6439 217.874 -2.46266 229.434C6.82207 239.928 15.2551 251.551 23.4829 262.718L25.0917 264.977C43.4005 290.162 61.3306 308.17 81.4628 321.568C90.7455 327.72 100.445 333.531 109.882 339.197C112.022 340.493 114.162 341.789 116.303 343.085L118.005 344.139C139.409 357.096 161.6 370.489 180.016 388.651C191.031 399.528 199.177 412.706 205.511 424.199C211.807 435.556 215.774 448.026 219.624 460.089C220.614 463.262 221.73 466.62 222.807 469.842C227.634 484.272 233.569 502.283 238.948 519.645C246.367 544.072 248.2 568.272 244.514 591.709C242.537 603.982 238.567 615.726 232.354 627.602C222.836 645.878 209.324 663.32 190.984 680.61C180.928 690.136 170.132 699.14 159.617 707.842C153.686 712.792 147.435 717.909 141.495 723.082C131.146 732.104 120.7 741.301 110.584 750.109C97.7735 761.314 84.4982 772.947 71.368 784.317C60.9798 793.203 48.7103 803.221 33.9146 809.332C24.3971 813.33 14.9104 814.376 5.63883 812.342L6.03178 810.388C15.0407 812.277 23.8964 811.34 33.1422 807.421C47.6177 801.476 59.7513 791.497 70.0429 782.786C83.1248 771.503 96.4001 759.87 109.259 748.578C119.423 739.683 129.869 730.486 140.17 721.551C146.11 716.378 152.361 711.261 158.34 706.224C168.807 697.609 179.603 688.605 189.61 679.167C207.766 662.003 221.181 644.736 230.603 626.635C236.719 614.934 240.593 603.365 242.561 591.316C246.189 568.19 244.347 544.213 237.046 520.194C231.754 502.88 225.771 484.957 220.944 470.527C219.867 467.305 218.838 463.996 217.761 460.774C213.95 448.847 209.935 436.464 203.766 425.292C197.422 414.022 189.451 400.941 178.564 390.247C160.41 372.231 138.306 358.886 116.855 346.016L115.152 344.962C113.012 343.667 110.871 342.371 108.731 341.075C99.2942 335.409 89.5947 329.598 80.2728 323.309C60.0138 309.727 41.9087 291.623 23.3855 266.206L21.7768 263.947C13.6365 252.828 5.291 241.253 -4.04206 230.847C-14.0089 219.52 -24.4025 212.069 -35.6512 208.029C-40.1525 206.458 -45.4782 205.346 -51.8124 204.819C-64.2091 203.687 -80.196 203.886 -93.4348 214.625C-100.287 220.209 -108.22 228.166 -109.702 240.369C-111.738 256.265 -111.434 271.854 -110.887 283.692C-109.758 309.788 -114.639 332.908 -125.936 354.2C-131.85 365.327 -139.204 375.546 -147.941 384.544C-170.18 407.449 -197.825 424.628 -232.477 436.911C-245.557 441.57 -259.105 445.628 -272.158 449.616C-276.555 450.958 -280.903 452.213 -285.211 453.604C-303.253 459.18 -316.482 466.384 -326.867 476.299C-343.259 491.923 -352.985 508.714 -356.8 527.625C-360.345 545.429 -360.518 560.64 -357.36 575.405C-355.059 585.927 -349.633 595.548 -340.885 604.946C-328.494 618.297 -312.959 626.987 -294.902 630.901C-287.982 632.436 -280.878 633.845 -274.134 635.283C-265.523 637.067 -256.514 638.956 -247.729 640.836C-235.843 643.513 -224.126 648.154 -211.927 655.231C-199.68 662.22 -189.377 671.905 -179.328 681.222L-177.946 682.442C-152.239 706.227 -126.453 723.66 -98.972 735.747C-92.4662 738.653 -85.6403 741.393 -79.1255 744.075C-72.523 746.806 -65.6972 749.546 -59.1914 752.452C-52.112 755.561 -45.5068 759.321 -40.5257 762.299C-28.4233 769.551 -19.9629 780.504 -11.8044 791.176C-10.9563 792.329 -10.1081 793.483 -9.21168 794.549C-4.71747 800.685 -0.340889 806.413 5.98347 810.476L4.85088 811.907Z" fill="#F2F6F7"/>
    <path d="M28.939 639.36C27.499 638.451 25.9232 637.581 24.3474 636.711C20.8938 634.69 17.3044 632.709 14.0925 630.251C7.93139 625.479 2.50982 621.229 -1.9725 615.899C-14.689 600.655 -14.7874 582.211 -13.1503 566.209C-11.7794 552.345 -8.73873 538.147 -3.95272 522.855C4.27167 496.783 17.6613 473.562 37.0378 451.704C50.3138 436.759 67.4221 431.012 87.9551 434.579C92.4445 435.344 97.2385 437.419 102.298 440.669C114.947 448.794 124.944 460.481 133.955 477.677C142.879 494.825 149.684 511.261 154.915 527.856C161.528 548.983 162.385 567.503 157.535 584.358C155.658 590.861 151.527 596.69 147.492 602.344L146.447 603.824C136.897 617.399 123.329 628.528 106.072 636.821C93.4713 642.886 80.1437 645.924 66.5059 645.591C51.9744 645.223 40.3236 643.36 29.6877 639.659L30.6515 636.879C40.9372 640.386 52.3646 642.24 66.5367 642.639C79.7277 642.953 92.5994 640.12 104.792 634.172C121.642 625.997 134.793 615.209 144.101 602.072L145.146 600.593C148.949 595.153 152.984 589.499 154.706 583.482C159.498 566.938 158.684 549.583 152.198 528.64C147.093 512.229 140.279 496.017 131.443 478.917C122.724 462.225 113.029 450.819 100.857 443.072C96.148 440.016 91.7041 438.134 87.6132 437.474C68.1007 434.128 51.9435 439.601 39.3742 453.68C20.2394 475.1 6.99473 498.058 -0.988019 523.692C-5.7257 538.896 -8.70892 552.784 -10.0707 566.424C-11.6413 581.892 -11.5548 599.53 0.479522 613.941C4.74754 619.038 10.0816 623.239 15.9801 627.866C19.0169 630.228 22.5187 632.161 25.8847 634.133C27.373 634.955 28.9881 635.96 30.4764 636.782L28.939 639.36Z" fill="#F2F6F7"/>
    <path d="M-251.407 774.961C-249.968 768.217 -252.213 760.695 -257.926 752.63C-264.615 743.226 -274.308 736.162 -288.524 730.256C-293.104 728.413 -297.771 726.522 -302.263 724.728C-312.483 720.686 -323.14 716.402 -333.331 711.689C-363.031 698.036 -386.339 681.286 -404.374 660.364C-414.887 648.164 -422.68 636.209 -428.26 623.762C-431.211 617.107 -433.697 610.024 -436.144 603.076C-436.79 601.349 -437.3 599.582 -437.946 597.855L-439.418 592.245C-440.865 584.935 -442.225 577.674 -443.585 570.412C-447.3 550.656 -451.163 530.134 -455.675 510.167C-458.821 496.208 -462.997 482.252 -467.103 468.791C-468.131 465.482 -469.16 462.173 -470.053 458.824C-474.023 445.324 -474.868 430.922 -472.383 416.074C-470.433 404.472 -463.369 394.779 -457.196 386.079C-446.764 371.734 -433.624 360.14 -418.019 351.735C-406.895 345.654 -394.965 342.873 -378.066 342.264C-363.323 341.835 -308.544 348.545 -308.01 348.611L-307.922 348.66C-283.841 349.731 -263.535 344.606 -245.918 332.971C-236.213 326.563 -229.068 318.172 -224.017 307.367C-214.148 285.972 -217.984 264.779 -222.937 246.853C-225.164 238.884 -227.565 230.819 -229.888 223.026C-232.642 213.738 -235.475 204.179 -238.045 194.764C-241.243 183.176 -241.412 170.86 -238.701 157.051C-238.145 154.388 -236.677 151.315 -234.209 147.88C-224.822 135.014 -213.335 126.62 -200.156 122.816C-184.442 118.354 -168.446 114.62 -152.944 110.955C-125.736 104.5 -101.478 95.7319 -78.8972 84.2097C-65.5989 77.501 -50.7332 68.5735 -41.3036 53.5611C-37.5222 47.5386 -35.0994 41.9083 -34.0656 36.3108L-36.8671 34.7643C-37.7167 40.235 -40.0519 45.9136 -43.8334 51.9361C-52.9246 66.3358 -67.2861 74.9705 -80.2643 81.5132C-102.661 92.9086 -126.647 101.598 -153.719 108.014C-169.221 111.679 -185.218 115.413 -201.067 119.914C-215.013 123.866 -226.966 132.688 -236.778 146.119C-239.575 149.943 -241.188 153.279 -241.811 156.477C-244.619 170.461 -244.35 183.631 -241.122 195.579C-238.6 205.081 -235.68 214.689 -232.965 223.841C-230.642 231.634 -228.24 239.699 -226.014 247.667C-221.13 265.098 -217.403 285.66 -226.876 306.131C-231.685 316.498 -238.501 324.501 -247.79 330.567C-264.942 341.774 -284.616 346.79 -308.027 345.746C-311.01 345.356 -363.652 338.913 -378.531 339.38C-395.653 339.98 -408.398 342.996 -419.794 349.156C-435.768 357.815 -449.275 369.662 -459.949 384.445C-466.306 393.271 -473.564 403.315 -475.677 415.627C-478.268 430.873 -477.441 445.722 -473.266 459.678C-472.237 462.987 -471.257 466.384 -470.228 469.693C-466.209 483.106 -461.986 496.974 -458.927 510.884C-454.143 530.773 -450.232 551.208 -446.517 570.964C-445.157 578.225 -443.71 585.535 -442.31 592.933L-440.847 598.766L-440.808 598.902C-440.162 600.629 -439.565 602.444 -438.919 604.171C-436.472 611.119 -433.986 618.203 -430.996 624.994C-425.337 637.712 -417.33 649.899 -406.603 662.332C-388.266 683.534 -364.744 700.517 -334.558 714.325C-324.278 719.086 -313.661 723.233 -303.402 727.411C-298.91 729.206 -294.243 731.097 -289.663 732.94C-275.972 738.556 -266.581 745.339 -260.321 754.278C-255.075 761.742 -253.066 768.448 -254.245 774.309C-255.406 779.722 -259.356 784.395 -266.008 788.375C-272.204 792.151 -278.811 795.015 -286.013 797.093L-282.423 799.075C-276.116 796.96 -270.101 794.341 -264.457 790.945C-257.116 786.545 -252.779 781.172 -251.407 774.961Z" fill="#F2F6F7"/>
    <path d="M225.631 1051.55C227.821 1049.45 230.049 1047.48 232.239 1045.37C245.309 1033.28 258.796 1020.85 269.828 1006.04C278.587 994.314 285.096 983.971 288.453 971.889C290.695 964.103 291.654 955.951 292.459 948.286C294.713 927.028 292.025 906.24 288.908 884.987C285.296 860.491 281.447 834.15 278.47 807.263C276.439 789.008 277.836 770.132 282.369 751.161C286.567 733.831 293.33 717.233 299.853 701.072C301.744 696.405 303.78 691.475 305.632 686.672C315.683 660.809 320.321 633.785 319.696 604.084C319.117 576.579 315.812 546.769 309.534 513.034C304.646 486.919 297.819 458.935 288.527 427.763C279.314 396.862 263.303 370.204 240.866 348.566C229.112 337.166 216.388 326.487 204.19 316.098C199.994 312.525 195.711 308.904 191.515 305.332C176.814 292.647 164.707 280.024 154.336 266.532C151.489 262.79 149.253 258.358 147.144 254.109L146.733 253.197C137.719 234.971 132.362 214.88 127.2 195.468L127.083 195.06C122.362 176.92 117.094 161.218 111.188 146.879C107.317 137.545 102.678 128.36 98.1576 119.582C95.8822 115.013 93.5192 110.396 91.2045 105.692L86.7396 103.227C89.4948 109.203 92.5217 115.1 95.5094 120.861C100.03 129.639 104.629 138.689 108.413 147.974C114.28 162.178 119.421 177.695 124.19 195.748L124.308 196.156C129.508 215.703 134.905 235.93 144.085 254.477L144.496 255.389C146.732 259.821 148.92 264.342 151.98 268.316C162.39 281.944 174.712 294.8 189.588 307.58C193.784 311.153 198.067 314.774 202.263 318.347C214.461 328.736 227.097 339.367 238.764 350.719C260.812 372.027 276.617 398.229 285.626 428.674C294.83 459.798 301.705 487.695 306.553 513.673C312.793 547.273 316.146 576.995 316.735 604.277C317.329 633.618 312.797 660.243 302.851 685.708C300.999 690.511 299.012 695.354 297.072 700.109C290.502 716.357 283.729 733.178 279.483 750.595C274.756 769.917 273.39 789.153 275.451 807.767C278.379 834.741 282.229 861.082 285.84 885.578C288.966 906.607 291.615 927.259 289.331 948.158C288.574 955.736 287.576 963.752 285.479 971.275C282.14 982.911 275.776 992.991 267.25 1004.5C256.363 1019.05 243.012 1031.44 229.99 1043.45C227.713 1045.5 225.572 1047.52 223.382 1049.62C216.494 1056.1 210.508 1062.39 205.281 1068.76L207.907 1070.21C213.135 1063.84 218.888 1057.76 225.631 1051.55Z" fill="#F2F6F7"/>
</svg>
