<svg width="741" height="448" viewBox="0 0 741 448" fill="none" xmlns="http://www.w3.org/2000/svg">
    <path d="M728.735 235.031C716.078 235.306 704.79 230.247 696.325 225.676C683.285 218.704 676.762 206.679 678.148 191.715C678.675 185.157 680.656 178.625 682.568 172.215C683.443 169.29 684.363 166.147 685.09 163.054C687.161 154.532 689.11 144.386 687.676 133.59C686.546 125.094 681.848 117.965 674.548 113.496C666.417 108.629 656.265 107.821 646.739 111.296C638.154 114.416 631.875 120.75 627.471 125.963C614.489 140.918 606.514 159.505 603.443 182.888C601.476 198.007 597.732 211.117 592.125 223.068C588.63 230.522 583.569 237.152 577.438 242.101C565.704 251.651 550.943 258.388 530.84 263.341C514.241 267.463 496.927 269.291 480.218 271.062C473.268 271.779 466.124 272.548 459.129 273.484C443.129 275.583 424.256 278.552 405.726 284.742C393.565 288.817 381.464 295.05 368.77 303.717C344.272 320.506 324.104 342.658 307.075 371.528C296.234 389.845 286.011 408.928 276.142 427.4L274.963 429.577C267.451 443.693 262.23 455.541 258.556 466.976C250.654 491.65 249.232 518.112 253.964 550.177C255.784 562.421 257.946 574.782 260.102 586.73C262.07 597.59 264.045 608.862 265.749 619.896C269.318 642.956 268.089 666.262 262.196 689.157C259.796 698.389 256.694 707.704 253.683 716.582C251.829 722.045 249.931 727.727 248.225 733.357C243.682 748.129 240.015 761.529 239.949 775.623C239.794 796.365 245.063 813.382 255.966 827.859C270.092 846.651 287.709 862.234 309.917 875.245C321.72 882.237 332.408 886.214 343.546 888.001C355.219 889.853 364.52 889.025 371.74 885.442C381.536 880.652 390.487 873.087 400.7 860.941C405.819 854.917 410.886 848.699 415.786 842.63C419.688 837.862 423.758 832.945 427.731 828.055C440.133 813.255 457.341 803.278 480.342 797.55C495.202 793.893 511.654 794.261 532.004 798.764C557.418 804.399 582.795 815.322 607.381 831.424C614.513 836.04 621.723 840.947 628.591 845.737C637.199 851.615 646.103 857.829 655.168 863.481C672.345 874.317 691.921 875.921 713.459 868.204C732.176 861.55 748.084 850.575 762.561 839.671C775.215 830.082 789.847 818.205 801.675 802.42C815.711 783.664 822.733 763.055 822.577 741.154C822.551 719.736 818.694 702.963 810.502 688.176C808.903 685.29 807.472 682.257 806.067 679.32C803.959 674.915 801.703 670.342 799.016 666.091C790.979 653.436 783.773 639.628 777.191 623.893C770.912 608.906 767.184 592.616 766.205 575.385C765.046 554.373 764.047 532.801 763.26 509.309C762.83 496.071 762.794 483.143 766.185 470.645C770.489 454.592 779.659 447.071 796.639 445.539C803.931 444.938 811.97 445.586 819.958 447.593C827.727 449.555 835.439 452.464 842.931 455.329C845.469 456.307 848.104 457.259 850.643 458.238C854.643 459.653 858.625 461.385 862.587 463.432L861.581 459.664C858.256 458.068 854.984 456.665 851.666 455.48C849.128 454.502 846.519 453.646 843.98 452.668C836.391 449.83 828.654 446.824 820.691 444.913C812.484 442.861 804.007 442.123 796.425 442.802C778.209 444.354 767.938 452.789 763.337 470.06C759.857 482.996 759.945 496.117 760.329 509.574C761.116 533.066 762.018 554.664 763.204 575.773C764.163 593.319 767.969 609.899 774.447 625.247C781.178 641.149 788.409 655.054 796.498 667.902C799.037 671.985 801.293 676.558 803.375 680.867C804.78 683.804 806.334 686.908 807.932 689.793C815.898 704.123 819.653 720.51 819.743 741.393C819.814 762.592 813.051 782.615 799.394 800.855C787.804 816.37 773.437 828.073 760.853 837.539C746.64 848.269 730.9 859.096 712.57 865.647C691.972 873.01 673.246 871.489 656.829 861.175C647.861 855.496 638.982 849.38 630.375 843.501C623.41 838.737 616.297 833.805 609.042 829.118C584.114 812.899 558.467 801.738 532.737 796.084C511.827 791.421 494.962 791.059 479.717 794.819C456.136 800.701 438.399 811.027 425.521 826.368C421.522 831.162 417.478 836.175 413.576 840.943C408.651 846.916 403.583 853.133 398.464 859.158C388.586 871.007 379.873 878.302 370.438 882.891C363.649 886.153 355.05 886.896 343.938 885.206C333.238 883.509 322.866 879.55 311.359 872.893C289.492 859.998 272.076 844.776 258.22 826.222C247.613 812.08 242.725 796.1 242.79 775.796C242.862 762.114 246.485 748.933 250.983 734.381C252.688 728.75 254.586 723.068 256.44 717.605C259.426 708.631 262.528 699.315 264.998 689.961C271.007 666.725 272.327 642.981 268.654 619.535C266.924 608.404 264.975 597.229 262.981 586.272C260.826 574.324 258.664 561.963 256.869 549.815C252.169 518.259 253.598 492.209 261.313 467.999C264.943 456.783 269.996 445.084 277.438 431.09L278.616 428.913C288.485 410.441 298.708 391.358 309.479 373.164C326.321 344.757 346.25 322.876 370.291 306.313C382.817 297.793 394.629 291.638 406.5 287.64C424.837 281.502 443.517 278.584 459.42 276.511C466.415 275.575 473.559 274.806 480.412 274.115C497.218 272.319 514.532 270.49 531.421 266.291C551.91 261.235 567.032 254.298 579.126 244.549C585.592 239.303 590.891 232.402 594.67 224.459C600.418 212.263 604.182 198.838 606.168 183.403C609.201 160.65 616.893 142.554 629.468 128.017C633.66 123.172 639.604 117.134 647.513 114.194C656.195 111.048 665.375 111.702 672.771 116.145C679.311 120.091 683.487 126.428 684.481 134.029C685.882 144.316 683.953 154.146 681.927 162.45C681.174 165.446 680.228 168.493 679.353 171.417C677.468 177.924 675.441 184.675 674.87 191.452C673.406 207.679 680.502 220.689 694.644 228.298C703.451 232.985 715.228 238.327 728.491 237.995C739.281 237.701 749.232 235.044 758.996 229.746C772.559 222.398 783.346 212.79 792.419 202.191L791.49 198.713C782.424 209.725 771.425 219.7 757.668 227.099C748.581 232.216 739.016 234.77 728.735 235.031Z" fill="#4397A5" fill-opacity="0.1"/>
    <path d="M728.745 285.849C716.964 287.856 705.034 286.591 693.419 285.345C690.115 284.985 686.81 284.626 683.435 284.388C666.068 282.919 650.112 283.246 634.84 285.357C628.257 286.287 621.629 287.436 615.194 288.533C604.527 290.449 593.448 292.373 582.569 293.104C561.731 294.528 539.733 294.709 517.136 293.808C487.813 292.529 463.213 292.266 438.278 295.405C413.248 298.569 393.944 304.966 377.766 315.702C357.602 328.953 342.025 343.876 329.882 361.195C316.792 380.009 306.311 399.678 297.724 416.358C289.632 432.181 281.257 448.494 274.221 465.174C263.935 489.449 261.38 516.317 266.337 547.287C270.074 570.198 274.655 592.781 279.094 614.056C285.107 642.777 285.154 671.642 279.418 699.774C276.176 715.544 272.452 731.443 268.791 746.807L267.518 752.115C264.636 764.581 265.735 777.225 267.072 788.047C268.099 796.156 270.6 803.975 274.094 810.081C283.974 827.315 297.583 841.07 314.553 851.133C338.65 865.4 363.842 863.227 381.943 845.352C393 834.43 403.998 822.903 414.797 811.015C423.761 801.169 434.258 793.191 445.857 787.403C460.174 780.164 473.842 776.308 487.608 775.531C512.182 774.144 536.204 777.666 559.016 785.962C579.193 793.306 599.532 803.193 624.852 818.168C626.934 819.372 628.918 820.602 630.902 821.832C639.916 827.291 649.271 832.867 659.063 836.98C680.162 845.836 703.468 845.513 728.329 836.287C739.06 832.284 749.828 826.096 761.452 817.3C788.197 796.91 801.531 776.686 804.815 751.382C807.43 731.329 803.817 711.593 794.2 692.632C789.739 683.68 784.338 675.082 779.112 666.748C777.146 663.651 775.129 660.36 773.234 657.139C765.687 644.768 760.42 633.96 756.707 623.153C752.232 610.271 749.528 595.881 748.364 579.114C748.014 573.929 747.761 568.718 747.437 563.629C746.356 544.459 745.312 524.658 741.634 505.457C740.628 500.137 739.499 494.745 738.466 489.328C737.099 482.655 735.776 475.763 734.479 468.968L734.053 466.598C731.962 455.667 729.865 444.324 731.968 433.205C732.997 427.755 735.404 422.041 738.72 417.015C744.289 408.801 753.229 405.068 766.937 405.237C779.189 405.382 790.604 409.372 802.368 413.89C815.742 419.013 828.492 424.51 842.563 430.69C846.885 432.537 851.163 434.603 855.37 436.792L854.7 434.28C850.982 432.375 847.194 430.591 843.335 428.931C829.728 422.938 816.392 417.184 803.044 412.157C791.158 407.568 779.523 403.533 766.956 403.369C757.931 403.295 744.996 404.472 737.103 415.998C733.62 421.172 731.071 427.131 730.023 432.897C727.83 444.453 730.049 455.867 732.095 467.017L732.521 469.387C733.818 476.183 735.14 483.075 736.508 489.748C737.541 495.165 738.644 500.459 739.65 505.78C743.302 524.884 744.32 544.589 745.376 563.662C745.7 568.751 745.953 573.962 746.302 579.147C747.396 596.037 750.152 610.619 754.678 623.694C758.417 634.599 763.806 645.477 771.405 658.042C773.3 661.262 775.388 664.431 777.282 667.651C782.509 675.984 787.813 684.608 792.248 693.464C801.665 712.064 805.201 731.51 802.676 751.125C799.528 775.772 786.31 795.655 760.092 815.696C748.661 824.441 738.061 830.48 727.523 834.432C703.048 843.555 680.252 843.846 659.617 835.176C649.921 831.037 640.688 825.532 631.675 820.073C629.69 818.843 627.609 817.639 625.528 816.435C600.086 801.39 579.624 791.431 559.324 784.017C536.293 775.676 511.956 772.134 487.163 773.476C473.178 774.208 459.246 778.239 444.639 785.555C432.776 791.517 422.111 799.643 412.98 809.637C402.278 821.499 391.157 832.956 380.197 843.852C362.74 861.037 338.443 863.074 315.133 849.426C298.433 839.601 285.069 825.988 275.388 809.114C272.043 803.176 269.619 795.647 268.547 787.756C267.261 777.128 266.117 764.703 268.98 752.553L270.254 747.245C273.914 731.88 277.639 715.981 280.977 700.185C286.758 671.834 286.659 642.776 280.665 613.74C276.253 592.561 271.646 569.882 267.935 547.067C262.984 516.51 265.546 490.054 275.716 466.12C282.777 449.537 291.127 433.128 299.244 417.401C307.735 400.747 318.242 381.174 331.261 362.483C343.14 345.338 358.672 330.634 378.572 317.557C394.583 306.969 413.499 300.676 438.241 297.589C463.078 294.476 487.556 294.668 516.782 295.972C539.502 296.944 561.596 296.737 582.531 295.288C593.507 294.53 604.683 292.582 615.349 290.665C621.784 289.568 628.386 288.322 634.898 287.515C650.074 285.43 665.836 285.154 683.081 286.553C686.36 286.816 689.761 287.15 693.066 287.509C704.777 288.73 716.926 290.04 728.9 287.981C748.881 284.509 765.858 275.215 780.939 259.596C787.977 252.231 794.79 244.408 801.544 235.981L800.925 233.662C793.958 242.457 786.837 250.672 779.56 258.308C764.955 273.386 748.243 282.506 728.745 285.849Z" fill="#4397A5" fill-opacity="0.1"/>
    <path d="M798.121 267.739C791.535 277.571 784.536 287.409 777.872 296.951C772.322 304.85 766.534 313.02 761.061 321.209C752.433 333.863 753.062 345.909 762.94 356.933C772.548 367.72 784.198 377.237 798.385 386.18C816.882 397.698 833.93 408.05 850.14 417.592L849.057 413.534C833.581 404.417 817.39 394.561 799.898 383.706C785.885 375.027 774.577 365.626 765.117 355.007C756.128 344.987 755.596 334.468 763.49 322.941C768.988 314.849 774.777 306.679 780.327 298.78C786.991 289.238 793.964 279.303 800.55 269.471L801.523 268.073C803.609 265.032 805.669 261.894 807.729 258.756L806.723 254.988C804.116 258.789 801.63 262.662 799.023 266.463L798.121 267.739Z" fill="#4397A5" fill-opacity="0.1"/>
    <path d="M766.215 143.981C763.542 145.212 757.737 141.69 754.753 137.105C745.95 123.516 736.78 112.819 726.58 104.468C708.539 89.6194 690.417 81.831 671.04 80.5876C652.829 79.4468 637.719 84.1025 624.891 94.98C606.582 110.529 594.833 129.71 586.534 144.76C580.76 155.307 575.281 166.188 570.016 176.702C565.548 185.555 560.939 194.652 556.252 203.459C548.456 218.064 539.113 228.425 527.694 234.89C518.896 239.93 508.984 243.508 499.58 247.054C498.253 247.512 496.952 248.066 495.626 248.524C482.145 253.469 467.955 256.533 454.126 259.398C447.743 260.688 441.096 262.153 434.571 263.688C415.628 268.332 401.612 273.213 389.028 279.574C373.892 287.238 359.48 297.607 343.413 312.248C317.519 335.826 299.389 365.611 283.668 394.339C282.464 396.42 281.382 398.572 280.178 400.653C271.198 417.024 261.863 434.007 254.499 451.395C245.333 472.887 241.463 496.381 242.779 521.077C243.945 542.501 247.585 563.886 251.044 584.595C251.896 589.335 252.651 594.102 253.381 598.772C257.602 624.659 257.609 647.945 253.423 669.867C251.474 680.013 247.728 690.018 244.768 697.537C243.159 701.589 241.55 705.641 239.941 709.693C234.154 724.073 228.085 738.942 223.89 754.242C219.489 770.322 218.998 786.703 222.263 804.358C224.412 815.894 230.747 825.277 237.262 833.785C259.108 862.108 288.223 880.83 316.52 896.874C327.73 903.196 338.927 907.141 350.819 909.037C367.864 911.628 383.129 905.999 394.681 892.668C400.328 886.295 405.53 879.421 410.566 872.694C414.319 867.759 418.118 862.604 422.117 857.81L424.686 854.64C431.705 846.039 438.961 837.166 447.211 829.685C457.54 820.303 470.931 815.796 481.436 812.887C500.224 807.663 519.672 808.784 544.461 816.345C564.522 822.478 581.266 830.531 595.28 840.762C603.257 846.602 610.905 853.15 618.283 859.461C623.669 864.129 629.275 868.843 634.926 873.337C637.284 875.191 639.397 876.904 641.485 878.52C647.528 883.324 652.786 887.509 658.037 891.282C665.079 896.337 678.273 900.783 678.834 900.944L678.956 901.015C687.814 902.79 695.433 899.928 703.51 896.84C704.547 896.459 705.584 896.079 706.621 895.698C716.244 892.198 724.519 886.365 732.531 880.707C734.282 879.515 736.008 878.226 737.76 877.034L759.205 860.44L760.139 859.673C769.998 851.244 780.07 842.448 789.8 833.536C805.339 819.244 817.045 803.387 824.563 786.579C837.141 758.483 837.576 727.937 825.796 693.511C824.119 688.783 821.793 684.333 819.588 679.953C818.911 678.582 818.112 677.139 817.435 675.767C814.329 669.558 810.925 663.015 807.052 655.872C805.601 653.154 804.08 650.559 802.559 647.964C799.517 642.773 796.449 637.485 794.129 631.895C788.714 619.367 785.129 609.043 782.794 599.523C780.124 588.747 779.192 577.507 778.577 567.838C777.691 554.827 777.552 543.064 778.076 531.849C778.857 515.391 779.973 501.741 786.063 488.109C791.689 475.842 803.191 468.527 817.04 468.452C833.898 468.401 850.712 473.227 867.85 483.142L867.127 480.436C850.215 470.979 833.672 466.392 816.911 466.416C802.334 466.479 790.136 474.29 784.181 487.265C777.436 502.315 776.603 518.58 776.06 531.663C775.535 542.878 775.7 554.737 776.613 567.845C777.228 577.514 778.211 588.947 780.907 599.82C783.293 609.533 786.904 619.954 792.319 632.481C794.762 638.143 797.856 643.527 800.898 648.718C802.419 651.313 803.94 653.909 805.39 656.627C809.264 663.769 812.641 670.216 815.748 676.425C816.425 677.796 817.224 679.239 817.901 680.611C820.079 684.894 822.406 689.344 824.031 693.879C835.585 727.848 835.215 757.859 822.824 785.491C815.35 802.08 803.786 817.692 788.511 831.81C778.878 840.696 768.709 849.518 758.947 857.921L758.019 859.1L736.645 875.572C734.893 876.764 733.142 877.956 731.416 879.245C723.501 884.878 715.296 890.587 705.963 894.011C704.926 894.391 703.889 894.772 702.852 895.152C694.776 898.24 687.807 900.825 679.509 899.211C678.582 898.838 665.878 894.674 659.325 889.903C654.074 886.13 648.939 882.016 642.895 877.212C640.807 875.596 638.694 873.883 636.336 872.029C630.685 867.535 625.176 862.795 619.789 858.127C612.386 851.72 604.738 845.171 596.639 839.261C582.38 828.888 565.514 820.764 545.234 814.587C519.98 806.839 500.243 805.795 481.068 811.122C470.37 814.082 456.689 818.667 446.025 828.345C437.679 835.852 430.352 844.847 423.236 853.475L420.667 856.645C416.694 861.535 412.773 866.619 409.045 871.651C404.081 878.255 398.878 885.13 393.328 891.477C382.156 904.293 367.638 909.618 351.25 907.163C339.577 905.311 328.503 901.437 317.634 895.231C289.582 879.329 260.615 860.774 238.943 832.715C232.602 824.472 226.318 815.282 224.273 804.132C220.988 786.792 221.557 770.701 225.912 754.84C230.133 739.637 236.106 724.794 241.918 710.511C243.527 706.459 245.233 702.381 246.842 698.328C249.9 690.784 253.62 680.683 255.613 670.318C259.845 648.177 259.882 624.671 255.609 598.591C254.854 593.824 254.002 589.083 253.247 584.317C249.814 563.705 246.174 542.32 245.033 520.993C243.698 496.612 247.646 473.408 256.67 452.161C264.06 434.869 273.298 417.912 282.279 401.541C283.482 399.46 284.564 397.308 285.768 395.227C303.871 362.241 320.817 335.773 345.133 313.652C361.032 299.159 375.375 288.913 390.317 281.3C402.708 274.99 416.627 270.135 435.402 265.639C441.805 264.033 448.478 262.665 454.861 261.375C468.69 258.511 483.099 255.491 496.65 250.424C497.977 249.966 499.278 249.412 500.605 248.954C510.228 245.453 520.114 241.778 529.105 236.687C540.859 229.926 550.466 219.391 558.475 204.418C563.232 195.488 567.841 186.391 572.212 177.565C577.478 167.051 582.957 156.169 588.731 145.622C596.862 130.72 608.541 111.662 626.611 96.3837C639.034 85.925 653.732 81.2759 671.337 82.4748C690.179 83.654 707.96 91.3267 725.705 105.84C735.782 114.121 744.9 124.624 753.556 138.046C756.765 143.088 763.408 147.421 767.382 145.636L768.225 145.307C771.091 144.024 774.151 142.69 776.817 141.046L776.275 139.017C773.538 140.783 770.479 142.118 767.42 143.452L766.215 143.981Z" fill="#4397A5" fill-opacity="0.1"/>
    <path d="M727.221 53.3732C722.093 52.7757 716.94 52.0817 712.005 51.4327C701.698 50.0446 691.05 48.5407 680.537 47.9322C666.333 47.0671 652.362 48.624 639.055 52.2807C628.163 55.2923 619.604 61.6144 610.163 68.8963C594.134 81.3531 581.926 97.6541 571.773 111.958C568.476 116.667 565.057 121.306 561.76 126.016C550.918 141.228 539.721 157.052 528.125 172.155C516.077 187.896 504.828 198.869 492.726 206.655C484.682 211.804 475.859 216.748 466.52 221.311C457.735 225.624 448.841 229.137 438.136 233.237C433.531 234.984 428.778 236.564 424.218 238.092C417.847 240.207 411.284 242.374 405.069 245.068C382.353 254.963 361.615 268.781 341.73 287.339C319.932 307.65 300.988 330.51 285.42 355.161C276.052 370.082 267.033 385.532 258.322 400.589C254.356 407.444 249.895 415.156 245.478 422.649C232.795 444.149 225.782 468.275 223.878 496.418C223.07 508.123 223.962 519.994 224.804 531.673L224.784 531.988C224.965 534.217 225.147 536.446 225.231 538.7C225.917 548.247 227.137 557.857 228.403 567.248C230.36 581.941 232.323 597.046 232.031 612.235C231.663 628.687 230.297 647.993 222.393 666.457C215.66 682.331 206.976 699.037 196.011 717.283C184.436 736.727 176.513 758.612 171.806 784.399C169.041 799.628 168.615 815.474 170.759 832.808C172.361 846.56 179.302 857.437 192.555 867.147C202.349 874.365 213.379 880.011 224.138 885.418C229.054 887.935 234.214 890.594 239.181 893.304C264.218 907.216 283.237 917.974 300.838 928.075C306.592 931.404 312.3 934.951 317.886 938.428C325.849 943.443 334.032 948.504 342.498 953.074C355.66 960.117 369.181 962.303 382.598 959.445C385.935 958.761 389.606 957.781 392.195 955.848L393.322 955.029C400.058 950.022 406.988 944.963 411.456 937.663C415.924 930.364 420.392 923.064 424.86 915.764L425.169 915.371C430.513 906.699 435.973 897.686 441.484 888.865C447.941 878.55 456.17 866.727 468.329 857.995C485.26 845.815 503.501 841.255 522.762 844.392C545.914 848.147 566.086 858.183 584.45 875.015C594.566 884.217 602.937 895.023 611.109 905.469C614.279 909.59 617.572 913.783 621.032 917.827L622.044 918.902C624.093 921.15 626.046 923.423 627.902 925.722C632.155 930.797 636.678 936.109 641.84 940.321C655.332 951.312 668.79 957.137 683.168 958.266C695.092 959.119 710.571 959.333 724.437 952.733C736.282 947.086 746.476 938.361 754.588 926.879C774.658 898.543 791.92 875.2 811.289 853.157C816.531 847.203 821.379 840.94 825.764 834.491L830.348 828.402C839.774 814.086 849.58 799.254 854.592 781.977C860.795 760.241 862.514 738.77 859.835 718.268C857.813 702.557 854.421 689.076 849.599 677.219C847.555 672.279 845.222 667.416 843.011 662.624C841.58 659.591 840.149 656.557 838.692 653.427C837.435 650.658 836.178 647.888 834.947 645.216C830.473 635.439 825.922 625.372 821.758 615.202C819.282 609.032 817.65 602.533 816.044 596.13L815.451 593.908C812.645 582.237 813.453 570.532 814.629 560.593C815.746 551.6 819.222 542.909 824.586 535.474C832.396 524.798 845.175 521.489 860.436 526.315C867.555 528.555 874.564 531.548 881.568 535.681L880.845 532.976C874.287 529.345 867.741 526.538 860.964 524.415C844.73 519.434 831.274 522.924 822.943 534.36C817.341 542.066 813.724 551.002 812.612 560.407C811.366 570.469 810.539 582.489 813.422 594.45L814.015 596.672C815.621 603.075 817.279 609.67 819.78 615.937C823.945 626.107 828.522 636.27 832.995 646.047C834.252 648.817 835.509 651.586 836.74 654.259C838.1 657.415 839.654 660.519 841.059 663.456C843.244 668.151 845.578 673.014 847.621 677.954C852.418 689.715 855.662 703.028 857.728 718.52C860.427 738.707 858.727 759.861 852.569 781.378C847.699 798.411 838.06 813.095 828.679 827.192L824.166 833.158L824.095 833.281C819.807 839.704 814.933 845.87 809.788 851.798C790.348 873.963 772.989 897.333 752.92 925.669C745.097 937.073 735.263 945.598 723.683 951.071C710.177 957.472 695.014 957.277 683.38 956.347C669.44 955.308 656.323 949.598 643.102 938.845C638.089 934.801 633.687 929.559 629.434 924.485C627.482 922.212 625.529 919.938 623.577 917.665L622.662 916.564C619.298 912.494 616.005 908.301 612.834 904.18C604.663 893.734 596.17 882.857 585.905 873.488C567.271 856.417 546.758 846.266 523.264 842.395C503.565 839.168 484.744 843.883 467.381 856.385C454.958 865.291 446.562 877.262 440.06 887.796C434.549 896.617 429.089 905.63 423.745 914.302L423.533 914.67C419.065 921.969 414.597 929.269 410.129 936.569C405.873 943.501 399.137 948.509 392.568 953.368L391.441 954.186C389.187 955.823 385.709 956.752 382.662 957.358C369.632 960.113 356.645 957.991 343.946 951.135C335.603 946.635 327.421 941.575 319.457 936.559C313.871 933.083 308.163 929.535 302.41 926.207C284.782 916.009 265.789 905.348 240.753 891.436C235.785 888.725 230.625 886.067 225.612 883.575C214.95 878.142 204.042 872.567 194.371 865.42C181.608 855.994 174.892 845.573 173.348 832.427C171.256 815.286 171.637 799.659 174.428 784.527C179.019 759.081 186.871 737.319 198.305 718.12C209.34 699.751 218.024 683.045 224.828 667.049C232.874 648.34 234.285 628.815 234.601 612.17C234.867 596.884 232.852 581.586 230.896 566.893C229.656 557.599 228.435 547.988 227.75 538.442C227.568 536.213 227.387 533.984 227.303 531.73L227.322 531.414C226.533 519.929 225.614 507.961 226.377 496.476C228.236 468.551 235.23 444.74 247.675 423.512C252.092 416.019 256.624 408.184 260.59 401.329C269.229 386.395 278.223 370.848 287.617 356.023C303.114 331.495 321.987 308.757 343.618 288.594C363.432 270.159 383.906 256.515 406.429 246.672C412.547 244.003 419.111 241.836 425.384 239.747C429.944 238.219 434.697 236.64 439.303 234.892C450.007 230.792 458.973 227.156 467.88 222.915C477.315 218.325 486.139 213.382 494.279 208.207C506.548 200.273 517.991 189.248 530.18 173.262C541.75 158.063 552.973 142.336 563.79 127.027C567.086 122.317 570.409 117.704 573.802 112.968C583.885 98.7872 596.022 82.6085 611.884 70.3C621.061 63.192 629.549 56.9925 640.028 53.9874C653.116 50.2857 666.823 48.9028 680.808 49.7228C691.225 50.3572 701.847 51.7645 712.154 53.1526C717.088 53.8016 722.364 54.5664 727.492 55.1639C735.924 56.1209 745.059 56.9941 754.444 56.8687L753.928 54.9363C744.375 55.2099 735.46 54.3818 727.221 53.3732Z" fill="#4397A5" fill-opacity="0.1"/>
    <path d="M600.359 488.426C602.087 494.899 603.133 501.141 603.476 507.466C604.079 517.863 600.841 526.283 593.577 533.191C585.908 540.517 576.866 546.968 566.188 552.717C560.295 555.843 554.479 559.259 548.856 562.624C546.982 563.745 545.179 564.744 543.305 565.865L536.671 569.707C531.384 572.775 526.193 575.817 520.905 578.885L518.477 580.257C512.662 583.673 506.556 587.167 500.521 590.537C496.818 592.561 492.825 594.663 488.491 596.648C486.011 597.828 483.435 599.033 480.955 600.213C474.431 603.3 467.836 606.51 460.963 609.07C445.531 614.846 427.142 620.791 407.663 620.714C398.226 620.646 390.238 618.639 383.428 614.454C366.992 604.456 356.617 589.63 348.715 576.318C339.292 560.411 335.46 542.182 337.25 520.589C338.379 506.212 342.543 491.955 349.527 478.187C352.939 471.583 356.203 464.812 359.447 458.357C365.228 446.67 371.221 434.616 377.537 422.993C385.784 407.75 396.962 395.346 410.615 386.008C421.39 378.68 433.428 376.087 443.734 374.37C465.628 370.698 488.908 373.383 514.89 382.696C535.602 390.103 552.902 402.562 566.299 419.789C572.911 428.27 581.147 439.734 586.698 453.156C588.412 457.253 590.443 461.368 592.422 465.29C593.272 466.926 594.027 468.588 594.878 470.224L593.145 471.1C592.391 469.439 591.54 467.803 590.715 466.264C588.71 462.245 586.68 458.129 584.939 453.936C579.466 440.804 571.353 429.411 564.889 421.097C551.762 404.109 534.733 391.888 514.363 384.596C488.722 375.399 465.757 372.734 444.276 376.399C434.066 378.09 422.318 380.606 411.904 387.734C398.515 396.898 387.6 409.128 379.47 424.03C373.154 435.652 367.161 447.706 361.451 459.271C358.232 465.823 354.846 472.523 351.46 479.224C344.617 492.747 340.499 506.784 339.389 520.846C337.715 542.098 341.347 559.965 350.641 575.39C358.465 588.412 368.596 603.096 384.761 612.856C391.326 616.899 398.754 618.746 407.972 618.768C427.135 618.827 445.26 613.056 460.596 607.305C467.371 604.771 474.063 601.535 480.491 598.473C482.97 597.294 485.547 596.088 488.026 594.909C492.264 592.949 496.257 590.848 499.864 588.85C505.899 585.479 511.907 582.012 517.723 578.596L520.151 577.223C525.439 574.155 530.726 571.087 535.917 568.045L542.551 564.204C544.425 563.082 546.228 562.083 548.102 560.962C553.725 557.598 559.637 554.156 565.53 551.03C576.112 545.306 584.986 539.004 592.585 531.799C599.346 525.336 602.423 517.477 601.853 507.589C601.257 497.605 599.012 487.647 594.963 477.136C594.409 475.835 594.119 474.36 593.951 472.955C593.796 472.376 593.738 471.77 593.609 471.287L595.567 470.868C595.722 471.447 595.78 472.053 595.935 472.633C596.199 474.011 596.438 475.293 596.844 476.426C597.928 480.484 599.301 484.465 600.359 488.426Z" fill="#4397A5" fill-opacity="0.1"/>
    <path d="M647.179 517.636C647.469 519.111 647.663 520.612 647.953 522.087C648.65 526.248 649.496 530.577 650.025 534.886C652.382 551.852 636.263 564.747 623.767 567.566L620.044 568.353C609.893 570.649 599.426 572.927 589.533 576.189C576.02 580.625 562.848 585.177 550.676 591.533C540.332 596.986 530.344 603.379 520.645 609.695C516.13 612.556 511.474 615.663 506.837 618.453C502.129 621.366 497.324 624.305 492.687 627.096C487.426 630.26 481.9 633.599 476.593 636.982C465.857 643.679 453.916 649.351 440.938 653.851C425.86 659.016 409.732 663.736 392.712 659.69C383.216 657.464 376.547 651.482 370.8 645.461C361.72 635.879 353.632 624.583 347.026 611.857C345.376 608.778 343.603 605.629 341.953 602.55C338.782 596.876 335.585 591.106 332.846 585.11C329.552 577.812 326.998 569.8 325.018 561.22C321.515 545.388 320.493 533.033 321.54 521.058C323.01 505.244 327.894 489.035 336.249 471.486C339.815 463.909 343.819 456.423 347.656 449.085C349.517 445.586 351.281 442.114 353.045 438.641C361.207 422.696 370.085 405.938 382.59 391.525C392.925 379.45 404.723 370.917 417.72 366.101C428.451 362.098 440.522 360.013 454.635 359.764C483.152 359.188 510.504 364.719 535.843 376.273C557.148 385.903 574.648 400.275 587.679 418.842C592.841 426.158 597.475 433.822 601.96 441.318C603.63 444.081 605.325 446.941 607.091 449.678L607.29 450.038C616.055 464.259 625.169 479.007 633.844 493.665C637.008 498.927 640.031 504.433 642.931 509.869C644.182 512.226 645.406 514.487 646.754 516.818L644.229 518.217L647.179 517.636ZM329.142 565.812C330.845 572.188 332.979 578.243 335.493 583.782C338.11 589.707 341.307 595.478 344.452 601.055C346.199 604.108 347.875 607.283 349.55 610.458C356.106 622.991 363.923 634.049 372.828 643.367C378.305 649.15 384.555 654.726 393.297 656.843C409.538 660.683 425.183 656.092 439.9 651.127C452.588 646.704 464.458 641.154 474.905 634.535C480.334 631.222 485.763 627.91 491.096 624.623C495.733 621.832 500.537 618.893 505.245 615.98C509.856 613.093 514.538 610.083 519.053 607.222C528.752 600.906 538.934 594.461 549.374 588.982C561.74 582.575 575.008 577.998 588.714 573.51C598.8 570.196 609.364 567.893 619.515 565.596L623.238 564.809C634.645 562.177 649.232 550.52 647.146 535.344C646.52 531.061 645.797 526.803 645.1 522.642C644.81 521.167 644.616 519.666 644.325 518.191C643.075 515.834 641.754 513.599 640.503 511.242C637.629 505.903 634.632 500.493 631.467 495.231C622.792 480.573 613.679 465.825 604.914 451.604L604.714 451.244C603.045 448.481 601.253 445.647 599.558 442.788C595.098 435.388 590.439 427.627 585.425 420.479C572.594 402.272 555.513 388.306 534.768 378.837C509.797 367.495 482.882 362.054 454.778 362.624C440.98 362.892 429.199 364.899 418.855 368.8C406.315 373.39 394.974 381.697 384.948 393.379C372.681 407.522 363.875 424.157 355.853 439.858C354.09 443.33 352.229 446.829 350.369 450.327C346.603 457.543 342.624 465.126 339.032 472.606C330.792 489.814 326.147 505.752 324.67 521.154C323.547 532.839 324.588 544.878 328.013 560.421C328.31 562.308 328.678 564.073 329.142 565.812Z" fill="#4397A5" fill-opacity="0.1"/>
    <path d="M677.141 524.023C677.496 526.516 677.851 529.009 678.18 531.405C678.994 536.777 679.788 542.464 680.118 547.965C681.375 570.504 672.588 588.376 653.847 601.143C647.633 605.39 639.954 606.094 633.172 606.663C628.424 607.103 623.625 607.349 618.923 607.57C611.168 607.984 603.122 608.476 595.354 609.619C585.286 611.065 575.084 614.721 563.008 621.05C551.126 627.328 540.661 635.815 530.557 644.102C527.659 646.429 524.69 648.877 521.792 651.204C507.444 662.591 494.969 671.304 480.213 676.9C476.935 678.189 473.56 679.504 470.256 680.697C463.892 683.224 457.213 685.732 450.605 688.117C438.593 692.36 427.663 696.003 416.578 699.066C407.496 701.491 398.33 703.214 389.177 704.209C379.418 705.262 370.908 700.91 364.528 691.746C361.325 687.115 358.044 682.195 355.679 676.824C349.819 663.794 344.539 650.61 339.491 638.295C338.305 635.404 337.093 632.415 335.907 629.523C331.162 617.956 326.314 606.002 322.169 593.964C316.321 577.102 310.105 556.922 309.035 535.472C307.855 513.223 312.673 491.34 323.572 470.523C326.797 464.384 329.874 458.076 333.003 451.962C338.339 441.326 343.792 430.347 349.76 419.749C357.968 405.137 365.224 393.16 374.026 382.322C385.397 368.315 400.107 358.28 416.351 353.218C428.685 349.408 442.096 347.69 459.9 347.697C484.301 347.599 507.654 353.266 529.241 359.302C549.734 365.112 568.405 375.342 584.861 389.682C594.062 397.782 602.568 407.931 610.824 420.631L613.312 424.521C627.587 446.586 642.262 469.371 658.585 490.578C667.452 502.08 673.317 512.417 677.102 523.102L675.221 523.811C671.488 513.319 665.771 503.15 657.052 491.815C640.703 470.512 625.932 447.752 611.727 425.565L609.24 421.676C601.132 409.143 592.774 399.161 583.599 391.157C567.413 377.055 548.89 366.993 528.714 361.202C507.223 355.141 484.089 349.519 459.908 349.662C442.322 349.7 429.104 351.366 416.963 355.125C400.983 360.013 386.661 369.944 375.502 383.584C366.77 394.299 359.585 406.154 351.474 420.741C345.577 431.216 340.124 442.195 334.787 452.831C331.755 458.92 328.582 465.253 325.357 471.393C314.67 491.841 309.872 513.409 311.07 535.343C312.185 556.574 318.227 576.489 324.146 593.229C328.266 605.17 333.114 617.124 337.859 628.692C339.045 631.583 340.257 634.572 341.443 637.464C346.394 649.804 351.771 662.963 357.508 675.921C359.822 681.1 362.98 685.949 366.157 690.483C372.189 699.119 379.869 703.072 388.925 702.103C397.982 701.133 407.147 699.411 416.036 697.037C427.05 694.096 437.955 690.357 449.967 686.114C456.504 683.851 463.157 681.247 469.521 678.72C472.799 677.43 476.174 676.115 479.453 674.826C493.919 669.307 506.419 660.691 520.503 649.478C523.498 647.126 526.37 644.703 529.268 642.376C539.372 634.089 549.882 625.383 561.958 619.054C574.201 612.576 584.719 608.94 594.857 607.371C602.722 606.203 610.793 605.807 618.645 605.367C623.348 605.146 628.121 604.803 632.894 604.46C639.458 603.846 646.846 603.219 652.629 599.294C670.771 586.998 679.301 569.712 678.031 547.902C677.701 542.401 676.932 536.81 676.119 531.438C675.79 529.041 675.409 526.452 675.054 523.959L677.141 524.023Z" fill="#4397A5" fill-opacity="0.1"/>
    <path d="M506.502 457.491C506.631 457.974 506.663 458.483 506.792 458.966C506.953 459.958 507.211 460.924 507.276 461.942C509.091 476.88 503.871 488.727 491.313 498.291C479.019 507.68 464.996 510.596 447.262 507.362C438.771 505.799 430.13 494.755 428.787 486.626C425.27 466.864 432.576 450.423 450.37 437.599C457.061 432.81 465.287 432.994 473.178 433.475C486.777 434.398 497.594 441.964 506.218 456.429L503.816 457.898L506.502 457.491ZM431.905 487.449C433.891 494.889 441.643 503.376 447.725 504.444C464.68 507.472 477.929 504.762 489.457 495.992C501.055 487.099 505.902 476.179 504.274 462.33C504.139 461.434 503.977 460.442 503.745 459.573C503.616 459.09 503.584 458.581 503.455 458.098C495.205 444.258 485.418 437.452 472.767 436.586C465.385 436.074 457.79 435.928 451.891 440.194C434.863 452.4 428.214 467.424 431.499 486.316C431.673 486.58 431.802 487.063 431.905 487.449Z" fill="#4397A5" fill-opacity="0.1"/>
    <path d="M535.404 453.707L535.559 454.287C536.055 456.535 536.455 458.809 536.83 460.986C541.146 483.743 533.803 502.368 514.406 518.104C503.677 526.765 491.363 533.365 476.838 538.278C470.275 540.445 463.306 541.478 457.399 542.227L456.504 542.362C445.077 543.757 433.334 545.133 421.519 541.974C407.269 538.223 398.268 530.483 394.786 518.993C392.174 510.375 392.539 501.273 393.361 495.05C395.508 479.055 399.014 466.216 404.363 454.851C411.824 438.989 421.167 427.076 433.036 418.421C438.574 414.355 444.912 411.731 451.662 410.653C467.823 407.994 481.667 409.059 494.068 414.028C502.199 417.343 509.37 422.88 516.322 428.372L516.445 428.443C524.157 434.457 530.253 442.559 535.056 453.179L533.297 453.959C528.572 443.629 522.65 435.791 515.208 430.015L515.086 429.945C508.282 424.62 501.207 419.056 493.322 415.883C481.384 411.101 467.831 409.959 451.985 412.637C445.454 413.76 439.503 416.28 434.202 420.076C422.572 428.46 413.37 440.129 406.148 455.72C400.869 466.962 397.408 479.582 395.307 495.358C394.529 501.362 394.113 510.271 396.622 518.503C399.923 529.317 408.383 536.58 421.976 540.196C433.353 543.265 444.973 541.818 456.233 540.572L457.128 540.436C462.938 539.713 469.811 538.706 476.181 536.591C490.512 531.729 502.536 525.206 513.098 516.694C531.921 501.524 539.008 483.486 534.801 461.528C534.401 459.254 533.93 457.103 533.53 454.829L533.375 454.249L535.404 453.707Z" fill="#4397A5" fill-opacity="0.1"/>
    <path d="M759.057 721.888C764.707 743.047 757.621 762.638 738.604 776.307C718.723 790.62 696.937 788.881 680.149 785.704C661.101 782.2 645.335 771.608 630.155 761.275L627.114 759.189C622.211 755.944 617.353 752.48 612.617 749.086C603.687 742.776 594.486 736.228 585.035 730.679C570.416 722.058 554.427 717.219 537.433 716.374C514.443 715.164 490.674 716.853 466.881 721.55C450.559 724.77 434.012 730.637 416.423 739.577C407.4 744.16 398.706 749.587 390.179 754.865C386.456 757.205 382.541 759.596 378.625 761.987C378.097 762.335 377.472 762.709 376.944 763.057C371.779 766.195 366.35 769.508 359.767 770.438C352.99 771.419 346.001 769.663 340.55 765.529C335.763 761.942 332.746 756.848 331.978 751.257C329.848 736.301 328.613 722.761 328.242 710.129C327.721 692.672 326.497 672.195 321.446 652.118C319.118 643.011 316.667 633.832 314.268 624.847C312.849 619.533 311.36 614.342 310.037 609.002C308.773 604.268 307.458 599.341 306.123 594.729C303.008 583.451 299.79 571.786 297.422 560.205C291.145 530.106 292.599 504.152 302.151 481.004C308.175 466.354 315.443 452.097 321.816 439.527C328.685 426.101 336.224 412.082 345.732 395.363C355.853 377.445 368.815 362.806 384.187 351.767C394.691 344.201 406.278 339.14 419.379 336.263C445.511 330.631 472.482 330.468 499.757 335.709C521.267 339.902 540.67 344.347 558.991 349.391C576.971 354.32 593.877 363.365 609.289 376.121C617.55 383.023 625.192 392.265 633.21 405.235C645.21 424.595 657.952 444.792 672.201 466.759C673.967 469.496 675.855 472.304 677.595 474.945C683.93 484.328 690.439 493.975 694.881 504.796C695.107 505.253 695.551 505.755 695.996 506.258C696.292 506.592 696.589 506.927 696.911 507.359L695.353 508.499C695.153 508.139 694.882 507.901 694.586 507.566C694.019 506.993 693.426 506.323 693.097 505.479C688.707 494.852 682.224 485.301 675.914 476.014C674.052 473.303 672.286 470.566 670.398 467.758C656.123 445.694 643.407 425.594 631.407 406.234C623.537 393.431 616.043 384.357 607.931 377.622C592.763 365.008 576.102 356.105 558.367 351.318C540.046 346.273 520.642 341.829 499.255 337.706C472.295 332.484 445.518 332.596 419.702 338.247C406.768 340.976 395.471 345.959 385.231 353.351C370.123 364.216 357.328 378.707 347.35 396.38C337.841 413.099 330.302 427.118 323.53 440.519C317.157 453.088 309.889 467.346 303.935 481.873C294.596 504.654 293.135 530.195 299.335 560.005C301.703 571.586 304.921 583.25 308.01 594.432C309.274 599.166 310.661 603.971 311.951 608.802C313.369 614.116 314.762 619.333 316.181 624.647C318.555 633.535 321.128 642.785 323.36 651.918C328.365 672.214 329.615 692.788 330.161 710.341C330.532 722.973 331.716 736.319 333.846 751.276C334.485 756.384 337.276 761.021 341.67 764.298C346.702 768.026 353.157 769.718 359.425 768.769C365.595 767.846 370.593 764.856 375.829 761.595C376.454 761.221 376.982 760.873 377.607 760.499C381.452 758.23 385.341 755.743 389.064 753.403C397.591 748.125 406.382 742.672 415.502 738.064C433.284 729.072 449.927 723.179 466.539 719.882C490.526 715.133 514.391 713.419 537.6 714.674C554.909 715.538 571.24 720.493 586.007 729.281C595.581 734.901 604.782 741.449 613.738 747.856C618.447 751.152 623.305 754.616 628.112 757.887L631.153 759.973C646.184 770.139 661.706 780.589 680.439 784.074C696.788 787.161 718.136 788.81 737.418 774.967C759.984 758.695 765.09 733.629 751.168 707.848C744.949 696.571 735.908 686.357 727.905 677.316C719.109 667.244 708.192 653.495 702.486 636.388C702.305 635.712 702.028 635.061 701.847 634.385C700.552 630.694 699.352 626.978 699.364 623.145C699.689 613.122 700.13 601.205 701.93 589.339C706.274 559.094 704.431 534.746 696.075 512.757C695.721 511.817 695.656 510.799 695.495 509.807C695.488 509.395 695.385 509.008 695.378 508.596L697.362 508.273C697.369 508.686 697.498 509.169 697.504 509.581C697.543 510.502 697.653 511.301 697.93 511.951C706.46 534.204 708.381 558.843 703.92 589.429C702.217 601.269 701.725 612.992 701.399 623.016C701.285 626.462 702.555 630.056 703.799 633.553C703.98 634.23 704.257 634.88 704.437 635.556C710.066 652.374 720.809 665.859 729.456 675.763C737.486 684.901 746.649 695.185 752.92 706.656C755.621 711.731 757.716 716.864 759.057 721.888Z" fill="#4397A5" fill-opacity="0.1"/>
    <path d="M776.075 718.172C779.738 731.892 779.189 746.115 774.246 760.165C771.369 768.386 765.349 775.686 760.79 780.319C750.216 791.112 740.234 797.917 729.452 801.728C718.96 805.461 707.636 807.242 695.867 806.969C678.011 806.769 660.321 801.763 643.48 792.183C639.195 789.705 634.936 787.323 630.749 784.818C617.406 777.099 603.695 769.168 589.734 762.234C562.154 748.484 535.335 741.465 507.746 740.862C487.12 740.366 471.622 742.02 457.278 746.057C445.059 749.527 433.253 754.542 422.15 761.026C408.187 769.205 395.913 779.831 383.974 790.16C380.96 792.828 377.85 795.522 374.714 798.119C362.987 808.081 351.599 811.95 338.864 810.382C327.61 808.936 320.773 801.55 314.857 794.125C309.734 787.73 306.794 779.821 305.535 769.289C303.494 752.342 305.26 735.31 306.891 718.935C307.417 713.93 307.918 708.828 308.322 703.752C310.125 681.431 309.611 664.387 306.881 648.348C305.442 640.245 303.442 631.981 301.52 624.007C300.533 619.924 299.495 615.647 298.579 611.441C297.172 605.399 295.74 599.261 294.36 593.316C290.98 579.107 287.471 564.414 284.909 549.78C280.011 522.521 282.515 497.011 292.19 473.935C297.635 460.992 303.815 448.474 311.366 433.727C319.555 417.878 326.919 403.594 335.379 389.536C343.909 375.356 353.767 360.717 367.554 349.17C381.465 337.693 394.081 330.287 407.33 326.025C415.632 323.394 424.334 321.485 433.198 320.567C451.89 318.474 470.204 318.449 487.603 320.427C517.081 323.838 548.125 329.626 585.334 338.735C604.718 343.496 619.446 349.81 631.572 358.786C640.334 365.244 646.83 372.514 650.787 380.359C655.37 389.382 659.618 398.702 663.692 407.757C666.76 414.597 669.977 421.604 673.239 428.393C675.772 433.616 678.717 438.833 681.585 443.76C683.106 446.355 684.679 449.144 686.129 451.862C687.302 453.929 688.379 456.022 689.552 458.09C693.148 464.582 696.822 471.363 700.18 478.126C703.513 484.792 706.51 491.754 709.553 498.498C710.887 501.557 712.344 504.687 713.679 507.746L711.006 508.978C709.575 505.944 708.214 502.788 706.88 499.729C703.96 493.056 700.866 486.12 697.533 479.454C694.175 472.691 690.527 466.006 686.931 459.514C685.758 457.447 684.681 455.353 683.508 453.286C682.058 450.568 680.511 447.876 678.99 445.281C676.096 440.257 673.151 435.04 670.592 429.721C667.304 422.836 664.088 415.828 661.019 408.988C656.971 400.029 652.723 390.71 648.166 381.783C644.408 374.299 638.209 367.364 629.84 361.215C617.984 352.477 603.598 346.279 584.652 341.608C547.565 332.57 516.715 326.731 487.359 323.391C470.179 321.457 452.085 321.527 433.585 323.569C424.941 324.531 416.406 326.293 408.323 328.969C395.461 333.128 383.205 340.333 369.533 351.539C355.958 362.72 346.364 377.184 337.975 391.12C329.586 405.056 322.222 419.339 314.033 435.188C306.456 449.839 300.373 462.331 294.902 475.177C285.414 497.79 282.974 522.765 287.788 549.322C290.421 563.834 293.834 578.552 297.188 592.664C298.568 598.609 300 604.747 301.406 610.789C302.322 614.995 303.335 619.176 304.348 623.356C306.27 631.33 308.269 639.594 309.76 647.89C312.567 664.218 313.037 681.482 311.285 703.996C310.881 709.072 310.31 714.296 309.88 719.275C308.223 735.554 306.528 752.463 308.466 769.024C309.693 779.047 312.381 786.402 317.182 792.365C323.046 799.597 329.071 806.269 339.23 807.49C351.115 808.974 361.73 805.312 372.787 795.942C375.923 793.345 379.033 790.651 382.047 787.984C394.057 777.532 406.499 766.757 420.752 758.501C432.048 751.966 444.118 746.776 456.53 743.255C471.163 739.141 486.977 737.506 507.893 737.925C535.895 738.521 563.151 745.63 591.099 759.593C605.086 766.623 618.919 774.625 632.262 782.344C636.546 784.823 640.708 787.231 644.993 789.709C661.441 798.98 678.57 803.825 695.918 804.058C707.345 804.215 718.282 802.537 728.485 798.881C738.906 795.27 748.431 788.691 758.67 778.194C762.965 773.735 768.773 766.802 771.366 759.071C778.696 738.069 776.21 717.515 763.868 698.04C759.015 690.331 753.679 682.751 748.517 675.435C743.181 667.855 737.793 660.082 732.766 652.109C728.287 645.024 724.709 636.664 721.917 627.37C717.642 613.297 718.204 598.346 718.696 585.069C719.398 565.216 718.413 547.573 715.696 530.806C714.889 525.847 713.741 520.771 712.547 515.915C712.051 513.667 711.457 511.444 711.057 509.171L713.982 508.493C714.478 510.741 714.949 512.893 715.543 515.115C716.639 519.997 717.91 525.144 718.742 530.2C721.485 547.063 722.451 565.022 721.678 584.997C721.231 598.055 720.714 612.787 724.861 626.377C727.601 635.478 731.102 643.548 735.407 650.369C740.408 658.245 745.796 666.018 751.132 673.598C756.319 681.011 761.655 688.591 766.534 696.396C770.917 703.506 774.114 710.83 776.075 718.172Z" fill="#4397A5" fill-opacity="0.1"/>
    <path d="M700.081 350.222C701.611 357.887 700.351 365.572 699.11 372.942C698.865 374.353 698.621 375.764 698.473 377.149C696.474 390.206 694.385 403.702 697.533 417.041C698.836 422.697 700.674 429.969 703.311 437.131C705.748 443.932 708.501 450.753 711.079 457.31C713.658 463.866 716.411 470.687 718.822 477.392C729.196 505.777 734.636 536.617 735.246 571.852L735.324 573.695C735.541 587.299 735.765 601.316 739.131 614.7C742.524 628.182 747.146 639.678 753.424 650.008C758.058 657.672 762.911 665.381 767.686 672.801C771.444 678.732 775.253 684.857 778.939 690.911C788.922 706.979 793.398 724.518 792.361 743.115C791.65 756.346 788.259 767.292 782.123 776.486C773.547 789.333 762.29 799.894 746.705 809.749C730.089 820.395 710.856 825.117 687.795 824.029C673.108 823.293 658.433 818.724 641.669 809.435C637.655 807.194 633.667 805.05 629.75 802.784C617.831 796.134 605.544 789.271 593.123 783.065C560.504 766.727 529.376 758.685 497.67 758.56C485.225 758.468 472.955 760.191 461.026 763.584C438.161 770.206 418.44 782.407 400.642 801.028C392.387 809.65 381.285 820.791 368.315 830.361C357.863 838.12 346.094 837.847 337.03 836.851C319.386 834.731 307.845 822.908 299.9 812.92C295.743 807.819 292.83 803.111 290.696 798.609C285.714 787.313 283.809 774.366 285.092 759.015C286.228 745.049 288.768 730.916 291.121 717.246L291.636 714.521C297.114 683.87 297.679 658.465 293.394 634.664C291.4 623.708 288.872 612.687 286.421 601.956C285.872 599.515 285.324 597.074 284.776 594.633L284.356 592.675C278.873 568.263 273.158 542.982 273.497 517.119C273.711 501.639 277.571 486.636 281.471 474.106C285.3 461.698 291.544 450.198 297.577 439.065C299.18 436.153 300.828 433.022 302.405 430.013C309.467 416.535 318.344 399.777 327.138 383.87C339.615 361.598 355.797 343.511 375.253 329.933C385.473 322.856 396.693 317.584 409.562 313.837C429.335 308.04 451.275 305.701 476.449 306.949C490.285 307.601 504.258 309.149 517.818 310.704C525.496 311.552 533.516 312.515 541.362 313.215C555.038 314.428 568.907 315.589 582.267 316.783C599.222 318.259 616.808 319.774 634.104 321.366C647.709 322.701 663.434 324.609 678.09 331.046C687.567 335.14 694.893 341.257 699.849 349.353L698.168 350.423C693.29 342.617 686.479 336.88 677.247 332.928C662.932 326.607 647.33 324.769 633.918 323.382C616.718 321.764 599.133 320.25 582.081 318.799C568.624 317.631 554.755 316.47 541.176 315.231C533.33 314.532 525.31 313.568 517.535 312.746C504.071 311.166 490.099 309.618 476.359 308.939C451.404 307.736 429.658 310.024 410.078 315.769C397.402 319.464 386.375 324.686 376.322 331.613C357.131 345.018 341.116 362.957 328.852 384.862C320.032 400.672 311.251 417.404 304.189 430.882C302.612 433.891 300.938 436.925 299.361 439.934C293.4 450.944 287.252 462.419 283.468 474.607C279.736 486.989 275.824 501.8 275.655 517.06C275.238 542.633 280.928 567.818 286.508 592.204L286.927 594.162C287.475 596.603 288.024 599.044 288.572 601.485C291.023 612.216 293.552 623.237 295.475 634.316C299.715 658.335 299.201 683.934 293.704 714.9L293.189 717.625C290.81 731.198 288.244 745.235 287.205 759.175C285.941 774.21 287.768 786.867 292.648 797.778C294.633 802.112 297.521 806.724 301.529 811.657C309.301 821.381 320.519 832.772 337.435 834.88C346.209 835.953 357.443 836.162 367.271 828.777C380.144 819.232 391.175 808.214 399.334 799.618C417.371 780.726 437.426 768.229 460.607 761.625C472.729 758.182 485.192 756.406 497.734 756.473C529.659 756.643 561.199 764.679 594.063 781.158C606.484 787.364 618.796 794.324 630.715 800.974C634.729 803.214 638.646 805.48 642.634 807.624C659.153 816.772 673.513 821.322 687.859 821.942C710.482 822.94 729.328 818.321 745.609 807.971C760.905 798.194 771.994 787.781 780.454 775.275C786.448 766.326 789.627 755.748 790.344 742.929C791.389 724.744 786.893 707.521 777.207 691.787C773.52 685.733 769.615 679.634 765.98 673.774C761.301 666.329 756.422 658.523 751.691 650.885C745.388 640.458 740.618 628.794 737.27 615.094C733.826 601.42 733.673 587.28 733.43 573.579L733.352 571.737C732.697 536.721 727.405 506.048 717.083 477.856C714.672 471.152 711.919 464.331 709.34 457.774C706.736 451.121 703.983 444.3 701.572 437.595C698.909 430.336 697.045 422.968 695.742 417.313C692.588 403.561 694.625 389.872 696.669 376.595C696.914 375.184 697.158 373.774 697.306 372.389C698.618 364.897 699.717 357.772 698.265 350.397L700.081 350.222Z" fill="#4397A5" fill-opacity="0.1"/>
    <path d="M558.96 452.386C559.302 454.054 559.767 455.793 560.231 457.532C561.166 461.423 562.224 465.384 562.676 469.403C563.503 477.152 564.194 484.006 563.456 490.931C561.272 510.662 548.039 523.511 535.365 533.415C524.417 542.031 512.071 549.675 497.728 556.817C473.228 568.948 447.206 575.378 418.02 576.547C398.045 577.326 382.048 568.97 370.396 551.692C367.837 547.924 366.013 543.029 364.852 537.129C361.948 522.379 363.45 507.073 369.609 488.661C375.794 470.346 382.932 454.053 391.275 438.783C401.93 419.378 414.693 405.93 430.208 397.751C436.198 394.599 443.264 393.541 450.136 392.533L451.927 392.262C468.333 389.745 485.758 391.82 503.694 398.52C516.797 403.405 528.221 410.912 537.429 420.977C547.23 431.712 553.958 441.404 558.657 451.639L555.984 452.87C551.388 443.022 544.808 433.497 535.278 423C526.366 413.27 515.407 405.95 502.67 401.277C485.102 394.79 468.212 392.779 452.289 395.167L450.498 395.438C443.941 396.465 437.068 397.472 431.536 400.398C416.285 408.403 404.333 421.013 393.724 440.2C385.425 455.25 378.454 471.395 372.244 489.614C366.246 507.465 364.737 522.358 367.583 536.503C368.641 542.017 370.362 546.525 372.721 549.932C383.825 566.322 398.965 574.183 417.826 573.494C446.529 572.454 472.261 566.101 496.278 554.099C510.524 546.983 522.606 539.513 533.387 531.045C545.629 521.463 558.289 509.181 560.345 490.519C561.064 483.91 560.398 477.153 559.649 469.694C559.248 465.868 558.216 462.003 557.307 458.209C556.868 456.567 556.475 454.705 556.036 453.063L558.96 452.386Z" fill="#4397A5" fill-opacity="0.1"/>
    <path d="M719.952 24.9875C716.918 24.8661 713.955 24.6223 710.921 24.5009C693.148 23.4502 674.841 22.3352 656.516 24.6407C641.99 26.449 630.023 28.92 618.984 34.8691C611.815 38.6462 605.272 43.6019 599.187 48.3319C582.295 61.4331 569.166 77.7731 555.998 94.7444C540.834 114.319 524.505 135.343 507.178 156.116C495.42 170.227 480.84 182.297 464.018 192.17C448.613 201.148 431.957 207.769 415.784 214.261C411.108 216.131 406.142 218.078 401.396 220.07C375.781 230.739 353.079 246.116 332.093 267.141C312.659 286.614 293.451 309.649 273.472 337.547C258.025 359.163 242.573 383.472 226.53 411.769C210.628 439.821 202.496 469.834 202.435 501.005C202.357 517.38 203.47 533.954 204.428 549.948C204.759 555.449 205.115 561.046 205.445 566.547C206.482 585.936 205.766 603.412 203.221 620.238C202.494 624.883 200.847 629.567 199.244 634.031L198.871 634.959C191.972 654.086 181.194 671.868 170.771 689.038L170.558 689.406C160.746 705.377 153.073 720.054 146.823 734.246C142.774 743.504 139.363 753.213 136.164 762.554C134.446 767.36 132.754 772.263 130.964 777.191L132.28 782.118C134.681 775.992 136.837 769.723 138.922 763.577C142.12 754.236 145.46 744.65 149.535 735.489C155.714 721.418 163.343 706.961 173.058 691.015L173.271 690.648C183.765 673.355 194.613 655.451 201.628 635.982L202.001 635.054C203.649 630.371 205.393 625.661 206.139 620.701C208.755 603.753 209.49 585.961 208.402 566.379C208.071 560.878 207.715 555.28 207.385 549.779C206.426 533.785 205.339 517.308 205.443 501.03C205.536 470.368 213.482 440.818 229.197 413.23C245.266 385.03 260.622 360.747 275.997 339.253C295.906 311.477 315.017 288.468 334.284 269.144C355.032 248.389 377.373 233.212 402.627 222.743C407.374 220.751 412.243 218.829 417.015 216.934C433.285 210.416 450.108 203.647 465.61 194.643C482.819 184.666 497.637 172.326 509.633 157.945C527.057 137.146 543.386 116.122 558.549 96.5472C571.55 79.7241 584.608 63.5065 601.262 50.676C607.251 45.9717 613.723 41.1385 620.601 37.4388C631.306 31.7861 642.983 29.3925 657.193 27.565C675.228 25.3369 693.413 26.381 711.089 27.4575C714.149 27.6756 717.087 27.8227 720.121 27.9442C729.564 28.4243 738.247 28.3828 746.46 27.7424L745.686 24.844C737.473 25.4843 729.106 25.545 719.952 24.9875Z" fill="#4397A5" fill-opacity="0.1"/>
</svg>
