<?xml version="1.0" encoding="UTF-8" standalone="no"?>
<!DOCTYPE svg PUBLIC "-//W3C//DTD SVG 1.1//EN" "http://www.w3.org/Graphics/SVG/1.1/DTD/svg11.dtd">
<svg width="100%" height="100%" viewBox="0 0 773 747" version="1.1" xmlns="http://www.w3.org/2000/svg" xmlns:xlink="http://www.w3.org/1999/xlink" xml:space="preserve" xmlns:serif="http://www.serif.com/" style="fill-rule:evenodd;clip-rule:evenodd;stroke-miterlimit:10;">
    <g transform="matrix(1,0,0,1,-3590.09,-33320.9)">
        <g transform="matrix(8.33333,0,0,8.33333,0,0)">
            <g opacity="0.8">
                <g transform="matrix(1,0,0,1,505.864,4003.53)">
                    <path d="M0,62.738L-57.426,62.738C-64.386,62.738 -70.028,57.095 -70.028,50.135L-70.028,12.602C-70.028,5.642 -64.386,0 -57.426,0L0,0C6.961,0 12.604,5.642 12.604,12.602L12.604,50.135C12.604,57.095 6.961,62.738 0,62.738Z" style="fill:none;fill-rule:nonzero;stroke:rgb(49,56,73);stroke-width:1px;"/>
                </g>
                <g transform="matrix(1,0,0,1,491.413,4009.4)">
                    <path d="M0,38.986L-26.709,38.986C-33.669,38.986 -39.312,33.343 -39.312,26.382L-39.312,12.602C-39.312,5.642 -33.669,0 -26.709,0L0,0C6.96,0 12.603,5.642 12.603,12.602L12.603,26.382C12.603,33.343 6.96,38.986 0,38.986Z" style="fill:none;fill-rule:nonzero;stroke:rgb(49,56,73);stroke-width:1px;"/>
                </g>
                <g transform="matrix(0,-1,-1,0,456.471,4051.83)">
                    <ellipse cx="-4.369" cy="0" rx="4.37" ry="4.369" style="fill:none;stroke:rgb(49,56,73);stroke-width:1px;"/>
                </g>
                <g transform="matrix(0,-1,-1,0,471.025,4051.83)">
                    <circle cx="-4.37" cy="0" r="4.37" style="fill:none;stroke:rgb(49,56,73);stroke-width:1px;"/>
                </g>
                <g transform="matrix(0,-1,-1,0,484.865,4051.83)">
                    <ellipse cx="-4.369" cy="0" rx="4.37" ry="4.369" style="fill:none;stroke:rgb(49,56,73);stroke-width:1px;"/>
                </g>
                <g transform="matrix(0,-1,-1,0,499.646,4051.83)">
                    <ellipse cx="-4.369" cy="0" rx="4.37" ry="4.369" style="fill:none;stroke:rgb(49,56,73);stroke-width:1px;"/>
                </g>
                <g transform="matrix(-1,0,0,1,907.116,3162)">
                    <rect x="444.585" y="904.263" width="17.946" height="13.472" style="fill:none;stroke:rgb(49,56,73);stroke-width:1px;"/>
                </g>
                <g transform="matrix(-1,0,0,1,907.117,3178.74)">
                    <rect x="448.315" y="901" width="10.487" height="3.263" style="fill:none;stroke:rgb(49,56,73);stroke-width:1px;"/>
                </g>
                <g transform="matrix(-1,0,0,1,956.117,3162)">
                    <rect x="469.086" y="904.263" width="17.945" height="13.472" style="fill:none;stroke:rgb(49,56,73);stroke-width:1px;"/>
                </g>
                <g transform="matrix(-1,0,0,1,956.118,3178.74)">
                    <rect x="472.815" y="901" width="10.488" height="3.263" style="fill:none;stroke:rgb(49,56,73);stroke-width:1px;"/>
                </g>
                <g transform="matrix(-1,0,0,1,1005.47,3162)">
                    <rect x="493.761" y="904.263" width="17.945" height="13.472" style="fill:none;stroke:rgb(49,56,73);stroke-width:1px;"/>
                </g>
                <g transform="matrix(-1,0,0,1,1005.46,3178.74)">
                    <rect x="497.489" y="901" width="10.487" height="3.263" style="fill:none;stroke:rgb(49,56,73);stroke-width:1px;"/>
                </g>
                <g transform="matrix(1,0,0,1,452.101,4029.43)">
                    <path d="M0,-0.542L12.294,-0.542L21.616,-8.661L34.93,8.119L43.175,-0.542L51.914,-0.542" style="fill:none;fill-rule:nonzero;stroke:rgb(49,56,73);stroke-width:1px;"/>
                </g>
            </g>
        </g>
    </g>
</svg>
