<?xml version="1.0" encoding="UTF-8" standalone="no"?>
<!DOCTYPE svg PUBLIC "-//W3C//DTD SVG 1.1//EN" "http://www.w3.org/Graphics/SVG/1.1/DTD/svg11.dtd">
<svg width="100%" height="100%" viewBox="0 0 274 274" version="1.1" xmlns="http://www.w3.org/2000/svg" xmlns:xlink="http://www.w3.org/1999/xlink" xml:space="preserve" xmlns:serif="http://www.serif.com/" style="fill-rule:evenodd;clip-rule:evenodd;stroke-linejoin:round;stroke-miterlimit:2;">
    <g transform="matrix(1,0,0,1,-10639.4,-11240.3)">
        <g transform="matrix(8.33333,0,0,8.33333,0,0)">
            <g opacity="0.85">
                <g transform="matrix(1,0,0,1,1291.29,1359.32)">
                    <path d="M0,5.438L2.355,7.793L9.639,0.509C9.953,0.195 10.127,-0.223 10.127,-0.668C10.127,-1.112 9.953,-1.531 9.639,-1.845C9.01,-2.474 7.913,-2.474 7.284,-1.845L0,5.438ZM2.355,9.318C2.188,9.318 2.027,9.251 1.909,9.133L-1.339,5.885C-1.457,5.766 -1.524,5.606 -1.524,5.438C-1.524,5.271 -1.457,5.11 -1.339,4.992L6.392,-2.738C7.532,-3.88 9.39,-3.88 10.532,-2.738C11.674,-1.597 11.674,0.261 10.532,1.402L2.802,9.133C2.684,9.251 2.523,9.318 2.355,9.318" style="fill:white;fill-rule:nonzero;"/>
                </g>
                <g transform="matrix(1,0,0,1,1290.39,1379.13)">
                    <path d="M0,-13.478L-5.193,-8.284C-7.533,-5.944 -9.427,-3.26 -10.834,-0.289C-7.863,-1.696 -5.179,-3.589 -2.839,-5.929L2.355,-11.123L0,-13.478ZM-12.067,1.576C-12.231,1.576 -12.393,1.512 -12.514,1.391C-12.693,1.211 -12.748,0.941 -12.651,0.706C-11.136,-3.012 -8.926,-6.337 -6.086,-9.177L-0.446,-14.817C-0.21,-15.054 0.21,-15.054 0.446,-14.817L3.694,-11.569C3.813,-11.451 3.88,-11.29 3.88,-11.123C3.88,-10.955 3.813,-10.794 3.694,-10.676L-1.945,-5.037C-4.785,-2.196 -8.11,0.013 -11.828,1.529C-11.905,1.561 -11.987,1.576 -12.067,1.576" style="fill:white;fill-rule:nonzero;"/>
                </g>
                <g transform="matrix(1,0,0,1,1277.36,1379.38)">
                    <path d="M0,2.29C-0.162,2.29 -0.323,2.228 -0.446,2.105C-0.693,1.858 -0.693,1.459 -0.446,1.212L0.519,0.247C0.766,0 1.165,0 1.411,0.247C1.658,0.494 1.658,0.893 1.411,1.14L0.446,2.105C0.323,2.228 0.162,2.29 0,2.29" style="fill:white;fill-rule:nonzero;"/>
                </g>
                <g transform="matrix(1,0,0,1,1286.98,1354.9)">
                    <path d="M0,11.022C-0.161,11.022 -0.323,10.96 -0.446,10.837C-0.693,10.59 -0.693,10.19 -0.446,9.944L9.251,0.246C9.498,0 9.897,0 10.145,0.246C10.391,0.493 10.391,0.893 10.145,1.139L0.446,10.837C0.323,10.96 0.161,11.022 0,11.022" style="fill:white;fill-rule:nonzero;"/>
                </g>
                <g transform="matrix(1,0,0,1,1296.93,1356.09)">
                    <path d="M0,2.762C-0.161,2.762 -0.323,2.7 -0.446,2.577L-1.884,1.139C-2.13,0.893 -2.13,0.493 -1.884,0.246C-1.637,0 -1.237,0 -0.99,0.246L0.446,1.684C0.693,1.93 0.693,2.33 0.446,2.577C0.323,2.7 0.162,2.762 0,2.762" style="fill:white;fill-rule:nonzero;"/>
                </g>
                <g transform="matrix(1,0,0,1,1305.78,1348.83)">
                    <path d="M0,32.838L-22.103,32.838C-22.452,32.838 -22.734,32.556 -22.734,32.207C-22.734,31.858 -22.452,31.575 -22.103,31.575L0,31.575C1.394,31.575 2.526,30.442 2.526,29.049L2.526,3.789C2.526,2.396 1.394,1.263 0,1.263L-25.261,1.263C-26.653,1.263 -27.786,2.396 -27.786,3.789L-27.786,25.892C-27.786,26.24 -28.069,26.523 -28.418,26.523C-28.768,26.523 -29.05,26.24 -29.05,25.892L-29.05,3.789C-29.05,1.699 -27.35,0 -25.261,0L0,0C2.09,0 3.789,1.699 3.789,3.789L3.789,29.049C3.789,31.138 2.09,32.838 0,32.838" style="fill:white;fill-rule:nonzero;"/>
                </g>
            </g>
        </g>
    </g>
</svg>
