<svg xmlns="http://www.w3.org/2000/svg" viewBox="0 0 39.63 39.65"><defs><style>.cls-1{fill:#d7e5ea;}.cls-2{fill:#357c96;}</style></defs><g id="Слой_2" data-name="Слой 2"><g id="Layer_1" data-name="Layer 1"><path class="cls-1" d="M4.49,26.71a3.26,3.26,0,0,0-1.61,0,18.27,18.27,0,0,1,22-24.41,18.53,18.53,0,0,1,3.4,1.35.78.78,0,0,0,.71-1.38A20.69,20.69,0,0,0,25.25.77,19.81,19.81,0,0,0,1.49,27.36a3.25,3.25,0,0,0,3.68,5.32,3.25,3.25,0,0,0,1.27-4.42,3.28,3.28,0,0,0-1.95-1.55Zm-.07,4.62a1.69,1.69,0,0,1-2.31-.67A1.62,1.62,0,0,1,2,29.37a1.65,1.65,0,0,1,.81-1,1.7,1.7,0,0,1,2.46,2,1.68,1.68,0,0,1-.81,1Z"/><path class="cls-1" d="M38.14,12.29a3.26,3.26,0,0,0,.73-4.06,3.22,3.22,0,0,0-1.95-1.55A3.28,3.28,0,0,0,34.45,7a3.17,3.17,0,0,0-1.54,2A3.24,3.24,0,0,0,36.75,13,18.28,18.28,0,0,1,11.43,36.06a.77.77,0,1,0-.71,1.37A19.81,19.81,0,0,0,38.14,12.29Zm-3.6-1.65a1.73,1.73,0,0,1-.15-1.3,1.75,1.75,0,0,1,.81-1A1.7,1.7,0,0,1,37.52,9a1.71,1.71,0,0,1-.66,2.32,1.73,1.73,0,0,1-1.3.15,1.75,1.75,0,0,1-1-.81Z"/><path class="cls-1" d="M13.09,31.75a.76.76,0,0,0,.53,1L18.27,34a.78.78,0,0,0,1-.53l.41-1.44a12.15,12.15,0,0,0,3.12-.36L23.49,33a.77.77,0,0,0,1.05.3L28.77,31a.76.76,0,0,0,.3-1.05l-.72-1.31a12.27,12.27,0,0,0,1.95-2.47l1.44.41a.78.78,0,0,0,1-.53L34,21.36a.78.78,0,0,0-.54-1L32.06,20a12.61,12.61,0,0,0-.36-3.12l1.3-.72a.79.79,0,0,0,.37-.47.81.81,0,0,0-.07-.59L31,10.86a.78.78,0,0,0-1.06-.3l-1.3.72a11.94,11.94,0,0,0-2.46-1.95l.41-1.43a.78.78,0,0,0-.53-1L21.35,5.61a.77.77,0,0,0-1,.54L20,7.58a12.15,12.15,0,0,0-3.12.35l-.73-1.29a.77.77,0,0,0-1.05-.31L10.86,8.68a.79.79,0,0,0-.37.47.81.81,0,0,0,.07.59l.72,1.3A11.87,11.87,0,0,0,9.33,13.5l-1.44-.41a.76.76,0,0,0-.95.53L5.6,18.27a.81.81,0,0,0,.07.59.79.79,0,0,0,.47.37l1.43.41a12.69,12.69,0,0,0,.36,3.13l-1.31.72a.79.79,0,0,0-.3,1.06l2.35,4.23a.74.74,0,0,0,.47.36h0a.81.81,0,0,0,.59-.07l1.3-.73A11.93,11.93,0,0,0,13.5,30.3Zm-1.32-4.88a.75.75,0,0,0-.95-.17l-1.17.65-1.6-2.88,1.17-.65a.76.76,0,0,0,.36-.9,10.65,10.65,0,0,1-.44-3.8.77.77,0,0,0-.56-.8L7.3,18l.91-3.17,1.28.37a.77.77,0,0,0,.89-.38,10.66,10.66,0,0,1,2.38-3,.77.77,0,0,0,.17-1l-.64-1.16,2.88-1.6.64,1.16a.76.76,0,0,0,.9.36,10.68,10.68,0,0,1,3.81-.43.78.78,0,0,0,.79-.56l.36-1.28,3.17.91-.36,1.27a.77.77,0,0,0,.38.9,10.59,10.59,0,0,1,3,2.38.76.76,0,0,0,.95.16L30,12.29l1.6,2.88-1.16.64a.76.76,0,0,0-.36.9,10.91,10.91,0,0,1,.44,3.81.77.77,0,0,0,.56.79l1.27.37-.9,3.16-1.28-.36a.77.77,0,0,0-.89.38,10.52,10.52,0,0,1-2.39,3,.78.78,0,0,0-.16,1L27.34,30l-2.87,1.6-.65-1.16a.77.77,0,0,0-.9-.37,10.68,10.68,0,0,1-3.81.44.77.77,0,0,0-.79.56L18,32.33l-3.16-.9.36-1.29a.77.77,0,0,0-.38-.89,10.8,10.8,0,0,1-3-2.38Z"/><path class="cls-1" d="M26,21.58A6.4,6.4,0,1,0,18.06,26,6.41,6.41,0,0,0,26,21.58ZM15.15,18.49a4.85,4.85,0,1,1,3.33,6,4.86,4.86,0,0,1-3.33-6Z"/><path class="cls-1" d="M31.3,5.54a.8.8,0,0,0,.59-.06A.79.79,0,0,0,32.26,5a.77.77,0,0,0-.07-.59.77.77,0,0,0-.46-.37.81.81,0,0,0-.59.07.79.79,0,0,0-.37.47.78.78,0,0,0,.07.58.77.77,0,0,0,.46.37Z"/><path class="cls-1" d="M8.35,34.13a.76.76,0,0,0-.59.07.75.75,0,0,0-.37.46.81.81,0,0,0,.07.59.79.79,0,0,0,.47.37.78.78,0,0,0,.58-.07.76.76,0,0,0,.37-.47.74.74,0,0,0-.07-.58.71.71,0,0,0-.46-.37Z"/><path class="cls-2" d="M9.56,28.47a2.58,2.58,0,0,0-1.25.32A14.59,14.59,0,0,1,19.81,5.24a14.88,14.88,0,0,1,2.91.29A.62.62,0,0,0,23,4.32,15.82,15.82,0,0,0,7.4,29.63a2.57,2.57,0,0,0,.33,3.27,2.59,2.59,0,1,0,1.83-4.43Zm1,3.56A1.38,1.38,0,0,1,8.6,32a1.36,1.36,0,0,1,0-1.93,1.38,1.38,0,0,1,1.92,0,1.36,1.36,0,0,1,0,1.93Z"/><path class="cls-2" d="M32.23,10a2.6,2.6,0,1,0-2.16,1.16,2.54,2.54,0,0,0,1.24-.32A14.59,14.59,0,0,1,16.94,34.12a.62.62,0,0,0-.73.49.61.61,0,0,0,.48.72,15.5,15.5,0,0,0,3.12.31A15.81,15.81,0,0,0,35.63,19.82a15.89,15.89,0,0,0-3.4-9.8ZM29.1,9.54a1.34,1.34,0,0,1-.39-1,1.38,1.38,0,0,1,.39-1,1.36,1.36,0,1,1,0,1.92Z"/><path class="cls-2" d="M17.26,30.45a.62.62,0,0,0,.62.62h3.86a.62.62,0,0,0,.62-.62v-1.2a9.8,9.8,0,0,0,2.32-1l.85.85a.62.62,0,0,0,.43.18.65.65,0,0,0,.44-.18l2.73-2.74a.62.62,0,0,0,0-.87l-.84-.84a9.8,9.8,0,0,0,1-2.32h1.19a.62.62,0,0,0,.62-.62V17.89a.62.62,0,0,0-.62-.62H29.25a9.8,9.8,0,0,0-1-2.32l.84-.84a.65.65,0,0,0,.18-.44.62.62,0,0,0-.18-.43l-2.74-2.73a.6.6,0,0,0-.87,0l-.84.83a9.8,9.8,0,0,0-2.32-1V9.2a.62.62,0,0,0-.62-.62H17.88a.62.62,0,0,0-.62.62v1.18a9.8,9.8,0,0,0-2.32,1l-.83-.83a.61.61,0,0,0-.88,0L10.5,13.24a.58.58,0,0,0-.18.43.6.6,0,0,0,.18.44l.84.84a9.8,9.8,0,0,0-1,2.32H9.19a.62.62,0,0,0-.62.62v3.86a.62.62,0,0,0,.18.44.63.63,0,0,0,.44.18h1.19a9.8,9.8,0,0,0,1,2.32l-.85.84a.62.62,0,0,0,0,.87l2.74,2.74a.62.62,0,0,0,.43.18h0a.65.65,0,0,0,.44-.18l.84-.85a9.8,9.8,0,0,0,2.32,1ZM15.19,27a.63.63,0,0,0-.78.08l-.75.76L11.81,26l.75-.75a.63.63,0,0,0,.08-.78,8.23,8.23,0,0,1-1.17-2.82.62.62,0,0,0-.61-.49H9.8V18.5h1.06a.61.61,0,0,0,.61-.48,8.36,8.36,0,0,1,1.17-2.83.62.62,0,0,0-.08-.77l-.75-.75,1.86-1.85.74.74a.62.62,0,0,0,.78.08A8.43,8.43,0,0,1,18,11.47a.61.61,0,0,0,.49-.6V9.81h2.63v1.06a.61.61,0,0,0,.48.6,8.57,8.57,0,0,1,2.83,1.17.61.61,0,0,0,.77-.08l.75-.74,1.86,1.85-.75.75a.61.61,0,0,0-.08.77A8.57,8.57,0,0,1,28.16,18a.61.61,0,0,0,.6.48h1.06v2.63H28.76a.62.62,0,0,0-.6.49A8.43,8.43,0,0,1,27,24.44a.62.62,0,0,0,.08.78l.75.75L26,27.83l-.75-.76a.62.62,0,0,0-.77-.08,8.36,8.36,0,0,1-2.83,1.17.62.62,0,0,0-.48.61v1.06H18.5V28.77a.62.62,0,0,0-.49-.61A8.23,8.23,0,0,1,15.19,27Z"/><path class="cls-2" d="M24.92,19.82a5.11,5.11,0,1,0-5.11,5.11,5.11,5.11,0,0,0,5.11-5.11Zm-9,0a3.87,3.87,0,1,1,3.87,3.87,3.88,3.88,0,0,1-3.87-3.87Z"/><path class="cls-2" d="M25.5,6.34a.61.61,0,0,0,.62-.61.63.63,0,0,0-.18-.44.62.62,0,0,0-.44-.18.58.58,0,0,0-.43.18.59.59,0,0,0,0,.87.58.58,0,0,0,.43.18Z"/><path class="cls-2" d="M14.15,33.31a.63.63,0,0,0-.44.19.62.62,0,0,0-.18.43.65.65,0,0,0,.18.44.63.63,0,0,0,.88,0,.65.65,0,0,0,.18-.44.62.62,0,0,0-.18-.43.63.63,0,0,0-.44-.19Z"/></g></g></svg>