<?xml version="1.0" encoding="UTF-8" standalone="no"?>
<!DOCTYPE svg PUBLIC "-//W3C//DTD SVG 1.1//EN" "http://www.w3.org/Graphics/SVG/1.1/DTD/svg11.dtd">
<svg width="100%" height="100%" viewBox="0 0 1029 745" version="1.1" xmlns="http://www.w3.org/2000/svg" xmlns:xlink="http://www.w3.org/1999/xlink" xml:space="preserve" xmlns:serif="http://www.serif.com/" style="fill-rule:evenodd;clip-rule:evenodd;stroke-miterlimit:10;">
    <g transform="matrix(1,0,0,1,-3461.88,-32289.9)">
        <g transform="matrix(8.33333,0,0,8.33333,0,0)">
            <g opacity="0.8">
                <g transform="matrix(0,-1,-1,0,478.012,3879.81)">
                    <ellipse cx="-39.63" cy="0" rx="39.63" ry="39.63" style="fill:none;stroke:rgb(49,56,73);stroke-width:1px;"/>
                </g>
                <g transform="matrix(-1,0,0,1,1055.64,2855.11)">
                    <rect x="521.785" y="1050.82" width="12.067" height="27.247" style="fill:none;stroke:rgb(49,56,73);stroke-width:1px;"/>
                </g>
                <g transform="matrix(-1,0,0,1,852.968,2855.11)">
                    <rect x="420.451" y="1050.82" width="12.066" height="27.247" style="fill:none;stroke:rgb(49,56,73);stroke-width:1px;"/>
                </g>
                <g transform="matrix(1,0,0,1,438.383,3919.66)">
                    <path d="M0,-0.22C0,-3.421 0.391,-6.531 1.107,-9.513L-6.033,-9.513L-6.033,9.293L1.157,9.293C0.406,6.245 0,3.06 0,-0.22Z" style="fill:none;fill-rule:nonzero;stroke:rgb(49,56,73);stroke-width:1px;"/>
                </g>
                <g transform="matrix(1,0,0,1,516.535,3928.96)">
                    <path d="M0,-18.806C0.718,-15.824 1.107,-12.714 1.107,-9.513C1.107,-6.233 0.701,-3.048 -0.05,0L5.25,0L5.25,-18.806L0,-18.806Z" style="fill:none;fill-rule:nonzero;stroke:rgb(49,56,73);stroke-width:1px;"/>
                </g>
                <g transform="matrix(-1,0,0,1,955.211,2845.5)">
                    <rect x="450.682" y="1059.52" width="53.847" height="19.462" style="fill:none;stroke:rgb(49,56,73);stroke-width:1px;"/>
                </g>
                <g transform="matrix(0,-1,-1,0,489.867,3929.22)">
                    <ellipse cx="-8.499" cy="-0.001" rx="8.499" ry="8.499" style="fill:none;stroke:rgb(49,56,73);stroke-width:1px;"/>
                </g>
                <g transform="matrix(0,-1,-1,0,476.959,3888.93)">
                    <ellipse cx="-4.412" cy="0" rx="4.411" ry="4.412" style="fill:none;stroke:rgb(49,56,73);stroke-width:1px;"/>
                </g>
                <g transform="matrix(0,1,1,0,459.723,3915.06)">
                    <path d="M-3.608,-3.608L3.608,-3.608" style="fill:none;fill-rule:nonzero;stroke:rgb(49,56,73);stroke-width:1px;"/>
                </g>
                <g transform="matrix(0,1,1,0,466.709,3915.06)">
                    <path d="M-3.608,-3.608L3.608,-3.608" style="fill:none;fill-rule:nonzero;stroke:rgb(49,56,73);stroke-width:1px;"/>
                </g>
                <g transform="matrix(0,1,1,0,473.695,3915.06)">
                    <path d="M-3.608,-3.608L3.608,-3.608" style="fill:none;fill-rule:nonzero;stroke:rgb(49,56,73);stroke-width:1px;"/>
                </g>
                <g transform="matrix(0,1,1,0,480.682,3915.06)">
                    <path d="M-3.608,-3.608L3.608,-3.608" style="fill:none;fill-rule:nonzero;stroke:rgb(49,56,73);stroke-width:1px;"/>
                </g>
                <g transform="matrix(0,1,1,0,487.668,3915.06)">
                    <path d="M-3.608,-3.608L3.608,-3.608" style="fill:none;fill-rule:nonzero;stroke:rgb(49,56,73);stroke-width:1px;"/>
                </g>
                <g transform="matrix(0,1,1,0,494.654,3915.06)">
                    <path d="M-3.608,-3.608L3.608,-3.608" style="fill:none;fill-rule:nonzero;stroke:rgb(49,56,73);stroke-width:1px;"/>
                </g>
                <g transform="matrix(1,0,0,1,459.207,3943.41)">
                    <path d="M0,0L14.431,0" style="fill:none;fill-rule:nonzero;stroke:rgb(49,56,73);stroke-width:2px;stroke-linecap:round;"/>
                </g>
            </g>
        </g>
    </g>
</svg>
