<svg xmlns="http://www.w3.org/2000/svg" width="41.725" height="41.726" viewBox="0 0 41.725 41.726">
    <g id="Сгруппировать_225" data-name="Сгруппировать 225" transform="translate(-1269.609 -3450.274)" opacity="0.85">
        <g id="Сгруппировать_208" data-name="Сгруппировать 208">
            <g id="Сгруппировать_207" data-name="Сгруппировать 207">
                <path id="Контур_183" data-name="Контур 183" d="M1290.471,3450.274a4.172,4.172,0,1,0,4.173,4.173A4.173,4.173,0,0,0,1290.471,3450.274Zm0,6.955a2.782,2.782,0,1,1,2.782-2.782A2.783,2.783,0,0,1,1290.471,3457.229Z" fill="#fff"/>
            </g>
        </g>
        <g id="Сгруппировать_210" data-name="Сгруппировать 210">
            <g id="Сгруппировать_209" data-name="Сгруппировать 209">
                <path id="Контур_184" data-name="Контур 184" d="M1293.253,3459.315h-.164l-.147.073a5.542,5.542,0,0,1-4.942,0l-.146-.073h-.165a3.482,3.482,0,0,0-3.477,3.477v4.173a2.086,2.086,0,0,0,2.087,2.086h8.345a2.086,2.086,0,0,0,2.086-2.086v-4.173A3.481,3.481,0,0,0,1293.253,3459.315Zm2.086,7.65a.7.7,0,0,1-.695.695H1286.3a.7.7,0,0,1-.7-.695v-4.173a2.086,2.086,0,0,1,1.938-2.081,6.955,6.955,0,0,0,5.86,0,2.086,2.086,0,0,1,1.938,2.081Z" fill="#fff"/>
            </g>
        </g>
        <g id="Сгруппировать_212" data-name="Сгруппировать 212">
            <g id="Сгруппировать_211" data-name="Сгруппировать 211">
                <path id="Контур_185" data-name="Контур 185" d="M1305.075,3473.223a4.173,4.173,0,1,0,4.172,4.173A4.173,4.173,0,0,0,1305.075,3473.223Zm0,6.955a2.782,2.782,0,1,1,2.782-2.782A2.783,2.783,0,0,1,1305.075,3480.178Z" fill="#fff"/>
            </g>
        </g>
        <g id="Сгруппировать_214" data-name="Сгруппировать 214">
            <g id="Сгруппировать_213" data-name="Сгруппировать 213">
                <path id="Контур_186" data-name="Контур 186" d="M1307.857,3482.264h-.165l-.146.069a5.544,5.544,0,0,1-4.942,0l-.147-.069h-.164a3.481,3.481,0,0,0-3.477,3.477v4.172A2.086,2.086,0,0,0,1300.9,3492h8.345a2.087,2.087,0,0,0,2.087-2.087v-4.172A3.481,3.481,0,0,0,1307.857,3482.264Zm2.086,7.649a.7.7,0,0,1-.7.7H1300.9a.7.7,0,0,1-.695-.7v-4.172a2.086,2.086,0,0,1,1.938-2.081,6.955,6.955,0,0,0,5.86,0,2.086,2.086,0,0,1,1.938,2.081Z" fill="#fff"/>
            </g>
        </g>
        <g id="Сгруппировать_216" data-name="Сгруппировать 216">
            <g id="Сгруппировать_215" data-name="Сгруппировать 215">
                <path id="Контур_187" data-name="Контур 187" d="M1275.867,3473.223a4.173,4.173,0,1,0,4.173,4.173A4.173,4.173,0,0,0,1275.867,3473.223Zm0,6.955a2.782,2.782,0,1,1,2.782-2.782A2.782,2.782,0,0,1,1275.867,3480.178Z" fill="#fff"/>
            </g>
        </g>
        <g id="Сгруппировать_218" data-name="Сгруппировать 218">
            <g id="Сгруппировать_217" data-name="Сгруппировать 217">
                <path id="Контур_188" data-name="Контур 188" d="M1278.649,3482.264h-.164l-.147.069a5.544,5.544,0,0,1-4.942,0l-.146-.069h-.164a3.481,3.481,0,0,0-3.477,3.477v4.172a2.086,2.086,0,0,0,2.086,2.087h8.345a2.086,2.086,0,0,0,2.086-2.087v-4.172A3.481,3.481,0,0,0,1278.649,3482.264Zm2.086,7.649a.7.7,0,0,1-.695.7h-8.345a.7.7,0,0,1-.7-.7v-4.172a2.087,2.087,0,0,1,1.938-2.081,6.955,6.955,0,0,0,5.86,0,2.086,2.086,0,0,1,1.938,2.081Z" fill="#fff"/>
            </g>
        </g>
        <g id="Сгруппировать_220" data-name="Сгруппировать 220">
            <g id="Сгруппировать_219" data-name="Сгруппировать 219">
                <path id="Контур_189" data-name="Контур 189" d="M1297.371,3485.591v0a.7.7,0,0,0-.913-.368h0a15.412,15.412,0,0,1-9.918.683l.651-.191a.7.7,0,1,0-.391-1.335l-2.782.816c-.01,0-.018.011-.028.015a.679.679,0,0,0-.179.1.6.6,0,0,0-.07.044.68.68,0,0,0-.17.237.688.688,0,0,0-.053.287,2.224,2.224,0,0,0,.069.278c0,.01,0,.021.008.031l1.391,2.661a.7.7,0,1,0,1.234-.644l-.566-1.082A16.74,16.74,0,0,0,1297,3486.5.7.7,0,0,0,1297.371,3485.591Z" fill="#fff"/>
            </g>
        </g>
        <g id="Сгруппировать_222" data-name="Сгруппировать 222">
            <g id="Сгруппировать_221" data-name="Сгруппировать 221">
                <path id="Контур_190" data-name="Контур 190" d="M1309.044,3468.559a.7.7,0,0,0-.984,0l-.984.984A16.663,16.663,0,0,0,1297,3455.774a.7.7,0,1,0-.546,1.279,15.278,15.278,0,0,1,9.2,12.291l-.785-.785a.7.7,0,0,0-.983.983l2.086,2.087a.7.7,0,0,0,.984,0h0l2.086-2.087A.7.7,0,0,0,1309.044,3468.559Z" fill="#fff"/>
            </g>
        </g>
        <g id="Сгруппировать_224" data-name="Сгруппировать 224">
            <g id="Сгруппировать_223" data-name="Сгруппировать 223">
                <path id="Контур_191" data-name="Контур 191" d="M1284.888,3456.3a.775.775,0,0,0-.018-.12c0-.006-.008-.011-.011-.018s0-.011,0-.017a9.948,9.948,0,0,0-.145-.211.666.666,0,0,0-.135-.092.722.722,0,0,0-.078-.057l-2.782-1.27a.7.7,0,0,0-.577,1.264l1.44.659a16.663,16.663,0,0,0-8.8,14.7.7.7,0,1,0,1.391,0,15.275,15.275,0,0,1,7.526-13.174l-.5,1.051a.7.7,0,0,0,.324.927.683.683,0,0,0,.3.069.693.693,0,0,0,.625-.394l1.391-2.9a.032.032,0,0,1,.006-.022.615.615,0,0,0,.037-.147.763.763,0,0,0,.027-.115A.748.748,0,0,0,1284.888,3456.3Z" fill="#fff"/>
            </g>
        </g>
    </g>
</svg>
