<svg xmlns="http://www.w3.org/2000/svg" viewBox="0 0 34.65 35.21">
    <defs>
        <style>.cls-1{fill:#fff;}</style>
    </defs>
    <g id="Слой_2" data-name="Слой 2">
        <g id="Layer_1" data-name="Layer 1">
            <path class="cls-1"
                  d="M26.79,9.11l-9-8.94a.6.6,0,0,0-.84,0l-9,8.94a12.54,12.54,0,0,0,0,17.77l.55.55a12.66,12.66,0,0,0,17.85,0l.54-.55a12.52,12.52,0,0,0,0-17.77ZM26,26l-.55.54a11.45,11.45,0,0,1-16.16,0L8.69,26A11.35,11.35,0,0,1,8.69,10l8.63-8.53L26,10A11.33,11.33,0,0,1,26,26Z"/>
            <path class="cls-1"
                  d="M31.9,8.51,31.56,8a.61.61,0,0,0-.84-.15.59.59,0,0,0-.15.83l.33.48a.6.6,0,1,0,1-.65Z"/>
            <path class="cls-1"
                  d="M34,19.39a.6.6,0,0,0-.67.52c-.05.4-.11.78-.19,1.17a.6.6,0,0,0,1.18.23c.08-.41.15-.83.2-1.25a.6.6,0,0,0-.52-.67Z"/>
            <path class="cls-1"
                  d="M33.1,23.58a.61.61,0,0,0-.78.33c-.14.37-.31.73-.48,1.09a.6.6,0,0,0,.28.8.61.61,0,0,0,.8-.28c.18-.38.35-.77.51-1.16a.6.6,0,0,0-.33-.78Z"/>
            <path class="cls-1"
                  d="M15.81,34c-.4,0-.79-.09-1.18-.15a.59.59,0,0,0-.68.49.6.6,0,0,0,.48.69c.42.07.84.12,1.27.16a.6.6,0,0,0,.65-.53.61.61,0,0,0-.54-.66Z"/>
            <path class="cls-1"
                  d="M11.75,33.08c-.38-.13-.74-.28-1.1-.44a.6.6,0,0,0-.79.29.61.61,0,0,0,.29.8c.39.17.78.33,1.18.48a.6.6,0,0,0,.42-1.13Z"/>
            <path class="cls-1"
                  d="M8.08,31.17c-.33-.23-.64-.46-1-.71a.58.58,0,0,0-.84.09.59.59,0,0,0,.09.84c.33.27.67.52,1,.76A.61.61,0,0,0,8.23,32a.61.61,0,0,0-.15-.84Z"/>
            <path class="cls-1"
                  d="M5,28.4c-.26-.3-.5-.61-.74-.93a.59.59,0,0,0-.83-.13.58.58,0,0,0-.13.83,10.84,10.84,0,0,0,.79,1A.6.6,0,0,0,5,28.4Z"/>
            <path class="cls-1"
                  d="M20.55,34.37a.61.61,0,0,0-.69-.5c-.38.06-.78.11-1.17.15a.6.6,0,0,0-.55.64.6.6,0,0,0,.65.55l1.26-.15a.59.59,0,0,0,.5-.69Z"/>
            <path class="cls-1"
                  d="M28.27,30.61a.6.6,0,0,0-.84-.1c-.31.25-.63.48-.95.71a.6.6,0,1,0,.68,1c.35-.24.69-.5,1-.76a.61.61,0,0,0,.09-.84Z"/>
            <path class="cls-1"
                  d="M2.75,24.91c-.17-.36-.33-.71-.47-1.09a.59.59,0,0,0-.78-.33.59.59,0,0,0-.34.77c.16.4.32.79.51,1.17a.6.6,0,0,0,1.08-.52Z"/>
            <path class="cls-1"
                  d="M24.67,33a.61.61,0,0,0-.79-.3c-.36.16-.73.31-1.1.45a.59.59,0,0,0-.36.76.6.6,0,0,0,.77.36c.4-.15.79-.3,1.17-.48a.59.59,0,0,0,.31-.79Z"/>
            <path class="cls-1"
                  d="M33.8,12.51c-.13-.4-.27-.8-.44-1.19a.59.59,0,0,0-.78-.32.6.6,0,0,0-.32.78,8.68,8.68,0,0,1,.41,1.11.61.61,0,0,0,.76.38.6.6,0,0,0,.37-.76Z"/>
            <path class="cls-1"
                  d="M31.12,27.43a.58.58,0,0,0-.83.12c-.24.32-.48.63-.75.93a.6.6,0,0,0,.91.78c.27-.33.54-.65.79-1a.59.59,0,0,0-.12-.83Z"/>
            <path class="cls-1"
                  d="M34.53,15.62a.6.6,0,0,0-1.19.16c0,.39.09.78.11,1.17a.6.6,0,0,0,.63.57.61.61,0,0,0,.57-.63c0-.43-.07-.85-.12-1.27Z"/>
            <path class="cls-1"
                  d="M2.07,10.92a.59.59,0,0,0-.78.33c-.16.39-.31.78-.45,1.19A.6.6,0,0,0,2,12.81c.13-.37.26-.74.41-1.11a.59.59,0,0,0-.32-.78Z"/>
            <path class="cls-1"
                  d="M.8,15a.6.6,0,0,0-.67.51C.07,16,0,16.38,0,16.8a.59.59,0,0,0,.56.64.58.58,0,0,0,.63-.55c0-.4.07-.79.12-1.18A.61.61,0,0,0,.8,15Z"/>
            <path class="cls-1"
                  d="M1.44,20.94q-.1-.59-.18-1.17a.59.59,0,0,0-.66-.53.6.6,0,0,0-.52.67c.05.42.11.84.19,1.25a.6.6,0,1,0,1.17-.22Z"/>
            <path class="cls-1"
                  d="M3.9,7.84A.59.59,0,0,0,3.07,8l-.34.51a.6.6,0,0,0,.18.83.58.58,0,0,0,.82-.17l.33-.49a.6.6,0,0,0-.16-.83Z"/>
            <path class="cls-1"
                  d="M20.91,15.51H19.43l2-4.54a.59.59,0,0,0-.54-.84H17.32a.6.6,0,0,0-.54.33l-3.59,7.18a.6.6,0,0,0,.53.87h1.57L13.16,24.9a.6.6,0,0,0,1,.56l7.18-9a.6.6,0,0,0-.46-1Z"/>
        </g>
    </g>
</svg>