<svg xmlns="http://www.w3.org/2000/svg" viewBox="0 0 36.31 36.31"><defs><style>.cls-1{fill:#fff;}</style></defs><g id="Слой_2" data-name="Слой 2"><g id="Layer_1" data-name="Layer 1"><path class="cls-1" d="M35.7.61H23.6a.61.61,0,0,0-.61.6V3H19.86a1.82,1.82,0,0,0-1.1-1.1V.61a.61.61,0,1,0-1.21,0V1.93a1.8,1.8,0,0,0,0,3.4v6.28a1.82,1.82,0,0,0-1.1,1.1H13.31V8.47a.6.6,0,0,0-.6-.6H.61a.6.6,0,0,0-.61.6v9.68a.61.61,0,0,0,.61.61h12.1a.6.6,0,0,0,.6-.61V13.92h3.14a1.84,1.84,0,0,0,1.1,1.1v6.27a1.81,1.81,0,0,0,0,3.41V31a1.84,1.84,0,0,0-1.1,1.1H13.31V25.42a.6.6,0,0,0-.6-.61H.61a.61.61,0,0,0-.61.61V35.1a.6.6,0,0,0,.61.6h12.1a.6.6,0,0,0,.6-.6V33.28h3.14a1.82,1.82,0,0,0,1.1,1.1V35.7a.61.61,0,1,0,1.21,0V34.38a1.81,1.81,0,0,0,0-3.41V24.7a1.84,1.84,0,0,0,1.1-1.1H23v4.24a.61.61,0,0,0,.61.6H35.7a.6.6,0,0,0,.61-.6V18.15a.6.6,0,0,0-.61-.6H23.6a.61.61,0,0,0-.61.6v4.24H19.86a1.84,1.84,0,0,0-1.1-1.1V15a1.81,1.81,0,0,0,0-3.41V5.33a1.83,1.83,0,0,0,1.1-1.09H23v6.65a.61.61,0,0,0,.61.61H35.7a.61.61,0,0,0,.61-.61V1.21a.6.6,0,0,0-.61-.6ZM12.1,17.55H1.21V9.08H12.1Zm0,16.94H1.21V26H12.1ZM24.21,18.76H35.1v8.47H24.21ZM18.15,33.28a.61.61,0,1,1,.61-.6.6.6,0,0,1-.61.6Zm0-9.68a.61.61,0,1,1,.61-.61.6.6,0,0,1-.61.61Zm0-9.68a.61.61,0,1,1,.61-.61.6.6,0,0,1-.61.61Zm0-9.68a.61.61,0,0,1-.6-.61.61.61,0,0,1,1.21,0,.61.61,0,0,1-.61.61Zm17,6H24.21V1.82H35.1Z"/></g></g></svg>