<?xml version="1.0" encoding="UTF-8" standalone="no"?>
<!DOCTYPE svg PUBLIC "-//W3C//DTD SVG 1.1//EN" "http://www.w3.org/Graphics/SVG/1.1/DTD/svg11.dtd">
<svg width="100%" height="100%" viewBox="0 0 735 735" version="1.1" xmlns="http://www.w3.org/2000/svg" xmlns:xlink="http://www.w3.org/1999/xlink" xml:space="preserve" xmlns:serif="http://www.serif.com/" style="fill-rule:evenodd;clip-rule:evenodd;stroke-miterlimit:10;">
    <g transform="matrix(1,0,0,1,-3609.26,-29199.5)">
        <g transform="matrix(8.33333,0,0,8.33333,0,0)">
            <g opacity="0.8">
                <g transform="matrix(0,-1,-1,0,477.151,3508.97)">
                    <ellipse cx="-39.016" cy="0" rx="39.016" ry="39.016" style="fill:none;stroke:rgb(49,56,73);stroke-width:1px;"/>
                </g>
            </g>
            <g opacity="0.8">
                <g transform="matrix(0,-1,-1,0,477.152,3514.19)">
                    <ellipse cx="-33.796" cy="0" rx="33.796" ry="33.797" style="fill:none;stroke:rgb(49,56,73);stroke-width:1px;"/>
                </g>
            </g>
            <g opacity="0.8">
                <g transform="matrix(1,0,0,1,455.883,3542.42)">
                    <path d="M0,8.262L-1.717,8.262C-2.921,8.262 -3.896,7.286 -3.896,6.083L-3.896,2.18C-3.896,0.976 -2.921,0 -1.717,0L0,0C1.203,0 2.179,0.976 2.179,2.18L2.179,6.083C2.179,7.286 1.203,8.262 0,8.262Z" style="fill:none;fill-rule:nonzero;stroke:rgb(49,56,73);stroke-width:1px;"/>
                </g>
            </g>
            <g opacity="0.8">
                <g transform="matrix(1,0,0,1,466.919,3542.42)">
                    <path d="M0,8.262L-1.717,8.262C-2.92,8.262 -3.896,7.286 -3.896,6.083L-3.896,2.18C-3.896,0.976 -2.92,0 -1.717,0L0,0C1.203,0 2.179,0.976 2.179,2.18L2.179,6.083C2.179,7.286 1.203,8.262 0,8.262Z" style="fill:none;fill-rule:nonzero;stroke:rgb(49,56,73);stroke-width:1px;"/>
                </g>
            </g>
            <g opacity="0.8">
                <g transform="matrix(1,0,0,1,478.01,3542.42)">
                    <path d="M0,8.262L-1.717,8.262C-2.92,8.262 -3.896,7.286 -3.896,6.083L-3.896,2.18C-3.896,0.976 -2.92,0 -1.717,0L0,0C1.203,0 2.179,0.976 2.179,2.18L2.179,6.083C2.179,7.286 1.203,8.262 0,8.262Z" style="fill:none;fill-rule:nonzero;stroke:rgb(49,56,73);stroke-width:1px;"/>
                </g>
            </g>
            <g opacity="0.8">
                <g transform="matrix(1,0,0,1,488.991,3542.42)">
                    <path d="M0,8.262L-1.717,8.262C-2.92,8.262 -3.896,7.286 -3.896,6.083L-3.896,2.18C-3.896,0.976 -2.92,0 -1.717,0L0,0C1.203,0 2.179,0.976 2.179,2.18L2.179,6.083C2.179,7.286 1.203,8.262 0,8.262Z" style="fill:none;fill-rule:nonzero;stroke:rgb(49,56,73);stroke-width:1px;"/>
                </g>
            </g>
            <g opacity="0.8">
                <g transform="matrix(1,0,0,1,489.328,3560.81)">
                    <path d="M0,10.361L-24.353,10.361C-25.556,10.361 -26.531,9.385 -26.531,8.182L-26.531,2.178C-26.531,0.975 -25.556,0 -24.353,0L0,0C1.203,0 2.179,0.975 2.179,2.178L2.179,8.182C2.179,9.385 1.203,10.361 0,10.361Z" style="fill:none;fill-rule:nonzero;stroke:rgb(49,56,73);stroke-width:1px;"/>
                </g>
            </g>
            <g opacity="0.8">
                <g transform="matrix(1,0,0,1,500.027,3542.42)">
                    <path d="M0,8.262L-1.717,8.262C-2.92,8.262 -3.896,7.286 -3.896,6.083L-3.896,2.18C-3.896,0.976 -2.92,0 -1.717,0L0,0C1.203,0 2.179,0.976 2.179,2.18L2.179,6.083C2.179,7.286 1.203,8.262 0,8.262Z" style="fill:none;fill-rule:nonzero;stroke:rgb(49,56,73);stroke-width:1px;"/>
                </g>
            </g>
            <g opacity="0.8">
                <g transform="matrix(1,0,0,1,461.599,3531.19)">
                    <path d="M0,0L31.104,0" style="fill:none;fill-rule:nonzero;stroke:rgb(49,56,73);stroke-width:2px;"/>
                </g>
            </g>
            <g opacity="0.8">
                <g transform="matrix(1,0,0,1,466.727,3526.8)">
                    <path d="M0,0L20.849,0" style="fill:none;fill-rule:nonzero;stroke:rgb(49,56,73);stroke-width:2px;"/>
                </g>
            </g>
            <g opacity="0.8">
                <g transform="matrix(1,0,0,1,468.474,3565.99)">
                    <path d="M0,0L17.354,0" style="fill:none;fill-rule:nonzero;stroke:rgb(49,56,73);stroke-width:2px;"/>
                </g>
            </g>
        </g>
    </g>
</svg>
