<svg xmlns="http://www.w3.org/2000/svg" width="39" height="35.039" viewBox="0 0 39 35.039">
    <g id="Сгруппировать_239" data-name="Сгруппировать 239" transform="translate(-1270.569 -3692.753)" opacity="0.85">
        <path id="Контур_198" data-name="Контур 198" d="M1290.069,3700.37a.762.762,0,1,0,.762.762A.762.762,0,0,0,1290.069,3700.37Z" fill="#fff"/>
        <path id="Контур_199" data-name="Контур 199" d="M1277.425,3714.081a.761.761,0,1,0-.762-.762A.762.762,0,0,0,1277.425,3714.081Z" fill="#fff"/>
        <path id="Контур_200" data-name="Контур 200" d="M1296.163,3692.753c-6.858,0-12.486,4.728-12.921,10.684-6.531.327-12.673,5.036-12.673,11.406a10.639,10.639,0,0,0,2.971,7.284,4.634,4.634,0,0,1-1.224,4.365.762.762,0,0,0,.538,1.3,8.4,8.4,0,0,0,5.822-2.353,17.337,17.337,0,0,0,5.3.83c6.856,0,12.484-4.727,12.92-10.681a17.13,17.13,0,0,0,4.566-.813,8.406,8.406,0,0,0,5.822,2.353.762.762,0,0,0,.539-1.3,4.632,4.632,0,0,1-1.224-4.365,10.642,10.642,0,0,0,2.97-7.284C1309.569,3697.56,1302.954,3692.753,1296.163,3692.753Zm-12.187,31.992a15.4,15.4,0,0,1-5.219-.9.762.762,0,0,0-.844.194,6.876,6.876,0,0,1-3.419,2.028,6.158,6.158,0,0,0,.465-4.533.774.774,0,0,0-.186-.322,9.154,9.154,0,0,1-2.68-6.37c0-5.368,5.441-9.9,11.883-9.9,6.082,0,11.425,4.229,11.425,9.9C1295.4,3720.3,1290.276,3724.745,1283.976,3724.745Zm21.39-14.2a.75.75,0,0,0-.186.322,6.157,6.157,0,0,0,.464,4.533,6.868,6.868,0,0,1-3.418-2.028.762.762,0,0,0-.844-.194,15.007,15.007,0,0,1-4.488.88,10.9,10.9,0,0,0-4.116-7.6h9.936a.762.762,0,1,0,0-1.523h-12.276a14.2,14.2,0,0,0-5.669-1.5c.438-5.116,5.381-9.162,11.394-9.162,6.441,0,11.883,4.534,11.883,9.9A9.154,9.154,0,0,1,1305.366,3710.549Z" fill="#fff"/>
        <path id="Контур_201" data-name="Контур 201" d="M1290.069,3712.558h-9.6a.761.761,0,0,0,0,1.523h9.6a.761.761,0,1,0,0-1.523Z" fill="#fff"/>
        <path id="Контур_202" data-name="Контур 202" d="M1290.069,3717.128h-12.644a.762.762,0,1,0,0,1.524h12.644a.762.762,0,1,0,0-1.524Z" fill="#fff"/>
        <path id="Контур_203" data-name="Контур 203" d="M1302.714,3700.37h-9.6a.762.762,0,0,0,0,1.524h9.6a.762.762,0,1,0,0-1.524Z" fill="#fff"/>
    </g>
</svg>
