<?xml version="1.0" encoding="UTF-8" standalone="no"?>
<!DOCTYPE svg PUBLIC "-//W3C//DTD SVG 1.1//EN" "http://www.w3.org/Graphics/SVG/1.1/DTD/svg11.dtd">
<svg width="100%" height="100%" viewBox="0 0 267 267" version="1.1" xmlns="http://www.w3.org/2000/svg" xmlns:xlink="http://www.w3.org/1999/xlink" xml:space="preserve" xmlns:serif="http://www.serif.com/" style="fill-rule:evenodd;clip-rule:evenodd;stroke-linejoin:round;stroke-miterlimit:2;">
    <g transform="matrix(1,0,0,1,-10647.1,-13235.4)">
        <g transform="matrix(8.33333,0,0,8.33333,0,0)">
            <g opacity="0.85">
                <g transform="matrix(1,0,0,1,1285.42,1591.87)">
                    <path d="M0,24.766C0.115,24.766 0.229,24.798 0.329,24.861C2.692,26.36 5.423,27.152 8.226,27.152C16.369,27.152 22.994,20.527 22.994,12.383C22.994,4.24 16.369,-2.386 8.226,-2.386C0.082,-2.386 -6.544,4.24 -6.544,12.383C-6.544,15.186 -5.752,17.916 -4.254,20.279C-4.154,20.434 -4.131,20.627 -4.189,20.803L-6.187,26.795L-0.195,24.798C-0.132,24.776 -0.065,24.766 0,24.766M-7.159,28.383C-7.319,28.383 -7.478,28.32 -7.595,28.203C-7.76,28.038 -7.816,27.794 -7.743,27.573L-5.448,20.688C-6.972,18.186 -7.774,15.321 -7.774,12.383C-7.774,3.56 -0.597,-3.617 8.226,-3.617C17.048,-3.617 24.226,3.56 24.226,12.383C24.226,21.206 17.048,28.383 8.226,28.383C5.287,28.383 2.422,27.579 -0.08,26.056L-6.965,28.351C-7.028,28.373 -7.094,28.383 -7.159,28.383" style="fill:white;fill-rule:nonzero;"/>
                </g>
                <g transform="matrix(1,0,0,1,1287.4,1597.17)">
                    <path d="M0,14.153L12.495,14.153L12.495,13.02C12.495,12.716 12.304,12.438 12.021,12.329L7.893,10.517C7.349,10.31 6.964,9.75 6.964,9.137L6.964,8.361C6.964,7.866 7.209,7.404 7.621,7.127C8.305,6.667 8.801,5.972 9.02,5.171C9.106,4.85 9.431,4.654 9.755,4.734C9.823,4.725 10.048,4.499 10.048,4.062C10.048,3.625 9.831,3.385 9.76,3.385C9.42,3.385 9.145,3.111 9.145,2.77L9.145,2.432C9.145,1.09 8.053,-0.001 6.711,-0.001L5.763,-0.001C4.421,-0.001 3.33,1.09 3.33,2.432L3.33,2.77C3.33,3.111 3.055,3.385 2.715,3.385C2.644,3.385 2.427,3.625 2.427,4.062C2.427,4.499 2.644,4.738 2.715,4.738C3.038,4.663 3.367,4.85 3.455,5.171C3.673,5.972 4.17,6.666 4.854,7.127C5.265,7.403 5.511,7.865 5.511,8.361L5.511,9.138C5.511,9.752 5.126,10.31 4.555,10.528L0.503,12.318C0.191,12.438 0,12.716 0,13.02L0,14.153ZM13.11,15.384L-0.615,15.384C-0.955,15.384 -1.23,15.109 -1.23,14.769L-1.23,13.02C-1.23,12.209 -0.723,11.47 0.034,11.18L4.086,9.391C4.214,9.342 4.28,9.245 4.28,9.138L4.28,8.361C4.28,8.276 4.237,8.195 4.166,8.148C3.365,7.608 2.753,6.833 2.41,5.933C1.71,5.76 1.196,5 1.196,4.062C1.196,3.268 1.563,2.602 2.102,2.312C2.165,0.347 3.783,-1.231 5.763,-1.231L6.711,-1.231C8.691,-1.231 10.31,0.347 10.373,2.312C10.911,2.602 11.278,3.268 11.278,4.062C11.278,5 10.765,5.76 10.064,5.933C9.722,6.833 9.109,7.609 8.309,8.148C8.237,8.195 8.194,8.276 8.194,8.361L8.194,9.137C8.194,9.244 8.261,9.341 8.36,9.379L12.488,11.191C13.218,11.47 13.726,12.209 13.726,13.02L13.726,14.769C13.726,15.109 13.45,15.384 13.11,15.384" style="fill:white;fill-rule:nonzero;"/>
                </g>
            </g>
        </g>
    </g>
</svg>
