<svg xmlns="http://www.w3.org/2000/svg" viewBox="0 0 34.98 39.75"><defs><style>.cls-1{fill:#d7e5ea;}.cls-2{fill:#357c96;}</style></defs><g id="Слой_2" data-name="Слой 2"><g id="Layer_1" data-name="Layer 1"><path class="cls-1" d="M8.94,10.68c-.91-.23-1.75-.48-2.49-.74A.66.66,0,1,0,6,11.18c.78.28,1.66.54,2.61.78l.11,0a.67.67,0,0,0,.7-.56.66.66,0,0,0-.49-.74Z"/><path class="cls-1" d="M11.48,11.23a.63.63,0,0,0-.5.1.65.65,0,0,0-.18.93.68.68,0,0,0,.44.26,57.23,57.23,0,0,0,6.65.82,57.27,57.27,0,0,0,6.68.09.63.63,0,0,0,.47-.2.67.67,0,0,0,.18-.48.69.69,0,0,0-.22-.47.72.72,0,0,0-.49-.16A56.89,56.89,0,0,1,18,12a56.83,56.83,0,0,1-6.5-.8Z"/><path class="cls-1" d="M10.76,21.74a.64.64,0,0,0-.78.52.69.69,0,0,0,.11.5.68.68,0,0,0,.44.27,58.91,58.91,0,0,0,6.65.82,57.24,57.24,0,0,0,6.68.09.66.66,0,0,0,.47-.21.7.7,0,0,0,.18-.48.63.63,0,0,0-.23-.46.66.66,0,0,0-.48-.17,57.09,57.09,0,0,1-6.54-.08,59.15,59.15,0,0,1-6.5-.8Z"/><path class="cls-1" d="M23.08,33.13A59.25,59.25,0,0,1,16.55,33a56.83,56.83,0,0,1-6.5-.8.67.67,0,0,0-.5.09.71.71,0,0,0-.29.43.63.63,0,0,0,.12.5.61.61,0,0,0,.43.27,57.23,57.23,0,0,0,6.65.82,57.27,57.27,0,0,0,6.68.09.67.67,0,0,0,.65-.69.69.69,0,0,0-.22-.46.62.62,0,0,0-.49-.16Z"/><path class="cls-1" d="M8.22,21.18a24.79,24.79,0,0,1-2.49-.74.67.67,0,0,0-.5,0,.69.69,0,0,0-.35.38.62.62,0,0,0,0,.5.67.67,0,0,0,.38.34c.79.28,1.67.54,2.61.78l.12,0a.66.66,0,0,0,.69-.55.66.66,0,0,0-.49-.75Z"/><path class="cls-1" d="M7.51,31.69C6.6,31.46,5.76,31.21,5,31a.61.61,0,0,0-.51,0,.65.65,0,0,0-.31.88.6.6,0,0,0,.38.33c.78.28,1.66.55,2.61.79H7.3a.65.65,0,0,0,.7-.55.66.66,0,0,0-.49-.74Z"/><path class="cls-1" d="M30,1.76A71.67,71.67,0,0,0,18.78.22a71.05,71.05,0,0,0-11.3,0C2.85.68,2.2,1.62,2.15,2.38L0,33.89c-.2,3,8,5.16,16.1,5.71s16.52-.45,16.73-3.47L35,4.61c.05-.76-.47-1.78-5-2.85Zm2.25,23.77c-.09,1.34-6.11,2.88-15.32,2.26s-15-3-14.88-4.31l.55-8c2.84,2,10.16,2.79,15,3.12s12.16.51,15.24-1.07Zm.67-9.84C32.83,16.78,28,18,17.62,17.28s-15-2.56-14.92-3.65L3.29,5c2.85,2,10.17,2.8,15,3.12S30.4,8.61,33.49,7ZM3.46,2.52c.53-.66,5.6-1.65,15.23-1s14.53,2.32,15,3.05l0,.6c-.08,1.09-4.87,2.31-15.28,1.6S3.34,4.22,3.42,3.13ZM16.19,38.29c-9.21-.63-15-3-14.87-4.31L1.9,25.4c2.53,1.94,8.72,3.28,14.92,3.7S29.33,29,32.1,27.45L31.52,36c-.1,1.34-6.11,2.88-15.33,2.25Z"/><path class="cls-2" d="M10,12.81a19.77,19.77,0,0,1-2.09-.47.58.58,0,0,0-.41,0,.54.54,0,0,0-.26.33.53.53,0,0,0,.38.67c.66.19,1.4.35,2.19.5h.09a.54.54,0,0,0,.1-1.07Z"/><path class="cls-2" d="M12.06,13.12a.52.52,0,0,0-.4.11.53.53,0,0,0-.09.77.59.59,0,0,0,.37.2,50.54,50.54,0,0,0,5.5.3,50.22,50.22,0,0,0,5.49-.3.62.62,0,0,0,.38-.2.54.54,0,0,0-.09-.77.56.56,0,0,0-.41-.11,45.78,45.78,0,0,1-5.37.29,46.18,46.18,0,0,1-5.38-.29Z"/><path class="cls-2" d="M12.06,21.78a.52.52,0,0,0-.4.11.53.53,0,0,0-.09.77.59.59,0,0,0,.37.2,50.54,50.54,0,0,0,5.5.3,50.22,50.22,0,0,0,5.49-.3.62.62,0,0,0,.38-.2.54.54,0,0,0-.09-.77.56.56,0,0,0-.41-.11,45.78,45.78,0,0,1-5.37.29,46.18,46.18,0,0,1-5.38-.29Z"/><path class="cls-2" d="M22.81,30.44a45.78,45.78,0,0,1-5.37.29,46.18,46.18,0,0,1-5.38-.29.52.52,0,0,0-.4.11.53.53,0,0,0-.09.77.59.59,0,0,0,.37.2,50.54,50.54,0,0,0,5.5.3,50.22,50.22,0,0,0,5.49-.3.62.62,0,0,0,.38-.2.54.54,0,0,0-.09-.77.56.56,0,0,0-.41-.11Z"/><path class="cls-2" d="M10,21.47A19.77,19.77,0,0,1,7.86,21a.58.58,0,0,0-.41,0,.54.54,0,0,0-.26.33.53.53,0,0,0,.38.67c.66.19,1.4.35,2.19.5h.09a.54.54,0,0,0,.1-1.07Z"/><path class="cls-2" d="M10,30.13a19.77,19.77,0,0,1-2.09-.47.58.58,0,0,0-.41,0,.55.55,0,0,0-.21.75.56.56,0,0,0,.33.25c.66.19,1.4.35,2.19.5h.09a.54.54,0,0,0,.1-1.07Z"/><path class="cls-2" d="M26.72,4.31a60,60,0,0,0-9.28-.64,59.93,59.93,0,0,0-9.27.64C4.4,4.94,3.91,5.75,3.91,6.38v26c0,2.49,6.81,3.79,13.53,3.79S31,34.85,31,32.36v-26c0-.63-.48-1.44-4.25-2.07ZM29.89,23.7c0,1.1-4.85,2.7-12.45,2.7S5,24.8,5,23.7V17.1c2.45,1.47,8.5,1.73,12.45,1.73s10-.26,12.45-1.73Zm0-8.12c0,.9-3.86,2.16-12.45,2.16S5,16.48,5,15.58V8.44c2.45,1.47,8.5,1.73,12.45,1.73s10-.26,12.45-1.73ZM5,6.42C5.4,5.85,9.5,4.75,17.44,4.75s12,1.1,12.45,1.67v.5c0,.9-3.86,2.16-12.45,2.16S5,7.82,5,6.92ZM17.44,35.06C9.84,35.06,5,33.46,5,32.36V25.28c2.19,1.45,7.34,2.21,12.45,2.21s10.27-.76,12.45-2.21v7.08c0,1.1-4.85,2.7-12.45,2.7Z"/></g></g></svg>