<svg xmlns="http://www.w3.org/2000/svg" xmlns:xlink="http://www.w3.org/1999/xlink" viewBox="0 0 36.19 36.19"><defs><style>.cls-1{fill:none;}.cls-2{clip-path:url(#clip-path);}.cls-3{fill:#fff;}</style><clipPath id="clip-path" transform="translate(0 0)"><rect class="cls-1" width="36.19" height="36.19"/></clipPath></defs><g id="Слой_2" data-name="Слой 2"><g id="Layer_1" data-name="Layer 1"><g class="cls-2"><path class="cls-3" d="M35.89,4.29,27.11.05a.53.53,0,0,0-.46,0L18.1,4.18,9.54.05a.53.53,0,0,0-.46,0L.3,4.29a.55.55,0,0,0-.3.48V35.66a.52.52,0,0,0,.25.45.52.52,0,0,0,.51,0L9.31,32l8.56,4.13a.53.53,0,0,0,.46,0L26.88,32l8.55,4.13a.48.48,0,0,0,.23,0,.46.46,0,0,0,.28-.08.52.52,0,0,0,.25-.45V4.77a.53.53,0,0,0-.3-.48ZM8.78,31.09,1.06,34.82V25.7L8.78,22Zm0-20.6L5.65,12a.53.53,0,1,0,.46,1l2.67-1.29v9.12L1.06,24.52V15.4L4.2,13.89a.53.53,0,0,0,.24-.71.51.51,0,0,0-.7-.25L1.06,14.22V5.1L8.78,1.38Zm8.79,24.33L9.84,31.09V22l2.68,1.29a.53.53,0,1,0,.46-1L9.84,20.79V11.67l7.73,3.73v9.12l-2.68-1.29a.53.53,0,1,0-.46.95l3.14,1.52Zm0-20.6L9.84,10.49V1.38L17.57,5.1Zm8.78,16.87-7.72,3.73V25.7L26.35,22Zm0-10.3-7.72,3.73V15.4l7.72-3.73Zm0-10.3-7.72,3.73V5.1l7.72-3.73Zm8.78,24.33-7.72-3.73V22l7.72,3.73Zm0-10.3-7.72-3.73V11.67l7.72,3.73Zm0-10.3-7.72-3.73V1.38L35.13,5.1Z" transform="translate(0 0)"/></g></g></g></svg>