<svg width="16" height="10" viewBox="0 0 16 10" fill="none" xmlns="http://www.w3.org/2000/svg">
    <path d="M1.25012 5.58336L12.9396 5.58337L8.96987 8.67095C8.677 8.89874 8.677 9.26799 8.96987 9.49578C9.26275 9.72357 9.73769 9.72357 10.0306 9.49578L15.2806 5.41245C15.5734 5.18466 15.5734 4.81526 15.2806 4.58762L10.0306 0.50428C9.88412 0.390385 9.69212 0.333364 9.50012 0.333364C9.30831 0.333364 9.11631 0.390385 8.96987 0.50428C8.677 0.732072 8.677 1.10147 8.96987 1.32911L12.9396 4.4167L1.25012 4.4167C0.836122 4.4167 0.500122 4.67789 0.500122 5.00003C0.500122 5.32218 0.835935 5.58336 1.25012 5.58336Z"
          fill="#276DCB"/>
</svg>
