<svg width="689" height="1244" viewBox="0 0 689 1244" fill="none" xmlns="http://www.w3.org/2000/svg">
    <g clip-path="url(#clip0)">
        <path d="M703.648 290.92C692.847 297.525 680.547 298.829 670.931 299.137C656.153 299.671 644.468 292.559 638.139 278.928C635.295 272.996 633.722 266.353 632.15 259.852C631.435 256.884 630.649 253.704 629.722 250.666C627.225 242.258 623.805 232.509 617.136 223.899C611.886 217.125 604.239 213.326 595.683 213.136C586.207 213.019 577.026 217.427 570.541 225.222C564.69 232.238 562.45 240.871 561.265 247.591C557.568 267.046 560.025 287.122 569.132 308.877C575.038 322.933 578.396 336.148 579.561 349.297C580.29 357.497 579.25 365.773 576.441 373.134C571.104 387.29 561.734 400.538 546.851 414.931C534.578 426.842 520.534 437.132 506.983 447.066C501.337 451.182 495.55 455.44 489.975 459.768C477.202 469.63 462.384 481.689 449.482 496.36C441.022 505.999 433.697 517.473 427.087 531.349C414.358 558.182 408.07 587.473 407.874 620.99C407.717 642.275 408.481 663.91 409.242 684.839L409.319 687.313C409.927 703.292 411.374 716.158 413.95 727.889C419.532 753.189 431.614 776.775 451.832 802.108C459.565 811.775 467.651 821.371 475.524 830.614C482.688 839.01 490.064 847.759 497.087 856.438C511.771 874.572 522.432 895.334 528.855 918.086C531.425 927.271 533.43 936.883 535.292 946.071C536.438 951.724 537.655 957.59 539.014 963.314C542.518 978.367 546.088 991.792 553.12 1004.01C563.42 1022.01 576.533 1034.07 593.239 1041.1C614.9 1050.23 637.964 1054.84 663.703 1054.91C677.421 1055.02 688.659 1053.08 699.185 1049.02C710.204 1044.75 717.827 1039.36 722.264 1032.63C728.322 1023.56 732.253 1012.52 734.97 996.888C736.364 989.106 737.616 981.183 738.798 973.472C739.773 967.389 740.817 961.093 741.791 954.868C745.065 935.838 754.919 918.559 771.918 902.039C782.921 891.404 797.325 883.447 817.179 877.102C841.977 869.188 869.405 865.864 898.754 867.414C907.24 867.817 915.939 868.43 924.285 869.116C934.681 869.867 945.502 870.758 956.181 871.083C976.476 871.809 994.203 863.348 1008.94 845.844C1021.77 830.678 1029.99 813.191 1037.02 796.485C1043.14 781.832 1049.81 764.208 1052.09 744.615C1054.79 721.344 1050.49 700.001 1039.34 681.15C1028.54 662.652 1016.77 650.096 1002.25 641.436C999.42 639.746 996.657 637.844 993.965 636.013C989.928 633.266 985.678 630.448 981.217 628.126C967.905 621.231 954.732 612.922 941.128 602.633C928.163 592.838 916.747 580.635 907.234 566.235C895.662 548.658 883.948 530.515 871.451 510.607C864.421 499.383 857.887 488.227 854.531 475.72C850.176 459.68 854.319 448.568 868.223 438.703C874.223 434.515 881.497 431.031 889.411 428.748C897.113 426.536 905.241 425.171 913.157 423.878C915.843 423.447 918.599 422.945 921.285 422.513C925.455 421.725 929.767 421.219 934.221 420.995L931.457 418.244C927.78 418.537 924.246 418.97 920.783 419.616C918.097 420.047 915.411 420.619 912.725 421.051C904.739 422.415 896.54 423.709 888.697 426.063C880.571 428.418 872.873 432.044 866.662 436.444C851.699 446.948 847.064 459.405 851.776 476.647C855.274 489.578 861.95 500.874 869.051 512.311C881.548 532.219 893.192 550.432 904.834 568.079C914.489 582.762 926.118 595.177 939.438 605.183C953.253 615.542 966.498 623.922 979.952 630.958C984.2 633.21 988.45 636.027 992.417 638.704C995.109 640.535 998.013 642.437 1000.85 644.127C1014.94 652.505 1026.43 664.779 1037.01 682.782C1047.73 701.069 1051.96 721.776 1049.33 744.41C1047.12 763.649 1040.59 780.99 1034.47 795.502C1027.59 811.925 1019.43 829.2 1006.88 844.081C992.782 860.806 975.833 868.911 956.456 868.254C945.848 867.858 935.098 867.037 924.702 866.286C916.285 865.672 907.657 864.987 899.029 864.585C869.327 863.107 841.546 866.361 816.464 874.417C796.046 880.904 781.288 889.074 770.003 899.993C752.582 916.938 742.446 934.784 739.032 954.521C737.987 960.676 737.014 967.042 736.04 973.126C734.787 980.766 733.535 988.689 732.141 996.471C729.564 1011.68 725.703 1022.37 719.856 1031.08C715.63 1037.31 708.572 1042.28 698.117 1046.41C688.016 1050.33 677.06 1052.12 663.767 1052.16C638.381 1052.01 615.671 1047.61 594.364 1038.55C578.082 1031.66 565.82 1020.31 555.663 1002.73C548.843 990.866 545.344 977.652 541.912 962.812C540.553 957.088 539.336 951.222 538.19 945.568C536.257 936.31 534.252 926.698 531.682 917.371C525.187 894.266 514.384 873.081 499.416 854.664C492.322 845.914 485.016 837.236 477.782 828.769C469.909 819.527 461.823 809.931 454.161 800.334C434.227 775.425 422.358 752.192 416.848 727.387C414.343 715.867 412.826 703.214 412.219 687.376L412.142 684.902C411.38 663.973 410.617 642.338 410.774 621.195C411.042 588.172 417.26 559.235 429.707 532.828C436.247 519.163 443.36 507.902 451.609 498.476C464.37 483.947 479.046 472.029 491.749 462.238C497.324 457.91 503.111 453.653 508.687 449.608C522.308 439.602 536.353 429.312 548.837 417.188C564.002 402.512 573.583 388.91 579.131 374.4C582.081 366.614 583.19 357.985 582.46 349.218C581.294 335.786 577.794 322.29 571.746 307.951C562.923 286.761 560.468 267.251 564.025 248.362C565.211 242.066 567.311 233.858 572.668 227.338C578.589 220.252 586.852 216.2 595.479 216.319C603.116 216.44 609.913 219.817 614.596 225.886C620.981 234.072 624.258 243.538 626.684 251.735C627.54 254.702 628.255 257.812 628.97 260.78C630.614 267.351 632.258 274.206 635.173 280.35C642.07 295.111 654.747 302.786 670.797 302.249C680.767 301.869 693.633 300.563 704.928 293.604C714.106 287.923 721.37 280.621 727.144 271.131C735.171 257.958 739.66 244.228 742.17 230.504L739.618 227.965C737.321 242.042 732.833 256.196 724.665 269.511C719.385 278.505 712.403 285.524 703.648 290.92Z" fill="#F2F6F7"/>
        <path d="M729.219 334.836C720.046 342.497 709.099 347.404 698.434 352.17C695.397 353.521 692.36 354.872 689.323 356.365C673.574 363.831 659.948 372.14 647.811 381.646C642.589 385.761 637.438 390.088 632.429 394.273C624.174 401.295 615.566 408.53 606.531 414.634C589.237 426.347 570.315 437.568 550.332 448.156C524.346 461.8 502.952 473.947 482.98 489.202C462.938 504.528 449.472 519.765 440.891 537.183C430.128 558.777 424.171 579.511 422.388 600.588C420.538 623.432 421.374 645.704 422.342 664.44C423.307 682.186 424.274 700.497 426.583 718.452C429.904 744.606 441.211 769.114 461.073 793.387C475.827 811.309 491.146 828.522 505.683 844.677C525.327 866.476 539.887 891.399 549.08 918.599C554.211 933.859 558.989 949.474 563.554 964.594L565.123 969.823C568.902 982.046 576.213 992.421 582.811 1001.1C587.778 1007.59 593.873 1013.09 599.964 1016.61C617.172 1026.54 635.853 1031.58 655.582 1031.74C683.584 1031.95 704.264 1017.4 710.918 992.849C714.98 977.848 718.688 962.352 722.041 946.646C724.836 933.628 729.895 921.452 737.009 910.615C745.742 897.157 755.615 886.949 767.121 879.353C787.663 865.794 810.196 856.755 834.085 852.45C855.218 848.648 877.77 846.963 907.186 847.169C909.591 847.163 911.924 847.228 914.258 847.292C924.794 847.477 935.684 847.59 946.216 846.219C968.907 843.261 988.887 831.259 1005.73 810.78C1012.99 801.922 1019.19 791.158 1024.81 777.708C1037.67 746.633 1039.02 722.446 1029.13 698.925C1021.3 680.278 1008.25 665.038 990.405 653.488C982.046 647.994 973.054 643.28 964.345 638.706C961.088 637.018 957.689 635.188 954.431 633.358C941.685 626.461 931.698 619.77 923.051 612.297C912.705 603.414 903.13 592.337 893.689 578.432C890.779 574.126 887.939 569.749 885.099 565.514C874.522 549.49 863.66 532.902 850.823 518.156C847.277 514.064 843.589 509.973 839.972 505.81C835.433 500.731 830.823 495.439 826.284 490.219L824.724 488.384C817.419 479.989 809.901 471.24 806.125 460.572C804.273 455.345 803.48 449.195 803.818 443.184C804.499 433.282 810.348 425.559 822.28 418.811C832.942 412.773 844.815 410.479 857.255 408.467C871.392 406.167 885.176 404.505 900.445 402.768C905.11 402.191 909.847 401.825 914.584 401.6L912.741 399.767C908.57 399.99 904.398 400.354 900.228 400.86C885.454 402.525 871.033 404.259 856.968 406.629C844.386 408.642 832.301 411.007 821.357 417.187C813.52 421.662 802.933 429.185 801.908 443.118C801.5 449.341 802.295 455.774 804.289 461.284C808.207 472.376 815.866 481.124 823.243 489.732L824.803 491.566C829.342 496.787 833.952 502.078 838.491 507.157C842.108 511.32 845.725 515.341 849.271 519.433C862.037 534.108 872.828 550.626 883.334 566.579C886.174 570.815 889.014 575.191 891.924 579.497C901.365 593.544 911.082 604.762 921.57 613.786C930.287 621.329 940.417 628.02 953.304 635.058C956.562 636.888 959.96 638.576 963.218 640.406C971.927 644.98 980.849 649.765 989.136 655.188C1006.63 666.527 1019.47 681.555 1027.15 699.779C1036.83 722.664 1035.41 746.497 1022.83 777.006C1017.35 790.314 1011.22 800.866 1004.1 809.582C987.54 829.777 967.983 841.496 945.787 844.382C935.325 845.682 924.577 845.568 914.041 845.384C911.707 845.319 909.303 845.325 906.899 845.331C877.341 845.125 854.647 846.811 833.373 850.614C809.272 854.99 786.456 864.171 765.703 877.801C753.985 885.468 743.971 895.96 735.026 909.63C727.772 920.751 722.642 933.138 719.777 946.369C716.495 962.004 712.646 977.5 708.654 992.431C702.21 1016.06 682.235 1030.05 655.224 1029.98C635.849 1029.88 617.451 1024.84 600.596 1015.13C594.718 1011.68 588.835 1006.39 583.94 1000.11C577.483 991.569 570.244 981.406 566.607 969.465L565.038 964.237C560.473 949.116 555.695 933.502 550.634 918.171C541.371 890.759 526.668 865.695 506.883 843.614C492.416 827.529 477.027 810.245 462.343 792.393C442.694 768.473 431.6 744.319 428.351 718.518C426.113 700.634 425.075 682.252 424.18 664.576C423.142 645.911 422.377 623.71 424.227 601.007C425.87 580.214 431.898 559.692 442.52 538.38C451.031 521.176 464.215 506.221 484.046 491.108C503.947 475.924 525.199 463.778 551.115 450.204C571.24 439.616 590.232 428.324 607.596 416.541C616.702 410.365 625.38 403.059 633.635 396.038C638.645 391.853 643.724 387.455 648.947 383.482C661.014 374.046 674.498 365.879 690.106 358.414C693.072 356.992 696.18 355.57 699.217 354.218C709.952 349.382 721.112 344.403 730.425 336.601C745.948 323.55 755.946 306.977 761.123 285.892C763.502 275.986 765.455 265.799 767.054 255.117L765.352 253.425C763.755 264.53 761.732 275.213 759.284 285.473C754.246 305.85 744.388 322.139 729.219 334.836Z" fill="#F2F6F7"/>
        <path d="M690.243 193.374C688.552 195.783 681.763 195.659 676.878 193.197C662.434 185.881 649.128 181.248 636.112 179.161C613.05 175.402 593.47 177.787 576.097 186.459C559.784 194.633 549.066 206.257 543.451 222.111C535.449 244.759 534.941 267.247 535.34 284.428C535.654 296.448 536.392 308.609 537.13 320.345C537.721 330.243 538.314 340.424 538.693 350.393C539.302 366.938 536.438 380.592 529.821 391.923C524.752 400.705 517.985 408.783 511.641 416.578C510.725 417.641 509.879 418.775 508.963 419.838C499.799 430.892 489.077 440.678 478.565 450.11C473.697 454.436 468.689 459.045 463.822 463.654C449.786 477.197 440.127 488.465 432.451 500.293C423.225 514.53 415.984 530.742 409.461 551.477C398.941 584.88 398.254 619.742 399.117 652.479C399.123 654.883 399.271 657.287 399.277 659.691C399.75 678.358 400.225 697.731 402.607 716.464C405.496 739.649 413.968 761.901 427.528 782.584C439.312 800.514 453.215 817.166 466.621 833.324C469.742 836.993 472.792 840.732 475.772 844.402C492.442 864.652 504.161 884.774 511.57 905.827C514.989 915.576 516.784 926.108 518.007 934.095C518.655 938.406 519.302 942.718 519.95 947.03C522.182 962.368 524.415 978.272 528.486 993.606C532.77 1009.72 540.586 1024.12 552.289 1037.74C559.949 1046.63 570.144 1051.55 580.054 1055.63C613.182 1069.12 647.763 1070.65 680.289 1070.29C693.158 1070.11 704.82 1067.89 716.052 1063.55C732.086 1057.21 742.448 1044.67 745.727 1027.34C747.402 1018.99 748.44 1010.43 749.409 1002.08C750.171 995.929 750.861 989.563 751.906 983.409L752.532 979.376C754.271 968.412 756.08 957.093 759.447 946.478C763.655 933.173 772.961 922.542 780.577 914.744C794.188 900.779 811.56 891.966 836.789 886.031C857.212 881.24 875.734 879.778 892.992 881.572C902.824 882.607 912.728 884.419 922.278 886.162C929.282 887.488 936.498 888.742 943.643 889.784C946.613 890.2 949.302 890.618 951.919 890.964C959.558 892.076 966.208 893.049 972.644 893.668C981.273 894.494 994.913 891.701 995.478 891.558L995.62 891.558C1004.17 888.636 1009.31 882.33 1014.74 875.598C1015.45 874.748 1016.15 873.897 1016.86 873.047C1023.41 865.181 1027.63 855.978 1031.71 847.058C1032.62 845.146 1033.47 843.164 1034.38 841.252L1044.57 816.123L1044.99 814.991C1049.27 802.747 1053.55 790.079 1057.48 777.482C1063.72 757.313 1065.86 737.72 1063.9 719.411C1060.64 688.802 1045.65 662.183 1018.15 638.354C1014.33 635.111 1010.08 632.435 1005.97 629.759C1004.69 628.914 1003.28 628.069 1002 627.224C996.195 623.421 989.963 619.477 983.022 615.252C980.401 613.633 977.781 612.155 975.161 610.677C969.921 607.72 964.61 604.694 959.792 601.029C948.811 592.926 940.519 585.806 933.712 578.752C925.984 570.782 919.525 561.536 914.13 553.489C906.819 542.689 900.782 532.593 895.595 522.636C887.991 508.019 882.089 495.66 880.495 480.815C879.187 467.383 885.449 455.275 897.381 448.244C911.925 439.721 928.885 435.434 948.684 435.382L946.699 433.408C927.325 433.741 910.719 438.097 896.245 446.55C883.678 453.936 877.065 466.823 878.445 481.032C880.185 497.432 887.647 511.909 893.758 523.489C898.946 533.446 905.054 543.613 912.436 554.483C917.831 562.53 924.431 571.917 932.23 579.958C939.179 587.153 947.541 594.343 958.523 602.447C963.482 606.111 968.864 609.208 974.104 612.164C976.724 613.642 979.345 615.12 981.965 616.74C988.906 620.965 995.068 624.838 1000.88 628.641C1002.15 629.486 1003.57 630.331 1004.84 631.176C1008.88 633.782 1013.13 636.458 1016.81 639.56C1043.89 663.107 1058.66 689.231 1061.85 719.346C1063.74 737.443 1061.6 756.753 1055.5 776.638C1051.64 789.164 1047.29 801.904 1043.08 814.077L1042.87 815.562L1032.68 840.55C1031.77 842.461 1030.85 844.373 1030.01 846.355C1026 855.204 1021.78 864.266 1015.44 871.919C1014.73 872.77 1014.03 873.62 1013.32 874.47C1007.9 881.202 1003.17 886.942 995.191 889.72C994.201 889.864 981.127 892.656 973.064 891.829C966.627 891.209 960.119 890.236 952.48 889.124C949.862 888.778 947.174 888.36 944.203 887.944C937.059 886.902 929.914 885.577 922.91 884.252C913.288 882.438 903.384 880.625 893.411 879.591C875.87 877.798 857.206 879.26 836.571 884.122C810.848 890.129 793.265 899.155 779.372 913.404C771.614 921.344 762.096 932.187 757.748 945.917C754.311 956.603 752.502 968.063 750.692 979.098L750.067 983.13C749.093 989.356 748.261 995.722 747.57 1001.95C746.601 1010.15 745.563 1018.71 743.958 1026.99C740.749 1043.68 730.88 1055.59 715.481 1061.71C704.461 1065.98 692.941 1068.2 680.426 1068.31C648.182 1068.67 613.813 1067.21 580.968 1053.86C571.342 1049.92 561.288 1045.14 553.912 1036.53C542.351 1023.2 534.748 1009 530.535 993.106C526.536 977.843 524.232 962.009 522.071 946.741C521.423 942.43 520.846 938.047 520.198 933.735C519.046 925.677 517.18 915.076 513.689 905.114C506.209 883.85 494.418 863.516 477.607 843.124C474.557 839.384 471.436 835.715 468.386 831.976C455.05 815.888 441.147 799.237 429.434 781.377C416.016 760.977 407.757 738.936 404.869 716.033C402.557 697.372 402.012 678.069 401.539 659.403C401.533 656.999 401.385 654.595 401.379 652.191C400.433 614.575 401.765 583.176 411.654 551.825C418.106 531.302 425.348 515.232 434.433 501.137C441.968 489.45 451.556 478.253 465.522 464.923C470.248 460.314 475.327 455.776 480.195 451.45C490.706 442.018 501.641 432.16 510.804 420.964C511.721 419.901 512.566 418.768 513.483 417.705C520.038 409.839 526.735 401.689 531.944 392.766C538.702 381.011 541.706 367.073 541.096 350.104C540.717 339.993 540.124 329.812 539.463 319.985C538.725 308.249 537.986 296.089 537.672 284.069C537.204 267.099 537.711 244.753 545.644 222.459C551.119 207.171 561.484 195.76 577.303 187.94C594.181 179.482 613.408 177.169 636.045 180.787C648.92 182.875 662.084 187.366 676.316 194.613C681.626 197.357 689.547 197.76 692.083 194.218L692.647 193.509C694.479 190.959 696.452 188.267 697.93 185.505L696.441 184.024C694.964 186.927 692.991 189.619 691.018 192.312L690.243 193.374Z" fill="#F2F6F7"/>
        <path d="M610.965 134.678C606.232 136.741 601.429 138.733 596.838 140.655C587.232 144.639 577.272 148.696 567.88 153.458C555.168 159.855 543.876 168.228 534.215 178.082C526.316 186.164 522.099 195.933 517.602 206.975C510.014 225.804 507.663 246.034 506.082 263.503C505.602 269.232 504.98 274.961 504.5 280.69C502.781 299.292 501.063 318.6 498.637 337.486C496.143 357.15 491.939 372.293 485.397 385.109C481.035 393.606 475.895 402.317 470.12 410.958C464.696 419.104 458.776 426.615 451.586 435.543C448.485 439.37 445.172 443.126 441.999 446.74C437.557 451.772 432.974 456.946 428.958 462.401C414.302 482.38 403.329 504.753 395.478 530.795C386.854 559.314 381.981 588.601 380.925 617.737C380.334 635.345 380.31 653.235 380.355 670.63C380.376 678.55 380.399 687.459 380.351 696.157C380.204 721.118 386.278 745.497 398.788 770.779C403.978 781.302 410.721 791.113 417.322 800.783L417.464 801.066C418.742 802.901 420.019 804.736 421.226 806.642C426.621 814.548 432.51 822.24 438.328 829.72C447.409 841.435 456.704 853.502 464.092 866.777C472.049 881.181 480.58 898.554 483.036 918.488C485.201 935.594 486.099 954.401 485.801 975.686C485.577 998.314 489.737 1021.21 498.64 1045.87C503.911 1060.42 511.513 1074.33 522.085 1088.23C530.387 1099.31 541.857 1105.22 558.196 1106.95C570.291 1108.26 582.664 1107.59 594.683 1106.85C600.197 1106.56 605.995 1106.26 611.651 1106.1C640.288 1105.53 662.137 1105.26 682.431 1105.14C689.077 1105.12 695.795 1105.32 702.372 1105.51C711.777 1105.84 721.395 1106.1 731.011 1105.79C745.929 1105.26 758.715 1100.35 768.874 1091.13C771.413 1088.86 774.093 1086.16 775.358 1083.19L775.921 1081.92C779.224 1074.2 782.669 1066.34 782.858 1057.79C783.048 1049.23 783.238 1040.67 783.428 1032.12L783.497 1031.62C783.754 1021.44 783.939 1010.9 784.265 1000.51C784.658 988.344 785.823 973.986 791.939 960.323C800.445 941.28 813.917 928.163 832.142 921.186C854.041 912.786 876.523 911.313 900.862 916.624C914.233 919.488 926.904 924.617 939.22 929.535C944.034 931.502 948.989 933.469 954.014 935.224L955.429 935.644C958.331 936.556 961.162 937.539 963.922 938.592C970.15 940.839 976.733 943.155 983.311 944.199C1000.5 946.912 1015.06 945.177 1028.06 938.921C1038.79 933.66 1052.28 926.059 1060.94 913.379C1068.34 902.541 1072.76 889.872 1074 875.868C1077.09 841.283 1080.27 812.424 1085.92 783.63C1087.46 775.848 1088.5 767.997 1089.04 760.217L1089.94 752.649C1090.89 735.534 1091.9 717.783 1087.54 700.329C1081.97 678.423 1072.66 659.001 1060.03 642.629C1050.38 630.068 1040.66 620.123 1030.53 612.3C1026.28 609.059 1021.82 606.03 1017.5 603C1014.73 601.098 1011.97 599.196 1009.14 597.224C1006.66 595.463 1004.18 593.701 1001.77 592.01C992.986 585.811 983.989 579.399 975.275 572.704C970.031 568.617 965.352 563.821 960.743 559.095L959.113 557.473C950.817 548.797 945.628 538.275 941.644 529.093C938.087 520.758 936.719 511.498 937.615 502.374C938.995 489.219 948.375 479.931 963.993 476.426C971.272 474.78 978.836 473.841 986.968 473.891L984.983 471.916C977.488 472.077 970.419 472.944 963.493 474.518C946.957 478.379 937.083 488.163 935.635 502.238C934.669 511.716 936.038 521.258 939.808 529.946C943.792 539.269 949.123 550.074 957.632 558.962L959.262 560.584C963.871 565.309 968.621 570.176 973.935 574.334C982.65 581.029 991.718 587.511 1000.5 593.711C1002.98 595.472 1005.46 597.233 1007.87 598.924C1010.63 600.968 1013.54 602.869 1016.23 604.701C1020.48 607.66 1024.94 610.689 1029.19 613.93C1039.25 621.682 1048.75 631.557 1058.33 643.907C1070.82 659.996 1079.99 679.135 1085.49 700.829C1089.85 718 1088.91 735.539 1087.89 752.442L1086.99 759.869L1086.99 760.01C1086.51 767.719 1085.4 775.5 1083.94 783.211C1078.29 812.147 1075.04 841.076 1071.95 875.662C1070.92 889.453 1066.71 901.768 1059.45 912.322C1051 924.648 1037.8 932.107 1027.28 937.155C1014.7 943.269 1000.5 944.932 983.66 942.289C977.294 941.315 970.853 938.999 964.624 936.752C961.793 935.769 958.962 934.787 956.131 933.804L954.787 933.313C949.832 931.487 944.877 929.52 940.064 927.553C927.747 922.635 914.935 917.506 901.351 914.572C876.659 909.191 853.823 910.736 831.572 919.208C812.922 926.328 799.028 939.869 790.31 959.408C784.053 973.355 782.818 987.924 782.497 1000.3C782.17 1010.69 781.986 1021.23 781.729 1031.41L781.73 1031.84C781.54 1040.4 781.351 1048.95 781.161 1057.51C780.97 1065.64 777.666 1073.36 774.433 1080.86L773.871 1082.13C772.746 1084.68 770.207 1087.24 767.879 1089.29C758.003 1098.23 745.711 1102.93 731.287 1103.39C721.813 1103.7 712.195 1103.44 702.79 1103.11C696.213 1102.91 689.495 1102.72 682.849 1102.74C662.484 1102.79 640.706 1103.13 612.069 1103.7C606.413 1103.85 600.615 1104.15 595.03 1104.52C583.082 1105.19 570.851 1105.86 558.897 1104.54C543.124 1102.82 532.079 1097.19 524.131 1086.6C513.701 1072.84 506.17 1059.14 500.971 1044.66C492.139 1020.36 487.979 997.6 488.204 975.255C488.501 953.829 487.604 935.022 485.438 917.774C482.981 897.557 474.379 879.973 466.281 865.427C458.821 852.082 449.385 839.874 440.303 828.16C434.557 820.75 428.668 813.058 423.273 805.152C421.995 803.317 420.718 801.482 419.511 799.576L419.369 799.293C412.909 789.764 406.095 779.882 400.977 769.572C388.538 744.502 382.606 720.405 382.684 695.797C382.732 687.1 382.708 678.049 382.688 670.129C382.643 652.876 382.596 634.915 383.257 617.377C384.313 588.383 389.187 559.237 397.741 530.931C405.593 505.03 416.425 482.94 430.94 463.103C434.886 457.719 439.468 452.545 443.84 447.584C447.012 443.97 450.326 440.213 453.427 436.387C460.616 427.459 466.536 419.807 472.101 411.66C477.948 402.948 483.087 394.237 487.519 385.669C494.132 372.641 498.477 357.356 500.97 337.409C503.325 318.453 505.114 299.215 506.762 280.543C507.242 274.814 507.793 269.156 508.344 263.356C509.925 246.028 512.277 225.94 519.795 207.323C524.151 196.564 528.369 186.936 535.914 179.068C545.364 169.285 556.515 161.195 569.015 154.869C578.336 150.178 588.225 146.051 597.832 142.066C602.423 140.145 607.367 138.152 612.1 136.089C619.869 132.675 628.203 128.835 636.251 124.006L634.833 122.595C626.715 127.637 618.593 131.406 610.965 134.678Z" fill="#F2F6F7"/>
        <path d="M720.154 574.499C724.904 579.224 728.947 584.093 732.426 589.387C738.176 598.07 739.613 606.976 736.81 616.6C733.867 626.79 729.297 636.913 722.96 647.253C719.439 652.919 716.131 658.797 712.964 664.533C711.908 666.445 710.852 668.215 709.796 670.127L705.995 676.784C702.968 682.095 700.012 687.335 696.985 692.647L695.577 695.054C692.269 700.932 688.75 707.022 685.229 712.971C683.047 716.583 680.653 720.408 677.905 724.304C676.355 726.571 674.735 728.908 673.185 731.175C669.099 737.126 665.014 743.217 660.362 748.886C649.93 761.641 637.027 776.029 620.153 785.76C611.962 790.449 604.049 792.732 596.058 792.541C576.823 792.166 560.399 784.572 546.873 777.041C530.728 768.032 518.247 754.205 508.933 734.643C502.676 721.648 499.103 707.232 498.215 691.82C497.842 684.396 497.257 676.902 496.814 669.691C495.931 656.682 495.048 643.25 494.66 630.028C494.12 612.705 497.542 596.362 504.645 581.423C510.272 569.671 519.372 561.374 527.416 554.706C544.491 540.52 565.962 531.13 593.102 526.11C614.729 522.094 635.948 524.16 656.193 532.31C666.173 536.314 679.058 542.079 690.606 550.888C694.149 553.566 697.974 556.101 701.657 558.496C703.215 559.482 704.703 560.538 706.261 561.524L705.205 563.153C703.717 562.097 702.159 561.111 700.672 560.195C696.917 557.73 693.092 555.195 689.479 552.446C678.143 543.849 665.4 538.084 655.632 534.149C635.741 526.069 614.876 524.073 593.602 528.017C566.816 532.966 545.626 542.214 528.904 556.187C520.931 562.784 512.043 570.868 506.627 582.267C499.665 596.922 496.384 612.982 496.852 629.951C497.24 643.173 498.123 656.606 499.005 669.473C499.519 676.755 499.963 684.249 500.407 691.743C501.295 706.873 504.796 721.077 510.91 733.789C520.153 752.998 532.28 766.614 548.071 775.27C561.383 782.59 577.525 790.185 596.406 790.489C604.114 790.681 611.462 788.541 619.441 783.924C636.033 774.335 648.795 760.23 659.156 747.546C663.738 741.948 667.894 735.785 671.909 729.906C673.459 727.639 675.079 725.301 676.629 723.034C679.306 719.209 681.7 715.385 683.812 711.843C687.332 705.895 690.782 699.875 694.09 693.998L695.498 691.59C698.524 686.279 701.551 680.967 704.507 675.727L708.309 669.07C709.364 667.158 710.42 665.388 711.476 663.476C714.643 657.74 718.022 651.792 721.543 646.126C727.809 635.856 732.309 625.945 735.253 615.896C737.846 606.909 736.551 598.569 731.085 590.31C725.548 581.98 718.599 574.503 709.812 567.455C708.679 566.609 707.686 565.481 706.834 564.351C706.409 563.928 706.054 563.434 705.7 563.082L707.181 561.734C707.606 562.157 707.961 562.651 708.386 563.075C709.308 564.133 710.16 565.121 711.081 565.896C714.058 568.858 717.248 571.608 720.154 574.499Z" fill="#F2F6F7"/>
        <path d="M775.313 576.194C776.306 577.323 777.228 578.523 778.221 579.651C780.917 582.897 783.825 586.213 786.45 589.671C797.021 603.149 789.576 622.402 780.194 631.124L777.372 633.677C769.754 640.768 761.853 648.001 754.943 655.797C745.496 666.428 736.401 676.988 729.078 688.603C722.881 698.519 717.464 709.069 712.258 719.406C709.795 724.15 707.333 729.177 704.73 733.922C702.126 738.807 699.452 743.764 696.848 748.509C693.892 753.89 690.795 759.555 687.911 765.149C682 776.337 674.533 787.245 665.58 797.663C655.146 809.711 643.581 821.904 626.836 826.968C617.509 829.82 608.737 828.005 600.74 825.692C588.073 821.977 575.401 816.282 563.29 808.606C560.315 806.776 557.199 804.945 554.224 803.115C548.63 799.806 542.964 796.426 537.58 792.622C531.063 787.972 524.825 782.331 518.798 775.912C507.807 763.991 500.71 753.827 495.59 742.951C488.906 728.543 484.974 712.078 483.368 692.707C482.639 684.365 482.334 675.88 481.959 667.608C481.807 663.649 481.585 659.76 481.363 655.872C480.397 637.984 479.641 619.036 483.198 600.288C486.057 584.654 491.962 571.345 500.773 560.644C508.033 551.787 517.417 543.913 529.49 536.599C553.847 521.757 580.269 512.779 607.981 510.02C631.238 507.626 653.592 511.244 674.194 520.737C682.335 524.463 690.195 528.756 697.843 532.979C700.676 534.527 703.579 536.146 706.482 537.624L706.836 537.835C721.564 545.716 736.859 553.879 751.73 562.184C757.112 565.14 762.494 568.379 767.735 571.618C770.002 573.026 772.197 574.364 774.534 575.701L773.056 578.18L775.313 576.194ZM524.672 777.806C529.351 782.461 534.241 786.62 539.2 790.143C544.442 793.948 550.108 797.327 555.632 800.565C558.677 802.325 561.723 804.226 564.768 806.128C576.738 813.663 589.056 819.288 601.44 822.862C609.083 825.104 617.289 826.78 625.909 824.212C641.877 819.362 653.09 807.524 663.312 795.831C672.054 785.626 679.521 774.858 685.22 763.883C688.246 758.289 691.273 752.695 694.228 747.172C696.832 742.427 699.506 737.471 702.11 732.585C704.643 727.77 707.176 722.814 709.638 718.07C714.844 707.732 720.402 697.04 726.669 687.054C734.134 675.297 743.299 664.666 752.888 653.893C759.938 645.955 767.91 638.651 775.528 631.56L778.35 629.007C786.885 620.995 793.628 603.582 784.192 591.515C781.496 588.128 778.73 584.812 776.034 581.566C775.041 580.438 774.119 579.238 773.126 578.109C770.86 576.701 768.594 575.434 766.327 574.025C761.157 570.857 755.846 567.689 750.464 564.733C735.593 556.428 720.298 548.265 705.57 540.384L705.216 540.172C702.383 538.624 699.409 537.076 696.506 535.457C688.929 531.305 680.998 526.942 673.069 523.285C652.822 514.004 631.034 510.525 608.341 512.776C581.054 515.534 555.055 524.37 531.052 538.999C519.262 546.171 510.089 553.832 503.111 562.406C494.582 572.681 488.958 585.565 486.169 600.705C482.682 619.099 483.438 637.906 484.403 655.51C484.625 659.399 484.777 663.358 484.928 667.318C485.303 675.448 485.679 684.003 486.337 692.275C487.871 711.292 491.873 727.404 498.344 741.459C503.251 752.123 510.206 762.005 520.985 773.715C522.191 775.196 523.396 776.537 524.672 777.806Z" fill="#F2F6F7"/>
        <path d="M804.421 566.643C805.982 568.619 807.543 570.595 809.033 572.5C812.438 576.734 815.985 581.25 819.038 585.839C831.461 604.686 832.856 624.552 823.081 645.013C819.846 651.81 813.564 656.281 807.988 660.185C804.106 662.952 800.082 665.579 796.129 668.135C789.635 672.395 782.929 676.867 776.79 681.762C768.816 688.076 761.837 696.367 754.584 707.912C747.472 719.315 742.696 731.914 738.132 744.159C736.797 747.627 735.463 751.237 734.129 754.705C727.455 771.764 721.057 785.569 711.118 797.828C708.933 800.591 706.678 803.425 704.422 806.118C700.194 811.503 695.682 817.03 691.171 822.416C682.923 832.125 675.309 840.772 667.269 848.995C660.639 855.659 653.584 861.758 646.174 867.223C638.269 873.041 628.725 873.561 618.601 868.85C613.503 866.459 608.193 863.856 603.447 860.404C591.828 852.09 580.633 843.351 570.076 835.247C567.597 833.344 565.046 831.371 562.566 829.468C552.647 821.857 542.444 813.964 532.806 805.645C519.27 794.013 503.747 779.699 492.033 761.698C479.822 743.062 472.978 721.725 471.927 698.252C471.626 691.323 471.113 684.324 470.742 677.466C470.004 665.589 469.194 653.358 469.021 641.196C468.765 624.438 469.012 610.437 471.168 596.642C473.95 578.816 481.616 562.745 493.109 550.199C501.852 540.701 512.579 532.471 527.971 523.521C549.011 511.163 572.045 504.315 593.738 498.672C614.372 493.386 635.655 492.836 657.091 496.952C669.118 499.325 681.575 503.818 695.098 510.642L699.205 512.752C722.641 524.641 746.785 536.953 771.561 547.071C785.01 552.552 795.278 558.535 803.924 565.867L802.656 567.426C794.152 560.235 784.095 554.322 770.858 548.911C746.012 538.723 721.797 526.482 698.361 514.451L694.254 512.341C680.943 505.587 668.698 501.164 656.742 498.862C635.66 494.815 614.589 495.436 594.238 500.58C572.615 506.152 549.793 512.929 528.965 525.216C513.785 534.094 503.2 542.183 494.597 551.539C483.245 563.801 475.861 579.589 473.078 596.991C470.922 610.644 470.675 624.504 471.001 641.191C471.174 653.211 471.983 665.442 472.721 677.32C473.163 684.107 473.606 691.177 473.907 698.106C474.956 721.155 481.658 742.209 493.727 760.562C505.369 778.351 520.609 792.525 534.145 804.015C543.712 812.264 553.915 820.157 563.834 827.768C566.314 829.67 568.865 831.644 571.345 833.546C581.831 841.722 593.097 850.39 604.574 858.704C609.178 862.015 614.347 864.618 619.374 866.939C628.931 871.369 637.557 870.922 644.897 865.529C652.237 860.136 659.292 854.036 665.78 847.514C673.82 839.432 681.364 830.715 689.612 821.006C694.123 815.762 698.564 810.164 702.792 804.779C704.977 802.016 707.233 799.181 709.417 796.418C719.144 784.372 725.614 770.637 732.146 753.862C733.551 750.322 734.815 746.783 736.15 743.315C740.714 731.07 745.418 718.259 752.671 706.715C759.995 694.958 767.256 686.524 775.23 680.069C781.439 675.103 788.216 670.701 794.781 666.371C798.734 663.815 802.687 661.118 806.64 658.42C812.004 654.588 818.074 650.329 821.098 644.028C830.593 624.275 829.27 605.045 817.202 586.833C814.149 582.245 810.673 577.799 807.268 573.565C805.778 571.66 804.146 569.614 802.585 567.638L804.421 566.643Z" fill="#F2F6F7"/>
        <path d="M623.475 594.974C623.829 595.326 624.113 595.75 624.468 596.103C625.106 596.879 625.815 597.584 626.383 598.431C635.465 610.428 636.913 623.294 630.87 637.876C624.967 652.175 614.315 661.749 597.36 667.874C589.236 670.794 576.212 665.595 570.962 659.245C557.983 643.935 556.027 626.05 564.955 606.015C568.33 598.511 575.532 594.533 582.594 590.979C594.811 584.937 607.966 586.034 622.695 594.198L621.358 596.676L623.475 594.974ZM574.071 658.388C579.53 663.819 590.499 667.255 596.292 665.119C612.47 659.208 622.558 650.201 628.109 636.823C633.66 623.302 632.357 611.426 623.984 600.276C623.416 599.57 622.778 598.794 622.14 598.159C621.785 597.807 621.501 597.383 621.147 597.03C607.055 589.218 595.173 588.259 583.803 593.875C577.165 597.145 570.528 600.839 567.575 607.494C558.998 626.608 560.808 642.937 573.15 657.613C573.433 657.754 573.788 658.106 574.071 658.388Z" fill="#F2F6F7"/>
        <path d="M646.551 577.165L646.977 577.588C648.537 579.281 650.026 581.045 651.445 582.739C666.622 600.236 669.644 620.027 660.795 643.384C655.879 656.267 648.556 668.165 638.474 679.717C633.891 684.891 628.387 689.289 623.659 692.908L622.953 693.475C613.779 700.429 604.322 707.525 592.522 710.737C578.319 714.663 566.646 712.502 557.857 704.322C551.265 698.187 547.001 690.137 544.582 684.345C538.391 669.441 534.964 656.581 533.87 644.068C532.34 626.606 534.422 611.61 540.327 598.16C543.069 591.859 547.226 586.404 552.518 582.077C565.149 571.649 577.649 565.606 590.867 563.663C599.561 562.438 608.544 563.617 617.316 564.867L617.457 564.867C627.148 566.185 636.492 570.12 645.985 576.884L644.857 578.442C635.577 571.891 626.516 568.096 617.179 566.847L617.038 566.848C608.479 565.668 599.566 564.418 591.155 565.642C578.431 567.514 566.143 573.344 553.795 583.629C548.715 587.885 544.839 593.057 542.168 599.003C536.333 612.1 534.25 626.813 535.85 643.921C536.943 656.293 540.299 668.941 546.418 683.633C548.766 689.213 552.888 697.122 559.197 702.975C567.49 710.661 578.455 712.683 592.022 708.971C603.399 705.901 612.714 698.805 621.818 692.064L622.524 691.497C627.182 687.949 632.615 683.621 637.057 678.589C646.997 667.179 654.109 655.493 658.955 642.823C667.594 620.244 664.645 601.089 649.964 584.228C648.474 582.464 646.985 580.841 645.495 579.077L645.07 578.654L646.551 577.165Z" fill="#F2F6F7"/>
        <path d="M974.748 696.45C990.274 711.895 994.004 732.392 984.443 753.771C974.46 776.142 954.756 785.598 938.649 791.296C920.423 797.849 901.469 796.626 883.151 795.33L879.474 795.057C873.604 794.718 867.663 794.168 861.863 793.617C850.971 792.656 839.725 791.624 828.765 791.582C811.794 791.485 795.541 795.345 780.429 803.163C759.95 813.681 740.256 827.097 722.055 843.125C709.567 854.118 698.218 867.511 687.513 884.086C682.019 892.585 677.235 901.649 672.52 910.5C670.48 914.394 668.298 918.43 666.116 922.467C665.835 923.033 665.483 923.67 665.202 924.237C662.317 929.548 659.291 935.142 654.069 939.256C648.706 943.513 641.781 945.511 634.991 944.68C629.049 943.988 623.88 941.103 620.403 936.657C611.039 924.802 603.161 913.721 596.486 902.99C587.255 888.165 575.897 871.082 561.434 856.27C554.84 849.57 548.105 842.87 541.512 836.311C537.613 832.432 533.714 828.695 529.885 824.745C526.412 821.289 522.796 817.692 519.322 814.378C510.957 806.197 502.309 797.734 494.437 788.916C473.871 766.059 462.073 742.896 458.685 718.086C456.523 702.393 455.633 686.415 454.818 672.346C454.001 657.286 453.465 641.378 453.274 622.145C453.008 601.569 456.847 582.396 464.581 565.123C469.853 553.3 477.322 543.098 487.198 534.022C506.95 516.01 530.179 502.302 556.388 493.112C577.088 485.917 596.094 479.998 614.466 475.142C632.485 470.358 651.646 469.671 671.383 472.944C681.994 474.754 693.248 478.897 706.701 486.075C726.811 496.77 747.982 507.817 771.348 519.636C774.251 521.113 777.295 522.59 780.127 523.997C790.323 528.92 800.801 533.984 810.082 541.102C810.507 541.384 811.144 541.594 811.781 541.805C812.206 541.945 812.631 542.085 813.126 542.296L812.353 544.066C811.999 543.855 811.645 543.785 811.22 543.645C810.442 543.434 809.593 543.154 808.884 542.59C799.744 535.613 789.337 530.62 779.213 525.767C776.239 524.361 773.336 522.883 770.292 521.406C746.855 509.517 725.755 498.541 705.645 487.845C692.404 480.738 681.363 476.665 670.963 474.925C651.509 471.652 632.631 472.337 614.895 477.121C596.523 481.977 577.517 487.895 556.959 495.091C531.032 504.138 507.945 517.704 488.475 535.574C478.669 544.438 471.412 554.427 466.28 565.967C458.687 582.957 454.918 601.917 455.183 622.211C455.375 641.444 455.911 657.352 456.798 672.341C457.613 686.41 458.503 702.388 460.665 717.939C464.051 742.326 475.637 765.135 495.989 787.78C503.861 796.599 512.51 805.062 520.804 813.172C524.278 816.628 527.893 820.083 531.438 823.609C535.337 827.488 539.166 831.297 543.065 835.176C549.587 841.664 556.463 848.364 562.986 855.135C577.521 870.159 588.95 887.312 598.252 902.208C604.927 912.938 612.663 923.878 622.027 935.733C625.149 939.827 629.894 942.431 635.34 943.053C641.564 943.744 647.994 941.959 652.934 937.987C657.803 934.085 660.618 928.986 663.503 923.534C663.855 922.897 664.136 922.33 664.488 921.693C666.67 917.798 668.781 913.692 670.821 909.797C675.536 900.946 680.391 891.812 685.955 883.241C696.801 866.525 708.221 853.06 720.92 841.855C739.263 825.685 759.027 812.199 779.718 801.609C795.112 793.65 811.719 789.717 828.902 789.885C840.004 789.927 851.249 790.958 862.212 791.99C867.941 792.47 873.882 793.02 879.682 793.43L883.359 793.703C901.464 794.929 920.135 796.153 938.079 789.742C953.763 784.186 973.042 774.873 982.744 753.21C994.063 727.795 985.868 703.563 960.867 688.284C949.819 681.665 936.868 677.386 925.403 673.597C912.734 669.317 896.384 662.925 882.847 651.01C882.351 650.516 881.784 650.093 881.288 649.599C878.311 647.062 875.405 644.453 873.487 641.134C868.727 632.308 863.113 621.787 858.7 610.626C847.242 582.3 833.401 562.184 815.119 547.382C814.34 546.748 813.772 545.901 813.134 545.124C812.92 544.771 812.637 544.489 812.424 544.136L813.976 542.86C814.189 543.213 814.544 543.565 814.757 543.918C815.254 544.695 815.75 545.33 816.317 545.753C834.882 560.695 848.936 581.023 860.466 609.702C864.949 620.792 870.421 631.172 875.181 639.999C876.816 643.035 879.721 645.502 882.556 647.899C883.052 648.393 883.619 648.816 884.115 649.309C897.439 661.013 913.507 667.264 925.963 671.474C937.499 675.334 950.592 679.613 961.782 686.372C966.668 689.4 971.061 692.783 974.748 696.45Z" fill="#F2F6F7"/>
        <path d="M987.587 684.679C997.654 694.693 1004.33 707.263 1007.13 721.892C1008.78 730.444 1007.25 739.782 1005.64 746.079C1001.93 760.726 996.722 771.629 989.32 780.346C982.13 788.85 973.239 796.086 962.93 801.769C947.396 810.578 929.589 815.15 910.215 815.341C905.265 815.354 900.386 815.438 895.507 815.38C880.092 815.42 864.253 815.461 848.699 816.491C817.945 818.48 791.236 825.904 767.088 839.26C749.011 849.207 736.449 858.432 726.082 869.136C717.267 878.281 709.586 888.554 703.251 899.743C695.298 913.835 690.034 929.193 684.911 944.126C683.648 947.948 682.315 951.84 680.911 955.662C675.786 970.171 667.89 979.243 656.095 984.294C645.641 988.705 636.017 985.76 627.169 982.319C619.524 979.369 613.005 974.012 606.619 965.543C596.331 951.922 589.29 936.314 582.463 921.341C580.4 916.75 578.267 912.088 576.063 907.498C566.393 887.3 557.375 872.827 546.948 860.339C541.629 854.059 535.744 847.923 530.072 841.998C527.165 838.965 524.116 835.791 521.208 832.616C516.954 828.102 512.629 823.517 508.445 819.073C498.377 808.492 487.954 797.559 478.378 786.2C460.434 765.104 449.766 741.797 446.52 716.986C444.716 703.06 443.76 689.133 442.869 672.589C441.974 654.772 441.154 638.723 441.395 622.317C441.635 605.77 442.791 588.16 448.899 571.244C455.148 554.328 462.327 541.582 471.634 531.234C477.487 524.784 484.047 518.756 491.246 513.505C506.349 502.293 522.164 493.06 538.197 486.018C565.39 474.138 595.132 463.525 631.873 452.682C651.021 447.046 666.926 445.095 681.921 446.753C692.743 447.927 702.014 450.944 709.38 455.733C717.88 461.226 726.239 467.144 734.315 472.921C740.408 477.29 746.713 481.728 752.946 485.954C757.763 489.195 762.933 492.222 767.89 495.037C770.51 496.515 773.272 498.135 775.892 499.754C777.946 500.951 779.929 502.219 781.983 503.415C788.357 507.217 794.943 511.231 801.247 515.386C807.481 519.471 813.573 523.981 819.595 528.278C822.287 530.251 825.121 532.224 827.813 534.197L826.122 536.605C823.359 534.703 820.596 532.66 817.904 530.687C812.024 526.389 805.861 521.95 799.628 517.865C793.323 513.71 786.808 509.767 780.434 505.965C778.38 504.768 776.397 503.501 774.343 502.304C771.723 500.684 769.032 499.136 766.412 497.657C761.384 494.771 756.214 491.744 751.326 488.434C745.022 484.137 738.717 479.698 732.624 475.33C724.619 469.623 716.26 463.705 707.831 458.282C700.819 453.704 691.973 450.828 681.646 449.724C667.005 448.135 651.453 450.014 632.729 455.508C596.129 466.351 566.528 476.822 539.477 488.701C523.656 495.672 508.053 504.835 493.091 515.904C486.104 521.084 479.613 526.9 473.973 533.278C464.948 543.343 457.98 555.735 451.801 572.298C445.692 588.789 444.676 606.116 444.435 622.38C444.195 638.644 445.014 654.693 445.909 672.51C446.73 688.984 447.756 702.84 449.489 716.695C452.663 741.012 463.117 763.824 480.636 784.355C490.211 795.574 500.564 806.578 510.561 817.087C514.745 821.531 519.07 826.116 523.325 830.631C526.232 833.805 529.21 836.909 532.188 840.012C537.86 845.937 543.745 852.074 549.206 858.494C559.846 871.195 568.935 885.879 578.746 906.218C580.95 910.809 583.084 915.611 585.217 920.131C591.973 935.034 599.014 950.501 609.019 963.839C615.121 971.885 621.144 976.889 628.293 979.629C636.999 982.929 645.562 985.665 654.956 981.61C665.975 976.914 673.307 968.41 678.151 954.75C679.555 950.928 680.888 947.036 682.151 943.214C687.274 928.139 692.607 912.569 700.773 898.264C707.249 886.933 715.07 876.377 724.026 867.091C734.604 856.174 747.449 846.807 765.737 836.647C790.239 823.078 817.372 815.512 848.55 813.522C864.175 812.562 880.155 812.52 895.57 812.48C900.52 812.467 905.328 812.455 910.278 812.442C929.157 812.181 946.399 807.752 961.509 799.227C971.465 793.615 980.073 786.663 987.052 778.372C994.243 770.009 999.166 759.531 1002.73 745.309C1004.2 739.295 1005.74 730.381 1004.09 722.395C999.861 700.557 987.373 684.043 966.91 673.419C958.838 669.197 950.413 665.33 942.272 661.603C933.847 657.736 925.28 653.728 916.925 649.365C909.491 645.496 902.193 640.07 895.105 633.441C884.331 623.428 877.296 610.224 871.043 598.502C861.664 580.99 851.938 566.237 841.156 553.113C837.964 549.232 834.418 545.423 830.944 541.826C829.384 540.133 827.753 538.51 826.264 536.746L828.451 534.69C830.011 536.383 831.5 538.006 833.13 539.628C836.534 543.296 840.221 547.105 843.484 551.056C854.337 564.251 864.205 579.287 873.585 596.94C879.766 608.45 886.73 621.442 897.149 631.103C904.096 637.59 911.181 642.804 918.332 646.533C926.616 650.825 935.183 654.833 943.608 658.701C951.82 662.498 960.245 666.365 968.387 670.657C975.752 674.598 982.199 679.319 987.587 684.679Z" fill="#F2F6F7"/>
        <path d="M736.825 404.891C742.002 410.747 744.779 418.023 747.414 425.016C747.912 426.358 748.411 427.701 748.98 428.972C753.82 441.263 758.803 453.978 768.233 463.924C772.204 468.156 777.45 473.516 783.332 478.38C788.86 483.033 794.67 487.543 800.196 491.913C805.723 496.283 811.533 500.793 816.99 505.375C840.233 524.689 860.448 548.608 878.699 578.754L879.693 580.307C886.724 591.956 893.968 603.958 903.61 613.832C913.323 623.777 923.101 631.389 933.723 637.159C941.583 641.452 949.655 645.674 957.514 649.684C963.745 652.921 970.118 656.298 976.349 659.676C993.06 668.542 1005.75 681.449 1014.21 698.044C1020.25 709.838 1022.82 721.003 1022.15 732.036C1021.2 747.453 1016.78 762.243 1008.27 778.6C999.261 796.159 985.013 809.914 964.535 820.574C951.471 827.326 936.489 830.759 917.327 831.162C912.731 831.245 908.206 831.398 903.681 831.41C890.034 831.657 875.963 831.906 862.106 832.791C825.696 835.077 794.747 843.785 767.282 859.624C756.479 865.804 746.741 873.466 738.137 882.398C721.707 899.624 710.8 920.088 704.784 945.135C701.985 956.739 697.994 971.952 691.598 986.747C686.467 998.711 676.158 1004.39 667.824 1008.09C651.508 1015.14 635.587 1010.72 623.695 1006.09C617.537 1003.77 612.651 1001.17 608.543 998.348C598.554 991.09 590.395 980.859 583.783 966.946C577.74 954.304 572.826 940.811 567.984 927.813L567.058 925.199C556.375 895.952 544.084 873.71 528.409 855.296C521.175 846.829 513.446 838.576 505.929 830.535C504.228 828.701 502.526 826.866 500.824 825.032L499.477 823.551C482.458 805.21 464.802 786.235 452.086 763.711C444.485 750.225 440.274 735.316 437.342 722.525C434.41 709.876 434.022 696.795 433.636 684.139C433.556 680.816 433.406 677.28 433.256 673.887C432.58 658.686 431.823 639.737 431.423 621.565C431.003 596.04 435.891 572.268 445.876 550.746C451.15 539.489 458.194 529.289 467.432 519.577C481.606 504.62 499.391 491.563 521.777 479.979C534.064 473.583 546.918 467.893 559.42 462.416C566.483 459.286 573.899 456.085 581.032 452.743C593.462 446.912 606.033 440.94 618.181 435.252C633.577 427.999 649.538 420.462 665.287 413.138C677.718 407.449 692.268 401.188 708.173 399.379C718.423 398.151 727.832 399.753 736.187 404.256L735.273 406.026C727.13 401.734 718.358 400.201 708.391 401.429C692.839 403.167 678.43 409.427 666.141 414.974C650.462 422.228 634.501 429.764 619.034 437.088C606.816 442.847 594.245 448.82 581.885 454.579C574.752 457.921 567.336 461.122 560.203 464.323C547.771 469.729 534.917 475.42 522.7 481.745C500.527 493.258 482.883 506.173 468.85 520.988C459.753 530.557 452.85 540.616 447.646 551.661C437.801 572.9 432.984 596.459 433.402 621.56C433.732 639.661 434.559 658.539 435.235 673.74C435.385 677.134 435.465 680.598 435.615 683.992C436.001 696.507 436.46 709.517 439.32 721.954C442.323 734.533 446.392 749.301 453.922 762.575C466.425 784.887 484.01 803.792 501.099 822.062L502.446 823.543C504.148 825.377 505.85 827.211 507.552 829.045C515.068 837.087 522.797 845.34 530.032 853.948C545.778 872.575 558.211 894.958 569.036 924.487L569.962 927.101C574.733 940.028 579.576 953.451 585.69 966.021C592.16 979.652 600.106 989.672 609.811 996.647C613.708 999.395 618.522 1001.93 624.468 1004.18C636.076 1008.67 651.502 1012.87 667.183 1006.19C675.305 1002.7 685.12 997.229 689.899 985.903C696.225 971.179 700.216 956.107 702.944 944.574C709.029 919.173 720.077 898.285 736.79 880.917C745.535 871.843 755.414 864.039 766.287 857.789C793.964 841.877 825.266 832.957 861.959 830.67C875.816 829.785 889.958 829.607 903.605 829.359C908.201 829.277 912.726 829.265 917.251 829.112C936.13 828.709 950.829 825.418 963.54 818.738C983.594 808.221 997.56 794.75 1006.43 777.614C1014.73 761.471 1019.07 746.893 1020.09 731.829C1020.77 721.079 1018.2 710.338 1012.37 698.898C1004.13 682.656 991.579 670.031 975.293 661.305C969.061 657.927 962.618 654.621 956.529 651.384C948.74 647.303 940.597 643.011 932.666 638.789C921.974 632.947 911.984 625.266 902.199 615.109C892.344 605.023 885.1 592.879 877.998 581.16L877.004 579.607C858.825 549.673 838.822 525.824 815.72 506.651C810.264 502.069 804.454 497.559 798.927 493.189C793.329 488.749 787.519 484.238 782.063 479.656C776.11 474.722 770.793 469.291 766.822 465.059C757.178 454.76 752.054 441.904 747.142 429.401C746.644 428.059 746.145 426.716 745.576 425.445C742.941 418.31 740.308 411.599 735.343 405.956L736.825 404.891Z" fill="#F2F6F7"/>
        <path d="M666.246 564.174C667.38 565.444 668.656 566.713 669.933 567.983C672.698 570.875 675.604 573.766 678.017 577.013C682.63 583.294 686.675 588.87 689.52 595.226C697.557 613.378 692.583 631.14 686.611 646.075C681.483 659.028 674.657 671.845 665.853 685.232C650.78 708.04 631.525 726.687 606.888 742.378C590.015 753.1 571.986 753.924 553.224 744.851C549.118 742.882 545.079 739.569 541.107 735.054C531.178 723.766 524.778 709.782 520.84 690.771C516.972 671.831 514.946 654.158 514.477 636.764C513.924 614.633 518.191 596.591 527.486 581.718C531.077 575.981 536.652 571.511 542.085 567.184L543.496 566.049C556.409 555.621 572.513 548.649 591.385 545.418C605.167 543.049 618.816 543.791 631.838 547.859C645.708 552.207 656.399 557.199 665.608 563.681L663.917 566.089C654.992 559.89 644.514 554.967 630.997 550.689C618.4 546.762 605.245 545.948 591.887 548.316C573.44 551.546 557.831 558.304 545.27 568.378L543.859 569.513C538.708 573.698 533.274 578.025 529.965 583.337C520.81 597.928 516.824 614.838 517.305 636.757C517.703 653.939 519.799 671.399 523.596 690.269C527.392 708.715 533.579 722.346 543.153 733.14C546.841 737.373 550.596 740.403 554.349 742.161C572.19 750.742 589.229 749.92 605.184 739.837C629.469 724.501 648.513 706.066 663.233 683.613C671.966 670.296 678.651 657.763 683.709 645.022C689.47 630.582 694.234 613.599 686.624 596.436C683.921 590.362 679.947 584.857 675.547 578.787C673.276 575.682 670.44 572.861 667.746 570.039C666.541 568.84 665.264 567.429 664.059 566.23L666.246 564.174Z" fill="#F2F6F7"/>
        <path d="M973.063 510.838C969.826 516.928 969.917 524.776 973.194 534.102C977.041 544.981 984.42 554.437 996.465 564.023C1000.36 567.053 1004.33 570.154 1008.16 573.114C1016.87 579.809 1025.94 586.856 1034.44 594.188C1059.25 615.478 1077.06 637.989 1088.65 663.061C1095.4 677.681 1099.61 691.317 1101.55 704.818C1102.56 712.028 1103.01 719.522 1103.45 726.875C1103.6 728.713 1103.6 730.551 1103.75 732.389L1103.62 738.188C1103 745.614 1102.32 752.97 1101.63 760.326C1099.77 780.342 1097.84 801.136 1096.7 821.574C1095.88 835.86 1096.06 850.426 1096.31 864.497C1096.39 867.961 1096.47 871.426 1096.41 874.891C1096.52 888.962 1093.37 903.042 1086.9 916.635C1081.84 927.255 1072.38 934.633 1064.06 941.302C1050.08 952.228 1034.26 959.764 1016.95 963.557C1004.58 966.347 992.348 965.742 975.932 961.684C961.639 958.044 910.813 936.538 910.317 936.327L910.246 936.257C887.387 928.609 866.455 927.956 846.319 934.302C835.226 937.795 826.05 943.9 818.224 952.901C802.856 970.76 800.719 992.191 800.555 1010.79C800.506 1019.06 800.599 1027.48 800.691 1035.61C800.787 1045.29 800.883 1055.26 800.767 1065.02C800.657 1077.04 797.435 1088.93 791.033 1101.46C789.766 1103.87 787.51 1106.42 784.194 1109.05C771.633 1118.84 758.281 1123.75 744.563 1123.79C728.229 1123.76 711.822 1122.95 695.91 1122.22C667.976 1120.95 642.242 1122.71 617.364 1127.58C602.734 1130.38 585.988 1134.88 572.795 1146.72C567.504 1151.47 563.628 1156.22 561.095 1161.32L563.364 1163.58C565.684 1158.55 569.49 1153.73 574.781 1148.98C587.48 1137.63 603.661 1133.28 617.938 1130.55C642.603 1125.75 668.055 1123.99 695.847 1125.26C711.759 1126 728.166 1126.8 744.642 1126.83C759.138 1126.86 773.054 1121.66 786.18 1111.45C789.92 1108.54 792.388 1105.77 793.865 1102.87C800.408 1090.2 803.769 1077.46 803.949 1065.09C804.136 1055.26 803.968 1045.22 803.873 1035.67C803.781 1027.54 803.688 1019.12 803.738 1010.85C803.832 992.749 805.899 971.954 820.633 954.875C828.106 946.229 836.859 940.408 847.457 937.127C867.029 931.066 887.324 931.65 909.547 939.087C912.307 940.282 961.152 960.944 975.586 964.584C992.214 968.712 1005.3 969.315 1017.95 966.524C1035.69 962.589 1051.93 954.91 1066.25 943.63C1074.79 936.89 1084.53 929.228 1089.95 917.971C1096.63 904.023 1099.91 889.519 1099.73 874.953C1099.65 871.488 1099.64 867.953 1099.57 864.488C1099.39 850.488 1099.14 835.993 1100.02 821.778C1100.89 801.34 1102.74 780.617 1104.6 760.601C1105.29 753.245 1105.9 745.819 1106.59 738.322L1106.79 732.311L1106.79 732.169C1106.64 730.331 1106.57 728.422 1106.42 726.584C1105.98 719.231 1105.53 711.737 1104.52 704.386C1102.58 690.602 1098.23 676.683 1091.33 661.781C1079.53 636.356 1061.58 613.563 1036.35 591.991C1027.77 584.589 1018.7 577.683 1009.99 570.846C1006.16 567.887 1002.19 564.786 998.298 561.755C986.677 552.593 979.512 543.49 975.95 533.175C972.957 524.556 972.868 517.556 975.612 512.246C978.216 507.36 983.298 503.953 990.788 501.953C997.784 500.026 1004.92 499.088 1012.42 499.069L1009.51 496.177C1002.87 496.477 996.363 497.343 990.003 499.056C981.736 501.27 976.089 505.244 973.063 510.838Z" fill="#F2F6F7"/>
        <path d="M590.404 113.801C587.721 115.222 585.037 116.502 582.354 117.923C566.465 125.955 550.081 134.2 535.403 145.411C523.758 154.28 514.658 162.435 508.109 173.129C503.814 180 500.652 187.574 497.771 194.723C489.762 214.543 486.634 235.27 483.79 256.561C480.53 281.106 476.992 307.49 472.466 334.16C469.401 352.27 462.871 370.036 453.299 387.031C444.5 402.54 433.435 416.64 422.723 430.386C419.622 434.354 416.31 438.534 413.209 442.643C396.437 464.749 384.551 489.458 376.989 518.186C369.987 544.792 364.973 574.362 361.738 608.524C359.262 634.976 358.134 663.758 358.502 696.284C358.868 728.528 366.937 758.559 382.563 785.53C390.732 799.721 400.031 813.486 408.904 826.827C411.957 831.415 415.08 836.074 418.133 840.662C428.782 856.898 436.954 872.363 443.217 888.186C444.926 892.565 445.858 897.442 446.718 902.107L446.862 903.096C450.521 923.098 450.15 943.888 449.778 963.971L449.779 964.395C449.333 983.134 450.083 999.679 451.82 1015.09C452.978 1025.13 454.913 1035.23 456.848 1044.92C457.78 1049.93 458.783 1055.02 459.716 1060.18L463.331 1063.78C462.325 1057.28 461.035 1050.77 459.746 1044.41C457.811 1034.73 455.876 1024.77 454.789 1014.8C453.053 999.53 452.374 983.197 452.75 964.529L452.748 964.104C453.12 943.88 453.49 922.949 449.76 902.594L449.616 901.604C448.684 896.727 447.823 891.78 445.972 887.118C439.708 871.153 431.394 855.406 420.603 839.03C417.551 834.441 414.428 829.782 411.375 825.194C402.501 811.853 393.273 798.159 385.176 784.038C369.833 757.49 361.837 727.954 361.542 696.206C361.246 663.75 362.302 635.039 364.78 608.728C368.014 574.707 372.958 545.208 379.89 518.815C387.382 490.44 399.057 466.086 415.618 444.334C418.718 440.225 421.96 436.115 425.132 432.076C435.914 418.26 447.05 403.947 455.919 388.368C465.773 371.089 472.373 352.97 475.507 334.506C480.104 307.765 483.642 281.381 486.902 256.836C489.675 235.757 492.804 215.172 500.744 195.705C503.554 188.627 506.716 181.194 510.8 174.537C517.208 164.267 526.097 156.324 537.459 147.597C551.926 136.599 568.168 128.355 583.987 120.394C586.741 119.043 589.354 117.693 592.037 116.272C600.44 111.937 607.924 107.533 614.7 102.849L612.573 100.733C605.797 105.417 598.596 109.679 590.404 113.801Z" fill="#F2F6F7"/>
    </g>
    <defs>
        <clipPath id="clip0">
            <rect x="716.599" y="1243.53" width="1010.8" height="788" transform="rotate(-135.149 716.599 1243.53)" fill="white"/>
        </clipPath>
    </defs>
</svg>
