<svg xmlns="http://www.w3.org/2000/svg" xmlns:xlink="http://www.w3.org/1999/xlink" width="671" height="822" viewBox="0 0 671 822">
    <defs>
        <clipPath id="clip-path">
            <rect id="Прямоугольник_10" data-name="Прямоугольник 10" width="671" height="822" transform="translate(1248.569 711)" fill="none"/>
        </clipPath>
        <clipPath id="clip-path-2">
            <path id="Контур_60" data-name="Контур 60" d="M1085.835,889.93l880.975-15.547,47.069,951.122L1132.9,1841.051Z" fill="none"/>
        </clipPath>
    </defs>
    <g id="Сгруппировать_84" data-name="Сгруппировать 84" transform="translate(-1248.569 -711)" clip-path="url(#clip-path)">
        <g id="Сгруппировать_83" data-name="Сгруппировать 83" opacity="0.8">
            <g id="Сгруппировать_82" data-name="Сгруппировать 82" clip-path="url(#clip-path-2)">
                <g id="Сгруппировать_81" data-name="Сгруппировать 81">
                    <g id="Сгруппировать_80" data-name="Сгруппировать 80">
                        <g id="Сгруппировать_60" data-name="Сгруппировать 60">
                            <path id="Контур_41" data-name="Контур 41" d="M1383,1602.61c-2.182-11.291-9-20.4-14.691-27.074-8.763-10.284-20.808-13.708-33.906-9.646-5.722,1.782-11.242,4.793-16.58,7.7-2.49,1.356-5.065,2.76-7.657,4.041-7.219,3.51-15.937,7.2-25.852,8a24.979,24.979,0,0,1-20.505-7.778,29.175,29.175,0,0,1-7.422-24.315c1.129-8.269,5.57-15.04,9.312-20.012,10.828-14.5,25.936-25.114,46.191-32.442a124.826,124.826,0,0,0,33.732-17.842,49.3,49.3,0,0,0,14.155-16.766c6.242-12.288,9.386-26.771,9.89-45.58.431-15.6-1.289-31.332-2.951-46.543-.69-6.308-1.4-12.828-1.956-19.26-1.27-14.671-2.309-32.058-.383-49.774,1.282-11.623,4.482-23.593,9.787-36.6,10.238-25.074,26.125-47.353,48.566-68.111,14.278-13.2,29.367-26,43.961-38.367l1.743-1.479c11.133-9.431,20.74-16.364,30.235-21.817,20.548-11.781,43.9-18.2,73.48-20.191,11.294-.755,22.789-1.2,33.905-1.629,10.09-.388,20.521-.791,30.753-1.426a156.722,156.722,0,0,0,61.221-16.621c7.786-3.938,15.469-8.493,22.9-12.9,4.558-2.7,9.27-5.5,13.978-8.132,12.33-6.873,23.562-12.788,36.166-15.565,18.491-4.109,34.791-2.758,49.828,4.13,19.6,8.9,36.912,21.625,52.929,38.889,8.511,9.185,14.212,17.907,17.936,27.45,3.914,10.056,4.968,18.444,3.224,25.645-2.37,9.692-7.4,19.115-16.286,30.549-4.416,5.719-8.985,11.452-13.4,17-3.512,4.406-7.143,8.962-10.667,13.477-10.835,13.943-16.409,31.209-17.041,52.787-.4,13.957,3.163,28.515,11.2,45.812,10,21.54,24.766,41.995,43.9,60.8,5.563,5.473,11.348,10.9,16.942,16.137,6.974,6.534,14.185,13.291,21.037,20.22,13.022,13.176,18.283,30.329,15.634,50.977-2.277,17.952-8.995,34.263-15.915,49.215-6.089,13.174-13.907,28.467-25.713,42.024-14.039,16.12-31.1,26.389-50.692,30.518-19.146,4.087-34.957,3.915-49.755-.535-2.871-.845-5.866-1.564-8.762-2.258a123.164,123.164,0,0,1-13.243-3.709,262.244,262.244,0,0,0-41.995-11.3,134.161,134.161,0,0,0-45.491-.383c-19.027,3.012-38.548,6.353-59.676,10.211-11.911,2.21-23.475,4.645-34.016,10.091-13.551,6.969-18.489,16.547-16.507,32.031a64.465,64.465,0,0,0,6.4,20.375A197.24,197.24,0,0,0,1602.3,1661.6c1.366,2.1,2.732,4.192,4.065,6.3a94.88,94.88,0,0,0,7.015,9.618l-3.608-.168a96.223,96.223,0,0,1-5.693-8.013c-1.33-2.1-2.689-4.186-4.048-6.273a198.955,198.955,0,0,1-11.507-19.227,67.236,67.236,0,0,1-6.663-21.237c-2.121-16.567,3.416-27.287,17.947-34.759,10.864-5.615,22.643-8.1,34.767-10.348,21.151-3.861,40.692-7.206,59.742-10.222a136.9,136.9,0,0,1,46.414.394,265.127,265.127,0,0,1,42.425,11.418,121.564,121.564,0,0,0,12.947,3.619c2.931.7,5.96,1.43,8.905,2.3,14.346,4.316,29.731,4.471,48.415.483,19.011-4.007,35.568-13.983,49.214-29.65,11.583-13.3,19.289-28.387,25.3-41.387,6.829-14.756,13.456-30.837,15.688-48.428,2.538-19.789-2.467-36.19-14.877-48.749-6.816-6.891-14.008-13.629-20.963-20.146-5.607-5.254-11.4-10.686-16.989-16.184-19.362-19.027-34.317-39.747-44.45-61.58-8.222-17.691-11.861-32.632-11.452-47.023.648-22.166,6.406-39.947,17.606-54.359,3.536-4.527,7.17-9.087,10.686-13.5,4.411-5.535,8.973-11.261,13.379-16.967,8.65-11.125,13.523-20.235,15.8-29.539,1.61-6.648.591-14.511-3.117-24.035-3.6-9.218-9.127-17.67-17.4-26.6-15.769-16.995-32.8-29.512-52.068-38.267-14.685-6.725-29.974-7.979-48.114-3.948-12.248,2.7-23.293,8.519-35.431,15.284-4.676,2.618-9.373,5.4-13.917,8.1-7.468,4.428-15.19,9.007-23.059,12.987a159.41,159.41,0,0,1-62.276,16.906c-10.263.636-20.71,1.04-30.814,1.43-11.1.429-22.574.872-33.83,1.624-29.157,1.965-52.134,8.268-72.309,19.837-9.35,5.37-18.83,12.214-29.834,21.536l-1.743,1.479c-14.573,12.353-29.641,25.126-43.873,38.289-22.147,20.486-37.816,42.451-47.9,67.152-5.209,12.771-8.349,24.506-9.6,35.874-1.9,17.488-.87,34.71.39,49.254.548,6.4,1.259,12.906,1.947,19.2,1.672,15.3,3.4,31.123,2.968,46.908-.517,19.22-3.752,34.066-10.18,46.721a52.01,52.01,0,0,1-14.929,17.691,127.417,127.417,0,0,1-34.451,18.233c-19.739,7.142-34.44,17.452-44.944,31.523-3.549,4.715-7.756,11.109-8.8,18.766a26.5,26.5,0,0,0,6.706,22.1,22.289,22.289,0,0,0,18.319,6.944c9.468-.762,17.893-4.339,24.878-7.735,2.535-1.252,5.085-2.642,7.55-3.987,5.455-2.973,11.1-6.05,17.074-7.914,14.207-4.4,27.266-.682,36.776,10.478,5.906,6.925,12.984,16.4,15.287,28.309a60.5,60.5,0,0,1-1.419,28.8,105.412,105.412,0,0,1-18.111,35.064l-3.307-.155a103.75,103.75,0,0,0,18.819-35.654A57.884,57.884,0,0,0,1383,1602.61Z" fill="#f2f6f7"/>
                        </g>
                        <g id="Сгруппировать_61" data-name="Сгруппировать 61">
                            <path id="Контур_42" data-name="Контур 42" d="M1428.415,1592.745c-.461-10.845-3.95-21.278-7.326-31.37-.951-2.845-1.937-5.79-2.84-8.7a200.41,200.41,0,0,1-8.632-43.484c-.474-6.014-.72-12.145-.959-18.073-.4-9.872-.809-20.079-2.284-29.947a538.638,538.638,0,0,0-12.174-58.455c-6.862-25.865-11.856-47.766-13.922-70.578-2.078-22.93-.066-41.316,6.339-57.86,7.937-20.486,18.182-37.3,31.317-51.416,14.281-15.284,29.782-28.454,43.062-39.32,12.571-10.286,25.572-20.922,39.117-30.428,19.723-13.865,43.228-21.363,71.858-22.919,21.179-1.127,42.338-1.386,62.2-1.553a193.46,193.46,0,0,0,76.683-16.274c13.435-5.938,26.921-12.374,39.965-18.6l4.464-2.13c10.615-5.017,22.088-6.43,32.013-7.361a56.082,56.082,0,0,1,21.112,2.005,102.493,102.493,0,0,1,44.58,28.12c17.416,18.726,20.387,41.6,7.947,61.178-7.6,11.927-15.76,24-24.256,35.889a97.248,97.248,0,0,0-15.079,32.271c-3.656,14.179-4.459,27.087-2.456,39.462a162.71,162.71,0,0,0,23.272,61.587c10.484,16.569,23.341,32.733,41.684,52.412q2.207,2.366,4.44,4.718c6.61,6.99,13.445,14.217,19.077,22.159,12,17.051,16.331,37.868,12.878,61.871-1.476,10.308-4.926,21.153-10.548,33.154-12.987,27.739-28.545,43.58-50.446,51.366-17.387,6.174-35.772,6.816-54.641,1.91-8.854-2.274-17.633-5.4-26.125-8.421-3.175-1.131-6.461-2.3-9.7-3.407-12.558-4.335-23.239-6.932-33.611-8.173-12.415-1.517-25.822-1.148-40.992,1.124-4.678.7-9.433,1.461-14.032,2.193-17.32,2.761-35.232,5.615-53.134,6.084-5,.124-10,.213-15.006.3-6.225.111-12.663.224-18.991.409l-2.221.063c-10.177.284-20.7.576-30.289,4.608a39.843,39.843,0,0,0-13.122,9.181c-6.22,6.534-7.808,15.233-4.995,27.376,2.5,10.842,8.356,20.3,14.647,29.844,7.152,10.908,14.58,21.194,22.853,32.551q3.805,5.235,7.994,10.229l-2.408-.112c-2.441-2.962-4.8-5.977-7.045-9.065-7.981-10.955-15.74-21.7-22.9-32.621-6.382-9.681-12.324-19.294-14.9-30.425-1.863-8.043-3.325-19.8,5.443-29.013a41.716,41.716,0,0,1,13.731-9.6c9.9-4.159,20.593-4.458,30.936-4.747l2.22-.063c6.34-.184,12.782-.3,19.011-.408,5-.088,10-.177,14.992-.3,17.783-.465,35.634-3.31,52.9-6.063,4.6-.734,9.361-1.493,14.048-2.194,15.334-2.3,28.9-2.668,41.478-1.133,10.5,1.255,21.3,3.881,33.982,8.259,3.246,1.11,6.537,2.28,9.719,3.414,8.452,3.007,17.192,6.119,25.97,8.374,18.513,4.813,36.543,4.186,53.583-1.863,21.408-7.613,36.65-23.168,49.418-50.435,5.547-11.839,8.947-22.52,10.4-32.649,3.385-23.537-.845-43.923-12.568-60.585-5.557-7.836-12.347-15.017-18.914-21.961q-2.232-2.361-4.45-4.728c-18.423-19.762-31.341-36.01-41.887-52.677a164.474,164.474,0,0,1-23.528-62.258c-2.042-12.623-1.229-25.77,2.49-40.192a99.032,99.032,0,0,1,15.355-32.866c8.479-11.863,16.621-23.91,24.2-35.809,11.976-18.851,9.08-40.907-7.744-59a100.734,100.734,0,0,0-43.8-27.628,54.234,54.234,0,0,0-20.4-1.927c-9.766.916-21.054,2.3-31.4,7.193l-4.462,2.129c-13.053,6.23-26.553,12.672-40.012,18.621a195.258,195.258,0,0,1-77.4,16.428c-19.836.168-40.974.424-62.115,1.551-28.28,1.536-51.477,8.927-70.916,22.592-13.491,9.469-26.465,20.084-39.013,30.349-13.233,10.829-28.677,23.949-42.884,39.154-12.977,13.942-23.1,30.571-30.958,50.841-6.3,16.277-8.277,34.407-6.223,57.052,2.054,22.689,7.029,44.505,13.869,70.283a540.671,540.671,0,0,1,12.214,58.65c1.49,9.961,1.9,20.218,2.3,30.137.238,5.911.483,12.025.956,18a198.636,198.636,0,0,0,8.556,43.1c.9,2.892,1.879,5.826,2.829,8.663,3.413,10.209,6.945,20.765,7.417,31.859.824,18.467-4.163,35.431-15.25,51.86q-7.759,11.511-17.115,22.924l-2.24-.1q9.82-11.9,17.858-23.824C1424.335,1627.426,1429.224,1610.817,1428.415,1592.745Z" fill="#f2f6f7"/>
                        </g>
                        <g id="Сгруппировать_62" data-name="Сгруппировать 62">
                            <path id="Контур_43" data-name="Контур 43" d="M1425.711,1658.094c7.5-7.786,14.975-15.867,22.2-23.68,6-6.483,12.2-13.187,18.382-19.689,9.63-10.155,20.5-11.911,32.312-5.228a146.781,146.781,0,0,1,33.037,25.93c13.939,14.242,26.5,27.414,38.216,40.059l-3.851-.18c-11.164-12.015-23.114-24.526-36.3-38a144.091,144.091,0,0,0-32.434-25.464c-10.74-6.077-20.228-4.528-29.011,4.735-6.173,6.49-12.368,13.188-18.36,19.664-7.238,7.824-14.721,15.913-22.24,23.719l-1.1,1.145q-3.531,3.669-7.092,7.358l-3.59-.168q4.384-4.537,8.728-9.054Z" fill="#f2f6f7"/>
                        </g>
                        <g id="Сгруппировать_63" data-name="Сгруппировать 63">
                            <path id="Контур_44" data-name="Контур 44" d="M1487.444,1644.095c.951-.054,1.92-.148,2.894-.242,3.1-.3,6.316-.608,9.3.281a95.581,95.581,0,0,1,33.4,17.2c5.222,4.251,10.365,8.678,15.426,13.154l-4.318-.2c-4.222-3.7-8.493-7.348-12.82-10.867a92.914,92.914,0,0,0-32.464-16.7c-2.48-.737-5.422-.453-8.267-.179-.986.095-2.006.193-3.008.249-12.734.661-23.681,6.631-31.8,11.758-5.31,3.35-10.422,7.03-15.392,10.9l-4.116-.192a200.5,200.5,0,0,1,18.058-12.982C1462.742,1650.963,1474.089,1644.787,1487.444,1644.095Z" fill="#f2f6f7"/>
                        </g>
                        <g id="Сгруппировать_64" data-name="Сгруппировать 64">
                            <path id="Контур_45" data-name="Контур 45" d="M1308.8,1653.644c.546-2.632-3.663-7.09-8.344-8.833-13.85-5.177-25.209-11.328-34.725-18.8-16.806-13.2-27.327-27.859-32.163-44.8-4.584-15.985-3.316-30.346,3.878-43.9,10.3-19.3,25.2-33.525,37.041-43.76,8.3-7.155,16.967-14.157,25.352-20.928,7.022-5.667,14.28-11.529,21.274-17.445,11.561-9.8,18.947-20.122,22.578-31.563,2.773-8.824,4.1-18.287,5.372-27.438q.268-1.914.54-3.82c1.831-12.958,1.721-26.233,1.614-39.071-.05-5.977-.1-12.157.043-18.236.417-17.756,2.048-31.21,5.288-43.626,3.926-14.926,10.373-29.851,20.287-46.969,16-27.661,39.124-49.56,61.728-69.106q2.494-2.148,4.986-4.306c12.927-11.177,26.293-22.734,40.406-32.683,17.475-12.294,37.683-20.355,60.067-23.96,19.418-3.118,39.258-4.044,58.445-4.939q6.588-.307,13.177-.64c24-1.272,44.8-5.767,63.565-13.739,8.74-3.735,16.888-8.935,23.013-13.05,3.323-2.214,6.624-4.457,9.924-6.7,11.726-7.966,23.851-16.2,36.718-22.912,13.524-7.028,28.087-10.679,44.521-11.164,10.727-.327,20.4,3.5,29.26,7.693,29.582,13.97,52.014,36.322,71.85,58.4a90.849,90.849,0,0,1,17.567,28.225c5.667,14.715,3.575,29.323-6.049,42.246-4.619,6.239-9.767,12.2-14.745,17.971-3.694,4.281-7.516,8.708-11.083,13.206l-2.325,2.923c-6.313,7.923-12.839,16.118-17.884,24.919-6.342,10.984-7.773,23.787-8.309,33.714-.993,17.719,3.759,34.829,15.4,55.476,9.435,16.716,19.826,29.988,31.768,40.574,6.746,5.992,14.114,11.523,21.239,16.872,5.2,3.9,10.577,7.937,15.688,12.134,2.079,1.7,4.04,3.3,5.9,4.817,5.489,4.466,10.23,8.322,14.646,12.25,5.934,5.261,12.4,16.179,12.674,16.64l.049.1c3.319,7.581,2.218,14.9,1.055,22.654-.149.99-.3,1.992-.442,3-1.25,9.228-4.874,17.731-8.378,25.957-.755,1.772-1.51,3.545-2.263,5.369l-10.619,22.344-.536.983c-5.657,10.371-11.5,21.095-17.626,31.448-9.773,16.578-21.61,30.061-35.186,40.074-22.714,16.681-49.864,22.941-83,19.125a96.47,96.47,0,0,1-13.292-2.933c-1.392-.379-2.784-.756-4.178-1.111-6.2-1.588-12.676-3.364-19.81-5.428-2.674-.768-5.372-1.633-7.979-2.471a135.648,135.648,0,0,0-15.973-4.415,189.915,189.915,0,0,0-31.184-3.811c-10.132-.253-20.425,1.042-29.159,2.341a292.021,292.021,0,0,0-32.273,6.482c-14.576,3.872-26.6,7.478-37.554,15.577-9.858,7.354-14.18,19.074-11.562,31.355,3.217,15.039,10.8,29.022,23.062,42.455l-2.514-.117c-11.78-13.271-19.132-27.1-22.311-41.966-2.769-12.982,1.808-25.38,12.247-33.166,12.108-8.951,26.555-12.789,38.166-15.872a293.322,293.322,0,0,1,32.473-6.523c8.808-1.312,19.2-2.618,29.471-2.361a192.4,192.4,0,0,1,31.477,3.842,137.124,137.124,0,0,1,16.186,4.471c2.595.831,5.277,1.694,7.927,2.455,7.118,2.058,13.58,3.828,19.757,5.412,1.4.358,2.8.738,4.2,1.117a94.856,94.856,0,0,0,13.033,2.883c32.655,3.757,59.387-2.387,81.715-18.786,13.378-9.866,25.054-23.17,34.7-39.54,6.1-10.327,11.946-21.038,17.595-31.4l.514-.94,10.577-22.255c.736-1.787,1.494-3.567,2.252-5.345,3.458-8.117,7.033-16.507,8.252-25.5.144-1.02.3-2.027.444-3.022,1.171-7.8,2.184-14.531-.9-21.621-.468-.785-6.757-11.257-12.291-16.162-4.388-3.9-9.115-7.748-14.586-12.2-1.867-1.521-3.831-3.117-5.911-4.822-5.082-4.173-10.441-8.2-15.625-12.087-7.155-5.37-14.555-10.924-21.356-16.965-12.092-10.721-22.6-24.144-32.14-41.034-11.824-20.965-16.645-38.377-15.633-56.456.547-10.125,2.015-23.2,8.546-34.508,5.111-8.917,11.681-17.165,18.035-25.142l2.322-2.92c3.591-4.527,7.424-8.967,11.131-13.262,4.957-5.743,10.081-11.682,14.663-17.87,9.24-12.405,11.251-26.422,5.818-40.533a89.1,89.1,0,0,0-17.23-27.673c-19.709-21.933-41.985-44.136-71.278-57.97-8.653-4.092-18.088-7.834-28.432-7.52-16.157.476-30.466,4.061-43.739,10.96-12.774,6.66-24.856,14.868-36.539,22.805-3.3,2.245-6.61,4.491-9.935,6.706-6.187,4.157-14.428,9.415-23.308,13.209-18.969,8.057-39.962,12.6-64.178,13.882-4.4.231-8.792.435-13.189.64-19.137.893-38.924,1.817-58.242,4.92-22.111,3.56-42.067,11.518-59.314,23.653-14.039,9.9-27.372,21.424-40.263,32.572q-2.5,2.157-4.989,4.307c-25.984,22.469-46.362,42.74-61.347,68.648-9.833,16.975-16.222,31.758-20.1,46.525-3.2,12.276-4.817,25.6-5.23,43.213-.145,6.053-.094,12.218-.043,18.179.108,12.905.218,26.248-1.634,39.339q-.27,1.905-.536,3.816c-1.288,9.224-2.621,18.761-5.438,27.728-3.739,11.774-11.305,22.371-23.129,32.394-7.012,5.929-14.278,11.8-21.307,17.47-8.374,6.763-17.035,13.755-25.306,20.891-11.72,10.131-26.474,24.205-36.629,43.243-6.967,13.128-8.19,27.054-3.737,42.572,4.727,16.57,15.045,30.924,31.544,43.884,9.367,7.36,20.567,13.421,34.241,18.531,5.142,1.916,10.288,6.977,9.478,10.879l-.163.8a66.829,66.829,0,0,1-2.108,8.468l-1.892-.089a60.693,60.693,0,0,0,2.233-8.736Z" fill="#f2f6f7"/>
                        </g>
                        <g id="Сгруппировать_65" data-name="Сгруппировать 65">
                            <path id="Контур_46" data-name="Контур 46" d="M1500.427,1666.094a69.767,69.767,0,0,1,20.607,7.111l-7.067-.33a63.25,63.25,0,0,0-13.989-4.124,57.7,57.7,0,0,0-27.324,2.2l-7.034-.329c1.093-.425,2.195-.845,3.321-1.258A61.236,61.236,0,0,1,1500.427,1666.094Z" fill="#f2f6f7"/>
                        </g>
                        <g id="Сгруппировать_67" data-name="Сгруппировать 67">
                            <g id="Сгруппировать_66" data-name="Сгруппировать 66">
                                <path id="Контур_47" data-name="Контур 47" d="M1220.229,1636.448c-1.54-4.451-3.171-8.9-4.748-13.21-3.261-8.905-6.634-18.115-9.239-27.375a114.526,114.526,0,0,1-4.183-37.746c.6-10.261,4.534-19.177,9.228-28.939,8.009-16.65,20.192-30.7,30.982-42.564q5.293-5.825,10.609-11.621c11.518-12.587,23.431-25.605,34.722-38.861,11.732-13.779,19.331-25.907,23.917-38.166a228.054,228.054,0,0,0,7.953-26.181c2.107-8.643,3.579-17.275,5.141-27.58.683-4.427,1.177-8.939,1.653-13.3.663-6.059,1.349-12.324,2.545-18.363,4.417-22.117,12.747-43.249,25.466-64.6a313.355,313.355,0,0,1,49.683-63.3c11.5-11.225,23.612-22.218,35.371-32.891,5.329-4.836,11.369-10.316,17.244-15.739,16.712-15.416,36.921-26.368,61.779-33.486,10.264-2.966,21.146-4.5,31.671-5.99l.283-.04q3.047-.432,6.084-.872c8.654-1.256,17.537-1.983,26.126-2.687,13.479-1.1,27.418-2.246,40.928-5.449,14.648-3.5,31.637-8.508,46.579-19.078a379.535,379.535,0,0,0,40.3-33.335c15.116-14.111,33.193-25.4,55.26-34.513a147,147,0,0,1,43.1-10.333c12.568-1.215,23.684,2.843,34.979,12.773,8.378,7.327,15.568,16.086,22.538,24.576,3.22,3.924,6.55,7.981,9.965,11.857,17.321,19.583,30.627,34.432,43.146,48.143,4.1,4.466,8.407,8.87,12.614,13.171,5.994,6.124,12.194,12.456,17.857,19.079,8.881,10.344,13.443,21.944,13.557,34.47.038,3.069-.086,6.566-1.3,9.216l-.525,1.164c-3.127,6.936-6.361,14.109-11.962,19.48q-8.439,8.129-16.93,16.216l-.332.319c-6.732,6.429-13.694,13.079-20.5,19.657-8,7.74-16.908,17.339-22.356,29.856-7.615,17.392-8.144,34.579-1.572,51.086,7.916,19.9,20.808,35.918,39.412,48.983,10.226,7.217,21.508,12.637,32.418,17.879,4.267,2.05,8.677,4.169,13.036,6.406l1.2.666c2.368,1.353,4.827,2.647,7.208,3.9,5.4,2.845,10.991,5.787,15.756,9.555,12.439,9.876,20.323,20.785,24.1,33.35,3.134,10.435,6.323,24.169,3.128,37.862a71.059,71.059,0,0,1-17.274,31.861c-21.385,23.322-38.9,43.269-54.881,64.8a166.883,166.883,0,0,1-13.879,16.471l-4.524,5.287c-10.955,11.2-22.281,22.79-36.82,30.542-18.263,9.715-37.088,15.422-55.951,16.963-14.455,1.224-27.125.854-38.732-1.135-4.8-.831-9.642-1.959-14.323-3.047-2.953-.689-6.006-1.4-9.063-2.037q-4.047-.858-8.1-1.73c-9.608-2.06-19.545-4.189-29.41-5.912a130.115,130.115,0,0,0-18.131-1.4l-2.126-.066c-10.984-.264-21.3,2.751-29.944,5.735a49,49,0,0,0-20.515,13.731c-8.033,9.021-8.467,21-1.219,33.738a95.528,95.528,0,0,0,12.47,17.024l-2.526-.118a96.248,96.248,0,0,1-11.513-16.022c-7.658-13.455-7.146-26.174,1.438-35.812a50.792,50.792,0,0,1,21.272-14.236c8.8-3.038,19.309-6.106,30.585-5.835l2.13.066a131.316,131.316,0,0,1,18.388,1.428c9.9,1.729,19.853,3.862,29.478,5.925q4.051.87,8.1,1.727c3.075.643,6.14,1.357,9.1,2.048,4.655,1.082,9.47,2.2,14.22,3.026,11.451,1.963,23.971,2.328,38.274,1.113,18.619-1.519,37.208-7.156,55.252-16.756,14.292-7.62,25.52-19.1,36.338-30.166l4.432-5.19.1-.114a165.412,165.412,0,0,0,13.747-16.312c16.025-21.6,33.578-41.583,55-64.948a69.3,69.3,0,0,0,16.849-31.061c3.1-13.277-.028-26.715-3.1-36.937-3.668-12.2-11.353-22.819-23.494-32.459-4.633-3.661-10.146-6.565-15.479-9.373-2.392-1.26-4.865-2.562-7.25-3.925l-1.164-.646c-4.313-2.212-8.712-4.325-12.968-6.37-10.977-5.274-22.329-10.728-32.677-18.032-18.9-13.271-32-29.557-40.048-49.789-6.754-16.966-6.218-34.618,1.6-52.462,5.572-12.8,14.627-22.565,22.751-30.428,6.813-6.582,13.776-13.232,20.543-19.7l.3-.287q8.473-8.1,16.926-16.212c5.351-5.133,8.512-12.144,11.569-18.926l.526-1.168c1.067-2.333,1.174-5.582,1.139-8.457-.111-12.1-4.527-23.305-13.125-33.323-5.626-6.577-11.8-12.888-17.817-19.032-4.178-4.269-8.5-8.684-12.616-13.173-12.525-13.72-25.838-28.575-43.166-48.167-3.437-3.9-6.778-7.971-10.023-11.925-6.908-8.415-14.051-17.116-22.319-24.346-10.894-9.578-21.577-13.5-33.613-12.332a145.222,145.222,0,0,0-42.584,10.2c-21.865,9.029-39.764,20.2-54.718,34.165a381.515,381.515,0,0,1-40.494,33.489c-15.192,10.747-32.386,15.817-47.2,19.36-13.644,3.236-27.653,4.383-41.2,5.493-8.562.7-17.415,1.427-26.013,2.674q-3.04.445-6.091.872l-.285.04c-10.461,1.478-21.279,3.006-31.423,5.939-24.584,7.037-44.556,17.858-61.056,33.078-5.881,5.427-11.921,10.91-17.3,15.79-11.7,10.621-23.8,21.6-35.277,32.8a311.417,311.417,0,0,0-49.4,62.936c-12.614,21.178-20.874,42.125-25.249,64.037-1.179,5.962-1.862,12.188-2.521,18.209-.479,4.384-.976,8.918-1.665,13.381-1.567,10.349-3.048,19.026-5.17,27.732a229.541,229.541,0,0,1-8.015,26.384c-4.66,12.461-12.36,24.759-24.232,38.7-11.312,13.28-23.233,26.31-34.764,38.91q-5.307,5.8-10.6,11.614c-10.705,11.772-22.789,25.7-30.694,42.137-4.611,9.587-8.473,18.332-9.053,28.268a112.77,112.77,0,0,0,4.117,37.157c2.588,9.193,5.948,18.371,9.2,27.244,1.581,4.315,3.214,8.775,4.76,13.241a180.7,180.7,0,0,1,6.769,23.687l-1.862-.086A180.68,180.68,0,0,0,1220.229,1636.448Z" fill="#f2f6f7"/>
                            </g>
                        </g>
                        <g id="Сгруппировать_68" data-name="Сгруппировать 68">
                            <path id="Контур_48" data-name="Контур 48" d="M1584.544,1439.171a87.109,87.109,0,0,0,17.67-.928c9.451-1.48,16.343-5.979,21.068-13.76a113.164,113.164,0,0,0,12.127-28.213c1.67-5.828,3.611-11.7,5.488-17.38q.915-2.769,1.823-5.54l2.153-6.646q2.568-7.909,5.11-15.851l.782-2.414c1.9-5.868,3.863-11.932,5.674-17.969,1.1-3.661,2.149-7.651,3.106-11.854.55-2.473,1.13-4.935,1.709-7.4,1.5-6.366,3.051-12.951,4.023-19.556,2.17-14.861,3.863-32.386-.023-49.7-1.869-8.417-5.241-15.077-10.311-20.357-12.137-12.714-27.467-19.045-40.864-23.562-16.036-5.346-33.075-5.161-52.088.567a103.965,103.965,0,0,0-35.525,19.157c-5.24,4.275-10.627,8.56-15.838,12.7-9.308,7.4-18.933,15.061-28.085,22.961a95.853,95.853,0,0,0-26.649,36.616c-4.491,11.047-4.381,22.205-3.927,31.8.992,20.2,7.965,40.393,21.317,61.741a102.12,102.12,0,0,0,43.229,38.6c8.865,4.211,20.713,9.341,33.777,11.674,4.028.71,8.076,1.742,11.989,2.738,1.618.413,3.234.824,4.854,1.215l.424-1.743c-1.612-.392-3.221-.8-4.832-1.211-3.945-1.005-8.026-2.044-12.12-2.766-12.85-2.3-24.554-7.366-33.315-11.527a100.337,100.337,0,0,1-42.476-37.928c-13.185-21.08-20.069-40.993-21.046-60.876-.446-9.4-.556-20.328,3.8-31.037a94.109,94.109,0,0,1,26.158-35.936c9.126-7.875,18.737-15.519,28.032-22.912,5.215-4.148,10.607-8.436,15.853-12.72a102.225,102.225,0,0,1,34.907-18.828c18.641-5.616,35.32-5.806,50.99-.583,13.185,4.445,28.265,10.667,40.132,23.1,4.9,5.108,8.035,11.307,9.857,19.51,3.821,17.027,2.144,34.349,0,49.047-.963,6.528-2.5,13.074-4,19.4-.58,2.467-1.161,4.937-1.714,7.413-.945,4.159-1.98,8.107-3.073,11.731-1.806,6.019-3.766,12.076-5.662,17.932l-.784,2.421q-2.528,7.942-5.108,15.844L1641,1372.8q-.9,2.767-1.821,5.534c-1.881,5.694-3.828,11.584-5.507,17.444a111.4,111.4,0,0,1-11.935,27.777c-4.436,7.3-10.914,11.528-19.809,12.919a90.641,90.641,0,0,1-28.6-.265,19.975,19.975,0,0,0-3.933-.125c-.539.02-1.075.038-1.6.038l0,1.794c.551,0,1.111-.018,1.671-.037a18.459,18.459,0,0,1,3.582.1A105.273,105.273,0,0,0,1584.544,1439.171Z" fill="#f2f6f7"/>
                        </g>
                        <g id="Сгруппировать_69" data-name="Сгруппировать 69">
                            <path id="Контур_49" data-name="Контур 49" d="M1816.772,1501.557l-.922,2.007c-.706-.322-1.413-.636-2.121-.948-1.514-.669-3.078-1.36-4.586-2.131-13.828-7.046-21.782-15.173-25.79-26.359-3.542-9.987-2.549-17.82,3.121-24.653,5.2-6.268,18.9-9.687,28.746-4.7,15.727,7.952,24.08,18.68,26.287,33.759a21.862,21.862,0,0,1-4.281,17.092,21.236,21.236,0,0,1-15.216,7.679c-1.067.075-2.143.18-3.213.283-.613.059-1.222.118-1.828.17Zm-28.213-50.366c-5.073,6.112-5.892,12.91-2.657,22.036,3.757,10.484,11.305,18.152,24.474,24.861,1.44.737,2.969,1.413,4.448,2.067q1.017.448,2.033.906c.557-.049,1.117-.1,1.678-.157,1.092-.105,2.192-.21,3.274-.288a18.555,18.555,0,0,0,13.306-6.679,19.2,19.2,0,0,0,3.714-15.022c-2.069-14.134-9.959-24.221-24.832-31.741a20.485,20.485,0,0,0-8.295-2.069C1798.785,1444.782,1791.715,1447.391,1788.559,1451.191Z" fill="#f2f6f7"/>
                        </g>
                        <g id="Сгруппировать_70" data-name="Сгруппировать 70">
                            <path id="Контур_50" data-name="Контур 50" d="M1619.67,1472.561l-.771,2.551c-2.305-.692-4.615-1.362-6.925-2.032-5.338-1.551-10.858-3.154-16.221-4.988-14.793-4.921-29.757-10.169-44.229-15.242l-.4-.139c-2.825-.992-5.664-1.959-8.505-2.927-7.568-2.577-15.394-5.243-22.906-8.378a115.468,115.468,0,0,1-48.22-37.962,169.861,169.861,0,0,1-30.565-69.167c-2.49-12.647-2.987-23.8-1.519-34.108,1.751-12.5,7.085-24.673,15.848-36.178,10.471-13.866,23.711-25.1,36.371-35.411q4.164-3.408,8.293-6.861c5.781-4.807,11.758-9.78,17.817-14.466,14.049-10.851,27.62-18.266,41.488-22.668,10.49-3.315,21.767-4.769,36.57-4.714a116.77,116.77,0,0,1,22.859,2.328c5.9,1.228,11.754,3,17.414,4.711,3.052.923,6.208,1.877,9.32,2.731a135.728,135.728,0,0,1,34.683,14.68c6.578,3.991,13.2,8.787,17.034,16.775,6.912,14.366,5.862,29.668,4.193,44.116a161.2,161.2,0,0,1-8.112,34.987c-1.934,5.422-3.827,10.945-5.658,16.288-1.6,4.682-3.261,9.522-4.94,14.271-1.663,4.7-3.444,9.439-5.167,14.022-3.7,9.846-7.527,20.025-10.34,30.272-3.291,12.019-4.767,24.624-6.107,37.557-.981,9.471-1.01,19.263-1.038,28.734l-.013,3.448c-.1,11.671-8.543,28.476-24.145,29.68-3.958.3-7.967.456-11.845.61q-2.071.082-4.147.17Zm-23.883-290c-14.506-.055-25.527,1.36-35.736,4.586-13.56,4.305-26.857,11.577-40.65,22.23-6.021,4.657-11.98,9.614-17.743,14.407q-4.146,3.447-8.311,6.875c-12.534,10.212-25.635,21.322-35.928,34.952-8.485,11.139-13.642,22.89-15.329,34.932-1.424,10-.935,20.868,1.495,33.213a167.187,167.187,0,0,0,30.082,68.079,112.784,112.784,0,0,0,47.1,37.085c7.424,3.1,15.206,5.749,22.732,8.312,2.849.97,5.7,1.94,8.527,2.934l.4.139c14.461,5.072,29.415,10.314,44.2,15.234,5.313,1.815,10.8,3.409,16.11,4.951,2.317.673,4.636,1.345,6.948,2.039l-.007.028q2.076-.093,4.158-.171c3.853-.154,7.838-.311,11.746-.6,13.985-1.078,21.558-16.384,21.649-27.014l.012-3.438c.029-9.536.058-19.4,1.052-29,1.353-13.049,2.843-25.774,6.188-37.991,2.846-10.366,6.7-20.6,10.416-30.505,1.718-4.572,3.5-9.3,5.149-13.973,1.675-4.736,3.33-9.571,4.933-14.247,1.833-5.35,3.728-10.883,5.668-16.321a158.463,158.463,0,0,0,7.976-34.4c1.622-14.053,2.654-28.918-3.948-42.639-3.534-7.353-9.779-11.861-16-15.637a132.993,132.993,0,0,0-33.993-14.382c-3.147-.863-6.32-1.824-9.388-2.751-5.6-1.7-11.4-3.448-17.181-4.652a110.535,110.535,0,0,0-17.325-2.136Q1598.31,1182.583,1595.787,1182.565Z" fill="#f2f6f7"/>
                        </g>
                        <g id="Сгруппировать_71" data-name="Сгруппировать 71">
                            <path id="Контур_51" data-name="Контур 51" d="M1631.31,1500.695c2.274-.2,4.594-.36,6.838-.517,5-.349,10.179-.708,15.223-1.509,20.4-3.238,34.666-14.572,42.411-33.689,2.583-6.376,1.691-13.335.9-19.474-.554-4.309-1.258-8.666-1.937-12.878-1.13-7.012-2.3-14.264-2.806-21.42-.627-9.2.619-19.058,3.926-31.014,3.263-11.839,8.888-22.766,14.325-33.333,1.55-3.012,3.153-6.126,4.679-9.217,7.358-14.945,12.7-27.812,14.859-42.029.481-3.21.991-6.418,1.5-9.625.981-6.191,2-12.593,2.791-18.919,1.413-11.567,2.622-21.992,3.131-32.454a165.682,165.682,0,0,0-.766-25.437c-1.005-8.888-6.523-15.641-15.959-19.531a84.386,84.386,0,0,0-15.049-5.01c-12.8-2.657-25.6-4.874-37.611-6.918q-4.294-.729-8.585-1.475c-11.268-1.948-22.919-3.963-34.452-5.345-16.244-1.982-35.467-3.584-54.853-.407-20.156,3.254-38.74,11.828-55.232,25.483-4.872,4.031-9.9,8.061-14.753,11.956-8.472,6.8-17.231,13.82-25.516,21.126-11.454,10.117-20.721,18.9-28.715,28.863a80.257,80.257,0,0,0-17.76,43.373c-.968,11.69.125,23.976,3.542,39.839,4.71,21.785,14.292,41.482,23.947,59.519a131.828,131.828,0,0,0,37.982,43.664c9.052,6.673,19.757,12.279,32.73,17.14l3.945,1.474c22.5,8.4,45.762,17.082,67.909,27.5,11.978,5.646,22.374,8.881,32.713,10.182l.224-1.783c-10.144-1.275-20.366-4.46-32.167-10.021-22.215-10.454-45.514-19.15-68.048-27.561l-3.945-1.474c-12.811-4.8-23.373-10.329-32.287-16.9a130.021,130.021,0,0,1-37.466-43.066c-9.592-17.923-19.111-37.483-23.773-59.052-3.379-15.682-4.463-27.8-3.509-39.312a78.489,78.489,0,0,1,17.372-42.4c7.914-9.866,17.118-18.585,28.5-28.64,8.252-7.277,16.994-14.289,25.45-21.07,4.863-3.9,9.891-7.933,14.774-11.974,16.242-13.446,34.535-21.888,54.37-25.092,19.166-3.141,38.229-1.551,54.347.419,11.487,1.374,23.115,3.386,34.36,5.33q4.293.744,8.591,1.477c11.994,2.04,24.775,4.253,37.547,6.906a82.909,82.909,0,0,1,14.723,4.908c8.919,3.678,13.918,9.758,14.857,18.069a163.924,163.924,0,0,1,.758,25.156c-.506,10.4-1.713,20.79-3.119,32.319-.791,6.294-1.8,12.682-2.784,18.858-.509,3.213-1.018,6.425-1.5,9.638-2.121,13.989-7.408,26.71-14.694,41.505-1.519,3.078-3.118,6.185-4.666,9.191-5.478,10.647-11.145,21.657-14.459,33.675-3.361,12.157-4.626,22.2-3.985,31.612.511,7.24,1.687,14.531,2.825,21.583.677,4.2,1.377,8.54,1.929,12.819.758,5.921,1.618,12.634-.789,18.575-7.491,18.494-21.294,29.457-41.024,32.588-4.964.789-10.1,1.147-15.064,1.493-2.251.157-4.581.32-6.871.519Z" fill="#f2f6f7"/>
                        </g>
                        <g id="Сгруппировать_72" data-name="Сгруппировать 72">
                            <path id="Контур_52" data-name="Контур 52" d="M1538.46,1359.022l-.818,2.439c-14.7-4.9-23.532-13.072-27.011-24.993-2.019-6.916-3.742-14.241-.776-21.09,7.929-18.305,21.251-27.955,39.594-28.682,7.559-.316,19.12,5.178,22.165,12.467,6.336,15.234,6.5,28.267.512,41.016-6.088,13.005-15.7,19.953-29.422,21.244-.917.072-1.857.093-2.765.114-.463.011-.924.023-1.38.039Zm11.1-69.635c-17.459.692-29.635,9.544-37.223,27.061-2.611,6.028-.992,12.825.891,19.272,3.254,11.148,11.269,18.513,25.227,23.172l0-.007c.469-.019.943-.03,1.42-.04.872-.02,1.774-.041,2.6-.1,12.657-1.192,21.556-7.636,27.2-19.7,5.643-12.017,5.466-24.361-.557-38.844-2.187-5.234-11.25-10.472-18.3-10.8C1550.389,1289.373,1549.969,1289.371,1549.561,1289.387Z" fill="#f2f6f7"/>
                        </g>
                        <g id="Сгруппировать_73" data-name="Сгруппировать 73">
                            <path id="Контур_53" data-name="Контур 53" d="M1540.806,1388.107l.555-.01c2.086-.035,4.179-.073,6.258-.134,21.183-.55,36.45-10.7,46.667-31.032a108.95,108.95,0,0,0,10.738-37.331,87.991,87.991,0,0,0-.275-18.062l-.084-.866c-1.013-10.426-2.062-21.207-7.174-31.044-6.161-11.955-14.83-18.458-25.764-19.33-8.191-.679-16.3,1.471-21.67,3.388-13.92,5.027-24.674,10.622-33.847,17.607-12.755,9.712-21.572,20.383-26.957,32.624a39.85,39.85,0,0,0-3.343,18.12c.732,14.922,4.413,27.053,11.255,37.085,4.511,6.584,10.933,11.88,17.144,17l.1.084c6.9,5.681,15.315,9.55,25.743,11.827l.384-1.752c-10.14-2.217-18.31-5.964-24.977-11.458l-.1-.084c-6.115-5.043-12.438-10.257-16.8-16.629-6.648-9.751-10.227-21.579-10.944-36.162a38.071,38.071,0,0,1,3.2-17.312c5.259-11.956,13.9-22.4,26.4-31.92,9.023-6.871,19.626-12.381,33.363-17.343,5.206-1.856,13.068-3.935,20.913-3.287,10.273.818,18.45,6.995,24.307,18.359,4.954,9.533,5.984,20.139,6.981,30.4l.084.866a86.408,86.408,0,0,1,.279,17.689,107.243,107.243,0,0,1-10.558,36.728c-9.892,19.683-24.647,29.51-45.106,30.041-2.075.061-4.162.1-6.239.134l-.556.01Z" fill="#f2f6f7"/>
                        </g>
                        <g id="Сгруппировать_74" data-name="Сгруппировать 74">
                            <path id="Контур_54" data-name="Контур 54" d="M1824.25,1535.353c20.029.935,36.206-9.21,44.712-28.76,8.888-20.483,3.089-39.564-2.956-53.9-6.88-16.315-19.436-28.259-31.581-39.808l-2.459-2.342c-3.886-3.7-7.923-7.37-11.826-10.922-7.376-6.707-15-13.645-21.879-21.014a94.233,94.233,0,0,1-22.108-39.587,260.611,260.611,0,0,1-9.143-63.837c-.308-15.2,1.736-31.058,6.252-48.47,2.311-8.9,5.481-17.756,8.545-26.319,1.364-3.81,2.774-7.749,4.092-11.645.2-.58.4-1.165.6-1.746,1.825-5.244,3.712-10.666,3.278-16.7a23.6,23.6,0,0,0-8.116-16.181,19.739,19.739,0,0,0-14.463-4.878,348.066,348.066,0,0,0-37.515,4.651c-15.685,2.887-34.27,5.765-53.2,5.222-8.586-.265-17.31-.715-25.748-1.151-5-.26-10.01-.519-15.019-.742-4.515-.2-9.119-.457-13.567-.705-10.691-.595-21.746-1.212-32.614-1.107-28.175.2-51.057,6.583-69.948,19.52-11.9,8.16-23.245,17.413-33.251,25.576-10.636,8.677-21.712,18.162-34.855,29.85-14.04,12.472-24.644,26.828-31.519,42.668a83.544,83.544,0,0,0-6.957,34.388,180.267,180.267,0,0,0,15.232,71.677c7.956,18.345,15.743,34.749,23.807,50.151a122.543,122.543,0,0,0,33.726,39.615c7.787,6.059,17.534,11.029,30.672,15.638,19.683,6.926,40.173,14.393,62.64,22.826,2.806,1.057,5.648,2.181,8.4,3.266,9.622,3.8,19.57,7.731,30.057,9.655a6.033,6.033,0,0,1,1.562.731c.358.207.731.421,1.126.6l.751-1.632a11.019,11.019,0,0,1-.973-.524,7.4,7.4,0,0,0-2.112-.938c-10.342-1.9-20.207-5.795-29.747-9.563-2.754-1.088-5.6-2.213-8.425-3.277-22.479-8.437-42.981-15.907-62.675-22.839-12.95-4.544-22.535-9.424-30.162-15.36a120.753,120.753,0,0,1-33.238-39.031c-8.041-15.361-15.811-31.727-23.751-50.031a178.5,178.5,0,0,1-15.082-70.971,81.808,81.808,0,0,1,6.807-33.668c6.771-15.6,17.224-29.745,31.065-42.044,13.126-11.67,24.182-21.139,34.8-29.8,9.979-8.142,21.29-17.369,33.131-25.487,18.586-12.726,41.136-19.008,68.941-19.2,10.812-.1,21.836.511,32.5,1.1,4.453.249,9.058.508,13.588.707,5.005.222,10.006.482,15.005.741,8.447.435,17.182.887,25.787,1.153,19.1.548,37.8-2.348,53.58-5.252a346.932,346.932,0,0,1,37.326-4.627,17.974,17.974,0,0,1,13.149,4.451,21.8,21.8,0,0,1,7.491,14.946c.408,5.667-1.338,10.679-3.184,15.984q-.308.878-.608,1.759c-1.315,3.884-2.722,7.816-4.083,11.618-3.079,8.6-6.262,17.493-8.594,26.473-4.556,17.571-6.619,33.585-6.308,48.956a262.49,262.49,0,0,0,9.208,64.277,96,96,0,0,0,22.525,40.332c6.928,7.424,14.582,14.387,21.984,21.118,3.9,3.544,7.926,7.21,11.794,10.893l2.462,2.344c12.011,11.422,24.43,23.234,31.163,39.2,5.907,14.008,11.58,32.632,2.964,52.493-10.124,23.268-31.579,32.688-57.385,25.2-11.319-3.317-22.228-9.4-31.853-14.776-10.711-5.92-25.109-12.943-41.531-14.722-.624-.065-1.25-.138-1.881-.21-3.51-.4-7.141-.82-10.5-.019a272.875,272.875,0,0,0-29.73,8.805c-26.214,9.762-48.326,12.808-69.595,9.593a9.62,9.62,0,0,0-2.731.081c-.371.047-.74.095-1.1.118l.122,1.792c.4-.028.8-.078,1.207-.128a8.292,8.292,0,0,1,2.231-.089c21.588,3.265,43.99.19,70.5-9.685a270.894,270.894,0,0,1,29.525-8.743c3.048-.726,6.515-.327,9.871.058.636.073,1.27.147,1.9.211,16.1,1.746,30.282,8.669,40.842,14.506,9.7,5.416,20.71,11.557,32.225,14.932A64.054,64.054,0,0,0,1824.25,1535.353Z" fill="#f2f6f7"/>
                        </g>
                        <g id="Сгруппировать_75" data-name="Сгруппировать 75">
                            <path id="Контур_55" data-name="Контур 55" d="M1824.276,1551.273a64.487,64.487,0,0,0,37.157-9.754c6.8-4.146,12.149-10.914,15.437-15.862,7.623-11.489,11.764-21.669,13.034-32.04a87.951,87.951,0,0,0-1.82-30.964c-3.7-15.882-11.578-30.614-23.419-43.785q-4.514-5-9.064-9.951c-9.472-10.358-19.268-21.07-28.229-32.138-17.678-21.92-29.155-44.456-35.086-68.9-4.432-18.243-6.034-32.418-5.2-45.956a138.735,138.735,0,0,1,6.539-34.172c4.555-14,11.717-27.053,18.643-39.673,1.753-3.2,3.567-6.5,5.315-9.776,6.633-12.333,7.9-23.223,3.975-34.267-3.456-9.751-11.389-14.365-19.218-18.256-6.7-3.3-14.328-4.407-24.022-3.47-15.526,1.454-30.409,6.305-44.8,11-4.361,1.422-8.87,2.892-13.317,4.24-19.566,5.9-34.931,8.8-49.817,9.414-7.565.318-15.306.138-22.793-.037-3.876-.089-7.885-.183-11.825-.206-5.672-.05-11.448-.157-17.034-.261-13.366-.248-27.185-.505-40.759-.009-25.3.932-47.642,8.065-66.409,21.2-10.557,7.374-20.517,15.276-32.225,24.872-12.619,10.326-23.953,19.706-34.855,29.951-11,10.337-22.218,21.914-29.788,36.5-7.571,14.627-11.68,27.3-12.933,39.87a120.911,120.911,0,0,0,.132,24.082,220.446,220.446,0,0,0,10.482,48.5c8.789,25.6,20.04,52.115,35.406,83.466,8.013,16.345,16.584,28.207,26.969,37.333,7.458,6.551,15.214,10.9,23.053,12.927,8.949,2.306,18.115,4.269,26.981,6.165,6.674,1.428,13.575,2.905,20.323,4.516,5.174,1.231,10.375,2.863,15.406,4.441,2.649.831,5.389,1.69,8.1,2.485,2.089.608,4.174,1.228,6.259,1.845,6.516,1.934,13.254,3.934,20,5.6,6.643,1.634,13.449,3.039,20.031,4.4,3.027.624,6.054,1.25,9.072,1.9l.569-2.633c-3.026-.649-6.06-1.276-9.094-1.9-6.558-1.354-13.338-2.754-19.929-4.375-6.68-1.652-13.388-3.642-19.874-5.567q-3.133-.929-6.271-1.848c-2.688-.789-5.416-1.643-8.053-2.47-5.075-1.592-10.324-3.238-15.589-4.492-6.777-1.618-13.694-3.1-20.385-4.529-8.838-1.891-17.977-3.847-26.871-6.139-7.422-1.92-14.8-6.071-21.94-12.34-10.109-8.882-18.475-20.477-26.326-36.494-15.316-31.247-26.527-57.668-35.279-83.153a217.745,217.745,0,0,1-10.351-47.91,118.207,118.207,0,0,1-.131-23.542c1.218-12.22,5.236-24.581,12.645-38.9,7.385-14.223,18.418-25.6,29.243-35.773s22.136-19.535,34.716-29.829c11.66-9.557,21.573-17.423,32.062-24.749,18.333-12.833,40.186-19.8,64.956-20.713,13.5-.495,27.278-.238,40.606.009,5.593.1,11.377.211,17.066.261,3.921.023,7.917.117,11.782.207,7.53.174,15.316.355,22.969.033,15.122-.62,30.694-3.558,50.49-9.527,4.474-1.357,9-2.831,13.372-4.256,14.253-4.647,28.991-9.45,44.221-10.876,9.171-.886,16.339.132,22.559,3.2,7.635,3.793,14.748,7.929,17.869,16.74,3.652,10.28,2.44,20.48-3.811,32.1-1.741,3.264-3.55,6.563-5.3,9.751-6.986,12.729-14.209,25.892-18.841,40.135a141.423,141.423,0,0,0-6.668,34.836c-.854,13.819.772,28.239,5.269,46.756,6.026,24.833,17.673,47.715,35.608,69.951,9.014,11.134,18.838,21.876,28.337,32.265q4.536,4.959,9.05,9.935c11.532,12.826,19.2,27.158,22.8,42.6a85.328,85.328,0,0,1,1.769,30.026c-1.217,9.942-5.223,19.755-12.606,30.883-3.136,4.719-8.214,11.162-14.6,15.051-17.336,10.613-36.191,12.353-56.045,5.162-7.827-2.839-15.666-6.108-23.246-9.271-7.8-3.251-15.857-6.613-23.935-9.521a92.523,92.523,0,0,0-24.265-4.873c-13.394-1.072-26.726,2.305-38.485,5.278a253.96,253.96,0,0,1-49.095,7.87c-4.614.246-9.349.176-13.927.109-2.094-.031-4.19-.061-6.286-.064v2.694c2.084,0,4.166.033,6.249.064,4.624.068,9.405.138,14.113-.113a256.7,256.7,0,0,0,49.616-7.95c11.553-2.922,24.646-6.227,37.611-5.2a89.858,89.858,0,0,1,23.555,4.722c8.012,2.884,16.041,6.234,23.806,9.473,7.61,3.173,15.479,6.456,23.367,9.318A72.213,72.213,0,0,0,1824.276,1551.273Z" fill="#f2f6f7"/>
                        </g>
                        <g id="Сгруппировать_76" data-name="Сгруппировать 76">
                            <path id="Контур_56" data-name="Контур 56" d="M1480.4,1554.785c7.2-.135,13.761-2.744,20.107-5.267,1.2-.476,2.393-.951,3.6-1.411,11.3-4.306,22.975-8.757,35.537-8.576a155.124,155.124,0,0,1,19.086,1.228c6.531.88,13.155,1.966,19.559,3.014,6.386,1.046,12.991,2.127,19.513,3.008,27.4,3.785,56.1,2.581,87.717-3.674l1.627-.324c12.172-2.422,24.759-4.928,37.452-4.549a114.674,114.674,0,0,1,34.325,5.856c7.758,2.688,15.612,5.52,23.2,8.256,6.009,2.165,12.221,4.4,18.347,6.558a80.722,80.722,0,0,0,49.348,1.875c11.7-3.2,20.8-8.291,27.837-15.558,9.784-10.122,17.052-22.183,22.875-37.954,6.284-16.879,6.711-34.951,1.3-55.242-3.488-12.977-10.493-25.134-22.044-38.261q-4.134-4.692-8.3-9.366c-8.282-9.314-16.845-18.945-24.825-28.771-20.983-25.851-34.247-52.1-40.55-80.238a117.461,117.461,0,0,1-2.619-33.6c1.418-21.6,8.527-41.575,21.734-61.053,6.089-9.012,13.861-21.078,19.966-34.51,4.912-10.795,2.4-21.226-.34-29.106-5.352-15.287-18.123-23.249-28.653-28.479a62.2,62.2,0,0,0-14.57-5.4c-11.078-2.287-23.019-1.409-36.519,2.686-12.285,3.733-24.409,8.686-36.134,13.475l-2.362.965c-26.386,10.788-48.967,16.2-71.064,17.044-10.184.379-20.56.271-30.595.165q-3.434-.036-6.864-.066l-1.864-.014c-22.941-.181-46.661-.369-69.7,4.953-13.839,3.189-26.437,9.572-36.936,15.393-10.363,5.814-19.44,13.587-28.22,21.1-2.324,1.991-4.731,4.052-7.122,6.043-10.672,8.913-23.954,20.005-36.4,30.948-17.458,15.411-30.532,33.335-38.859,53.276a105.636,105.636,0,0,0-7.742,33.692c-1.349,18.777.894,38.714,6.857,60.943,3.278,12.195,7.432,24.339,11.449,36.082,2.3,6.712,4.67,13.652,6.851,20.517,3.776,11.906,7.541,24.034,11.183,35.764,4.612,14.858,9.382,30.221,14.217,45.278,3.831,11.864,8.637,25.507,17.217,37.288a43.277,43.277,0,0,0,20.609,15.871l.608-1.69a40.953,40.953,0,0,1-19.755-15.233c-8.427-11.568-13.175-25.053-16.962-36.784-4.832-15.046-9.6-30.4-14.211-45.259-3.643-11.733-7.409-23.864-11.187-35.776-2.187-6.884-4.564-13.833-6.862-20.555-4.01-11.714-8.154-23.828-11.414-35.965-5.911-22.034-8.136-41.776-6.8-60.354a103.855,103.855,0,0,1,7.61-33.13c8.221-19.688,21.136-37.391,38.387-52.619,12.425-10.927,25.7-22.011,36.361-30.917,2.4-2,4.81-4.063,7.141-6.059,8.712-7.46,17.72-15.174,27.924-20.9,10.384-5.759,22.842-12.071,36.462-15.21,22.831-5.275,46.445-5.088,69.279-4.907l1.864.013q3.43.029,6.86.066c10.056.106,20.455.215,30.683-.165,22.316-.848,45.092-6.307,71.679-17.178l2.363-.965c11.686-4.773,23.77-9.711,35.975-13.418,13.2-4.006,24.856-4.872,35.619-2.647a60.411,60.411,0,0,1,14.138,5.249c10.225,5.078,22.618,12.787,27.754,27.46,2.629,7.563,5.05,17.558.4,27.778-6.049,13.31-13.769,25.294-19.819,34.248-13.39,19.747-20.6,40.006-22.038,61.938a119.226,119.226,0,0,0,2.66,34.108c6.363,28.417,19.744,54.906,40.906,80.978,8.007,9.857,16.583,19.5,24.878,28.833q4.157,4.674,8.294,9.357c11.362,12.912,18.244,24.841,21.657,37.54,5.309,19.92,4.9,37.635-1.254,54.158-5.733,15.532-12.877,27.394-22.481,37.332-6.8,7.029-15.641,11.958-27.018,15.072a78.971,78.971,0,0,1-48.267-1.836c-6.121-2.152-12.33-4.391-18.334-6.555-7.6-2.738-15.46-5.569-23.231-8.263a116.5,116.5,0,0,0-34.86-5.955c-12.9-.384-25.588,2.141-37.86,4.583l-1.625.323c-31.418,6.217-59.919,7.417-87.122,3.657-6.5-.877-13.09-1.957-19.464-3-6.417-1.051-13.051-2.137-19.6-3.023a156.706,156.706,0,0,0-19.309-1.241c-12.906-.188-24.751,4.326-36.206,8.693-1.212.464-2.415.941-3.619,1.422-6.481,2.576-12.6,5.009-19.471,5.137Z" fill="#f2f6f7"/>
                        </g>
                        <g id="Сгруппировать_77" data-name="Сгруппировать 77">
                            <path id="Контур_57" data-name="Контур 57" d="M1544.191,1409.342c1.6.011,3.232.064,4.814.115a87.106,87.106,0,0,0,11.115-.115c7.066-.734,13.394-1.5,19.386-3.5,17.259-5.756,26.142-20.047,32.556-33.269a195.788,195.788,0,0,0,13.582-38.075c6.09-24.126,6.765-48.583,2.063-74.77-3.2-17.909-13.8-30.573-31.524-37.641a36.336,36.336,0,0,0-14.093-2.128c-13.716.244-27.189,4.564-42.4,13.6a277.548,277.548,0,0,0-40.352,28.94c-15.29,13.291-24.794,27.244-29.056,42.654-1.653,5.937-1.227,12.454-.816,18.758l.108,1.675c.935,15.075,6.213,30.195,15.691,44.937a78.5,78.5,0,0,0,26.7,25.685c11.517,6.664,21.532,10.794,31.517,13l.584-2.629c-9.7-2.146-19.474-6.181-30.741-12.7a75.863,75.863,0,0,1-25.779-24.81c-9.226-14.351-14.363-29.037-15.269-43.651l-.108-1.683c-.4-6.079-.806-12.365.725-17.865,4.174-15.095,13.143-28.232,28.228-41.344a275.035,275.035,0,0,1,39.961-28.658c14.787-8.781,27.836-12.982,41.065-13.215a33.632,33.632,0,0,1,13.037,1.936c16.793,6.7,26.841,18.678,29.862,35.607,4.633,25.806,3.972,49.894-2.023,73.643a193.17,193.17,0,0,1-13.394,37.558c-6.17,12.718-14.675,26.451-30.981,31.89-5.732,1.907-11.9,2.655-18.8,3.37a85.2,85.2,0,0,1-10.758.1c-1.6-.052-3.252-.106-4.881-.117Z" fill="#f2f6f7"/>
                        </g>
                        <g id="Сгруппировать_78" data-name="Сгруппировать 78">
                            <path id="Контур_58" data-name="Контур 58" d="M1698.009,1648.426c2.115-5.894,7.427-10.686,15.792-14.243,9.68-4.11,20.68-4.975,34.621-2.724,4.472.724,9.007,1.5,13.392,2.255,9.955,1.707,20.249,3.473,30.435,4.713,29.739,3.6,55.9,1.669,79.975-5.908,14.044-4.418,25.881-9.975,36.188-16.993,5.533-3.763,10.859-8.086,16.011-12.266q1.956-1.588,3.919-3.169l3.823-3.695q6.885-7.475,13.722-14.982c12.4-13.573,25.218-27.611,38.27-41.007,9.118-9.371,19.085-18.184,28.723-26.7q3.564-3.153,7.114-6.31a85.558,85.558,0,0,0,22.244-32.077c4.03-9.932,3.2-20.859,2.477-30.5a105.936,105.936,0,0,0-14.087-45.41c-5.768-10-13.738-17.892-26.649-26.388-11.252-7.4-57.246-28.344-57.709-28.553l-.094-.048c-19.275-10.647-32.644-24.307-40.873-41.76a54.393,54.393,0,0,1-4.831-30.375c2.545-21.343,15.666-35.992,28.163-47.507,5.556-5.129,11.284-10.25,16.824-15.2,6.563-5.868,13.348-11.936,19.885-18.046,8.021-7.5,14.091-16.976,18.561-28.984a21.9,21.9,0,0,0,.874-9.288c-1.157-14.456-6.069-26.481-14.6-35.742-10.142-11-20.8-21.545-31.117-31.744a301.236,301.236,0,0,1-44.979-56.115c-7.13-11.592-14.443-25.619-14.625-41.758a45.575,45.575,0,0,1,2.575-16.832l2.893.135a41.787,41.787,0,0,0-2.765,16.666c.177,15.487,7.292,29.1,14.229,40.383a298.464,298.464,0,0,0,44.58,55.613c10.332,10.218,21.016,20.785,31.2,31.832,8.949,9.716,14.1,22.281,15.3,37.353a24.45,24.45,0,0,1-1.035,10.436c-4.553,12.235-11.028,22.331-19.246,30.01-6.556,6.13-13.354,12.207-19.928,18.085-5.533,4.946-11.252,10.06-16.794,15.174-12.137,11.184-24.873,25.376-27.315,45.848a51.777,51.777,0,0,0,4.594,28.916c7.972,16.909,20.953,30.164,39.688,40.522,2.5,1.136,46.685,21.27,58.029,28.734,13.109,8.626,21.592,17.045,27.5,27.293a108.627,108.627,0,0,1,14.441,46.551c.749,9.934,1.6,21.193-2.668,31.71A88.235,88.235,0,0,1,2021.8,1509.4q-3.551,3.165-7.124,6.317c-9.6,8.489-19.529,17.267-28.576,26.565-13.024,13.368-25.829,27.387-38.212,40.946-4.569,5-9.138,10-13.785,15.046l-3.922,3.794-.094.082q-1.983,1.59-3.955,3.2c-5.2,4.215-10.568,8.574-16.194,12.4-10.528,7.169-22.6,12.839-36.9,17.336-24.451,7.695-50.983,9.661-81.116,6.015-10.254-1.249-20.58-3.021-30.566-4.732-4.38-.753-8.909-1.53-13.369-2.251-13.411-2.167-23.938-1.358-33.124,2.544-7.643,3.249-12.458,7.513-14.308,12.671-1.695,4.72-.886,10.3,2.4,16.581a78.963,78.963,0,0,0,11.4,16.32l-3.715-.173a81.169,81.169,0,0,1-10.088-14.9C1696.91,1660.184,1696.051,1653.882,1698.009,1648.426Z" fill="#f2f6f7"/>
                        </g>
                        <g id="Сгруппировать_79" data-name="Сгруппировать 79">
                            <path id="Контур_59" data-name="Контур 59" d="M1193.432,1635.444q-1.1-3.955-2.227-7.913c-4.428-15.615-9.005-31.76-10.519-48.5-1.173-13.285-1.314-24.4,1.807-35.427,1.993-7.069,5.14-13.885,8.193-20.261,8.4-17.561,20.451-32.485,33.1-47.493,14.567-17.257,30.138-35.912,45.318-55.4a147.888,147.888,0,0,0,23.8-45.46c5-15.439,7.735-31.612,10.377-47.254.771-4.569,1.57-9.293,2.414-13.933,4.522-24.916,13.874-48.1,28.586-70.855,13.614-21.1,30.481-42.643,51.565-65.876a773.177,773.177,0,0,1,57.256-56.219,164.744,164.744,0,0,1,75.111-38.738c14.6-3.212,29.634-5.494,44.169-7.7,5.018-.762,10.034-1.524,15.039-2.323a239.4,239.4,0,0,0,47.57-12.387,71.676,71.676,0,0,0,11.6-6.246l.757-.47c15.8-9.888,29.573-22.931,42.9-35.544l.247-.232a345.618,345.618,0,0,1,35.431-29.794c7.478-5.425,15.5-10.3,23.256-15.009,3.976-2.416,8.038-4.894,12.047-7.449l4.629.217c-5.045,3.306-10.223,6.468-15.266,9.531-7.711,4.684-15.683,9.528-23.075,14.889a343.168,343.168,0,0,0-35.157,29.567l-.247.233c-13.418,12.7-27.293,25.841-43.325,35.876l-.761.471a73.554,73.554,0,0,1-12.054,6.474,242.1,242.1,0,0,1-48.11,12.532c-5.014.8-10.037,1.563-15.062,2.326-14.492,2.2-29.478,4.476-43.994,7.669a162.083,162.083,0,0,0-73.89,38.114,770.689,770.689,0,0,0-57.055,56.021c-20.983,23.121-37.762,44.555-51.3,65.526-14.516,22.459-23.742,45.316-28.2,69.878-.841,4.622-1.637,9.339-2.407,13.9-2.659,15.736-5.407,32.009-10.471,47.635a150.581,150.581,0,0,1-24.238,46.281c-15.209,19.525-30.8,38.206-45.385,55.482-12.528,14.869-24.458,29.646-32.726,46.921-3,6.27-6.1,12.966-8.03,19.83-3.01,10.639-2.864,21.472-1.718,34.461,1.492,16.49,6.034,32.513,10.428,48.01q1.124,3.963,2.232,7.928a178.82,178.82,0,0,1,4.951,23.528l-2.746-.128A176.571,176.571,0,0,0,1193.432,1635.444Z" fill="#f2f6f7"/>
                        </g>
                    </g>
                </g>
            </g>
        </g>
    </g>
</svg>
