<svg width="790" height="1267" viewBox="0 0 790 1267" fill="none" xmlns="http://www.w3.org/2000/svg">
    <g clip-path="url(#clip0)">
        <path d="M703.648 313.92C692.847 320.525 680.547 321.829 670.931 322.137C656.153 322.671 644.468 315.559 638.139 301.928C635.295 295.996 633.722 289.353 632.15 282.852C631.435 279.884 630.649 276.704 629.722 273.666C627.225 265.258 623.805 255.509 617.136 246.899C611.886 240.125 604.239 236.326 595.683 236.136C586.207 236.019 577.026 240.427 570.541 248.222C564.69 255.238 562.45 263.871 561.265 270.591C557.568 290.046 560.025 310.122 569.132 331.877C575.038 345.933 578.396 359.148 579.561 372.297C580.29 380.497 579.25 388.773 576.441 396.134C571.104 410.29 561.734 423.538 546.851 437.931C534.578 449.842 520.534 460.132 506.983 470.066C501.337 474.182 495.55 478.44 489.975 482.768C477.202 492.63 462.384 504.689 449.482 519.36C441.022 528.999 433.697 540.473 427.087 554.349C414.358 581.182 408.07 610.473 407.874 643.99C407.717 665.275 408.481 686.91 409.242 707.839L409.319 710.313C409.927 726.292 411.374 739.158 413.95 750.889C419.532 776.189 431.614 799.775 451.832 825.108C459.565 834.775 467.651 844.371 475.524 853.614C482.688 862.01 490.064 870.759 497.087 879.438C511.771 897.572 522.432 918.334 528.855 941.086C531.425 950.271 533.43 959.883 535.292 969.071C536.438 974.724 537.655 980.59 539.014 986.314C542.518 1001.37 546.088 1014.79 553.12 1027.01C563.42 1045.01 576.533 1057.07 593.239 1064.1C614.9 1073.23 637.964 1077.84 663.703 1077.91C677.421 1078.02 688.659 1076.08 699.185 1072.02C710.204 1067.75 717.827 1062.36 722.264 1055.63C728.322 1046.56 732.253 1035.52 734.97 1019.89C736.364 1012.11 737.616 1004.18 738.798 996.472C739.773 990.389 740.817 984.093 741.791 977.868C745.065 958.838 754.919 941.559 771.918 925.039C782.921 914.404 797.325 906.447 817.179 900.102C841.977 892.188 869.405 888.864 898.754 890.414C907.24 890.817 915.939 891.43 924.285 892.116C934.681 892.867 945.502 893.758 956.181 894.083C976.476 894.809 994.203 886.348 1008.94 868.844C1021.77 853.678 1029.99 836.191 1037.02 819.485C1043.14 804.832 1049.81 787.208 1052.09 767.615C1054.79 744.344 1050.49 723.001 1039.34 704.15C1028.54 685.652 1016.77 673.096 1002.25 664.436C999.42 662.746 996.657 660.844 993.965 659.013C989.928 656.266 985.678 653.448 981.217 651.126C967.905 644.231 954.732 635.922 941.128 625.633C928.163 615.838 916.747 603.635 907.234 589.235C895.662 571.658 883.948 553.515 871.451 533.607C864.421 522.383 857.887 511.227 854.531 498.72C850.176 482.68 854.319 471.568 868.223 461.703C874.223 457.515 881.497 454.031 889.411 451.748C897.113 449.536 905.241 448.171 913.157 446.878C915.843 446.447 918.599 445.945 921.285 445.513C925.455 444.725 929.767 444.219 934.221 443.995L931.457 441.244C927.78 441.537 924.246 441.97 920.783 442.616C918.097 443.047 915.411 443.619 912.725 444.051C904.739 445.415 896.54 446.709 888.697 449.063C880.571 451.418 872.873 455.044 866.662 459.444C851.699 469.948 847.064 482.405 851.776 499.647C855.274 512.578 861.95 523.874 869.051 535.311C881.548 555.219 893.192 573.432 904.834 591.079C914.489 605.762 926.118 618.177 939.438 628.183C953.253 638.542 966.498 646.922 979.952 653.958C984.2 656.21 988.45 659.027 992.417 661.704C995.109 663.535 998.013 665.437 1000.85 667.127C1014.94 675.505 1026.43 687.779 1037.01 705.782C1047.73 724.069 1051.96 744.776 1049.33 767.41C1047.12 786.649 1040.59 803.99 1034.47 818.502C1027.59 834.925 1019.43 852.2 1006.88 867.081C992.782 883.806 975.833 891.911 956.456 891.254C945.848 890.858 935.098 890.037 924.702 889.286C916.285 888.672 907.657 887.987 899.029 887.585C869.327 886.107 841.546 889.361 816.464 897.417C796.046 903.904 781.288 912.074 770.003 922.993C752.582 939.938 742.446 957.784 739.032 977.521C737.987 983.676 737.014 990.042 736.04 996.126C734.787 1003.77 733.535 1011.69 732.141 1019.47C729.564 1034.68 725.703 1045.37 719.856 1054.08C715.63 1060.31 708.572 1065.28 698.117 1069.41C688.016 1073.33 677.06 1075.12 663.767 1075.16C638.381 1075.01 615.671 1070.61 594.364 1061.55C578.082 1054.66 565.82 1043.31 555.663 1025.73C548.843 1013.87 545.344 1000.65 541.912 985.812C540.553 980.088 539.336 974.222 538.19 968.568C536.257 959.31 534.252 949.698 531.682 940.371C525.187 917.266 514.384 896.081 499.416 877.664C492.322 868.914 485.016 860.236 477.782 851.769C469.909 842.527 461.823 832.931 454.161 823.334C434.227 798.425 422.358 775.192 416.848 750.387C414.343 738.867 412.826 726.214 412.219 710.376L412.142 707.902C411.38 686.973 410.617 665.338 410.774 644.195C411.042 611.172 417.26 582.235 429.707 555.828C436.247 542.163 443.36 530.902 451.609 521.476C464.37 506.947 479.046 495.029 491.749 485.238C497.324 480.91 503.111 476.653 508.687 472.608C522.308 462.602 536.353 452.312 548.837 440.188C564.002 425.512 573.583 411.91 579.131 397.4C582.081 389.614 583.19 380.985 582.46 372.218C581.294 358.786 577.794 345.29 571.746 330.951C562.923 309.761 560.468 290.251 564.025 271.362C565.211 265.066 567.311 256.858 572.668 250.338C578.589 243.252 586.852 239.2 595.479 239.319C603.116 239.44 609.913 242.817 614.596 248.886C620.981 257.072 624.258 266.538 626.684 274.735C627.54 277.702 628.255 280.812 628.97 283.78C630.614 290.351 632.258 297.206 635.173 303.35C642.07 318.111 654.747 325.786 670.797 325.249C680.767 324.869 693.633 323.563 704.928 316.604C714.106 310.923 721.37 303.621 727.144 294.131C735.171 280.958 739.66 267.228 742.17 253.504L739.618 250.965C737.321 265.042 732.833 279.196 724.665 292.511C719.385 301.505 712.403 308.524 703.648 313.92Z" fill="#F2F6F7"/>
        <path d="M729.219 357.836C720.046 365.497 709.099 370.404 698.434 375.17C695.397 376.521 692.36 377.872 689.323 379.365C673.574 386.831 659.948 395.14 647.811 404.646C642.589 408.761 637.438 413.088 632.429 417.273C624.174 424.295 615.566 431.53 606.531 437.634C589.237 449.347 570.315 460.568 550.332 471.156C524.346 484.8 502.952 496.947 482.98 512.202C462.938 527.528 449.472 542.765 440.891 560.183C430.128 581.777 424.171 602.511 422.388 623.588C420.538 646.432 421.374 668.704 422.342 687.44C423.307 705.186 424.274 723.497 426.583 741.452C429.904 767.606 441.211 792.114 461.073 816.387C475.827 834.309 491.146 851.522 505.683 867.677C525.327 889.476 539.887 914.399 549.08 941.599C554.211 956.859 558.989 972.474 563.554 987.594L565.123 992.823C568.902 1005.05 576.213 1015.42 582.811 1024.1C587.778 1030.59 593.873 1036.09 599.964 1039.61C617.172 1049.54 635.853 1054.58 655.582 1054.74C683.584 1054.95 704.264 1040.4 710.918 1015.85C714.98 1000.85 718.688 985.352 722.041 969.646C724.836 956.628 729.895 944.452 737.009 933.615C745.742 920.157 755.615 909.949 767.121 902.353C787.663 888.794 810.196 879.755 834.085 875.45C855.218 871.648 877.77 869.963 907.186 870.169C909.591 870.163 911.924 870.228 914.258 870.292C924.794 870.477 935.684 870.59 946.216 869.219C968.907 866.261 988.887 854.259 1005.73 833.78C1012.99 824.922 1019.19 814.158 1024.81 800.708C1037.67 769.633 1039.02 745.446 1029.13 721.925C1021.3 703.278 1008.25 688.038 990.405 676.488C982.046 670.994 973.054 666.28 964.345 661.706C961.088 660.018 957.689 658.188 954.431 656.358C941.685 649.461 931.698 642.77 923.051 635.297C912.705 626.414 903.13 615.337 893.689 601.432C890.779 597.126 887.939 592.749 885.099 588.514C874.522 572.49 863.66 555.902 850.823 541.156C847.277 537.064 843.589 532.973 839.972 528.81C835.433 523.731 830.823 518.439 826.284 513.219L824.724 511.384C817.419 502.989 809.901 494.24 806.125 483.572C804.273 478.345 803.48 472.195 803.818 466.184C804.499 456.282 810.348 448.559 822.28 441.811C832.942 435.773 844.815 433.479 857.255 431.467C871.392 429.167 885.176 427.505 900.445 425.768C905.11 425.191 909.847 424.825 914.584 424.6L912.741 422.767C908.57 422.99 904.398 423.354 900.228 423.86C885.454 425.525 871.033 427.259 856.968 429.629C844.386 431.642 832.301 434.007 821.357 440.187C813.52 444.662 802.933 452.185 801.908 466.118C801.5 472.341 802.295 478.774 804.289 484.284C808.207 495.376 815.866 504.124 823.243 512.732L824.803 514.566C829.342 519.787 833.952 525.078 838.491 530.157C842.108 534.32 845.725 538.341 849.271 542.433C862.037 557.108 872.828 573.626 883.334 589.579C886.174 593.815 889.014 598.191 891.924 602.497C901.365 616.544 911.082 627.762 921.57 636.786C930.287 644.329 940.417 651.02 953.304 658.058C956.562 659.888 959.96 661.576 963.218 663.406C971.927 667.98 980.849 672.765 989.136 678.188C1006.63 689.527 1019.47 704.555 1027.15 722.779C1036.83 745.664 1035.41 769.497 1022.83 800.006C1017.35 813.314 1011.22 823.866 1004.1 832.582C987.54 852.777 967.983 864.496 945.787 867.382C935.325 868.682 924.577 868.568 914.041 868.384C911.707 868.319 909.303 868.325 906.899 868.331C877.341 868.125 854.647 869.811 833.373 873.614C809.272 877.99 786.456 887.171 765.703 900.801C753.985 908.468 743.971 918.96 735.026 932.63C727.772 943.751 722.642 956.138 719.777 969.369C716.495 985.004 712.646 1000.5 708.654 1015.43C702.21 1039.06 682.235 1053.05 655.224 1052.98C635.849 1052.88 617.451 1047.84 600.596 1038.13C594.718 1034.68 588.835 1029.39 583.94 1023.11C577.483 1014.57 570.244 1004.41 566.607 992.465L565.038 987.237C560.473 972.116 555.695 956.502 550.634 941.171C541.371 913.759 526.668 888.695 506.883 866.614C492.416 850.529 477.027 833.245 462.343 815.393C442.694 791.473 431.6 767.319 428.351 741.518C426.113 723.634 425.075 705.252 424.18 687.576C423.142 668.911 422.377 646.71 424.227 624.007C425.87 603.214 431.898 582.692 442.52 561.38C451.031 544.176 464.215 529.221 484.046 514.108C503.947 498.924 525.199 486.778 551.115 473.204C571.24 462.616 590.232 451.324 607.596 439.541C616.702 433.365 625.38 426.059 633.635 419.038C638.645 414.853 643.724 410.455 648.947 406.482C661.014 397.046 674.498 388.879 690.106 381.414C693.072 379.992 696.18 378.57 699.217 377.218C709.952 372.382 721.112 367.403 730.425 359.601C745.948 346.55 755.946 329.977 761.123 308.892C763.502 298.986 765.455 288.799 767.054 278.117L765.352 276.425C763.755 287.53 761.732 298.213 759.284 308.473C754.246 328.85 744.388 345.139 729.219 357.836Z" fill="#F2F6F7"/>
        <path d="M780.07 307.287C779.323 319.098 778.223 331.122 777.263 342.721C776.439 352.339 775.546 362.312 774.935 372.142C773.843 387.419 780.446 397.513 794.529 402.073C808.259 406.563 823.114 408.928 839.874 409.521C861.655 410.172 881.596 410.544 900.406 410.637L897.428 407.674C879.467 407.58 860.516 407.205 839.937 406.622C823.46 406.17 808.958 403.732 795.441 399.313C782.632 395.174 776.881 386.35 777.906 372.418C778.587 362.658 779.481 352.685 780.304 343.066C781.264 331.467 782.293 319.373 783.04 307.562L783.177 305.865C783.451 302.187 783.653 298.439 783.855 294.691L781.091 291.94C780.749 296.537 780.549 301.134 780.207 305.731L780.07 307.287Z" fill="#F2F6F7"/>
        <path d="M814.238 367.373C814.876 368.149 815.515 369.067 816.154 369.843C818.211 372.596 820.34 375.418 823.244 377.179C835.779 384.712 848.802 389.487 861.747 391.362C869.033 392.404 876.389 393.233 883.745 394.063L880.413 390.748C874.331 390.057 868.248 389.365 862.164 388.533C849.573 386.727 836.974 382.093 824.722 374.7C822.314 373.292 820.398 370.681 818.483 368.211C817.844 367.293 817.135 366.447 816.425 365.6C807.558 354.804 804.342 341.59 802.477 331.271C801.257 324.556 800.462 317.699 799.949 310.842L796.759 307.668C797.275 315.798 798.144 323.857 799.508 331.844C801.586 342.375 805.016 356.084 814.238 367.373Z" fill="#F2F6F7"/>
        <path d="M690.243 216.374C688.552 218.783 681.763 218.659 676.878 216.197C662.434 208.881 649.128 204.248 636.112 202.161C613.05 198.402 593.47 200.787 576.097 209.459C559.784 217.633 549.066 229.257 543.451 245.111C535.449 267.759 534.941 290.247 535.34 307.428C535.654 319.448 536.392 331.609 537.13 343.345C537.721 353.243 538.314 363.424 538.693 373.393C539.302 389.938 536.438 403.592 529.821 414.923C524.752 423.705 517.985 431.783 511.641 439.578C510.725 440.641 509.879 441.775 508.963 442.838C499.799 453.892 489.077 463.678 478.565 473.11C473.697 477.436 468.689 482.045 463.822 486.654C449.786 500.197 440.127 511.465 432.451 523.293C423.225 537.53 415.984 553.742 409.461 574.477C398.941 607.88 398.254 642.742 399.117 675.479C399.123 677.883 399.271 680.287 399.277 682.691C399.75 701.358 400.225 720.731 402.607 739.464C405.496 762.649 413.968 784.901 427.528 805.584C439.312 823.514 453.215 840.166 466.621 856.324C469.742 859.993 472.792 863.732 475.772 867.402C492.442 887.652 504.161 907.774 511.57 928.827C514.989 938.576 516.784 949.108 518.007 957.095C518.655 961.406 519.302 965.718 519.95 970.03C522.182 985.368 524.415 1001.27 528.486 1016.61C532.77 1032.72 540.586 1047.12 552.289 1060.74C559.949 1069.63 570.144 1074.55 580.054 1078.63C613.182 1092.12 647.763 1093.65 680.289 1093.29C693.158 1093.11 704.82 1090.89 716.052 1086.55C732.086 1080.21 742.448 1067.67 745.727 1050.34C747.402 1041.99 748.44 1033.43 749.409 1025.08C750.171 1018.93 750.861 1012.56 751.906 1006.41L752.532 1002.38C754.271 991.412 756.08 980.093 759.447 969.478C763.655 956.173 772.961 945.542 780.577 937.744C794.188 923.779 811.56 914.966 836.789 909.031C857.212 904.24 875.734 902.778 892.992 904.572C902.824 905.607 912.728 907.419 922.278 909.162C929.282 910.488 936.498 911.742 943.643 912.784C946.613 913.2 949.302 913.618 951.919 913.964C959.558 915.076 966.208 916.049 972.644 916.668C981.273 917.494 994.913 914.701 995.478 914.558L995.62 914.558C1004.17 911.636 1009.31 905.33 1014.74 898.598C1015.45 897.748 1016.15 896.897 1016.86 896.047C1023.41 888.181 1027.63 878.978 1031.71 870.058C1032.62 868.146 1033.47 866.164 1034.38 864.252L1044.57 839.123L1044.99 837.991C1049.27 825.747 1053.55 813.079 1057.48 800.482C1063.72 780.313 1065.86 760.72 1063.9 742.411C1060.64 711.802 1045.65 685.183 1018.15 661.354C1014.33 658.111 1010.08 655.435 1005.97 652.759C1004.69 651.914 1003.28 651.069 1002 650.224C996.195 646.421 989.963 642.477 983.022 638.252C980.401 636.633 977.781 635.155 975.161 633.677C969.921 630.72 964.61 627.694 959.792 624.029C948.811 615.926 940.519 608.806 933.712 601.752C925.984 593.782 919.525 584.536 914.13 576.489C906.819 565.689 900.782 555.593 895.595 545.636C887.991 531.019 882.089 518.66 880.495 503.815C879.187 490.383 885.449 478.275 897.381 471.244C911.925 462.721 928.885 458.434 948.684 458.382L946.699 456.408C927.325 456.741 910.719 461.097 896.245 469.55C883.678 476.936 877.065 489.823 878.445 504.032C880.185 520.432 887.647 534.909 893.758 546.489C898.946 556.446 905.054 566.613 912.436 577.483C917.831 585.53 924.431 594.917 932.23 602.958C939.179 610.153 947.541 617.343 958.523 625.447C963.482 629.111 968.864 632.208 974.104 635.164C976.724 636.642 979.345 638.12 981.965 639.74C988.906 643.965 995.068 647.838 1000.88 651.641C1002.15 652.486 1003.57 653.331 1004.84 654.176C1008.88 656.782 1013.13 659.458 1016.81 662.56C1043.89 686.107 1058.66 712.231 1061.85 742.346C1063.74 760.443 1061.6 779.753 1055.5 799.638C1051.64 812.164 1047.29 824.904 1043.08 837.077L1042.87 838.562L1032.68 863.55C1031.77 865.461 1030.85 867.373 1030.01 869.355C1026 878.204 1021.78 887.266 1015.44 894.919C1014.73 895.77 1014.03 896.62 1013.32 897.47C1007.9 904.202 1003.17 909.942 995.191 912.72C994.201 912.864 981.127 915.656 973.064 914.829C966.627 914.209 960.119 913.236 952.48 912.124C949.862 911.778 947.174 911.36 944.203 910.944C937.059 909.902 929.914 908.577 922.91 907.252C913.288 905.438 903.384 903.625 893.411 902.591C875.87 900.798 857.206 902.26 836.571 907.122C810.848 913.129 793.265 922.155 779.372 936.404C771.614 944.344 762.096 955.187 757.748 968.917C754.311 979.603 752.502 991.063 750.692 1002.1L750.067 1006.13C749.093 1012.36 748.261 1018.72 747.57 1024.95C746.601 1033.15 745.563 1041.71 743.958 1049.99C740.749 1066.68 730.88 1078.59 715.481 1084.71C704.461 1088.98 692.941 1091.2 680.426 1091.31C648.182 1091.67 613.813 1090.21 580.968 1076.86C571.342 1072.92 561.288 1068.14 553.912 1059.53C542.351 1046.2 534.748 1032 530.535 1016.11C526.536 1000.84 524.232 985.009 522.071 969.741C521.423 965.43 520.846 961.047 520.198 956.735C519.046 948.677 517.18 938.076 513.689 928.114C506.209 906.85 494.418 886.516 477.607 866.124C474.557 862.384 471.436 858.715 468.386 854.976C455.05 838.888 441.147 822.237 429.434 804.377C416.016 783.977 407.757 761.936 404.869 739.033C402.557 720.372 402.012 701.069 401.539 682.403C401.533 679.999 401.385 677.595 401.379 675.191C400.433 637.575 401.765 606.176 411.654 574.825C418.106 554.302 425.348 538.232 434.433 524.137C441.968 512.45 451.556 501.253 465.522 487.923C470.248 483.314 475.327 478.776 480.195 474.45C490.706 465.018 501.641 455.16 510.804 443.964C511.721 442.901 512.566 441.768 513.483 440.705C520.038 432.839 526.735 424.689 531.944 415.766C538.702 404.011 541.706 390.073 541.096 373.104C540.717 362.993 540.124 352.812 539.463 342.985C538.725 331.249 537.986 319.089 537.672 307.069C537.204 290.099 537.711 267.753 545.644 245.459C551.119 230.171 561.484 218.76 577.303 210.94C594.181 202.482 613.408 200.169 636.045 203.787C648.92 205.875 662.084 210.366 676.316 217.613C681.626 220.357 689.547 220.76 692.083 217.218L692.647 216.509C694.479 213.959 696.452 211.267 697.93 208.505L696.441 207.024C694.964 209.927 692.991 212.619 691.018 215.312L690.243 216.374Z" fill="#F2F6F7"/>
        <path d="M610.965 157.678C606.232 159.741 601.429 161.734 596.838 163.655C587.232 167.639 577.272 171.696 567.88 176.458C555.168 182.855 543.876 191.228 534.215 201.082C526.316 209.164 522.099 218.933 517.602 229.975C510.014 248.804 507.663 269.034 506.082 286.503C505.602 292.232 504.98 297.961 504.5 303.69C502.781 322.292 501.063 341.6 498.637 360.486C496.143 380.15 491.939 395.293 485.397 408.109C481.035 416.606 475.895 425.317 470.12 433.958C464.696 442.104 458.776 449.615 451.586 458.543C448.485 462.37 445.172 466.126 441.999 469.741C437.557 474.773 432.974 479.946 428.958 485.402C414.302 505.38 403.329 527.753 395.478 553.795C386.854 582.314 381.981 611.601 380.925 640.737C380.334 658.345 380.31 676.235 380.355 693.63C380.376 701.55 380.399 710.459 380.351 719.157C380.204 744.118 386.278 768.498 398.788 793.78C403.978 804.302 410.721 814.113 417.322 823.784L417.464 824.066C418.742 825.901 420.019 827.736 421.226 829.642C426.621 837.548 432.51 845.24 438.328 852.72C447.409 864.435 456.704 876.502 464.092 889.777C472.049 904.181 480.58 921.554 483.036 941.488C485.201 958.594 486.099 977.401 485.801 998.686C485.577 1021.31 489.737 1044.21 498.64 1068.87C503.911 1083.42 511.513 1097.33 522.085 1111.23C530.387 1122.31 541.857 1128.22 558.196 1129.95C570.291 1131.26 582.664 1130.59 594.683 1129.85C600.197 1129.56 605.995 1129.26 611.651 1129.1C640.288 1128.53 662.137 1128.26 682.431 1128.14C689.077 1128.12 695.795 1128.32 702.372 1128.51C711.777 1128.84 721.395 1129.1 731.011 1128.79C745.929 1128.26 758.715 1123.35 768.874 1114.13C771.413 1111.86 774.093 1109.16 775.358 1106.19L775.921 1104.92C779.224 1097.2 782.669 1089.34 782.858 1080.79C783.048 1072.23 783.238 1063.67 783.428 1055.12L783.497 1054.62C783.754 1044.44 783.939 1033.9 784.265 1023.51C784.658 1011.34 785.823 996.987 791.939 983.323C800.445 964.28 813.917 951.164 832.142 944.186C854.041 935.786 876.523 934.313 900.862 939.624C914.233 942.488 926.904 947.617 939.22 952.535C944.034 954.502 948.989 956.469 954.014 958.224L955.429 958.645C958.331 959.556 961.162 960.539 963.922 961.592C970.15 963.839 976.733 966.155 983.311 967.199C1000.5 969.912 1015.06 968.177 1028.06 961.921C1038.79 956.66 1052.28 949.059 1060.94 936.379C1068.34 925.541 1072.76 912.872 1074 898.868C1077.09 864.283 1080.27 835.424 1085.92 806.63C1087.46 798.848 1088.5 790.997 1089.04 783.217L1089.94 775.649C1090.89 758.534 1091.9 740.783 1087.54 723.329C1081.97 701.423 1072.66 682.002 1060.03 665.629C1050.38 653.068 1040.66 643.123 1030.53 635.3C1026.28 632.059 1021.82 629.03 1017.5 626C1014.73 624.098 1011.97 622.196 1009.14 620.224C1006.66 618.463 1004.18 616.701 1001.77 615.01C992.986 608.811 983.989 602.399 975.275 595.705C970.031 591.617 965.352 586.821 960.743 582.095L959.113 580.473C950.817 571.797 945.628 561.275 941.644 552.093C938.087 543.758 936.719 534.498 937.615 525.374C938.995 512.219 948.375 502.931 963.993 499.426C971.272 497.78 978.836 496.841 986.968 496.891L984.983 494.916C977.488 495.077 970.419 495.944 963.493 497.518C946.957 501.379 937.083 511.163 935.635 525.238C934.669 534.716 936.038 544.258 939.808 552.946C943.792 562.269 949.123 573.074 957.632 581.962L959.262 583.584C963.871 588.31 968.621 593.176 973.935 597.334C982.65 604.029 991.718 610.511 1000.5 616.711C1002.98 618.472 1005.46 620.233 1007.87 621.924C1010.63 623.968 1013.54 625.869 1016.23 627.701C1020.48 630.66 1024.94 633.689 1029.19 636.93C1039.25 644.682 1048.75 654.557 1058.33 666.907C1070.82 682.996 1079.99 702.135 1085.49 723.829C1089.85 741 1088.91 758.539 1087.89 775.442L1086.99 782.869L1086.99 783.01C1086.51 790.719 1085.4 798.5 1083.94 806.211C1078.29 835.147 1075.04 864.076 1071.95 898.662C1070.92 912.453 1066.71 924.768 1059.45 935.322C1051 947.648 1037.8 955.107 1027.28 960.155C1014.7 966.269 1000.5 967.932 983.66 965.289C977.294 964.315 970.853 961.999 964.624 959.752C961.793 958.769 958.962 957.787 956.131 956.804L954.787 956.313C949.832 954.487 944.877 952.52 940.064 950.553C927.747 945.635 914.935 940.506 901.351 937.572C876.659 932.191 853.823 933.736 831.572 942.208C812.922 949.328 799.028 962.87 790.31 982.408C784.053 996.355 782.818 1010.92 782.497 1023.3C782.17 1033.7 781.986 1044.23 781.729 1054.41L781.73 1054.84C781.54 1063.4 781.351 1071.95 781.161 1080.51C780.97 1088.64 777.666 1096.36 774.433 1103.86L773.871 1105.13C772.746 1107.68 770.207 1110.24 767.879 1112.29C758.003 1121.23 745.711 1125.93 731.287 1126.39C721.813 1126.7 712.195 1126.44 702.79 1126.11C696.213 1125.91 689.495 1125.72 682.849 1125.74C662.484 1125.79 640.706 1126.13 612.069 1126.7C606.413 1126.85 600.615 1127.15 595.03 1127.52C583.082 1128.19 570.851 1128.86 558.897 1127.54C543.124 1125.82 532.079 1120.19 524.131 1109.6C513.701 1095.84 506.17 1082.14 500.971 1067.66C492.139 1043.36 487.979 1020.6 488.204 998.255C488.501 976.829 487.604 958.022 485.438 940.774C482.981 920.558 474.379 902.973 466.281 888.427C458.821 875.082 449.385 862.874 440.303 851.16C434.557 843.75 428.668 836.058 423.273 828.152C421.995 826.317 420.718 824.482 419.511 822.576L419.369 822.293C412.909 812.764 406.095 802.882 400.977 792.572C388.538 767.502 382.606 743.405 382.684 718.797C382.732 710.1 382.708 701.049 382.688 693.129C382.643 675.876 382.596 657.915 383.257 640.377C384.313 611.383 389.187 582.237 397.741 553.931C405.593 528.03 416.425 505.94 430.94 486.103C434.886 480.719 439.468 475.545 443.84 470.584C447.012 466.97 450.326 463.213 453.427 459.387C460.616 450.459 466.536 442.807 472.101 434.66C477.948 425.948 483.087 417.237 487.519 408.669C494.132 395.641 498.477 380.356 500.97 360.41C503.325 341.453 505.114 322.215 506.762 303.543C507.242 297.814 507.793 292.156 508.344 286.356C509.925 269.028 512.277 248.94 519.795 230.323C524.151 219.564 528.369 209.936 535.914 202.068C545.364 192.285 556.515 184.195 569.015 177.869C578.336 173.178 588.225 169.051 597.832 165.066C602.423 163.145 607.367 161.152 612.1 159.089C619.869 155.675 628.203 151.835 636.251 147.006L634.833 145.595C626.715 150.637 618.593 154.406 610.965 157.678Z" fill="#F2F6F7"/>
        <path d="M720.154 597.499C724.904 602.224 728.947 607.093 732.426 612.387C738.176 621.07 739.613 629.976 736.81 639.599C733.867 649.789 729.297 659.913 722.96 670.253C719.439 675.919 716.131 681.797 712.964 687.533C711.908 689.445 710.852 691.215 709.796 693.127L705.995 699.784C702.968 705.095 700.012 710.335 696.985 715.647L695.577 718.054C692.269 723.932 688.75 730.022 685.229 735.971C683.047 739.583 680.653 743.408 677.905 747.304C676.355 749.571 674.735 751.908 673.185 754.175C669.099 760.125 665.014 766.217 660.362 771.886C649.93 784.641 637.027 799.029 620.153 808.76C611.962 813.449 604.049 815.732 596.058 815.541C576.823 815.166 560.399 807.572 546.873 800.041C530.728 791.032 518.247 777.205 508.933 757.643C502.676 744.648 499.103 730.232 498.215 714.82C497.842 707.396 497.257 699.902 496.814 692.691C495.931 679.682 495.048 666.25 494.66 653.028C494.12 635.705 497.542 619.362 504.645 604.423C510.272 592.671 519.372 584.374 527.416 577.706C544.491 563.52 565.962 554.13 593.102 549.11C614.729 545.094 635.948 547.16 656.193 555.31C666.173 559.314 679.058 565.079 690.606 573.888C694.149 576.565 697.974 579.101 701.657 581.496C703.215 582.482 704.703 583.538 706.261 584.524L705.205 586.153C703.717 585.097 702.159 584.111 700.672 583.195C696.917 580.73 693.092 578.195 689.479 575.446C678.143 566.849 665.4 561.084 655.632 557.149C635.741 549.069 614.876 547.073 593.602 551.017C566.816 555.966 545.626 565.214 528.904 579.187C520.931 585.784 512.043 593.868 506.627 605.267C499.665 619.922 496.384 635.982 496.852 652.951C497.24 666.173 498.123 679.606 499.005 692.473C499.519 699.755 499.963 707.249 500.407 714.743C501.295 729.873 504.796 744.077 510.91 756.789C520.153 775.998 532.28 789.614 548.071 798.27C561.383 805.59 577.525 813.185 596.406 813.489C604.114 813.681 611.462 811.541 619.441 806.924C636.033 797.335 648.795 783.23 659.156 770.546C663.738 764.948 667.894 758.785 671.909 752.906C673.459 750.639 675.079 748.301 676.629 746.034C679.306 742.209 681.7 738.384 683.812 734.843C687.332 728.895 690.782 722.875 694.09 716.998L695.498 714.59C698.524 709.279 701.551 703.967 704.507 698.727L708.309 692.07C709.364 690.158 710.42 688.388 711.476 686.476C714.643 680.74 718.022 674.792 721.543 669.126C727.809 658.856 732.309 648.945 735.253 638.896C737.846 629.909 736.551 621.569 731.085 613.31C725.548 604.98 718.599 597.503 709.812 590.455C708.679 589.609 707.686 588.48 706.834 587.351C706.409 586.928 706.054 586.434 705.7 586.081L707.181 584.734C707.606 585.157 707.961 585.651 708.386 586.074C709.308 587.133 710.16 588.121 711.081 588.896C714.058 591.858 717.248 594.607 720.154 597.499Z" fill="#F2F6F7"/>
        <path d="M775.313 599.194C776.306 600.323 777.228 601.523 778.221 602.651C780.917 605.897 783.825 609.213 786.45 612.671C797.021 626.149 789.576 645.402 780.194 654.124L777.372 656.677C769.754 663.768 761.853 671.001 754.943 678.797C745.496 689.428 736.401 699.988 729.078 711.603C722.881 721.519 717.464 732.069 712.258 742.406C709.795 747.15 707.333 752.177 704.73 756.922C702.126 761.807 699.452 766.764 696.848 771.509C693.892 776.89 690.795 782.555 687.911 788.149C682 799.337 674.533 810.245 665.58 820.663C655.146 832.711 643.581 844.904 626.836 849.968C617.509 852.82 608.737 851.005 600.74 848.692C588.073 844.977 575.401 839.283 563.29 831.607C560.315 829.776 557.199 827.945 554.224 826.115C548.63 822.806 542.964 819.426 537.58 815.622C531.063 810.972 524.825 805.331 518.798 798.912C507.807 786.991 500.71 776.827 495.59 765.951C488.906 751.543 484.974 735.078 483.368 715.707C482.639 707.365 482.334 698.88 481.959 690.608C481.807 686.649 481.585 682.76 481.363 678.872C480.397 660.984 479.641 642.036 483.198 623.288C486.057 607.654 491.962 594.345 500.773 583.644C508.033 574.787 517.417 566.913 529.49 559.599C553.847 544.757 580.269 535.779 607.981 533.02C631.238 530.626 653.592 534.244 674.194 543.737C682.335 547.463 690.195 551.756 697.843 555.979C700.676 557.527 703.579 559.146 706.482 560.624L706.836 560.835C721.564 568.716 736.859 576.879 751.73 585.184C757.112 588.14 762.494 591.379 767.735 594.618C770.002 596.026 772.197 597.364 774.534 598.701L773.056 601.18L775.313 599.194ZM524.672 800.806C529.351 805.461 534.241 809.62 539.2 813.143C544.442 816.948 550.108 820.327 555.632 823.565C558.677 825.325 561.723 827.226 564.768 829.128C576.738 836.663 589.056 842.288 601.44 845.862C609.083 848.105 617.289 849.78 625.909 847.212C641.877 842.362 653.09 830.525 663.312 818.831C672.054 808.626 679.521 797.858 685.22 786.883C688.246 781.289 691.273 775.695 694.228 770.172C696.832 765.427 699.506 760.471 702.11 755.585C704.643 750.77 707.176 745.814 709.638 741.07C714.844 730.732 720.402 720.04 726.669 710.054C734.134 698.297 743.299 687.666 752.888 676.893C759.938 668.955 767.91 661.651 775.528 654.56L778.35 652.007C786.885 643.995 793.628 626.582 784.192 614.515C781.496 611.128 778.73 607.812 776.034 604.566C775.041 603.438 774.119 602.238 773.126 601.109C770.86 599.701 768.594 598.434 766.327 597.026C761.157 593.857 755.846 590.689 750.464 587.733C735.593 579.428 720.298 571.265 705.57 563.384L705.216 563.172C702.383 561.624 699.409 560.076 696.506 558.457C688.929 554.305 680.998 549.942 673.069 546.285C652.822 537.004 631.034 533.525 608.341 535.776C581.054 538.534 555.055 547.37 531.052 561.999C519.262 569.171 510.089 576.832 503.111 585.406C494.582 595.681 488.958 608.565 486.169 623.705C482.682 642.099 483.438 660.906 484.403 678.51C484.625 682.399 484.777 686.358 484.928 690.318C485.303 698.448 485.679 707.003 486.337 715.275C487.871 734.292 491.873 750.404 498.344 764.459C503.251 775.123 510.206 785.005 520.985 796.715C522.191 798.196 523.396 799.537 524.672 800.806Z" fill="#F2F6F7"/>
        <path d="M804.421 589.643C805.982 591.619 807.543 593.595 809.033 595.5C812.438 599.734 815.985 604.25 819.038 608.839C831.461 627.686 832.856 647.552 823.081 668.013C819.846 674.81 813.564 679.281 807.988 683.185C804.106 685.952 800.082 688.579 796.129 691.135C789.635 695.395 782.929 699.867 776.79 704.762C768.816 711.076 761.837 719.367 754.584 730.912C747.472 742.315 742.696 754.914 738.132 767.159C736.797 770.627 735.463 774.237 734.129 777.705C727.455 794.764 721.057 808.569 711.118 820.828C708.933 823.591 706.678 826.425 704.422 829.118C700.194 834.503 695.682 840.03 691.171 845.416C682.923 855.125 675.309 863.772 667.269 871.995C660.639 878.659 653.584 884.759 646.174 890.223C638.269 896.041 628.725 896.561 618.601 891.85C613.503 889.459 608.193 886.856 603.447 883.404C591.828 875.09 580.633 866.351 570.076 858.247C567.597 856.344 565.046 854.371 562.566 852.468C552.647 844.857 542.444 836.964 532.806 828.645C519.27 817.013 503.747 802.699 492.033 784.698C479.822 766.062 472.978 744.725 471.927 721.252C471.626 714.323 471.113 707.324 470.742 700.466C470.004 688.589 469.194 676.358 469.021 664.196C468.765 647.438 469.012 633.437 471.168 619.643C473.95 601.816 481.616 585.745 493.109 573.199C501.852 563.701 512.579 555.471 527.971 546.521C549.011 534.163 572.045 527.315 593.738 521.672C614.372 516.386 635.655 515.836 657.091 519.952C669.118 522.325 681.575 526.818 695.098 533.642L699.205 535.752C722.641 547.641 746.785 559.953 771.561 570.071C785.01 575.552 795.278 581.535 803.924 588.867L802.656 590.426C794.152 583.235 784.095 577.322 770.858 571.911C746.012 561.723 721.797 549.482 698.361 537.452L694.254 535.341C680.943 528.587 668.698 524.164 656.742 521.862C635.66 517.815 614.589 518.436 594.238 523.58C572.615 529.152 549.793 535.929 528.965 548.216C513.785 557.094 503.2 565.183 494.597 574.539C483.245 586.801 475.861 602.589 473.078 619.991C470.922 633.644 470.675 647.504 471.001 664.191C471.174 676.211 471.983 688.442 472.721 700.32C473.163 707.107 473.606 714.177 473.907 721.106C474.956 744.155 481.658 765.209 493.727 783.563C505.369 801.351 520.609 815.525 534.145 827.015C543.712 835.264 553.915 843.157 563.834 850.768C566.314 852.671 568.865 854.644 571.345 856.547C581.831 864.722 593.097 873.39 604.574 881.704C609.178 885.015 614.347 887.618 619.374 889.939C628.931 894.369 637.557 893.922 644.897 888.529C652.237 883.136 659.292 877.036 665.78 870.514C673.82 862.432 681.364 853.715 689.612 844.006C694.123 838.762 698.564 833.164 702.792 827.779C704.977 825.016 707.233 822.181 709.417 819.418C719.144 807.372 725.614 793.637 732.146 776.862C733.551 773.322 734.815 769.784 736.15 766.315C740.714 754.07 745.418 741.259 752.671 729.715C759.995 717.958 767.256 709.524 775.23 703.069C781.439 698.103 788.216 693.701 794.781 689.371C798.734 686.815 802.687 684.118 806.64 681.42C812.004 677.588 818.074 673.33 821.098 667.028C830.593 647.275 829.27 628.045 817.202 609.833C814.149 605.245 810.673 600.799 807.268 596.566C805.778 594.66 804.146 592.614 802.585 590.638L804.421 589.643Z" fill="#F2F6F7"/>
        <path d="M623.475 617.974C623.829 618.326 624.113 618.75 624.468 619.103C625.106 619.879 625.815 620.584 626.383 621.431C635.465 633.428 636.913 646.294 630.87 660.876C624.967 675.175 614.315 684.749 597.36 690.874C589.236 693.794 576.212 688.595 570.962 682.245C557.983 666.935 556.027 649.05 564.955 629.015C568.33 621.511 575.532 617.533 582.594 613.979C594.811 607.937 607.966 609.034 622.695 617.198L621.358 619.676L623.475 617.974ZM574.071 681.388C579.53 686.819 590.499 690.255 596.292 688.119C612.47 682.208 622.558 673.201 628.109 659.823C633.66 646.302 632.357 634.426 623.984 623.276C623.416 622.57 622.778 621.794 622.14 621.159C621.785 620.807 621.501 620.383 621.147 620.03C607.055 612.218 595.173 611.259 583.803 616.875C577.165 620.145 570.528 623.839 567.575 630.494C558.998 649.608 560.808 665.937 573.15 680.613C573.433 680.754 573.788 681.106 574.071 681.388Z" fill="#F2F6F7"/>
        <path d="M646.551 600.165L646.977 600.588C648.537 602.281 650.026 604.045 651.445 605.739C666.622 623.236 669.644 643.027 660.795 666.384C655.879 679.267 648.556 691.165 638.474 702.717C633.891 707.891 628.387 712.289 623.659 715.908L622.953 716.475C613.779 723.429 604.322 730.525 592.522 733.737C578.319 737.663 566.646 735.502 557.857 727.322C551.265 721.187 547.001 713.137 544.582 707.345C538.391 692.441 534.964 679.581 533.87 667.068C532.34 649.606 534.422 634.61 540.327 621.16C543.069 614.859 547.226 609.404 552.518 605.077C565.149 594.649 577.649 588.606 590.867 586.663C599.561 585.438 608.544 586.617 617.316 587.867L617.457 587.866C627.148 589.185 636.492 593.12 645.985 599.884L644.857 601.442C635.577 594.89 626.516 591.096 617.179 589.847L617.038 589.848C608.479 588.668 599.566 587.418 591.155 588.642C578.431 590.514 566.143 596.344 553.795 606.629C548.715 610.885 544.839 616.057 542.168 622.003C536.333 635.1 534.25 649.813 535.85 666.921C536.943 679.293 540.299 691.941 546.418 706.633C548.766 712.213 552.888 720.122 559.197 725.975C567.49 733.661 578.455 735.683 592.022 731.971C603.399 728.901 612.714 721.805 621.818 715.064L622.524 714.497C627.182 710.949 632.615 706.621 637.057 701.589C646.997 690.179 654.109 678.493 658.955 665.823C667.594 643.244 664.645 624.089 649.964 607.227C648.474 605.464 646.985 603.841 645.495 602.077L645.07 601.654L646.551 600.165Z" fill="#F2F6F7"/>
        <path d="M974.748 719.45C990.274 734.895 994.004 755.392 984.443 776.771C974.46 799.142 954.756 808.598 938.649 814.296C920.423 820.849 901.469 819.626 883.151 818.33L879.474 818.057C873.604 817.718 867.663 817.168 861.863 816.617C850.971 815.656 839.725 814.624 828.765 814.582C811.794 814.485 795.541 818.345 780.429 826.163C759.95 836.681 740.256 850.097 722.055 866.125C709.567 877.118 698.218 890.511 687.513 907.086C682.019 915.585 677.235 924.649 672.52 933.5C670.48 937.394 668.298 941.43 666.116 945.467C665.835 946.033 665.483 946.67 665.202 947.237C662.317 952.548 659.291 958.142 654.069 962.256C648.706 966.513 641.781 968.511 634.991 967.68C629.049 966.988 623.88 964.103 620.403 959.657C611.039 947.802 603.161 936.721 596.486 925.99C587.255 911.165 575.897 894.082 561.434 879.27C554.84 872.57 548.105 865.87 541.512 859.311C537.613 855.432 533.714 851.695 529.885 847.745C526.412 844.289 522.796 840.692 519.322 837.378C510.957 829.197 502.309 820.734 494.437 811.916C473.871 789.059 462.073 765.896 458.685 741.086C456.523 725.393 455.633 709.415 454.818 695.346C454.001 680.286 453.465 664.378 453.274 645.145C453.008 624.569 456.847 605.396 464.581 588.123C469.853 576.3 477.322 566.098 487.198 557.022C506.95 539.01 530.179 525.302 556.388 516.112C577.088 508.917 596.094 502.998 614.466 498.142C632.485 493.358 651.646 492.671 671.383 495.944C681.994 497.754 693.248 501.897 706.701 509.075C726.811 519.77 747.982 530.817 771.348 542.636C774.251 544.113 777.295 545.59 780.127 546.997C790.323 551.92 800.801 556.984 810.082 564.102C810.507 564.384 811.144 564.594 811.781 564.805C812.206 564.945 812.631 565.085 813.126 565.296L812.353 567.066C811.999 566.855 811.645 566.785 811.22 566.645C810.442 566.434 809.593 566.154 808.884 565.59C799.744 558.613 789.337 553.62 779.213 548.767C776.239 547.361 773.336 545.883 770.292 544.406C746.855 532.517 725.755 521.541 705.645 510.845C692.404 503.738 681.363 499.665 670.963 497.925C651.509 494.652 632.631 495.337 614.895 500.121C596.523 504.977 577.517 510.895 556.959 518.091C531.032 527.138 507.945 540.704 488.475 558.574C478.669 567.438 471.412 577.427 466.28 588.967C458.687 605.957 454.918 624.917 455.183 645.211C455.375 664.444 455.911 680.352 456.798 695.341C457.613 709.41 458.503 725.388 460.665 740.939C464.051 765.326 475.637 788.135 495.989 810.78C503.861 819.599 512.51 828.062 520.804 836.172C524.278 839.628 527.893 843.083 531.438 846.609C535.337 850.488 539.166 854.297 543.065 858.176C549.587 864.664 556.463 871.364 562.986 878.135C577.521 893.159 588.95 910.312 598.252 925.208C604.927 935.938 612.663 946.878 622.027 958.733C625.149 962.827 629.894 965.431 635.34 966.053C641.564 966.744 647.994 964.959 652.934 960.987C657.803 957.085 660.618 951.986 663.503 946.534C663.855 945.897 664.136 945.33 664.488 944.693C666.67 940.798 668.781 936.692 670.821 932.797C675.536 923.946 680.391 914.812 685.955 906.241C696.801 889.525 708.221 876.06 720.92 864.855C739.263 848.685 759.027 835.199 779.718 824.609C795.112 816.65 811.719 812.717 828.902 812.885C840.004 812.927 851.249 813.958 862.212 814.99C867.941 815.47 873.882 816.02 879.682 816.43L883.359 816.703C901.464 817.929 920.135 819.153 938.079 812.742C953.763 807.186 973.042 797.873 982.744 776.21C994.063 750.795 985.868 726.563 960.867 711.284C949.819 704.665 936.868 700.386 925.403 696.597C912.734 692.317 896.384 685.925 882.847 674.01C882.351 673.516 881.784 673.093 881.288 672.599C878.311 670.062 875.405 667.453 873.487 664.134C868.727 655.308 863.113 644.787 858.7 633.626C847.242 605.3 833.401 585.184 815.119 570.382C814.34 569.748 813.772 568.901 813.134 568.124C812.92 567.771 812.637 567.489 812.424 567.136L813.976 565.86C814.189 566.213 814.544 566.565 814.757 566.918C815.254 567.695 815.75 568.33 816.317 568.753C834.882 583.695 848.936 604.023 860.466 632.702C864.949 643.792 870.421 654.172 875.181 662.999C876.816 666.035 879.721 668.502 882.556 670.899C883.052 671.393 883.619 671.816 884.115 672.309C897.439 684.013 913.507 690.264 925.963 694.474C937.499 698.334 950.592 702.613 961.782 709.372C966.668 712.4 971.061 715.783 974.748 719.45Z" fill="#F2F6F7"/>
        <path d="M987.587 707.679C997.654 717.693 1004.33 730.263 1007.13 744.892C1008.78 753.444 1007.25 762.782 1005.64 769.079C1001.93 783.726 996.722 794.629 989.32 803.346C982.13 811.85 973.239 819.086 962.93 824.769C947.396 833.578 929.589 838.15 910.215 838.341C905.265 838.354 900.386 838.438 895.507 838.38C880.092 838.42 864.253 838.461 848.699 839.491C817.945 841.48 791.236 848.904 767.088 862.26C749.011 872.207 736.449 881.432 726.082 892.136C717.267 901.281 709.586 911.554 703.251 922.743C695.298 936.835 690.034 952.193 684.911 967.126C683.648 970.948 682.315 974.84 680.911 978.662C675.786 993.171 667.89 1002.24 656.095 1007.29C645.641 1011.71 636.017 1008.76 627.169 1005.32C619.524 1002.37 613.005 997.012 606.619 988.543C596.331 974.922 589.29 959.314 582.463 944.341C580.4 939.75 578.267 935.088 576.063 930.498C566.393 910.3 557.375 895.827 546.948 883.339C541.629 877.059 535.744 870.923 530.072 864.998C527.165 861.965 524.116 858.791 521.208 855.616C516.954 851.102 512.629 846.517 508.445 842.073C498.377 831.492 487.954 820.559 478.378 809.2C460.434 788.104 449.766 764.797 446.52 739.986C444.716 726.06 443.76 712.133 442.869 695.589C441.974 677.772 441.154 661.723 441.395 645.317C441.635 628.77 442.791 611.16 448.899 594.244C455.148 577.328 462.327 564.582 471.634 554.234C477.487 547.784 484.047 541.756 491.246 536.505C506.349 525.293 522.164 516.06 538.197 509.018C565.39 497.138 595.132 486.525 631.873 475.682C651.021 470.046 666.926 468.095 681.921 469.753C692.743 470.927 702.014 473.944 709.38 478.733C717.88 484.226 726.239 490.144 734.315 495.921C740.408 500.29 746.713 504.728 752.946 508.954C757.763 512.195 762.933 515.222 767.89 518.037C770.51 519.515 773.272 521.135 775.892 522.754C777.946 523.951 779.929 525.219 781.983 526.415C788.357 530.217 794.943 534.231 801.247 538.386C807.481 542.471 813.573 546.981 819.595 551.278C822.287 553.251 825.121 555.224 827.813 557.197L826.122 559.605C823.359 557.703 820.596 555.66 817.904 553.687C812.024 549.389 805.861 544.95 799.628 540.865C793.323 536.71 786.808 532.767 780.434 528.965C778.38 527.768 776.397 526.501 774.343 525.304C771.723 523.684 769.032 522.136 766.412 520.657C761.384 517.771 756.214 514.744 751.326 511.434C745.022 507.137 738.717 502.698 732.624 498.33C724.619 492.623 716.26 486.705 707.831 481.282C700.819 476.704 691.973 473.828 681.646 472.724C667.005 471.135 651.453 473.014 632.729 478.508C596.129 489.351 566.528 499.822 539.477 511.701C523.656 518.672 508.053 527.835 493.091 538.904C486.104 544.084 479.613 549.9 473.973 556.278C464.948 566.343 457.98 578.735 451.801 595.298C445.692 611.789 444.676 629.116 444.435 645.38C444.195 661.644 445.014 677.693 445.909 695.51C446.73 711.984 447.756 725.84 449.489 739.695C452.663 764.012 463.117 786.824 480.636 807.355C490.211 818.574 500.564 829.578 510.561 840.087C514.745 844.531 519.07 849.116 523.325 853.631C526.232 856.805 529.21 859.909 532.188 863.012C537.86 868.937 543.745 875.074 549.206 881.494C559.846 894.195 568.935 908.879 578.746 929.218C580.95 933.809 583.084 938.611 585.217 943.131C591.973 958.034 599.014 973.501 609.019 986.839C615.121 994.885 621.144 999.889 628.293 1002.63C636.999 1005.93 645.562 1008.66 654.956 1004.61C665.975 999.914 673.307 991.41 678.151 977.75C679.555 973.928 680.888 970.036 682.151 966.214C687.274 951.139 692.607 935.569 700.773 921.264C707.249 909.933 715.07 899.377 724.026 890.091C734.604 879.174 747.449 869.807 765.737 859.647C790.239 846.078 817.372 838.512 848.55 836.522C864.175 835.562 880.155 835.52 895.57 835.48C900.52 835.467 905.328 835.455 910.278 835.442C929.157 835.181 946.399 830.752 961.509 822.227C971.465 816.615 980.073 809.663 987.052 801.372C994.243 793.009 999.166 782.531 1002.73 768.309C1004.2 762.295 1005.74 753.381 1004.09 745.395C999.861 723.557 987.373 707.043 966.91 696.419C958.838 692.197 950.413 688.33 942.272 684.603C933.847 680.736 925.28 676.728 916.925 672.365C909.491 668.496 902.193 663.07 895.105 656.441C884.331 646.428 877.296 633.224 871.043 621.502C861.664 603.99 851.938 589.237 841.156 576.113C837.964 572.232 834.418 568.423 830.944 564.826C829.384 563.133 827.753 561.51 826.264 559.746L828.451 557.69C830.011 559.383 831.5 561.006 833.13 562.628C836.534 566.296 840.221 570.105 843.484 574.056C854.337 587.251 864.205 602.287 873.585 619.94C879.766 631.45 886.73 644.442 897.149 654.103C904.096 660.59 911.181 665.804 918.332 669.533C926.616 673.825 935.183 677.833 943.608 681.701C951.82 685.498 960.245 689.365 968.387 693.657C975.752 697.598 982.199 702.319 987.587 707.679Z" fill="#F2F6F7"/>
        <path d="M736.825 427.891C742.002 433.747 744.779 441.023 747.414 448.016C747.912 449.358 748.411 450.701 748.98 451.972C753.82 464.263 758.803 476.978 768.233 486.924C772.204 491.156 777.45 496.516 783.332 501.38C788.86 506.033 794.67 510.543 800.196 514.913C805.723 519.283 811.533 523.793 816.99 528.375C840.233 547.689 860.448 571.608 878.699 601.754L879.693 603.307C886.724 614.956 893.968 626.958 903.61 636.832C913.323 646.777 923.101 654.389 933.723 660.159C941.583 664.452 949.655 668.674 957.514 672.684C963.745 675.921 970.118 679.298 976.349 682.676C993.06 691.542 1005.75 704.449 1014.21 721.044C1020.25 732.838 1022.82 744.003 1022.15 755.036C1021.2 770.453 1016.78 785.243 1008.27 801.6C999.261 819.159 985.013 832.914 964.535 843.574C951.471 850.326 936.489 853.759 917.327 854.162C912.731 854.245 908.206 854.398 903.681 854.41C890.034 854.657 875.963 854.906 862.106 855.791C825.696 858.077 794.747 866.785 767.282 882.624C756.479 888.804 746.741 896.466 738.137 905.398C721.707 922.624 710.8 943.088 704.784 968.135C701.985 979.739 697.994 994.952 691.598 1009.75C686.467 1021.71 676.158 1027.39 667.824 1031.09C651.508 1038.14 635.587 1033.72 623.695 1029.09C617.537 1026.77 612.651 1024.17 608.543 1021.35C598.554 1014.09 590.395 1003.86 583.783 989.946C577.74 977.304 572.826 963.811 567.984 950.813L567.058 948.199C556.375 918.952 544.084 896.71 528.409 878.296C521.175 869.829 513.446 861.576 505.929 853.535C504.228 851.701 502.526 849.866 500.824 848.032L499.477 846.551C482.458 828.21 464.802 809.235 452.086 786.711C444.485 773.225 440.274 758.316 437.342 745.525C434.41 732.876 434.022 719.795 433.636 707.139C433.556 703.816 433.406 700.28 433.256 696.887C432.58 681.686 431.823 662.737 431.423 644.565C431.003 619.04 435.891 595.268 445.876 573.746C451.15 562.489 458.194 552.289 467.432 542.577C481.606 527.62 499.391 514.563 521.777 502.979C534.064 496.583 546.918 490.893 559.42 485.416C566.483 482.286 573.899 479.085 581.032 475.743C593.462 469.912 606.033 463.94 618.181 458.252C633.577 450.999 649.538 443.462 665.287 436.138C677.718 430.449 692.268 424.188 708.173 422.379C718.423 421.151 727.832 422.753 736.187 427.256L735.273 429.026C727.13 424.734 718.358 423.201 708.391 424.429C692.839 426.167 678.43 432.427 666.141 437.974C650.462 445.228 634.501 452.764 619.034 460.088C606.816 465.847 594.245 471.82 581.885 477.579C574.752 480.921 567.336 484.122 560.203 487.323C547.771 492.729 534.917 498.42 522.7 504.745C500.527 516.258 482.883 529.173 468.85 543.988C459.753 553.557 452.85 563.616 447.646 574.661C437.801 595.9 432.984 619.459 433.402 644.56C433.732 662.661 434.559 681.539 435.235 696.74C435.385 700.134 435.465 703.598 435.615 706.992C436.001 719.507 436.46 732.517 439.32 744.954C442.323 757.533 446.392 772.301 453.922 785.575C466.425 807.887 484.01 826.792 501.099 845.062L502.446 846.543C504.148 848.377 505.85 850.211 507.552 852.045C515.068 860.087 522.797 868.34 530.032 876.948C545.778 895.575 558.211 917.958 569.036 947.487L569.962 950.101C574.733 963.028 579.576 976.451 585.69 989.021C592.16 1002.65 600.106 1012.67 609.811 1019.65C613.708 1022.39 618.522 1024.93 624.468 1027.18C636.076 1031.67 651.502 1035.87 667.183 1029.19C675.305 1025.7 685.12 1020.23 689.899 1008.9C696.225 994.179 700.216 979.107 702.944 967.574C709.029 942.173 720.077 921.285 736.79 903.917C745.535 894.843 755.414 887.039 766.287 880.789C793.964 864.877 825.266 855.957 861.959 853.67C875.816 852.785 889.958 852.607 903.605 852.359C908.201 852.277 912.726 852.265 917.251 852.112C936.13 851.709 950.829 848.418 963.54 841.738C983.594 831.221 997.56 817.75 1006.43 800.614C1014.73 784.471 1019.07 769.893 1020.09 754.829C1020.77 744.079 1018.2 733.338 1012.37 721.898C1004.13 705.656 991.579 693.031 975.293 684.305C969.061 680.927 962.618 677.621 956.529 674.384C948.74 670.303 940.597 666.011 932.666 661.789C921.974 655.947 911.984 648.266 902.199 638.109C892.344 628.023 885.1 615.879 877.998 604.16L877.004 602.607C858.825 572.673 838.822 548.824 815.72 529.651C810.264 525.069 804.454 520.559 798.927 516.189C793.329 511.749 787.519 507.238 782.063 502.656C776.11 497.722 770.793 492.291 766.822 488.059C757.178 477.76 752.054 464.904 747.142 452.401C746.644 451.059 746.145 449.716 745.576 448.445C742.941 441.31 740.308 434.599 735.343 428.956L736.825 427.891Z" fill="#F2F6F7"/>
        <path d="M666.246 587.174C667.38 588.444 668.656 589.713 669.933 590.983C672.698 593.875 675.604 596.766 678.017 600.013C682.63 606.294 686.675 611.87 689.52 618.226C697.557 636.378 692.583 654.14 686.611 669.075C681.483 682.028 674.657 694.845 665.853 708.232C650.78 731.04 631.525 749.687 606.888 765.378C590.015 776.1 571.986 776.924 553.224 767.851C549.118 765.882 545.079 762.569 541.107 758.054C531.178 746.766 524.778 732.782 520.84 713.771C516.972 694.831 514.946 677.158 514.477 659.764C513.924 637.633 518.191 619.591 527.486 604.718C531.077 598.981 536.652 594.511 542.085 590.184L543.496 589.049C556.409 578.621 572.513 571.649 591.385 568.418C605.167 566.049 618.816 566.791 631.838 570.859C645.708 575.207 656.399 580.199 665.608 586.681L663.917 589.089C654.992 582.89 644.514 577.967 630.997 573.689C618.4 569.762 605.245 568.948 591.887 571.316C573.44 574.546 557.831 581.304 545.27 591.378L543.859 592.513C538.708 596.698 533.274 601.025 529.965 606.337C520.81 620.928 516.824 637.838 517.305 659.757C517.703 676.939 519.799 694.399 523.596 713.269C527.392 731.715 533.579 745.346 543.153 756.14C546.841 760.373 550.596 763.403 554.349 765.161C572.19 773.742 589.229 772.92 605.184 762.837C629.469 747.501 648.513 729.066 663.233 706.613C671.966 693.296 678.651 680.763 683.709 668.022C689.47 653.582 694.234 636.599 686.624 619.436C683.921 613.362 679.947 607.857 675.547 601.787C673.276 598.682 670.44 595.861 667.746 593.039C666.541 591.84 665.264 590.429 664.059 589.23L666.246 587.174Z" fill="#F2F6F7"/>
        <path d="M973.063 533.838C969.826 539.928 969.917 547.776 973.194 557.102C977.041 567.981 984.42 577.437 996.465 587.023C1000.36 590.053 1004.33 593.154 1008.16 596.114C1016.87 602.809 1025.94 609.856 1034.44 617.188C1059.25 638.478 1077.06 660.989 1088.65 686.061C1095.4 700.681 1099.61 714.317 1101.55 727.818C1102.56 735.028 1103.01 742.522 1103.45 749.875C1103.6 751.713 1103.6 753.551 1103.75 755.389L1103.62 761.188C1103 768.614 1102.32 775.97 1101.63 783.326C1099.77 803.342 1097.84 824.136 1096.7 844.574C1095.88 858.86 1096.06 873.426 1096.31 887.497C1096.39 890.961 1096.47 894.426 1096.41 897.891C1096.52 911.962 1093.37 926.042 1086.9 939.635C1081.84 950.255 1072.38 957.633 1064.06 964.302C1050.08 975.228 1034.26 982.764 1016.95 986.557C1004.58 989.347 992.348 988.742 975.932 984.684C961.639 981.044 910.813 959.538 910.317 959.327L910.246 959.257C887.387 951.609 866.455 950.956 846.319 957.302C835.226 960.795 826.05 966.9 818.224 975.901C802.856 993.76 800.719 1015.19 800.555 1033.79C800.506 1042.06 800.599 1050.48 800.691 1058.61C800.787 1068.29 800.883 1078.26 800.767 1088.02C800.657 1100.04 797.435 1111.93 791.033 1124.46C789.766 1126.87 787.51 1129.42 784.194 1132.05C771.633 1141.84 758.281 1146.75 744.563 1146.79C728.229 1146.76 711.822 1145.95 695.91 1145.22C667.976 1143.95 642.242 1145.71 617.364 1150.58C602.734 1153.38 585.988 1157.88 572.795 1169.72C567.504 1174.47 563.628 1179.22 561.095 1184.32L563.364 1186.58C565.684 1181.55 569.49 1176.73 574.781 1171.98C587.48 1160.63 603.661 1156.28 617.938 1153.55C642.603 1148.75 668.055 1146.99 695.847 1148.26C711.759 1149 728.166 1149.8 744.642 1149.83C759.138 1149.86 773.054 1144.66 786.18 1134.45C789.92 1131.54 792.388 1128.77 793.865 1125.87C800.408 1113.2 803.769 1100.46 803.949 1088.09C804.136 1078.26 803.968 1068.22 803.873 1058.67C803.781 1050.54 803.688 1042.12 803.738 1033.85C803.832 1015.75 805.899 994.954 820.633 977.875C828.106 969.229 836.859 963.408 847.457 960.127C867.029 954.066 887.324 954.65 909.547 962.087C912.307 963.282 961.152 983.944 975.586 987.584C992.214 991.712 1005.3 992.315 1017.95 989.524C1035.69 985.589 1051.93 977.91 1066.25 966.63C1074.79 959.89 1084.53 952.228 1089.95 940.971C1096.63 927.023 1099.91 912.519 1099.73 897.953C1099.65 894.488 1099.64 890.953 1099.57 887.488C1099.39 873.488 1099.14 858.993 1100.02 844.778C1100.89 824.34 1102.74 803.617 1104.6 783.601C1105.29 776.245 1105.9 768.819 1106.59 761.322L1106.79 755.311L1106.79 755.169C1106.64 753.331 1106.57 751.422 1106.42 749.584C1105.98 742.231 1105.53 734.737 1104.52 727.386C1102.58 713.602 1098.23 699.683 1091.33 684.781C1079.53 659.356 1061.58 636.563 1036.35 614.991C1027.77 607.589 1018.7 600.683 1009.99 593.846C1006.16 590.887 1002.19 587.786 998.298 584.755C986.677 575.593 979.512 566.49 975.95 556.175C972.957 547.556 972.868 540.556 975.612 535.246C978.216 530.36 983.298 526.953 990.788 524.953C997.784 523.026 1004.92 522.088 1012.42 522.069L1009.51 519.177C1002.87 519.477 996.363 520.343 990.003 522.056C981.736 524.27 976.089 528.244 973.063 533.838Z" fill="#F2F6F7"/>
        <path d="M590.404 136.801C587.721 138.222 585.037 139.502 582.354 140.923C566.465 148.955 550.081 157.2 535.402 168.411C523.758 177.28 514.658 185.435 508.109 196.129C503.814 203 500.652 210.574 497.771 217.723C489.762 237.543 486.633 258.27 483.79 279.561C480.53 304.106 476.992 330.49 472.465 357.16C469.401 375.27 462.871 393.036 453.299 410.031C444.5 425.54 433.435 439.64 422.723 453.386C419.622 457.354 416.309 461.534 413.209 465.643C396.437 487.749 384.551 512.458 376.989 541.186C369.987 567.792 364.973 597.362 361.738 631.524C359.261 657.976 358.134 686.758 358.502 719.284C358.868 751.528 366.937 781.559 382.563 808.53C390.732 822.721 400.031 836.486 408.904 849.827C411.957 854.415 415.08 859.074 418.133 863.662C428.782 879.898 436.954 895.363 443.217 911.186C444.926 915.565 445.858 920.442 446.718 925.107L446.862 926.096C450.521 946.098 450.15 966.888 449.778 986.971L449.779 987.395C449.333 1006.13 450.083 1022.68 451.82 1038.09C452.978 1048.13 454.913 1058.23 456.848 1067.92C457.78 1072.93 458.783 1078.02 459.716 1083.18L463.331 1086.78C462.325 1080.28 461.035 1073.77 459.745 1067.41C457.811 1057.73 455.876 1047.77 454.789 1037.8C453.053 1022.53 452.374 1006.2 452.75 987.529L452.748 987.104C453.12 966.88 453.49 945.949 449.76 925.594L449.616 924.604C448.684 919.727 447.823 914.78 445.972 910.118C439.708 894.153 431.394 878.406 420.603 862.03C417.551 857.441 414.427 852.782 411.375 848.194C402.501 834.853 393.273 821.159 385.176 807.038C369.833 780.49 361.837 750.954 361.542 719.206C361.245 686.75 362.302 658.039 364.779 631.728C368.014 597.707 372.958 568.208 379.89 541.815C387.382 513.44 399.057 489.086 415.617 467.334C418.718 463.225 421.96 459.115 425.132 455.076C435.914 441.26 447.05 426.947 455.919 411.368C465.773 394.089 472.373 375.97 475.507 357.506C480.104 330.765 483.642 304.381 486.902 279.836C489.675 258.757 492.804 238.172 500.743 218.705C503.553 211.627 506.716 204.194 510.8 197.537C517.208 187.267 526.097 179.324 537.459 170.597C551.926 159.599 568.168 151.355 583.987 143.394C586.741 142.043 589.354 140.693 592.037 139.272C600.44 134.937 607.924 130.533 614.7 125.849L612.573 123.733C605.797 128.417 598.596 132.679 590.404 136.801Z" fill="#F2F6F7"/>
    </g>
    <defs>
        <clipPath id="clip0">
            <rect width="1010.8" height="788" fill="white" transform="translate(716.599 1266.53) rotate(-135.149)"/>
        </clipPath>
    </defs>
</svg>
