<svg xmlns="http://www.w3.org/2000/svg" xmlns:xlink="http://www.w3.org/1999/xlink" width="548.942" height="672.474" viewBox="0 0 548.942 672.474">
    <defs>
        <clipPath id="clip-path">
            <rect id="Прямоугольник_3" data-name="Прямоугольник 3" width="548.942" height="672.474" transform="translate(1213.753 4014.526)" fill="none"/>
        </clipPath>
        <clipPath id="clip-path-2">
            <path id="Контур_20" data-name="Контур 20" d="M1080.621,4160.907l720.722-12.719L1839.85,4926.3l-720.722,12.719Z" fill="none"/>
        </clipPath>
    </defs>
    <g id="Сгруппировать_28" data-name="Сгруппировать 28" transform="translate(-1213.753 -4014.526)" clip-path="url(#clip-path)">
        <g id="Сгруппировать_27" data-name="Сгруппировать 27" opacity="0.8">
            <g id="Сгруппировать_26" data-name="Сгруппировать 26" clip-path="url(#clip-path-2)">
                <g id="Сгруппировать_25" data-name="Сгруппировать 25">
                    <g id="Сгруппировать_24" data-name="Сгруппировать 24">
                        <g id="Сгруппировать_4" data-name="Сгруппировать 4">
                            <path id="Контур_1" data-name="Контур 1" d="M1323.734,4743.947c-1.785-9.237-7.36-16.687-12.019-22.148-7.169-8.413-17.023-11.215-27.738-7.892-4.681,1.458-9.2,3.921-13.564,6.3-2.037,1.109-4.143,2.258-6.264,3.306-5.906,2.871-13.038,5.894-21.149,6.547a20.44,20.44,0,0,1-16.776-6.363,23.868,23.868,0,0,1-6.071-19.892c.923-6.765,4.556-12.3,7.618-16.372,8.858-11.864,21.218-20.546,37.788-26.541a102.094,102.094,0,0,0,27.6-14.6,40.337,40.337,0,0,0,11.581-13.716c5.106-10.053,7.678-21.9,8.091-37.289.352-12.764-1.055-25.633-2.415-38.077-.565-5.16-1.148-10.494-1.6-15.756-1.039-12-1.889-26.226-.314-40.72a111.234,111.234,0,0,1,8.007-29.94c8.376-20.513,21.373-38.739,39.732-55.721,11.681-10.8,24.025-21.267,35.964-31.388l1.426-1.21a166.739,166.739,0,0,1,24.736-17.849c16.81-9.638,35.91-14.886,60.113-16.517,9.239-.618,18.644-.981,27.737-1.333,8.255-.318,16.788-.647,25.159-1.167a128.227,128.227,0,0,0,50.085-13.6c6.369-3.222,12.655-6.949,18.733-10.553,3.728-2.21,7.583-4.5,11.435-6.653,10.087-5.622,19.276-10.461,29.587-12.733,15.127-3.362,28.462-2.256,40.764,3.378,16.033,7.285,30.2,17.692,43.3,31.815,6.963,7.515,11.627,14.65,14.673,22.457,3.2,8.227,4.065,15.089,2.638,20.98-1.939,7.929-6.05,15.638-13.324,24.992-3.612,4.679-7.35,9.369-10.964,13.9-2.873,3.6-5.843,7.331-8.727,11.025-8.864,11.406-13.424,25.532-13.94,43.184-.325,11.419,2.587,23.328,9.165,37.48,8.179,17.621,20.261,34.355,35.91,49.736,4.551,4.478,9.284,8.913,13.86,13.2,5.7,5.345,11.6,10.873,17.21,16.542,10.654,10.779,14.958,24.811,12.79,41.7-1.863,14.687-7.358,28.031-13.019,40.264-4.982,10.777-11.378,23.288-21.036,34.379-11.486,13.188-25.439,21.589-41.471,24.967-15.663,3.343-28.6,3.2-40.7-.438-2.349-.692-4.8-1.279-7.169-1.848a100.82,100.82,0,0,1-10.834-3.034,214.538,214.538,0,0,0-34.356-9.243,109.752,109.752,0,0,0-37.216-.313c-15.565,2.465-31.535,5.2-48.82,8.353-9.745,1.809-19.2,3.8-27.828,8.256-11.086,5.7-15.126,13.537-13.505,26.2a52.738,52.738,0,0,0,5.237,16.669,161.274,161.274,0,0,0,9.29,15.512c1.117,1.715,2.234,3.43,3.325,5.154a77.708,77.708,0,0,0,5.739,7.869l-2.952-.138a78.833,78.833,0,0,1-4.657-6.555c-1.088-1.718-2.2-3.425-3.312-5.132a162.79,162.79,0,0,1-9.414-15.73,54.983,54.983,0,0,1-5.451-17.374c-1.735-13.553,2.795-22.323,14.682-28.436,8.889-4.593,18.524-6.625,28.443-8.466,17.3-3.158,33.291-5.9,48.875-8.362a111.991,111.991,0,0,1,37.971.323,216.88,216.88,0,0,1,34.708,9.34,99.342,99.342,0,0,0,10.591,2.961c2.4.575,4.876,1.17,7.286,1.879,11.736,3.53,24.322,3.657,39.608.394,15.552-3.278,29.1-11.439,40.261-24.256,9.477-10.883,15.781-23.223,20.7-33.859,5.587-12.071,11.008-25.227,12.834-39.619,2.077-16.189-2.018-29.607-12.17-39.88-5.577-5.638-11.46-11.15-17.15-16.482-4.587-4.3-9.331-8.742-13.9-13.24-15.839-15.566-28.074-32.517-36.364-50.379-6.727-14.472-9.7-26.7-9.368-38.468.529-18.135,5.24-32.681,14.4-44.472,2.892-3.7,5.865-7.434,8.741-11.043,3.609-4.528,7.341-9.213,10.946-13.881,7.077-9.1,11.064-16.554,12.925-24.165,1.318-5.439.484-11.871-2.55-19.663-2.943-7.541-7.467-14.456-14.235-21.76-12.9-13.9-26.833-24.143-42.6-31.306-12.014-5.5-24.522-6.527-39.363-3.23-10.019,2.207-19.055,6.97-28.985,12.5-3.826,2.142-7.668,4.421-11.385,6.625-6.11,3.623-12.427,7.368-18.865,10.624a130.382,130.382,0,0,1-50.948,13.831c-8.4.521-16.942.851-25.209,1.17-9.079.351-18.467.714-27.676,1.328-23.852,1.609-42.65,6.765-59.155,16.23a164.531,164.531,0,0,0-24.407,17.618l-1.426,1.21c-11.922,10.106-24.249,20.556-35.893,31.324-18.118,16.759-30.936,34.729-39.19,54.937a109.028,109.028,0,0,0-7.855,29.348c-1.555,14.307-.712,28.4.319,40.294.449,5.238,1.03,10.559,1.593,15.706,1.368,12.517,2.784,25.462,2.428,38.375-.422,15.724-3.069,27.87-8.328,38.222a42.553,42.553,0,0,1-12.214,14.474,104.255,104.255,0,0,1-28.183,14.916c-16.149,5.843-28.176,14.277-36.769,25.788-2.9,3.858-6.345,9.088-7.2,15.353a21.68,21.68,0,0,0,5.486,18.078,18.238,18.238,0,0,0,14.987,5.681c7.745-.624,14.637-3.551,20.352-6.328,2.074-1.025,4.16-2.162,6.177-3.262a78.956,78.956,0,0,1,13.968-6.475c11.623-3.6,22.306-.558,30.086,8.572,4.832,5.666,10.623,13.418,12.506,23.16a49.492,49.492,0,0,1-1.16,23.563,86.238,86.238,0,0,1-14.817,28.686l-2.705-.127a84.865,84.865,0,0,0,15.4-29.169A47.343,47.343,0,0,0,1323.734,4743.947Z" fill="#f2f6f7"/>
                        </g>
                        <g id="Сгруппировать_5" data-name="Сгруппировать 5">
                            <path id="Контур_2" data-name="Контур 2" d="M1360.885,4735.877c-.377-8.872-3.232-17.408-5.994-25.663-.778-2.328-1.584-4.738-2.323-7.12a163.952,163.952,0,0,1-7.062-35.575c-.388-4.92-.589-9.935-.785-14.785a228.89,228.89,0,0,0-1.868-24.5,440.632,440.632,0,0,0-9.96-47.822c-5.613-21.16-9.7-39.077-11.389-57.74-1.7-18.758-.054-33.8,5.186-47.334,6.493-16.76,14.874-30.518,25.62-42.064,11.683-12.5,24.364-23.278,35.229-32.168,10.285-8.414,20.92-17.116,32-24.892,16.135-11.344,35.365-17.477,58.787-18.75,17.327-.922,34.637-1.134,50.882-1.27a158.263,158.263,0,0,0,62.734-13.315c10.991-4.857,22.024-10.123,32.695-15.215l3.652-1.742c8.684-4.1,18.07-5.261,26.19-6.022a45.892,45.892,0,0,1,17.272,1.639,83.865,83.865,0,0,1,36.47,23c14.248,15.32,16.679,34.03,6.5,50.05-6.216,9.757-12.893,19.636-19.843,29.36a79.534,79.534,0,0,0-12.336,26.4c-2.991,11.6-3.648,22.159-2.009,32.283a133.092,133.092,0,0,0,19.038,50.384c8.577,13.555,19.095,26.778,34.1,42.877q1.8,1.937,3.632,3.861c5.408,5.718,11,11.63,15.607,18.128,9.814,13.949,13.36,30.98,10.535,50.616-1.207,8.433-4.029,17.306-8.629,27.123-10.625,22.694-23.353,35.653-41.27,42.023-14.223,5.05-29.264,5.576-44.7,1.562-7.244-1.86-14.426-4.417-21.373-6.889-2.6-.925-5.286-1.881-7.934-2.787a130.968,130.968,0,0,0-27.5-6.687c-10.157-1.241-21.125-.939-33.535.92-3.828.574-7.718,1.195-11.48,1.794-14.17,2.258-28.823,4.594-43.469,4.977-4.09.1-8.183.174-12.276.247-5.093.09-10.36.183-15.537.334l-1.817.052c-8.326.232-16.937.471-24.779,3.769a32.607,32.607,0,0,0-10.735,7.511c-5.089,5.346-6.388,12.463-4.086,22.4,2.048,8.869,6.836,16.609,11.982,24.415,5.851,8.923,11.928,17.338,18.7,26.629q3.111,4.284,6.539,8.369l-1.97-.092c-2-2.423-3.929-4.889-5.764-7.416-6.529-8.962-12.877-17.749-18.736-26.687-5.222-7.92-10.083-15.784-12.186-24.89-1.524-6.58-2.72-16.2,4.453-23.736a34.141,34.141,0,0,1,11.233-7.855c8.095-3.4,16.847-3.647,25.309-3.883l1.816-.052c5.186-.151,10.457-.244,15.553-.334,4.09-.072,8.179-.145,12.264-.246,14.549-.38,29.152-2.707,43.275-4.96,3.765-.6,7.658-1.221,11.492-1.794a125.238,125.238,0,0,1,33.933-.927,132.242,132.242,0,0,1,27.8,6.757c2.655.907,5.347,1.865,7.951,2.792,6.914,2.461,14.065,5.006,21.246,6.851,15.145,3.938,29.9,3.424,43.835-1.524,17.515-6.228,29.984-18.953,40.429-41.261,4.538-9.685,7.32-18.423,8.506-26.71,2.769-19.255-.691-35.933-10.282-49.564-4.546-6.41-10.1-12.285-15.473-17.966q-1.826-1.932-3.64-3.868c-15.072-16.168-25.641-29.459-34.268-43.095a134.544,134.544,0,0,1-19.248-50.933c-1.671-10.327-1.006-21.082,2.037-32.881a81,81,0,0,1,12.562-26.887c6.936-9.705,13.6-19.561,19.8-29.295,9.8-15.422,7.428-33.466-6.336-48.266a82.414,82.414,0,0,0-35.833-22.6,44.379,44.379,0,0,0-16.694-1.576c-7.989.749-17.224,1.884-25.688,5.885l-3.65,1.741c-10.679,5.1-21.723,10.367-32.734,15.234a159.751,159.751,0,0,1-63.319,13.439c-16.228.138-33.52.348-50.816,1.269-23.136,1.257-42.113,7.3-58.016,18.483-11.037,7.746-21.651,16.43-31.916,24.828-10.826,8.86-23.461,19.593-35.084,32.032-10.616,11.406-18.9,25.01-25.326,41.593-5.154,13.316-6.772,28.148-5.091,46.674,1.68,18.561,5.751,36.409,11.346,57.5a442.286,442.286,0,0,1,9.992,47.981,229.99,229.99,0,0,1,1.884,24.655c.194,4.836.395,9.838.781,14.729a162.607,162.607,0,0,0,7,35.258c.734,2.366,1.537,4.767,2.314,7.088,2.793,8.351,5.682,16.987,6.069,26.063.674,15.107-3.406,28.986-12.476,42.426q-6.35,9.418-14,18.755l-1.832-.086q8.034-9.731,14.61-19.49C1357.546,4764.249,1361.547,4750.661,1360.885,4735.877Z" fill="#f2f6f7"/>
                        </g>
                        <g id="Сгруппировать_6" data-name="Сгруппировать 6">
                            <path id="Контур_3" data-name="Контур 3" d="M1358.672,4789.338c6.136-6.369,12.251-12.98,18.165-19.372,4.906-5.3,9.979-10.788,15.039-16.107,7.877-8.308,16.771-9.744,26.434-4.277a120.045,120.045,0,0,1,27.027,21.213c11.4,11.651,21.682,22.427,31.264,32.772l-3.15-.147c-9.133-9.83-18.91-20.065-29.7-31.088a117.907,117.907,0,0,0-26.534-20.833c-8.787-4.971-16.549-3.7-23.735,3.874-5.05,5.31-10.118,10.789-15.019,16.087-5.922,6.4-12.044,13.018-18.195,19.405l-.9.936q-2.891,3-5.8,6.02l-2.936-.137q3.586-3.714,7.14-7.408Z" fill="#f2f6f7"/>
                        </g>
                        <g id="Сгруппировать_7" data-name="Сгруппировать 7">
                            <path id="Контур_4" data-name="Контур 4" d="M1409.176,4777.886c.778-.044,1.571-.121,2.367-.2a20,20,0,0,1,7.612.23,78.2,78.2,0,0,1,27.327,14.071c4.272,3.477,8.479,7.1,12.619,10.761l-3.532-.165c-3.454-3.025-6.948-6.012-10.488-8.891a76,76,0,0,0-26.559-13.666,18.451,18.451,0,0,0-6.763-.146c-.807.077-1.641.157-2.461.2-10.417.54-19.373,5.424-26.011,9.618-4.344,2.741-8.526,5.751-12.592,8.917l-3.367-.158a164.188,164.188,0,0,1,14.773-10.62C1388.967,4783.5,1398.25,4778.452,1409.176,4777.886Z" fill="#f2f6f7"/>
                        </g>
                        <g id="Сгруппировать_8" data-name="Сгруппировать 8">
                            <path id="Контур_5" data-name="Контур 5" d="M1263.027,4785.7c.447-2.153-3-5.8-6.826-7.226-11.33-4.235-20.623-9.268-28.408-15.383-13.75-10.8-22.357-22.791-26.313-36.653-3.75-13.077-2.713-24.826,3.173-35.918,8.423-15.791,20.619-27.427,30.3-35.8,6.787-5.853,13.882-11.582,20.742-17.121,5.744-4.636,11.682-9.432,17.4-14.271,9.459-8.016,15.5-16.463,18.471-25.822,2.269-7.219,3.35-14.961,4.395-22.447q.221-1.566.442-3.125c1.5-10.6,1.408-21.462,1.32-31.964-.041-4.89-.083-9.946.035-14.919.341-14.526,1.676-25.532,4.326-35.691,3.212-12.21,8.486-24.42,16.6-38.424,13.09-22.63,32.007-40.545,50.5-56.535q2.04-1.758,4.078-3.524c10.577-9.143,21.511-18.6,33.056-26.737a116.814,116.814,0,0,1,49.141-19.6c15.886-2.55,32.117-3.308,47.813-4.04,3.594-.168,7.189-.336,10.781-.524,19.637-1.04,36.647-4.718,52-11.24a117.529,117.529,0,0,0,18.826-10.676c2.719-1.811,5.42-3.646,8.119-5.48,9.593-6.517,19.513-13.256,30.039-18.744a82.476,82.476,0,0,1,36.423-9.133c8.775-.268,16.691,2.866,23.937,6.293,24.2,11.429,42.553,29.715,58.78,47.773a74.35,74.35,0,0,1,14.372,23.091c4.636,12.038,2.925,23.99-4.949,34.561-3.779,5.1-7.99,9.984-12.062,14.7-3.023,3.5-6.149,7.125-9.068,10.8l-1.9,2.391c-5.164,6.482-10.5,13.186-14.631,20.386-5.188,8.985-6.358,19.46-6.8,27.581-.812,14.5,3.075,28.493,12.6,45.384,7.718,13.676,16.219,24.533,25.989,33.194,5.519,4.9,11.547,9.427,17.376,13.8,4.254,3.192,8.652,6.493,12.834,9.927,1.7,1.393,3.305,2.7,4.83,3.941,4.491,3.653,8.369,6.808,11.982,10.021,4.855,4.3,10.146,13.236,10.369,13.613l.04.079c2.714,6.2,1.814,12.191.862,18.533-.121.81-.244,1.63-.361,2.455-1.022,7.549-3.988,14.506-6.854,21.235-.618,1.45-1.235,2.9-1.852,4.392l-8.687,18.28-.439.8c-4.627,8.485-9.411,17.258-14.419,25.728-7.995,13.562-17.679,24.593-28.785,32.784-18.583,13.647-40.794,18.768-67.9,15.646a78.783,78.783,0,0,1-10.875-2.4c-1.138-.309-2.277-.618-3.418-.909-5.068-1.3-10.37-2.751-16.206-4.44-2.187-.628-4.4-1.336-6.527-2.021a111.218,111.218,0,0,0-13.068-3.613,155.466,155.466,0,0,0-25.511-3.117,140.839,140.839,0,0,0-23.855,1.915,238.84,238.84,0,0,0-26.4,5.3c-11.925,3.168-21.759,6.118-30.722,12.744a24.765,24.765,0,0,0-9.459,25.651c2.632,12.3,8.839,23.742,18.867,34.732l-2.057-.1c-9.637-10.856-15.652-22.171-18.253-34.332a26.2,26.2,0,0,1,10.019-27.133c9.906-7.323,21.726-10.462,31.224-12.985a239.976,239.976,0,0,1,26.566-5.336,142,142,0,0,1,24.11-1.932,157.463,157.463,0,0,1,25.751,3.144,112.128,112.128,0,0,1,13.242,3.657c2.123.68,4.317,1.386,6.485,2.009,5.823,1.684,11.11,3.132,16.163,4.427,1.148.293,2.293.6,3.438.914a77.848,77.848,0,0,0,10.663,2.359c26.714,3.074,48.584-1.953,66.85-15.369,10.945-8.072,20.5-18.956,28.392-32.348,4.994-8.448,9.773-17.211,14.394-25.684l.421-.768,8.653-18.207c.6-1.463,1.222-2.918,1.842-4.373,2.829-6.64,5.753-13.5,6.751-20.862.118-.835.241-1.658.363-2.473.958-6.377,1.786-11.887-.738-17.687-.382-.643-5.528-9.21-10.055-13.222-3.59-3.193-7.457-6.339-11.932-9.981-1.528-1.244-3.135-2.55-4.837-3.944-4.157-3.414-8.542-6.706-12.782-9.889-5.854-4.393-11.908-8.937-17.472-13.879-9.892-8.771-18.492-19.752-26.293-33.57-9.673-17.151-13.617-31.4-12.789-46.186.447-8.283,1.648-18.977,6.991-28.231,4.181-7.3,9.556-14.042,14.754-20.568l1.9-2.389c2.937-3.7,6.073-7.336,9.106-10.85,4.055-4.7,8.248-9.556,12-14.619,7.559-10.149,9.2-21.616,4.759-33.16a72.891,72.891,0,0,0-14.095-22.639c-16.124-17.943-34.348-36.108-58.312-47.425-7.079-3.348-14.8-6.409-23.261-6.152a81.053,81.053,0,0,0-35.782,8.966c-10.45,5.449-20.335,12.163-29.892,18.657-2.7,1.837-5.408,3.674-8.128,5.486a118.927,118.927,0,0,1-19.069,10.807c-15.518,6.591-32.692,10.306-52.5,11.356-3.6.189-7.193.356-10.79.523-15.656.732-31.844,1.487-47.648,4.025a115.334,115.334,0,0,0-48.524,19.351c-11.485,8.1-22.393,17.527-32.939,26.647q-2.045,1.766-4.081,3.524c-21.258,18.381-37.929,34.965-50.188,56.16-8.044,13.887-13.271,25.981-16.448,38.062-2.621,10.043-3.941,20.946-4.279,35.353-.118,4.952-.076,10-.035,14.872.088,10.557.178,21.473-1.336,32.183q-.222,1.559-.439,3.121c-1.054,7.546-2.144,15.349-4.449,22.685-3.058,9.632-9.248,18.3-18.921,26.5-5.737,4.85-11.681,9.65-17.431,14.292-6.852,5.533-13.937,11.253-20.7,17.091-9.588,8.288-21.659,19.8-29.966,35.376-5.7,10.741-6.7,22.134-3.058,34.829,3.868,13.555,12.309,25.3,25.806,35.9,7.663,6.022,16.826,10.98,28.013,15.16,4.206,1.568,8.417,5.708,7.753,8.9l-.132.651a54.75,54.75,0,0,1-1.725,6.927l-1.548-.072a49.667,49.667,0,0,0,1.827-7.148Z" fill="#f2f6f7"/>
                        </g>
                        <g id="Сгруппировать_9" data-name="Сгруппировать 9">
                            <path id="Контур_6" data-name="Контур 6" d="M1419.8,4795.884a57.062,57.062,0,0,1,16.858,5.817l-5.782-.27a51.733,51.733,0,0,0-11.444-3.374,47.205,47.205,0,0,0-22.354,1.8l-5.754-.269c.894-.348,1.8-.691,2.716-1.03A50.1,50.1,0,0,1,1419.8,4795.884Z" fill="#f2f6f7"/>
                        </g>
                        <g id="Сгруппировать_11" data-name="Сгруппировать 11">
                            <g id="Сгруппировать_10" data-name="Сгруппировать 10">
                                <path id="Контур_7" data-name="Контур 7" d="M1190.568,4771.63c-1.26-3.641-2.594-7.283-3.884-10.807-2.668-7.285-5.427-14.82-7.558-22.4a93.69,93.69,0,0,1-3.422-30.88c.489-8.394,3.709-15.688,7.549-23.674,6.552-13.622,16.519-25.117,25.346-34.822q4.33-4.765,8.679-9.507c9.423-10.3,19.169-20.948,28.406-31.792,9.6-11.273,15.815-21.195,19.567-31.224a186.54,186.54,0,0,0,6.506-21.418c1.724-7.071,2.928-14.132,4.206-22.563.559-3.622.962-7.313,1.352-10.885.543-4.956,1.1-10.082,2.082-15.022,3.614-18.094,10.428-35.382,20.834-52.852A256.306,256.306,0,0,1,1340.876,4402c9.41-9.183,19.317-18.177,28.937-26.908,4.36-3.957,9.3-8.44,14.107-12.876,13.673-12.612,30.2-21.572,50.541-27.395,8.4-2.426,17.3-3.684,25.91-4.9l.232-.032q2.492-.353,4.978-.713c7.079-1.028,14.346-1.623,21.373-2.2,11.027-.9,22.43-1.838,33.482-4.459,11.984-2.865,25.883-6.96,38.106-15.607a310.406,310.406,0,0,0,32.973-27.271c12.366-11.544,27.155-20.78,45.209-28.235a120.193,120.193,0,0,1,35.261-8.453c10.282-.994,19.376,2.326,28.617,10.449,6.854,5.994,12.736,13.16,18.437,20.106,2.635,3.209,5.36,6.529,8.153,9.7,14.171,16.022,25.056,28.169,35.3,39.386,3.351,3.654,6.878,7.257,10.319,10.775,4.9,5.01,9.976,10.191,14.609,15.609,7.265,8.463,11,17.952,11.091,28.2.031,2.511-.071,5.372-1.062,7.54l-.429.953c-2.559,5.674-5.2,11.542-9.786,15.936q-6.9,6.65-13.851,13.267l-.272.26c-5.507,5.26-11.2,10.7-16.772,16.082-6.542,6.331-13.831,14.185-18.289,24.424-6.229,14.229-6.662,28.289-1.286,41.794,6.476,16.277,17.024,29.384,32.243,40.072,8.365,5.905,17.595,10.339,26.521,14.627,3.49,1.678,7.1,3.411,10.665,5.241l.982.544c1.938,1.107,3.949,2.166,5.9,3.192a82.853,82.853,0,0,1,12.89,7.817c10.177,8.08,16.626,17,19.716,27.283,2.564,8.537,5.173,19.773,2.559,30.975a58.141,58.141,0,0,1-14.131,26.066c-17.5,19.079-31.827,35.4-44.9,53.013a136.32,136.32,0,0,1-11.354,13.475l-3.7,4.326c-8.962,9.166-18.228,18.644-30.123,24.986a117.706,117.706,0,0,1-45.772,13.877,124.384,124.384,0,0,1-31.687-.928c-3.929-.68-7.888-1.6-11.717-2.493-2.416-.564-4.914-1.145-7.415-1.666q-3.311-.7-6.628-1.416c-7.86-1.684-15.99-3.426-24.06-4.836a106.475,106.475,0,0,0-14.834-1.147l-1.739-.054c-8.985-.216-17.425,2.25-24.5,4.692a40.073,40.073,0,0,0-16.784,11.233c-6.571,7.38-6.926,17.182-1,27.6a78.136,78.136,0,0,0,10.2,13.927l-2.067-.1a78.806,78.806,0,0,1-9.419-13.108c-6.264-11.007-5.846-21.413,1.177-29.3a41.561,41.561,0,0,1,17.4-11.646c7.2-2.485,15.8-5,25.021-4.774l1.743.054a107.389,107.389,0,0,1,15.042,1.169c8.1,1.414,16.242,3.159,24.117,4.847q3.314.711,6.622,1.413c2.516.526,5.023,1.11,7.446,1.675,3.809.886,7.748,1.8,11.633,2.476a122.821,122.821,0,0,0,31.312.91,116.194,116.194,0,0,0,45.2-13.708c11.693-6.233,20.878-15.63,29.728-24.678l3.627-4.246.086-.094a135.383,135.383,0,0,0,11.245-13.345c13.111-17.669,27.471-34.019,45-53.133a56.684,56.684,0,0,0,13.785-25.411c2.534-10.862-.024-21.855-2.537-30.218-3-9.982-9.287-18.668-19.22-26.554a81.92,81.92,0,0,0-12.663-7.669c-1.957-1.03-3.98-2.095-5.931-3.211l-.953-.528c-3.528-1.809-7.127-3.538-10.609-5.212-8.98-4.314-18.267-8.776-26.733-14.751-15.46-10.857-26.176-24.18-32.763-40.732-5.525-13.88-5.087-28.321,1.306-42.919,4.559-10.473,11.967-18.461,18.613-24.893,5.573-5.385,11.269-10.825,16.806-16.114l.245-.234q6.933-6.624,13.847-13.263c4.378-4.2,6.964-9.935,9.465-15.483l.43-.956c.873-1.908.961-4.566.932-6.918-.091-9.9-3.7-19.066-10.738-27.262-4.6-5.381-9.657-10.543-14.576-15.57-3.418-3.493-6.951-7.1-10.321-10.777-10.246-11.224-21.138-23.377-35.314-39.4-2.811-3.191-5.545-6.521-8.2-9.756-5.651-6.884-11.494-14-18.258-19.917-8.913-7.836-17.653-11.041-27.5-10.089a118.821,118.821,0,0,0-34.838,8.347c-17.888,7.387-32.53,16.53-44.765,27.95a311.909,311.909,0,0,1-33.127,27.4c-12.429,8.792-26.495,12.94-38.618,15.838-11.162,2.647-22.622,3.586-33.7,4.494-7,.573-14.247,1.167-21.28,2.187q-2.489.365-4.984.714l-.233.033c-8.558,1.209-17.408,2.459-25.707,4.858-20.112,5.757-36.451,14.61-49.949,27.061-4.811,4.44-9.753,8.926-14.153,12.918-9.573,8.689-19.47,17.673-28.86,26.836a254.82,254.82,0,0,0-40.41,51.488c-10.319,17.326-17.076,34.462-20.656,52.389-.964,4.877-1.523,9.97-2.062,14.9-.392,3.586-.8,7.295-1.362,10.946-1.282,8.467-2.494,15.565-4.229,22.688a187.907,187.907,0,0,1-6.558,21.584c-3.812,10.194-10.111,20.255-19.823,31.661-9.255,10.865-19.008,21.524-28.441,31.833q-4.343,4.745-8.675,9.5c-8.758,9.631-18.643,21.028-25.111,34.472-3.772,7.843-6.932,15-7.406,23.126a92.236,92.236,0,0,0,3.368,30.4c2.117,7.521,4.866,15.029,7.525,22.288,1.293,3.53,2.629,7.179,3.894,10.832a147.858,147.858,0,0,1,5.538,19.379l-1.523-.071A147.824,147.824,0,0,0,1190.568,4771.63Z" fill="#f2f6f7"/>
                            </g>
                        </g>
                        <g id="Сгруппировать_12" data-name="Сгруппировать 12">
                            <path id="Контур_8" data-name="Контур 8" d="M1488.613,4610.239a71.264,71.264,0,0,0,14.455-.759c7.732-1.211,13.371-4.892,17.236-11.257a92.6,92.6,0,0,0,9.921-23.081c1.367-4.768,2.954-9.573,4.49-14.218q.749-2.266,1.491-4.533l1.762-5.437q2.1-6.471,4.18-12.968l.64-1.975c1.554-4.8,3.16-9.761,4.641-14.7.9-3,1.759-6.259,2.542-9.7.449-2.024.924-4.038,1.4-6.051,1.227-5.209,2.5-10.6,3.291-16,1.775-12.157,3.16-26.494-.019-40.656-1.529-6.887-4.288-12.335-8.435-16.655-9.93-10.4-22.471-15.58-33.43-19.276-13.12-4.373-27.059-4.222-42.614.464a85.062,85.062,0,0,0-29.062,15.673c-4.287,3.5-8.695,7-12.957,10.393-7.615,6.057-15.489,12.321-22.977,18.784a78.412,78.412,0,0,0-21.8,29.955c-3.674,9.038-3.584,18.166-3.213,26.014.812,16.524,6.516,33.045,17.439,50.51a83.557,83.557,0,0,0,35.366,31.577c7.252,3.445,16.945,7.642,27.633,9.55,3.3.581,6.607,1.425,9.808,2.241,1.324.337,2.646.674,3.971.993l.347-1.426c-1.319-.32-2.635-.655-3.954-.99-3.227-.823-6.565-1.673-9.915-2.263-10.512-1.878-20.087-6.026-27.254-9.43a82.094,82.094,0,0,1-34.75-31.029c-10.787-17.245-16.418-33.536-17.218-49.8-.364-7.691-.454-16.631,3.107-25.391a76.979,76.979,0,0,1,21.4-29.4c7.465-6.442,15.328-12.7,22.932-18.744,4.267-3.394,8.678-6.9,12.969-10.406a83.623,83.623,0,0,1,28.558-15.4c15.25-4.6,28.9-4.75,41.715-.478,10.786,3.637,23.123,8.727,32.832,18.9,4.011,4.179,6.573,9.25,8.064,15.96,3.125,13.93,1.753,28.1,0,40.125-.787,5.341-2.048,10.7-3.268,15.875-.476,2.019-.951,4.039-1.4,6.065-.773,3.4-1.619,6.632-2.514,9.6-1.477,4.923-3.081,9.879-4.632,14.67l-.641,1.98q-2.069,6.5-4.179,12.962l-1.762,5.436q-.738,2.263-1.489,4.527c-1.539,4.659-3.132,9.477-4.506,14.271a91.114,91.114,0,0,1-9.764,22.725c-3.628,5.974-8.928,9.43-16.2,10.568a74.157,74.157,0,0,1-23.394-.216,16.213,16.213,0,0,0-3.218-.1c-.441.016-.88.031-1.312.03l0,1.468c.451,0,.909-.015,1.367-.03a15.1,15.1,0,0,1,2.931.084A86.2,86.2,0,0,0,1488.613,4610.239Z" fill="#f2f6f7"/>
                        </g>
                        <g id="Сгруппировать_13" data-name="Сгруппировать 13">
                            <path id="Контур_9" data-name="Контур 9" d="M1678.6,4661.277l-.754,1.641c-.577-.263-1.156-.52-1.735-.775-1.239-.547-2.518-1.113-3.752-1.743-11.313-5.765-17.819-12.413-21.1-21.565-2.9-8.17-2.086-14.578,2.553-20.168,4.258-5.128,15.458-7.925,23.517-3.846,12.866,6.505,19.7,15.282,21.505,27.618a17.886,17.886,0,0,1-3.5,13.983,17.376,17.376,0,0,1-12.449,6.282c-.872.062-1.753.148-2.628.231-.5.049-1,.1-1.5.14Zm-23.08-41.2c-4.151,5-4.821,10.561-2.174,18.027,3.074,8.577,9.248,14.85,20.022,20.339,1.178.6,2.428,1.155,3.638,1.691.555.244,1.111.49,1.664.741.455-.04.913-.085,1.373-.129.893-.085,1.793-.172,2.678-.235a15.186,15.186,0,0,0,10.886-5.464,15.708,15.708,0,0,0,3.038-12.289c-1.692-11.564-8.147-19.815-20.315-25.968a16.76,16.76,0,0,0-6.786-1.692C1663.882,4614.829,1658.1,4616.964,1655.517,4620.073Z" fill="#f2f6f7"/>
                        </g>
                        <g id="Сгруппировать_14" data-name="Сгруппировать 14">
                            <path id="Контур_10" data-name="Контур 10" d="M1517.349,4637.555l-.631,2.087c-1.885-.566-3.775-1.114-5.665-1.662-4.367-1.269-8.883-2.581-13.27-4.081-12.1-4.026-24.344-8.319-36.184-12.469l-.324-.114c-2.312-.812-4.634-1.6-6.958-2.4-6.191-2.108-12.595-4.289-18.74-6.853a94.467,94.467,0,0,1-39.448-31.057,138.943,138.943,0,0,1-25.005-56.585c-2.037-10.347-2.444-19.475-1.243-27.9,1.432-10.226,5.8-20.185,12.965-29.6,8.567-11.344,19.4-20.533,29.756-28.97q3.4-2.787,6.784-5.612c4.729-3.933,9.619-8,14.576-11.835,11.493-8.877,22.595-14.943,33.941-18.545,8.582-2.712,17.807-3.9,29.918-3.856a95.447,95.447,0,0,1,18.7,1.905c4.827,1,9.616,2.452,14.246,3.853,2.5.756,5.079,1.536,7.625,2.235a110.977,110.977,0,0,1,28.374,12.009c5.382,3.266,10.8,7.189,13.936,13.724,5.654,11.753,4.795,24.271,3.43,36.091a131.854,131.854,0,0,1-6.637,28.623c-1.581,4.435-3.131,8.953-4.628,13.324-1.311,3.831-2.668,7.791-4.041,11.676-1.361,3.844-2.818,7.722-4.228,11.471-3.028,8.055-6.158,16.383-8.459,24.765-2.692,9.833-3.9,20.145-5,30.726-.8,7.748-.826,15.759-.85,23.507l-.01,2.821c-.081,9.547-6.989,23.3-19.753,24.281-3.238.243-6.518.373-9.69.5q-1.7.067-3.392.139Zm-19.538-237.244c-11.867-.045-20.884,1.113-29.236,3.752-11.093,3.522-21.971,9.471-33.255,18.186-4.926,3.81-9.8,7.865-14.516,11.786q-3.391,2.82-6.8,5.625c-10.254,8.354-20.972,17.443-29.393,28.594-6.941,9.113-11.16,18.726-12.54,28.577-1.165,8.183-.765,17.072,1.223,27.172a136.779,136.779,0,0,0,24.61,55.7,92.283,92.283,0,0,0,38.529,30.339c6.074,2.534,12.441,4.7,18.6,6.8,2.331.794,4.66,1.587,6.977,2.4l.325.114c11.831,4.149,24.065,8.438,36.158,12.462,4.347,1.486,8.837,2.789,13.18,4.051,1.9.551,3.792,1.1,5.684,1.668l-.006.023c1.133-.051,2.268-.1,3.4-.14,3.152-.126,6.412-.254,9.609-.5,11.441-.882,17.637-13.4,17.711-22.1l.01-2.812c.023-7.8.048-15.869.86-23.727,1.107-10.675,2.327-21.086,5.063-31.08,2.328-8.48,5.477-16.856,8.521-24.956,1.406-3.74,2.86-7.607,4.213-11.431,1.37-3.875,2.724-7.83,4.036-11.656,1.5-4.376,3.049-8.9,4.636-13.352a129.632,129.632,0,0,0,6.525-28.141c1.328-11.5,2.171-23.657-3.229-34.882-2.891-6.016-8-9.7-13.09-12.793a108.86,108.86,0,0,0-27.809-11.766c-2.575-.706-5.171-1.492-7.681-2.25-4.585-1.387-9.326-2.821-14.055-3.806a90.444,90.444,0,0,0-14.174-1.748Q1499.873,4400.325,1497.811,4400.311Z" fill="#f2f6f7"/>
                        </g>
                        <g id="Сгруппировать_15" data-name="Сгруппировать 15">
                            <path id="Контур_11" data-name="Контур 11" d="M1526.872,4660.572c1.86-.163,3.758-.295,5.594-.424,4.094-.285,8.328-.579,12.454-1.234,16.686-2.649,28.36-11.921,34.7-27.561,2.113-5.216,1.383-10.909.739-15.932-.453-3.524-1.029-7.089-1.584-10.535-.925-5.737-1.882-11.669-2.3-17.524-.514-7.527.506-15.591,3.211-25.372,2.67-9.685,7.271-18.624,11.719-27.269,1.269-2.464,2.58-5.012,3.828-7.541,6.02-12.227,10.392-22.752,12.156-34.384.394-2.626.811-5.25,1.227-7.874.8-5.064,1.634-10.3,2.283-15.477,1.156-9.463,2.145-17.992,2.562-26.551a135.621,135.621,0,0,0-.628-20.81c-.822-7.271-5.335-12.795-13.055-15.978a69.092,69.092,0,0,0-12.312-4.1c-10.471-2.174-20.942-3.988-30.769-5.66q-3.513-.6-7.023-1.206c-9.219-1.594-18.75-3.243-28.185-4.373-13.29-1.622-29.016-2.933-44.876-.334a93.582,93.582,0,0,0-45.185,20.848c-3.985,3.3-8.095,6.594-12.069,9.782-6.93,5.558-14.1,11.305-20.874,17.283-9.371,8.276-16.952,15.458-23.492,23.612a65.659,65.659,0,0,0-14.529,35.483c-.792,9.564.1,19.615,2.9,32.592,3.853,17.823,11.692,33.936,19.591,48.693a104.828,104.828,0,0,0,57.848,49.743l3.228,1.206c18.406,6.87,37.437,13.975,55.556,22.5,9.8,4.619,18.3,7.266,26.762,8.33l.183-1.458c-8.3-1.043-16.661-3.649-26.315-8.2-18.174-8.552-37.235-15.666-55.67-22.547l-3.227-1.206a107.463,107.463,0,0,1-26.414-13.826,106.36,106.36,0,0,1-30.65-35.232c-7.848-14.663-15.636-30.664-19.449-48.31-2.765-12.83-3.651-22.747-2.871-32.161a64.211,64.211,0,0,1,14.212-34.69c6.474-8.071,14-15.2,23.318-23.43,6.752-5.953,13.9-11.69,20.821-17.237,3.978-3.191,8.092-6.49,12.087-9.8a92.138,92.138,0,0,1,44.48-20.528c15.679-2.57,31.275-1.268,44.461.343,9.4,1.124,18.91,2.77,28.109,4.361q3.513.608,7.028,1.208c9.813,1.669,20.269,3.479,30.718,5.649a67.812,67.812,0,0,1,12.045,4.016c7.3,3.009,11.386,7.983,12.154,14.782a134.154,134.154,0,0,1,.62,20.58c-.414,8.508-1.4,17.008-2.552,26.44-.647,5.149-1.475,10.375-2.277,15.428-.416,2.628-.833,5.256-1.228,7.884-1.735,11.445-6.061,21.852-12.021,33.955-1.243,2.518-2.551,5.061-3.817,7.519-4.482,8.71-9.118,17.718-11.829,27.55-2.75,9.945-3.785,18.164-3.26,25.862.418,5.923,1.38,11.887,2.31,17.656.555,3.436,1.127,6.987,1.579,10.488.62,4.844,1.324,10.335-.645,15.2-6.129,15.13-17.421,24.1-33.562,26.66-4.061.645-8.262.938-12.324,1.222-1.842.128-3.748.261-5.621.424Z" fill="#f2f6f7"/>
                        </g>
                        <g id="Сгруппировать_16" data-name="Сгруппировать 16">
                            <path id="Контур_12" data-name="Контур 12" d="M1450.911,4544.669l-.669,2c-12.022-4.006-19.251-10.694-22.1-20.447-1.652-5.658-3.061-11.65-.635-17.253,6.486-14.975,17.385-22.871,32.391-23.465,6.184-.258,15.643,4.236,18.134,10.2,5.183,12.463,5.315,23.125.418,33.555-4.98,10.64-12.847,16.324-24.069,17.38-.751.059-1.52.076-2.263.093-.378.009-.755.019-1.128.032Zm9.082-56.967c-14.283.566-24.244,7.807-30.451,22.138-2.137,4.931-.812,10.492.728,15.766,2.663,9.12,9.22,15.145,20.638,18.957v-.006c.384-.015.772-.024,1.162-.033.713-.016,1.451-.033,2.123-.085,10.355-.975,17.635-6.247,22.256-16.119,4.616-9.831,4.471-19.929-.456-31.777-1.789-4.282-9.2-8.567-14.974-8.837C1460.671,4487.69,1460.327,4487.688,1459.993,4487.7Z" fill="#f2f6f7"/>
                        </g>
                        <g id="Сгруппировать_17" data-name="Сгруппировать 17">
                            <path id="Контур_13" data-name="Контур 13" d="M1452.831,4568.464l.454-.009c1.706-.028,3.419-.059,5.12-.109,17.329-.45,29.82-8.755,38.177-25.387a89.124,89.124,0,0,0,8.785-30.54,71.98,71.98,0,0,0-.225-14.777l-.069-.708c-.828-8.53-1.686-17.35-5.868-25.4-5.041-9.779-12.132-15.1-21.077-15.813-6.7-.555-13.331,1.2-17.729,2.772-11.388,4.113-20.186,8.69-27.69,14.4-10.435,7.945-17.648,16.675-22.053,26.69a32.608,32.608,0,0,0-2.736,14.823c.6,12.207,3.611,22.132,9.208,30.339,3.691,5.387,8.945,9.719,14.026,13.91l.083.069c5.641,4.648,12.529,7.813,21.061,9.676l.314-1.434c-8.3-1.813-14.98-4.879-20.434-9.374l-.083-.068c-5-4.125-10.176-8.392-13.748-13.6-5.439-7.977-8.367-17.654-8.954-29.584a31.155,31.155,0,0,1,2.614-14.163c4.3-9.781,11.368-18.324,21.6-26.114,7.382-5.621,16.056-10.128,27.294-14.188,4.259-1.519,10.691-3.219,17.109-2.689,8.4.669,15.094,5.722,19.885,15.02,4.053,7.8,4.9,16.475,5.711,24.867l.069.708a70.679,70.679,0,0,1,.229,14.471,87.74,87.74,0,0,1-8.638,30.047c-8.093,16.1-20.164,24.142-36.9,24.576-1.7.05-3.405.08-5.1.11l-.455.008Z" fill="#f2f6f7"/>
                        </g>
                        <g id="Сгруппировать_18" data-name="Сгруппировать 18">
                            <path id="Контур_14" data-name="Контур 14" d="M1684.715,4688.925c16.386.765,29.62-7.535,36.579-23.528,7.271-16.757,2.527-32.368-2.419-44.1-5.628-13.347-15.9-23.118-25.836-32.566l-2.012-1.917c-3.178-3.025-6.481-6.029-9.675-8.935-6.033-5.487-12.272-11.163-17.9-17.191a77.1,77.1,0,0,1-18.086-32.386,213.276,213.276,0,0,1-7.48-52.225c-.252-12.438,1.421-25.409,5.115-39.653,1.891-7.282,4.484-14.526,6.991-21.531,1.115-3.118,2.269-6.34,3.348-9.527.162-.475.328-.953.5-1.429,1.492-4.29,3.036-8.726,2.681-13.662a19.31,19.31,0,0,0-6.639-13.238,16.152,16.152,0,0,0-11.832-3.991,285.1,285.1,0,0,0-30.692,3.805c-12.831,2.362-28.036,4.716-43.52,4.272-7.024-.216-14.161-.585-21.064-.941-4.094-.213-8.19-.425-12.287-.607-3.694-.164-7.46-.374-11.1-.577-8.747-.486-17.791-.991-26.682-.9-23.05.162-41.769,5.385-57.224,15.969-9.738,6.675-19.016,14.245-27.2,20.923-8.7,7.1-17.762,14.858-28.515,24.421a99.977,99.977,0,0,0-25.785,34.9,68.349,68.349,0,0,0-5.692,28.133,147.463,147.463,0,0,0,12.461,58.639c6.509,15.008,12.88,28.428,19.477,41.029a100.266,100.266,0,0,0,27.591,32.408c6.37,4.957,14.344,9.022,25.092,12.794,16.1,5.666,32.866,11.774,51.245,18.673,2.3.865,4.621,1.784,6.87,2.672,7.871,3.11,16.01,6.325,24.589,7.9a4.958,4.958,0,0,1,1.278.6c.293.169.6.344.921.492l.615-1.334c-.271-.124-.535-.277-.8-.429a6.059,6.059,0,0,0-1.727-.768c-8.461-1.552-16.531-4.74-24.336-7.823-2.253-.89-4.584-1.811-6.893-2.681-18.39-6.9-35.163-13.013-51.274-18.685-10.594-3.717-18.435-7.71-24.675-12.566a98.793,98.793,0,0,1-27.192-31.93c-6.578-12.567-12.935-25.956-19.43-40.931a146.017,146.017,0,0,1-12.339-58.061,66.9,66.9,0,0,1,5.569-27.543,98.543,98.543,0,0,1,25.414-34.4c10.738-9.548,19.783-17.294,28.468-24.379,8.164-6.661,17.417-14.209,27.1-20.851,15.2-10.41,33.652-15.55,56.4-15.71,8.844-.085,17.863.418,26.587.9,3.642.2,7.41.416,11.116.578,4.094.182,8.185.394,12.275.607,6.911.355,14.057.726,21.1.943,15.623.448,30.925-1.921,43.833-4.3a283.586,283.586,0,0,1,30.537-3.785,14.7,14.7,0,0,1,10.756,3.641,17.837,17.837,0,0,1,6.129,12.227c.334,4.637-1.094,8.737-2.6,13.077q-.25.719-.5,1.439c-1.075,3.177-2.226,6.394-3.339,9.5-2.519,7.037-5.123,14.311-7.031,21.658-3.728,14.375-5.416,27.475-5.16,40.05a214.687,214.687,0,0,0,7.533,52.585,78.523,78.523,0,0,0,18.427,33c5.668,6.074,11.929,11.769,17.985,17.277,3.187,2.9,6.484,5.9,9.649,8.911l2.014,1.918c9.826,9.344,19.985,19.007,25.494,32.072,4.832,11.46,9.473,26.7,2.425,42.945-8.283,19.034-25.835,26.741-46.946,20.612-9.26-2.714-18.185-7.694-26.059-12.088-8.763-4.844-20.542-10.589-33.976-12.044-.511-.054-1.023-.113-1.539-.172-2.872-.331-5.842-.671-8.593-.016a223.305,223.305,0,0,0-24.323,7.2c-21.445,7.986-39.535,10.478-56.935,7.848a7.82,7.82,0,0,0-2.235.066c-.3.039-.6.077-.9.1l.1,1.466c.326-.022.656-.063.988-.1a6.763,6.763,0,0,1,1.825-.073c17.661,2.671,35.988.155,57.677-7.923a221.833,221.833,0,0,1,24.154-7.153c2.494-.594,5.33-.267,8.076.048.521.06,1.039.12,1.551.172,13.169,1.428,24.775,7.092,33.413,11.867,7.94,4.431,16.943,9.455,26.364,12.216A52.3,52.3,0,0,0,1684.715,4688.925Z" fill="#f2f6f7"/>
                        </g>
                        <g id="Сгруппировать_19" data-name="Сгруппировать 19">
                            <path id="Контур_15" data-name="Контур 15" d="M1684.736,4701.949a52.764,52.764,0,0,0,30.4-7.98c5.565-3.392,9.939-8.928,12.629-12.977,6.236-9.4,9.624-17.727,10.664-26.211a71.958,71.958,0,0,0-1.49-25.332c-3.025-12.992-9.472-25.045-19.159-35.82q-3.691-4.086-7.415-8.14c-7.749-8.475-15.763-17.238-23.094-26.293-14.462-17.932-23.851-36.369-28.7-56.363-3.625-14.925-4.936-26.521-4.251-37.6a113.524,113.524,0,0,1,5.349-27.956c3.727-11.455,9.585-22.131,15.252-32.455,1.435-2.616,2.919-5.32,4.348-8,5.426-10.09,6.461-19,3.252-28.034-2.827-7.978-9.317-11.752-15.722-14.935-5.479-2.7-11.721-3.606-19.653-2.839-12.7,1.189-24.877,5.158-36.653,9-3.568,1.163-7.257,2.366-10.9,3.469-16.007,4.826-28.576,7.2-40.755,7.7-6.188.26-12.521.112-18.646-.03-3.172-.073-6.452-.15-9.675-.168-4.64-.042-9.365-.13-13.935-.215-10.934-.2-22.24-.413-33.344-.007-20.7.763-38.977,6.6-54.329,17.345-8.637,6.032-16.786,12.5-26.364,20.347-10.324,8.448-19.6,16.122-28.514,24.5-9,8.457-18.177,17.928-24.37,29.858-6.194,11.967-9.556,22.331-10.58,32.617a98.867,98.867,0,0,0,.108,19.7,180.285,180.285,0,0,0,8.575,39.679c7.19,20.938,16.394,42.634,28.965,68.283,6.556,13.371,13.568,23.076,22.064,30.542,6.1,5.358,12.446,8.916,18.859,10.575,7.321,1.887,14.82,3.492,22.074,5.044,5.459,1.168,11.1,2.376,16.625,3.694,4.233,1.007,8.488,2.342,12.6,3.633,2.167.68,4.409,1.382,6.63,2.033q2.563.747,5.121,1.51c5.331,1.582,10.843,3.218,16.359,4.581,5.434,1.338,11,2.487,16.387,3.6q3.714.765,7.422,1.552l.465-2.155c-2.475-.531-4.958-1.043-7.44-1.555-5.364-1.108-10.911-2.253-16.3-3.579-5.464-1.352-10.952-2.98-16.259-4.555q-2.562-.76-5.129-1.512c-2.2-.645-4.431-1.344-6.589-2.021-4.151-1.3-8.445-2.648-12.753-3.674-5.544-1.324-11.2-2.535-16.677-3.706-7.23-1.547-14.707-3.147-21.983-5.022-6.072-1.57-12.111-4.966-17.949-10.1-8.27-7.266-15.114-16.752-21.537-29.855-12.53-25.563-21.7-47.179-28.862-68.028a178.079,178.079,0,0,1-8.467-39.195,96.687,96.687,0,0,1-.108-19.259c1-10,4.284-20.11,10.345-31.821,6.041-11.636,15.068-20.944,23.923-29.266s18.11-15.982,28.4-24.4c9.538-7.819,17.648-14.254,26.23-20.247,15-10.5,32.875-16.2,53.139-16.946,11.042-.4,22.317-.194,33.22.008,4.576.084,9.307.172,13.962.213,3.207.02,6.477.1,9.638.169,6.161.143,12.531.291,18.792.027,12.371-.506,25.11-2.91,41.305-7.794,3.661-1.11,7.361-2.316,10.939-3.481,11.661-3.8,23.718-7.731,36.177-8.9,7.5-.725,13.367.107,18.456,2.618,6.246,3.1,12.065,6.487,14.619,13.695,2.987,8.41,1.995,16.755-3.118,26.263-1.425,2.669-2.905,5.368-4.337,7.977-5.715,10.414-11.624,21.182-15.414,32.834a115.649,115.649,0,0,0-5.454,28.5c-.7,11.306.631,23.1,4.31,38.251,4.929,20.316,14.458,39.035,29.13,57.227,7.375,9.108,15.412,17.9,23.183,26.4q3.711,4.057,7.4,8.128a78.557,78.557,0,0,1,18.652,34.847,69.832,69.832,0,0,1,1.447,24.564c-1,8.135-4.273,16.162-10.313,25.266-2.565,3.861-6.72,9.131-11.941,12.313-14.183,8.682-29.608,10.106-45.85,4.223-6.4-2.322-12.817-5-19.018-7.584-6.378-2.66-12.972-5.41-19.581-7.789a75.674,75.674,0,0,0-19.851-3.987c-10.957-.877-21.864,1.885-31.484,4.318a207.8,207.8,0,0,1-40.165,6.438c-3.774.2-7.648.144-11.393.089-1.713-.024-3.428-.049-5.143-.052v2.2c1.7,0,3.409.027,5.112.053,3.783.055,7.695.112,11.547-.093a210.06,210.06,0,0,0,40.59-6.5c9.452-2.39,20.163-5.094,30.769-4.257a73.517,73.517,0,0,1,19.271,3.864c6.554,2.359,13.122,5.1,19.475,7.749,6.226,2.6,12.663,5.282,19.117,7.623A59.045,59.045,0,0,0,1684.736,4701.949Z" fill="#f2f6f7"/>
                        </g>
                        <g id="Сгруппировать_20" data-name="Сгруппировать 20">
                            <path id="Контур_16" data-name="Контур 16" d="M1403.41,4704.822c5.89-.111,11.258-2.244,16.45-4.309.978-.389,1.958-.778,2.942-1.154,9.24-3.523,18.8-7.164,29.073-7.016a126.939,126.939,0,0,1,15.613,1c5.344.72,10.763,1.609,16,2.466s10.628,1.74,15.963,2.461c22.42,3.1,45.893,2.112,71.761-3.006l1.331-.265c9.959-1.981,20.255-4.031,30.639-3.721a93.761,93.761,0,0,1,28.082,4.791c6.346,2.2,12.771,4.515,18.984,6.753,4.915,1.772,10,3.6,15.009,5.366a66.048,66.048,0,0,0,40.372,1.534c9.568-2.619,17.018-6.783,22.773-12.728,8-8.281,13.95-18.148,18.714-31.05,5.141-13.809,5.49-28.593,1.067-45.193-2.854-10.617-8.584-20.563-18.035-31.3q-3.381-3.839-6.789-7.663c-6.776-7.619-13.781-15.5-20.31-23.537-17.166-21.149-28.017-42.621-33.173-65.643a96.1,96.1,0,0,1-2.144-27.488c1.161-17.674,6.977-34.013,17.781-49.947a196.35,196.35,0,0,0,16.334-28.233c4.019-8.832,1.962-17.365-.278-23.812-4.378-12.506-14.826-19.019-23.441-23.3a50.86,50.86,0,0,0-11.92-4.417c-9.062-1.871-18.831-1.153-29.876,2.2-10.05,3.054-19.968,7.106-29.56,11.023l-1.933.79c-21.586,8.826-40.059,13.257-58.137,13.944-8.332.31-16.82.222-25.03.135q-2.809-.03-5.615-.054l-1.525-.012c-18.768-.148-38.173-.3-57.022,4.052-11.321,2.609-21.628,7.831-30.217,12.593-8.478,4.757-15.9,11.116-23.086,17.266-1.9,1.628-3.871,3.314-5.827,4.943-8.731,7.292-19.6,16.366-29.777,25.318-14.282,12.608-24.978,27.271-31.79,43.585a86.412,86.412,0,0,0-6.333,27.563c-1.1,15.362.731,31.672,5.609,49.858,2.682,9.976,6.08,19.911,9.366,29.518,1.88,5.491,3.821,11.169,5.6,16.785,3.09,9.74,6.17,19.662,9.149,29.259,3.773,12.154,7.676,24.723,11.631,37.041,3.134,9.706,7.066,20.867,14.085,30.5a35.411,35.411,0,0,0,16.86,12.985l.5-1.383a33.51,33.51,0,0,1-16.161-12.462c-6.894-9.464-10.778-20.5-13.877-30.093-3.952-12.309-7.854-24.874-11.625-37.026-2.981-9.6-6.062-19.524-9.152-29.269-1.789-5.631-3.734-11.316-5.614-16.815-3.28-9.584-6.671-19.494-9.338-29.423-4.836-18.026-6.656-34.177-5.563-49.376a84.946,84.946,0,0,1,6.225-27.1c6.725-16.106,17.291-30.59,31.4-43.048,10.165-8.939,21.022-18.006,29.747-25.293,1.963-1.634,3.935-3.323,5.842-4.956,7.127-6.1,14.5-12.414,22.844-17.1,8.5-4.711,18.688-9.875,29.83-12.443,18.678-4.315,38-4.163,56.677-4.015l1.525.011q2.8.024,5.611.054c8.228.087,16.735.176,25.1-.134,18.257-.695,36.89-5.161,58.641-14.054l1.932-.79c9.561-3.905,19.447-7.944,29.431-10.977,10.8-3.277,20.335-3.986,29.14-2.165a49.434,49.434,0,0,1,11.566,4.294c8.365,4.154,18.5,10.461,22.706,22.465,2.151,6.187,4.131,14.364.328,22.725a194.924,194.924,0,0,1-16.214,28.018c-10.954,16.155-16.852,32.729-18.029,50.671a97.56,97.56,0,0,0,2.176,27.9c5.206,23.248,16.153,44.918,33.466,66.247,6.549,8.064,13.566,15.957,20.352,23.588q3.4,3.825,6.785,7.656c9.3,10.563,14.925,20.322,17.718,30.711,4.343,16.3,4.007,30.789-1.026,44.306-4.691,12.706-10.535,22.411-18.391,30.541-5.567,5.75-12.8,9.783-22.1,12.331a64.617,64.617,0,0,1-39.487-1.5c-5.007-1.761-10.087-3.592-15-5.363-6.218-2.24-12.648-4.556-19.005-6.76a95.321,95.321,0,0,0-28.52-4.872c-10.552-.314-20.932,1.752-30.972,3.75l-1.33.264c-25.7,5.086-49.019,6.068-71.273,2.992-5.316-.718-10.71-1.6-15.924-2.456-5.25-.859-10.678-1.748-16.038-2.472a128.058,128.058,0,0,0-15.8-1.015c-10.559-.155-20.249,3.538-29.621,7.111-.991.38-1.975.77-2.96,1.163-5.3,2.108-10.309,4.1-15.929,4.2Z" fill="#f2f6f7"/>
                        </g>
                        <g id="Сгруппировать_21" data-name="Сгруппировать 21">
                            <path id="Контур_17" data-name="Контур 17" d="M1455.6,4585.836c1.305.009,2.644.053,3.939.094a71.456,71.456,0,0,0,9.093-.094c5.78-.6,10.957-1.229,15.859-2.86,14.119-4.709,21.387-16.4,26.634-27.217a160.174,160.174,0,0,0,11.111-31.149c4.983-19.737,5.535-39.746,1.688-61.169-2.615-14.651-11.291-25.011-25.79-30.794a29.708,29.708,0,0,0-11.529-1.741c-11.22.2-22.243,3.734-34.686,11.124a227.121,227.121,0,0,0-33.012,23.676c-12.509,10.873-20.284,22.288-23.771,34.9-1.352,4.857-1,10.188-.667,15.346l.088,1.37c.765,12.333,5.083,24.7,12.837,36.763a64.215,64.215,0,0,0,21.84,21.013c9.422,5.452,17.615,8.831,25.784,10.636l.478-2.151c-7.94-1.755-15.932-5.057-25.15-10.388a62.068,62.068,0,0,1-21.089-20.3c-7.548-11.741-11.751-23.755-12.492-35.71l-.088-1.377c-.325-4.974-.66-10.117.593-14.616,3.415-12.349,10.752-23.1,23.093-33.823a224.991,224.991,0,0,1,32.692-23.445c12.1-7.184,22.772-10.621,33.595-10.812a27.515,27.515,0,0,1,10.665,1.584c13.739,5.478,21.959,15.281,24.43,29.131,3.791,21.111,3.25,40.818-1.654,60.247a158.05,158.05,0,0,1-10.958,30.725c-5.047,10.405-12.006,21.64-25.345,26.09-4.689,1.559-9.739,2.172-15.378,2.757a70.07,70.07,0,0,1-8.8.084c-1.309-.043-2.661-.087-3.993-.1Z" fill="#f2f6f7"/>
                        </g>
                        <g id="Сгруппировать_22" data-name="Сгруппировать 22">
                            <path id="Контур_18" data-name="Контур 18" d="M1581.438,4781.429c1.73-4.821,6.076-8.742,12.919-11.651,7.92-3.363,16.919-4.071,28.323-2.229,3.659.592,7.369,1.229,10.957,1.844,8.144,1.4,16.565,2.842,24.9,3.856,24.329,2.946,45.732,1.365,65.427-4.833a110.968,110.968,0,0,0,29.6-13.9c4.528-3.079,8.884-6.615,13.1-10.035q1.6-1.3,3.206-2.592l3.128-3.023q5.633-6.114,11.226-12.257c10.142-11.1,20.63-22.588,31.308-33.548,7.46-7.666,15.614-14.875,23.5-21.846q2.916-2.578,5.821-5.162a70,70,0,0,0,18.2-26.242c3.3-8.125,2.622-17.065,2.026-24.95a86.665,86.665,0,0,0-11.524-37.149c-4.719-8.182-11.239-14.638-21.8-21.588-9.206-6.057-46.834-23.188-47.212-23.359l-.077-.039c-15.769-8.711-26.705-19.886-33.438-34.164a44.5,44.5,0,0,1-3.952-24.849c2.082-17.461,12.816-29.445,23.04-38.866,4.545-4.2,9.232-8.385,13.764-12.437,5.368-4.8,10.92-9.765,16.267-14.763,6.563-6.132,11.528-13.888,15.185-23.712a17.9,17.9,0,0,0,.715-7.6c-.947-11.826-4.965-21.664-11.944-29.241-8.3-9-17.02-17.625-25.457-25.969a246.443,246.443,0,0,1-36.8-45.908c-5.833-9.483-11.816-20.958-11.965-34.162a37.286,37.286,0,0,1,2.107-13.77l2.367.111a34.167,34.167,0,0,0-2.262,13.634c.144,12.67,5.966,23.81,11.64,33.038a244.254,244.254,0,0,0,36.471,45.5c8.453,8.36,17.193,17,25.526,26.042,7.32,7.948,11.534,18.228,12.521,30.558a20.02,20.02,0,0,1-.847,8.538c-3.725,10.009-9.022,18.268-15.745,24.55-5.364,5.015-10.925,9.987-16.3,14.8-4.526,4.046-9.2,8.23-13.739,12.414-9.929,9.149-20.348,20.759-22.346,37.508a42.352,42.352,0,0,0,3.759,23.655c6.521,13.834,17.141,24.677,32.468,33.152,2.046.929,38.193,17.4,47.473,23.507,10.725,7.057,17.665,13.944,22.5,22.328a88.87,88.87,0,0,1,11.814,38.083c.612,8.127,1.308,17.338-2.183,25.942a72.18,72.18,0,0,1-18.771,27.056q-2.9,2.589-5.828,5.168c-7.854,6.944-15.977,14.126-23.378,21.733-10.654,10.936-21.13,22.4-31.261,33.5-3.737,4.091-7.475,8.185-11.277,12.309l-3.208,3.1-.078.067q-1.622,1.3-3.235,2.617c-4.25,3.449-8.645,7.015-13.248,10.146a113.129,113.129,0,0,1-30.187,14.182c-20,6.295-41.709,7.9-66.361,4.921-8.388-1.022-16.836-2.471-25.006-3.872-3.583-.615-7.288-1.251-10.936-1.841-10.972-1.772-19.584-1.111-27.1,2.081-6.253,2.659-10.192,6.146-11.706,10.366-1.386,3.862-.725,8.427,1.964,13.565a64.6,64.6,0,0,0,9.329,13.352l-3.039-.142a66.383,66.383,0,0,1-8.252-12.193C1580.539,4791.049,1579.836,4785.893,1581.438,4781.429Z" fill="#f2f6f7"/>
                        </g>
                        <g id="Сгруппировать_23" data-name="Сгруппировать 23">
                            <path id="Контур_19" data-name="Контур 19" d="M1168.646,4770.809q-.9-3.237-1.822-6.473c-3.622-12.775-7.366-25.983-8.606-39.681-.959-10.869-1.074-19.958,1.479-28.982a104.989,104.989,0,0,1,6.7-16.576c6.877-14.366,16.731-26.576,27.077-38.853,11.917-14.118,24.656-29.38,37.075-45.323a121.011,121.011,0,0,0,19.472-37.19c4.093-12.631,6.328-25.862,8.489-38.659.631-3.738,1.284-7.6,1.975-11.4,3.7-20.384,11.35-39.345,23.386-57.966,11.138-17.258,24.936-34.885,42.185-53.892a632.416,632.416,0,0,1,46.841-45.993,134.767,134.767,0,0,1,61.448-31.691c11.946-2.628,24.243-4.495,36.134-6.3,4.105-.623,8.209-1.246,12.3-1.9A195.912,195.912,0,0,0,1521.7,4299.8a58.624,58.624,0,0,0,9.486-5.111l.619-.384c12.925-8.089,24.194-18.759,35.093-29.078l.2-.19a282.9,282.9,0,0,1,28.986-24.374c6.118-4.438,12.68-8.424,19.026-12.279,3.253-1.977,6.576-4,9.856-6.094l3.787.177c-4.127,2.705-8.363,5.292-12.49,7.8-6.308,3.832-12.83,7.794-18.877,12.18a280.921,280.921,0,0,0-28.762,24.189l-.2.191c-10.977,10.393-22.328,21.139-35.444,29.349l-.622.386a60.194,60.194,0,0,1-9.862,5.3,198.1,198.1,0,0,1-39.358,10.253c-4.1.654-8.212,1.279-12.322,1.9-11.856,1.8-24.116,3.661-35.992,6.273a132.6,132.6,0,0,0-60.448,31.181,630.159,630.159,0,0,0-46.677,45.831c-17.166,18.915-30.893,36.45-41.966,53.606-11.875,18.374-19.423,37.073-23.07,57.167-.688,3.782-1.339,7.64-1.969,11.372-2.175,12.874-4.424,26.186-8.566,38.97a123.191,123.191,0,0,1-19.83,37.863c-12.442,15.973-25.2,31.256-37.128,45.389-10.25,12.165-20.01,24.253-26.774,38.386a103,103,0,0,0-6.569,16.223c-2.463,8.7-2.343,17.566-1.406,28.192,1.221,13.49,4.937,26.6,8.532,39.277q.918,3.242,1.826,6.486a146.335,146.335,0,0,1,4.05,19.248l-2.247-.1A144.423,144.423,0,0,0,1168.646,4770.809Z" fill="#f2f6f7"/>
                        </g>
                    </g>
                </g>
            </g>
        </g>
    </g>
</svg>
