<svg width="556" height="1032" viewBox="0 0 556 1032" fill="none" xmlns="http://www.w3.org/2000/svg">
    <path d="M876.265 355.816C866.053 348.333 860.173 337.451 856.235 328.673C850.127 315.206 852.266 301.695 862.47 290.662C866.877 285.778 872.424 281.799 877.841 277.875C880.315 276.086 882.958 274.151 885.416 272.139C892.245 266.635 899.964 259.768 905.394 250.328C909.666 242.898 910.275 234.381 907.2 226.394C903.708 217.585 896.143 210.767 886.468 207.729C877.756 204.982 868.92 206.19 862.253 207.647C842.852 211.618 825.215 221.518 808.551 238.207C797.792 249.01 786.844 257.137 775.124 263.21C767.815 267 759.765 269.182 751.888 269.38C736.766 269.821 720.952 266.187 701.984 257.888C686.303 251.061 671.449 241.978 657.111 233.218C651.159 229.559 645.022 225.823 638.9 222.31C624.925 214.241 608.14 205.116 589.668 198.755C577.538 194.591 564.141 192.175 548.794 191.332C519.137 189.751 489.654 195.063 458.575 207.615C438.827 215.557 419.104 224.482 400.034 233.138L397.774 234.149C383.224 240.782 371.873 247.009 361.999 253.848C340.717 268.623 323.489 288.76 307.737 317.087C301.733 327.912 295.928 339.037 290.37 349.831C285.325 359.648 280.034 369.795 274.674 379.589C263.478 400.062 248.323 417.81 229.717 432.396C222.196 438.262 214.067 443.768 206.276 448.982C201.481 452.19 196.518 455.544 191.739 458.976C179.146 467.935 168.084 476.339 159.456 487.484C146.715 503.852 140.543 520.562 140.389 538.686C140.168 562.194 144.668 585.278 154.378 609.116C159.492 621.846 165.554 631.505 173.307 639.699C181.444 648.27 189.33 653.272 197.24 654.82C207.928 656.979 219.635 656.421 235.129 652.995C242.857 651.328 250.662 649.476 258.243 647.64C264.241 646.23 270.461 644.804 276.59 643.34C295.437 639.139 315.164 641.69 336.903 651.138C350.921 657.275 363.754 667.577 377.166 683.531C393.907 703.464 407.402 727.572 417.118 755.31C419.97 763.312 422.707 771.592 425.244 779.573C428.499 789.475 431.786 799.823 435.541 809.825C442.581 828.874 457.142 842.057 478.931 849.036C497.833 855.142 517.135 856.11 535.259 856.264C551.136 856.352 569.973 855.828 588.964 850.496C611.515 844.15 629.625 832.065 642.827 814.589C655.836 797.575 662.979 781.916 665.474 765.197C665.96 761.934 666.67 758.656 667.342 755.47C668.349 750.692 669.341 745.69 669.794 740.682C671.115 725.749 673.796 710.406 678.145 693.914C682.28 678.199 689.231 663.002 698.938 648.732C710.801 631.35 723.132 613.622 736.8 594.499C744.513 583.732 752.349 573.449 762.643 565.593C775.826 555.471 787.68 555.082 802.087 564.196C808.24 568.155 814.226 573.56 819.345 580.013C824.317 586.297 828.667 593.297 832.871 600.128C834.291 602.449 835.802 604.808 837.222 607.129C839.535 610.686 841.642 614.483 843.541 618.518L845.035 614.915C843.368 611.626 841.624 608.521 839.711 605.563C838.292 603.242 836.742 600.976 835.323 598.655C831.026 591.785 826.714 584.693 821.557 578.332C816.292 571.71 810.013 565.967 803.583 561.893C788.182 552.042 774.898 552.488 760.74 563.397C750.107 571.545 742.194 582.013 734.313 592.926C720.645 612.049 708.221 629.739 696.32 647.213C686.406 661.723 679.34 677.196 675.144 693.319C670.811 710.034 668.091 725.469 666.694 740.587C666.225 745.372 665.233 750.374 664.264 755.06C663.593 758.246 662.937 761.655 662.45 764.917C660.055 781.137 653.065 796.425 640.432 813.055C627.591 829.922 610.042 841.698 588.106 847.866C569.469 853.129 550.946 853.675 535.2 853.533C517.392 853.401 498.314 852.418 479.78 846.465C458.954 839.777 445.017 827.178 438.263 809.005C434.6 799.042 431.275 788.786 428.02 778.884C425.391 770.865 422.746 762.623 419.84 754.49C409.923 726.453 396.359 701.991 379.378 681.85C365.62 665.427 352.456 654.881 338.068 648.59C315.775 638.912 295.416 636.316 275.862 640.656C269.772 642.028 263.513 643.547 257.516 644.957C249.972 646.7 242.168 648.552 234.44 650.219C219.392 653.614 208.039 654.102 197.758 652.004C190.386 650.463 183.109 645.821 175.319 637.719C167.859 629.862 162.035 620.411 156.953 608.127C147.444 584.589 142.882 561.912 143.174 538.758C143.359 521.081 149.202 505.425 161.606 489.35C169.987 478.535 180.881 470.279 193.305 461.465C198.084 458.034 203.047 454.679 207.842 451.471C215.671 446.166 223.8 440.66 231.452 434.739C250.358 419.953 265.85 401.911 277.199 381.069C282.598 371.183 287.85 361.128 292.934 351.219C298.492 340.425 304.296 329.3 310.263 318.567C325.731 290.664 342.713 270.858 363.565 256.338C373.269 249.645 384.397 243.433 398.817 236.855L401.077 235.844C420.147 227.188 439.87 218.263 459.488 210.375C490.136 198.077 519.266 192.836 548.422 194.317C563.547 195.176 576.666 197.477 588.519 201.526C606.806 207.811 623.406 216.859 637.289 224.89C643.411 228.402 649.548 232.138 655.408 235.759C669.838 244.558 684.692 253.64 700.65 260.582C719.987 269.034 736.209 272.73 751.739 272.35C760.062 272.12 768.466 269.868 776.297 265.862C788.279 259.68 799.434 251.315 810.4 240.273C826.65 224.061 843.764 214.378 862.588 210.493C868.863 209.198 877.253 208.022 885.319 210.5C894.124 213.285 901.011 219.389 904.179 227.415C906.968 234.525 906.427 242.095 902.592 248.733C897.445 257.749 889.933 264.377 883.273 269.735C880.854 271.654 878.249 273.497 875.775 275.286C870.32 279.303 864.604 283.428 860.028 288.459C848.995 300.447 846.712 315.089 853.306 329.732C857.444 338.809 863.54 350.214 874.269 358.019C883.011 364.351 892.525 368.296 903.497 370.031C918.732 372.452 933.138 371.389 946.787 368.497L948.166 365.171C934.271 368.395 919.473 369.62 904.054 367.123C893.728 365.656 884.583 361.863 876.265 355.816Z" fill="#F2F6F7"/>
    <path d="M845.357 396.153C834.786 390.579 826.087 382.316 817.627 374.261C815.223 371.966 812.819 369.67 810.285 367.428C797.396 355.696 784.533 346.248 771.128 338.632C765.338 335.365 759.379 332.245 753.605 329.201C743.973 324.232 734.01 319.018 724.931 312.98C707.527 301.432 689.958 288.193 672.572 273.73C650.079 254.876 630.714 239.701 609.016 227.022C587.225 214.305 568.014 207.638 548.642 206.317C524.578 204.565 503.136 206.932 482.962 213.29C461.127 220.257 440.843 229.492 423.88 237.505C407.831 245.14 391.26 252.991 375.529 261.948C352.597 274.957 334.222 294.726 319.315 322.321C308.342 342.778 298.239 363.487 288.818 383.072C276.117 409.525 258.594 432.462 236.926 451.299C224.759 461.843 212.131 472.195 199.878 482.162L195.638 485.6C185.767 493.74 178.947 504.443 173.424 513.845C169.305 520.906 166.534 528.634 165.592 535.604C162.948 555.294 165.381 574.49 172.727 592.8C183.171 618.783 204.487 632.385 229.727 629.211C245.147 627.27 260.889 624.812 276.692 621.947C289.796 619.587 302.98 619.641 315.708 622.104C331.474 625.07 344.668 630.324 356.066 638.082C376.412 651.932 393.334 669.342 406.392 689.805C417.938 707.908 428.064 728.129 439.049 755.419C439.968 757.64 440.795 759.823 441.622 762.007C445.454 771.823 449.486 781.939 454.756 791.161C466.113 811.027 484.805 824.949 510.149 832.752C521.101 836.103 533.412 837.744 547.989 837.834C581.62 837.923 604.506 829.985 622.507 811.9C636.782 797.576 645.921 779.714 649.824 758.815C651.731 748.997 652.675 738.888 653.597 729.094C653.922 725.439 654.323 721.6 654.778 717.892C656.315 703.481 658.711 691.7 662.339 680.863C666.624 667.918 673.233 654.853 682.509 640.837C685.387 636.509 688.356 632.219 691.195 627.984C701.999 612.112 713.218 595.762 721.98 578.285C724.418 573.45 726.802 568.485 729.278 563.558C732.253 557.429 735.396 551.155 738.501 544.973L739.605 542.832C744.596 532.885 749.832 522.607 758.266 515.062C762.398 511.363 767.785 508.292 773.474 506.321C782.892 503.19 792.257 505.666 803.033 514.14C812.669 521.709 819.302 531.82 825.889 542.563C833.387 554.766 840.161 566.885 847.569 580.35C849.876 584.446 852.014 588.688 854.021 592.985L855.017 590.583C853.226 586.809 851.304 583.089 849.252 579.424C842.099 566.39 835.016 553.709 827.48 541.599C820.838 530.725 814.059 520.445 804.185 512.669C797.068 507.12 786.087 500.184 772.809 504.53C766.897 506.517 761.249 509.696 756.909 513.634C748.138 521.472 742.956 531.88 737.796 541.974L736.692 544.114C733.587 550.296 730.444 556.571 727.469 562.699C724.993 567.626 722.647 572.5 720.209 577.334C711.485 594.718 700.305 610.976 689.539 626.756C686.7 630.991 683.731 635.281 680.853 639.609C671.446 653.679 664.761 666.929 660.399 680.059C656.733 690.988 654.391 702.9 652.777 717.495C652.322 721.204 652.052 724.989 651.596 728.697C650.675 738.491 649.638 748.562 647.77 758.288C643.927 778.779 634.903 796.364 620.966 810.395C603.472 828.04 580.885 835.779 547.885 835.734C533.493 835.72 521.406 834.064 510.638 830.79C485.664 823.14 467.395 809.501 456.292 790.066C451.115 780.883 447.137 770.897 443.305 761.081C442.478 758.897 441.559 756.676 440.64 754.454C429.601 727.035 419.42 706.683 407.82 688.448C394.616 667.817 377.455 650.2 356.962 636.181C345.418 628.254 331.909 622.977 315.866 619.896C302.823 617.411 289.415 617.372 276.088 619.748C260.378 622.652 244.582 624.979 229.254 626.958C204.944 629.976 184.422 616.811 174.225 591.798C166.949 573.841 164.624 554.906 167.207 535.625C168.165 528.877 170.822 521.426 174.771 514.512C180.217 505.295 186.869 494.738 196.532 486.837L200.773 483.399C213.025 473.432 225.654 463.08 237.913 452.574C259.75 433.591 277.349 410.469 290.258 383.778C299.64 364.285 309.782 343.483 320.717 323.118C335.378 295.855 353.507 276.417 376.139 263.609C391.832 254.744 408.441 246.8 424.452 239.258C441.323 231.206 461.569 222.064 483.273 215.151C503.131 208.771 524.404 206.55 548.153 208.279C567.302 209.616 586.144 216.13 607.657 228.732C629.263 241.373 648.573 256.417 670.975 275.233C688.415 289.826 706.076 303.104 723.572 314.69C732.744 320.767 742.799 326.019 752.431 330.987C758.205 334.031 764.203 337.06 769.862 340.381C783.175 347.958 795.852 357.329 808.687 368.93C811.13 371.134 813.626 373.468 816.03 375.764C824.582 383.857 833.427 392.289 844.183 397.94C862.153 407.34 881.281 410.292 902.752 407.071C912.819 405.508 922.984 403.445 933.472 400.865L934.392 398.648C923.512 401.39 912.862 403.577 902.441 405.21C881.677 408.291 862.865 405.362 845.357 396.153Z" fill="#F2F6F7"/>
    <path d="M961.405 306.356C958.534 305.707 956.07 299.381 956.491 293.926C957.772 277.785 957.002 263.718 953.987 250.884C948.703 228.124 939.058 210.917 924.437 198.142C910.678 186.157 895.853 180.659 879.054 181.488C855.064 182.69 834.07 190.764 818.328 197.66C807.328 202.517 796.36 207.82 785.785 212.961C776.853 217.269 767.661 221.684 758.583 225.823C743.51 232.671 729.791 235.21 716.796 233.394C706.748 232.041 696.704 228.851 687.083 225.944C685.752 225.5 684.382 225.148 683.05 224.705C669.343 220.428 656.217 214.227 643.499 208.087C637.648 205.228 631.482 202.346 625.369 199.595C607.51 191.755 593.417 187.102 579.559 184.495C562.885 181.37 545.137 180.83 523.479 182.675C488.584 185.634 456.075 198.243 426.12 211.478C423.898 212.397 421.731 213.447 419.509 214.366C402.422 221.895 384.681 229.695 368.259 239.015C347.909 250.495 330.544 266.786 316.563 287.187C304.455 304.9 294.334 324.086 284.48 342.626C282.272 346.907 279.972 351.149 277.709 355.299C265.31 378.412 251.149 396.898 234.49 411.749C226.77 418.616 217.711 424.278 210.787 428.443C207.045 430.68 203.302 432.917 199.56 435.155C186.219 443.046 172.356 451.154 159.719 460.745C146.443 470.829 136.088 483.531 127.938 499.53C122.625 509.993 121.944 521.294 121.939 532.009C122.046 567.778 133.763 600.351 146.46 630.299C151.51 642.136 157.997 652.079 166.281 660.819C178.232 673.245 193.771 678.065 211.05 674.512C219.409 672.891 227.72 670.599 235.809 668.324C241.791 666.691 247.941 664.911 254.031 663.54L257.999 662.587C268.802 660.03 279.96 657.403 291.058 656.484C304.964 655.322 318.333 659.892 328.44 663.975C346.529 671.26 361.282 683.981 376.356 705.063C388.546 722.135 396.936 738.713 401.833 755.359C404.611 764.846 406.697 774.697 408.713 784.193C410.148 791.175 411.729 798.327 413.48 805.331C414.223 808.238 414.858 810.883 415.532 813.435C417.406 820.925 419.032 827.445 420.904 833.634C423.419 841.93 431.184 853.486 431.531 853.955L431.585 854.085C437.535 860.883 445.324 863.247 453.613 865.71C454.667 866.038 455.721 866.367 456.776 866.696C466.543 869.772 476.659 870.178 486.459 870.562C488.575 870.681 490.729 870.708 492.844 870.828L519.96 870.705L521.167 870.664C534.12 869.973 547.465 869.12 560.609 867.967C581.637 866.077 600.574 860.614 616.766 851.849C643.842 837.203 662.77 813.224 674.366 778.735C675.911 773.964 676.772 769.016 677.687 764.199C677.985 762.699 678.228 761.067 678.526 759.567C679.837 752.749 681.117 745.486 682.388 737.46C682.891 734.421 683.263 731.436 683.634 728.45C684.378 722.48 685.16 716.417 686.719 710.568C690.043 697.332 693.48 686.957 697.418 677.981C701.855 667.804 707.954 658.317 713.348 650.269C720.561 639.403 727.606 629.984 734.845 621.402C745.478 608.815 754.668 598.661 767.795 591.546C779.723 585.234 793.302 586.426 804.339 594.792C817.749 605.008 828.157 619.067 835.726 637.362L836.799 634.776C829.13 616.981 818.792 603.275 805.475 593.098C793.867 584.279 779.434 583.057 766.815 589.732C752.305 597.572 741.749 609.975 733.359 620.028C726.119 628.609 719.035 638.121 711.785 649.08C706.391 657.127 700.215 666.799 695.74 677.068C691.724 686.229 688.25 696.696 684.926 709.933C683.421 715.912 682.601 722.068 681.857 728.038C681.485 731.023 681.113 734.009 680.61 737.048C679.339 745.073 678.098 752.244 676.786 759.062C676.489 760.563 676.245 762.194 675.948 763.694C675.071 768.419 674.21 773.366 672.741 777.954C661.245 811.942 642.693 835.535 616.048 849.927C600.024 858.546 581.348 863.901 560.636 865.813C547.584 867.004 534.147 867.819 521.287 868.549L519.834 868.92L492.849 868.989C490.733 868.87 488.618 868.75 486.464 868.723C476.756 868.378 466.77 867.918 457.281 864.957C456.226 864.628 455.172 864.299 454.117 863.97C445.829 861.507 438.725 859.319 433.122 852.99C432.613 852.13 425.063 841.096 422.765 833.323C420.893 827.134 419.321 820.744 417.447 813.255C416.773 810.703 416.138 808.058 415.395 805.151C413.644 798.146 412.155 791.033 410.72 784.051C408.743 774.462 406.657 764.612 403.825 754.994C398.82 738.087 390.376 721.378 378.039 704.137C362.71 682.625 347.681 669.789 329.222 662.351C318.93 658.191 305.284 653.507 290.932 654.7C279.741 655.581 268.453 658.261 257.558 660.78L253.59 661.733C247.462 663.197 241.257 664.846 235.237 666.571C227.279 668.793 218.967 671.084 210.701 672.744C194.037 676.118 179.276 671.512 167.763 659.593C159.626 651.022 153.194 641.21 148.343 629.672C135.754 599.986 124.053 567.636 123.924 532.183C123.907 521.783 124.511 510.666 129.671 500.573C137.613 484.813 147.854 472.388 160.96 462.451C173.559 452.952 187.33 444.806 200.632 437.007C204.375 434.769 208.209 432.571 211.952 430.334C218.968 426.206 228.066 420.452 235.954 413.439C252.782 398.441 267.112 379.809 279.588 356.511C281.889 352.269 284.097 347.988 286.398 343.746C296.213 325.298 306.334 306.112 318.404 288.491C332.178 268.33 349.427 252.316 369.516 240.943C385.9 231.716 403.549 223.878 420.636 216.349C422.857 215.43 425.025 214.38 427.246 213.461C461.682 198.295 491.233 187.599 523.99 184.835C545.426 183.007 563.042 183.6 579.532 186.649C593.206 189.18 607.206 193.795 624.842 201.649C630.9 204.27 637.028 207.244 642.879 210.103C655.598 216.243 668.87 222.613 682.708 226.836C684.039 227.28 685.409 227.631 686.741 228.075C696.508 231.151 706.59 234.249 716.823 235.678C730.264 237.463 744.299 234.947 759.764 227.936C768.972 223.744 778.165 219.328 787.003 214.982C797.579 209.841 808.547 204.538 819.547 199.681C835.066 192.801 855.929 184.781 879.566 183.649C895.788 182.906 910.281 188.158 923.524 199.82C937.76 212.219 947.204 229.126 952.458 251.441C955.418 264.143 956.264 278.027 954.968 293.944C954.447 299.899 957.083 307.379 961.323 308.379L962.193 308.632C965.248 309.357 968.488 310.16 971.604 310.477L972.408 308.538C969.162 308.274 965.922 307.472 962.682 306.67L961.405 306.356Z" fill="#F2F6F7"/>
    <path d="M985.581 210.723C981.875 207.129 978.207 203.443 974.686 199.926C967.35 192.554 959.814 184.882 951.841 178.003C941.094 168.675 929.059 161.411 916.273 156.217C905.797 151.981 895.158 151.791 883.235 151.827C862.935 151.961 843.329 157.471 826.569 162.646C821.087 164.378 815.551 165.98 810.07 167.712C792.21 173.189 773.696 178.936 755.304 183.867C736.167 189.03 720.563 190.895 706.222 189.711C696.705 188.904 686.695 187.46 676.507 185.4C666.911 183.478 657.715 180.855 646.724 177.597C642.007 176.182 637.273 174.544 632.724 172.982C626.382 170.785 619.855 168.512 613.283 166.869C589.235 160.902 564.37 159.252 537.298 161.882C507.641 164.74 478.698 171.358 451.346 181.451C434.833 187.594 418.276 194.368 402.202 201.019C394.884 204.046 386.652 207.453 378.588 210.712C355.442 220.059 335.198 234.94 316.565 256.118C308.803 264.915 302.289 274.88 295.851 284.66L295.644 284.899C294.432 286.778 293.22 288.657 291.915 290.498C286.652 298.491 281.774 306.861 277.064 315.085C269.679 327.936 262.047 341.118 252.575 352.995C242.273 365.828 229.444 380.319 211.938 390.164C196.937 398.667 179.881 406.642 160.079 414.452C139.062 422.842 119.46 435.39 100.036 452.992C88.5769 463.396 78.5977 475.713 69.754 490.774C62.6588 502.663 61.5498 515.519 66.1611 531.288C69.5424 542.975 74.8614 554.166 80.1105 565.003C82.4805 569.991 84.9586 575.241 87.252 580.414C98.6581 606.687 107.208 626.796 115.032 645.521C117.573 651.663 119.945 657.951 122.263 664.109C125.532 672.934 128.947 681.928 132.885 690.706C139.047 704.304 148.448 714.265 160.835 720.159C163.899 721.646 167.409 723.102 170.64 723.142L172.032 723.178C180.425 723.303 189.002 723.504 196.989 720.429C204.976 717.353 212.964 714.278 220.951 711.203L221.435 711.079C230.952 707.448 240.769 703.616 250.509 699.969C261.909 695.711 275.632 691.334 290.595 691.801C311.442 692.435 328.693 699.913 342.071 714.121C358.162 731.186 368.065 751.423 372.399 775.955C374.83 789.412 374.899 803.081 375.029 816.343C375.038 821.543 375.101 826.873 375.387 832.188L375.535 833.657C375.794 836.687 375.961 839.679 376.035 842.633C376.323 849.248 376.681 856.217 378.215 862.699C382.236 879.63 389.373 892.441 400.097 902.085C409.042 910.016 421.196 919.603 436.217 922.801C449.053 925.525 462.451 924.802 475.875 920.626C509.042 910.346 536.944 902.322 565.727 896.612C573.509 895.076 581.167 893.055 588.57 890.604L595.913 888.561C612.104 882.933 628.909 877.128 643.399 866.465C661.545 852.988 675.972 836.994 686.319 819.092C694.272 805.394 699.782 792.631 703.168 780.287C704.552 775.123 705.658 769.844 706.819 764.696C707.529 761.418 708.239 758.14 708.987 754.769C709.674 751.806 710.361 748.844 711.01 745.973C713.408 735.492 715.921 724.734 718.803 714.129C720.592 707.726 723.251 701.576 725.871 695.517L726.752 693.393C731.626 682.423 739.388 673.625 746.368 666.452C752.726 659.995 760.772 655.212 769.552 652.574C782.246 648.853 794.401 654.001 803.577 667.116C807.864 673.225 811.606 679.864 814.65 687.405L815.722 684.819C812.726 677.947 809.239 671.738 805.152 665.929C795.298 652.1 782.496 646.683 768.926 650.691C759.792 653.398 751.485 658.289 744.881 665.077C737.77 672.305 729.801 681.341 724.812 692.588L723.931 694.713C721.311 700.771 718.614 707.014 716.786 713.51C713.904 724.115 711.353 734.965 708.956 745.446C708.268 748.409 707.581 751.371 706.932 754.242C706.092 757.574 705.436 760.983 704.764 764.169C703.642 769.224 702.536 774.503 701.152 779.667C697.803 791.919 692.279 804.459 684.494 818.011C674.354 835.674 660.135 851.429 642.158 864.759C627.929 875.314 611.347 881.104 595.325 886.585L588.113 888.574L587.983 888.628C580.671 891.117 573.052 893.046 565.362 894.62C536.449 900.385 508.454 908.371 475.287 918.65C462.14 922.941 449.149 923.725 436.629 921.023C422.016 917.886 410.101 908.506 401.433 900.69C391.002 891.385 384.066 878.873 380.115 862.296C378.596 856.037 378.292 849.199 378.004 842.584C377.838 839.592 377.671 836.6 377.504 833.608L377.448 832.177C377.255 826.9 377.192 821.57 377.183 816.37C377.053 803.108 376.929 789.308 374.483 775.628C370.079 750.743 359.975 730.206 343.684 712.842C330.014 698.296 312.208 690.587 290.822 689.946C275.545 689.457 261.598 693.85 250.029 698.254C240.289 701.901 230.472 705.733 220.955 709.365L220.563 709.527C212.576 712.602 204.589 715.677 196.602 718.752C189.007 721.665 180.614 721.541 172.445 721.401L171.052 721.365C168.268 721.293 164.942 719.914 162.155 718.541C150.138 712.8 141.122 703.215 135.215 690.048C131.331 681.401 127.916 672.407 124.647 663.582C122.329 657.424 119.956 651.136 117.415 644.994C109.63 626.176 101.042 606.16 89.6357 579.887C87.3424 574.714 84.8642 569.464 82.4019 564.438C77.2451 553.639 71.9802 542.578 68.653 531.023C64.2579 515.776 65.2677 503.421 72.0408 492.047C80.8079 477.171 90.6181 465.001 102.039 454.689C121.164 437.287 140.635 424.793 161.39 416.511C181.323 408.647 198.379 400.672 213.51 392.115C231.278 382.162 244.276 367.525 254.654 354.507C264.165 342.537 271.873 329.17 279.259 316.319C283.93 308.188 288.808 299.819 294.071 291.825C295.283 289.946 296.496 288.067 297.8 286.226L298.008 285.988C304.368 276.392 310.92 266.335 318.513 257.684C336.978 236.652 357.015 222.011 379.807 212.734C387.87 209.474 396.234 206.013 403.552 202.986C419.494 196.389 436.09 189.523 452.565 183.472C479.786 173.433 508.598 166.869 538.032 164.027C564.974 161.451 589.523 163.078 613.387 168.969C619.866 170.573 626.393 172.847 632.643 175.005C637.192 176.567 641.926 178.205 646.643 179.62C657.633 182.878 666.961 185.447 676.611 187.5C686.891 189.598 696.901 191.043 706.51 191.888C721.074 193.055 736.863 191.267 756.262 185.996C774.692 180.972 793.167 175.318 811.065 169.749C816.547 168.017 821.99 166.377 827.564 164.683C844.194 159.562 863.67 154.106 883.746 153.988C895.354 153.929 905.862 154.173 916.007 158.164C928.647 163.188 940.367 170.43 950.967 179.589C958.848 186.43 966.422 194.009 973.758 201.381C977.279 204.898 981.001 208.715 984.707 212.309C990.817 218.199 997.535 224.449 1005.06 230.059L1005.83 228.212C998.078 222.617 991.506 216.536 985.581 210.723Z" fill="#F2F6F7"/>
    <path d="M620.219 478.819C617.653 485.008 614.685 490.598 611.11 495.827C605.263 504.444 597.571 509.157 587.603 510.22C577.059 511.369 565.958 510.988 553.986 509.054C547.407 507.95 540.713 507.123 534.204 506.372C532.035 506.122 529.996 505.818 527.826 505.568L520.224 504.581C514.162 503.799 508.191 503.055 502.128 502.273L499.366 501.885C492.672 501.058 485.701 500.116 478.861 499.12C474.691 498.473 470.243 497.712 465.595 496.65C462.91 496.078 460.132 495.467 457.446 494.895C450.39 493.376 443.203 491.911 436.191 489.761C420.429 484.957 402.218 478.488 386.806 466.576C379.358 460.781 374.239 454.328 371.38 446.864C364.419 428.929 365.204 410.851 367.032 395.478C369.231 377.121 377.28 360.323 391.837 344.275C401.481 333.551 413.458 324.769 427.378 318.092C434.103 314.926 440.813 311.538 447.315 308.389C459.013 302.63 471.103 296.71 483.186 291.328C499.005 284.247 515.423 281.204 531.94 282.099C544.949 282.839 556.081 288.104 565.305 293.012C584.915 303.417 601.758 319.712 616.712 342.909C628.644 361.389 634.794 381.802 634.946 403.625C635.033 414.378 634.596 428.487 630.835 442.516C629.704 446.811 628.811 451.312 627.995 455.629C627.675 457.445 627.263 459.222 626.943 461.038L625.035 460.68C625.447 458.902 625.767 457.087 626.049 455.363C626.903 450.954 627.795 446.452 628.965 442.066C632.611 428.313 633.102 414.336 633.031 403.805C632.948 382.336 626.868 362.277 615.137 344.097C600.383 321.199 583.779 305.111 564.5 294.952C555.369 290.082 544.514 284.932 531.913 284.253C515.711 283.38 499.609 286.446 484.09 293.326C472.006 298.708 459.916 304.629 448.349 310.333C441.808 313.575 435.045 316.832 428.281 320.09C414.623 326.659 402.814 335.295 393.378 345.78C379.121 361.627 371.133 378.018 369.125 395.913C367.412 411.009 366.519 428.826 373.41 446.406C376.161 453.609 380.933 459.593 388.234 465.22C403.408 476.925 421.304 483.371 436.973 488.137C443.892 490.248 451.172 491.752 458.136 493.232C460.821 493.804 463.599 494.415 466.285 494.987C470.841 496.011 475.288 496.772 479.366 497.381C486.206 498.377 493.085 499.281 499.778 500.108L502.541 500.495C508.603 501.277 514.666 502.059 520.637 502.803L528.238 503.79C530.408 504.04 532.447 504.345 534.617 504.595C541.126 505.345 547.912 506.211 554.491 507.315C566.371 509.21 577.248 509.607 587.662 508.513C596.96 507.497 604.184 503.131 609.747 494.937C615.348 486.65 619.625 477.382 622.806 466.576C623.158 465.206 623.825 463.859 624.546 462.642C624.776 462.088 625.098 461.572 625.289 461.11L627.099 461.969C626.869 462.523 626.546 463.039 626.317 463.593C625.688 464.848 625.098 466.011 624.73 467.158C623.122 471.037 621.79 475.032 620.219 478.819Z" fill="#F2F6F7"/>
    <path d="M576.128 738.648C575.768 739.256 575.446 739.772 575.085 740.38C574.441 741.412 573.927 742.39 573.283 743.422C569.977 749.305 564.707 753.398 558.579 754.862C552.32 756.381 545.502 755.069 539.573 751.094C525.649 741.857 518.888 728.66 518.24 709.338C517.835 697.262 527.661 685.315 536.25 683.138C545.677 680.769 553.889 683.416 562.218 691.525C571.518 700.686 575.884 712.348 576.413 729.347C576.501 731.224 576.404 733.024 576.399 734.863C576.37 735.717 576.34 736.571 576.311 737.425L573.934 737.413L576.128 738.648ZM523.109 700.207C521.884 703.163 521.25 706.256 521.248 709.395C521.817 727.601 528.123 740.068 541.199 748.738C546.467 752.221 552.376 753.373 557.89 752.087C563.18 750.816 567.812 747.216 570.719 742.034C571.271 740.964 571.915 739.932 572.56 738.9C572.882 738.384 573.204 737.868 573.526 737.352C573.556 736.498 573.547 735.737 573.576 734.883C573.635 733.175 573.639 731.337 573.644 729.498C573.086 713.353 568.99 702.345 560.352 693.675C552.832 686.226 545.674 683.907 537.216 686.029C531.98 687.43 526.021 693.187 523.109 700.207Z" fill="#F2F6F7"/>
    <path d="M639.607 530.486C638.94 531.834 638.181 533.143 637.514 534.49C635.535 538.216 633.573 542.166 631.371 545.908C622.92 560.807 602.282 561.234 590.65 555.869L587.216 554.229C577.763 549.876 568.07 545.315 558.234 541.886C544.81 537.185 531.588 532.785 518.06 530.423C506.534 528.458 494.717 527.455 483.177 526.567C477.853 526.091 472.268 525.724 466.89 525.117C461.381 524.565 455.78 523.975 450.402 523.368C444.301 522.679 437.884 521.966 431.614 521.423C419.02 520.206 406.092 517.443 393.054 513.119C377.945 508.045 362.274 501.979 351.227 488.413C345.045 480.87 343.392 472.065 342.493 463.789C341.117 450.661 341.571 436.776 344.07 422.656C344.633 419.209 345.143 415.631 345.706 412.184C346.641 405.751 347.615 399.227 349.089 392.801C350.914 385.006 353.762 377.093 357.41 369.079C364.262 354.383 370.967 343.956 379.083 335.089C389.871 323.432 403.608 313.54 420.916 304.695C428.356 300.851 436.089 297.346 443.598 293.856C447.203 292.212 450.716 290.529 454.228 288.846C470.407 281.157 487.648 273.259 506.341 269.427C521.89 266.131 536.444 266.538 549.69 270.623C560.641 273.973 571.49 279.663 582.842 288.051C605.825 304.943 624.168 325.974 637.248 350.559C648.299 371.164 653.444 393.216 652.49 415.88C652.136 424.826 651.151 433.728 650.15 442.407C649.794 445.615 649.399 448.916 649.136 452.162L649.075 452.57C647.38 469.188 645.64 486.438 643.607 503.349C642.917 509.45 641.966 515.659 640.961 521.738C640.52 524.369 640.116 526.908 639.767 529.578L636.912 529.152L639.607 530.486ZM357.89 375.232C355.361 381.329 353.372 387.432 351.997 393.358C350.469 399.653 349.496 406.177 348.599 412.517C348.128 416.003 347.526 419.542 346.924 423.082C344.502 437.017 343.979 450.548 345.377 463.361C346.206 471.283 347.774 479.511 353.424 486.509C363.977 499.438 379.187 505.312 393.888 510.325C406.649 514.535 419.446 517.351 431.763 518.454C438.087 519.128 444.412 519.801 450.643 520.437C456.021 521.043 461.622 521.634 467.131 522.186C472.547 522.7 478.094 523.16 483.418 523.635C494.958 524.524 506.96 525.603 518.579 527.607C532.291 530.045 545.606 534.484 559.214 539.261C569.235 542.767 579.02 547.366 588.474 551.719L591.907 553.359C602.561 558.211 621.23 557.833 628.808 544.52C630.917 540.739 632.933 536.921 634.911 533.194C635.578 531.847 636.338 530.538 637.005 529.191C637.446 526.559 637.757 523.982 638.199 521.35C639.166 515.364 640.079 509.247 640.768 503.146C642.801 486.235 644.541 468.985 646.236 452.367L646.297 451.959C646.653 448.751 646.955 445.412 647.349 442.111C648.312 433.525 649.335 424.531 649.705 415.807C650.598 393.552 645.539 372.076 634.835 351.94C621.917 327.747 603.867 307.054 581.216 290.408C570.102 282.227 559.531 276.652 548.948 273.455C536.203 269.469 522.149 269.162 507.085 272.333C488.745 276.095 471.635 283.94 455.717 291.52C452.205 293.203 448.6 294.848 444.995 296.492C437.616 299.928 429.845 303.526 422.444 307.277C405.435 315.921 392.052 325.744 381.51 337.069C373.509 345.66 367.011 355.848 360.274 370.267C359.361 371.945 358.579 373.57 357.89 375.232Z" fill="#F2F6F7"/>
    <path d="M659.5 553.783C658.265 555.978 657.031 558.172 655.834 560.274C653.212 565.033 650.382 570.03 647.297 574.596C634.582 593.249 616.736 602.087 594.095 600.817C586.579 600.407 580.057 596.295 574.327 592.62C570.292 590.081 566.334 587.357 562.468 584.671C556.06 580.282 549.376 575.778 542.515 571.958C533.645 566.981 523.324 563.676 509.89 561.352C496.64 559.105 483.171 559.474 470.11 559.904C466.395 559.987 462.549 560.125 458.834 560.208C440.519 560.516 425.318 559.842 410.202 555.306C406.816 554.334 403.337 553.325 399.989 552.261C393.402 550.396 386.575 548.323 379.879 546.195C367.765 542.254 356.874 538.496 346.213 534.183C337.53 530.582 329.207 526.374 321.337 521.595C312.952 516.493 308.845 507.862 309.357 496.707C309.632 491.084 310.022 485.183 311.412 479.481C314.689 465.575 318.519 451.899 322.005 439.055C322.823 436.038 323.68 432.929 324.498 429.912C327.769 417.845 331.195 405.408 335.228 393.332C340.845 376.392 348.189 356.595 360.39 338.92C372.989 320.545 390.126 306.108 411.44 296.219C417.736 293.308 424.015 290.174 430.218 287.225C440.924 282.03 451.93 276.635 463.115 271.854C478.519 265.251 491.564 260.16 505.143 256.914C522.69 252.715 540.469 253.7 556.44 259.565C568.548 264.045 580.236 270.84 594.362 281.678C613.787 296.445 628.873 315.15 642.334 333.074C655.063 350.152 663.657 369.63 667.994 391.023C670.368 403.049 670.944 416.279 669.77 431.381L669.378 435.982C667.283 462.178 665.068 489.189 665.121 515.951C665.161 530.474 663.527 542.246 660.03 553.029L658.106 552.447C661.526 541.849 663.176 530.3 663.152 516C663.137 489.146 665.26 462.097 667.485 435.847L667.877 431.246C669.067 416.367 668.507 403.36 666.094 391.426C661.828 370.387 653.249 351.132 640.759 334.261C627.39 316.376 612.451 297.84 593.173 283.241C579.193 272.573 567.689 265.854 555.766 261.451C540.11 255.608 522.701 254.776 505.546 258.813C492.098 262.005 479.183 267.042 463.872 273.683C452.818 278.41 441.812 283.806 431.105 289.001C424.995 291.988 418.623 295.083 412.328 297.994C391.406 307.722 374.476 321.92 362.084 340.056C350.052 357.584 342.731 377.066 337.244 393.952C333.249 405.936 329.824 418.372 326.552 430.439C325.734 433.456 324.878 436.565 324.06 439.582C320.482 452.388 316.743 466.102 313.413 479.877C312.099 485.395 311.655 491.165 311.418 496.696C310.952 507.22 314.642 515.029 322.419 519.77C330.196 524.51 338.519 528.719 347.017 532.243C357.548 536.61 368.477 540.276 380.591 544.217C387.156 546.398 394.021 548.379 400.609 550.245C403.995 551.216 407.474 552.226 410.86 553.197C425.699 557.618 440.861 558.384 458.861 558.054C462.669 558.009 466.422 557.833 470.137 557.75C483.198 557.32 496.836 556.805 510.271 559.128C523.928 561.436 534.488 564.949 543.489 569.872C550.441 573.73 557.088 578.326 563.588 582.754C567.454 585.439 571.45 588.071 575.447 590.703C581.03 594.209 587.275 598.206 594.253 598.609C616.132 599.888 633.418 591.358 645.679 573.276C648.764 568.709 651.556 563.805 654.178 559.046C655.375 556.944 656.648 554.657 657.883 552.463L659.5 553.783Z" fill="#F2F6F7"/>
    <path d="M564.55 397.167C564.359 397.629 564.075 398.052 563.883 398.514C563.408 399.4 563.025 400.323 562.457 401.171C554.81 414.13 543.459 420.357 527.674 420.306C512.205 420.279 499.302 414.062 487.194 400.706C481.407 394.3 481.268 380.277 485.148 373.009C494.379 355.186 510.18 346.582 532.104 347.23C540.328 347.5 546.744 352.651 552.714 357.833C562.945 366.839 566.928 379.425 564.972 396.151L562.171 395.856L564.55 397.167ZM487.121 375.56C484.172 382.672 485.16 394.125 489.337 398.671C500.951 411.39 513.115 417.3 527.6 417.353C542.215 417.351 552.705 411.633 559.839 399.652C560.276 398.859 560.752 397.974 561.096 397.142C561.288 396.68 561.572 396.257 561.763 395.795C563.636 379.792 560.009 368.436 550.495 360.052C544.948 355.154 539.009 350.418 531.732 350.215C510.792 349.543 496.375 357.421 487.488 374.413C487.466 374.728 487.274 375.19 487.121 375.56Z" fill="#F2F6F7"/>
    <path d="M589.79 411.747L589.561 412.302C588.587 414.388 587.521 416.436 586.494 418.391C576.075 439.078 558.916 449.392 533.948 450.08C520.163 450.427 506.375 448.173 491.859 443.236C485.332 440.963 479.172 437.542 474.029 434.543L473.236 434.106C463.318 428.262 453.162 422.21 445.707 412.514C436.679 400.868 434.244 389.249 438.471 378.011C441.642 369.583 447.468 362.581 451.907 358.142C463.342 346.754 473.936 338.697 485.095 332.932C500.666 324.883 515.329 321.112 530.014 321.464C536.884 321.606 543.51 323.379 549.523 326.631C563.967 334.353 574.306 343.62 581.125 355.108C585.561 362.685 587.884 371.443 590.06 380.031L590.114 380.162C592.576 389.627 592.485 399.766 589.835 411.117L587.965 410.666C590.501 399.592 590.569 389.769 588.176 380.658L588.122 380.527C585.962 372.162 583.732 363.442 579.404 356.126C572.839 345.068 562.777 335.916 548.572 328.402C542.705 325.319 536.449 323.699 529.933 323.487C515.602 323.065 501.2 326.728 485.983 334.708C474.954 340.419 464.529 348.329 453.263 359.571C448.994 363.863 443.244 370.68 440.227 378.739C436.268 389.33 438.563 400.242 447.151 411.381C454.313 420.738 464.415 426.66 474.11 432.52L474.903 432.957C479.954 435.918 486.021 439.3 492.364 441.497C506.695 446.357 520.206 448.496 533.767 448.165C557.936 447.578 574.534 437.573 584.554 417.587C585.62 415.539 586.555 413.545 587.621 411.497L587.851 410.943L589.79 411.747Z" fill="#F2F6F7"/>
    <path d="M604.135 760.654C595.746 780.884 578.204 792.121 554.795 791.4C530.309 790.664 514.076 776.03 502.686 763.295C489.7 748.925 483.631 730.928 477.87 713.491L476.726 709.985C474.809 704.427 473.061 698.722 471.367 693.148C468.118 682.708 464.8 671.913 460.675 661.759C454.318 646.023 444.572 632.455 431.599 621.446C414.089 606.499 394.198 593.379 372.456 582.631C357.544 575.256 340.842 569.846 321.444 566.241C311.495 564.388 301.293 563.405 291.314 562.407C286.937 561.999 282.374 561.514 277.812 561.03C277.181 560.985 276.458 560.901 275.827 560.856C269.818 560.205 263.494 559.531 257.704 556.264C251.729 552.92 247.25 547.274 245.439 540.677C243.821 534.918 244.527 529.04 247.319 524.135C254.727 510.969 261.985 499.472 269.375 489.221C279.582 475.05 291.068 458.053 299.275 439.047C302.968 430.402 306.607 421.627 310.169 413.036C312.276 407.956 314.252 402.929 316.451 397.887C318.328 393.361 320.282 388.65 322.028 384.178C326.417 373.332 330.96 362.116 336.126 351.485C349.456 323.777 366.4 304.064 388.063 291.504C401.758 283.543 416.2 276.649 428.905 270.55C442.525 264.073 457.037 257.534 474.755 250.05C493.687 241.987 512.881 238.254 531.797 238.845C544.737 239.231 557.011 242.264 569.159 247.951C593.325 259.38 614.829 275.659 633.287 296.412C647.807 312.826 660.503 328.158 671.975 343.308C683.246 358.158 691.16 375.622 695.632 395.122C697.988 405.626 698.431 417.61 696.903 432.781C694.649 455.447 692.474 479.227 690.418 505.331C690.154 508.578 689.945 511.955 689.719 515.109C689.039 526.41 688.335 538.027 685.277 549.317C685.178 549.817 685.225 550.486 685.273 551.155C685.304 551.601 685.336 552.047 685.329 552.586L683.398 552.543C683.459 552.135 683.389 551.781 683.358 551.335C683.256 550.535 683.193 549.643 683.446 548.774C686.427 537.669 687.092 526.144 687.734 514.936C687.906 511.651 688.17 508.404 688.379 505.027C690.473 478.831 692.61 455.143 694.864 432.477C696.408 417.528 695.98 405.768 693.64 395.487C689.277 376.248 681.47 359.046 670.307 344.457C658.835 329.307 646.14 313.975 631.674 297.692C613.455 277.146 592.135 260.943 568.208 249.722C556.283 244.019 544.286 241.101 531.662 240.738C513.061 240.169 494.09 243.886 475.419 251.841C457.701 259.325 443.189 265.865 429.662 272.38C416.957 278.478 402.514 285.372 388.951 293.28C367.68 305.677 350.982 325.059 337.766 352.49C332.6 363.121 328.057 374.337 323.706 385.09C321.829 389.617 320.006 394.274 318.091 398.892C315.984 403.973 313.916 408.961 311.809 414.041C308.285 422.54 304.7 431.446 300.915 440.052C292.539 459.205 281.015 476.294 270.769 490.557C263.379 500.808 256.198 512.12 248.79 525.287C246.19 529.73 245.583 535.107 247.077 540.382C248.802 546.402 252.896 551.672 258.447 554.732C263.906 557.753 269.692 558.421 275.832 559.018C276.555 559.101 277.186 559.146 277.909 559.23C282.341 559.768 286.941 560.161 291.319 560.569C301.297 561.567 311.591 562.588 321.633 564.479C341.216 568.161 358.01 573.609 373.2 581.099C395.126 591.923 415.11 605.082 432.766 620.198C445.978 631.414 455.924 645.282 462.297 661.241C466.476 671.526 469.795 682.32 473.005 692.853C474.737 698.335 476.485 704.04 478.31 709.56L479.454 713.065C485.199 730.279 491.16 748.015 503.907 762.178C515.005 774.575 530.944 788.871 554.669 789.615C582.478 790.43 601.78 773.643 606.416 744.712C608.34 731.978 607.379 718.372 606.528 706.327C605.674 692.982 605.375 675.429 611.254 658.381C611.522 657.734 611.698 657.049 611.966 656.402C613.183 652.685 614.492 649.006 616.833 645.971C623.189 638.214 630.789 629.024 639.437 620.702C661.285 599.342 674.635 578.896 681.382 556.362C681.672 555.4 682.24 554.553 682.715 553.667C682.961 553.336 683.114 552.966 683.36 552.635L685.131 553.586C684.885 553.917 684.694 554.379 684.448 554.71C683.918 555.465 683.52 556.166 683.344 556.851C676.575 579.701 663.11 600.423 640.962 621.984C632.407 630.345 624.884 639.35 618.527 647.107C616.34 649.772 615.161 653.397 614.021 656.93C613.753 657.576 613.577 658.261 613.309 658.908C607.545 675.679 607.867 692.917 608.704 706.039C609.517 718.176 610.533 731.913 608.531 744.832C607.587 750.502 606.127 755.851 604.135 760.654Z" fill="#F2F6F7"/>
    <path d="M619.902 768.058C614.462 781.175 605.373 792.129 592.902 800.273C585.618 805.047 576.398 807.178 569.962 808.082C555.004 810.215 542.941 809.543 532.066 806.007C521.468 802.587 511.397 797.112 502.223 789.735C488.173 778.712 477.179 763.977 469.641 746.128C467.749 741.555 465.818 737.073 464.018 732.538C458.125 718.294 452.069 703.658 445.207 689.662C431.683 661.969 414.669 640.083 393.14 622.819C377.072 609.877 363.766 601.761 349.925 596.239C338.118 591.559 325.697 588.356 312.94 586.747C296.883 584.744 280.677 585.71 264.917 586.644C260.902 586.928 256.795 587.173 252.726 587.326C237.358 588.098 225.967 584.241 216.813 575.249C208.761 567.255 207.828 557.233 207.651 547.741C207.475 539.549 209.954 531.483 215.362 522.359C224.052 507.667 235.816 495.224 247.072 483.22C250.535 479.568 254.037 475.824 257.446 472.041C272.456 455.423 282.417 441.583 290.008 427.194C293.796 419.887 297.237 412.112 300.562 404.614C302.264 400.773 304.041 396.747 305.873 392.851C308.433 387.201 311.031 381.458 313.552 375.9C319.514 362.567 325.668 348.772 332.538 335.598C345.235 310.984 362.741 292.263 384.459 279.833C396.655 272.874 409.175 266.699 424.14 259.589C440.281 251.993 454.816 245.137 470.082 239.127C485.48 233.062 502.209 227.442 520.177 226.665C538.199 226.019 552.717 227.818 565.825 232.495C574.015 235.458 582.083 239.237 589.675 243.901C605.784 253.612 620.334 264.734 632.939 276.89C654.258 297.53 675.375 321.01 699.364 350.877C711.852 366.448 719.699 380.42 723.862 394.92C726.887 405.377 727.619 415.099 725.988 423.732C724.135 433.681 721.837 443.662 719.561 453.328C717.835 460.623 716.124 468.141 714.583 475.513C713.416 481.2 712.58 487.132 711.858 492.787C711.487 495.772 711.038 498.942 710.536 501.981C710.209 504.336 709.79 506.652 709.463 509.006C708.368 516.347 707.157 523.964 705.708 531.374C704.298 538.692 702.441 546.041 700.753 553.244C699.951 556.484 699.203 559.855 698.401 563.094L695.53 562.445C696.24 559.167 697.081 555.835 697.883 552.595C699.625 545.523 701.389 538.135 702.8 530.818C704.249 523.408 705.421 515.882 706.516 508.542C706.843 506.188 707.262 503.872 707.589 501.517C708.091 498.478 708.501 495.4 708.873 492.415C709.633 486.668 710.469 480.735 711.674 474.956C713.254 467.492 714.965 459.974 716.691 452.679C718.928 443.106 721.227 433.125 723.041 423.268C724.611 415.042 723.911 405.766 721.01 395.794C716.916 381.647 709.27 367.976 697.075 352.742C673.14 323.006 652.208 299.603 630.943 279.093C618.484 267.106 604.081 256.154 588.157 246.519C580.71 242.024 572.866 238.23 564.822 235.436C552.084 230.911 537.973 229.173 520.305 229.749C502.729 230.364 486.316 236.007 471.179 241.963C456.043 247.92 441.509 254.775 425.368 262.372C410.441 269.389 398.013 275.603 385.856 282.469C364.569 294.644 347.438 312.981 335.102 336.986C328.362 350.105 322.116 363.862 316.193 377.103C313.671 382.661 311.073 388.404 308.514 394.055C306.682 397.95 304.942 401.884 303.203 405.817C299.877 413.315 296.436 421.09 292.572 428.582C284.866 443.248 274.736 457.235 259.649 474.037C256.24 477.82 252.608 481.619 249.237 485.309C238.019 497.22 226.386 509.609 217.849 523.931C212.725 532.632 210.384 540.106 210.566 547.759C210.82 557.066 211.543 566.027 218.863 573.176C227.393 581.585 238.045 585.136 252.521 584.427C256.59 584.274 260.697 584.028 264.712 583.744C280.603 582.756 297.032 581.774 313.366 583.893C326.307 585.579 339.044 588.803 351.036 593.56C365.154 599.197 378.698 607.521 395.044 620.578C416.904 638.087 434.211 660.311 447.897 688.396C454.721 702.484 460.831 717.251 466.724 731.495C468.616 736.068 470.455 740.512 472.347 745.085C479.761 762.45 490.408 776.716 504.034 787.455C513.008 794.532 522.709 799.854 533.03 803.159C543.498 806.634 555.06 807.207 569.572 805.105C575.693 804.18 584.521 802.211 591.282 797.653C609.877 785.445 620.408 767.619 622.462 744.654C623.3 735.583 623.677 726.321 624.031 717.374C624.408 708.112 624.861 698.665 625.722 689.279C626.477 680.932 628.724 672.12 632.162 663.045C637.331 649.275 646.873 637.751 655.34 627.514C667.976 612.184 677.928 597.583 685.972 582.623C688.349 578.196 690.526 573.469 692.534 568.889C693.507 566.803 694.388 564.678 695.454 562.63L698.187 563.872C697.213 565.958 696.278 567.952 695.397 570.076C693.297 574.618 691.175 579.476 688.759 583.995C680.677 599.048 670.517 613.888 657.751 629.271C649.453 639.362 640.08 650.74 635.102 664.048C631.74 672.938 629.609 681.473 628.876 689.505C628.053 698.798 627.6 708.245 627.224 717.508C626.831 726.547 626.455 735.809 625.578 744.972C624.73 753.281 622.813 761.038 619.902 768.058Z" fill="#F2F6F7"/>
    <path d="M783.444 429.804C779.994 436.818 774.319 442.15 768.851 447.244C767.798 448.215 766.746 449.186 765.786 450.196C756.256 459.342 746.387 468.782 740.77 481.284C738.363 486.565 735.398 493.455 733.133 500.743C730.93 507.624 728.965 514.712 727.022 521.484C725.08 528.257 723.115 535.345 720.95 542.133C711.914 570.972 697.469 598.758 676.517 627.093L675.458 628.603C667.353 639.532 659.003 650.792 653.532 663.463C648.023 676.226 644.697 688.162 643.394 700.18C642.409 709.082 641.571 718.152 640.847 726.946C640.221 733.939 639.517 741.117 638.76 748.165C636.907 766.991 629.789 783.634 617.652 797.762C609.038 807.831 599.688 814.454 589.224 818.018C574.602 822.997 559.243 824.531 540.879 822.869C521.214 821.21 503.078 813.256 485.437 798.363C474.229 788.844 465.361 776.289 457.708 758.718C455.886 754.498 454.025 750.37 452.295 746.188C446.881 733.659 441.306 720.738 435.223 708.256C419.275 675.444 399.463 650.124 374.376 630.736C364.556 623.091 353.768 616.994 342.237 612.429C320.061 603.774 296.988 601.459 271.533 605.41C259.736 607.23 244.147 609.318 228.031 609.022C215.016 608.821 205.842 601.444 199.254 595.14C186.541 582.723 184.574 566.319 184.345 553.557C184.149 546.981 184.702 541.472 185.747 536.601C188.665 524.604 195.031 513.17 205.388 501.768C214.786 491.375 225.4 481.703 235.585 472.286L237.651 470.436C260.646 449.443 276.551 429.624 287.63 408.128C292.713 398.22 297.411 387.935 301.994 377.927C303.044 375.656 304.094 373.385 305.144 371.114L306.003 369.305C316.503 346.595 327.347 323.053 343.351 302.734C352.938 290.579 365.13 281.02 375.848 273.448C386.435 265.93 398.388 260.602 409.948 255.436C412.992 254.1 416.205 252.618 419.287 251.19C433.092 244.789 450.332 236.891 466.989 229.617C490.441 219.531 514.288 215.021 537.99 216.081C550.406 216.683 562.518 219.324 575.011 224.18C594.231 231.609 613.066 243.1 632.286 259.406C642.87 268.342 653.018 278.071 662.834 287.554C668.412 292.899 674.191 298.543 679.992 303.871C690.108 313.154 700.408 322.514 710.285 331.589C722.843 343.076 735.879 354.977 748.637 366.763C758.622 376.1 769.941 387.181 777.657 401.206C782.688 410.221 784.781 419.533 783.789 428.973L781.804 428.799C782.681 419.636 780.766 410.939 775.844 402.186C768.328 388.46 757.063 377.51 747.263 368.25C734.597 356.502 721.561 344.601 708.911 333.076C698.942 323.962 688.641 314.603 678.618 305.358C672.817 300.03 667.038 294.386 661.367 289.003C651.643 279.558 641.496 269.829 631.004 260.931C611.931 244.794 593.28 233.38 574.245 226.027C561.937 221.248 550.009 218.684 537.816 218.066C514.43 217.029 490.806 221.522 467.746 231.446C451.128 238.628 433.979 246.565 420.175 252.965C417.093 254.394 413.918 255.784 410.836 257.212C399.406 262.323 387.546 267.69 377.128 275.061C366.633 282.617 354.518 291.992 345.1 304C329.211 324.042 318.404 347.492 307.996 370.24L307.138 372.049C306.088 374.32 305.038 376.591 303.988 378.862C299.405 388.87 294.707 399.155 289.493 409.118C278.245 430.76 262.264 450.764 239.061 471.995L236.995 473.845C226.849 483.17 216.273 492.749 206.968 503.181C196.817 514.344 190.567 525.501 187.802 537.128C186.741 541.776 186.227 547.193 186.407 553.546C186.659 565.992 188.632 581.858 200.775 593.822C207.085 600.011 215.874 607.012 228.167 607.129C244.19 607.387 259.648 605.353 271.353 603.495C297.162 599.474 320.681 601.757 343.096 610.619C354.811 615.261 365.783 621.435 375.697 629.118C400.93 648.675 421.073 674.241 437.129 707.314C443.212 719.796 448.749 732.81 454.163 745.339C455.985 749.559 457.715 753.741 459.576 757.868C467.121 775.179 475.75 787.526 486.757 796.746C504.105 811.301 521.872 819.101 541.091 820.792C559.178 822.338 574.314 820.82 588.636 816.042C598.838 812.587 607.797 806.125 616.165 796.388C628.057 782.591 634.968 766.187 636.852 747.807C637.609 740.759 638.22 733.543 638.901 726.68C639.717 717.925 640.593 708.762 641.486 699.822C642.827 687.712 646.137 675.552 651.815 662.643C657.401 649.695 665.882 638.38 674.025 627.359L675.084 625.849C695.867 597.66 710.328 570.097 719.287 541.444C721.452 534.655 723.417 527.567 725.36 520.795C727.34 513.93 729.305 506.842 731.471 500.054C733.774 492.673 736.777 485.691 739.184 480.41C745.047 467.577 754.992 457.952 764.691 448.659C765.744 447.688 766.796 446.717 767.756 445.708C773.355 440.56 778.562 435.574 781.896 428.837L783.444 429.804Z" fill="#F2F6F7"/>
    <path d="M609.29 425.03C608.546 426.562 607.857 428.225 607.167 429.887C605.542 433.544 603.972 437.331 601.886 440.796C597.828 447.449 594.207 453.309 589.408 458.356C575.67 472.687 557.351 474.833 541.266 474.984C527.336 475.161 512.887 473.716 497.159 470.658C470.335 465.381 445.77 454.653 421.896 437.824C405.568 426.29 397.956 409.926 399.221 389.124C399.482 384.577 401.012 379.582 403.68 374.193C410.35 360.72 420.854 349.487 436.943 338.622C452.994 327.848 468.572 319.26 484.483 312.218C504.745 303.299 523.055 300.391 540.345 303.339C547.016 304.481 553.268 307.94 559.335 311.322L560.922 312.196C575.474 320.179 588.04 332.427 598.199 348.656C605.626 360.505 610.125 373.413 611.31 387.003C612.557 401.486 612 413.271 609.504 424.253L606.633 423.604C608.977 412.992 609.55 401.429 608.372 387.301C607.219 374.156 602.975 361.679 595.709 350.222C585.713 334.385 573.531 322.513 559.441 314.722L557.855 313.847C552.027 310.673 545.959 307.291 539.788 306.247C522.814 303.322 505.657 306.059 485.564 314.831C469.822 321.727 454.467 330.3 438.455 340.981C422.834 351.499 412.576 362.401 406.228 375.358C403.714 380.378 402.337 385.003 402.136 389.142C400.977 408.906 408.211 424.355 423.599 435.283C447.012 451.92 471.299 462.533 497.662 467.619C513.297 470.639 527.431 472.061 541.138 471.899C556.684 471.742 574.204 469.697 587.188 456.137C591.78 451.329 595.363 445.561 599.306 439.185C601.316 435.905 602.848 432.21 604.434 428.646C605.085 427.075 605.906 425.359 606.557 423.788L609.29 425.03Z" fill="#F2F6F7"/>
    <path d="M775.19 688.58C768.328 687.899 761.102 690.965 753.721 697.539C745.118 705.231 739.174 715.649 734.884 730.433C733.561 735.189 732.2 740.037 730.916 744.701C728.034 755.306 724.96 766.373 721.409 777.025C711.139 808.058 697.081 833.082 678.292 853.329C667.335 865.132 656.32 874.205 644.57 881.132C638.284 884.804 631.52 888.062 624.887 891.266C623.242 892.099 621.544 892.802 619.899 893.636L614.487 895.722C607.383 897.972 600.317 900.13 593.252 902.288C574.031 908.175 554.064 914.293 534.722 920.995C521.199 925.672 507.793 931.372 494.872 936.947C491.697 938.337 488.523 939.727 485.294 940.987C472.319 946.432 458.1 948.871 443.068 948.051C431.32 947.401 420.903 941.457 411.571 936.288C396.156 927.515 383.174 915.744 373.088 901.169C365.809 890.789 361.72 879.242 359.238 862.515C357.175 847.911 357.758 792.726 357.765 792.187L357.803 792.095C356.193 768.044 348.845 748.433 335.325 732.217C327.879 723.284 318.746 717.115 307.447 713.295C285.088 705.864 264.452 712.03 247.187 718.943C239.515 722.041 231.767 725.323 224.28 728.498C215.356 732.267 206.17 736.144 197.099 739.744C185.937 744.209 173.717 745.745 159.692 744.584C156.984 744.327 153.766 743.209 150.078 741.139C136.249 733.239 126.632 722.755 121.387 710.08C115.208 694.959 109.72 679.476 104.356 664.478C94.9191 638.155 83.5107 615.021 69.5518 593.86C61.4076 581.389 50.8842 567.607 34.9173 559.903C28.512 556.814 22.6475 555.031 16.9698 554.625L15.7441 557.581C21.2753 557.818 27.1781 559.508 33.5834 562.597C48.9037 570.033 59.0801 583.347 67.0238 595.518C80.8363 616.51 92.1366 639.383 101.519 665.575C106.883 680.573 112.371 696.056 118.605 711.307C124.081 724.729 134.177 735.627 148.614 743.887C152.725 746.242 156.22 747.475 159.466 747.738C173.676 748.976 186.735 747.246 198.25 742.711C207.413 739.149 216.637 735.18 225.431 731.465C232.918 728.291 240.666 725.008 248.338 721.911C265.119 715.121 285.14 709.133 306.536 716.274C317.373 719.902 326.083 725.787 333.144 734.344C346.186 750.145 353.357 769.141 354.919 792.523C354.863 795.53 354.307 848.562 356.424 863.297C358.922 880.247 363.335 892.578 370.722 903.219C381.101 918.132 394.376 930.241 410.253 939.206C419.731 944.544 430.518 950.641 442.989 951.374C458.429 952.255 473.094 949.784 486.499 944.085C489.674 942.695 492.941 941.343 496.116 939.953C508.999 934.47 522.312 928.732 535.797 924.147C555.031 917.184 574.905 911.027 594.126 905.141C601.192 902.983 608.295 900.732 615.492 898.52L621.127 896.418L621.257 896.364C622.902 895.531 624.639 894.735 626.284 893.902C632.917 890.698 639.681 887.441 646.097 883.714C658.109 876.679 669.331 867.367 680.496 855.325C699.53 834.747 713.795 809.484 724.165 777.951C727.754 767.207 730.697 756.194 733.71 745.535C734.994 740.871 736.355 736.023 737.678 731.267C741.738 717.037 747.437 706.95 755.624 699.736C762.46 693.694 768.902 690.952 774.857 691.473C780.365 692.025 785.448 695.432 790.143 701.601C794.584 707.339 798.163 713.587 801.029 720.513L802.599 716.726C799.797 710.692 796.526 705.005 792.525 699.774C787.336 692.967 781.514 689.254 775.19 688.58Z" fill="#F2F6F7"/>
    <path d="M997.082 183.773C994.748 181.83 992.544 179.834 990.21 177.892C976.744 166.245 962.893 154.223 946.947 144.904C934.319 137.502 923.317 132.182 910.937 130.188C902.95 128.824 894.742 128.777 887.035 128.828C865.658 128.949 845.297 133.93 824.522 139.388C800.578 145.698 774.828 152.449 748.438 158.394C730.522 162.439 711.608 163.148 692.25 160.75C674.561 158.503 657.315 153.625 640.53 148.938C635.681 147.577 630.556 146.101 625.577 144.794C598.757 137.678 571.385 136.07 541.938 139.99C514.667 143.62 485.409 150.216 452.579 160.202C427.169 167.961 400.117 177.853 370.169 190.55C340.483 203.139 315.768 222.011 296.756 246.713C286.732 259.66 277.532 273.491 268.563 286.768C265.478 291.335 262.355 295.994 259.271 300.561C248.298 316.579 237.097 330.014 224.84 341.819C221.438 345.063 217.281 347.778 213.293 350.346L212.433 350.856C195.32 361.839 175.949 369.394 157.23 376.68L156.838 376.842C139.334 383.549 124.315 390.528 110.72 397.99C101.874 402.874 93.2609 408.504 85.0394 413.972C80.7518 416.74 76.4258 419.602 72.0075 422.424L70.054 427.135C75.6867 423.734 81.2112 420.07 86.6051 416.461C94.8267 410.993 103.31 405.417 112.117 400.626C125.581 393.218 140.431 386.385 157.843 379.64L158.235 379.478C177.084 372.139 196.587 364.529 213.998 353.345L214.859 352.836C219.016 350.121 223.265 347.445 226.875 343.962C239.262 332.102 250.67 318.429 261.72 302.226C264.804 297.659 267.927 293 271.012 288.433C279.981 275.156 289.143 261.418 299.129 248.563C317.857 224.285 342.141 205.667 371.397 193.332C401.306 180.728 428.266 170.798 453.546 163.093C486.244 153.161 515.41 146.527 542.458 142.912C571.551 139.062 598.516 140.609 624.928 147.664C629.907 148.971 634.94 150.409 639.881 151.808C656.758 156.534 674.228 161.396 692.009 163.682C711.736 166.233 731.004 165.454 749.274 161.338C775.756 155.432 801.507 148.681 825.45 142.371C846.002 136.928 866.232 132.002 887.255 131.951C894.87 131.861 902.948 131.963 910.657 133.211C922.592 135.237 933.316 140.442 945.705 147.636C961.374 156.841 975.172 168.733 988.545 180.341C990.841 182.376 993.082 184.279 995.417 186.222C1002.62 192.348 1009.54 197.598 1016.44 202.086L1017.59 199.315C1010.69 194.826 1004.01 189.784 997.082 183.773Z" fill="#F2F6F7"/>
</svg>
