<svg xmlns="http://www.w3.org/2000/svg" width="39.18" height="39.181" viewBox="0 0 39.18 39.181">
    <g id="Сгруппировать_238" data-name="Сгруппировать 238" transform="translate(-922.726 -3689.819)" opacity="0.85">
        <g id="Сгруппировать_227" data-name="Сгруппировать 227">
            <g id="Сгруппировать_226" data-name="Сгруппировать 226">
                <path id="Контур_192" data-name="Контур 192" d="M945.071,3705.89h-5.51a.764.764,0,0,0-.765.765v5.509a.765.765,0,0,0,.765.766h5.51a.766.766,0,0,0,.765-.766v-5.509A.765.765,0,0,0,945.071,3705.89Zm-.765,5.509h-3.98v-3.979h3.98Z" fill="#fff"/>
            </g>
        </g>
        <g id="Сгруппировать_229" data-name="Сгруппировать 229">
            <g id="Сгруппировать_228" data-name="Сгруппировать 228">
                <path id="Контур_193" data-name="Контур 193" d="M959.3,3693.952a2.6,2.6,0,1,0,2.6,2.6A2.605,2.605,0,0,0,959.3,3693.952Zm0,3.673a1.072,1.072,0,1,1,1.072-1.071A1.072,1.072,0,0,1,959.3,3697.625Z" fill="#fff"/>
            </g>
        </g>
        <g id="Сгруппировать_231" data-name="Сгруппировать 231">
            <g id="Сгруппировать_230" data-name="Сгруппировать 230">
                <path id="Контур_194" data-name="Контур 194" d="M955.37,3696.01a.765.765,0,1,0,.224.541A.772.772,0,0,0,955.37,3696.01Z" fill="#fff"/>
            </g>
        </g>
        <g id="Сгруппировать_233" data-name="Сгруппировать 233">
            <g id="Сгруппировать_232" data-name="Сгруппировать 232">
                <path id="Контур_195" data-name="Контур 195" d="M954.524,3710.175a2.6,2.6,0,1,0,0-1.531h-4.709v-5.968a.765.765,0,0,0-.765-.766h-1.224v-4.593h4.287a.766.766,0,0,0,0-1.531H947.06a.766.766,0,0,0-.765.765v5.359h-3.214V3697.2a2.6,2.6,0,1,0-1.53,0v4.708h-5.969a.766.766,0,0,0-.766.766v1.224h-4.593v-8.991a2.6,2.6,0,1,0-1.531,0v9.758a.765.765,0,0,0,.766.765h5.358v3.214h-4.708a2.6,2.6,0,1,0,0,1.531h4.708v5.969a.766.766,0,0,0,.766.765h1.224v4.594h-4.287a.765.765,0,0,0,0,1.53h5.052a.765.765,0,0,0,.766-.765v-5.359h3.214v4.709a2.6,2.6,0,1,0,1.53,0v-4.709h5.969a.765.765,0,0,0,.765-.765v-1.225h4.594v8.991a2.6,2.6,0,1,0,1.531,0v-9.758a.766.766,0,0,0-.766-.765h-5.359v-3.214Zm2.487-1.837a1.072,1.072,0,1,1-1.071,1.072A1.073,1.073,0,0,1,957.011,3708.338Zm-27.551-14.845a1.071,1.071,0,1,1,1.071-1.072A1.073,1.073,0,0,1,929.46,3693.493Zm-1.839,16.988a1.072,1.072,0,1,1,1.071-1.071A1.072,1.072,0,0,1,927.621,3710.481Zm13.624-15.766a1.071,1.071,0,1,1,1.071,1.071A1.072,1.072,0,0,1,941.245,3694.715Zm2.142,29.389a1.071,1.071,0,1,1-1.071-1.071A1.073,1.073,0,0,1,943.387,3724.1Zm4.9-8.726H936.347v-11.937h11.938Zm6.887,9.949a1.071,1.071,0,1,1-1.071,1.071A1.072,1.072,0,0,1,955.172,3725.327Z" fill="#fff"/>
            </g>
        </g>
        <g id="Сгруппировать_235" data-name="Сгруппировать 235">
            <g id="Сгруппировать_234" data-name="Сгруппировать 234">
                <path id="Контур_196" data-name="Контур 196" d="M925.328,3719.664a2.6,2.6,0,1,0,2.6,2.6A2.6,2.6,0,0,0,925.328,3719.664Zm0,3.673a1.071,1.071,0,1,1,1.071-1.071A1.073,1.073,0,0,1,925.328,3723.337Z" fill="#fff"/>
            </g>
        </g>
        <g id="Сгруппировать_237" data-name="Сгруппировать 237">
            <g id="Сгруппировать_236" data-name="Сгруппировать 236">
                <path id="Контур_197" data-name="Контур 197" d="M930.345,3721.727a.765.765,0,1,0,.224.541A.772.772,0,0,0,930.345,3721.727Z" fill="#fff"/>
            </g>
        </g>
    </g>
</svg>
