<?xml version="1.0" encoding="UTF-8" standalone="no"?>
<!DOCTYPE svg PUBLIC "-//W3C//DTD SVG 1.1//EN" "http://www.w3.org/Graphics/SVG/1.1/DTD/svg11.dtd">
<svg width="100%" height="100%" viewBox="0 0 528 738" version="1.1" xmlns="http://www.w3.org/2000/svg" xmlns:xlink="http://www.w3.org/1999/xlink" xml:space="preserve" xmlns:serif="http://www.serif.com/" style="fill-rule:evenodd;clip-rule:evenodd;stroke-miterlimit:10;">
    <g transform="matrix(1,0,0,1,-3712.67,-31261.4)">
        <g transform="matrix(8.33333,0,0,8.33333,0,0)">
            <g transform="matrix(1,0,0,1,450.546,3834.85)">
                <path d="M0,-25.861L0,-5.585C0,-2.5 2.5,0 5.585,0L47.627,0C50.711,0 53.212,-2.5 53.212,-5.585L53.212,-25.861L0,-25.861Z" style="fill:none;fill-rule:nonzero;stroke:rgb(49,56,73);stroke-width:1px;"/>
            </g>
            <g transform="matrix(1,0,0,1,503.758,3772.71)">
                <path d="M0,33.861L0,5.585C0,2.5 -2.501,0 -5.585,0L-47.627,0C-50.712,0 -53.212,2.5 -53.212,5.585L-53.212,33.861L0,33.861Z" style="fill:none;fill-rule:nonzero;stroke:rgb(49,56,73);stroke-width:1px;"/>
            </g>
            <g transform="matrix(-1,0,0,1,923.143,2541.98)">
                <rect x="459.438" y="1214.42" width="4.267" height="13.189" style="fill:none;stroke:rgb(49,56,73);stroke-width:1px;"/>
            </g>
            <g transform="matrix(-1,0,0,1,923.143,2553.55)">
                <rect x="457.24" y="1213.58" width="8.663" height="3.288" style="fill:rgb(49,56,73);"/>
            </g>
            <g transform="matrix(-1,0,0,1,984.266,2541.98)">
                <rect x="489.999" y="1214.42" width="4.268" height="13.189" style="fill:none;stroke:rgb(49,56,73);stroke-width:1px;"/>
            </g>
            <g transform="matrix(-1,0,0,1,984.267,2553.55)">
                <rect x="487.802" y="1213.58" width="8.663" height="3.288" style="fill:rgb(49,56,73);"/>
            </g>
            <g transform="matrix(-1,0,0,1,954.304,2585.95)">
                <rect x="464.752" y="1193.33" width="24.8" height="11.39" style="fill:rgb(49,56,73);"/>
            </g>
            <g transform="matrix(-1,0,0,1,954.304,2591.39)">
                <rect x="464.752" y="1187.89" width="24.8" height="16.83" style="fill:none;stroke:rgb(49,56,73);stroke-width:1px;"/>
            </g>
            <g transform="matrix(-1,0,0,1,954.303,2610.35)">
                <rect x="474.082" y="1185.75" width="6.139" height="2.138" style="fill:none;stroke:rgb(49,56,73);stroke-width:1px;"/>
            </g>
        </g>
    </g>
</svg>
