<?xml version="1.0" encoding="UTF-8" standalone="no"?>
<!DOCTYPE svg PUBLIC "-//W3C//DTD SVG 1.1//EN" "http://www.w3.org/Graphics/SVG/1.1/DTD/svg11.dtd">
<svg width="100%" height="100%" viewBox="0 0 806 743" version="1.1" xmlns="http://www.w3.org/2000/svg" xmlns:xlink="http://www.w3.org/1999/xlink" xml:space="preserve" xmlns:serif="http://www.serif.com/" style="fill-rule:evenodd;clip-rule:evenodd;stroke-miterlimit:10;">
    <g transform="matrix(1,0,0,1,-3573.34,-30226.9)">
        <g transform="matrix(8.33333,0,0,8.33333,0,0)">
            <g transform="matrix(1,0,0,1,498.991,3632.25)">
                <path d="M0,79.103L-42.892,79.103C-49.18,79.103 -54.277,74.005 -54.277,67.716L-54.277,11.387C-54.277,5.098 -49.18,0 -42.892,0L0,0C6.288,0 11.387,5.098 11.387,11.387L11.387,67.716C11.387,74.005 6.288,79.103 0,79.103Z" style="fill:none;fill-rule:nonzero;stroke:rgb(49,56,73);stroke-width:1px;"/>
            </g>
            <g transform="matrix(1,0,0,1,492.044,3643.21)">
                <path d="M0,23.143L-28.997,23.143C-34.538,23.143 -39.03,18.651 -39.03,13.109L-39.03,10.035C-39.03,4.493 -34.538,0 -28.997,0L0,0C5.542,0 10.034,4.493 10.034,10.035L10.034,13.109C10.034,18.651 5.542,23.143 0,23.143Z" style="fill:none;fill-rule:nonzero;stroke:rgb(49,56,73);stroke-width:1px;"/>
            </g>
            <g transform="matrix(0,-1,-1,0,464.623,3649.77)">
                <circle cx="-5.011" cy="0.001" r="5.011" style="fill:none;stroke:rgb(49,56,73);stroke-width:1px;"/>
            </g>
            <g transform="matrix(1,0,0,1,444.714,3706.1)">
                <path d="M0,-23.917L-5.671,-23.917C-8.552,-23.917 -10.888,-21.581 -10.888,-18.7L-10.888,-5.217C-10.888,-2.336 -8.552,0 -5.671,0L0,0L0,-23.917Z" style="fill:none;fill-rule:nonzero;stroke:rgb(49,56,73);stroke-width:1px;"/>
            </g>
            <g transform="matrix(1,0,0,1,515.261,3706.1)">
                <path d="M0,-23.917L-4.883,-23.917L-4.883,0L0,0C2.881,0 5.217,-2.336 5.217,-5.217L5.217,-18.7C5.217,-21.581 2.881,-23.917 0,-23.917Z" style="fill:none;fill-rule:nonzero;stroke:rgb(49,56,73);stroke-width:1px;"/>
            </g>
            <g transform="matrix(1,0,0,1,473.335,3650.65)">
                <path d="M0,0L23.326,0" style="fill:none;fill-rule:nonzero;stroke:rgb(49,56,73);stroke-width:1px;"/>
            </g>
            <g transform="matrix(1,0,0,1,473.335,3653.89)">
                <path d="M0,0L23.326,0" style="fill:none;fill-rule:nonzero;stroke:rgb(49,56,73);stroke-width:1px;"/>
            </g>
            <g transform="matrix(1,0,0,1,473.335,3657.12)">
                <path d="M0,0L23.326,0" style="fill:none;fill-rule:nonzero;stroke:rgb(49,56,73);stroke-width:1px;"/>
            </g>
            <g transform="matrix(0.7065,-0.707713,-0.707713,-0.7065,473.322,3708.02)">
                <path d="M-5.682,13.701L33.036,13.701" style="fill:none;fill-rule:nonzero;stroke:rgb(49,56,73);stroke-width:2px;"/>
            </g>
            <g transform="matrix(0.690007,-0.723802,-0.723802,-0.690007,484.089,3698.2)">
                <path d="M-3.22,7.518L17.553,7.518" style="fill:none;fill-rule:nonzero;stroke:rgb(49,56,73);stroke-width:2px;"/>
            </g>
        </g>
    </g>
</svg>
