<?xml version="1.0" encoding="UTF-8" standalone="no"?>
<!DOCTYPE svg PUBLIC "-//W3C//DTD SVG 1.1//EN" "http://www.w3.org/Graphics/SVG/1.1/DTD/svg11.dtd">
<svg width="100%" height="100%" viewBox="0 0 292 292" version="1.1" xmlns="http://www.w3.org/2000/svg" xmlns:xlink="http://www.w3.org/1999/xlink" xml:space="preserve" xmlns:serif="http://www.serif.com/" style="fill-rule:evenodd;clip-rule:evenodd;stroke-linejoin:round;stroke-miterlimit:2;">
    <g transform="matrix(1,0,0,1,-3268.08,-2104.49)">
        <g transform="matrix(8.33333,0,0,8.33333,0,0)">
            <g transform="matrix(1,0,0,1,399.388,254.347)">
                <path d="M0,29.193C-0.283,29.477 -0.661,29.633 -1.063,29.633C-1.465,29.633 -1.843,29.477 -2.126,29.193C-2.41,28.909 -2.567,28.531 -2.567,28.13C-2.567,27.728 -2.41,27.35 -2.126,27.066C-1.843,26.782 -1.465,26.626 -1.063,26.626C-0.661,26.626 -0.284,26.782 0,27.066C0.284,27.35 0.44,27.728 0.44,28.13C0.44,28.531 0.284,28.909 0,29.193M-1.063,25.258C-1.553,25.258 -2.024,25.381 -2.442,25.61C-4.644,22.789 -5.852,19.283 -5.852,15.692C-5.852,6.796 1.386,-0.441 10.281,-0.441C11.362,-0.441 12.443,-0.333 13.494,-0.121C13.863,-0.046 14.225,-0.286 14.299,-0.656C14.374,-1.026 14.135,-1.386 13.765,-1.461C12.625,-1.692 11.453,-1.808 10.281,-1.808C5.606,-1.808 1.212,0.012 -2.094,3.318C-5.398,6.623 -7.219,11.017 -7.219,15.692C-7.219,19.624 -5.884,23.461 -3.453,26.537C-3.766,27.005 -3.935,27.554 -3.935,28.13C-3.935,28.897 -3.636,29.618 -3.093,30.16C-2.551,30.702 -1.83,31.001 -1.063,31.001C-0.296,31.001 0.425,30.702 0.967,30.16C1.51,29.618 1.808,28.896 1.808,28.13C1.808,27.363 1.51,26.642 0.967,26.099C0.425,25.557 -0.296,25.258 -1.063,25.258" style="fill:rgb(215,229,234);fill-rule:nonzero;"/>
            </g>
            <g transform="matrix(1,0,0,1,419.95,283.604)">
                <path d="M0,-24.939C-0.284,-25.223 -0.44,-25.601 -0.44,-26.002C-0.44,-26.404 -0.284,-26.782 0,-27.066C0.284,-27.35 0.662,-27.506 1.063,-27.506C1.466,-27.506 1.843,-27.35 2.127,-27.066C2.714,-26.48 2.714,-25.525 2.127,-24.939C1.843,-24.655 1.466,-24.499 1.063,-24.499C0.662,-24.499 0.284,-24.655 0,-24.939M3.453,-24.411C4.196,-25.526 4.077,-27.05 3.094,-28.033C2.552,-28.575 1.831,-28.874 1.063,-28.874C0.297,-28.874 -0.424,-28.575 -0.967,-28.033C-1.509,-27.491 -1.808,-26.77 -1.808,-26.002C-1.808,-25.236 -1.509,-24.515 -0.967,-23.973C-0.424,-23.43 0.297,-23.131 1.063,-23.131C1.554,-23.131 2.024,-23.254 2.442,-23.483C4.645,-20.661 5.853,-17.156 5.853,-13.565C5.853,-4.669 -1.385,2.568 -10.28,2.568C-11.352,2.568 -12.422,2.462 -13.463,2.254C-13.833,2.18 -14.193,2.42 -14.268,2.79C-14.341,3.161 -14.102,3.521 -13.731,3.595C-12.603,3.821 -11.441,3.935 -10.28,3.935C-5.606,3.935 -1.211,2.115 2.094,-1.19C5.399,-4.496 7.22,-8.89 7.22,-13.565C7.22,-17.497 5.884,-21.335 3.453,-24.411" style="fill:rgb(215,229,234);fill-rule:nonzero;"/>
            </g>
            <g transform="matrix(1,0,0,1,404.552,262.107)">
                <path d="M0,15.863C-0.271,15.688 -0.627,15.726 -0.854,15.954L-1.687,16.786L-3.742,14.73L-2.91,13.898C-2.683,13.67 -2.645,13.314 -2.819,13.044C-3.439,12.085 -3.875,11.033 -4.114,9.919C-4.183,9.604 -4.461,9.379 -4.783,9.379L-5.957,9.379L-5.955,6.472L-4.783,6.472C-4.461,6.472 -4.183,6.247 -4.114,5.932C-3.875,4.818 -3.439,3.766 -2.819,2.807C-2.645,2.536 -2.683,2.18 -2.91,1.953L-3.736,1.126L-1.681,-0.929L-0.854,-0.103C-0.627,0.125 -0.271,0.163 0,-0.012C0.958,-0.632 2.01,-1.068 3.124,-1.307C3.439,-1.375 3.664,-1.653 3.664,-1.975L3.664,-3.143L6.571,-3.143L6.571,-1.975C6.571,-1.653 6.796,-1.375 7.111,-1.307C8.226,-1.068 9.277,-0.632 10.236,-0.012C10.507,0.163 10.862,0.125 11.091,-0.103L11.916,-0.929L13.973,1.126L13.146,1.952C12.918,2.18 12.881,2.536 13.056,2.807C13.675,3.766 14.11,4.818 14.351,5.932C14.418,6.247 14.696,6.472 15.019,6.472L16.193,6.472L16.193,9.379L15.019,9.379C14.696,9.379 14.418,9.604 14.351,9.919C14.111,11.033 13.675,12.085 13.056,13.044C12.881,13.314 12.918,13.67 13.146,13.898L13.978,14.73L11.923,16.786L11.091,15.954C10.862,15.726 10.507,15.688 10.236,15.863C9.277,16.483 8.226,16.919 7.111,17.158C6.796,17.226 6.571,17.504 6.571,17.826L6.571,19.006L3.664,19.006L3.664,17.826C3.664,17.504 3.439,17.226 3.124,17.158C2.01,16.919 0.959,16.483 0,15.863M2.297,19.689C2.297,20.067 2.604,20.373 2.98,20.373L7.255,20.373C7.633,20.373 7.938,20.067 7.938,19.689L7.938,18.364C8.838,18.122 9.696,17.766 10.504,17.301L11.439,18.237C11.568,18.364 11.742,18.437 11.924,18.437C12.104,18.437 12.278,18.364 12.407,18.236L15.428,15.213C15.694,14.946 15.694,14.513 15.428,14.246L14.493,13.312C14.959,12.504 15.314,11.645 15.557,10.746L16.877,10.746C17.255,10.746 17.561,10.44 17.561,10.063L17.561,5.788C17.561,5.41 17.255,5.105 16.877,5.105L15.557,5.105C15.314,4.206 14.959,3.347 14.493,2.539L15.423,1.61C15.551,1.482 15.623,1.307 15.623,1.126C15.623,0.945 15.551,0.771 15.423,0.642L12.399,-2.379C12.132,-2.645 11.699,-2.645 11.433,-2.378L10.504,-1.45C9.696,-1.915 8.838,-2.271 7.938,-2.513L7.938,-3.826C7.938,-4.204 7.633,-4.51 7.255,-4.51L2.98,-4.51C2.604,-4.51 2.297,-4.204 2.297,-3.826L2.297,-2.513C1.398,-2.271 0.539,-1.915 -0.269,-1.45L-1.196,-2.378C-1.464,-2.645 -1.896,-2.645 -2.163,-2.379L-5.187,0.643C-5.315,0.771 -5.387,0.945 -5.387,1.126C-5.387,1.307 -5.315,1.482 -5.187,1.61L-4.258,2.539C-4.723,3.347 -5.079,4.206 -5.32,5.105L-6.639,5.105C-7.016,5.105 -7.322,5.41 -7.322,5.788L-7.324,10.062C-7.325,10.243 -7.253,10.418 -7.124,10.546C-6.996,10.674 -6.822,10.746 -6.641,10.746L-5.32,10.746C-5.079,11.645 -4.723,12.504 -4.258,13.312L-5.192,14.246C-5.459,14.513 -5.459,14.946 -5.192,15.213L-2.171,18.236C-2.043,18.364 -1.869,18.437 -1.687,18.437C-1.506,18.437 -1.332,18.364 -1.204,18.237L-0.269,17.301C0.539,17.766 1.398,18.122 2.297,18.364L2.297,19.689Z" style="fill:rgb(215,229,234);fill-rule:nonzero;"/>
            </g>
            <g transform="matrix(1,0,0,1,405.388,270.04)">
                <path d="M0,-0.001C0,-2.361 1.92,-4.282 4.281,-4.282C6.642,-4.282 8.563,-2.361 8.563,-0.001C8.563,2.36 6.642,4.281 4.281,4.281C1.92,4.281 0,2.36 0,-0.001M9.93,-0.001C9.93,-3.115 7.396,-5.649 4.281,-5.649C1.166,-5.649 -1.367,-3.115 -1.367,-0.001C-1.367,3.114 1.166,5.648 4.281,5.648C7.396,5.648 9.93,3.114 9.93,-0.001" style="fill:rgb(215,229,234);fill-rule:nonzero;"/>
            </g>
            <g transform="matrix(1,0,0,1,415.964,253.756)">
                <path d="M0,1.368C0.181,1.368 0.356,1.295 0.483,1.168C0.61,1.04 0.684,0.864 0.684,0.684C0.684,0.505 0.611,0.328 0.483,0.201C0.356,0.074 0.181,0 0,0C-0.181,0 -0.355,0.074 -0.482,0.201C-0.61,0.328 -0.684,0.504 -0.684,0.684C-0.684,0.864 -0.61,1.04 -0.482,1.168C-0.355,1.295 -0.181,1.368 0,1.368" style="fill:rgb(215,229,234);fill-rule:nonzero;"/>
            </g>
            <g transform="matrix(1,0,0,1,403.405,286.333)">
                <path d="M0,-1.367C-0.18,-1.367 -0.356,-1.294 -0.483,-1.167C-0.61,-1.04 -0.684,-0.863 -0.684,-0.683C-0.684,-0.503 -0.61,-0.327 -0.483,-0.2C-0.356,-0.073 -0.18,0 0,0C0.18,0 0.356,-0.073 0.483,-0.2C0.61,-0.327 0.684,-0.504 0.684,-0.683C0.684,-0.863 0.61,-1.04 0.483,-1.167C0.356,-1.294 0.18,-1.367 0,-1.367" style="fill:rgb(215,229,234);fill-rule:nonzero;"/>
            </g>
        </g>
    </g>
</svg>
