<?xml version="1.0" encoding="UTF-8" standalone="no"?>
<!DOCTYPE svg PUBLIC "-//W3C//DTD SVG 1.1//EN" "http://www.w3.org/Graphics/SVG/1.1/DTD/svg11.dtd">
<svg width="100%" height="100%" viewBox="0 0 336 357" version="1.1" xmlns="http://www.w3.org/2000/svg" xmlns:xlink="http://www.w3.org/1999/xlink" xml:space="preserve" xmlns:serif="http://www.serif.com/" style="fill-rule:evenodd;clip-rule:evenodd;stroke-linejoin:round;stroke-miterlimit:2;">
    <g transform="matrix(1,0,0,1,-7727.82,-11195.9)">
        <g transform="matrix(8.33333,0,0,8.33333,0,0)">
            <g opacity="0.85">
                <g transform="matrix(1,0,0,1,946.394,1369.85)">
                    <path d="M0,-11.602C-3.198,-11.602 -5.801,-8.999 -5.801,-5.801C-5.801,-2.603 -3.198,-0.001 0,-0.001C3.198,-0.001 5.801,-2.603 5.801,-5.801C5.801,-8.999 3.198,-11.602 0,-11.602M0,1.711C-4.143,1.711 -7.512,-1.659 -7.512,-5.801C-7.512,-9.944 -4.143,-13.313 0,-13.313C4.142,-13.313 7.512,-9.944 7.512,-5.801C7.512,-1.659 4.142,1.711 0,1.711" style="fill:white;fill-rule:nonzero;"/>
                </g>
                <g transform="matrix(1,0,0,1,961.31,1348.91)">
                    <path d="M0,-3.693C-1.019,-3.693 -1.848,-2.864 -1.848,-1.846C-1.848,-0.828 -1.019,0 0,0C1.018,0 1.846,-0.828 1.846,-1.846C1.846,-2.864 1.018,-3.693 0,-3.693M0,1.711C-1.962,1.711 -3.559,0.116 -3.559,-1.846C-3.559,-3.808 -1.962,-5.404 0,-5.404C1.961,-5.404 3.557,-3.808 3.557,-1.846C3.557,0.116 1.961,1.711 0,1.711" style="fill:white;fill-rule:nonzero;"/>
                </g>
                <g transform="matrix(1,0,0,1,934.742,1356.03)">
                    <path d="M0,-3.694C-1.019,-3.694 -1.848,-2.866 -1.848,-1.848C-1.848,-0.829 -1.019,0 0,0C1.018,0 1.846,-0.829 1.846,-1.848C1.846,-2.866 1.018,-3.694 0,-3.694M0,1.711C-1.962,1.711 -3.559,0.114 -3.559,-1.848C-3.559,-3.81 -1.962,-5.405 0,-5.405C1.961,-5.405 3.557,-3.81 3.557,-1.848C3.557,0.114 1.961,1.711 0,1.711" style="fill:white;fill-rule:nonzero;"/>
                </g>
                <g transform="matrix(1,0,0,1,930.899,1377.42)">
                    <path d="M0,-3.201C-0.705,-3.201 -1.38,-2.795 -1.687,-2.111C-2.104,-1.183 -1.689,-0.088 -0.761,0.33C0.168,0.748 1.264,0.331 1.681,-0.597C1.884,-1.047 1.898,-1.549 1.724,-2.01C1.549,-2.471 1.204,-2.837 0.754,-3.039C0.509,-3.149 0.253,-3.201 0,-3.201M-0.009,2.203C-0.495,2.203 -0.99,2.103 -1.462,1.89C-3.251,1.085 -4.053,-1.024 -3.248,-2.813C-2.444,-4.602 -0.334,-5.404 1.455,-4.599C2.322,-4.209 2.986,-3.506 3.322,-2.618C3.66,-1.729 3.632,-0.762 3.241,0.104C2.649,1.421 1.35,2.203 -0.009,2.203" style="fill:white;fill-rule:nonzero;"/>
                </g>
                <g transform="matrix(1,0,0,1,954.22,1381.51)">
                    <path d="M0,2.321L0.009,2.321L0,2.321ZM-2.464,-0.635C-2.686,-0.635 -2.907,-0.595 -3.12,-0.513C-3.581,-0.338 -3.946,0.005 -4.148,0.455C-4.351,0.906 -4.366,1.407 -4.191,1.868C-4.016,2.329 -3.672,2.695 -3.222,2.897C-2.294,3.314 -1.197,2.899 -0.78,1.97C-0.362,1.041 -0.778,-0.054 -1.707,-0.471C-1.949,-0.58 -2.206,-0.635 -2.464,-0.635M-2.47,4.771C-2.956,4.771 -3.451,4.67 -3.923,4.457C-4.789,4.068 -5.454,3.364 -5.79,2.476C-6.128,1.587 -6.1,0.62 -5.709,-0.246C-5.32,-1.113 -4.615,-1.776 -3.728,-2.114C-2.838,-2.45 -1.872,-2.421 -1.006,-2.032C-0.139,-1.642 0.524,-0.938 0.862,-0.05C1.198,0.838 1.17,1.805 0.781,2.672C0.188,3.988 -1.111,4.771 -2.47,4.771" style="fill:white;fill-rule:nonzero;"/>
                </g>
                <g transform="matrix(1,0,0,1,966.476,1367.08)">
                    <path d="M0,2.707L0.009,2.707L0,2.707ZM-2.461,-0.247C-3.166,-0.247 -3.842,0.159 -4.149,0.842C-4.566,1.771 -4.15,2.867 -3.222,3.284C-2.293,3.701 -1.198,3.284 -0.78,2.356C-0.363,1.428 -0.779,0.332 -1.707,-0.085C-1.952,-0.195 -2.209,-0.247 -2.461,-0.247M-2.471,5.157C-2.956,5.157 -3.451,5.057 -3.923,4.844C-4.79,4.455 -5.453,3.751 -5.791,2.863C-6.127,1.975 -6.099,1.008 -5.71,0.141C-4.905,-1.648 -2.794,-2.45 -1.006,-1.646C0.783,-0.841 1.584,1.269 0.78,3.058C0.188,4.374 -1.112,5.157 -2.471,5.157" style="fill:white;fill-rule:nonzero;"/>
                </g>
                <g transform="matrix(1,0,0,1,951.055,1348.13)">
                    <path d="M0,11.466C-0.201,11.466 -0.402,11.396 -0.565,11.253C-0.92,10.941 -0.955,10.401 -0.643,10.046L7.836,0.39C8.147,0.035 8.688,0 9.043,0.312C9.398,0.623 9.434,1.164 9.121,1.519L0.643,11.175C0.474,11.367 0.237,11.466 0,11.466" style="fill:white;fill-rule:nonzero;"/>
                </g>
                <g transform="matrix(1,0,0,1,961.31,1364.79)">
                    <path d="M0,4.031C-0.071,4.031 -0.146,4.022 -0.218,4.002L-8.698,1.774C-9.154,1.655 -9.428,1.187 -9.308,0.73C-9.188,0.273 -8.721,0 -8.264,0.12L0.217,2.348C0.674,2.468 0.947,2.935 0.827,3.393C0.727,3.777 0.38,4.031 0,4.031" style="fill:white;fill-rule:nonzero;"/>
                </g>
                <g transform="matrix(1,0,0,1,951.013,1369.76)">
                    <path d="M0,11.239C-0.372,11.239 -0.714,10.995 -0.822,10.62L-3.53,1.187C-3.66,0.732 -3.397,0.259 -2.944,0.128C-2.487,0 -2.016,0.26 -1.886,0.714L0.822,10.147C0.952,10.602 0.69,11.075 0.236,11.206C0.157,11.229 0.078,11.239 0,11.239" style="fill:white;fill-rule:nonzero;"/>
                </g>
                <g transform="matrix(1,0,0,1,933.032,1367.16)">
                    <path d="M0,8.105C-0.256,8.105 -0.508,7.992 -0.677,7.773C-0.967,7.401 -0.898,6.863 -0.525,6.574L7.58,0.29C7.952,0 8.49,0.068 8.779,0.442C9.069,0.815 9.001,1.353 8.627,1.642L0.523,7.926C0.368,8.047 0.183,8.105 0,8.105" style="fill:white;fill-rule:nonzero;"/>
                </g>
                <g transform="matrix(1,0,0,1,941.233,1354.93)">
                    <path d="M0,5.774C-0.205,5.774 -0.408,5.701 -0.572,5.554L-4.979,1.587C-5.329,1.271 -5.358,0.73 -5.042,0.378C-4.726,0.026 -4.185,0 -3.834,0.315L0.572,4.283C0.923,4.599 0.951,5.14 0.636,5.491C0.467,5.679 0.234,5.774 0,5.774" style="fill:white;fill-rule:nonzero;"/>
                </g>
            </g>
        </g>
    </g>
</svg>
