<svg xmlns="http://www.w3.org/2000/svg" viewBox="0 0 37.67 26.46"><defs><style>.cls-1{fill:#d7e5ea;}.cls-2{fill:#357c96;}</style></defs><g id="Слой_2" data-name="Слой 2"><g id="Layer_1" data-name="Layer 1"><path class="cls-1" d="M31,10.91l-.6-.06a6.55,6.55,0,0,0-5.51-5.17,6.32,6.32,0,0,0-1.79,0A8.45,8.45,0,0,0,16.3.08,9.31,9.31,0,0,0,14.47,0,8.49,8.49,0,0,0,6.76,7.23a9.76,9.76,0,0,0-.07,1.62,7.19,7.19,0,0,0-.55,14.29l22.61,3.24A7.81,7.81,0,0,0,31,10.91ZM29,24.36,6.41,21.12A5.15,5.15,0,0,1,7.74,10.91a1,1,0,0,0,.86-.33,1,1,0,0,0,.25-.89,6.4,6.4,0,0,1,5-7.47A6.31,6.31,0,0,1,16,2.15a6.39,6.39,0,0,1,5.32,4.93,1,1,0,0,0,.48.66.87.87,0,0,0,.37.13.93.93,0,0,0,.44,0,4.5,4.5,0,0,1,1.93-.15,4.57,4.57,0,0,1,3.89,4.24,1,1,0,0,0,.87,1h.2a6.29,6.29,0,0,1,1.15,0A5.77,5.77,0,1,1,29,24.36Z"/><path class="cls-2" d="M29.33,9.7l-.53,0a5.85,5.85,0,0,0-5.5-3.86,6,6,0,0,0-1.57.22A7.5,7.5,0,0,0,15.08,2a7.28,7.28,0,0,0-1.61.17A7.51,7.51,0,0,0,7.61,9.51a6.87,6.87,0,0,0,.14,1.43A6.38,6.38,0,0,0,9.06,23.56H29.34a6.93,6.93,0,1,0,0-13.86Zm0,12.05H9a4.57,4.57,0,0,1-.12-9.14.9.9,0,0,0,.83-1.2,5.69,5.69,0,0,1,3.41-7.2,5.87,5.87,0,0,1,1.94-.34,5.71,5.71,0,0,1,5.3,3.67.91.91,0,0,0,.5.52.84.84,0,0,0,.35.07,1,1,0,0,0,.38-.08,3.9,3.9,0,0,1,1.68-.38,4.06,4.06,0,0,1,3.94,3.23.92.92,0,0,0,.89.73l.18,0a4.9,4.9,0,0,1,1-.1,5.12,5.12,0,1,1,0,10.24Z"/></g></g></svg>