<?xml version="1.0" encoding="UTF-8" standalone="no"?>
<!DOCTYPE svg PUBLIC "-//W3C//DTD SVG 1.1//EN" "http://www.w3.org/Graphics/SVG/1.1/DTD/svg11.dtd">
<svg width="100%" height="100%" viewBox="0 0 283 361" version="1.1" xmlns="http://www.w3.org/2000/svg" xmlns:xlink="http://www.w3.org/1999/xlink" xml:space="preserve" xmlns:serif="http://www.serif.com/" style="fill-rule:evenodd;clip-rule:evenodd;stroke-linejoin:round;stroke-miterlimit:2;">
    <g transform="matrix(1,0,0,1,-3274.7,-2244.05)">
        <g transform="matrix(8.33333,0,0,8.33333,0,0)">
            <g opacity="0.8">
                <g transform="matrix(1,0,0,1,417.22,278.148)">
                    <path d="M0,14.536L-14.539,14.536L-14.539,13.015C-9.264,10.96 -8.612,10.123 -8.401,9.445C-8.375,9.357 -8.36,9.265 -8.36,9.174L-8.36,8.348C-8.36,8.108 -8.453,7.88 -8.621,7.708C-9.067,7.251 -9.415,6.609 -9.628,5.849C-9.685,5.647 -9.81,5.469 -9.981,5.348C-10.074,5.283 -10.135,5.18 -10.15,5.064C-10.163,4.98 -10.156,4.853 -10.056,4.73C-9.922,4.566 -9.851,4.364 -9.851,4.154L-9.851,2.303C-9.851,0.773 -8.981,-0.001 -7.269,-0.001C-5.507,-0.001 -4.687,0.731 -4.687,2.303L-4.687,4.154C-4.687,4.364 -4.616,4.568 -4.482,4.73C-4.383,4.855 -4.376,4.98 -4.387,5.064C-4.402,5.18 -4.465,5.283 -4.556,5.348C-4.729,5.469 -4.854,5.645 -4.911,5.849C-5.123,6.609 -5.472,7.251 -5.918,7.708C-6.085,7.88 -6.178,8.108 -6.178,8.348L-6.178,9.174C-6.178,9.266 -6.164,9.357 -6.137,9.447C-5.925,10.125 -5.271,10.96 0,13.015L0,14.536ZM0.869,11.392C-3.166,9.83 -4.144,9.12 -4.351,8.94L-4.351,8.697C-3.872,8.124 -3.49,7.416 -3.233,6.618C-2.88,6.274 -2.646,5.815 -2.577,5.317C-2.506,4.808 -2.607,4.307 -2.86,3.873L-2.86,2.303C-2.86,-0.285 -4.508,-1.828 -7.269,-1.828C-9.988,-1.828 -11.678,-0.245 -11.678,2.303L-11.678,3.873C-11.932,4.307 -12.031,4.808 -11.962,5.313C-11.893,5.811 -11.658,6.272 -11.305,6.616C-11.048,7.416 -10.666,8.124 -10.188,8.697L-10.188,8.902C-10.457,9.154 -11.494,9.878 -15.411,11.393C-15.991,11.619 -16.366,12.17 -16.366,12.794L-16.366,14.861C-16.366,15.689 -15.697,16.364 -14.872,16.364L0.336,16.364C1.158,16.364 1.827,15.689 1.827,14.861L1.827,12.794C1.827,12.175 1.442,11.613 0.869,11.392" style="fill:rgb(49,56,73);fill-rule:nonzero;"/>
                </g>
                <g transform="matrix(1,0,0,1,412.853,280.722)">
                    <path d="M0,20.362C-0.325,20.426 -0.591,20.662 -0.693,20.978L-2.933,27.911L-5.172,20.978C-5.273,20.662 -5.54,20.426 -5.864,20.362C-12.934,18.972 -18.062,12.731 -18.062,5.521C-18.062,-2.822 -11.275,-9.608 -2.933,-9.608C5.41,-9.608 12.197,-2.822 12.197,5.521C12.197,12.731 7.068,18.972 0,20.362M-2.933,-11.436C-12.282,-11.436 -19.89,-3.828 -19.89,5.521C-19.89,13.42 -14.395,20.281 -6.748,22.041L-3.802,31.164C-3.681,31.542 -3.329,31.798 -2.933,31.798C-2.536,31.798 -2.185,31.542 -2.063,31.164L0.883,22.041C8.53,20.281 14.024,13.42 14.024,5.521C14.024,-3.828 6.417,-11.436 -2.933,-11.436" style="fill:rgb(49,56,73);fill-rule:nonzero;"/>
                </g>
            </g>
        </g>
    </g>
</svg>
