<svg xmlns="http://www.w3.org/2000/svg" width="39" height="39" viewBox="0 0 39 39">
    <g id="Сгруппировать_205" data-name="Сгруппировать 205" transform="translate(-923.05 -3453)">
        <path id="Контур_176" data-name="Контур 176" d="M947.61,3472.271h-1.981a.724.724,0,0,0-.723.724v1.98a.724.724,0,0,0,.723.724h1.981a.724.724,0,0,0,.723-.724V3473A.724.724,0,0,0,947.61,3472.271Zm-.419,2.285h-1.143v-1.142h1.143Z" fill="#fff"/>
        <path id="Контур_177" data-name="Контур 177" d="M952.18,3472.271H950.2a.725.725,0,0,0-.724.724v1.98a.725.725,0,0,0,.724.724h1.98a.725.725,0,0,0,.724-.724V3473A.725.725,0,0,0,952.18,3472.271Zm-.419,2.285h-1.142v-1.142h1.142Z" fill="#fff"/>
        <path id="Контур_178" data-name="Контур 178" d="M947.61,3476.842h-1.981a.723.723,0,0,0-.723.723v1.981a.723.723,0,0,0,.723.723h1.981a.723.723,0,0,0,.723-.723v-1.981A.723.723,0,0,0,947.61,3476.842Zm-.419,2.285h-1.143v-1.143h1.143Z" fill="#fff"/>
        <path id="Контур_179" data-name="Контур 179" d="M952.18,3476.842H950.2a.724.724,0,0,0-.724.723v1.981a.724.724,0,0,0,.724.723h1.98a.724.724,0,0,0,.724-.723v-1.981A.724.724,0,0,0,952.18,3476.842Zm-.419,2.285h-1.142v-1.143h1.142Z" fill="#fff"/>
        <path id="Контур_180" data-name="Контур 180" d="M947.61,3481.412h-1.981a.724.724,0,0,0-.723.723v1.981a.724.724,0,0,0,.723.724h1.981a.724.724,0,0,0,.723-.724v-1.981A.724.724,0,0,0,947.61,3481.412Zm-.419,2.285h-1.143v-1.143h1.143Z" fill="#fff"/>
        <path id="Контур_181" data-name="Контур 181" d="M952.18,3481.412H950.2a.725.725,0,0,0-.724.723v1.981a.725.725,0,0,0,.724.724h1.98a.725.725,0,0,0,.724-.724v-1.981A.725.725,0,0,0,952.18,3481.412Zm-.419,2.285h-1.142v-1.143h1.142Z" fill="#fff"/>
        <path id="Контур_182" data-name="Контур 182" d="M961.022,3488.572h-2.666V3468.8a15.808,15.808,0,0,0-24.469-13.221.571.571,0,0,0,.627.955,14.664,14.664,0,0,1,22.7,12.266v19.767h-2.024v-18.015a.571.571,0,0,0-.571-.571h-.343v-1.714a.572.572,0,0,0-.572-.571h-.571v-3.237a.572.572,0,0,0-.571-.572h-.915a.571.571,0,1,0,0,1.143h.344v2.666h-6.17v-2.666h3.085a.571.571,0,0,0,0-1.143h-1.714v-3.008a.572.572,0,1,0-1.143,0v3.008h-.8a.572.572,0,0,0-.571.572v3.237h-.571a.572.572,0,0,0-.572.571v1.714h-.342a.572.572,0,0,0-.572.571v18.015h-6.111v-5.011a6.025,6.025,0,0,0,3.343-10.578,4.692,4.692,0,0,0-3.692-7.276,4.693,4.693,0,0,0-4.138,7.276,6.024,6.024,0,0,0,3.344,10.576v5.013h-7.479V3468.8a14.627,14.627,0,0,1,4.613-10.676.571.571,0,1,0-.783-.832,15.759,15.759,0,0,0-4.972,11.508v19.767h-2.666a1.03,1.03,0,0,0-1.029,1.028,2.4,2.4,0,0,0,2.4,2.4h10.891a.572.572,0,0,0,0-1.143H925.45a1.259,1.259,0,0,1-1.252-1.142H960.9a1.259,1.259,0,0,1-1.252,1.142H939.04a.572.572,0,0,0,0,1.143h20.611a2.4,2.4,0,0,0,2.4-2.4A1.029,1.029,0,0,0,961.022,3488.572Zm-29.965-10.864a4.9,4.9,0,0,1,1.9-4.013.826.826,0,0,0,.155-1.151,3.551,3.551,0,0,1,2.824-5.7c.057,0,.114,0,.171,0a3.567,3.567,0,0,1,3.379,3.416,3.51,3.51,0,0,1-.72,2.276.83.83,0,0,0,.152,1.156,4.881,4.881,0,0,1-2.409,8.714v-5.853h.754a1.12,1.12,0,0,0,.8-.33l.781-.781a.571.571,0,1,0-.808-.808l-.777.776h-.747v-5.782a.571.571,0,0,0-1.143,0v1.087h-.321l-.009,0-.808-.808a.571.571,0,0,0-.808.808l.808.808a1.147,1.147,0,0,0,.817.338h.321v6.561H934a.434.434,0,0,1-.369-.208l-.864-1.437a.572.572,0,0,0-.98.589l.865,1.436a1.579,1.579,0,0,0,1.348.763h1.365v2.845a4.906,4.906,0,0,1-4.309-4.7Zm13.62-8.865h8.455v1.143h-8.455Zm1.371,19.729v-1.752h5.713v1.752Zm6.856,0V3486.4a.725.725,0,0,0-.724-.724h-6.551a.724.724,0,0,0-.723.724v2.171h-1.143v-17.443h10.283v17.443Z" fill="#fff"/>
    </g>
</svg>
