<?xml version="1.0" encoding="UTF-8" standalone="no"?>
<!DOCTYPE svg PUBLIC "-//W3C//DTD SVG 1.1//EN" "http://www.w3.org/Graphics/SVG/1.1/DTD/svg11.dtd">
<svg width="100%" height="100%" viewBox="0 0 212 336" version="1.1" xmlns="http://www.w3.org/2000/svg" xmlns:xlink="http://www.w3.org/1999/xlink" xml:space="preserve" xmlns:serif="http://www.serif.com/" style="fill-rule:evenodd;clip-rule:evenodd;stroke-linejoin:round;stroke-miterlimit:2;">
    <g transform="matrix(1,0,0,1,-7759.45,-13200.2)">
        <g transform="matrix(8.33333,0,0,8.33333,0,0)">
            <g opacity="0.85">
                <g transform="matrix(1,0,0,1,943.852,1596.64)">
                    <path d="M0,8.831C-6.32,8.831 -12.718,7.139 -12.718,3.906C-12.718,2.357 -11.226,1.053 -8.403,0.137C-7.981,0 -7.526,0.23 -7.39,0.654C-7.252,1.076 -7.483,1.531 -7.906,1.668C-10.27,2.435 -11.107,3.353 -11.107,3.906C-11.107,5.257 -6.78,7.221 0,7.221C6.779,7.221 11.106,5.257 11.106,3.906C11.106,3.318 10.241,2.593 8.849,2.014C8.438,1.844 8.243,1.372 8.414,0.961C8.585,0.55 9.059,0.357 9.466,0.526C12.153,1.644 12.717,2.98 12.717,3.906C12.717,7.139 6.319,8.831 0,8.831" style="fill:white;fill-rule:nonzero;"/>
                </g>
                <g transform="matrix(1,0,0,1,943.225,1603.05)">
                    <path d="M0,17.911L0.008,17.911L0,17.911ZM2.061,21.224C1.869,21.224 1.68,21.156 1.53,21.025L-1.335,18.517C-1.511,18.364 -1.61,18.143 -1.61,17.911C-1.61,14.739 -3.018,11.764 -5.471,9.751L-6.81,8.652C-10.166,5.899 -12.09,1.831 -12.09,-2.508C-12.09,-2.953 -11.729,-3.313 -11.284,-3.313C-10.84,-3.313 -10.479,-2.953 -10.479,-2.508C-10.479,1.347 -8.771,4.961 -5.789,7.407L-4.449,8.506C-1.718,10.748 -0.111,14.024 -0.006,17.541L1.255,18.644L1.255,17.911C1.255,14.254 2.877,10.827 5.704,8.506L7.045,7.407C10.025,4.962 11.734,1.348 11.734,-2.508C11.734,-2.953 12.095,-3.313 12.54,-3.313C12.984,-3.313 13.345,-2.953 13.345,-2.508C13.345,1.831 11.421,5.9 8.066,8.652L6.726,9.751C4.272,11.764 2.865,14.739 2.865,17.911L2.865,20.419C2.865,20.735 2.681,21.021 2.393,21.153C2.287,21.201 2.173,21.224 2.061,21.224" style="fill:white;fill-rule:nonzero;"/>
                </g>
                <g transform="matrix(1,0,0,1,943.924,1589.2)">
                    <path d="M0,12.211C-0.445,12.211 -0.806,11.851 -0.806,11.406C-0.806,5.117 4.311,0 10.6,0C10.654,0 10.706,0.003 10.759,0.007C11.203,0.012 11.582,0.378 11.576,0.823C11.57,1.264 11.234,1.619 10.794,1.619C10.742,1.618 10.694,1.616 10.646,1.613L10.64,1.613C5.195,1.613 0.805,6.006 0.805,11.406C0.805,11.851 0.444,12.211 0,12.211" style="fill:white;fill-rule:nonzero;"/>
                </g>
                <g transform="matrix(1,0,0,1,938.741,1584.02)">
                    <path d="M0,17.393C-0.445,17.393 -0.805,17.033 -0.805,16.588C-0.805,7.441 6.636,0 15.782,0L15.918,0.003C16.362,0.008 16.753,0.374 16.747,0.818C16.742,1.263 16.429,1.645 15.967,1.615L15.782,1.61C7.523,1.61 0.805,8.329 0.805,16.588C0.805,17.033 0.445,17.393 0,17.393" style="fill:white;fill-rule:nonzero;"/>
                </g>
                <g transform="matrix(1,0,0,1,948.389,1593.67)">
                    <path d="M0,7.745C-0.445,7.745 -0.806,7.385 -0.806,6.94C-0.806,3.113 2.307,0 6.134,0C6.192,0 6.249,0.003 6.307,0.008C6.745,0.039 7.117,0.418 7.092,0.856C7.068,1.295 6.73,1.675 6.299,1.62C6.288,1.62 6.2,1.611 6.185,1.613C3.191,1.613 0.805,4.003 0.805,6.94C0.805,7.385 0.444,7.745 0,7.745" style="fill:white;fill-rule:nonzero;"/>
                </g>
                <g transform="matrix(1,0,0,1,943.924,1589.2)">
                    <path d="M0,12.211C-0.445,12.211 -0.806,11.851 -0.806,11.406C-0.806,5.117 4.311,0 10.6,0C10.654,0 10.706,0.003 10.759,0.007C11.203,0.012 11.582,0.378 11.576,0.823C11.57,1.264 11.234,1.619 10.794,1.619C10.742,1.618 10.694,1.616 10.646,1.613L10.64,1.613C5.195,1.613 0.805,6.006 0.805,11.406C0.805,11.851 0.444,12.211 0,12.211" style="fill:white;fill-rule:nonzero;"/>
                </g>
                <g transform="matrix(1,0,0,1,948.389,1593.67)">
                    <path d="M0,7.745C-0.445,7.745 -0.806,7.385 -0.806,6.94C-0.806,3.113 2.307,0 6.134,0C6.192,0 6.249,0.003 6.307,0.008C6.745,0.039 7.117,0.418 7.092,0.856C7.068,1.295 6.73,1.675 6.299,1.62C6.288,1.62 6.2,1.611 6.185,1.613C3.191,1.613 0.805,4.003 0.805,6.94C0.805,7.385 0.444,7.745 0,7.745" style="fill:white;fill-rule:nonzero;"/>
                </g>
            </g>
        </g>
    </g>
</svg>
