<svg xmlns="http://www.w3.org/2000/svg" viewBox="0 0 30.64 38.7"><defs><style>.cls-1{fill:#fff;}</style></defs><g id="Слой_2" data-name="Слой 2"><g id="Layer_1" data-name="Layer 1"><rect class="cls-1" x="4.84" y="4.84" width="8.06" height="1.61"/><rect class="cls-1" x="4.84" y="8.06" width="1.61" height="1.61"/><rect class="cls-1" x="8.06" y="8.06" width="1.61" height="1.61"/><path class="cls-1" d="M30.4,6.69,24,.24A.82.82,0,0,0,23.38,0h-21A2.42,2.42,0,0,0,0,2.42v25.8H1.61V2.42a.81.81,0,0,1,.81-.81H23.05l6,6v4.5h1.62V7.26a.8.8,0,0,0-.24-.57Z"/><path class="cls-1" d="M29,22.57V36.28a.81.81,0,0,1-.8.81H2.42a.81.81,0,0,1-.81-.81V34.67H0v1.61A2.42,2.42,0,0,0,2.42,38.7h25.8a2.43,2.43,0,0,0,2.42-2.42V22.57Z"/><path class="cls-1" d="M25,6.45a.8.8,0,0,1-.8-.81V.81H22.57V5.64A2.42,2.42,0,0,0,25,8.06H26.6V6.45Z"/><path class="cls-1" d="M28.45,14.75l-8.63,8.63H12.09a.78.78,0,0,0-.57.24l-7,7H.81v1.61h4A.82.82,0,0,0,5.41,32l7-7h7.72a.79.79,0,0,0,.57-.23l8.87-8.87Z"/><path class="cls-1" d="M29,14.51H24.19v1.61h4v4h1.61V15.32a.81.81,0,0,0-.81-.81Z"/></g></g></svg>