<?xml version="1.0" encoding="UTF-8" standalone="no"?>
<!DOCTYPE svg PUBLIC "-//W3C//DTD SVG 1.1//EN" "http://www.w3.org/Graphics/SVG/1.1/DTD/svg11.dtd">
<svg width="100%" height="100%" viewBox="0 0 1583 405" version="1.1" xmlns="http://www.w3.org/2000/svg" xmlns:xlink="http://www.w3.org/1999/xlink" xml:space="preserve" xmlns:serif="http://www.serif.com/" style="fill-rule:evenodd;clip-rule:evenodd;stroke-linejoin:round;stroke-miterlimit:2;">
    <g transform="matrix(1,0,0,1,-7457.81,-392.558)">
        <g transform="matrix(8.33333,0,0,8.33333,0,0)">
            <g transform="matrix(1,0,0,1,896.136,47.1073)">
                <path d="M0,23.069C-0.327,23.069 -0.594,22.804 -0.594,22.476L-0.594,0.596C-0.594,0.267 -0.327,0 0,0C0.33,0 0.599,0.267 0.599,0.596L0.599,22.476C0.599,22.804 0.33,23.069 0,23.069" style="fill:rgb(17,17,17);fill-rule:nonzero;"/>
            </g>
            <g transform="matrix(1,0,0,1,918.015,47.1073)">
                <path d="M0,23.069C-0.33,23.069 -0.599,22.804 -0.599,22.476L-0.599,0.596C-0.599,0.267 -0.33,0 0,0C0.329,0 0.596,0.267 0.596,0.596L0.596,22.476C0.596,22.804 0.329,23.069 0,23.069" style="fill:rgb(17,17,17);fill-rule:nonzero;"/>
            </g>
            <g transform="matrix(1,0,0,1,939.892,47.1073)">
                <path d="M0,23.069C-0.33,23.069 -0.597,22.804 -0.597,22.476L-0.597,0.596C-0.597,0.267 -0.33,0 0,0C0.327,0 0.597,0.267 0.597,0.596L0.597,22.476C0.597,22.804 0.327,23.069 0,23.069" style="fill:rgb(17,17,17);fill-rule:nonzero;"/>
            </g>
            <g transform="matrix(1,0,0,1,983.647,47.1073)">
                <path d="M0,23.069C-0.33,23.069 -0.597,22.804 -0.597,22.476L-0.597,0.596C-0.597,0.267 -0.33,0 0,0C0.329,0 0.596,0.267 0.596,0.596L0.596,22.476C0.596,22.804 0.329,23.069 0,23.069" style="fill:rgb(17,17,17);fill-rule:nonzero;"/>
            </g>
            <g transform="matrix(1,0,0,1,1062.41,58.0473)">
                <path d="M0,12.129C-0.329,12.129 -0.594,11.864 -0.594,11.536L-0.594,0.595C-0.594,0.265 -0.329,0 0,0C0.33,0 0.599,0.265 0.599,0.595L0.599,11.536C0.599,11.864 0.33,12.129 0,12.129" style="fill:rgb(17,17,17);fill-rule:nonzero;"/>
            </g>
            <g transform="matrix(1,0,0,1,1084.29,58.0473)">
                <path d="M0,12.129C-0.332,12.129 -0.599,11.864 -0.599,11.536L-0.599,0.595C-0.599,0.265 -0.332,0 0,0C0.327,0 0.594,0.265 0.594,0.595L0.594,11.536C0.594,11.864 0.327,12.129 0,12.129" style="fill:rgb(17,17,17);fill-rule:nonzero;"/>
            </g>
            <g transform="matrix(1,0,0,1,918.015,52.5193)">
                <path d="M0,17.657C-0.151,17.657 -0.307,17.6 -0.422,17.483L-16.83,1.077C-17.062,0.842 -17.062,0.465 -16.83,0.233C-16.597,0 -16.219,0 -15.985,0.233L0.422,16.639C0.652,16.874 0.652,17.252 0.422,17.483C0.305,17.6 0.153,17.657 0,17.657" style="fill:rgb(17,17,17);fill-rule:nonzero;"/>
            </g>
            <g transform="matrix(1,0,0,1,961.771,47.1078)">
                <path d="M0,1.193L-21.879,1.193C-22.209,1.193 -22.476,0.926 -22.476,0.596C-22.476,0.266 -22.209,0 -21.879,0L0,0C0.328,0 0.595,0.266 0.595,0.596C0.595,0.926 0.328,1.193 0,1.193" style="fill:rgb(17,17,17);fill-rule:nonzero;"/>
            </g>
            <g transform="matrix(1,0,0,1,961.771,68.9843)">
                <path d="M0,1.192L-21.879,1.192C-22.209,1.192 -22.476,0.927 -22.476,0.599C-22.476,0.267 -22.209,0 -21.879,0L0,0C0.328,0 0.595,0.267 0.595,0.599C0.595,0.927 0.328,1.192 0,1.192" style="fill:rgb(17,17,17);fill-rule:nonzero;"/>
            </g>
            <g transform="matrix(1,0,0,1,950.83,58.0467)">
                <path d="M0,1.194L-10.938,1.194C-11.268,1.194 -11.534,0.925 -11.534,0.595C-11.534,0.266 -11.268,0 -10.938,0L0,0C0.332,0 0.599,0.266 0.599,0.595C0.599,0.925 0.332,1.194 0,1.194" style="fill:rgb(17,17,17);fill-rule:nonzero;"/>
            </g>
            <g transform="matrix(1,0,0,1,994.786,47.049)">
                <path d="M0,11.992C-0.153,11.992 -0.307,11.933 -0.424,11.818C-0.655,11.584 -0.655,11.206 -0.424,10.972L10.316,0.232C10.549,0 10.927,0 11.16,0.232C11.394,0.465 11.394,0.844 11.16,1.077L0.42,11.818C0.305,11.933 0.151,11.992 0,11.992" style="fill:rgb(17,17,17);fill-rule:nonzero;"/>
            </g>
            <g transform="matrix(1,0,0,1,1005.72,57.7885)">
                <path d="M0,12.19C-0.153,12.19 -0.305,12.131 -0.42,12.016L-11.361,1.078C-11.593,0.844 -11.593,0.466 -11.361,0.233C-11.126,0 -10.748,0 -10.518,0.233L0.42,11.172C0.655,11.405 0.655,11.783 0.42,12.016C0.305,12.131 0.153,12.19 0,12.19" style="fill:rgb(17,17,17);fill-rule:nonzero;"/>
            </g>
            <g transform="matrix(1,0,0,1,1045.7,47.1078)">
                <path d="M0,1.193L-21.878,1.193C-22.207,1.193 -22.474,0.926 -22.474,0.596C-22.474,0.266 -22.207,0 -21.878,0L0,0C0.329,0 0.596,0.266 0.596,0.596C0.596,0.926 0.329,1.193 0,1.193" style="fill:rgb(17,17,17);fill-rule:nonzero;"/>
            </g>
            <g transform="matrix(1,0,0,1,1034.76,47.1073)">
                <path d="M0,23.069C-0.329,23.069 -0.596,22.804 -0.596,22.476L-0.596,0.596C-0.596,0.267 -0.329,0 0,0C0.33,0 0.597,0.267 0.597,0.596L0.597,22.476C0.597,22.804 0.33,23.069 0,23.069" style="fill:rgb(17,17,17);fill-rule:nonzero;"/>
            </g>
            <g transform="matrix(1,0,0,1,1084.29,47.1077)">
                <path d="M0,12.133C-0.332,12.133 -0.599,11.864 -0.599,11.534C-0.599,5.834 -5.237,1.193 -10.94,1.193C-16.643,1.193 -21.281,5.834 -21.281,11.534C-21.281,11.864 -21.55,12.133 -21.88,12.133C-22.209,12.133 -22.474,11.864 -22.474,11.534C-22.474,5.175 -17.3,0 -10.94,0C-4.58,0 0.594,5.175 0.594,11.534C0.594,11.864 0.327,12.133 0,12.133" style="fill:rgb(17,17,17);fill-rule:nonzero;"/>
            </g>
            <g transform="matrix(1,0,0,1,1084.29,59.788)">
                <path d="M0,1.19L-10.94,1.19C-11.27,1.19 -11.538,0.923 -11.538,0.597C-11.538,0.265 -11.27,0 -10.94,0L0,0C0.327,0 0.594,0.265 0.594,0.597C0.594,0.923 0.327,1.19 0,1.19" style="fill:rgb(17,17,17);fill-rule:nonzero;"/>
            </g>
            <g transform="matrix(1,0,0,1,895.777,90.0702)">
                <path d="M0,4.63C-0.562,3.993 -0.84,3.224 -0.84,2.32C-0.84,1.417 -0.562,0.644 0,0C0.552,-0.635 1.224,-0.954 2.014,-0.954C2.666,-0.954 3.214,-0.779 3.664,-0.431C4.111,-0.086 4.388,0.374 4.491,0.956L4.073,0.956C3.995,0.522 3.763,0.163 3.37,-0.125C2.985,-0.412 2.532,-0.557 2.014,-0.557C1.344,-0.557 0.769,-0.276 0.294,0.283C-0.183,0.85 -0.423,1.529 -0.423,2.32C-0.423,3.111 -0.183,3.789 0.294,4.357C0.769,4.916 1.344,5.197 2.014,5.197C2.589,5.197 3.063,5.029 3.431,4.692C3.811,4.357 4.022,3.91 4.073,3.348L4.491,3.348C4.435,4.027 4.181,4.571 3.727,4.975C3.277,5.382 2.708,5.584 2.014,5.584C1.224,5.584 0.552,5.267 0,4.63" style="fill:rgb(17,17,17);fill-rule:nonzero;"/>
            </g>
            <g transform="matrix(1,0,0,1,906.976,90.2736)">
                <path d="M0,4.141C0.427,3.64 0.641,2.964 0.641,2.117C0.641,1.248 0.427,0.553 0,0.027C-0.426,-0.496 -0.995,-0.76 -1.709,-0.76C-2.423,-0.76 -2.996,-0.496 -3.422,0.027C-3.849,0.553 -4.062,1.248 -4.062,2.117C-4.062,2.964 -3.849,3.64 -3.422,4.141C-2.996,4.654 -2.423,4.91 -1.709,4.91C-0.995,4.91 -0.426,4.654 0,4.141M-3.727,4.427C-4.229,3.846 -4.482,3.077 -4.482,2.117C-4.482,1.122 -4.229,0.329 -3.727,-0.266C-3.221,-0.859 -2.551,-1.158 -1.709,-1.158C-0.871,-1.158 -0.199,-0.859 0.305,-0.266C0.811,0.329 1.061,1.122 1.061,2.117C1.061,3.077 0.811,3.846 0.305,4.427C-0.199,5.007 -0.871,5.299 -1.709,5.299C-2.551,5.299 -3.221,5.007 -3.727,4.427" style="fill:rgb(17,17,17);fill-rule:nonzero;"/>
            </g>
            <g transform="matrix(1,0,0,1,910.67,89.2741)">
                <path d="M0,6.223L0,0L0.576,0L4.334,5.708L4.334,0L4.754,0L4.754,6.223L4.177,6.223L0.418,0.598L0.418,6.223L0,6.223Z" style="fill:rgb(17,17,17);fill-rule:nonzero;"/>
            </g>
            <g transform="matrix(1,0,0,1,918.359,89.2741)">
                <path d="M0,6.223L0,0L0.58,0L4.336,5.708L4.336,0L4.759,0L4.759,6.223L4.181,6.223L0.423,0.598L0.423,6.223L0,6.223Z" style="fill:rgb(17,17,17);fill-rule:nonzero;"/>
            </g>
            <g transform="matrix(1,0,0,1,926.055,89.2741)">
                <path d="M0,6.223L0,0L4.061,0L4.061,0.408L0.417,0.408L0.417,2.8L3.745,2.8L3.745,3.191L0.417,3.191L0.417,5.825L4.061,5.825L4.061,6.223L0,6.223Z" style="fill:rgb(17,17,17);fill-rule:nonzero;"/>
            </g>
            <g transform="matrix(1,0,0,1,933.012,90.0702)">
                <path d="M0,4.63C-0.559,3.993 -0.84,3.224 -0.84,2.32C-0.84,1.417 -0.559,0.644 0,0C0.553,-0.635 1.227,-0.954 2.016,-0.954C2.669,-0.954 3.217,-0.779 3.664,-0.431C4.113,-0.086 4.389,0.374 4.491,0.956L4.071,0.956C3.996,0.522 3.761,0.163 3.37,-0.125C2.985,-0.412 2.532,-0.557 2.016,-0.557C1.346,-0.557 0.771,-0.276 0.294,0.283C-0.181,0.85 -0.42,1.529 -0.42,2.32C-0.42,3.111 -0.181,3.789 0.294,4.357C0.771,4.916 1.346,5.197 2.016,5.197C2.591,5.197 3.062,5.029 3.436,4.692C3.812,4.357 4.023,3.91 4.071,3.348L4.491,3.348C4.437,4.027 4.183,4.571 3.728,4.975C3.277,5.382 2.709,5.584 2.016,5.584C1.227,5.584 0.553,5.267 0,4.63" style="fill:rgb(17,17,17);fill-rule:nonzero;"/>
            </g>
            <g transform="matrix(1,0,0,1,941.459,89.2741)">
                <path d="M0,6.223L0,0.408L-2.129,0.408L-2.129,0L2.574,0L2.574,0.408L0.422,0.408L0.422,6.223L0,6.223Z" style="fill:rgb(17,17,17);fill-rule:nonzero;"/>
            </g>
            <g transform="matrix(1,0,0,1,952.984,89.2741)">
                <path d="M0,6.223L0,0.408L-2.127,0.408L-2.127,0L2.574,0L2.574,0.408L0.422,0.408L0.422,6.223L0,6.223Z" style="fill:rgb(17,17,17);fill-rule:nonzero;"/>
            </g>
            <g transform="matrix(1,0,0,1,961.771,90.2736)">
                <path d="M0,4.141C0.425,3.64 0.641,2.964 0.641,2.117C0.641,1.248 0.425,0.553 0,0.027C-0.428,-0.496 -0.995,-0.76 -1.711,-0.76C-2.427,-0.76 -2.996,-0.496 -3.422,0.027C-3.849,0.553 -4.062,1.248 -4.062,2.117C-4.062,2.964 -3.849,3.64 -3.422,4.141C-2.996,4.654 -2.427,4.91 -1.711,4.91C-0.995,4.91 -0.428,4.654 0,4.141M-3.727,4.427C-4.229,3.846 -4.482,3.077 -4.482,2.117C-4.482,1.122 -4.229,0.329 -3.727,-0.266C-3.223,-0.859 -2.551,-1.158 -1.711,-1.158C-0.871,-1.158 -0.199,-0.859 0.303,-0.266C0.807,0.329 1.059,1.122 1.059,2.117C1.059,3.077 0.807,3.846 0.303,4.427C-0.199,5.007 -0.871,5.299 -1.711,5.299C-2.551,5.299 -3.223,5.007 -3.727,4.427" style="fill:rgb(17,17,17);fill-rule:nonzero;"/>
            </g>
            <g transform="matrix(1,0,0,1,970.578,89.2741)">
                <path d="M0,6.223L0,0L0.58,0L4.334,5.708L4.334,0L4.756,0L4.756,6.223L4.179,6.223L0.42,0.598L0.42,6.223L0,6.223Z" style="fill:rgb(17,17,17);fill-rule:nonzero;"/>
            </g>
            <g transform="matrix(1,0,0,1,978.271,89.2741)">
                <path d="M0,6.223L0,0L4.063,0L4.063,0.408L0.42,0.408L0.42,2.8L3.748,2.8L3.748,3.191L0.42,3.191L0.42,5.825L4.063,5.825L4.063,6.223L0,6.223Z" style="fill:rgb(17,17,17);fill-rule:nonzero;"/>
            </g>
            <g transform="matrix(1,0,0,1,984.728,89.2741)">
                <path d="M0,6.223L0,0L0.42,0L0.42,3.431L4.053,0L4.588,0L1.911,2.592L4.703,6.223L4.188,6.223L1.596,2.875L0.42,3.947L0.42,6.223L0,6.223Z" style="fill:rgb(17,17,17);fill-rule:nonzero;"/>
            </g>
            <g transform="matrix(1,0,0,1,993.566,89.2741)">
                <path d="M0,6.223L0,0.408L-2.134,0.408L-2.134,0L2.57,0L2.57,0.408L0.418,0.408L0.418,6.223L0,6.223Z" style="fill:rgb(17,17,17);fill-rule:nonzero;"/>
            </g>
            <g transform="matrix(1,0,0,1,1001.1,91.6675)">
                <path d="M0,1.437L-1.281,-1.913L-2.593,1.437L0,1.437ZM-3.989,3.83L-1.522,-2.393L-0.997,-2.393L1.438,3.83L0.955,3.83L0.157,1.836L-2.72,1.836L-3.518,3.83L-3.989,3.83Z" style="fill:rgb(17,17,17);fill-rule:nonzero;"/>
            </g>
        </g>
    </g>
</svg>
